G04 This is an RS-274x file exported by *
G04 gerbv version 2.6.2 *
G04 More information is available about gerbv at *
G04 http://gerbv.geda-project.org/ *
G04 --End of header info--*
%MOIN*%
%FSLAX34Y34*%
%IPPOS*%
%IR180*%
G04 --Define apertures--*
%ADD10C,0.0039*%
%ADD11C,0.0163*%
%ADD12C,0.0241*%
%ADD13R,0.0116X0.0218*%
%ADD14R,0.0315X0.0472*%
%ADD15C,0.0269*%
%ADD16C,0.0069*%
%ADD17R,0.0083X0.0138*%
%ADD18R,0.0138X0.0083*%
%ADD19R,0.0362X0.0362*%
%ADD20R,0.0292X0.0110*%
%ADD21C,0.0089*%
%ADD22R,0.0152X0.0083*%
%ADD23R,0.0083X0.0152*%
%ADD24R,0.0441X0.0441*%
%ADD25R,0.0048X0.0076*%
%ADD26R,0.0292X0.0179*%
G04 --Start main section--*
G54D10*
G36*
G01X-013787Y0000540D02*
G01X-013783Y0000539D01*
G01X-013779Y0000538D01*
G01X-013775Y0000537D01*
G01X-013772Y0000535D01*
G01X-013768Y0000533D01*
G01X-013765Y0000531D01*
G01X-013762Y0000528D01*
G01X-013760Y0000525D01*
G01X-013757Y0000522D01*
G01X-013755Y0000518D01*
G01X-013753Y0000515D01*
G01X-013752Y0000511D01*
G01X-013751Y0000507D01*
G01X-013751Y0000503D01*
G01X-013750Y0000499D01*
G01X-013750Y0000418D01*
G01X-013751Y0000414D01*
G01X-013751Y0000410D01*
G01X-013752Y0000406D01*
G01X-013753Y0000402D01*
G01X-013755Y0000399D01*
G01X-013757Y0000395D01*
G01X-013760Y0000392D01*
G01X-013762Y0000389D01*
G01X-013765Y0000387D01*
G01X-013768Y0000384D01*
G01X-013772Y0000382D01*
G01X-013775Y0000380D01*
G01X-013779Y0000379D01*
G01X-013783Y0000378D01*
G01X-013787Y0000378D01*
G01X-013791Y0000377D01*
G01X-013886Y0000377D01*
G01X-013890Y0000378D01*
G01X-013894Y0000378D01*
G01X-013898Y0000379D01*
G01X-013902Y0000380D01*
G01X-013905Y0000382D01*
G01X-013909Y0000384D01*
G01X-013912Y0000387D01*
G01X-013915Y0000389D01*
G01X-013918Y0000392D01*
G01X-013920Y0000395D01*
G01X-013922Y0000399D01*
G01X-013924Y0000402D01*
G01X-013925Y0000406D01*
G01X-013926Y0000410D01*
G01X-013927Y0000414D01*
G01X-013927Y0000418D01*
G01X-013927Y0000499D01*
G01X-013927Y0000503D01*
G01X-013926Y0000507D01*
G01X-013925Y0000511D01*
G01X-013924Y0000515D01*
G01X-013922Y0000518D01*
G01X-013920Y0000522D01*
G01X-013918Y0000525D01*
G01X-013915Y0000528D01*
G01X-013912Y0000531D01*
G01X-013909Y0000533D01*
G01X-013905Y0000535D01*
G01X-013902Y0000537D01*
G01X-013898Y0000538D01*
G01X-013894Y0000539D01*
G01X-013890Y0000540D01*
G01X-013886Y0000540D01*
G01X-013791Y0000540D01*
G01X-013787Y0000540D01*
G01X-013787Y0000540D01*
G37*
G54D11*
G01X-013839Y0000459D03*
G54D10*
G36*
G01X-013787Y0000922D02*
G01X-013783Y0000921D01*
G01X-013779Y0000920D01*
G01X-013775Y0000919D01*
G01X-013772Y0000917D01*
G01X-013768Y0000915D01*
G01X-013765Y0000913D01*
G01X-013762Y0000910D01*
G01X-013760Y0000907D01*
G01X-013757Y0000904D01*
G01X-013755Y0000900D01*
G01X-013753Y0000897D01*
G01X-013752Y0000893D01*
G01X-013751Y0000889D01*
G01X-013751Y0000885D01*
G01X-013750Y0000881D01*
G01X-013750Y0000800D01*
G01X-013751Y0000796D01*
G01X-013751Y0000792D01*
G01X-013752Y0000788D01*
G01X-013753Y0000784D01*
G01X-013755Y0000781D01*
G01X-013757Y0000777D01*
G01X-013760Y0000774D01*
G01X-013762Y0000771D01*
G01X-013765Y0000768D01*
G01X-013768Y0000766D01*
G01X-013772Y0000764D01*
G01X-013775Y0000762D01*
G01X-013779Y0000761D01*
G01X-013783Y0000760D01*
G01X-013787Y0000759D01*
G01X-013791Y0000759D01*
G01X-013886Y0000759D01*
G01X-013890Y0000759D01*
G01X-013894Y0000760D01*
G01X-013898Y0000761D01*
G01X-013902Y0000762D01*
G01X-013905Y0000764D01*
G01X-013909Y0000766D01*
G01X-013912Y0000768D01*
G01X-013915Y0000771D01*
G01X-013918Y0000774D01*
G01X-013920Y0000777D01*
G01X-013922Y0000781D01*
G01X-013924Y0000784D01*
G01X-013925Y0000788D01*
G01X-013926Y0000792D01*
G01X-013927Y0000796D01*
G01X-013927Y0000800D01*
G01X-013927Y0000881D01*
G01X-013927Y0000885D01*
G01X-013926Y0000889D01*
G01X-013925Y0000893D01*
G01X-013924Y0000897D01*
G01X-013922Y0000900D01*
G01X-013920Y0000904D01*
G01X-013918Y0000907D01*
G01X-013915Y0000910D01*
G01X-013912Y0000913D01*
G01X-013909Y0000915D01*
G01X-013905Y0000917D01*
G01X-013902Y0000919D01*
G01X-013898Y0000920D01*
G01X-013894Y0000921D01*
G01X-013890Y0000922D01*
G01X-013886Y0000922D01*
G01X-013791Y0000922D01*
G01X-013787Y0000922D01*
G01X-013787Y0000922D01*
G37*
G54D11*
G01X-013839Y0000841D03*
G54D10*
G36*
G01X-015863Y-002481D02*
G01X-015857Y-002482D01*
G01X-015851Y-002483D01*
G01X-015846Y-002485D01*
G01X-015840Y-002488D01*
G01X-015835Y-002491D01*
G01X-015831Y-002494D01*
G01X-015826Y-002498D01*
G01X-015822Y-002502D01*
G01X-015819Y-002507D01*
G01X-015816Y-002512D01*
G01X-015813Y-002518D01*
G01X-015811Y-002523D01*
G01X-015810Y-002529D01*
G01X-015809Y-002535D01*
G01X-015808Y-002541D01*
G01X-015808Y-002661D01*
G01X-015809Y-002667D01*
G01X-015810Y-002673D01*
G01X-015811Y-002679D01*
G01X-015813Y-002684D01*
G01X-015816Y-002690D01*
G01X-015819Y-002695D01*
G01X-015822Y-002700D01*
G01X-015826Y-002704D01*
G01X-015831Y-002708D01*
G01X-015835Y-002711D01*
G01X-015840Y-002714D01*
G01X-015846Y-002717D01*
G01X-015851Y-002719D01*
G01X-015857Y-002720D01*
G01X-015863Y-002721D01*
G01X-015869Y-002722D01*
G01X-016010Y-002722D01*
G01X-016016Y-002721D01*
G01X-016022Y-002720D01*
G01X-016027Y-002719D01*
G01X-016033Y-002717D01*
G01X-016038Y-002714D01*
G01X-016043Y-002711D01*
G01X-016048Y-002708D01*
G01X-016053Y-002704D01*
G01X-016057Y-002700D01*
G01X-016060Y-002695D01*
G01X-016063Y-002690D01*
G01X-016066Y-002684D01*
G01X-016068Y-002679D01*
G01X-016069Y-002673D01*
G01X-016070Y-002667D01*
G01X-016070Y-002661D01*
G01X-016070Y-002541D01*
G01X-016070Y-002535D01*
G01X-016069Y-002529D01*
G01X-016068Y-002523D01*
G01X-016066Y-002518D01*
G01X-016063Y-002512D01*
G01X-016060Y-002507D01*
G01X-016057Y-002502D01*
G01X-016053Y-002498D01*
G01X-016048Y-002494D01*
G01X-016043Y-002491D01*
G01X-016038Y-002488D01*
G01X-016033Y-002485D01*
G01X-016027Y-002483D01*
G01X-016022Y-002482D01*
G01X-016016Y-002481D01*
G01X-016010Y-002480D01*
G01X-015869Y-002480D01*
G01X-015863Y-002481D01*
G01X-015863Y-002481D01*
G37*
G54D12*
G01X-015939Y-002601D03*
G54D10*
G36*
G01X-015863Y-001861D02*
G01X-015857Y-001861D01*
G01X-015851Y-001863D01*
G01X-015846Y-001865D01*
G01X-015840Y-001867D01*
G01X-015835Y-001870D01*
G01X-015831Y-001874D01*
G01X-015826Y-001878D01*
G01X-015822Y-001882D01*
G01X-015819Y-001887D01*
G01X-015816Y-001892D01*
G01X-015813Y-001898D01*
G01X-015811Y-001903D01*
G01X-015810Y-001909D01*
G01X-015809Y-001915D01*
G01X-015808Y-001921D01*
G01X-015808Y-002041D01*
G01X-015809Y-002047D01*
G01X-015810Y-002053D01*
G01X-015811Y-002059D01*
G01X-015813Y-002064D01*
G01X-015816Y-002070D01*
G01X-015819Y-002075D01*
G01X-015822Y-002079D01*
G01X-015826Y-002084D01*
G01X-015831Y-002088D01*
G01X-015835Y-002091D01*
G01X-015840Y-002094D01*
G01X-015846Y-002097D01*
G01X-015851Y-002099D01*
G01X-015857Y-002100D01*
G01X-015863Y-002101D01*
G01X-015869Y-002101D01*
G01X-016010Y-002101D01*
G01X-016016Y-002101D01*
G01X-016022Y-002100D01*
G01X-016027Y-002099D01*
G01X-016033Y-002097D01*
G01X-016038Y-002094D01*
G01X-016043Y-002091D01*
G01X-016048Y-002088D01*
G01X-016053Y-002084D01*
G01X-016057Y-002079D01*
G01X-016060Y-002075D01*
G01X-016063Y-002070D01*
G01X-016066Y-002064D01*
G01X-016068Y-002059D01*
G01X-016069Y-002053D01*
G01X-016070Y-002047D01*
G01X-016070Y-002041D01*
G01X-016070Y-001921D01*
G01X-016070Y-001915D01*
G01X-016069Y-001909D01*
G01X-016068Y-001903D01*
G01X-016066Y-001898D01*
G01X-016063Y-001892D01*
G01X-016060Y-001887D01*
G01X-016057Y-001882D01*
G01X-016053Y-001878D01*
G01X-016048Y-001874D01*
G01X-016043Y-001870D01*
G01X-016038Y-001867D01*
G01X-016033Y-001865D01*
G01X-016027Y-001863D01*
G01X-016022Y-001861D01*
G01X-016016Y-001861D01*
G01X-016010Y-001860D01*
G01X-015869Y-001860D01*
G01X-015863Y-001861D01*
G01X-015863Y-001861D01*
G37*
G54D12*
G01X-015939Y-001981D03*
G54D10*
G36*
G01X-014588Y-003269D02*
G01X-014584Y-003269D01*
G01X-014580Y-003270D01*
G01X-014576Y-003272D01*
G01X-014573Y-003274D01*
G01X-014569Y-003276D01*
G01X-014566Y-003278D01*
G01X-014563Y-003281D01*
G01X-014560Y-003284D01*
G01X-014558Y-003287D01*
G01X-014556Y-003290D01*
G01X-014554Y-003294D01*
G01X-014553Y-003298D01*
G01X-014552Y-003301D01*
G01X-014551Y-003305D01*
G01X-014551Y-003309D01*
G01X-014551Y-003391D01*
G01X-014551Y-003395D01*
G01X-014552Y-003399D01*
G01X-014553Y-003402D01*
G01X-014554Y-003406D01*
G01X-014556Y-003410D01*
G01X-014558Y-003413D01*
G01X-014560Y-003416D01*
G01X-014563Y-003419D01*
G01X-014566Y-003422D01*
G01X-014569Y-003424D01*
G01X-014573Y-003426D01*
G01X-014576Y-003428D01*
G01X-014580Y-003430D01*
G01X-014584Y-003431D01*
G01X-014588Y-003431D01*
G01X-014592Y-003431D01*
G01X-014687Y-003431D01*
G01X-014691Y-003431D01*
G01X-014695Y-003431D01*
G01X-014699Y-003430D01*
G01X-014702Y-003428D01*
G01X-014706Y-003426D01*
G01X-014709Y-003424D01*
G01X-014713Y-003422D01*
G01X-014716Y-003419D01*
G01X-014718Y-003416D01*
G01X-014721Y-003413D01*
G01X-014723Y-003410D01*
G01X-014724Y-003406D01*
G01X-014726Y-003402D01*
G01X-014727Y-003399D01*
G01X-014727Y-003395D01*
G01X-014728Y-003391D01*
G01X-014728Y-003309D01*
G01X-014727Y-003305D01*
G01X-014727Y-003301D01*
G01X-014726Y-003298D01*
G01X-014724Y-003294D01*
G01X-014723Y-003290D01*
G01X-014721Y-003287D01*
G01X-014718Y-003284D01*
G01X-014716Y-003281D01*
G01X-014713Y-003278D01*
G01X-014709Y-003276D01*
G01X-014706Y-003274D01*
G01X-014702Y-003272D01*
G01X-014699Y-003270D01*
G01X-014695Y-003269D01*
G01X-014691Y-003269D01*
G01X-014687Y-003269D01*
G01X-014592Y-003269D01*
G01X-014588Y-003269D01*
G01X-014588Y-003269D01*
G37*
G54D11*
G01X-014639Y-003350D03*
G54D10*
G36*
G01X-014588Y-003651D02*
G01X-014584Y-003651D01*
G01X-014580Y-003652D01*
G01X-014576Y-003654D01*
G01X-014573Y-003655D01*
G01X-014569Y-003657D01*
G01X-014566Y-003660D01*
G01X-014563Y-003662D01*
G01X-014560Y-003665D01*
G01X-014558Y-003669D01*
G01X-014556Y-003672D01*
G01X-014554Y-003676D01*
G01X-014553Y-003679D01*
G01X-014552Y-003683D01*
G01X-014551Y-003687D01*
G01X-014551Y-003691D01*
G01X-014551Y-003773D01*
G01X-014551Y-003777D01*
G01X-014552Y-003780D01*
G01X-014553Y-003784D01*
G01X-014554Y-003788D01*
G01X-014556Y-003792D01*
G01X-014558Y-003795D01*
G01X-014560Y-003798D01*
G01X-014563Y-003801D01*
G01X-014566Y-003804D01*
G01X-014569Y-003806D01*
G01X-014573Y-003808D01*
G01X-014576Y-003810D01*
G01X-014580Y-003811D01*
G01X-014584Y-003812D01*
G01X-014588Y-003813D01*
G01X-014592Y-003813D01*
G01X-014687Y-003813D01*
G01X-014691Y-003813D01*
G01X-014695Y-003812D01*
G01X-014699Y-003811D01*
G01X-014702Y-003810D01*
G01X-014706Y-003808D01*
G01X-014709Y-003806D01*
G01X-014713Y-003804D01*
G01X-014716Y-003801D01*
G01X-014718Y-003798D01*
G01X-014721Y-003795D01*
G01X-014723Y-003792D01*
G01X-014724Y-003788D01*
G01X-014726Y-003784D01*
G01X-014727Y-003780D01*
G01X-014727Y-003777D01*
G01X-014728Y-003773D01*
G01X-014728Y-003691D01*
G01X-014727Y-003687D01*
G01X-014727Y-003683D01*
G01X-014726Y-003679D01*
G01X-014724Y-003676D01*
G01X-014723Y-003672D01*
G01X-014721Y-003669D01*
G01X-014718Y-003665D01*
G01X-014716Y-003662D01*
G01X-014713Y-003660D01*
G01X-014709Y-003657D01*
G01X-014706Y-003655D01*
G01X-014702Y-003654D01*
G01X-014699Y-003652D01*
G01X-014695Y-003651D01*
G01X-014691Y-003651D01*
G01X-014687Y-003651D01*
G01X-014592Y-003651D01*
G01X-014588Y-003651D01*
G01X-014588Y-003651D01*
G37*
G54D11*
G01X-014639Y-003732D03*
G54D10*
G36*
G01X-014588Y-002069D02*
G01X-014584Y-002069D01*
G01X-014580Y-002070D01*
G01X-014576Y-002072D01*
G01X-014573Y-002074D01*
G01X-014569Y-002076D01*
G01X-014566Y-002078D01*
G01X-014563Y-002081D01*
G01X-014560Y-002084D01*
G01X-014558Y-002087D01*
G01X-014556Y-002090D01*
G01X-014554Y-002094D01*
G01X-014553Y-002098D01*
G01X-014552Y-002101D01*
G01X-014551Y-002105D01*
G01X-014551Y-002109D01*
G01X-014551Y-002191D01*
G01X-014551Y-002195D01*
G01X-014552Y-002199D01*
G01X-014553Y-002202D01*
G01X-014554Y-002206D01*
G01X-014556Y-002210D01*
G01X-014558Y-002213D01*
G01X-014560Y-002216D01*
G01X-014563Y-002219D01*
G01X-014566Y-002222D01*
G01X-014569Y-002224D01*
G01X-014573Y-002226D01*
G01X-014576Y-002228D01*
G01X-014580Y-002230D01*
G01X-014584Y-002231D01*
G01X-014588Y-002231D01*
G01X-014592Y-002231D01*
G01X-014687Y-002231D01*
G01X-014691Y-002231D01*
G01X-014695Y-002231D01*
G01X-014699Y-002230D01*
G01X-014702Y-002228D01*
G01X-014706Y-002226D01*
G01X-014709Y-002224D01*
G01X-014713Y-002222D01*
G01X-014716Y-002219D01*
G01X-014718Y-002216D01*
G01X-014721Y-002213D01*
G01X-014723Y-002210D01*
G01X-014724Y-002206D01*
G01X-014726Y-002202D01*
G01X-014727Y-002199D01*
G01X-014727Y-002195D01*
G01X-014728Y-002191D01*
G01X-014728Y-002109D01*
G01X-014727Y-002105D01*
G01X-014727Y-002101D01*
G01X-014726Y-002098D01*
G01X-014724Y-002094D01*
G01X-014723Y-002090D01*
G01X-014721Y-002087D01*
G01X-014718Y-002084D01*
G01X-014716Y-002081D01*
G01X-014713Y-002078D01*
G01X-014709Y-002076D01*
G01X-014706Y-002074D01*
G01X-014702Y-002072D01*
G01X-014699Y-002070D01*
G01X-014695Y-002069D01*
G01X-014691Y-002069D01*
G01X-014687Y-002069D01*
G01X-014592Y-002069D01*
G01X-014588Y-002069D01*
G01X-014588Y-002069D01*
G37*
G54D11*
G01X-014639Y-002150D03*
G54D10*
G36*
G01X-014588Y-002451D02*
G01X-014584Y-002451D01*
G01X-014580Y-002452D01*
G01X-014576Y-002454D01*
G01X-014573Y-002455D01*
G01X-014569Y-002457D01*
G01X-014566Y-002460D01*
G01X-014563Y-002462D01*
G01X-014560Y-002465D01*
G01X-014558Y-002469D01*
G01X-014556Y-002472D01*
G01X-014554Y-002476D01*
G01X-014553Y-002479D01*
G01X-014552Y-002483D01*
G01X-014551Y-002487D01*
G01X-014551Y-002491D01*
G01X-014551Y-002573D01*
G01X-014551Y-002577D01*
G01X-014552Y-002580D01*
G01X-014553Y-002584D01*
G01X-014554Y-002588D01*
G01X-014556Y-002592D01*
G01X-014558Y-002595D01*
G01X-014560Y-002598D01*
G01X-014563Y-002601D01*
G01X-014566Y-002604D01*
G01X-014569Y-002606D01*
G01X-014573Y-002608D01*
G01X-014576Y-002610D01*
G01X-014580Y-002611D01*
G01X-014584Y-002612D01*
G01X-014588Y-002613D01*
G01X-014592Y-002613D01*
G01X-014687Y-002613D01*
G01X-014691Y-002613D01*
G01X-014695Y-002612D01*
G01X-014699Y-002611D01*
G01X-014702Y-002610D01*
G01X-014706Y-002608D01*
G01X-014709Y-002606D01*
G01X-014713Y-002604D01*
G01X-014716Y-002601D01*
G01X-014718Y-002598D01*
G01X-014721Y-002595D01*
G01X-014723Y-002592D01*
G01X-014724Y-002588D01*
G01X-014726Y-002584D01*
G01X-014727Y-002580D01*
G01X-014727Y-002577D01*
G01X-014728Y-002573D01*
G01X-014728Y-002491D01*
G01X-014727Y-002487D01*
G01X-014727Y-002483D01*
G01X-014726Y-002479D01*
G01X-014724Y-002476D01*
G01X-014723Y-002472D01*
G01X-014721Y-002469D01*
G01X-014718Y-002465D01*
G01X-014716Y-002462D01*
G01X-014713Y-002460D01*
G01X-014709Y-002457D01*
G01X-014706Y-002455D01*
G01X-014702Y-002454D01*
G01X-014699Y-002452D01*
G01X-014695Y-002451D01*
G01X-014691Y-002451D01*
G01X-014687Y-002451D01*
G01X-014592Y-002451D01*
G01X-014588Y-002451D01*
G01X-014588Y-002451D01*
G37*
G54D11*
G01X-014639Y-002532D03*
G54D10*
G36*
G01X0005562Y-001469D02*
G01X0005566Y-001469D01*
G01X0005570Y-001470D01*
G01X0005574Y-001472D01*
G01X0005577Y-001474D01*
G01X0005581Y-001476D01*
G01X0005584Y-001478D01*
G01X0005587Y-001481D01*
G01X0005590Y-001484D01*
G01X0005592Y-001487D01*
G01X0005594Y-001490D01*
G01X0005596Y-001494D01*
G01X0005597Y-001498D01*
G01X0005598Y-001501D01*
G01X0005599Y-001505D01*
G01X0005599Y-001509D01*
G01X0005599Y-001591D01*
G01X0005599Y-001595D01*
G01X0005598Y-001599D01*
G01X0005597Y-001602D01*
G01X0005596Y-001606D01*
G01X0005594Y-001610D01*
G01X0005592Y-001613D01*
G01X0005590Y-001616D01*
G01X0005587Y-001619D01*
G01X0005584Y-001622D01*
G01X0005581Y-001624D01*
G01X0005577Y-001626D01*
G01X0005574Y-001628D01*
G01X0005570Y-001630D01*
G01X0005566Y-001631D01*
G01X0005562Y-001631D01*
G01X0005558Y-001631D01*
G01X0005463Y-001631D01*
G01X0005459Y-001631D01*
G01X0005455Y-001631D01*
G01X0005451Y-001630D01*
G01X0005448Y-001628D01*
G01X0005444Y-001626D01*
G01X0005441Y-001624D01*
G01X0005437Y-001622D01*
G01X0005434Y-001619D01*
G01X0005432Y-001616D01*
G01X0005429Y-001613D01*
G01X0005427Y-001610D01*
G01X0005426Y-001606D01*
G01X0005424Y-001602D01*
G01X0005423Y-001599D01*
G01X0005423Y-001595D01*
G01X0005422Y-001591D01*
G01X0005422Y-001509D01*
G01X0005423Y-001505D01*
G01X0005423Y-001501D01*
G01X0005424Y-001498D01*
G01X0005426Y-001494D01*
G01X0005427Y-001490D01*
G01X0005429Y-001487D01*
G01X0005432Y-001484D01*
G01X0005434Y-001481D01*
G01X0005437Y-001478D01*
G01X0005441Y-001476D01*
G01X0005444Y-001474D01*
G01X0005448Y-001472D01*
G01X0005451Y-001470D01*
G01X0005455Y-001469D01*
G01X0005459Y-001469D01*
G01X0005463Y-001469D01*
G01X0005558Y-001469D01*
G01X0005562Y-001469D01*
G01X0005562Y-001469D01*
G37*
G54D11*
G01X0005511Y-001550D03*
G54D10*
G36*
G01X0005562Y-001851D02*
G01X0005566Y-001851D01*
G01X0005570Y-001852D01*
G01X0005574Y-001854D01*
G01X0005577Y-001855D01*
G01X0005581Y-001857D01*
G01X0005584Y-001860D01*
G01X0005587Y-001862D01*
G01X0005590Y-001865D01*
G01X0005592Y-001869D01*
G01X0005594Y-001872D01*
G01X0005596Y-001876D01*
G01X0005597Y-001879D01*
G01X0005598Y-001883D01*
G01X0005599Y-001887D01*
G01X0005599Y-001891D01*
G01X0005599Y-001973D01*
G01X0005599Y-001977D01*
G01X0005598Y-001980D01*
G01X0005597Y-001984D01*
G01X0005596Y-001988D01*
G01X0005594Y-001992D01*
G01X0005592Y-001995D01*
G01X0005590Y-001998D01*
G01X0005587Y-002001D01*
G01X0005584Y-002004D01*
G01X0005581Y-002006D01*
G01X0005577Y-002008D01*
G01X0005574Y-002010D01*
G01X0005570Y-002011D01*
G01X0005566Y-002012D01*
G01X0005562Y-002013D01*
G01X0005558Y-002013D01*
G01X0005463Y-002013D01*
G01X0005459Y-002013D01*
G01X0005455Y-002012D01*
G01X0005451Y-002011D01*
G01X0005448Y-002010D01*
G01X0005444Y-002008D01*
G01X0005441Y-002006D01*
G01X0005437Y-002004D01*
G01X0005434Y-002001D01*
G01X0005432Y-001998D01*
G01X0005429Y-001995D01*
G01X0005427Y-001992D01*
G01X0005426Y-001988D01*
G01X0005424Y-001984D01*
G01X0005423Y-001980D01*
G01X0005423Y-001977D01*
G01X0005422Y-001973D01*
G01X0005422Y-001891D01*
G01X0005423Y-001887D01*
G01X0005423Y-001883D01*
G01X0005424Y-001879D01*
G01X0005426Y-001876D01*
G01X0005427Y-001872D01*
G01X0005429Y-001869D01*
G01X0005432Y-001865D01*
G01X0005434Y-001862D01*
G01X0005437Y-001860D01*
G01X0005441Y-001857D01*
G01X0005444Y-001855D01*
G01X0005448Y-001854D01*
G01X0005451Y-001852D01*
G01X0005455Y-001851D01*
G01X0005459Y-001851D01*
G01X0005463Y-001851D01*
G01X0005558Y-001851D01*
G01X0005562Y-001851D01*
G01X0005562Y-001851D01*
G37*
G54D11*
G01X0005511Y-001932D03*
G54D10*
G36*
G01X0004062Y0000690D02*
G01X0004066Y0000690D01*
G01X0004070Y0000689D01*
G01X0004074Y0000687D01*
G01X0004077Y0000686D01*
G01X0004081Y0000684D01*
G01X0004084Y0000681D01*
G01X0004087Y0000678D01*
G01X0004090Y0000675D01*
G01X0004092Y0000672D01*
G01X0004094Y0000669D01*
G01X0004096Y0000665D01*
G01X0004097Y0000662D01*
G01X0004098Y0000658D01*
G01X0004099Y0000654D01*
G01X0004099Y0000650D01*
G01X0004099Y0000568D01*
G01X0004099Y0000564D01*
G01X0004098Y0000560D01*
G01X0004097Y0000557D01*
G01X0004096Y0000553D01*
G01X0004094Y0000549D01*
G01X0004092Y0000546D01*
G01X0004090Y0000543D01*
G01X0004087Y0000540D01*
G01X0004084Y0000537D01*
G01X0004081Y0000535D01*
G01X0004077Y0000533D01*
G01X0004074Y0000531D01*
G01X0004070Y0000530D01*
G01X0004066Y0000529D01*
G01X0004062Y0000528D01*
G01X0004058Y0000528D01*
G01X0003963Y0000528D01*
G01X0003959Y0000528D01*
G01X0003955Y0000529D01*
G01X0003951Y0000530D01*
G01X0003948Y0000531D01*
G01X0003944Y0000533D01*
G01X0003941Y0000535D01*
G01X0003937Y0000537D01*
G01X0003934Y0000540D01*
G01X0003932Y0000543D01*
G01X0003929Y0000546D01*
G01X0003927Y0000549D01*
G01X0003926Y0000553D01*
G01X0003924Y0000557D01*
G01X0003923Y0000560D01*
G01X0003923Y0000564D01*
G01X0003922Y0000568D01*
G01X0003922Y0000650D01*
G01X0003923Y0000654D01*
G01X0003923Y0000658D01*
G01X0003924Y0000662D01*
G01X0003926Y0000665D01*
G01X0003927Y0000669D01*
G01X0003929Y0000672D01*
G01X0003932Y0000675D01*
G01X0003934Y0000678D01*
G01X0003937Y0000681D01*
G01X0003941Y0000684D01*
G01X0003944Y0000686D01*
G01X0003948Y0000687D01*
G01X0003951Y0000689D01*
G01X0003955Y0000690D01*
G01X0003959Y0000690D01*
G01X0003963Y0000690D01*
G01X0004058Y0000690D01*
G01X0004062Y0000690D01*
G01X0004062Y0000690D01*
G37*
G54D11*
G01X0004011Y0000609D03*
G54D10*
G36*
G01X0004062Y0001072D02*
G01X0004066Y0001071D01*
G01X0004070Y0001070D01*
G01X0004074Y0001069D01*
G01X0004077Y0001067D01*
G01X0004081Y0001065D01*
G01X0004084Y0001063D01*
G01X0004087Y0001060D01*
G01X0004090Y0001057D01*
G01X0004092Y0001054D01*
G01X0004094Y0001051D01*
G01X0004096Y0001047D01*
G01X0004097Y0001043D01*
G01X0004098Y0001040D01*
G01X0004099Y0001036D01*
G01X0004099Y0001032D01*
G01X0004099Y0000950D01*
G01X0004099Y0000946D01*
G01X0004098Y0000942D01*
G01X0004097Y0000938D01*
G01X0004096Y0000935D01*
G01X0004094Y0000931D01*
G01X0004092Y0000928D01*
G01X0004090Y0000925D01*
G01X0004087Y0000922D01*
G01X0004084Y0000919D01*
G01X0004081Y0000916D01*
G01X0004077Y0000914D01*
G01X0004074Y0000913D01*
G01X0004070Y0000911D01*
G01X0004066Y0000910D01*
G01X0004062Y0000910D01*
G01X0004058Y0000910D01*
G01X0003963Y0000910D01*
G01X0003959Y0000910D01*
G01X0003955Y0000910D01*
G01X0003951Y0000911D01*
G01X0003948Y0000913D01*
G01X0003944Y0000914D01*
G01X0003941Y0000916D01*
G01X0003937Y0000919D01*
G01X0003934Y0000922D01*
G01X0003932Y0000925D01*
G01X0003929Y0000928D01*
G01X0003927Y0000931D01*
G01X0003926Y0000935D01*
G01X0003924Y0000938D01*
G01X0003923Y0000942D01*
G01X0003923Y0000946D01*
G01X0003922Y0000950D01*
G01X0003922Y0001032D01*
G01X0003923Y0001036D01*
G01X0003923Y0001040D01*
G01X0003924Y0001043D01*
G01X0003926Y0001047D01*
G01X0003927Y0001051D01*
G01X0003929Y0001054D01*
G01X0003932Y0001057D01*
G01X0003934Y0001060D01*
G01X0003937Y0001063D01*
G01X0003941Y0001065D01*
G01X0003944Y0001067D01*
G01X0003948Y0001069D01*
G01X0003951Y0001070D01*
G01X0003955Y0001071D01*
G01X0003959Y0001072D01*
G01X0003963Y0001072D01*
G01X0004058Y0001072D01*
G01X0004062Y0001072D01*
G01X0004062Y0001072D01*
G37*
G54D11*
G01X0004011Y0000991D03*
G54D10*
G36*
G01X0005162Y-001851D02*
G01X0005166Y-001851D01*
G01X0005170Y-001852D01*
G01X0005174Y-001854D01*
G01X0005177Y-001855D01*
G01X0005181Y-001857D01*
G01X0005184Y-001860D01*
G01X0005187Y-001862D01*
G01X0005190Y-001865D01*
G01X0005192Y-001869D01*
G01X0005194Y-001872D01*
G01X0005196Y-001876D01*
G01X0005197Y-001879D01*
G01X0005198Y-001883D01*
G01X0005199Y-001887D01*
G01X0005199Y-001891D01*
G01X0005199Y-001973D01*
G01X0005199Y-001977D01*
G01X0005198Y-001980D01*
G01X0005197Y-001984D01*
G01X0005196Y-001988D01*
G01X0005194Y-001992D01*
G01X0005192Y-001995D01*
G01X0005190Y-001998D01*
G01X0005187Y-002001D01*
G01X0005184Y-002004D01*
G01X0005181Y-002006D01*
G01X0005177Y-002008D01*
G01X0005174Y-002010D01*
G01X0005170Y-002011D01*
G01X0005166Y-002012D01*
G01X0005162Y-002013D01*
G01X0005158Y-002013D01*
G01X0005063Y-002013D01*
G01X0005059Y-002013D01*
G01X0005055Y-002012D01*
G01X0005051Y-002011D01*
G01X0005048Y-002010D01*
G01X0005044Y-002008D01*
G01X0005041Y-002006D01*
G01X0005037Y-002004D01*
G01X0005034Y-002001D01*
G01X0005032Y-001998D01*
G01X0005029Y-001995D01*
G01X0005027Y-001992D01*
G01X0005026Y-001988D01*
G01X0005024Y-001984D01*
G01X0005023Y-001980D01*
G01X0005023Y-001977D01*
G01X0005022Y-001973D01*
G01X0005022Y-001891D01*
G01X0005023Y-001887D01*
G01X0005023Y-001883D01*
G01X0005024Y-001879D01*
G01X0005026Y-001876D01*
G01X0005027Y-001872D01*
G01X0005029Y-001869D01*
G01X0005032Y-001865D01*
G01X0005034Y-001862D01*
G01X0005037Y-001860D01*
G01X0005041Y-001857D01*
G01X0005044Y-001855D01*
G01X0005048Y-001854D01*
G01X0005051Y-001852D01*
G01X0005055Y-001851D01*
G01X0005059Y-001851D01*
G01X0005063Y-001851D01*
G01X0005158Y-001851D01*
G01X0005162Y-001851D01*
G01X0005162Y-001851D01*
G37*
G54D11*
G01X0005111Y-001932D03*
G54D10*
G36*
G01X0005162Y-001469D02*
G01X0005166Y-001469D01*
G01X0005170Y-001470D01*
G01X0005174Y-001472D01*
G01X0005177Y-001474D01*
G01X0005181Y-001476D01*
G01X0005184Y-001478D01*
G01X0005187Y-001481D01*
G01X0005190Y-001484D01*
G01X0005192Y-001487D01*
G01X0005194Y-001490D01*
G01X0005196Y-001494D01*
G01X0005197Y-001498D01*
G01X0005198Y-001501D01*
G01X0005199Y-001505D01*
G01X0005199Y-001509D01*
G01X0005199Y-001591D01*
G01X0005199Y-001595D01*
G01X0005198Y-001599D01*
G01X0005197Y-001602D01*
G01X0005196Y-001606D01*
G01X0005194Y-001610D01*
G01X0005192Y-001613D01*
G01X0005190Y-001616D01*
G01X0005187Y-001619D01*
G01X0005184Y-001622D01*
G01X0005181Y-001624D01*
G01X0005177Y-001626D01*
G01X0005174Y-001628D01*
G01X0005170Y-001630D01*
G01X0005166Y-001631D01*
G01X0005162Y-001631D01*
G01X0005158Y-001631D01*
G01X0005063Y-001631D01*
G01X0005059Y-001631D01*
G01X0005055Y-001631D01*
G01X0005051Y-001630D01*
G01X0005048Y-001628D01*
G01X0005044Y-001626D01*
G01X0005041Y-001624D01*
G01X0005037Y-001622D01*
G01X0005034Y-001619D01*
G01X0005032Y-001616D01*
G01X0005029Y-001613D01*
G01X0005027Y-001610D01*
G01X0005026Y-001606D01*
G01X0005024Y-001602D01*
G01X0005023Y-001599D01*
G01X0005023Y-001595D01*
G01X0005022Y-001591D01*
G01X0005022Y-001509D01*
G01X0005023Y-001505D01*
G01X0005023Y-001501D01*
G01X0005024Y-001498D01*
G01X0005026Y-001494D01*
G01X0005027Y-001490D01*
G01X0005029Y-001487D01*
G01X0005032Y-001484D01*
G01X0005034Y-001481D01*
G01X0005037Y-001478D01*
G01X0005041Y-001476D01*
G01X0005044Y-001474D01*
G01X0005048Y-001472D01*
G01X0005051Y-001470D01*
G01X0005055Y-001469D01*
G01X0005059Y-001469D01*
G01X0005063Y-001469D01*
G01X0005158Y-001469D01*
G01X0005162Y-001469D01*
G01X0005162Y-001469D01*
G37*
G54D11*
G01X0005111Y-001550D03*
G54D10*
G36*
G01X0004414Y-001453D02*
G01X0004418Y-001454D01*
G01X0004422Y-001455D01*
G01X0004426Y-001456D01*
G01X0004429Y-001458D01*
G01X0004433Y-001460D01*
G01X0004436Y-001462D01*
G01X0004439Y-001465D01*
G01X0004442Y-001468D01*
G01X0004444Y-001471D01*
G01X0004446Y-001474D01*
G01X0004448Y-001478D01*
G01X0004449Y-001482D01*
G01X0004450Y-001485D01*
G01X0004451Y-001489D01*
G01X0004451Y-001493D01*
G01X0004451Y-001588D01*
G01X0004451Y-001592D01*
G01X0004450Y-001596D01*
G01X0004449Y-001600D01*
G01X0004448Y-001604D01*
G01X0004446Y-001608D01*
G01X0004444Y-001611D01*
G01X0004442Y-001614D01*
G01X0004439Y-001617D01*
G01X0004436Y-001620D01*
G01X0004433Y-001622D01*
G01X0004429Y-001624D01*
G01X0004426Y-001626D01*
G01X0004422Y-001627D01*
G01X0004418Y-001628D01*
G01X0004414Y-001629D01*
G01X0004410Y-001629D01*
G01X0004329Y-001629D01*
G01X0004325Y-001629D01*
G01X0004321Y-001628D01*
G01X0004317Y-001627D01*
G01X0004313Y-001626D01*
G01X0004310Y-001624D01*
G01X0004306Y-001622D01*
G01X0004303Y-001620D01*
G01X0004300Y-001617D01*
G01X0004298Y-001614D01*
G01X0004295Y-001611D01*
G01X0004293Y-001608D01*
G01X0004291Y-001604D01*
G01X0004290Y-001600D01*
G01X0004289Y-001596D01*
G01X0004289Y-001592D01*
G01X0004288Y-001588D01*
G01X0004288Y-001493D01*
G01X0004289Y-001489D01*
G01X0004289Y-001485D01*
G01X0004290Y-001482D01*
G01X0004291Y-001478D01*
G01X0004293Y-001474D01*
G01X0004295Y-001471D01*
G01X0004298Y-001468D01*
G01X0004300Y-001465D01*
G01X0004303Y-001462D01*
G01X0004306Y-001460D01*
G01X0004310Y-001458D01*
G01X0004313Y-001456D01*
G01X0004317Y-001455D01*
G01X0004321Y-001454D01*
G01X0004325Y-001453D01*
G01X0004329Y-001453D01*
G01X0004410Y-001453D01*
G01X0004414Y-001453D01*
G01X0004414Y-001453D01*
G37*
G54D11*
G01X0004370Y-001541D03*
G54D10*
G36*
G01X0004796Y-001453D02*
G01X0004800Y-001454D01*
G01X0004804Y-001455D01*
G01X0004808Y-001456D01*
G01X0004811Y-001458D01*
G01X0004815Y-001460D01*
G01X0004818Y-001462D01*
G01X0004821Y-001465D01*
G01X0004824Y-001468D01*
G01X0004826Y-001471D01*
G01X0004828Y-001474D01*
G01X0004830Y-001478D01*
G01X0004831Y-001482D01*
G01X0004832Y-001485D01*
G01X0004833Y-001489D01*
G01X0004833Y-001493D01*
G01X0004833Y-001588D01*
G01X0004833Y-001592D01*
G01X0004832Y-001596D01*
G01X0004831Y-001600D01*
G01X0004830Y-001604D01*
G01X0004828Y-001608D01*
G01X0004826Y-001611D01*
G01X0004824Y-001614D01*
G01X0004821Y-001617D01*
G01X0004818Y-001620D01*
G01X0004815Y-001622D01*
G01X0004811Y-001624D01*
G01X0004808Y-001626D01*
G01X0004804Y-001627D01*
G01X0004800Y-001628D01*
G01X0004796Y-001629D01*
G01X0004792Y-001629D01*
G01X0004711Y-001629D01*
G01X0004707Y-001629D01*
G01X0004703Y-001628D01*
G01X0004699Y-001627D01*
G01X0004695Y-001626D01*
G01X0004692Y-001624D01*
G01X0004688Y-001622D01*
G01X0004685Y-001620D01*
G01X0004682Y-001617D01*
G01X0004680Y-001614D01*
G01X0004677Y-001611D01*
G01X0004675Y-001608D01*
G01X0004673Y-001604D01*
G01X0004672Y-001600D01*
G01X0004671Y-001596D01*
G01X0004670Y-001592D01*
G01X0004670Y-001588D01*
G01X0004670Y-001493D01*
G01X0004670Y-001489D01*
G01X0004671Y-001485D01*
G01X0004672Y-001482D01*
G01X0004673Y-001478D01*
G01X0004675Y-001474D01*
G01X0004677Y-001471D01*
G01X0004680Y-001468D01*
G01X0004682Y-001465D01*
G01X0004685Y-001462D01*
G01X0004688Y-001460D01*
G01X0004692Y-001458D01*
G01X0004695Y-001456D01*
G01X0004699Y-001455D01*
G01X0004703Y-001454D01*
G01X0004707Y-001453D01*
G01X0004711Y-001453D01*
G01X0004792Y-001453D01*
G01X0004796Y-001453D01*
G01X0004796Y-001453D01*
G37*
G54D11*
G01X0004752Y-001541D03*
G54D10*
G36*
G01X-013388Y-000419D02*
G01X-013384Y-000419D01*
G01X-013380Y-000420D01*
G01X-013376Y-000422D01*
G01X-013373Y-000424D01*
G01X-013369Y-000426D01*
G01X-013366Y-000428D01*
G01X-013363Y-000431D01*
G01X-013360Y-000434D01*
G01X-013358Y-000437D01*
G01X-013356Y-000440D01*
G01X-013354Y-000444D01*
G01X-013353Y-000448D01*
G01X-013352Y-000451D01*
G01X-013351Y-000455D01*
G01X-013351Y-000459D01*
G01X-013351Y-000541D01*
G01X-013351Y-000545D01*
G01X-013352Y-000549D01*
G01X-013353Y-000552D01*
G01X-013354Y-000556D01*
G01X-013356Y-000560D01*
G01X-013358Y-000563D01*
G01X-013360Y-000566D01*
G01X-013363Y-000569D01*
G01X-013366Y-000572D01*
G01X-013369Y-000574D01*
G01X-013373Y-000576D01*
G01X-013376Y-000578D01*
G01X-013380Y-000580D01*
G01X-013384Y-000581D01*
G01X-013388Y-000581D01*
G01X-013392Y-000581D01*
G01X-013487Y-000581D01*
G01X-013491Y-000581D01*
G01X-013495Y-000581D01*
G01X-013499Y-000580D01*
G01X-013502Y-000578D01*
G01X-013506Y-000576D01*
G01X-013509Y-000574D01*
G01X-013513Y-000572D01*
G01X-013516Y-000569D01*
G01X-013518Y-000566D01*
G01X-013521Y-000563D01*
G01X-013523Y-000560D01*
G01X-013524Y-000556D01*
G01X-013526Y-000552D01*
G01X-013527Y-000549D01*
G01X-013527Y-000545D01*
G01X-013528Y-000541D01*
G01X-013528Y-000459D01*
G01X-013527Y-000455D01*
G01X-013527Y-000451D01*
G01X-013526Y-000448D01*
G01X-013524Y-000444D01*
G01X-013523Y-000440D01*
G01X-013521Y-000437D01*
G01X-013518Y-000434D01*
G01X-013516Y-000431D01*
G01X-013513Y-000428D01*
G01X-013509Y-000426D01*
G01X-013506Y-000424D01*
G01X-013502Y-000422D01*
G01X-013499Y-000420D01*
G01X-013495Y-000419D01*
G01X-013491Y-000419D01*
G01X-013487Y-000419D01*
G01X-013392Y-000419D01*
G01X-013388Y-000419D01*
G01X-013388Y-000419D01*
G37*
G54D11*
G01X-013439Y-000500D03*
G54D10*
G36*
G01X-013388Y-000801D02*
G01X-013384Y-000801D01*
G01X-013380Y-000802D01*
G01X-013376Y-000804D01*
G01X-013373Y-000805D01*
G01X-013369Y-000807D01*
G01X-013366Y-000810D01*
G01X-013363Y-000812D01*
G01X-013360Y-000815D01*
G01X-013358Y-000819D01*
G01X-013356Y-000822D01*
G01X-013354Y-000826D01*
G01X-013353Y-000829D01*
G01X-013352Y-000833D01*
G01X-013351Y-000837D01*
G01X-013351Y-000841D01*
G01X-013351Y-000923D01*
G01X-013351Y-000927D01*
G01X-013352Y-000930D01*
G01X-013353Y-000934D01*
G01X-013354Y-000938D01*
G01X-013356Y-000942D01*
G01X-013358Y-000945D01*
G01X-013360Y-000948D01*
G01X-013363Y-000951D01*
G01X-013366Y-000954D01*
G01X-013369Y-000956D01*
G01X-013373Y-000958D01*
G01X-013376Y-000960D01*
G01X-013380Y-000961D01*
G01X-013384Y-000962D01*
G01X-013388Y-000963D01*
G01X-013392Y-000963D01*
G01X-013487Y-000963D01*
G01X-013491Y-000963D01*
G01X-013495Y-000962D01*
G01X-013499Y-000961D01*
G01X-013502Y-000960D01*
G01X-013506Y-000958D01*
G01X-013509Y-000956D01*
G01X-013513Y-000954D01*
G01X-013516Y-000951D01*
G01X-013518Y-000948D01*
G01X-013521Y-000945D01*
G01X-013523Y-000942D01*
G01X-013524Y-000938D01*
G01X-013526Y-000934D01*
G01X-013527Y-000930D01*
G01X-013527Y-000927D01*
G01X-013528Y-000923D01*
G01X-013528Y-000841D01*
G01X-013527Y-000837D01*
G01X-013527Y-000833D01*
G01X-013526Y-000829D01*
G01X-013524Y-000826D01*
G01X-013523Y-000822D01*
G01X-013521Y-000819D01*
G01X-013518Y-000815D01*
G01X-013516Y-000812D01*
G01X-013513Y-000810D01*
G01X-013509Y-000807D01*
G01X-013506Y-000805D01*
G01X-013502Y-000804D01*
G01X-013499Y-000802D01*
G01X-013495Y-000801D01*
G01X-013491Y-000801D01*
G01X-013487Y-000801D01*
G01X-013392Y-000801D01*
G01X-013388Y-000801D01*
G01X-013388Y-000801D01*
G37*
G54D11*
G01X-013439Y-000882D03*
G54D10*
G36*
G01X-007738Y0001222D02*
G01X-007734Y0001221D01*
G01X-007730Y0001220D01*
G01X-007726Y0001219D01*
G01X-007723Y0001217D01*
G01X-007719Y0001215D01*
G01X-007716Y0001213D01*
G01X-007713Y0001210D01*
G01X-007710Y0001207D01*
G01X-007708Y0001204D01*
G01X-007706Y0001201D01*
G01X-007704Y0001197D01*
G01X-007703Y0001193D01*
G01X-007702Y0001190D01*
G01X-007701Y0001186D01*
G01X-007701Y0001182D01*
G01X-007701Y0001100D01*
G01X-007701Y0001096D01*
G01X-007702Y0001092D01*
G01X-007703Y0001088D01*
G01X-007704Y0001085D01*
G01X-007706Y0001081D01*
G01X-007708Y0001078D01*
G01X-007710Y0001075D01*
G01X-007713Y0001072D01*
G01X-007716Y0001069D01*
G01X-007719Y0001066D01*
G01X-007723Y0001064D01*
G01X-007726Y0001063D01*
G01X-007730Y0001061D01*
G01X-007734Y0001060D01*
G01X-007738Y0001060D01*
G01X-007742Y0001060D01*
G01X-007837Y0001060D01*
G01X-007841Y0001060D01*
G01X-007845Y0001060D01*
G01X-007849Y0001061D01*
G01X-007852Y0001063D01*
G01X-007856Y0001064D01*
G01X-007859Y0001066D01*
G01X-007863Y0001069D01*
G01X-007866Y0001072D01*
G01X-007868Y0001075D01*
G01X-007871Y0001078D01*
G01X-007873Y0001081D01*
G01X-007874Y0001085D01*
G01X-007876Y0001088D01*
G01X-007877Y0001092D01*
G01X-007877Y0001096D01*
G01X-007878Y0001100D01*
G01X-007878Y0001182D01*
G01X-007877Y0001186D01*
G01X-007877Y0001190D01*
G01X-007876Y0001193D01*
G01X-007874Y0001197D01*
G01X-007873Y0001201D01*
G01X-007871Y0001204D01*
G01X-007868Y0001207D01*
G01X-007866Y0001210D01*
G01X-007863Y0001213D01*
G01X-007859Y0001215D01*
G01X-007856Y0001217D01*
G01X-007852Y0001219D01*
G01X-007849Y0001220D01*
G01X-007845Y0001221D01*
G01X-007841Y0001222D01*
G01X-007837Y0001222D01*
G01X-007742Y0001222D01*
G01X-007738Y0001222D01*
G01X-007738Y0001222D01*
G37*
G54D11*
G01X-007789Y0001141D03*
G54D10*
G36*
G01X-007738Y0000840D02*
G01X-007734Y0000840D01*
G01X-007730Y0000839D01*
G01X-007726Y0000837D01*
G01X-007723Y0000836D01*
G01X-007719Y0000834D01*
G01X-007716Y0000831D01*
G01X-007713Y0000828D01*
G01X-007710Y0000825D01*
G01X-007708Y0000822D01*
G01X-007706Y0000819D01*
G01X-007704Y0000815D01*
G01X-007703Y0000812D01*
G01X-007702Y0000808D01*
G01X-007701Y0000804D01*
G01X-007701Y0000800D01*
G01X-007701Y0000718D01*
G01X-007701Y0000714D01*
G01X-007702Y0000710D01*
G01X-007703Y0000707D01*
G01X-007704Y0000703D01*
G01X-007706Y0000699D01*
G01X-007708Y0000696D01*
G01X-007710Y0000693D01*
G01X-007713Y0000690D01*
G01X-007716Y0000687D01*
G01X-007719Y0000685D01*
G01X-007723Y0000683D01*
G01X-007726Y0000681D01*
G01X-007730Y0000680D01*
G01X-007734Y0000679D01*
G01X-007738Y0000678D01*
G01X-007742Y0000678D01*
G01X-007837Y0000678D01*
G01X-007841Y0000678D01*
G01X-007845Y0000679D01*
G01X-007849Y0000680D01*
G01X-007852Y0000681D01*
G01X-007856Y0000683D01*
G01X-007859Y0000685D01*
G01X-007863Y0000687D01*
G01X-007866Y0000690D01*
G01X-007868Y0000693D01*
G01X-007871Y0000696D01*
G01X-007873Y0000699D01*
G01X-007874Y0000703D01*
G01X-007876Y0000707D01*
G01X-007877Y0000710D01*
G01X-007877Y0000714D01*
G01X-007878Y0000718D01*
G01X-007878Y0000800D01*
G01X-007877Y0000804D01*
G01X-007877Y0000808D01*
G01X-007876Y0000812D01*
G01X-007874Y0000815D01*
G01X-007873Y0000819D01*
G01X-007871Y0000822D01*
G01X-007868Y0000825D01*
G01X-007866Y0000828D01*
G01X-007863Y0000831D01*
G01X-007859Y0000834D01*
G01X-007856Y0000836D01*
G01X-007852Y0000837D01*
G01X-007849Y0000839D01*
G01X-007845Y0000840D01*
G01X-007841Y0000840D01*
G01X-007837Y0000840D01*
G01X-007742Y0000840D01*
G01X-007738Y0000840D01*
G01X-007738Y0000840D01*
G37*
G54D11*
G01X-007789Y0000759D03*
G54D10*
G36*
G01X-003854Y-000603D02*
G01X-003850Y-000604D01*
G01X-003846Y-000605D01*
G01X-003842Y-000606D01*
G01X-003839Y-000608D01*
G01X-003835Y-000610D01*
G01X-003832Y-000612D01*
G01X-003829Y-000615D01*
G01X-003826Y-000618D01*
G01X-003824Y-000621D01*
G01X-003822Y-000624D01*
G01X-003820Y-000628D01*
G01X-003819Y-000632D01*
G01X-003818Y-000635D01*
G01X-003817Y-000639D01*
G01X-003817Y-000643D01*
G01X-003817Y-000738D01*
G01X-003817Y-000742D01*
G01X-003818Y-000746D01*
G01X-003819Y-000750D01*
G01X-003820Y-000754D01*
G01X-003822Y-000758D01*
G01X-003824Y-000761D01*
G01X-003826Y-000764D01*
G01X-003829Y-000767D01*
G01X-003832Y-000770D01*
G01X-003835Y-000772D01*
G01X-003839Y-000774D01*
G01X-003842Y-000776D01*
G01X-003846Y-000777D01*
G01X-003850Y-000778D01*
G01X-003854Y-000779D01*
G01X-003858Y-000779D01*
G01X-003939Y-000779D01*
G01X-003943Y-000779D01*
G01X-003947Y-000778D01*
G01X-003951Y-000777D01*
G01X-003955Y-000776D01*
G01X-003958Y-000774D01*
G01X-003962Y-000772D01*
G01X-003965Y-000770D01*
G01X-003968Y-000767D01*
G01X-003970Y-000764D01*
G01X-003973Y-000761D01*
G01X-003975Y-000758D01*
G01X-003977Y-000754D01*
G01X-003978Y-000750D01*
G01X-003979Y-000746D01*
G01X-003980Y-000742D01*
G01X-003980Y-000738D01*
G01X-003980Y-000643D01*
G01X-003980Y-000639D01*
G01X-003979Y-000635D01*
G01X-003978Y-000632D01*
G01X-003977Y-000628D01*
G01X-003975Y-000624D01*
G01X-003973Y-000621D01*
G01X-003970Y-000618D01*
G01X-003968Y-000615D01*
G01X-003965Y-000612D01*
G01X-003962Y-000610D01*
G01X-003958Y-000608D01*
G01X-003955Y-000606D01*
G01X-003951Y-000605D01*
G01X-003947Y-000604D01*
G01X-003943Y-000603D01*
G01X-003939Y-000603D01*
G01X-003858Y-000603D01*
G01X-003854Y-000603D01*
G01X-003854Y-000603D01*
G37*
G54D11*
G01X-003898Y-000691D03*
G54D10*
G36*
G01X-004236Y-000603D02*
G01X-004232Y-000604D01*
G01X-004228Y-000605D01*
G01X-004224Y-000606D01*
G01X-004221Y-000608D01*
G01X-004217Y-000610D01*
G01X-004214Y-000612D01*
G01X-004211Y-000615D01*
G01X-004208Y-000618D01*
G01X-004206Y-000621D01*
G01X-004204Y-000624D01*
G01X-004202Y-000628D01*
G01X-004201Y-000632D01*
G01X-004200Y-000635D01*
G01X-004199Y-000639D01*
G01X-004199Y-000643D01*
G01X-004199Y-000738D01*
G01X-004199Y-000742D01*
G01X-004200Y-000746D01*
G01X-004201Y-000750D01*
G01X-004202Y-000754D01*
G01X-004204Y-000758D01*
G01X-004206Y-000761D01*
G01X-004208Y-000764D01*
G01X-004211Y-000767D01*
G01X-004214Y-000770D01*
G01X-004217Y-000772D01*
G01X-004221Y-000774D01*
G01X-004224Y-000776D01*
G01X-004228Y-000777D01*
G01X-004232Y-000778D01*
G01X-004236Y-000779D01*
G01X-004240Y-000779D01*
G01X-004321Y-000779D01*
G01X-004325Y-000779D01*
G01X-004329Y-000778D01*
G01X-004333Y-000777D01*
G01X-004337Y-000776D01*
G01X-004340Y-000774D01*
G01X-004344Y-000772D01*
G01X-004347Y-000770D01*
G01X-004350Y-000767D01*
G01X-004352Y-000764D01*
G01X-004355Y-000761D01*
G01X-004357Y-000758D01*
G01X-004359Y-000754D01*
G01X-004360Y-000750D01*
G01X-004361Y-000746D01*
G01X-004361Y-000742D01*
G01X-004362Y-000738D01*
G01X-004362Y-000643D01*
G01X-004361Y-000639D01*
G01X-004361Y-000635D01*
G01X-004360Y-000632D01*
G01X-004359Y-000628D01*
G01X-004357Y-000624D01*
G01X-004355Y-000621D01*
G01X-004352Y-000618D01*
G01X-004350Y-000615D01*
G01X-004347Y-000612D01*
G01X-004344Y-000610D01*
G01X-004340Y-000608D01*
G01X-004337Y-000606D01*
G01X-004333Y-000605D01*
G01X-004329Y-000604D01*
G01X-004325Y-000603D01*
G01X-004321Y-000603D01*
G01X-004240Y-000603D01*
G01X-004236Y-000603D01*
G01X-004236Y-000603D01*
G37*
G54D11*
G01X-004280Y-000691D03*
G54D10*
G36*
G01X-006836Y0002897D02*
G01X-006832Y0002896D01*
G01X-006828Y0002895D01*
G01X-006824Y0002894D01*
G01X-006821Y0002892D01*
G01X-006817Y0002890D01*
G01X-006814Y0002888D01*
G01X-006811Y0002885D01*
G01X-006808Y0002882D01*
G01X-006806Y0002879D01*
G01X-006804Y0002876D01*
G01X-006802Y0002872D01*
G01X-006801Y0002868D01*
G01X-006800Y0002865D01*
G01X-006799Y0002861D01*
G01X-006799Y0002857D01*
G01X-006799Y0002762D01*
G01X-006799Y0002758D01*
G01X-006800Y0002754D01*
G01X-006801Y0002750D01*
G01X-006802Y0002746D01*
G01X-006804Y0002742D01*
G01X-006806Y0002739D01*
G01X-006808Y0002736D01*
G01X-006811Y0002733D01*
G01X-006814Y0002730D01*
G01X-006817Y0002728D01*
G01X-006821Y0002726D01*
G01X-006824Y0002724D01*
G01X-006828Y0002723D01*
G01X-006832Y0002722D01*
G01X-006836Y0002721D01*
G01X-006840Y0002721D01*
G01X-006921Y0002721D01*
G01X-006925Y0002721D01*
G01X-006929Y0002722D01*
G01X-006933Y0002723D01*
G01X-006937Y0002724D01*
G01X-006940Y0002726D01*
G01X-006944Y0002728D01*
G01X-006947Y0002730D01*
G01X-006950Y0002733D01*
G01X-006952Y0002736D01*
G01X-006955Y0002739D01*
G01X-006957Y0002742D01*
G01X-006959Y0002746D01*
G01X-006960Y0002750D01*
G01X-006961Y0002754D01*
G01X-006961Y0002758D01*
G01X-006962Y0002762D01*
G01X-006962Y0002857D01*
G01X-006961Y0002861D01*
G01X-006961Y0002865D01*
G01X-006960Y0002868D01*
G01X-006959Y0002872D01*
G01X-006957Y0002876D01*
G01X-006955Y0002879D01*
G01X-006952Y0002882D01*
G01X-006950Y0002885D01*
G01X-006947Y0002888D01*
G01X-006944Y0002890D01*
G01X-006940Y0002892D01*
G01X-006937Y0002894D01*
G01X-006933Y0002895D01*
G01X-006929Y0002896D01*
G01X-006925Y0002897D01*
G01X-006921Y0002897D01*
G01X-006840Y0002897D01*
G01X-006836Y0002897D01*
G01X-006836Y0002897D01*
G37*
G54D11*
G01X-006880Y0002809D03*
G54D10*
G36*
G01X-006454Y0002897D02*
G01X-006450Y0002896D01*
G01X-006446Y0002895D01*
G01X-006442Y0002894D01*
G01X-006439Y0002892D01*
G01X-006435Y0002890D01*
G01X-006432Y0002888D01*
G01X-006429Y0002885D01*
G01X-006426Y0002882D01*
G01X-006424Y0002879D01*
G01X-006422Y0002876D01*
G01X-006420Y0002872D01*
G01X-006419Y0002868D01*
G01X-006418Y0002865D01*
G01X-006417Y0002861D01*
G01X-006417Y0002857D01*
G01X-006417Y0002762D01*
G01X-006417Y0002758D01*
G01X-006418Y0002754D01*
G01X-006419Y0002750D01*
G01X-006420Y0002746D01*
G01X-006422Y0002742D01*
G01X-006424Y0002739D01*
G01X-006426Y0002736D01*
G01X-006429Y0002733D01*
G01X-006432Y0002730D01*
G01X-006435Y0002728D01*
G01X-006439Y0002726D01*
G01X-006442Y0002724D01*
G01X-006446Y0002723D01*
G01X-006450Y0002722D01*
G01X-006454Y0002721D01*
G01X-006458Y0002721D01*
G01X-006539Y0002721D01*
G01X-006543Y0002721D01*
G01X-006547Y0002722D01*
G01X-006551Y0002723D01*
G01X-006555Y0002724D01*
G01X-006558Y0002726D01*
G01X-006562Y0002728D01*
G01X-006565Y0002730D01*
G01X-006568Y0002733D01*
G01X-006570Y0002736D01*
G01X-006573Y0002739D01*
G01X-006575Y0002742D01*
G01X-006577Y0002746D01*
G01X-006578Y0002750D01*
G01X-006579Y0002754D01*
G01X-006580Y0002758D01*
G01X-006580Y0002762D01*
G01X-006580Y0002857D01*
G01X-006580Y0002861D01*
G01X-006579Y0002865D01*
G01X-006578Y0002868D01*
G01X-006577Y0002872D01*
G01X-006575Y0002876D01*
G01X-006573Y0002879D01*
G01X-006570Y0002882D01*
G01X-006568Y0002885D01*
G01X-006565Y0002888D01*
G01X-006562Y0002890D01*
G01X-006558Y0002892D01*
G01X-006555Y0002894D01*
G01X-006551Y0002895D01*
G01X-006547Y0002896D01*
G01X-006543Y0002897D01*
G01X-006539Y0002897D01*
G01X-006458Y0002897D01*
G01X-006454Y0002897D01*
G01X-006454Y0002897D01*
G37*
G54D11*
G01X-006498Y0002809D03*
G54D10*
G36*
G01X-003186Y-000753D02*
G01X-003182Y-000754D01*
G01X-003178Y-000755D01*
G01X-003174Y-000756D01*
G01X-003171Y-000758D01*
G01X-003167Y-000760D01*
G01X-003164Y-000762D01*
G01X-003161Y-000765D01*
G01X-003158Y-000768D01*
G01X-003156Y-000771D01*
G01X-003154Y-000774D01*
G01X-003152Y-000778D01*
G01X-003151Y-000782D01*
G01X-003150Y-000785D01*
G01X-003149Y-000789D01*
G01X-003149Y-000793D01*
G01X-003149Y-000888D01*
G01X-003149Y-000892D01*
G01X-003150Y-000896D01*
G01X-003151Y-000900D01*
G01X-003152Y-000904D01*
G01X-003154Y-000908D01*
G01X-003156Y-000911D01*
G01X-003158Y-000914D01*
G01X-003161Y-000917D01*
G01X-003164Y-000920D01*
G01X-003167Y-000922D01*
G01X-003171Y-000924D01*
G01X-003174Y-000926D01*
G01X-003178Y-000927D01*
G01X-003182Y-000928D01*
G01X-003186Y-000929D01*
G01X-003190Y-000929D01*
G01X-003271Y-000929D01*
G01X-003275Y-000929D01*
G01X-003279Y-000928D01*
G01X-003283Y-000927D01*
G01X-003287Y-000926D01*
G01X-003290Y-000924D01*
G01X-003294Y-000922D01*
G01X-003297Y-000920D01*
G01X-003300Y-000917D01*
G01X-003302Y-000914D01*
G01X-003305Y-000911D01*
G01X-003307Y-000908D01*
G01X-003309Y-000904D01*
G01X-003310Y-000900D01*
G01X-003311Y-000896D01*
G01X-003311Y-000892D01*
G01X-003312Y-000888D01*
G01X-003312Y-000793D01*
G01X-003311Y-000789D01*
G01X-003311Y-000785D01*
G01X-003310Y-000782D01*
G01X-003309Y-000778D01*
G01X-003307Y-000774D01*
G01X-003305Y-000771D01*
G01X-003302Y-000768D01*
G01X-003300Y-000765D01*
G01X-003297Y-000762D01*
G01X-003294Y-000760D01*
G01X-003290Y-000758D01*
G01X-003287Y-000756D01*
G01X-003283Y-000755D01*
G01X-003279Y-000754D01*
G01X-003275Y-000753D01*
G01X-003271Y-000753D01*
G01X-003190Y-000753D01*
G01X-003186Y-000753D01*
G01X-003186Y-000753D01*
G37*
G54D11*
G01X-003230Y-000841D03*
G54D10*
G36*
G01X-002804Y-000753D02*
G01X-002800Y-000754D01*
G01X-002796Y-000755D01*
G01X-002792Y-000756D01*
G01X-002789Y-000758D01*
G01X-002785Y-000760D01*
G01X-002782Y-000762D01*
G01X-002779Y-000765D01*
G01X-002776Y-000768D01*
G01X-002774Y-000771D01*
G01X-002772Y-000774D01*
G01X-002770Y-000778D01*
G01X-002769Y-000782D01*
G01X-002768Y-000785D01*
G01X-002767Y-000789D01*
G01X-002767Y-000793D01*
G01X-002767Y-000888D01*
G01X-002767Y-000892D01*
G01X-002768Y-000896D01*
G01X-002769Y-000900D01*
G01X-002770Y-000904D01*
G01X-002772Y-000908D01*
G01X-002774Y-000911D01*
G01X-002776Y-000914D01*
G01X-002779Y-000917D01*
G01X-002782Y-000920D01*
G01X-002785Y-000922D01*
G01X-002789Y-000924D01*
G01X-002792Y-000926D01*
G01X-002796Y-000927D01*
G01X-002800Y-000928D01*
G01X-002804Y-000929D01*
G01X-002808Y-000929D01*
G01X-002889Y-000929D01*
G01X-002893Y-000929D01*
G01X-002897Y-000928D01*
G01X-002901Y-000927D01*
G01X-002905Y-000926D01*
G01X-002908Y-000924D01*
G01X-002912Y-000922D01*
G01X-002915Y-000920D01*
G01X-002918Y-000917D01*
G01X-002920Y-000914D01*
G01X-002923Y-000911D01*
G01X-002925Y-000908D01*
G01X-002927Y-000904D01*
G01X-002928Y-000900D01*
G01X-002929Y-000896D01*
G01X-002930Y-000892D01*
G01X-002930Y-000888D01*
G01X-002930Y-000793D01*
G01X-002930Y-000789D01*
G01X-002929Y-000785D01*
G01X-002928Y-000782D01*
G01X-002927Y-000778D01*
G01X-002925Y-000774D01*
G01X-002923Y-000771D01*
G01X-002920Y-000768D01*
G01X-002918Y-000765D01*
G01X-002915Y-000762D01*
G01X-002912Y-000760D01*
G01X-002908Y-000758D01*
G01X-002905Y-000756D01*
G01X-002901Y-000755D01*
G01X-002897Y-000754D01*
G01X-002893Y-000753D01*
G01X-002889Y-000753D01*
G01X-002808Y-000753D01*
G01X-002804Y-000753D01*
G01X-002804Y-000753D01*
G37*
G54D11*
G01X-002848Y-000841D03*
G54D10*
G36*
G01X-003186Y-000353D02*
G01X-003182Y-000354D01*
G01X-003178Y-000355D01*
G01X-003174Y-000356D01*
G01X-003171Y-000358D01*
G01X-003167Y-000360D01*
G01X-003164Y-000362D01*
G01X-003161Y-000365D01*
G01X-003158Y-000368D01*
G01X-003156Y-000371D01*
G01X-003154Y-000374D01*
G01X-003152Y-000378D01*
G01X-003151Y-000382D01*
G01X-003150Y-000385D01*
G01X-003149Y-000389D01*
G01X-003149Y-000393D01*
G01X-003149Y-000488D01*
G01X-003149Y-000492D01*
G01X-003150Y-000496D01*
G01X-003151Y-000500D01*
G01X-003152Y-000504D01*
G01X-003154Y-000508D01*
G01X-003156Y-000511D01*
G01X-003158Y-000514D01*
G01X-003161Y-000517D01*
G01X-003164Y-000520D01*
G01X-003167Y-000522D01*
G01X-003171Y-000524D01*
G01X-003174Y-000526D01*
G01X-003178Y-000527D01*
G01X-003182Y-000528D01*
G01X-003186Y-000529D01*
G01X-003190Y-000529D01*
G01X-003271Y-000529D01*
G01X-003275Y-000529D01*
G01X-003279Y-000528D01*
G01X-003283Y-000527D01*
G01X-003287Y-000526D01*
G01X-003290Y-000524D01*
G01X-003294Y-000522D01*
G01X-003297Y-000520D01*
G01X-003300Y-000517D01*
G01X-003302Y-000514D01*
G01X-003305Y-000511D01*
G01X-003307Y-000508D01*
G01X-003309Y-000504D01*
G01X-003310Y-000500D01*
G01X-003311Y-000496D01*
G01X-003311Y-000492D01*
G01X-003312Y-000488D01*
G01X-003312Y-000393D01*
G01X-003311Y-000389D01*
G01X-003311Y-000385D01*
G01X-003310Y-000382D01*
G01X-003309Y-000378D01*
G01X-003307Y-000374D01*
G01X-003305Y-000371D01*
G01X-003302Y-000368D01*
G01X-003300Y-000365D01*
G01X-003297Y-000362D01*
G01X-003294Y-000360D01*
G01X-003290Y-000358D01*
G01X-003287Y-000356D01*
G01X-003283Y-000355D01*
G01X-003279Y-000354D01*
G01X-003275Y-000353D01*
G01X-003271Y-000353D01*
G01X-003190Y-000353D01*
G01X-003186Y-000353D01*
G01X-003186Y-000353D01*
G37*
G54D11*
G01X-003230Y-000441D03*
G54D10*
G36*
G01X-002804Y-000353D02*
G01X-002800Y-000354D01*
G01X-002796Y-000355D01*
G01X-002792Y-000356D01*
G01X-002789Y-000358D01*
G01X-002785Y-000360D01*
G01X-002782Y-000362D01*
G01X-002779Y-000365D01*
G01X-002776Y-000368D01*
G01X-002774Y-000371D01*
G01X-002772Y-000374D01*
G01X-002770Y-000378D01*
G01X-002769Y-000382D01*
G01X-002768Y-000385D01*
G01X-002767Y-000389D01*
G01X-002767Y-000393D01*
G01X-002767Y-000488D01*
G01X-002767Y-000492D01*
G01X-002768Y-000496D01*
G01X-002769Y-000500D01*
G01X-002770Y-000504D01*
G01X-002772Y-000508D01*
G01X-002774Y-000511D01*
G01X-002776Y-000514D01*
G01X-002779Y-000517D01*
G01X-002782Y-000520D01*
G01X-002785Y-000522D01*
G01X-002789Y-000524D01*
G01X-002792Y-000526D01*
G01X-002796Y-000527D01*
G01X-002800Y-000528D01*
G01X-002804Y-000529D01*
G01X-002808Y-000529D01*
G01X-002889Y-000529D01*
G01X-002893Y-000529D01*
G01X-002897Y-000528D01*
G01X-002901Y-000527D01*
G01X-002905Y-000526D01*
G01X-002908Y-000524D01*
G01X-002912Y-000522D01*
G01X-002915Y-000520D01*
G01X-002918Y-000517D01*
G01X-002920Y-000514D01*
G01X-002923Y-000511D01*
G01X-002925Y-000508D01*
G01X-002927Y-000504D01*
G01X-002928Y-000500D01*
G01X-002929Y-000496D01*
G01X-002930Y-000492D01*
G01X-002930Y-000488D01*
G01X-002930Y-000393D01*
G01X-002930Y-000389D01*
G01X-002929Y-000385D01*
G01X-002928Y-000382D01*
G01X-002927Y-000378D01*
G01X-002925Y-000374D01*
G01X-002923Y-000371D01*
G01X-002920Y-000368D01*
G01X-002918Y-000365D01*
G01X-002915Y-000362D01*
G01X-002912Y-000360D01*
G01X-002908Y-000358D01*
G01X-002905Y-000356D01*
G01X-002901Y-000355D01*
G01X-002897Y-000354D01*
G01X-002893Y-000353D01*
G01X-002889Y-000353D01*
G01X-002808Y-000353D01*
G01X-002804Y-000353D01*
G01X-002804Y-000353D01*
G37*
G54D11*
G01X-002848Y-000441D03*
G54D13*
G01X0014083Y0001986D03*
G01X0014339Y0001986D03*
G01X0013827Y0001986D03*
G01X0013571Y0003132D03*
G01X0013571Y0001986D03*
G01X0013827Y0003132D03*
G01X0014083Y0003132D03*
G01X0014339Y0003132D03*
G01X0014594Y0001986D03*
G01X0014850Y0003132D03*
G01X0014594Y0003132D03*
G01X0014850Y0001986D03*
G54D14*
G01X0014919Y0002559D03*
G01X0014526Y0002559D03*
G01X0013896Y0002559D03*
G01X0013502Y0002559D03*
G01X0013502Y0000059D03*
G01X0013896Y0000059D03*
G01X0014526Y0000059D03*
G01X0014919Y0000059D03*
G54D13*
G01X0014850Y-000514D03*
G01X0014594Y0000632D03*
G01X0014850Y0000632D03*
G01X0014594Y-000514D03*
G01X0014339Y0000632D03*
G01X0014083Y0000632D03*
G01X0013827Y0000632D03*
G01X0013571Y-000514D03*
G01X0013571Y0000632D03*
G01X0013827Y-000514D03*
G01X0014339Y-000514D03*
G01X0014083Y-000514D03*
G54D14*
G01X0013502Y-002441D03*
G01X0013896Y-002441D03*
G01X0014526Y-002441D03*
G01X0014919Y-002441D03*
G54D13*
G01X0014850Y-003014D03*
G01X0014594Y-001868D03*
G01X0014850Y-001868D03*
G01X0014594Y-003014D03*
G01X0014339Y-001868D03*
G01X0014083Y-001868D03*
G01X0013827Y-001868D03*
G01X0013571Y-003014D03*
G01X0013571Y-001868D03*
G01X0013827Y-003014D03*
G01X0014339Y-003014D03*
G01X0014083Y-003014D03*
G54D10*
G36*
G01X-002804Y-004353D02*
G01X-002800Y-004354D01*
G01X-002796Y-004355D01*
G01X-002792Y-004356D01*
G01X-002789Y-004358D01*
G01X-002785Y-004360D01*
G01X-002782Y-004362D01*
G01X-002779Y-004365D01*
G01X-002776Y-004368D01*
G01X-002774Y-004371D01*
G01X-002772Y-004374D01*
G01X-002770Y-004378D01*
G01X-002769Y-004382D01*
G01X-002768Y-004385D01*
G01X-002767Y-004389D01*
G01X-002767Y-004393D01*
G01X-002767Y-004488D01*
G01X-002767Y-004492D01*
G01X-002768Y-004496D01*
G01X-002769Y-004500D01*
G01X-002770Y-004504D01*
G01X-002772Y-004508D01*
G01X-002774Y-004511D01*
G01X-002776Y-004514D01*
G01X-002779Y-004517D01*
G01X-002782Y-004520D01*
G01X-002785Y-004522D01*
G01X-002789Y-004524D01*
G01X-002792Y-004526D01*
G01X-002796Y-004527D01*
G01X-002800Y-004528D01*
G01X-002804Y-004529D01*
G01X-002808Y-004529D01*
G01X-002889Y-004529D01*
G01X-002893Y-004529D01*
G01X-002897Y-004528D01*
G01X-002901Y-004527D01*
G01X-002905Y-004526D01*
G01X-002908Y-004524D01*
G01X-002912Y-004522D01*
G01X-002915Y-004520D01*
G01X-002918Y-004517D01*
G01X-002920Y-004514D01*
G01X-002923Y-004511D01*
G01X-002925Y-004508D01*
G01X-002927Y-004504D01*
G01X-002928Y-004500D01*
G01X-002929Y-004496D01*
G01X-002930Y-004492D01*
G01X-002930Y-004488D01*
G01X-002930Y-004393D01*
G01X-002930Y-004389D01*
G01X-002929Y-004385D01*
G01X-002928Y-004382D01*
G01X-002927Y-004378D01*
G01X-002925Y-004374D01*
G01X-002923Y-004371D01*
G01X-002920Y-004368D01*
G01X-002918Y-004365D01*
G01X-002915Y-004362D01*
G01X-002912Y-004360D01*
G01X-002908Y-004358D01*
G01X-002905Y-004356D01*
G01X-002901Y-004355D01*
G01X-002897Y-004354D01*
G01X-002893Y-004353D01*
G01X-002889Y-004353D01*
G01X-002808Y-004353D01*
G01X-002804Y-004353D01*
G01X-002804Y-004353D01*
G37*
G54D11*
G01X-002848Y-004441D03*
G54D10*
G36*
G01X-003186Y-004353D02*
G01X-003182Y-004354D01*
G01X-003178Y-004355D01*
G01X-003174Y-004356D01*
G01X-003171Y-004358D01*
G01X-003167Y-004360D01*
G01X-003164Y-004362D01*
G01X-003161Y-004365D01*
G01X-003158Y-004368D01*
G01X-003156Y-004371D01*
G01X-003154Y-004374D01*
G01X-003152Y-004378D01*
G01X-003151Y-004382D01*
G01X-003150Y-004385D01*
G01X-003149Y-004389D01*
G01X-003149Y-004393D01*
G01X-003149Y-004488D01*
G01X-003149Y-004492D01*
G01X-003150Y-004496D01*
G01X-003151Y-004500D01*
G01X-003152Y-004504D01*
G01X-003154Y-004508D01*
G01X-003156Y-004511D01*
G01X-003158Y-004514D01*
G01X-003161Y-004517D01*
G01X-003164Y-004520D01*
G01X-003167Y-004522D01*
G01X-003171Y-004524D01*
G01X-003174Y-004526D01*
G01X-003178Y-004527D01*
G01X-003182Y-004528D01*
G01X-003186Y-004529D01*
G01X-003190Y-004529D01*
G01X-003271Y-004529D01*
G01X-003275Y-004529D01*
G01X-003279Y-004528D01*
G01X-003283Y-004527D01*
G01X-003287Y-004526D01*
G01X-003290Y-004524D01*
G01X-003294Y-004522D01*
G01X-003297Y-004520D01*
G01X-003300Y-004517D01*
G01X-003302Y-004514D01*
G01X-003305Y-004511D01*
G01X-003307Y-004508D01*
G01X-003309Y-004504D01*
G01X-003310Y-004500D01*
G01X-003311Y-004496D01*
G01X-003311Y-004492D01*
G01X-003312Y-004488D01*
G01X-003312Y-004393D01*
G01X-003311Y-004389D01*
G01X-003311Y-004385D01*
G01X-003310Y-004382D01*
G01X-003309Y-004378D01*
G01X-003307Y-004374D01*
G01X-003305Y-004371D01*
G01X-003302Y-004368D01*
G01X-003300Y-004365D01*
G01X-003297Y-004362D01*
G01X-003294Y-004360D01*
G01X-003290Y-004358D01*
G01X-003287Y-004356D01*
G01X-003283Y-004355D01*
G01X-003279Y-004354D01*
G01X-003275Y-004353D01*
G01X-003271Y-004353D01*
G01X-003190Y-004353D01*
G01X-003186Y-004353D01*
G01X-003186Y-004353D01*
G37*
G54D11*
G01X-003230Y-004441D03*
G54D10*
G36*
G01X-004938Y-002169D02*
G01X-004934Y-002169D01*
G01X-004930Y-002170D01*
G01X-004926Y-002172D01*
G01X-004923Y-002174D01*
G01X-004919Y-002176D01*
G01X-004916Y-002178D01*
G01X-004913Y-002181D01*
G01X-004910Y-002184D01*
G01X-004908Y-002187D01*
G01X-004906Y-002190D01*
G01X-004904Y-002194D01*
G01X-004903Y-002198D01*
G01X-004902Y-002201D01*
G01X-004901Y-002205D01*
G01X-004901Y-002209D01*
G01X-004901Y-002291D01*
G01X-004901Y-002295D01*
G01X-004902Y-002299D01*
G01X-004903Y-002302D01*
G01X-004904Y-002306D01*
G01X-004906Y-002310D01*
G01X-004908Y-002313D01*
G01X-004910Y-002316D01*
G01X-004913Y-002319D01*
G01X-004916Y-002322D01*
G01X-004919Y-002324D01*
G01X-004923Y-002326D01*
G01X-004926Y-002328D01*
G01X-004930Y-002330D01*
G01X-004934Y-002331D01*
G01X-004938Y-002331D01*
G01X-004942Y-002331D01*
G01X-005037Y-002331D01*
G01X-005041Y-002331D01*
G01X-005045Y-002331D01*
G01X-005049Y-002330D01*
G01X-005052Y-002328D01*
G01X-005056Y-002326D01*
G01X-005059Y-002324D01*
G01X-005063Y-002322D01*
G01X-005066Y-002319D01*
G01X-005068Y-002316D01*
G01X-005071Y-002313D01*
G01X-005073Y-002310D01*
G01X-005074Y-002306D01*
G01X-005076Y-002302D01*
G01X-005077Y-002299D01*
G01X-005077Y-002295D01*
G01X-005078Y-002291D01*
G01X-005078Y-002209D01*
G01X-005077Y-002205D01*
G01X-005077Y-002201D01*
G01X-005076Y-002198D01*
G01X-005074Y-002194D01*
G01X-005073Y-002190D01*
G01X-005071Y-002187D01*
G01X-005068Y-002184D01*
G01X-005066Y-002181D01*
G01X-005063Y-002178D01*
G01X-005059Y-002176D01*
G01X-005056Y-002174D01*
G01X-005052Y-002172D01*
G01X-005049Y-002170D01*
G01X-005045Y-002169D01*
G01X-005041Y-002169D01*
G01X-005037Y-002169D01*
G01X-004942Y-002169D01*
G01X-004938Y-002169D01*
G01X-004938Y-002169D01*
G37*
G54D11*
G01X-004989Y-002250D03*
G54D10*
G36*
G01X-004938Y-002551D02*
G01X-004934Y-002551D01*
G01X-004930Y-002552D01*
G01X-004926Y-002554D01*
G01X-004923Y-002555D01*
G01X-004919Y-002557D01*
G01X-004916Y-002560D01*
G01X-004913Y-002562D01*
G01X-004910Y-002565D01*
G01X-004908Y-002569D01*
G01X-004906Y-002572D01*
G01X-004904Y-002576D01*
G01X-004903Y-002579D01*
G01X-004902Y-002583D01*
G01X-004901Y-002587D01*
G01X-004901Y-002591D01*
G01X-004901Y-002673D01*
G01X-004901Y-002677D01*
G01X-004902Y-002680D01*
G01X-004903Y-002684D01*
G01X-004904Y-002688D01*
G01X-004906Y-002692D01*
G01X-004908Y-002695D01*
G01X-004910Y-002698D01*
G01X-004913Y-002701D01*
G01X-004916Y-002704D01*
G01X-004919Y-002706D01*
G01X-004923Y-002708D01*
G01X-004926Y-002710D01*
G01X-004930Y-002711D01*
G01X-004934Y-002712D01*
G01X-004938Y-002713D01*
G01X-004942Y-002713D01*
G01X-005037Y-002713D01*
G01X-005041Y-002713D01*
G01X-005045Y-002712D01*
G01X-005049Y-002711D01*
G01X-005052Y-002710D01*
G01X-005056Y-002708D01*
G01X-005059Y-002706D01*
G01X-005063Y-002704D01*
G01X-005066Y-002701D01*
G01X-005068Y-002698D01*
G01X-005071Y-002695D01*
G01X-005073Y-002692D01*
G01X-005074Y-002688D01*
G01X-005076Y-002684D01*
G01X-005077Y-002680D01*
G01X-005077Y-002677D01*
G01X-005078Y-002673D01*
G01X-005078Y-002591D01*
G01X-005077Y-002587D01*
G01X-005077Y-002583D01*
G01X-005076Y-002579D01*
G01X-005074Y-002576D01*
G01X-005073Y-002572D01*
G01X-005071Y-002569D01*
G01X-005068Y-002565D01*
G01X-005066Y-002562D01*
G01X-005063Y-002560D01*
G01X-005059Y-002557D01*
G01X-005056Y-002555D01*
G01X-005052Y-002554D01*
G01X-005049Y-002552D01*
G01X-005045Y-002551D01*
G01X-005041Y-002551D01*
G01X-005037Y-002551D01*
G01X-004942Y-002551D01*
G01X-004938Y-002551D01*
G01X-004938Y-002551D01*
G37*
G54D11*
G01X-004989Y-002632D03*
G54D10*
G36*
G01X-005338Y-002169D02*
G01X-005334Y-002169D01*
G01X-005330Y-002170D01*
G01X-005326Y-002172D01*
G01X-005323Y-002174D01*
G01X-005319Y-002176D01*
G01X-005316Y-002178D01*
G01X-005313Y-002181D01*
G01X-005310Y-002184D01*
G01X-005308Y-002187D01*
G01X-005306Y-002190D01*
G01X-005304Y-002194D01*
G01X-005303Y-002198D01*
G01X-005302Y-002201D01*
G01X-005301Y-002205D01*
G01X-005301Y-002209D01*
G01X-005301Y-002291D01*
G01X-005301Y-002295D01*
G01X-005302Y-002299D01*
G01X-005303Y-002302D01*
G01X-005304Y-002306D01*
G01X-005306Y-002310D01*
G01X-005308Y-002313D01*
G01X-005310Y-002316D01*
G01X-005313Y-002319D01*
G01X-005316Y-002322D01*
G01X-005319Y-002324D01*
G01X-005323Y-002326D01*
G01X-005326Y-002328D01*
G01X-005330Y-002330D01*
G01X-005334Y-002331D01*
G01X-005338Y-002331D01*
G01X-005342Y-002331D01*
G01X-005437Y-002331D01*
G01X-005441Y-002331D01*
G01X-005445Y-002331D01*
G01X-005449Y-002330D01*
G01X-005452Y-002328D01*
G01X-005456Y-002326D01*
G01X-005459Y-002324D01*
G01X-005463Y-002322D01*
G01X-005466Y-002319D01*
G01X-005468Y-002316D01*
G01X-005471Y-002313D01*
G01X-005473Y-002310D01*
G01X-005474Y-002306D01*
G01X-005476Y-002302D01*
G01X-005477Y-002299D01*
G01X-005477Y-002295D01*
G01X-005478Y-002291D01*
G01X-005478Y-002209D01*
G01X-005477Y-002205D01*
G01X-005477Y-002201D01*
G01X-005476Y-002198D01*
G01X-005474Y-002194D01*
G01X-005473Y-002190D01*
G01X-005471Y-002187D01*
G01X-005468Y-002184D01*
G01X-005466Y-002181D01*
G01X-005463Y-002178D01*
G01X-005459Y-002176D01*
G01X-005456Y-002174D01*
G01X-005452Y-002172D01*
G01X-005449Y-002170D01*
G01X-005445Y-002169D01*
G01X-005441Y-002169D01*
G01X-005437Y-002169D01*
G01X-005342Y-002169D01*
G01X-005338Y-002169D01*
G01X-005338Y-002169D01*
G37*
G54D11*
G01X-005389Y-002250D03*
G54D10*
G36*
G01X-005338Y-002551D02*
G01X-005334Y-002551D01*
G01X-005330Y-002552D01*
G01X-005326Y-002554D01*
G01X-005323Y-002555D01*
G01X-005319Y-002557D01*
G01X-005316Y-002560D01*
G01X-005313Y-002562D01*
G01X-005310Y-002565D01*
G01X-005308Y-002569D01*
G01X-005306Y-002572D01*
G01X-005304Y-002576D01*
G01X-005303Y-002579D01*
G01X-005302Y-002583D01*
G01X-005301Y-002587D01*
G01X-005301Y-002591D01*
G01X-005301Y-002673D01*
G01X-005301Y-002677D01*
G01X-005302Y-002680D01*
G01X-005303Y-002684D01*
G01X-005304Y-002688D01*
G01X-005306Y-002692D01*
G01X-005308Y-002695D01*
G01X-005310Y-002698D01*
G01X-005313Y-002701D01*
G01X-005316Y-002704D01*
G01X-005319Y-002706D01*
G01X-005323Y-002708D01*
G01X-005326Y-002710D01*
G01X-005330Y-002711D01*
G01X-005334Y-002712D01*
G01X-005338Y-002713D01*
G01X-005342Y-002713D01*
G01X-005437Y-002713D01*
G01X-005441Y-002713D01*
G01X-005445Y-002712D01*
G01X-005449Y-002711D01*
G01X-005452Y-002710D01*
G01X-005456Y-002708D01*
G01X-005459Y-002706D01*
G01X-005463Y-002704D01*
G01X-005466Y-002701D01*
G01X-005468Y-002698D01*
G01X-005471Y-002695D01*
G01X-005473Y-002692D01*
G01X-005474Y-002688D01*
G01X-005476Y-002684D01*
G01X-005477Y-002680D01*
G01X-005477Y-002677D01*
G01X-005478Y-002673D01*
G01X-005478Y-002591D01*
G01X-005477Y-002587D01*
G01X-005477Y-002583D01*
G01X-005476Y-002579D01*
G01X-005474Y-002576D01*
G01X-005473Y-002572D01*
G01X-005471Y-002569D01*
G01X-005468Y-002565D01*
G01X-005466Y-002562D01*
G01X-005463Y-002560D01*
G01X-005459Y-002557D01*
G01X-005456Y-002555D01*
G01X-005452Y-002554D01*
G01X-005449Y-002552D01*
G01X-005445Y-002551D01*
G01X-005441Y-002551D01*
G01X-005437Y-002551D01*
G01X-005342Y-002551D01*
G01X-005338Y-002551D01*
G01X-005338Y-002551D01*
G37*
G54D11*
G01X-005389Y-002632D03*
G54D10*
G36*
G01X-005738Y-002169D02*
G01X-005734Y-002169D01*
G01X-005730Y-002170D01*
G01X-005726Y-002172D01*
G01X-005723Y-002174D01*
G01X-005719Y-002176D01*
G01X-005716Y-002178D01*
G01X-005713Y-002181D01*
G01X-005710Y-002184D01*
G01X-005708Y-002187D01*
G01X-005706Y-002190D01*
G01X-005704Y-002194D01*
G01X-005703Y-002198D01*
G01X-005702Y-002201D01*
G01X-005701Y-002205D01*
G01X-005701Y-002209D01*
G01X-005701Y-002291D01*
G01X-005701Y-002295D01*
G01X-005702Y-002299D01*
G01X-005703Y-002302D01*
G01X-005704Y-002306D01*
G01X-005706Y-002310D01*
G01X-005708Y-002313D01*
G01X-005710Y-002316D01*
G01X-005713Y-002319D01*
G01X-005716Y-002322D01*
G01X-005719Y-002324D01*
G01X-005723Y-002326D01*
G01X-005726Y-002328D01*
G01X-005730Y-002330D01*
G01X-005734Y-002331D01*
G01X-005738Y-002331D01*
G01X-005742Y-002331D01*
G01X-005837Y-002331D01*
G01X-005841Y-002331D01*
G01X-005845Y-002331D01*
G01X-005849Y-002330D01*
G01X-005852Y-002328D01*
G01X-005856Y-002326D01*
G01X-005859Y-002324D01*
G01X-005863Y-002322D01*
G01X-005866Y-002319D01*
G01X-005868Y-002316D01*
G01X-005871Y-002313D01*
G01X-005873Y-002310D01*
G01X-005874Y-002306D01*
G01X-005876Y-002302D01*
G01X-005877Y-002299D01*
G01X-005877Y-002295D01*
G01X-005878Y-002291D01*
G01X-005878Y-002209D01*
G01X-005877Y-002205D01*
G01X-005877Y-002201D01*
G01X-005876Y-002198D01*
G01X-005874Y-002194D01*
G01X-005873Y-002190D01*
G01X-005871Y-002187D01*
G01X-005868Y-002184D01*
G01X-005866Y-002181D01*
G01X-005863Y-002178D01*
G01X-005859Y-002176D01*
G01X-005856Y-002174D01*
G01X-005852Y-002172D01*
G01X-005849Y-002170D01*
G01X-005845Y-002169D01*
G01X-005841Y-002169D01*
G01X-005837Y-002169D01*
G01X-005742Y-002169D01*
G01X-005738Y-002169D01*
G01X-005738Y-002169D01*
G37*
G54D11*
G01X-005789Y-002250D03*
G54D10*
G36*
G01X-005738Y-002551D02*
G01X-005734Y-002551D01*
G01X-005730Y-002552D01*
G01X-005726Y-002554D01*
G01X-005723Y-002555D01*
G01X-005719Y-002557D01*
G01X-005716Y-002560D01*
G01X-005713Y-002562D01*
G01X-005710Y-002565D01*
G01X-005708Y-002569D01*
G01X-005706Y-002572D01*
G01X-005704Y-002576D01*
G01X-005703Y-002579D01*
G01X-005702Y-002583D01*
G01X-005701Y-002587D01*
G01X-005701Y-002591D01*
G01X-005701Y-002673D01*
G01X-005701Y-002677D01*
G01X-005702Y-002680D01*
G01X-005703Y-002684D01*
G01X-005704Y-002688D01*
G01X-005706Y-002692D01*
G01X-005708Y-002695D01*
G01X-005710Y-002698D01*
G01X-005713Y-002701D01*
G01X-005716Y-002704D01*
G01X-005719Y-002706D01*
G01X-005723Y-002708D01*
G01X-005726Y-002710D01*
G01X-005730Y-002711D01*
G01X-005734Y-002712D01*
G01X-005738Y-002713D01*
G01X-005742Y-002713D01*
G01X-005837Y-002713D01*
G01X-005841Y-002713D01*
G01X-005845Y-002712D01*
G01X-005849Y-002711D01*
G01X-005852Y-002710D01*
G01X-005856Y-002708D01*
G01X-005859Y-002706D01*
G01X-005863Y-002704D01*
G01X-005866Y-002701D01*
G01X-005868Y-002698D01*
G01X-005871Y-002695D01*
G01X-005873Y-002692D01*
G01X-005874Y-002688D01*
G01X-005876Y-002684D01*
G01X-005877Y-002680D01*
G01X-005877Y-002677D01*
G01X-005878Y-002673D01*
G01X-005878Y-002591D01*
G01X-005877Y-002587D01*
G01X-005877Y-002583D01*
G01X-005876Y-002579D01*
G01X-005874Y-002576D01*
G01X-005873Y-002572D01*
G01X-005871Y-002569D01*
G01X-005868Y-002565D01*
G01X-005866Y-002562D01*
G01X-005863Y-002560D01*
G01X-005859Y-002557D01*
G01X-005856Y-002555D01*
G01X-005852Y-002554D01*
G01X-005849Y-002552D01*
G01X-005845Y-002551D01*
G01X-005841Y-002551D01*
G01X-005837Y-002551D01*
G01X-005742Y-002551D01*
G01X-005738Y-002551D01*
G01X-005738Y-002551D01*
G37*
G54D11*
G01X-005789Y-002632D03*
G54D10*
G36*
G01X-003186Y-002753D02*
G01X-003182Y-002754D01*
G01X-003178Y-002755D01*
G01X-003174Y-002756D01*
G01X-003171Y-002758D01*
G01X-003167Y-002760D01*
G01X-003164Y-002762D01*
G01X-003161Y-002765D01*
G01X-003158Y-002768D01*
G01X-003156Y-002771D01*
G01X-003154Y-002774D01*
G01X-003152Y-002778D01*
G01X-003151Y-002782D01*
G01X-003150Y-002785D01*
G01X-003149Y-002789D01*
G01X-003149Y-002793D01*
G01X-003149Y-002888D01*
G01X-003149Y-002892D01*
G01X-003150Y-002896D01*
G01X-003151Y-002900D01*
G01X-003152Y-002904D01*
G01X-003154Y-002908D01*
G01X-003156Y-002911D01*
G01X-003158Y-002914D01*
G01X-003161Y-002917D01*
G01X-003164Y-002920D01*
G01X-003167Y-002922D01*
G01X-003171Y-002924D01*
G01X-003174Y-002926D01*
G01X-003178Y-002927D01*
G01X-003182Y-002928D01*
G01X-003186Y-002929D01*
G01X-003190Y-002929D01*
G01X-003271Y-002929D01*
G01X-003275Y-002929D01*
G01X-003279Y-002928D01*
G01X-003283Y-002927D01*
G01X-003287Y-002926D01*
G01X-003290Y-002924D01*
G01X-003294Y-002922D01*
G01X-003297Y-002920D01*
G01X-003300Y-002917D01*
G01X-003302Y-002914D01*
G01X-003305Y-002911D01*
G01X-003307Y-002908D01*
G01X-003309Y-002904D01*
G01X-003310Y-002900D01*
G01X-003311Y-002896D01*
G01X-003311Y-002892D01*
G01X-003312Y-002888D01*
G01X-003312Y-002793D01*
G01X-003311Y-002789D01*
G01X-003311Y-002785D01*
G01X-003310Y-002782D01*
G01X-003309Y-002778D01*
G01X-003307Y-002774D01*
G01X-003305Y-002771D01*
G01X-003302Y-002768D01*
G01X-003300Y-002765D01*
G01X-003297Y-002762D01*
G01X-003294Y-002760D01*
G01X-003290Y-002758D01*
G01X-003287Y-002756D01*
G01X-003283Y-002755D01*
G01X-003279Y-002754D01*
G01X-003275Y-002753D01*
G01X-003271Y-002753D01*
G01X-003190Y-002753D01*
G01X-003186Y-002753D01*
G01X-003186Y-002753D01*
G37*
G54D11*
G01X-003230Y-002841D03*
G54D10*
G36*
G01X-002804Y-002753D02*
G01X-002800Y-002754D01*
G01X-002796Y-002755D01*
G01X-002792Y-002756D01*
G01X-002789Y-002758D01*
G01X-002785Y-002760D01*
G01X-002782Y-002762D01*
G01X-002779Y-002765D01*
G01X-002776Y-002768D01*
G01X-002774Y-002771D01*
G01X-002772Y-002774D01*
G01X-002770Y-002778D01*
G01X-002769Y-002782D01*
G01X-002768Y-002785D01*
G01X-002767Y-002789D01*
G01X-002767Y-002793D01*
G01X-002767Y-002888D01*
G01X-002767Y-002892D01*
G01X-002768Y-002896D01*
G01X-002769Y-002900D01*
G01X-002770Y-002904D01*
G01X-002772Y-002908D01*
G01X-002774Y-002911D01*
G01X-002776Y-002914D01*
G01X-002779Y-002917D01*
G01X-002782Y-002920D01*
G01X-002785Y-002922D01*
G01X-002789Y-002924D01*
G01X-002792Y-002926D01*
G01X-002796Y-002927D01*
G01X-002800Y-002928D01*
G01X-002804Y-002929D01*
G01X-002808Y-002929D01*
G01X-002889Y-002929D01*
G01X-002893Y-002929D01*
G01X-002897Y-002928D01*
G01X-002901Y-002927D01*
G01X-002905Y-002926D01*
G01X-002908Y-002924D01*
G01X-002912Y-002922D01*
G01X-002915Y-002920D01*
G01X-002918Y-002917D01*
G01X-002920Y-002914D01*
G01X-002923Y-002911D01*
G01X-002925Y-002908D01*
G01X-002927Y-002904D01*
G01X-002928Y-002900D01*
G01X-002929Y-002896D01*
G01X-002930Y-002892D01*
G01X-002930Y-002888D01*
G01X-002930Y-002793D01*
G01X-002930Y-002789D01*
G01X-002929Y-002785D01*
G01X-002928Y-002782D01*
G01X-002927Y-002778D01*
G01X-002925Y-002774D01*
G01X-002923Y-002771D01*
G01X-002920Y-002768D01*
G01X-002918Y-002765D01*
G01X-002915Y-002762D01*
G01X-002912Y-002760D01*
G01X-002908Y-002758D01*
G01X-002905Y-002756D01*
G01X-002901Y-002755D01*
G01X-002897Y-002754D01*
G01X-002893Y-002753D01*
G01X-002889Y-002753D01*
G01X-002808Y-002753D01*
G01X-002804Y-002753D01*
G01X-002804Y-002753D01*
G37*
G54D11*
G01X-002848Y-002841D03*
G54D10*
G36*
G01X-003186Y-002353D02*
G01X-003182Y-002354D01*
G01X-003178Y-002355D01*
G01X-003174Y-002356D01*
G01X-003171Y-002358D01*
G01X-003167Y-002360D01*
G01X-003164Y-002362D01*
G01X-003161Y-002365D01*
G01X-003158Y-002368D01*
G01X-003156Y-002371D01*
G01X-003154Y-002374D01*
G01X-003152Y-002378D01*
G01X-003151Y-002382D01*
G01X-003150Y-002385D01*
G01X-003149Y-002389D01*
G01X-003149Y-002393D01*
G01X-003149Y-002488D01*
G01X-003149Y-002492D01*
G01X-003150Y-002496D01*
G01X-003151Y-002500D01*
G01X-003152Y-002504D01*
G01X-003154Y-002508D01*
G01X-003156Y-002511D01*
G01X-003158Y-002514D01*
G01X-003161Y-002517D01*
G01X-003164Y-002520D01*
G01X-003167Y-002522D01*
G01X-003171Y-002524D01*
G01X-003174Y-002526D01*
G01X-003178Y-002527D01*
G01X-003182Y-002528D01*
G01X-003186Y-002529D01*
G01X-003190Y-002529D01*
G01X-003271Y-002529D01*
G01X-003275Y-002529D01*
G01X-003279Y-002528D01*
G01X-003283Y-002527D01*
G01X-003287Y-002526D01*
G01X-003290Y-002524D01*
G01X-003294Y-002522D01*
G01X-003297Y-002520D01*
G01X-003300Y-002517D01*
G01X-003302Y-002514D01*
G01X-003305Y-002511D01*
G01X-003307Y-002508D01*
G01X-003309Y-002504D01*
G01X-003310Y-002500D01*
G01X-003311Y-002496D01*
G01X-003311Y-002492D01*
G01X-003312Y-002488D01*
G01X-003312Y-002393D01*
G01X-003311Y-002389D01*
G01X-003311Y-002385D01*
G01X-003310Y-002382D01*
G01X-003309Y-002378D01*
G01X-003307Y-002374D01*
G01X-003305Y-002371D01*
G01X-003302Y-002368D01*
G01X-003300Y-002365D01*
G01X-003297Y-002362D01*
G01X-003294Y-002360D01*
G01X-003290Y-002358D01*
G01X-003287Y-002356D01*
G01X-003283Y-002355D01*
G01X-003279Y-002354D01*
G01X-003275Y-002353D01*
G01X-003271Y-002353D01*
G01X-003190Y-002353D01*
G01X-003186Y-002353D01*
G01X-003186Y-002353D01*
G37*
G54D11*
G01X-003230Y-002441D03*
G54D10*
G36*
G01X-002804Y-002353D02*
G01X-002800Y-002354D01*
G01X-002796Y-002355D01*
G01X-002792Y-002356D01*
G01X-002789Y-002358D01*
G01X-002785Y-002360D01*
G01X-002782Y-002362D01*
G01X-002779Y-002365D01*
G01X-002776Y-002368D01*
G01X-002774Y-002371D01*
G01X-002772Y-002374D01*
G01X-002770Y-002378D01*
G01X-002769Y-002382D01*
G01X-002768Y-002385D01*
G01X-002767Y-002389D01*
G01X-002767Y-002393D01*
G01X-002767Y-002488D01*
G01X-002767Y-002492D01*
G01X-002768Y-002496D01*
G01X-002769Y-002500D01*
G01X-002770Y-002504D01*
G01X-002772Y-002508D01*
G01X-002774Y-002511D01*
G01X-002776Y-002514D01*
G01X-002779Y-002517D01*
G01X-002782Y-002520D01*
G01X-002785Y-002522D01*
G01X-002789Y-002524D01*
G01X-002792Y-002526D01*
G01X-002796Y-002527D01*
G01X-002800Y-002528D01*
G01X-002804Y-002529D01*
G01X-002808Y-002529D01*
G01X-002889Y-002529D01*
G01X-002893Y-002529D01*
G01X-002897Y-002528D01*
G01X-002901Y-002527D01*
G01X-002905Y-002526D01*
G01X-002908Y-002524D01*
G01X-002912Y-002522D01*
G01X-002915Y-002520D01*
G01X-002918Y-002517D01*
G01X-002920Y-002514D01*
G01X-002923Y-002511D01*
G01X-002925Y-002508D01*
G01X-002927Y-002504D01*
G01X-002928Y-002500D01*
G01X-002929Y-002496D01*
G01X-002930Y-002492D01*
G01X-002930Y-002488D01*
G01X-002930Y-002393D01*
G01X-002930Y-002389D01*
G01X-002929Y-002385D01*
G01X-002928Y-002382D01*
G01X-002927Y-002378D01*
G01X-002925Y-002374D01*
G01X-002923Y-002371D01*
G01X-002920Y-002368D01*
G01X-002918Y-002365D01*
G01X-002915Y-002362D01*
G01X-002912Y-002360D01*
G01X-002908Y-002358D01*
G01X-002905Y-002356D01*
G01X-002901Y-002355D01*
G01X-002897Y-002354D01*
G01X-002893Y-002353D01*
G01X-002889Y-002353D01*
G01X-002808Y-002353D01*
G01X-002804Y-002353D01*
G01X-002804Y-002353D01*
G37*
G54D11*
G01X-002848Y-002441D03*
G54D10*
G36*
G01X-003186Y-001953D02*
G01X-003182Y-001954D01*
G01X-003178Y-001955D01*
G01X-003174Y-001956D01*
G01X-003171Y-001958D01*
G01X-003167Y-001960D01*
G01X-003164Y-001962D01*
G01X-003161Y-001965D01*
G01X-003158Y-001968D01*
G01X-003156Y-001971D01*
G01X-003154Y-001974D01*
G01X-003152Y-001978D01*
G01X-003151Y-001982D01*
G01X-003150Y-001985D01*
G01X-003149Y-001989D01*
G01X-003149Y-001993D01*
G01X-003149Y-002088D01*
G01X-003149Y-002092D01*
G01X-003150Y-002096D01*
G01X-003151Y-002100D01*
G01X-003152Y-002104D01*
G01X-003154Y-002108D01*
G01X-003156Y-002111D01*
G01X-003158Y-002114D01*
G01X-003161Y-002117D01*
G01X-003164Y-002120D01*
G01X-003167Y-002122D01*
G01X-003171Y-002124D01*
G01X-003174Y-002126D01*
G01X-003178Y-002127D01*
G01X-003182Y-002128D01*
G01X-003186Y-002129D01*
G01X-003190Y-002129D01*
G01X-003271Y-002129D01*
G01X-003275Y-002129D01*
G01X-003279Y-002128D01*
G01X-003283Y-002127D01*
G01X-003287Y-002126D01*
G01X-003290Y-002124D01*
G01X-003294Y-002122D01*
G01X-003297Y-002120D01*
G01X-003300Y-002117D01*
G01X-003302Y-002114D01*
G01X-003305Y-002111D01*
G01X-003307Y-002108D01*
G01X-003309Y-002104D01*
G01X-003310Y-002100D01*
G01X-003311Y-002096D01*
G01X-003311Y-002092D01*
G01X-003312Y-002088D01*
G01X-003312Y-001993D01*
G01X-003311Y-001989D01*
G01X-003311Y-001985D01*
G01X-003310Y-001982D01*
G01X-003309Y-001978D01*
G01X-003307Y-001974D01*
G01X-003305Y-001971D01*
G01X-003302Y-001968D01*
G01X-003300Y-001965D01*
G01X-003297Y-001962D01*
G01X-003294Y-001960D01*
G01X-003290Y-001958D01*
G01X-003287Y-001956D01*
G01X-003283Y-001955D01*
G01X-003279Y-001954D01*
G01X-003275Y-001953D01*
G01X-003271Y-001953D01*
G01X-003190Y-001953D01*
G01X-003186Y-001953D01*
G01X-003186Y-001953D01*
G37*
G54D11*
G01X-003230Y-002041D03*
G54D10*
G36*
G01X-002804Y-001953D02*
G01X-002800Y-001954D01*
G01X-002796Y-001955D01*
G01X-002792Y-001956D01*
G01X-002789Y-001958D01*
G01X-002785Y-001960D01*
G01X-002782Y-001962D01*
G01X-002779Y-001965D01*
G01X-002776Y-001968D01*
G01X-002774Y-001971D01*
G01X-002772Y-001974D01*
G01X-002770Y-001978D01*
G01X-002769Y-001982D01*
G01X-002768Y-001985D01*
G01X-002767Y-001989D01*
G01X-002767Y-001993D01*
G01X-002767Y-002088D01*
G01X-002767Y-002092D01*
G01X-002768Y-002096D01*
G01X-002769Y-002100D01*
G01X-002770Y-002104D01*
G01X-002772Y-002108D01*
G01X-002774Y-002111D01*
G01X-002776Y-002114D01*
G01X-002779Y-002117D01*
G01X-002782Y-002120D01*
G01X-002785Y-002122D01*
G01X-002789Y-002124D01*
G01X-002792Y-002126D01*
G01X-002796Y-002127D01*
G01X-002800Y-002128D01*
G01X-002804Y-002129D01*
G01X-002808Y-002129D01*
G01X-002889Y-002129D01*
G01X-002893Y-002129D01*
G01X-002897Y-002128D01*
G01X-002901Y-002127D01*
G01X-002905Y-002126D01*
G01X-002908Y-002124D01*
G01X-002912Y-002122D01*
G01X-002915Y-002120D01*
G01X-002918Y-002117D01*
G01X-002920Y-002114D01*
G01X-002923Y-002111D01*
G01X-002925Y-002108D01*
G01X-002927Y-002104D01*
G01X-002928Y-002100D01*
G01X-002929Y-002096D01*
G01X-002930Y-002092D01*
G01X-002930Y-002088D01*
G01X-002930Y-001993D01*
G01X-002930Y-001989D01*
G01X-002929Y-001985D01*
G01X-002928Y-001982D01*
G01X-002927Y-001978D01*
G01X-002925Y-001974D01*
G01X-002923Y-001971D01*
G01X-002920Y-001968D01*
G01X-002918Y-001965D01*
G01X-002915Y-001962D01*
G01X-002912Y-001960D01*
G01X-002908Y-001958D01*
G01X-002905Y-001956D01*
G01X-002901Y-001955D01*
G01X-002897Y-001954D01*
G01X-002893Y-001953D01*
G01X-002889Y-001953D01*
G01X-002808Y-001953D01*
G01X-002804Y-001953D01*
G01X-002804Y-001953D01*
G37*
G54D11*
G01X-002848Y-002041D03*
G54D10*
G36*
G01X0005905Y0002897D02*
G01X0005909Y0002896D01*
G01X0005913Y0002895D01*
G01X0005917Y0002894D01*
G01X0005920Y0002892D01*
G01X0005924Y0002890D01*
G01X0005927Y0002888D01*
G01X0005930Y0002885D01*
G01X0005933Y0002882D01*
G01X0005935Y0002879D01*
G01X0005937Y0002876D01*
G01X0005939Y0002872D01*
G01X0005940Y0002868D01*
G01X0005941Y0002865D01*
G01X0005942Y0002861D01*
G01X0005942Y0002857D01*
G01X0005942Y0002762D01*
G01X0005942Y0002758D01*
G01X0005941Y0002754D01*
G01X0005940Y0002750D01*
G01X0005939Y0002746D01*
G01X0005937Y0002742D01*
G01X0005935Y0002739D01*
G01X0005933Y0002736D01*
G01X0005930Y0002733D01*
G01X0005927Y0002730D01*
G01X0005924Y0002728D01*
G01X0005920Y0002726D01*
G01X0005917Y0002724D01*
G01X0005913Y0002723D01*
G01X0005909Y0002722D01*
G01X0005905Y0002721D01*
G01X0005901Y0002721D01*
G01X0005820Y0002721D01*
G01X0005816Y0002721D01*
G01X0005812Y0002722D01*
G01X0005808Y0002723D01*
G01X0005804Y0002724D01*
G01X0005801Y0002726D01*
G01X0005797Y0002728D01*
G01X0005794Y0002730D01*
G01X0005791Y0002733D01*
G01X0005789Y0002736D01*
G01X0005786Y0002739D01*
G01X0005784Y0002742D01*
G01X0005782Y0002746D01*
G01X0005781Y0002750D01*
G01X0005780Y0002754D01*
G01X0005780Y0002758D01*
G01X0005779Y0002762D01*
G01X0005779Y0002857D01*
G01X0005780Y0002861D01*
G01X0005780Y0002865D01*
G01X0005781Y0002868D01*
G01X0005782Y0002872D01*
G01X0005784Y0002876D01*
G01X0005786Y0002879D01*
G01X0005789Y0002882D01*
G01X0005791Y0002885D01*
G01X0005794Y0002888D01*
G01X0005797Y0002890D01*
G01X0005801Y0002892D01*
G01X0005804Y0002894D01*
G01X0005808Y0002895D01*
G01X0005812Y0002896D01*
G01X0005816Y0002897D01*
G01X0005820Y0002897D01*
G01X0005901Y0002897D01*
G01X0005905Y0002897D01*
G01X0005905Y0002897D01*
G37*
G54D11*
G01X0005861Y0002809D03*
G54D10*
G36*
G01X0005523Y0002897D02*
G01X0005527Y0002896D01*
G01X0005531Y0002895D01*
G01X0005535Y0002894D01*
G01X0005539Y0002892D01*
G01X0005542Y0002890D01*
G01X0005545Y0002888D01*
G01X0005548Y0002885D01*
G01X0005551Y0002882D01*
G01X0005553Y0002879D01*
G01X0005555Y0002876D01*
G01X0005557Y0002872D01*
G01X0005558Y0002868D01*
G01X0005559Y0002865D01*
G01X0005560Y0002861D01*
G01X0005560Y0002857D01*
G01X0005560Y0002762D01*
G01X0005560Y0002758D01*
G01X0005559Y0002754D01*
G01X0005558Y0002750D01*
G01X0005557Y0002746D01*
G01X0005555Y0002742D01*
G01X0005553Y0002739D01*
G01X0005551Y0002736D01*
G01X0005548Y0002733D01*
G01X0005545Y0002730D01*
G01X0005542Y0002728D01*
G01X0005539Y0002726D01*
G01X0005535Y0002724D01*
G01X0005531Y0002723D01*
G01X0005527Y0002722D01*
G01X0005523Y0002721D01*
G01X0005519Y0002721D01*
G01X0005438Y0002721D01*
G01X0005434Y0002721D01*
G01X0005430Y0002722D01*
G01X0005426Y0002723D01*
G01X0005423Y0002724D01*
G01X0005419Y0002726D01*
G01X0005416Y0002728D01*
G01X0005412Y0002730D01*
G01X0005409Y0002733D01*
G01X0005407Y0002736D01*
G01X0005404Y0002739D01*
G01X0005402Y0002742D01*
G01X0005401Y0002746D01*
G01X0005399Y0002750D01*
G01X0005398Y0002754D01*
G01X0005398Y0002758D01*
G01X0005397Y0002762D01*
G01X0005397Y0002857D01*
G01X0005398Y0002861D01*
G01X0005398Y0002865D01*
G01X0005399Y0002868D01*
G01X0005401Y0002872D01*
G01X0005402Y0002876D01*
G01X0005404Y0002879D01*
G01X0005407Y0002882D01*
G01X0005409Y0002885D01*
G01X0005412Y0002888D01*
G01X0005416Y0002890D01*
G01X0005419Y0002892D01*
G01X0005423Y0002894D01*
G01X0005426Y0002895D01*
G01X0005430Y0002896D01*
G01X0005434Y0002897D01*
G01X0005438Y0002897D01*
G01X0005519Y0002897D01*
G01X0005523Y0002897D01*
G01X0005523Y0002897D01*
G37*
G54D11*
G01X0005479Y0002809D03*
G54D10*
G36*
G01X0012843Y0001824D02*
G01X0012849Y0001823D01*
G01X0012856Y0001821D01*
G01X0012862Y0001819D01*
G01X0012868Y0001816D01*
G01X0012874Y0001813D01*
G01X0012879Y0001809D01*
G01X0012884Y0001805D01*
G01X0012888Y0001800D01*
G01X0012892Y0001794D01*
G01X0012896Y0001789D01*
G01X0012898Y0001783D01*
G01X0012901Y0001777D01*
G01X0012902Y0001770D01*
G01X0012903Y0001764D01*
G01X0012904Y0001757D01*
G01X0012904Y0001623D01*
G01X0012903Y0001616D01*
G01X0012902Y0001610D01*
G01X0012901Y0001603D01*
G01X0012898Y0001597D01*
G01X0012896Y0001591D01*
G01X0012892Y0001585D01*
G01X0012888Y0001580D01*
G01X0012884Y0001575D01*
G01X0012879Y0001571D01*
G01X0012874Y0001567D01*
G01X0012868Y0001564D01*
G01X0012862Y0001561D01*
G01X0012856Y0001559D01*
G01X0012849Y0001557D01*
G01X0012843Y0001556D01*
G01X0012836Y0001556D01*
G01X0012585Y0001556D01*
G01X0012578Y0001556D01*
G01X0012572Y0001557D01*
G01X0012565Y0001559D01*
G01X0012559Y0001561D01*
G01X0012553Y0001564D01*
G01X0012548Y0001567D01*
G01X0012542Y0001571D01*
G01X0012537Y0001575D01*
G01X0012533Y0001580D01*
G01X0012529Y0001585D01*
G01X0012526Y0001591D01*
G01X0012523Y0001597D01*
G01X0012521Y0001603D01*
G01X0012519Y0001610D01*
G01X0012518Y0001616D01*
G01X0012518Y0001623D01*
G01X0012518Y0001757D01*
G01X0012518Y0001764D01*
G01X0012519Y0001770D01*
G01X0012521Y0001777D01*
G01X0012523Y0001783D01*
G01X0012526Y0001789D01*
G01X0012529Y0001794D01*
G01X0012533Y0001800D01*
G01X0012537Y0001805D01*
G01X0012542Y0001809D01*
G01X0012548Y0001813D01*
G01X0012553Y0001816D01*
G01X0012559Y0001819D01*
G01X0012565Y0001821D01*
G01X0012572Y0001823D01*
G01X0012578Y0001824D01*
G01X0012585Y0001824D01*
G01X0012836Y0001824D01*
G01X0012843Y0001824D01*
G01X0012843Y0001824D01*
G37*
G54D15*
G01X0012711Y0001690D03*
G54D10*
G36*
G01X0012843Y0002562D02*
G01X0012849Y0002561D01*
G01X0012856Y0002560D01*
G01X0012862Y0002557D01*
G01X0012868Y0002555D01*
G01X0012874Y0002551D01*
G01X0012879Y0002547D01*
G01X0012884Y0002543D01*
G01X0012888Y0002538D01*
G01X0012892Y0002533D01*
G01X0012896Y0002527D01*
G01X0012898Y0002521D01*
G01X0012901Y0002515D01*
G01X0012902Y0002508D01*
G01X0012903Y0002502D01*
G01X0012904Y0002495D01*
G01X0012904Y0002361D01*
G01X0012903Y0002354D01*
G01X0012902Y0002348D01*
G01X0012901Y0002341D01*
G01X0012898Y0002335D01*
G01X0012896Y0002329D01*
G01X0012892Y0002324D01*
G01X0012888Y0002318D01*
G01X0012884Y0002313D01*
G01X0012879Y0002309D01*
G01X0012874Y0002305D01*
G01X0012868Y0002302D01*
G01X0012862Y0002299D01*
G01X0012856Y0002297D01*
G01X0012849Y0002295D01*
G01X0012843Y0002294D01*
G01X0012836Y0002294D01*
G01X0012585Y0002294D01*
G01X0012578Y0002294D01*
G01X0012572Y0002295D01*
G01X0012565Y0002297D01*
G01X0012559Y0002299D01*
G01X0012553Y0002302D01*
G01X0012548Y0002305D01*
G01X0012542Y0002309D01*
G01X0012537Y0002313D01*
G01X0012533Y0002318D01*
G01X0012529Y0002324D01*
G01X0012526Y0002329D01*
G01X0012523Y0002335D01*
G01X0012521Y0002341D01*
G01X0012519Y0002348D01*
G01X0012518Y0002354D01*
G01X0012518Y0002361D01*
G01X0012518Y0002495D01*
G01X0012518Y0002502D01*
G01X0012519Y0002508D01*
G01X0012521Y0002515D01*
G01X0012523Y0002521D01*
G01X0012526Y0002527D01*
G01X0012529Y0002533D01*
G01X0012533Y0002538D01*
G01X0012537Y0002543D01*
G01X0012542Y0002547D01*
G01X0012548Y0002551D01*
G01X0012553Y0002555D01*
G01X0012559Y0002557D01*
G01X0012565Y0002560D01*
G01X0012572Y0002561D01*
G01X0012578Y0002562D01*
G01X0012585Y0002563D01*
G01X0012836Y0002563D01*
G01X0012843Y0002562D01*
G01X0012843Y0002562D01*
G37*
G54D15*
G01X0012711Y0002428D03*
G54D10*
G36*
G01X0012843Y0000062D02*
G01X0012849Y0000061D01*
G01X0012856Y0000060D01*
G01X0012862Y0000057D01*
G01X0012868Y0000055D01*
G01X0012874Y0000051D01*
G01X0012879Y0000047D01*
G01X0012884Y0000043D01*
G01X0012888Y0000038D01*
G01X0012892Y0000033D01*
G01X0012896Y0000027D01*
G01X0012898Y0000021D01*
G01X0012901Y0000015D01*
G01X0012902Y0000008D01*
G01X0012903Y0000002D01*
G01X0012904Y-000005D01*
G01X0012904Y-000139D01*
G01X0012903Y-000146D01*
G01X0012902Y-000152D01*
G01X0012901Y-000159D01*
G01X0012898Y-000165D01*
G01X0012896Y-000171D01*
G01X0012892Y-000176D01*
G01X0012888Y-000182D01*
G01X0012884Y-000187D01*
G01X0012879Y-000191D01*
G01X0012874Y-000195D01*
G01X0012868Y-000198D01*
G01X0012862Y-000201D01*
G01X0012856Y-000203D01*
G01X0012849Y-000205D01*
G01X0012843Y-000206D01*
G01X0012836Y-000206D01*
G01X0012585Y-000206D01*
G01X0012578Y-000206D01*
G01X0012572Y-000205D01*
G01X0012565Y-000203D01*
G01X0012559Y-000201D01*
G01X0012553Y-000198D01*
G01X0012548Y-000195D01*
G01X0012542Y-000191D01*
G01X0012537Y-000187D01*
G01X0012533Y-000182D01*
G01X0012529Y-000176D01*
G01X0012526Y-000171D01*
G01X0012523Y-000165D01*
G01X0012521Y-000159D01*
G01X0012519Y-000152D01*
G01X0012518Y-000146D01*
G01X0012518Y-000139D01*
G01X0012518Y-000005D01*
G01X0012518Y0000002D01*
G01X0012519Y0000008D01*
G01X0012521Y0000015D01*
G01X0012523Y0000021D01*
G01X0012526Y0000027D01*
G01X0012529Y0000033D01*
G01X0012533Y0000038D01*
G01X0012537Y0000043D01*
G01X0012542Y0000047D01*
G01X0012548Y0000051D01*
G01X0012553Y0000055D01*
G01X0012559Y0000057D01*
G01X0012565Y0000060D01*
G01X0012572Y0000061D01*
G01X0012578Y0000062D01*
G01X0012585Y0000063D01*
G01X0012836Y0000063D01*
G01X0012843Y0000062D01*
G01X0012843Y0000062D01*
G37*
G54D15*
G01X0012711Y-000072D03*
G54D10*
G36*
G01X0012843Y-000676D02*
G01X0012849Y-000677D01*
G01X0012856Y-000679D01*
G01X0012862Y-000681D01*
G01X0012868Y-000684D01*
G01X0012874Y-000687D01*
G01X0012879Y-000691D01*
G01X0012884Y-000695D01*
G01X0012888Y-000700D01*
G01X0012892Y-000706D01*
G01X0012896Y-000711D01*
G01X0012898Y-000717D01*
G01X0012901Y-000723D01*
G01X0012902Y-000730D01*
G01X0012903Y-000736D01*
G01X0012904Y-000743D01*
G01X0012904Y-000877D01*
G01X0012903Y-000884D01*
G01X0012902Y-000890D01*
G01X0012901Y-000897D01*
G01X0012898Y-000903D01*
G01X0012896Y-000909D01*
G01X0012892Y-000915D01*
G01X0012888Y-000920D01*
G01X0012884Y-000925D01*
G01X0012879Y-000929D01*
G01X0012874Y-000933D01*
G01X0012868Y-000936D01*
G01X0012862Y-000939D01*
G01X0012856Y-000941D01*
G01X0012849Y-000943D01*
G01X0012843Y-000944D01*
G01X0012836Y-000944D01*
G01X0012585Y-000944D01*
G01X0012578Y-000944D01*
G01X0012572Y-000943D01*
G01X0012565Y-000941D01*
G01X0012559Y-000939D01*
G01X0012553Y-000936D01*
G01X0012548Y-000933D01*
G01X0012542Y-000929D01*
G01X0012537Y-000925D01*
G01X0012533Y-000920D01*
G01X0012529Y-000915D01*
G01X0012526Y-000909D01*
G01X0012523Y-000903D01*
G01X0012521Y-000897D01*
G01X0012519Y-000890D01*
G01X0012518Y-000884D01*
G01X0012518Y-000877D01*
G01X0012518Y-000743D01*
G01X0012518Y-000736D01*
G01X0012519Y-000730D01*
G01X0012521Y-000723D01*
G01X0012523Y-000717D01*
G01X0012526Y-000711D01*
G01X0012529Y-000706D01*
G01X0012533Y-000700D01*
G01X0012537Y-000695D01*
G01X0012542Y-000691D01*
G01X0012548Y-000687D01*
G01X0012553Y-000684D01*
G01X0012559Y-000681D01*
G01X0012565Y-000679D01*
G01X0012572Y-000677D01*
G01X0012578Y-000676D01*
G01X0012585Y-000676D01*
G01X0012836Y-000676D01*
G01X0012843Y-000676D01*
G01X0012843Y-000676D01*
G37*
G54D15*
G01X0012711Y-000810D03*
G54D10*
G36*
G01X0012843Y-002438D02*
G01X0012849Y-002439D01*
G01X0012856Y-002440D01*
G01X0012862Y-002443D01*
G01X0012868Y-002445D01*
G01X0012874Y-002449D01*
G01X0012879Y-002453D01*
G01X0012884Y-002457D01*
G01X0012888Y-002462D01*
G01X0012892Y-002467D01*
G01X0012896Y-002473D01*
G01X0012898Y-002479D01*
G01X0012901Y-002485D01*
G01X0012902Y-002492D01*
G01X0012903Y-002498D01*
G01X0012904Y-002505D01*
G01X0012904Y-002639D01*
G01X0012903Y-002646D01*
G01X0012902Y-002652D01*
G01X0012901Y-002659D01*
G01X0012898Y-002665D01*
G01X0012896Y-002671D01*
G01X0012892Y-002676D01*
G01X0012888Y-002682D01*
G01X0012884Y-002687D01*
G01X0012879Y-002691D01*
G01X0012874Y-002695D01*
G01X0012868Y-002698D01*
G01X0012862Y-002701D01*
G01X0012856Y-002703D01*
G01X0012849Y-002705D01*
G01X0012843Y-002706D01*
G01X0012836Y-002706D01*
G01X0012585Y-002706D01*
G01X0012578Y-002706D01*
G01X0012572Y-002705D01*
G01X0012565Y-002703D01*
G01X0012559Y-002701D01*
G01X0012553Y-002698D01*
G01X0012548Y-002695D01*
G01X0012542Y-002691D01*
G01X0012537Y-002687D01*
G01X0012533Y-002682D01*
G01X0012529Y-002676D01*
G01X0012526Y-002671D01*
G01X0012523Y-002665D01*
G01X0012521Y-002659D01*
G01X0012519Y-002652D01*
G01X0012518Y-002646D01*
G01X0012518Y-002639D01*
G01X0012518Y-002505D01*
G01X0012518Y-002498D01*
G01X0012519Y-002492D01*
G01X0012521Y-002485D01*
G01X0012523Y-002479D01*
G01X0012526Y-002473D01*
G01X0012529Y-002467D01*
G01X0012533Y-002462D01*
G01X0012537Y-002457D01*
G01X0012542Y-002453D01*
G01X0012548Y-002449D01*
G01X0012553Y-002445D01*
G01X0012559Y-002443D01*
G01X0012565Y-002440D01*
G01X0012572Y-002439D01*
G01X0012578Y-002438D01*
G01X0012585Y-002437D01*
G01X0012836Y-002437D01*
G01X0012843Y-002438D01*
G01X0012843Y-002438D01*
G37*
G54D15*
G01X0012711Y-002572D03*
G54D10*
G36*
G01X0012843Y-003176D02*
G01X0012849Y-003177D01*
G01X0012856Y-003179D01*
G01X0012862Y-003181D01*
G01X0012868Y-003184D01*
G01X0012874Y-003187D01*
G01X0012879Y-003191D01*
G01X0012884Y-003195D01*
G01X0012888Y-003200D01*
G01X0012892Y-003206D01*
G01X0012896Y-003211D01*
G01X0012898Y-003217D01*
G01X0012901Y-003223D01*
G01X0012902Y-003230D01*
G01X0012903Y-003236D01*
G01X0012904Y-003243D01*
G01X0012904Y-003377D01*
G01X0012903Y-003384D01*
G01X0012902Y-003390D01*
G01X0012901Y-003397D01*
G01X0012898Y-003403D01*
G01X0012896Y-003409D01*
G01X0012892Y-003415D01*
G01X0012888Y-003420D01*
G01X0012884Y-003425D01*
G01X0012879Y-003429D01*
G01X0012874Y-003433D01*
G01X0012868Y-003436D01*
G01X0012862Y-003439D01*
G01X0012856Y-003441D01*
G01X0012849Y-003443D01*
G01X0012843Y-003444D01*
G01X0012836Y-003444D01*
G01X0012585Y-003444D01*
G01X0012578Y-003444D01*
G01X0012572Y-003443D01*
G01X0012565Y-003441D01*
G01X0012559Y-003439D01*
G01X0012553Y-003436D01*
G01X0012548Y-003433D01*
G01X0012542Y-003429D01*
G01X0012537Y-003425D01*
G01X0012533Y-003420D01*
G01X0012529Y-003415D01*
G01X0012526Y-003409D01*
G01X0012523Y-003403D01*
G01X0012521Y-003397D01*
G01X0012519Y-003390D01*
G01X0012518Y-003384D01*
G01X0012518Y-003377D01*
G01X0012518Y-003243D01*
G01X0012518Y-003236D01*
G01X0012519Y-003230D01*
G01X0012521Y-003223D01*
G01X0012523Y-003217D01*
G01X0012526Y-003211D01*
G01X0012529Y-003206D01*
G01X0012533Y-003200D01*
G01X0012537Y-003195D01*
G01X0012542Y-003191D01*
G01X0012548Y-003187D01*
G01X0012553Y-003184D01*
G01X0012559Y-003181D01*
G01X0012565Y-003179D01*
G01X0012572Y-003177D01*
G01X0012578Y-003176D01*
G01X0012585Y-003176D01*
G01X0012836Y-003176D01*
G01X0012843Y-003176D01*
G01X0012843Y-003176D01*
G37*
G54D15*
G01X0012711Y-003310D03*
G54D10*
G36*
G01X-002804Y-003953D02*
G01X-002800Y-003954D01*
G01X-002796Y-003955D01*
G01X-002792Y-003956D01*
G01X-002789Y-003958D01*
G01X-002785Y-003960D01*
G01X-002782Y-003962D01*
G01X-002779Y-003965D01*
G01X-002776Y-003968D01*
G01X-002774Y-003971D01*
G01X-002772Y-003974D01*
G01X-002770Y-003978D01*
G01X-002769Y-003982D01*
G01X-002768Y-003985D01*
G01X-002767Y-003989D01*
G01X-002767Y-003993D01*
G01X-002767Y-004088D01*
G01X-002767Y-004092D01*
G01X-002768Y-004096D01*
G01X-002769Y-004100D01*
G01X-002770Y-004104D01*
G01X-002772Y-004108D01*
G01X-002774Y-004111D01*
G01X-002776Y-004114D01*
G01X-002779Y-004117D01*
G01X-002782Y-004120D01*
G01X-002785Y-004122D01*
G01X-002789Y-004124D01*
G01X-002792Y-004126D01*
G01X-002796Y-004127D01*
G01X-002800Y-004128D01*
G01X-002804Y-004129D01*
G01X-002808Y-004129D01*
G01X-002889Y-004129D01*
G01X-002893Y-004129D01*
G01X-002897Y-004128D01*
G01X-002901Y-004127D01*
G01X-002905Y-004126D01*
G01X-002908Y-004124D01*
G01X-002912Y-004122D01*
G01X-002915Y-004120D01*
G01X-002918Y-004117D01*
G01X-002920Y-004114D01*
G01X-002923Y-004111D01*
G01X-002925Y-004108D01*
G01X-002927Y-004104D01*
G01X-002928Y-004100D01*
G01X-002929Y-004096D01*
G01X-002930Y-004092D01*
G01X-002930Y-004088D01*
G01X-002930Y-003993D01*
G01X-002930Y-003989D01*
G01X-002929Y-003985D01*
G01X-002928Y-003982D01*
G01X-002927Y-003978D01*
G01X-002925Y-003974D01*
G01X-002923Y-003971D01*
G01X-002920Y-003968D01*
G01X-002918Y-003965D01*
G01X-002915Y-003962D01*
G01X-002912Y-003960D01*
G01X-002908Y-003958D01*
G01X-002905Y-003956D01*
G01X-002901Y-003955D01*
G01X-002897Y-003954D01*
G01X-002893Y-003953D01*
G01X-002889Y-003953D01*
G01X-002808Y-003953D01*
G01X-002804Y-003953D01*
G01X-002804Y-003953D01*
G37*
G54D11*
G01X-002848Y-004041D03*
G54D10*
G36*
G01X-003186Y-003953D02*
G01X-003182Y-003954D01*
G01X-003178Y-003955D01*
G01X-003174Y-003956D01*
G01X-003171Y-003958D01*
G01X-003167Y-003960D01*
G01X-003164Y-003962D01*
G01X-003161Y-003965D01*
G01X-003158Y-003968D01*
G01X-003156Y-003971D01*
G01X-003154Y-003974D01*
G01X-003152Y-003978D01*
G01X-003151Y-003982D01*
G01X-003150Y-003985D01*
G01X-003149Y-003989D01*
G01X-003149Y-003993D01*
G01X-003149Y-004088D01*
G01X-003149Y-004092D01*
G01X-003150Y-004096D01*
G01X-003151Y-004100D01*
G01X-003152Y-004104D01*
G01X-003154Y-004108D01*
G01X-003156Y-004111D01*
G01X-003158Y-004114D01*
G01X-003161Y-004117D01*
G01X-003164Y-004120D01*
G01X-003167Y-004122D01*
G01X-003171Y-004124D01*
G01X-003174Y-004126D01*
G01X-003178Y-004127D01*
G01X-003182Y-004128D01*
G01X-003186Y-004129D01*
G01X-003190Y-004129D01*
G01X-003271Y-004129D01*
G01X-003275Y-004129D01*
G01X-003279Y-004128D01*
G01X-003283Y-004127D01*
G01X-003287Y-004126D01*
G01X-003290Y-004124D01*
G01X-003294Y-004122D01*
G01X-003297Y-004120D01*
G01X-003300Y-004117D01*
G01X-003302Y-004114D01*
G01X-003305Y-004111D01*
G01X-003307Y-004108D01*
G01X-003309Y-004104D01*
G01X-003310Y-004100D01*
G01X-003311Y-004096D01*
G01X-003311Y-004092D01*
G01X-003312Y-004088D01*
G01X-003312Y-003993D01*
G01X-003311Y-003989D01*
G01X-003311Y-003985D01*
G01X-003310Y-003982D01*
G01X-003309Y-003978D01*
G01X-003307Y-003974D01*
G01X-003305Y-003971D01*
G01X-003302Y-003968D01*
G01X-003300Y-003965D01*
G01X-003297Y-003962D01*
G01X-003294Y-003960D01*
G01X-003290Y-003958D01*
G01X-003287Y-003956D01*
G01X-003283Y-003955D01*
G01X-003279Y-003954D01*
G01X-003275Y-003953D01*
G01X-003271Y-003953D01*
G01X-003190Y-003953D01*
G01X-003186Y-003953D01*
G01X-003186Y-003953D01*
G37*
G54D11*
G01X-003230Y-004041D03*
G54D10*
G36*
G01X-002804Y-003553D02*
G01X-002800Y-003554D01*
G01X-002796Y-003555D01*
G01X-002792Y-003556D01*
G01X-002789Y-003558D01*
G01X-002785Y-003560D01*
G01X-002782Y-003562D01*
G01X-002779Y-003565D01*
G01X-002776Y-003568D01*
G01X-002774Y-003571D01*
G01X-002772Y-003574D01*
G01X-002770Y-003578D01*
G01X-002769Y-003582D01*
G01X-002768Y-003585D01*
G01X-002767Y-003589D01*
G01X-002767Y-003593D01*
G01X-002767Y-003688D01*
G01X-002767Y-003692D01*
G01X-002768Y-003696D01*
G01X-002769Y-003700D01*
G01X-002770Y-003704D01*
G01X-002772Y-003708D01*
G01X-002774Y-003711D01*
G01X-002776Y-003714D01*
G01X-002779Y-003717D01*
G01X-002782Y-003720D01*
G01X-002785Y-003722D01*
G01X-002789Y-003724D01*
G01X-002792Y-003726D01*
G01X-002796Y-003727D01*
G01X-002800Y-003728D01*
G01X-002804Y-003729D01*
G01X-002808Y-003729D01*
G01X-002889Y-003729D01*
G01X-002893Y-003729D01*
G01X-002897Y-003728D01*
G01X-002901Y-003727D01*
G01X-002905Y-003726D01*
G01X-002908Y-003724D01*
G01X-002912Y-003722D01*
G01X-002915Y-003720D01*
G01X-002918Y-003717D01*
G01X-002920Y-003714D01*
G01X-002923Y-003711D01*
G01X-002925Y-003708D01*
G01X-002927Y-003704D01*
G01X-002928Y-003700D01*
G01X-002929Y-003696D01*
G01X-002930Y-003692D01*
G01X-002930Y-003688D01*
G01X-002930Y-003593D01*
G01X-002930Y-003589D01*
G01X-002929Y-003585D01*
G01X-002928Y-003582D01*
G01X-002927Y-003578D01*
G01X-002925Y-003574D01*
G01X-002923Y-003571D01*
G01X-002920Y-003568D01*
G01X-002918Y-003565D01*
G01X-002915Y-003562D01*
G01X-002912Y-003560D01*
G01X-002908Y-003558D01*
G01X-002905Y-003556D01*
G01X-002901Y-003555D01*
G01X-002897Y-003554D01*
G01X-002893Y-003553D01*
G01X-002889Y-003553D01*
G01X-002808Y-003553D01*
G01X-002804Y-003553D01*
G01X-002804Y-003553D01*
G37*
G54D11*
G01X-002848Y-003641D03*
G54D10*
G36*
G01X-003186Y-003553D02*
G01X-003182Y-003554D01*
G01X-003178Y-003555D01*
G01X-003174Y-003556D01*
G01X-003171Y-003558D01*
G01X-003167Y-003560D01*
G01X-003164Y-003562D01*
G01X-003161Y-003565D01*
G01X-003158Y-003568D01*
G01X-003156Y-003571D01*
G01X-003154Y-003574D01*
G01X-003152Y-003578D01*
G01X-003151Y-003582D01*
G01X-003150Y-003585D01*
G01X-003149Y-003589D01*
G01X-003149Y-003593D01*
G01X-003149Y-003688D01*
G01X-003149Y-003692D01*
G01X-003150Y-003696D01*
G01X-003151Y-003700D01*
G01X-003152Y-003704D01*
G01X-003154Y-003708D01*
G01X-003156Y-003711D01*
G01X-003158Y-003714D01*
G01X-003161Y-003717D01*
G01X-003164Y-003720D01*
G01X-003167Y-003722D01*
G01X-003171Y-003724D01*
G01X-003174Y-003726D01*
G01X-003178Y-003727D01*
G01X-003182Y-003728D01*
G01X-003186Y-003729D01*
G01X-003190Y-003729D01*
G01X-003271Y-003729D01*
G01X-003275Y-003729D01*
G01X-003279Y-003728D01*
G01X-003283Y-003727D01*
G01X-003287Y-003726D01*
G01X-003290Y-003724D01*
G01X-003294Y-003722D01*
G01X-003297Y-003720D01*
G01X-003300Y-003717D01*
G01X-003302Y-003714D01*
G01X-003305Y-003711D01*
G01X-003307Y-003708D01*
G01X-003309Y-003704D01*
G01X-003310Y-003700D01*
G01X-003311Y-003696D01*
G01X-003311Y-003692D01*
G01X-003312Y-003688D01*
G01X-003312Y-003593D01*
G01X-003311Y-003589D01*
G01X-003311Y-003585D01*
G01X-003310Y-003582D01*
G01X-003309Y-003578D01*
G01X-003307Y-003574D01*
G01X-003305Y-003571D01*
G01X-003302Y-003568D01*
G01X-003300Y-003565D01*
G01X-003297Y-003562D01*
G01X-003294Y-003560D01*
G01X-003290Y-003558D01*
G01X-003287Y-003556D01*
G01X-003283Y-003555D01*
G01X-003279Y-003554D01*
G01X-003275Y-003553D01*
G01X-003271Y-003553D01*
G01X-003190Y-003553D01*
G01X-003186Y-003553D01*
G01X-003186Y-003553D01*
G37*
G54D11*
G01X-003230Y-003641D03*
G54D10*
G36*
G01X-003186Y-001153D02*
G01X-003182Y-001154D01*
G01X-003178Y-001155D01*
G01X-003174Y-001156D01*
G01X-003171Y-001158D01*
G01X-003167Y-001160D01*
G01X-003164Y-001162D01*
G01X-003161Y-001165D01*
G01X-003158Y-001168D01*
G01X-003156Y-001171D01*
G01X-003154Y-001174D01*
G01X-003152Y-001178D01*
G01X-003151Y-001182D01*
G01X-003150Y-001185D01*
G01X-003149Y-001189D01*
G01X-003149Y-001193D01*
G01X-003149Y-001288D01*
G01X-003149Y-001292D01*
G01X-003150Y-001296D01*
G01X-003151Y-001300D01*
G01X-003152Y-001304D01*
G01X-003154Y-001308D01*
G01X-003156Y-001311D01*
G01X-003158Y-001314D01*
G01X-003161Y-001317D01*
G01X-003164Y-001320D01*
G01X-003167Y-001322D01*
G01X-003171Y-001324D01*
G01X-003174Y-001326D01*
G01X-003178Y-001327D01*
G01X-003182Y-001328D01*
G01X-003186Y-001329D01*
G01X-003190Y-001329D01*
G01X-003271Y-001329D01*
G01X-003275Y-001329D01*
G01X-003279Y-001328D01*
G01X-003283Y-001327D01*
G01X-003287Y-001326D01*
G01X-003290Y-001324D01*
G01X-003294Y-001322D01*
G01X-003297Y-001320D01*
G01X-003300Y-001317D01*
G01X-003302Y-001314D01*
G01X-003305Y-001311D01*
G01X-003307Y-001308D01*
G01X-003309Y-001304D01*
G01X-003310Y-001300D01*
G01X-003311Y-001296D01*
G01X-003311Y-001292D01*
G01X-003312Y-001288D01*
G01X-003312Y-001193D01*
G01X-003311Y-001189D01*
G01X-003311Y-001185D01*
G01X-003310Y-001182D01*
G01X-003309Y-001178D01*
G01X-003307Y-001174D01*
G01X-003305Y-001171D01*
G01X-003302Y-001168D01*
G01X-003300Y-001165D01*
G01X-003297Y-001162D01*
G01X-003294Y-001160D01*
G01X-003290Y-001158D01*
G01X-003287Y-001156D01*
G01X-003283Y-001155D01*
G01X-003279Y-001154D01*
G01X-003275Y-001153D01*
G01X-003271Y-001153D01*
G01X-003190Y-001153D01*
G01X-003186Y-001153D01*
G01X-003186Y-001153D01*
G37*
G54D11*
G01X-003230Y-001241D03*
G54D10*
G36*
G01X-002804Y-001153D02*
G01X-002800Y-001154D01*
G01X-002796Y-001155D01*
G01X-002792Y-001156D01*
G01X-002789Y-001158D01*
G01X-002785Y-001160D01*
G01X-002782Y-001162D01*
G01X-002779Y-001165D01*
G01X-002776Y-001168D01*
G01X-002774Y-001171D01*
G01X-002772Y-001174D01*
G01X-002770Y-001178D01*
G01X-002769Y-001182D01*
G01X-002768Y-001185D01*
G01X-002767Y-001189D01*
G01X-002767Y-001193D01*
G01X-002767Y-001288D01*
G01X-002767Y-001292D01*
G01X-002768Y-001296D01*
G01X-002769Y-001300D01*
G01X-002770Y-001304D01*
G01X-002772Y-001308D01*
G01X-002774Y-001311D01*
G01X-002776Y-001314D01*
G01X-002779Y-001317D01*
G01X-002782Y-001320D01*
G01X-002785Y-001322D01*
G01X-002789Y-001324D01*
G01X-002792Y-001326D01*
G01X-002796Y-001327D01*
G01X-002800Y-001328D01*
G01X-002804Y-001329D01*
G01X-002808Y-001329D01*
G01X-002889Y-001329D01*
G01X-002893Y-001329D01*
G01X-002897Y-001328D01*
G01X-002901Y-001327D01*
G01X-002905Y-001326D01*
G01X-002908Y-001324D01*
G01X-002912Y-001322D01*
G01X-002915Y-001320D01*
G01X-002918Y-001317D01*
G01X-002920Y-001314D01*
G01X-002923Y-001311D01*
G01X-002925Y-001308D01*
G01X-002927Y-001304D01*
G01X-002928Y-001300D01*
G01X-002929Y-001296D01*
G01X-002930Y-001292D01*
G01X-002930Y-001288D01*
G01X-002930Y-001193D01*
G01X-002930Y-001189D01*
G01X-002929Y-001185D01*
G01X-002928Y-001182D01*
G01X-002927Y-001178D01*
G01X-002925Y-001174D01*
G01X-002923Y-001171D01*
G01X-002920Y-001168D01*
G01X-002918Y-001165D01*
G01X-002915Y-001162D01*
G01X-002912Y-001160D01*
G01X-002908Y-001158D01*
G01X-002905Y-001156D01*
G01X-002901Y-001155D01*
G01X-002897Y-001154D01*
G01X-002893Y-001153D01*
G01X-002889Y-001153D01*
G01X-002808Y-001153D01*
G01X-002804Y-001153D01*
G01X-002804Y-001153D01*
G37*
G54D11*
G01X-002848Y-001241D03*
G54D10*
G36*
G01X-003186Y-001553D02*
G01X-003182Y-001554D01*
G01X-003178Y-001555D01*
G01X-003174Y-001556D01*
G01X-003171Y-001558D01*
G01X-003167Y-001560D01*
G01X-003164Y-001562D01*
G01X-003161Y-001565D01*
G01X-003158Y-001568D01*
G01X-003156Y-001571D01*
G01X-003154Y-001574D01*
G01X-003152Y-001578D01*
G01X-003151Y-001582D01*
G01X-003150Y-001585D01*
G01X-003149Y-001589D01*
G01X-003149Y-001593D01*
G01X-003149Y-001688D01*
G01X-003149Y-001692D01*
G01X-003150Y-001696D01*
G01X-003151Y-001700D01*
G01X-003152Y-001704D01*
G01X-003154Y-001708D01*
G01X-003156Y-001711D01*
G01X-003158Y-001714D01*
G01X-003161Y-001717D01*
G01X-003164Y-001720D01*
G01X-003167Y-001722D01*
G01X-003171Y-001724D01*
G01X-003174Y-001726D01*
G01X-003178Y-001727D01*
G01X-003182Y-001728D01*
G01X-003186Y-001729D01*
G01X-003190Y-001729D01*
G01X-003271Y-001729D01*
G01X-003275Y-001729D01*
G01X-003279Y-001728D01*
G01X-003283Y-001727D01*
G01X-003287Y-001726D01*
G01X-003290Y-001724D01*
G01X-003294Y-001722D01*
G01X-003297Y-001720D01*
G01X-003300Y-001717D01*
G01X-003302Y-001714D01*
G01X-003305Y-001711D01*
G01X-003307Y-001708D01*
G01X-003309Y-001704D01*
G01X-003310Y-001700D01*
G01X-003311Y-001696D01*
G01X-003311Y-001692D01*
G01X-003312Y-001688D01*
G01X-003312Y-001593D01*
G01X-003311Y-001589D01*
G01X-003311Y-001585D01*
G01X-003310Y-001582D01*
G01X-003309Y-001578D01*
G01X-003307Y-001574D01*
G01X-003305Y-001571D01*
G01X-003302Y-001568D01*
G01X-003300Y-001565D01*
G01X-003297Y-001562D01*
G01X-003294Y-001560D01*
G01X-003290Y-001558D01*
G01X-003287Y-001556D01*
G01X-003283Y-001555D01*
G01X-003279Y-001554D01*
G01X-003275Y-001553D01*
G01X-003271Y-001553D01*
G01X-003190Y-001553D01*
G01X-003186Y-001553D01*
G01X-003186Y-001553D01*
G37*
G54D11*
G01X-003230Y-001641D03*
G54D10*
G36*
G01X-002804Y-001553D02*
G01X-002800Y-001554D01*
G01X-002796Y-001555D01*
G01X-002792Y-001556D01*
G01X-002789Y-001558D01*
G01X-002785Y-001560D01*
G01X-002782Y-001562D01*
G01X-002779Y-001565D01*
G01X-002776Y-001568D01*
G01X-002774Y-001571D01*
G01X-002772Y-001574D01*
G01X-002770Y-001578D01*
G01X-002769Y-001582D01*
G01X-002768Y-001585D01*
G01X-002767Y-001589D01*
G01X-002767Y-001593D01*
G01X-002767Y-001688D01*
G01X-002767Y-001692D01*
G01X-002768Y-001696D01*
G01X-002769Y-001700D01*
G01X-002770Y-001704D01*
G01X-002772Y-001708D01*
G01X-002774Y-001711D01*
G01X-002776Y-001714D01*
G01X-002779Y-001717D01*
G01X-002782Y-001720D01*
G01X-002785Y-001722D01*
G01X-002789Y-001724D01*
G01X-002792Y-001726D01*
G01X-002796Y-001727D01*
G01X-002800Y-001728D01*
G01X-002804Y-001729D01*
G01X-002808Y-001729D01*
G01X-002889Y-001729D01*
G01X-002893Y-001729D01*
G01X-002897Y-001728D01*
G01X-002901Y-001727D01*
G01X-002905Y-001726D01*
G01X-002908Y-001724D01*
G01X-002912Y-001722D01*
G01X-002915Y-001720D01*
G01X-002918Y-001717D01*
G01X-002920Y-001714D01*
G01X-002923Y-001711D01*
G01X-002925Y-001708D01*
G01X-002927Y-001704D01*
G01X-002928Y-001700D01*
G01X-002929Y-001696D01*
G01X-002930Y-001692D01*
G01X-002930Y-001688D01*
G01X-002930Y-001593D01*
G01X-002930Y-001589D01*
G01X-002929Y-001585D01*
G01X-002928Y-001582D01*
G01X-002927Y-001578D01*
G01X-002925Y-001574D01*
G01X-002923Y-001571D01*
G01X-002920Y-001568D01*
G01X-002918Y-001565D01*
G01X-002915Y-001562D01*
G01X-002912Y-001560D01*
G01X-002908Y-001558D01*
G01X-002905Y-001556D01*
G01X-002901Y-001555D01*
G01X-002897Y-001554D01*
G01X-002893Y-001553D01*
G01X-002889Y-001553D01*
G01X-002808Y-001553D01*
G01X-002804Y-001553D01*
G01X-002804Y-001553D01*
G37*
G54D11*
G01X-002848Y-001641D03*
G54D10*
G36*
G01X-002804Y-003153D02*
G01X-002800Y-003154D01*
G01X-002796Y-003155D01*
G01X-002792Y-003156D01*
G01X-002789Y-003158D01*
G01X-002785Y-003160D01*
G01X-002782Y-003162D01*
G01X-002779Y-003165D01*
G01X-002776Y-003168D01*
G01X-002774Y-003171D01*
G01X-002772Y-003174D01*
G01X-002770Y-003178D01*
G01X-002769Y-003182D01*
G01X-002768Y-003185D01*
G01X-002767Y-003189D01*
G01X-002767Y-003193D01*
G01X-002767Y-003288D01*
G01X-002767Y-003292D01*
G01X-002768Y-003296D01*
G01X-002769Y-003300D01*
G01X-002770Y-003304D01*
G01X-002772Y-003308D01*
G01X-002774Y-003311D01*
G01X-002776Y-003314D01*
G01X-002779Y-003317D01*
G01X-002782Y-003320D01*
G01X-002785Y-003322D01*
G01X-002789Y-003324D01*
G01X-002792Y-003326D01*
G01X-002796Y-003327D01*
G01X-002800Y-003328D01*
G01X-002804Y-003329D01*
G01X-002808Y-003329D01*
G01X-002889Y-003329D01*
G01X-002893Y-003329D01*
G01X-002897Y-003328D01*
G01X-002901Y-003327D01*
G01X-002905Y-003326D01*
G01X-002908Y-003324D01*
G01X-002912Y-003322D01*
G01X-002915Y-003320D01*
G01X-002918Y-003317D01*
G01X-002920Y-003314D01*
G01X-002923Y-003311D01*
G01X-002925Y-003308D01*
G01X-002927Y-003304D01*
G01X-002928Y-003300D01*
G01X-002929Y-003296D01*
G01X-002930Y-003292D01*
G01X-002930Y-003288D01*
G01X-002930Y-003193D01*
G01X-002930Y-003189D01*
G01X-002929Y-003185D01*
G01X-002928Y-003182D01*
G01X-002927Y-003178D01*
G01X-002925Y-003174D01*
G01X-002923Y-003171D01*
G01X-002920Y-003168D01*
G01X-002918Y-003165D01*
G01X-002915Y-003162D01*
G01X-002912Y-003160D01*
G01X-002908Y-003158D01*
G01X-002905Y-003156D01*
G01X-002901Y-003155D01*
G01X-002897Y-003154D01*
G01X-002893Y-003153D01*
G01X-002889Y-003153D01*
G01X-002808Y-003153D01*
G01X-002804Y-003153D01*
G01X-002804Y-003153D01*
G37*
G54D11*
G01X-002848Y-003241D03*
G54D10*
G36*
G01X-003186Y-003153D02*
G01X-003182Y-003154D01*
G01X-003178Y-003155D01*
G01X-003174Y-003156D01*
G01X-003171Y-003158D01*
G01X-003167Y-003160D01*
G01X-003164Y-003162D01*
G01X-003161Y-003165D01*
G01X-003158Y-003168D01*
G01X-003156Y-003171D01*
G01X-003154Y-003174D01*
G01X-003152Y-003178D01*
G01X-003151Y-003182D01*
G01X-003150Y-003185D01*
G01X-003149Y-003189D01*
G01X-003149Y-003193D01*
G01X-003149Y-003288D01*
G01X-003149Y-003292D01*
G01X-003150Y-003296D01*
G01X-003151Y-003300D01*
G01X-003152Y-003304D01*
G01X-003154Y-003308D01*
G01X-003156Y-003311D01*
G01X-003158Y-003314D01*
G01X-003161Y-003317D01*
G01X-003164Y-003320D01*
G01X-003167Y-003322D01*
G01X-003171Y-003324D01*
G01X-003174Y-003326D01*
G01X-003178Y-003327D01*
G01X-003182Y-003328D01*
G01X-003186Y-003329D01*
G01X-003190Y-003329D01*
G01X-003271Y-003329D01*
G01X-003275Y-003329D01*
G01X-003279Y-003328D01*
G01X-003283Y-003327D01*
G01X-003287Y-003326D01*
G01X-003290Y-003324D01*
G01X-003294Y-003322D01*
G01X-003297Y-003320D01*
G01X-003300Y-003317D01*
G01X-003302Y-003314D01*
G01X-003305Y-003311D01*
G01X-003307Y-003308D01*
G01X-003309Y-003304D01*
G01X-003310Y-003300D01*
G01X-003311Y-003296D01*
G01X-003311Y-003292D01*
G01X-003312Y-003288D01*
G01X-003312Y-003193D01*
G01X-003311Y-003189D01*
G01X-003311Y-003185D01*
G01X-003310Y-003182D01*
G01X-003309Y-003178D01*
G01X-003307Y-003174D01*
G01X-003305Y-003171D01*
G01X-003302Y-003168D01*
G01X-003300Y-003165D01*
G01X-003297Y-003162D01*
G01X-003294Y-003160D01*
G01X-003290Y-003158D01*
G01X-003287Y-003156D01*
G01X-003283Y-003155D01*
G01X-003279Y-003154D01*
G01X-003275Y-003153D01*
G01X-003271Y-003153D01*
G01X-003190Y-003153D01*
G01X-003186Y-003153D01*
G01X-003186Y-003153D01*
G37*
G54D11*
G01X-003230Y-003241D03*
G54D10*
G36*
G01X-006138Y-000869D02*
G01X-006134Y-000869D01*
G01X-006130Y-000870D01*
G01X-006126Y-000872D01*
G01X-006123Y-000874D01*
G01X-006119Y-000876D01*
G01X-006116Y-000878D01*
G01X-006113Y-000881D01*
G01X-006110Y-000884D01*
G01X-006108Y-000887D01*
G01X-006106Y-000890D01*
G01X-006104Y-000894D01*
G01X-006103Y-000898D01*
G01X-006102Y-000901D01*
G01X-006101Y-000905D01*
G01X-006101Y-000909D01*
G01X-006101Y-000991D01*
G01X-006101Y-000995D01*
G01X-006102Y-000999D01*
G01X-006103Y-001002D01*
G01X-006104Y-001006D01*
G01X-006106Y-001010D01*
G01X-006108Y-001013D01*
G01X-006110Y-001016D01*
G01X-006113Y-001019D01*
G01X-006116Y-001022D01*
G01X-006119Y-001024D01*
G01X-006123Y-001026D01*
G01X-006126Y-001028D01*
G01X-006130Y-001030D01*
G01X-006134Y-001031D01*
G01X-006138Y-001031D01*
G01X-006142Y-001031D01*
G01X-006237Y-001031D01*
G01X-006241Y-001031D01*
G01X-006245Y-001031D01*
G01X-006249Y-001030D01*
G01X-006252Y-001028D01*
G01X-006256Y-001026D01*
G01X-006259Y-001024D01*
G01X-006263Y-001022D01*
G01X-006266Y-001019D01*
G01X-006268Y-001016D01*
G01X-006271Y-001013D01*
G01X-006273Y-001010D01*
G01X-006274Y-001006D01*
G01X-006276Y-001002D01*
G01X-006277Y-000999D01*
G01X-006277Y-000995D01*
G01X-006278Y-000991D01*
G01X-006278Y-000909D01*
G01X-006277Y-000905D01*
G01X-006277Y-000901D01*
G01X-006276Y-000898D01*
G01X-006274Y-000894D01*
G01X-006273Y-000890D01*
G01X-006271Y-000887D01*
G01X-006268Y-000884D01*
G01X-006266Y-000881D01*
G01X-006263Y-000878D01*
G01X-006259Y-000876D01*
G01X-006256Y-000874D01*
G01X-006252Y-000872D01*
G01X-006249Y-000870D01*
G01X-006245Y-000869D01*
G01X-006241Y-000869D01*
G01X-006237Y-000869D01*
G01X-006142Y-000869D01*
G01X-006138Y-000869D01*
G01X-006138Y-000869D01*
G37*
G54D11*
G01X-006189Y-000950D03*
G54D10*
G36*
G01X-006138Y-001251D02*
G01X-006134Y-001251D01*
G01X-006130Y-001252D01*
G01X-006126Y-001254D01*
G01X-006123Y-001255D01*
G01X-006119Y-001257D01*
G01X-006116Y-001260D01*
G01X-006113Y-001262D01*
G01X-006110Y-001265D01*
G01X-006108Y-001269D01*
G01X-006106Y-001272D01*
G01X-006104Y-001276D01*
G01X-006103Y-001279D01*
G01X-006102Y-001283D01*
G01X-006101Y-001287D01*
G01X-006101Y-001291D01*
G01X-006101Y-001373D01*
G01X-006101Y-001377D01*
G01X-006102Y-001380D01*
G01X-006103Y-001384D01*
G01X-006104Y-001388D01*
G01X-006106Y-001392D01*
G01X-006108Y-001395D01*
G01X-006110Y-001398D01*
G01X-006113Y-001401D01*
G01X-006116Y-001404D01*
G01X-006119Y-001406D01*
G01X-006123Y-001408D01*
G01X-006126Y-001410D01*
G01X-006130Y-001411D01*
G01X-006134Y-001412D01*
G01X-006138Y-001413D01*
G01X-006142Y-001413D01*
G01X-006237Y-001413D01*
G01X-006241Y-001413D01*
G01X-006245Y-001412D01*
G01X-006249Y-001411D01*
G01X-006252Y-001410D01*
G01X-006256Y-001408D01*
G01X-006259Y-001406D01*
G01X-006263Y-001404D01*
G01X-006266Y-001401D01*
G01X-006268Y-001398D01*
G01X-006271Y-001395D01*
G01X-006273Y-001392D01*
G01X-006274Y-001388D01*
G01X-006276Y-001384D01*
G01X-006277Y-001380D01*
G01X-006277Y-001377D01*
G01X-006278Y-001373D01*
G01X-006278Y-001291D01*
G01X-006277Y-001287D01*
G01X-006277Y-001283D01*
G01X-006276Y-001279D01*
G01X-006274Y-001276D01*
G01X-006273Y-001272D01*
G01X-006271Y-001269D01*
G01X-006268Y-001265D01*
G01X-006266Y-001262D01*
G01X-006263Y-001260D01*
G01X-006259Y-001257D01*
G01X-006256Y-001255D01*
G01X-006252Y-001254D01*
G01X-006249Y-001252D01*
G01X-006245Y-001251D01*
G01X-006241Y-001251D01*
G01X-006237Y-001251D01*
G01X-006142Y-001251D01*
G01X-006138Y-001251D01*
G01X-006138Y-001251D01*
G37*
G54D11*
G01X-006189Y-001332D03*
G54D10*
G36*
G01X-007988Y-000169D02*
G01X-007984Y-000169D01*
G01X-007980Y-000170D01*
G01X-007976Y-000172D01*
G01X-007973Y-000174D01*
G01X-007969Y-000176D01*
G01X-007966Y-000178D01*
G01X-007963Y-000181D01*
G01X-007960Y-000184D01*
G01X-007958Y-000187D01*
G01X-007956Y-000190D01*
G01X-007954Y-000194D01*
G01X-007953Y-000198D01*
G01X-007952Y-000201D01*
G01X-007951Y-000205D01*
G01X-007951Y-000209D01*
G01X-007951Y-000291D01*
G01X-007951Y-000295D01*
G01X-007952Y-000299D01*
G01X-007953Y-000302D01*
G01X-007954Y-000306D01*
G01X-007956Y-000310D01*
G01X-007958Y-000313D01*
G01X-007960Y-000316D01*
G01X-007963Y-000319D01*
G01X-007966Y-000322D01*
G01X-007969Y-000324D01*
G01X-007973Y-000326D01*
G01X-007976Y-000328D01*
G01X-007980Y-000330D01*
G01X-007984Y-000331D01*
G01X-007988Y-000331D01*
G01X-007992Y-000331D01*
G01X-008087Y-000331D01*
G01X-008091Y-000331D01*
G01X-008095Y-000331D01*
G01X-008099Y-000330D01*
G01X-008102Y-000328D01*
G01X-008106Y-000326D01*
G01X-008109Y-000324D01*
G01X-008113Y-000322D01*
G01X-008116Y-000319D01*
G01X-008118Y-000316D01*
G01X-008121Y-000313D01*
G01X-008123Y-000310D01*
G01X-008124Y-000306D01*
G01X-008126Y-000302D01*
G01X-008127Y-000299D01*
G01X-008127Y-000295D01*
G01X-008128Y-000291D01*
G01X-008128Y-000209D01*
G01X-008127Y-000205D01*
G01X-008127Y-000201D01*
G01X-008126Y-000198D01*
G01X-008124Y-000194D01*
G01X-008123Y-000190D01*
G01X-008121Y-000187D01*
G01X-008118Y-000184D01*
G01X-008116Y-000181D01*
G01X-008113Y-000178D01*
G01X-008109Y-000176D01*
G01X-008106Y-000174D01*
G01X-008102Y-000172D01*
G01X-008099Y-000170D01*
G01X-008095Y-000169D01*
G01X-008091Y-000169D01*
G01X-008087Y-000169D01*
G01X-007992Y-000169D01*
G01X-007988Y-000169D01*
G01X-007988Y-000169D01*
G37*
G54D11*
G01X-008039Y-000250D03*
G54D10*
G36*
G01X-007988Y-000551D02*
G01X-007984Y-000551D01*
G01X-007980Y-000552D01*
G01X-007976Y-000554D01*
G01X-007973Y-000555D01*
G01X-007969Y-000557D01*
G01X-007966Y-000560D01*
G01X-007963Y-000562D01*
G01X-007960Y-000565D01*
G01X-007958Y-000569D01*
G01X-007956Y-000572D01*
G01X-007954Y-000576D01*
G01X-007953Y-000579D01*
G01X-007952Y-000583D01*
G01X-007951Y-000587D01*
G01X-007951Y-000591D01*
G01X-007951Y-000673D01*
G01X-007951Y-000677D01*
G01X-007952Y-000680D01*
G01X-007953Y-000684D01*
G01X-007954Y-000688D01*
G01X-007956Y-000692D01*
G01X-007958Y-000695D01*
G01X-007960Y-000698D01*
G01X-007963Y-000701D01*
G01X-007966Y-000704D01*
G01X-007969Y-000706D01*
G01X-007973Y-000708D01*
G01X-007976Y-000710D01*
G01X-007980Y-000711D01*
G01X-007984Y-000712D01*
G01X-007988Y-000713D01*
G01X-007992Y-000713D01*
G01X-008087Y-000713D01*
G01X-008091Y-000713D01*
G01X-008095Y-000712D01*
G01X-008099Y-000711D01*
G01X-008102Y-000710D01*
G01X-008106Y-000708D01*
G01X-008109Y-000706D01*
G01X-008113Y-000704D01*
G01X-008116Y-000701D01*
G01X-008118Y-000698D01*
G01X-008121Y-000695D01*
G01X-008123Y-000692D01*
G01X-008124Y-000688D01*
G01X-008126Y-000684D01*
G01X-008127Y-000680D01*
G01X-008127Y-000677D01*
G01X-008128Y-000673D01*
G01X-008128Y-000591D01*
G01X-008127Y-000587D01*
G01X-008127Y-000583D01*
G01X-008126Y-000579D01*
G01X-008124Y-000576D01*
G01X-008123Y-000572D01*
G01X-008121Y-000569D01*
G01X-008118Y-000565D01*
G01X-008116Y-000562D01*
G01X-008113Y-000560D01*
G01X-008109Y-000557D01*
G01X-008106Y-000555D01*
G01X-008102Y-000554D01*
G01X-008099Y-000552D01*
G01X-008095Y-000551D01*
G01X-008091Y-000551D01*
G01X-008087Y-000551D01*
G01X-007992Y-000551D01*
G01X-007988Y-000551D01*
G01X-007988Y-000551D01*
G37*
G54D11*
G01X-008039Y-000632D03*
G54D10*
G36*
G01X-008495Y0000147D02*
G01X-008491Y0000146D01*
G01X-008487Y0000145D01*
G01X-008483Y0000144D01*
G01X-008480Y0000142D01*
G01X-008476Y0000140D01*
G01X-008473Y0000138D01*
G01X-008470Y0000135D01*
G01X-008467Y0000132D01*
G01X-008465Y0000129D01*
G01X-008463Y0000126D01*
G01X-008461Y0000122D01*
G01X-008460Y0000118D01*
G01X-008459Y0000115D01*
G01X-008458Y0000111D01*
G01X-008458Y0000107D01*
G01X-008458Y0000012D01*
G01X-008458Y0000008D01*
G01X-008459Y0000004D01*
G01X-008460Y0000000D01*
G01X-008461Y-000004D01*
G01X-008463Y-000008D01*
G01X-008465Y-000011D01*
G01X-008467Y-000014D01*
G01X-008470Y-000017D01*
G01X-008473Y-000020D01*
G01X-008476Y-000022D01*
G01X-008480Y-000024D01*
G01X-008483Y-000026D01*
G01X-008487Y-000027D01*
G01X-008491Y-000028D01*
G01X-008495Y-000029D01*
G01X-008499Y-000029D01*
G01X-008580Y-000029D01*
G01X-008584Y-000029D01*
G01X-008588Y-000028D01*
G01X-008592Y-000027D01*
G01X-008596Y-000026D01*
G01X-008599Y-000024D01*
G01X-008603Y-000022D01*
G01X-008606Y-000020D01*
G01X-008609Y-000017D01*
G01X-008611Y-000014D01*
G01X-008614Y-000011D01*
G01X-008616Y-000008D01*
G01X-008618Y-000004D01*
G01X-008619Y0000000D01*
G01X-008620Y0000004D01*
G01X-008620Y0000008D01*
G01X-008621Y0000012D01*
G01X-008621Y0000107D01*
G01X-008620Y0000111D01*
G01X-008620Y0000115D01*
G01X-008619Y0000118D01*
G01X-008618Y0000122D01*
G01X-008616Y0000126D01*
G01X-008614Y0000129D01*
G01X-008611Y0000132D01*
G01X-008609Y0000135D01*
G01X-008606Y0000138D01*
G01X-008603Y0000140D01*
G01X-008599Y0000142D01*
G01X-008596Y0000144D01*
G01X-008592Y0000145D01*
G01X-008588Y0000146D01*
G01X-008584Y0000147D01*
G01X-008580Y0000147D01*
G01X-008499Y0000147D01*
G01X-008495Y0000147D01*
G01X-008495Y0000147D01*
G37*
G54D11*
G01X-008539Y0000059D03*
G54D10*
G36*
G01X-008113Y0000147D02*
G01X-008109Y0000146D01*
G01X-008105Y0000145D01*
G01X-008101Y0000144D01*
G01X-008098Y0000142D01*
G01X-008094Y0000140D01*
G01X-008091Y0000138D01*
G01X-008088Y0000135D01*
G01X-008085Y0000132D01*
G01X-008083Y0000129D01*
G01X-008081Y0000126D01*
G01X-008079Y0000122D01*
G01X-008078Y0000118D01*
G01X-008077Y0000115D01*
G01X-008076Y0000111D01*
G01X-008076Y0000107D01*
G01X-008076Y0000012D01*
G01X-008076Y0000008D01*
G01X-008077Y0000004D01*
G01X-008078Y0000000D01*
G01X-008079Y-000004D01*
G01X-008081Y-000008D01*
G01X-008083Y-000011D01*
G01X-008085Y-000014D01*
G01X-008088Y-000017D01*
G01X-008091Y-000020D01*
G01X-008094Y-000022D01*
G01X-008098Y-000024D01*
G01X-008101Y-000026D01*
G01X-008105Y-000027D01*
G01X-008109Y-000028D01*
G01X-008113Y-000029D01*
G01X-008117Y-000029D01*
G01X-008198Y-000029D01*
G01X-008202Y-000029D01*
G01X-008206Y-000028D01*
G01X-008210Y-000027D01*
G01X-008214Y-000026D01*
G01X-008217Y-000024D01*
G01X-008221Y-000022D01*
G01X-008224Y-000020D01*
G01X-008227Y-000017D01*
G01X-008230Y-000014D01*
G01X-008232Y-000011D01*
G01X-008234Y-000008D01*
G01X-008236Y-000004D01*
G01X-008237Y0000000D01*
G01X-008238Y0000004D01*
G01X-008239Y0000008D01*
G01X-008239Y0000012D01*
G01X-008239Y0000107D01*
G01X-008239Y0000111D01*
G01X-008238Y0000115D01*
G01X-008237Y0000118D01*
G01X-008236Y0000122D01*
G01X-008234Y0000126D01*
G01X-008232Y0000129D01*
G01X-008230Y0000132D01*
G01X-008227Y0000135D01*
G01X-008224Y0000138D01*
G01X-008221Y0000140D01*
G01X-008217Y0000142D01*
G01X-008214Y0000144D01*
G01X-008210Y0000145D01*
G01X-008206Y0000146D01*
G01X-008202Y0000147D01*
G01X-008198Y0000147D01*
G01X-008117Y0000147D01*
G01X-008113Y0000147D01*
G01X-008113Y0000147D01*
G37*
G54D11*
G01X-008157Y0000059D03*
G54D10*
G36*
G01X-008113Y0000647D02*
G01X-008109Y0000646D01*
G01X-008105Y0000645D01*
G01X-008101Y0000644D01*
G01X-008098Y0000642D01*
G01X-008094Y0000640D01*
G01X-008091Y0000638D01*
G01X-008088Y0000635D01*
G01X-008085Y0000632D01*
G01X-008083Y0000629D01*
G01X-008081Y0000626D01*
G01X-008079Y0000622D01*
G01X-008078Y0000618D01*
G01X-008077Y0000615D01*
G01X-008076Y0000611D01*
G01X-008076Y0000607D01*
G01X-008076Y0000512D01*
G01X-008076Y0000508D01*
G01X-008077Y0000504D01*
G01X-008078Y0000500D01*
G01X-008079Y0000496D01*
G01X-008081Y0000492D01*
G01X-008083Y0000489D01*
G01X-008085Y0000486D01*
G01X-008088Y0000483D01*
G01X-008091Y0000480D01*
G01X-008094Y0000478D01*
G01X-008098Y0000476D01*
G01X-008101Y0000474D01*
G01X-008105Y0000473D01*
G01X-008109Y0000472D01*
G01X-008113Y0000471D01*
G01X-008117Y0000471D01*
G01X-008198Y0000471D01*
G01X-008202Y0000471D01*
G01X-008206Y0000472D01*
G01X-008210Y0000473D01*
G01X-008214Y0000474D01*
G01X-008217Y0000476D01*
G01X-008221Y0000478D01*
G01X-008224Y0000480D01*
G01X-008227Y0000483D01*
G01X-008230Y0000486D01*
G01X-008232Y0000489D01*
G01X-008234Y0000492D01*
G01X-008236Y0000496D01*
G01X-008237Y0000500D01*
G01X-008238Y0000504D01*
G01X-008239Y0000508D01*
G01X-008239Y0000512D01*
G01X-008239Y0000607D01*
G01X-008239Y0000611D01*
G01X-008238Y0000615D01*
G01X-008237Y0000618D01*
G01X-008236Y0000622D01*
G01X-008234Y0000626D01*
G01X-008232Y0000629D01*
G01X-008230Y0000632D01*
G01X-008227Y0000635D01*
G01X-008224Y0000638D01*
G01X-008221Y0000640D01*
G01X-008217Y0000642D01*
G01X-008214Y0000644D01*
G01X-008210Y0000645D01*
G01X-008206Y0000646D01*
G01X-008202Y0000647D01*
G01X-008198Y0000647D01*
G01X-008117Y0000647D01*
G01X-008113Y0000647D01*
G01X-008113Y0000647D01*
G37*
G54D11*
G01X-008157Y0000559D03*
G54D10*
G36*
G01X-008495Y0000647D02*
G01X-008491Y0000646D01*
G01X-008487Y0000645D01*
G01X-008483Y0000644D01*
G01X-008480Y0000642D01*
G01X-008476Y0000640D01*
G01X-008473Y0000638D01*
G01X-008470Y0000635D01*
G01X-008467Y0000632D01*
G01X-008465Y0000629D01*
G01X-008463Y0000626D01*
G01X-008461Y0000622D01*
G01X-008460Y0000618D01*
G01X-008459Y0000615D01*
G01X-008458Y0000611D01*
G01X-008458Y0000607D01*
G01X-008458Y0000512D01*
G01X-008458Y0000508D01*
G01X-008459Y0000504D01*
G01X-008460Y0000500D01*
G01X-008461Y0000496D01*
G01X-008463Y0000492D01*
G01X-008465Y0000489D01*
G01X-008467Y0000486D01*
G01X-008470Y0000483D01*
G01X-008473Y0000480D01*
G01X-008476Y0000478D01*
G01X-008480Y0000476D01*
G01X-008483Y0000474D01*
G01X-008487Y0000473D01*
G01X-008491Y0000472D01*
G01X-008495Y0000471D01*
G01X-008499Y0000471D01*
G01X-008580Y0000471D01*
G01X-008584Y0000471D01*
G01X-008588Y0000472D01*
G01X-008592Y0000473D01*
G01X-008596Y0000474D01*
G01X-008599Y0000476D01*
G01X-008603Y0000478D01*
G01X-008606Y0000480D01*
G01X-008609Y0000483D01*
G01X-008611Y0000486D01*
G01X-008614Y0000489D01*
G01X-008616Y0000492D01*
G01X-008618Y0000496D01*
G01X-008619Y0000500D01*
G01X-008620Y0000504D01*
G01X-008620Y0000508D01*
G01X-008621Y0000512D01*
G01X-008621Y0000607D01*
G01X-008620Y0000611D01*
G01X-008620Y0000615D01*
G01X-008619Y0000618D01*
G01X-008618Y0000622D01*
G01X-008616Y0000626D01*
G01X-008614Y0000629D01*
G01X-008611Y0000632D01*
G01X-008609Y0000635D01*
G01X-008606Y0000638D01*
G01X-008603Y0000640D01*
G01X-008599Y0000642D01*
G01X-008596Y0000644D01*
G01X-008592Y0000645D01*
G01X-008588Y0000646D01*
G01X-008584Y0000647D01*
G01X-008580Y0000647D01*
G01X-008499Y0000647D01*
G01X-008495Y0000647D01*
G01X-008495Y0000647D01*
G37*
G54D11*
G01X-008539Y0000559D03*
G54D10*
G36*
G01X-007488Y-000551D02*
G01X-007484Y-000551D01*
G01X-007480Y-000552D01*
G01X-007476Y-000554D01*
G01X-007473Y-000555D01*
G01X-007469Y-000557D01*
G01X-007466Y-000560D01*
G01X-007463Y-000562D01*
G01X-007460Y-000565D01*
G01X-007458Y-000569D01*
G01X-007456Y-000572D01*
G01X-007454Y-000576D01*
G01X-007453Y-000579D01*
G01X-007452Y-000583D01*
G01X-007451Y-000587D01*
G01X-007451Y-000591D01*
G01X-007451Y-000673D01*
G01X-007451Y-000677D01*
G01X-007452Y-000680D01*
G01X-007453Y-000684D01*
G01X-007454Y-000688D01*
G01X-007456Y-000692D01*
G01X-007458Y-000695D01*
G01X-007460Y-000698D01*
G01X-007463Y-000701D01*
G01X-007466Y-000704D01*
G01X-007469Y-000706D01*
G01X-007473Y-000708D01*
G01X-007476Y-000710D01*
G01X-007480Y-000711D01*
G01X-007484Y-000712D01*
G01X-007488Y-000713D01*
G01X-007492Y-000713D01*
G01X-007587Y-000713D01*
G01X-007591Y-000713D01*
G01X-007595Y-000712D01*
G01X-007599Y-000711D01*
G01X-007602Y-000710D01*
G01X-007606Y-000708D01*
G01X-007609Y-000706D01*
G01X-007613Y-000704D01*
G01X-007616Y-000701D01*
G01X-007618Y-000698D01*
G01X-007621Y-000695D01*
G01X-007623Y-000692D01*
G01X-007624Y-000688D01*
G01X-007626Y-000684D01*
G01X-007627Y-000680D01*
G01X-007627Y-000677D01*
G01X-007628Y-000673D01*
G01X-007628Y-000591D01*
G01X-007627Y-000587D01*
G01X-007627Y-000583D01*
G01X-007626Y-000579D01*
G01X-007624Y-000576D01*
G01X-007623Y-000572D01*
G01X-007621Y-000569D01*
G01X-007618Y-000565D01*
G01X-007616Y-000562D01*
G01X-007613Y-000560D01*
G01X-007609Y-000557D01*
G01X-007606Y-000555D01*
G01X-007602Y-000554D01*
G01X-007599Y-000552D01*
G01X-007595Y-000551D01*
G01X-007591Y-000551D01*
G01X-007587Y-000551D01*
G01X-007492Y-000551D01*
G01X-007488Y-000551D01*
G01X-007488Y-000551D01*
G37*
G54D11*
G01X-007539Y-000632D03*
G54D10*
G36*
G01X-007488Y-000169D02*
G01X-007484Y-000169D01*
G01X-007480Y-000170D01*
G01X-007476Y-000172D01*
G01X-007473Y-000174D01*
G01X-007469Y-000176D01*
G01X-007466Y-000178D01*
G01X-007463Y-000181D01*
G01X-007460Y-000184D01*
G01X-007458Y-000187D01*
G01X-007456Y-000190D01*
G01X-007454Y-000194D01*
G01X-007453Y-000198D01*
G01X-007452Y-000201D01*
G01X-007451Y-000205D01*
G01X-007451Y-000209D01*
G01X-007451Y-000291D01*
G01X-007451Y-000295D01*
G01X-007452Y-000299D01*
G01X-007453Y-000302D01*
G01X-007454Y-000306D01*
G01X-007456Y-000310D01*
G01X-007458Y-000313D01*
G01X-007460Y-000316D01*
G01X-007463Y-000319D01*
G01X-007466Y-000322D01*
G01X-007469Y-000324D01*
G01X-007473Y-000326D01*
G01X-007476Y-000328D01*
G01X-007480Y-000330D01*
G01X-007484Y-000331D01*
G01X-007488Y-000331D01*
G01X-007492Y-000331D01*
G01X-007587Y-000331D01*
G01X-007591Y-000331D01*
G01X-007595Y-000331D01*
G01X-007599Y-000330D01*
G01X-007602Y-000328D01*
G01X-007606Y-000326D01*
G01X-007609Y-000324D01*
G01X-007613Y-000322D01*
G01X-007616Y-000319D01*
G01X-007618Y-000316D01*
G01X-007621Y-000313D01*
G01X-007623Y-000310D01*
G01X-007624Y-000306D01*
G01X-007626Y-000302D01*
G01X-007627Y-000299D01*
G01X-007627Y-000295D01*
G01X-007628Y-000291D01*
G01X-007628Y-000209D01*
G01X-007627Y-000205D01*
G01X-007627Y-000201D01*
G01X-007626Y-000198D01*
G01X-007624Y-000194D01*
G01X-007623Y-000190D01*
G01X-007621Y-000187D01*
G01X-007618Y-000184D01*
G01X-007616Y-000181D01*
G01X-007613Y-000178D01*
G01X-007609Y-000176D01*
G01X-007606Y-000174D01*
G01X-007602Y-000172D01*
G01X-007599Y-000170D01*
G01X-007595Y-000169D01*
G01X-007591Y-000169D01*
G01X-007587Y-000169D01*
G01X-007492Y-000169D01*
G01X-007488Y-000169D01*
G01X-007488Y-000169D01*
G37*
G54D11*
G01X-007539Y-000250D03*
G54D16*
G01X-015268Y-003383D03*
G01X-015111Y-003383D03*
G01X-015268Y-003541D03*
G01X-015111Y-003541D03*
G01X-015268Y-003698D03*
G01X-015111Y-003698D03*
G01X-015111Y-002498D03*
G01X-015268Y-002498D03*
G01X-015111Y-002341D03*
G01X-015268Y-002341D03*
G01X-015111Y-002183D03*
G01X-015268Y-002183D03*
G54D17*
G01X0004825Y-001122D03*
G01X0005022Y-001122D03*
G01X0005219Y-001122D03*
G01X0005415Y-001122D03*
G01X0005612Y-001122D03*
G01X0005809Y-001122D03*
G01X0006006Y-001122D03*
G01X0006203Y-001122D03*
G01X0006400Y-001122D03*
G01X0006596Y-001122D03*
G54D18*
G01X0006892Y-000827D03*
G01X0006892Y-000630D03*
G01X0006892Y-000433D03*
G01X0006892Y-000236D03*
G01X0006892Y-000039D03*
G01X0006892Y0000157D03*
G01X0006892Y0000354D03*
G01X0006892Y0000551D03*
G01X0006892Y0000748D03*
G01X0006892Y0000945D03*
G54D17*
G01X0006596Y0001240D03*
G01X0006400Y0001240D03*
G01X0006203Y0001240D03*
G01X0006006Y0001240D03*
G01X0005809Y0001240D03*
G01X0005612Y0001240D03*
G01X0005415Y0001240D03*
G01X0005219Y0001240D03*
G01X0005022Y0001240D03*
G01X0004825Y0001240D03*
G54D18*
G01X0004530Y0000945D03*
G01X0004530Y0000748D03*
G01X0004530Y0000551D03*
G01X0004530Y0000354D03*
G01X0004530Y0000157D03*
G01X0004530Y-000039D03*
G01X0004530Y-000236D03*
G01X0004530Y-000433D03*
G01X0004530Y-000630D03*
G01X0004530Y-000827D03*
G54D19*
G01X0006390Y-000620D03*
G01X0006390Y-000167D03*
G01X0006390Y0000285D03*
G01X0006390Y0000738D03*
G01X0005937Y0000738D03*
G01X0005937Y0000285D03*
G01X0005937Y-000167D03*
G01X0005937Y-000620D03*
G01X0005484Y0000738D03*
G01X0005484Y0000285D03*
G01X0005484Y-000167D03*
G01X0005484Y-000620D03*
G01X0005031Y0000738D03*
G01X0005031Y0000285D03*
G01X0005031Y-000167D03*
G01X0005031Y-000620D03*
G54D20*
G01X-014006Y-001077D03*
G01X-014006Y-000821D03*
G01X-014006Y-000561D03*
G01X-014006Y-000305D03*
G01X-014872Y-000305D03*
G01X-014872Y-000561D03*
G01X-014872Y-000821D03*
G01X-014872Y-001077D03*
G54D21*
G01X-001239Y-004844D03*
G01X-001436Y-004844D03*
G01X-001436Y-005041D03*
G01X-001436Y-005238D03*
G01X-001239Y-005238D03*
G01X-001043Y-005238D03*
G01X-001043Y-005041D03*
G01X-001043Y-004844D03*
G54D22*
G01X-006868Y0002142D03*
G01X-006868Y0001945D03*
G01X-006868Y0001748D03*
G01X-006868Y0001551D03*
G01X-006868Y0001354D03*
G01X-006868Y0001157D03*
G01X-006868Y0000961D03*
G01X-006868Y0000764D03*
G01X-006868Y0000567D03*
G01X-006868Y0000370D03*
G01X-006868Y0000173D03*
G01X-006868Y-000024D03*
G54D23*
G01X-006622Y-000270D03*
G01X-006425Y-000270D03*
G01X-006228Y-000270D03*
G01X-006031Y-000270D03*
G01X-005835Y-000270D03*
G01X-005638Y-000270D03*
G01X-005441Y-000270D03*
G01X-005244Y-000270D03*
G01X-005047Y-000270D03*
G01X-004850Y-000270D03*
G01X-004654Y-000270D03*
G01X-004457Y-000270D03*
G54D22*
G01X-004211Y-000024D03*
G01X-004211Y0000173D03*
G01X-004211Y0000370D03*
G01X-004211Y0000567D03*
G01X-004211Y0000764D03*
G01X-004211Y0000961D03*
G01X-004211Y0001157D03*
G01X-004211Y0001354D03*
G01X-004211Y0001551D03*
G01X-004211Y0001748D03*
G01X-004211Y0001945D03*
G01X-004211Y0002142D03*
G54D23*
G01X-004457Y0002388D03*
G01X-004654Y0002388D03*
G01X-004850Y0002388D03*
G01X-005047Y0002388D03*
G01X-005244Y0002388D03*
G01X-005441Y0002388D03*
G01X-005638Y0002388D03*
G01X-005835Y0002388D03*
G01X-006031Y0002388D03*
G01X-006228Y0002388D03*
G01X-006425Y0002388D03*
G01X-006622Y0002388D03*
G54D24*
G01X-006366Y0001886D03*
G01X-006366Y0001335D03*
G01X-006366Y0000783D03*
G01X-006366Y0000232D03*
G01X-005815Y0001886D03*
G01X-005815Y0001335D03*
G01X-005815Y0000783D03*
G01X-005815Y0000232D03*
G01X-005264Y0001886D03*
G01X-005264Y0001335D03*
G01X-005264Y0000783D03*
G01X-005264Y0000232D03*
G01X-004713Y0001886D03*
G01X-004713Y0001335D03*
G01X-004713Y0000783D03*
G01X-004713Y0000232D03*
G54D10*
G36*
G01X-016336Y0005897D02*
G01X-016332Y0005896D01*
G01X-016328Y0005895D01*
G01X-016324Y0005894D01*
G01X-016321Y0005892D01*
G01X-016317Y0005890D01*
G01X-016314Y0005888D01*
G01X-016311Y0005885D01*
G01X-016308Y0005882D01*
G01X-016306Y0005879D01*
G01X-016304Y0005876D01*
G01X-016302Y0005872D01*
G01X-016301Y0005868D01*
G01X-016300Y0005865D01*
G01X-016299Y0005861D01*
G01X-016299Y0005857D01*
G01X-016299Y0005762D01*
G01X-016299Y0005758D01*
G01X-016300Y0005754D01*
G01X-016301Y0005750D01*
G01X-016302Y0005746D01*
G01X-016304Y0005742D01*
G01X-016306Y0005739D01*
G01X-016308Y0005736D01*
G01X-016311Y0005733D01*
G01X-016314Y0005730D01*
G01X-016317Y0005728D01*
G01X-016321Y0005726D01*
G01X-016324Y0005724D01*
G01X-016328Y0005723D01*
G01X-016332Y0005722D01*
G01X-016336Y0005721D01*
G01X-016340Y0005721D01*
G01X-016421Y0005721D01*
G01X-016425Y0005721D01*
G01X-016429Y0005722D01*
G01X-016433Y0005723D01*
G01X-016437Y0005724D01*
G01X-016440Y0005726D01*
G01X-016444Y0005728D01*
G01X-016447Y0005730D01*
G01X-016450Y0005733D01*
G01X-016452Y0005736D01*
G01X-016455Y0005739D01*
G01X-016457Y0005742D01*
G01X-016459Y0005746D01*
G01X-016460Y0005750D01*
G01X-016461Y0005754D01*
G01X-016461Y0005758D01*
G01X-016462Y0005762D01*
G01X-016462Y0005857D01*
G01X-016461Y0005861D01*
G01X-016461Y0005865D01*
G01X-016460Y0005868D01*
G01X-016459Y0005872D01*
G01X-016457Y0005876D01*
G01X-016455Y0005879D01*
G01X-016452Y0005882D01*
G01X-016450Y0005885D01*
G01X-016447Y0005888D01*
G01X-016444Y0005890D01*
G01X-016440Y0005892D01*
G01X-016437Y0005894D01*
G01X-016433Y0005895D01*
G01X-016429Y0005896D01*
G01X-016425Y0005897D01*
G01X-016421Y0005897D01*
G01X-016340Y0005897D01*
G01X-016336Y0005897D01*
G01X-016336Y0005897D01*
G37*
G54D11*
G01X-016380Y0005809D03*
G54D10*
G36*
G01X-015954Y0005897D02*
G01X-015950Y0005896D01*
G01X-015946Y0005895D01*
G01X-015942Y0005894D01*
G01X-015939Y0005892D01*
G01X-015935Y0005890D01*
G01X-015932Y0005888D01*
G01X-015929Y0005885D01*
G01X-015926Y0005882D01*
G01X-015924Y0005879D01*
G01X-015922Y0005876D01*
G01X-015920Y0005872D01*
G01X-015919Y0005868D01*
G01X-015918Y0005865D01*
G01X-015917Y0005861D01*
G01X-015917Y0005857D01*
G01X-015917Y0005762D01*
G01X-015917Y0005758D01*
G01X-015918Y0005754D01*
G01X-015919Y0005750D01*
G01X-015920Y0005746D01*
G01X-015922Y0005742D01*
G01X-015924Y0005739D01*
G01X-015926Y0005736D01*
G01X-015929Y0005733D01*
G01X-015932Y0005730D01*
G01X-015935Y0005728D01*
G01X-015939Y0005726D01*
G01X-015942Y0005724D01*
G01X-015946Y0005723D01*
G01X-015950Y0005722D01*
G01X-015954Y0005721D01*
G01X-015958Y0005721D01*
G01X-016039Y0005721D01*
G01X-016043Y0005721D01*
G01X-016047Y0005722D01*
G01X-016051Y0005723D01*
G01X-016055Y0005724D01*
G01X-016058Y0005726D01*
G01X-016062Y0005728D01*
G01X-016065Y0005730D01*
G01X-016068Y0005733D01*
G01X-016070Y0005736D01*
G01X-016073Y0005739D01*
G01X-016075Y0005742D01*
G01X-016077Y0005746D01*
G01X-016078Y0005750D01*
G01X-016079Y0005754D01*
G01X-016080Y0005758D01*
G01X-016080Y0005762D01*
G01X-016080Y0005857D01*
G01X-016080Y0005861D01*
G01X-016079Y0005865D01*
G01X-016078Y0005868D01*
G01X-016077Y0005872D01*
G01X-016075Y0005876D01*
G01X-016073Y0005879D01*
G01X-016070Y0005882D01*
G01X-016068Y0005885D01*
G01X-016065Y0005888D01*
G01X-016062Y0005890D01*
G01X-016058Y0005892D01*
G01X-016055Y0005894D01*
G01X-016051Y0005895D01*
G01X-016047Y0005896D01*
G01X-016043Y0005897D01*
G01X-016039Y0005897D01*
G01X-015958Y0005897D01*
G01X-015954Y0005897D01*
G01X-015954Y0005897D01*
G37*
G54D11*
G01X-015998Y0005809D03*
G54D10*
G36*
G01X-015336Y0005897D02*
G01X-015332Y0005896D01*
G01X-015328Y0005895D01*
G01X-015324Y0005894D01*
G01X-015321Y0005892D01*
G01X-015317Y0005890D01*
G01X-015314Y0005888D01*
G01X-015311Y0005885D01*
G01X-015308Y0005882D01*
G01X-015306Y0005879D01*
G01X-015304Y0005876D01*
G01X-015302Y0005872D01*
G01X-015301Y0005868D01*
G01X-015300Y0005865D01*
G01X-015299Y0005861D01*
G01X-015299Y0005857D01*
G01X-015299Y0005762D01*
G01X-015299Y0005758D01*
G01X-015300Y0005754D01*
G01X-015301Y0005750D01*
G01X-015302Y0005746D01*
G01X-015304Y0005742D01*
G01X-015306Y0005739D01*
G01X-015308Y0005736D01*
G01X-015311Y0005733D01*
G01X-015314Y0005730D01*
G01X-015317Y0005728D01*
G01X-015321Y0005726D01*
G01X-015324Y0005724D01*
G01X-015328Y0005723D01*
G01X-015332Y0005722D01*
G01X-015336Y0005721D01*
G01X-015340Y0005721D01*
G01X-015421Y0005721D01*
G01X-015425Y0005721D01*
G01X-015429Y0005722D01*
G01X-015433Y0005723D01*
G01X-015437Y0005724D01*
G01X-015440Y0005726D01*
G01X-015444Y0005728D01*
G01X-015447Y0005730D01*
G01X-015450Y0005733D01*
G01X-015452Y0005736D01*
G01X-015455Y0005739D01*
G01X-015457Y0005742D01*
G01X-015459Y0005746D01*
G01X-015460Y0005750D01*
G01X-015461Y0005754D01*
G01X-015461Y0005758D01*
G01X-015462Y0005762D01*
G01X-015462Y0005857D01*
G01X-015461Y0005861D01*
G01X-015461Y0005865D01*
G01X-015460Y0005868D01*
G01X-015459Y0005872D01*
G01X-015457Y0005876D01*
G01X-015455Y0005879D01*
G01X-015452Y0005882D01*
G01X-015450Y0005885D01*
G01X-015447Y0005888D01*
G01X-015444Y0005890D01*
G01X-015440Y0005892D01*
G01X-015437Y0005894D01*
G01X-015433Y0005895D01*
G01X-015429Y0005896D01*
G01X-015425Y0005897D01*
G01X-015421Y0005897D01*
G01X-015340Y0005897D01*
G01X-015336Y0005897D01*
G01X-015336Y0005897D01*
G37*
G54D11*
G01X-015380Y0005809D03*
G54D10*
G36*
G01X-014954Y0005897D02*
G01X-014950Y0005896D01*
G01X-014946Y0005895D01*
G01X-014942Y0005894D01*
G01X-014939Y0005892D01*
G01X-014935Y0005890D01*
G01X-014932Y0005888D01*
G01X-014929Y0005885D01*
G01X-014926Y0005882D01*
G01X-014924Y0005879D01*
G01X-014922Y0005876D01*
G01X-014920Y0005872D01*
G01X-014919Y0005868D01*
G01X-014918Y0005865D01*
G01X-014917Y0005861D01*
G01X-014917Y0005857D01*
G01X-014917Y0005762D01*
G01X-014917Y0005758D01*
G01X-014918Y0005754D01*
G01X-014919Y0005750D01*
G01X-014920Y0005746D01*
G01X-014922Y0005742D01*
G01X-014924Y0005739D01*
G01X-014926Y0005736D01*
G01X-014929Y0005733D01*
G01X-014932Y0005730D01*
G01X-014935Y0005728D01*
G01X-014939Y0005726D01*
G01X-014942Y0005724D01*
G01X-014946Y0005723D01*
G01X-014950Y0005722D01*
G01X-014954Y0005721D01*
G01X-014958Y0005721D01*
G01X-015039Y0005721D01*
G01X-015043Y0005721D01*
G01X-015047Y0005722D01*
G01X-015051Y0005723D01*
G01X-015055Y0005724D01*
G01X-015058Y0005726D01*
G01X-015062Y0005728D01*
G01X-015065Y0005730D01*
G01X-015068Y0005733D01*
G01X-015070Y0005736D01*
G01X-015073Y0005739D01*
G01X-015075Y0005742D01*
G01X-015077Y0005746D01*
G01X-015078Y0005750D01*
G01X-015079Y0005754D01*
G01X-015080Y0005758D01*
G01X-015080Y0005762D01*
G01X-015080Y0005857D01*
G01X-015080Y0005861D01*
G01X-015079Y0005865D01*
G01X-015078Y0005868D01*
G01X-015077Y0005872D01*
G01X-015075Y0005876D01*
G01X-015073Y0005879D01*
G01X-015070Y0005882D01*
G01X-015068Y0005885D01*
G01X-015065Y0005888D01*
G01X-015062Y0005890D01*
G01X-015058Y0005892D01*
G01X-015055Y0005894D01*
G01X-015051Y0005895D01*
G01X-015047Y0005896D01*
G01X-015043Y0005897D01*
G01X-015039Y0005897D01*
G01X-014958Y0005897D01*
G01X-014954Y0005897D01*
G01X-014954Y0005897D01*
G37*
G54D11*
G01X-014998Y0005809D03*
G54D10*
G36*
G01X-013336Y0005897D02*
G01X-013332Y0005896D01*
G01X-013328Y0005895D01*
G01X-013324Y0005894D01*
G01X-013321Y0005892D01*
G01X-013317Y0005890D01*
G01X-013314Y0005888D01*
G01X-013311Y0005885D01*
G01X-013308Y0005882D01*
G01X-013306Y0005879D01*
G01X-013304Y0005876D01*
G01X-013302Y0005872D01*
G01X-013301Y0005868D01*
G01X-013300Y0005865D01*
G01X-013299Y0005861D01*
G01X-013299Y0005857D01*
G01X-013299Y0005762D01*
G01X-013299Y0005758D01*
G01X-013300Y0005754D01*
G01X-013301Y0005750D01*
G01X-013302Y0005746D01*
G01X-013304Y0005742D01*
G01X-013306Y0005739D01*
G01X-013308Y0005736D01*
G01X-013311Y0005733D01*
G01X-013314Y0005730D01*
G01X-013317Y0005728D01*
G01X-013321Y0005726D01*
G01X-013324Y0005724D01*
G01X-013328Y0005723D01*
G01X-013332Y0005722D01*
G01X-013336Y0005721D01*
G01X-013340Y0005721D01*
G01X-013421Y0005721D01*
G01X-013425Y0005721D01*
G01X-013429Y0005722D01*
G01X-013433Y0005723D01*
G01X-013437Y0005724D01*
G01X-013440Y0005726D01*
G01X-013444Y0005728D01*
G01X-013447Y0005730D01*
G01X-013450Y0005733D01*
G01X-013452Y0005736D01*
G01X-013455Y0005739D01*
G01X-013457Y0005742D01*
G01X-013459Y0005746D01*
G01X-013460Y0005750D01*
G01X-013461Y0005754D01*
G01X-013461Y0005758D01*
G01X-013462Y0005762D01*
G01X-013462Y0005857D01*
G01X-013461Y0005861D01*
G01X-013461Y0005865D01*
G01X-013460Y0005868D01*
G01X-013459Y0005872D01*
G01X-013457Y0005876D01*
G01X-013455Y0005879D01*
G01X-013452Y0005882D01*
G01X-013450Y0005885D01*
G01X-013447Y0005888D01*
G01X-013444Y0005890D01*
G01X-013440Y0005892D01*
G01X-013437Y0005894D01*
G01X-013433Y0005895D01*
G01X-013429Y0005896D01*
G01X-013425Y0005897D01*
G01X-013421Y0005897D01*
G01X-013340Y0005897D01*
G01X-013336Y0005897D01*
G01X-013336Y0005897D01*
G37*
G54D11*
G01X-013380Y0005809D03*
G54D10*
G36*
G01X-012954Y0005897D02*
G01X-012950Y0005896D01*
G01X-012946Y0005895D01*
G01X-012942Y0005894D01*
G01X-012939Y0005892D01*
G01X-012935Y0005890D01*
G01X-012932Y0005888D01*
G01X-012929Y0005885D01*
G01X-012926Y0005882D01*
G01X-012924Y0005879D01*
G01X-012922Y0005876D01*
G01X-012920Y0005872D01*
G01X-012919Y0005868D01*
G01X-012918Y0005865D01*
G01X-012917Y0005861D01*
G01X-012917Y0005857D01*
G01X-012917Y0005762D01*
G01X-012917Y0005758D01*
G01X-012918Y0005754D01*
G01X-012919Y0005750D01*
G01X-012920Y0005746D01*
G01X-012922Y0005742D01*
G01X-012924Y0005739D01*
G01X-012926Y0005736D01*
G01X-012929Y0005733D01*
G01X-012932Y0005730D01*
G01X-012935Y0005728D01*
G01X-012939Y0005726D01*
G01X-012942Y0005724D01*
G01X-012946Y0005723D01*
G01X-012950Y0005722D01*
G01X-012954Y0005721D01*
G01X-012958Y0005721D01*
G01X-013039Y0005721D01*
G01X-013043Y0005721D01*
G01X-013047Y0005722D01*
G01X-013051Y0005723D01*
G01X-013055Y0005724D01*
G01X-013058Y0005726D01*
G01X-013062Y0005728D01*
G01X-013065Y0005730D01*
G01X-013068Y0005733D01*
G01X-013070Y0005736D01*
G01X-013073Y0005739D01*
G01X-013075Y0005742D01*
G01X-013077Y0005746D01*
G01X-013078Y0005750D01*
G01X-013079Y0005754D01*
G01X-013080Y0005758D01*
G01X-013080Y0005762D01*
G01X-013080Y0005857D01*
G01X-013080Y0005861D01*
G01X-013079Y0005865D01*
G01X-013078Y0005868D01*
G01X-013077Y0005872D01*
G01X-013075Y0005876D01*
G01X-013073Y0005879D01*
G01X-013070Y0005882D01*
G01X-013068Y0005885D01*
G01X-013065Y0005888D01*
G01X-013062Y0005890D01*
G01X-013058Y0005892D01*
G01X-013055Y0005894D01*
G01X-013051Y0005895D01*
G01X-013047Y0005896D01*
G01X-013043Y0005897D01*
G01X-013039Y0005897D01*
G01X-012958Y0005897D01*
G01X-012954Y0005897D01*
G01X-012954Y0005897D01*
G37*
G54D11*
G01X-012998Y0005809D03*
G54D10*
G36*
G01X-012336Y0005897D02*
G01X-012332Y0005896D01*
G01X-012328Y0005895D01*
G01X-012324Y0005894D01*
G01X-012321Y0005892D01*
G01X-012317Y0005890D01*
G01X-012314Y0005888D01*
G01X-012311Y0005885D01*
G01X-012308Y0005882D01*
G01X-012306Y0005879D01*
G01X-012304Y0005876D01*
G01X-012302Y0005872D01*
G01X-012301Y0005868D01*
G01X-012300Y0005865D01*
G01X-012299Y0005861D01*
G01X-012299Y0005857D01*
G01X-012299Y0005762D01*
G01X-012299Y0005758D01*
G01X-012300Y0005754D01*
G01X-012301Y0005750D01*
G01X-012302Y0005746D01*
G01X-012304Y0005742D01*
G01X-012306Y0005739D01*
G01X-012308Y0005736D01*
G01X-012311Y0005733D01*
G01X-012314Y0005730D01*
G01X-012317Y0005728D01*
G01X-012321Y0005726D01*
G01X-012324Y0005724D01*
G01X-012328Y0005723D01*
G01X-012332Y0005722D01*
G01X-012336Y0005721D01*
G01X-012340Y0005721D01*
G01X-012421Y0005721D01*
G01X-012425Y0005721D01*
G01X-012429Y0005722D01*
G01X-012433Y0005723D01*
G01X-012437Y0005724D01*
G01X-012440Y0005726D01*
G01X-012444Y0005728D01*
G01X-012447Y0005730D01*
G01X-012450Y0005733D01*
G01X-012452Y0005736D01*
G01X-012455Y0005739D01*
G01X-012457Y0005742D01*
G01X-012459Y0005746D01*
G01X-012460Y0005750D01*
G01X-012461Y0005754D01*
G01X-012461Y0005758D01*
G01X-012462Y0005762D01*
G01X-012462Y0005857D01*
G01X-012461Y0005861D01*
G01X-012461Y0005865D01*
G01X-012460Y0005868D01*
G01X-012459Y0005872D01*
G01X-012457Y0005876D01*
G01X-012455Y0005879D01*
G01X-012452Y0005882D01*
G01X-012450Y0005885D01*
G01X-012447Y0005888D01*
G01X-012444Y0005890D01*
G01X-012440Y0005892D01*
G01X-012437Y0005894D01*
G01X-012433Y0005895D01*
G01X-012429Y0005896D01*
G01X-012425Y0005897D01*
G01X-012421Y0005897D01*
G01X-012340Y0005897D01*
G01X-012336Y0005897D01*
G01X-012336Y0005897D01*
G37*
G54D11*
G01X-012380Y0005809D03*
G54D10*
G36*
G01X-011954Y0005897D02*
G01X-011950Y0005896D01*
G01X-011946Y0005895D01*
G01X-011942Y0005894D01*
G01X-011939Y0005892D01*
G01X-011935Y0005890D01*
G01X-011932Y0005888D01*
G01X-011929Y0005885D01*
G01X-011926Y0005882D01*
G01X-011924Y0005879D01*
G01X-011922Y0005876D01*
G01X-011920Y0005872D01*
G01X-011919Y0005868D01*
G01X-011918Y0005865D01*
G01X-011917Y0005861D01*
G01X-011917Y0005857D01*
G01X-011917Y0005762D01*
G01X-011917Y0005758D01*
G01X-011918Y0005754D01*
G01X-011919Y0005750D01*
G01X-011920Y0005746D01*
G01X-011922Y0005742D01*
G01X-011924Y0005739D01*
G01X-011926Y0005736D01*
G01X-011929Y0005733D01*
G01X-011932Y0005730D01*
G01X-011935Y0005728D01*
G01X-011939Y0005726D01*
G01X-011942Y0005724D01*
G01X-011946Y0005723D01*
G01X-011950Y0005722D01*
G01X-011954Y0005721D01*
G01X-011958Y0005721D01*
G01X-012039Y0005721D01*
G01X-012043Y0005721D01*
G01X-012047Y0005722D01*
G01X-012051Y0005723D01*
G01X-012055Y0005724D01*
G01X-012058Y0005726D01*
G01X-012062Y0005728D01*
G01X-012065Y0005730D01*
G01X-012068Y0005733D01*
G01X-012070Y0005736D01*
G01X-012073Y0005739D01*
G01X-012075Y0005742D01*
G01X-012077Y0005746D01*
G01X-012078Y0005750D01*
G01X-012079Y0005754D01*
G01X-012080Y0005758D01*
G01X-012080Y0005762D01*
G01X-012080Y0005857D01*
G01X-012080Y0005861D01*
G01X-012079Y0005865D01*
G01X-012078Y0005868D01*
G01X-012077Y0005872D01*
G01X-012075Y0005876D01*
G01X-012073Y0005879D01*
G01X-012070Y0005882D01*
G01X-012068Y0005885D01*
G01X-012065Y0005888D01*
G01X-012062Y0005890D01*
G01X-012058Y0005892D01*
G01X-012055Y0005894D01*
G01X-012051Y0005895D01*
G01X-012047Y0005896D01*
G01X-012043Y0005897D01*
G01X-012039Y0005897D01*
G01X-011958Y0005897D01*
G01X-011954Y0005897D01*
G01X-011954Y0005897D01*
G37*
G54D11*
G01X-011998Y0005809D03*
G54D10*
G36*
G01X0006196Y0002197D02*
G01X0006200Y0002196D01*
G01X0006204Y0002195D01*
G01X0006208Y0002194D01*
G01X0006211Y0002192D01*
G01X0006215Y0002190D01*
G01X0006218Y0002188D01*
G01X0006221Y0002185D01*
G01X0006224Y0002182D01*
G01X0006226Y0002179D01*
G01X0006228Y0002176D01*
G01X0006230Y0002172D01*
G01X0006231Y0002168D01*
G01X0006232Y0002165D01*
G01X0006233Y0002161D01*
G01X0006233Y0002157D01*
G01X0006233Y0002062D01*
G01X0006233Y0002058D01*
G01X0006232Y0002054D01*
G01X0006231Y0002050D01*
G01X0006230Y0002046D01*
G01X0006228Y0002042D01*
G01X0006226Y0002039D01*
G01X0006224Y0002036D01*
G01X0006221Y0002033D01*
G01X0006218Y0002030D01*
G01X0006215Y0002028D01*
G01X0006211Y0002026D01*
G01X0006208Y0002024D01*
G01X0006204Y0002023D01*
G01X0006200Y0002022D01*
G01X0006196Y0002021D01*
G01X0006192Y0002021D01*
G01X0006111Y0002021D01*
G01X0006107Y0002021D01*
G01X0006103Y0002022D01*
G01X0006099Y0002023D01*
G01X0006095Y0002024D01*
G01X0006092Y0002026D01*
G01X0006088Y0002028D01*
G01X0006085Y0002030D01*
G01X0006082Y0002033D01*
G01X0006080Y0002036D01*
G01X0006077Y0002039D01*
G01X0006075Y0002042D01*
G01X0006073Y0002046D01*
G01X0006072Y0002050D01*
G01X0006071Y0002054D01*
G01X0006070Y0002058D01*
G01X0006070Y0002062D01*
G01X0006070Y0002157D01*
G01X0006070Y0002161D01*
G01X0006071Y0002165D01*
G01X0006072Y0002168D01*
G01X0006073Y0002172D01*
G01X0006075Y0002176D01*
G01X0006077Y0002179D01*
G01X0006080Y0002182D01*
G01X0006082Y0002185D01*
G01X0006085Y0002188D01*
G01X0006088Y0002190D01*
G01X0006092Y0002192D01*
G01X0006095Y0002194D01*
G01X0006099Y0002195D01*
G01X0006103Y0002196D01*
G01X0006107Y0002197D01*
G01X0006111Y0002197D01*
G01X0006192Y0002197D01*
G01X0006196Y0002197D01*
G01X0006196Y0002197D01*
G37*
G54D11*
G01X0006152Y0002109D03*
G54D10*
G36*
G01X0005814Y0002197D02*
G01X0005818Y0002196D01*
G01X0005822Y0002195D01*
G01X0005826Y0002194D01*
G01X0005829Y0002192D01*
G01X0005833Y0002190D01*
G01X0005836Y0002188D01*
G01X0005839Y0002185D01*
G01X0005842Y0002182D01*
G01X0005844Y0002179D01*
G01X0005846Y0002176D01*
G01X0005848Y0002172D01*
G01X0005849Y0002168D01*
G01X0005850Y0002165D01*
G01X0005851Y0002161D01*
G01X0005851Y0002157D01*
G01X0005851Y0002062D01*
G01X0005851Y0002058D01*
G01X0005850Y0002054D01*
G01X0005849Y0002050D01*
G01X0005848Y0002046D01*
G01X0005846Y0002042D01*
G01X0005844Y0002039D01*
G01X0005842Y0002036D01*
G01X0005839Y0002033D01*
G01X0005836Y0002030D01*
G01X0005833Y0002028D01*
G01X0005829Y0002026D01*
G01X0005826Y0002024D01*
G01X0005822Y0002023D01*
G01X0005818Y0002022D01*
G01X0005814Y0002021D01*
G01X0005810Y0002021D01*
G01X0005729Y0002021D01*
G01X0005725Y0002021D01*
G01X0005721Y0002022D01*
G01X0005717Y0002023D01*
G01X0005713Y0002024D01*
G01X0005710Y0002026D01*
G01X0005706Y0002028D01*
G01X0005703Y0002030D01*
G01X0005700Y0002033D01*
G01X0005698Y0002036D01*
G01X0005695Y0002039D01*
G01X0005693Y0002042D01*
G01X0005691Y0002046D01*
G01X0005690Y0002050D01*
G01X0005689Y0002054D01*
G01X0005689Y0002058D01*
G01X0005688Y0002062D01*
G01X0005688Y0002157D01*
G01X0005689Y0002161D01*
G01X0005689Y0002165D01*
G01X0005690Y0002168D01*
G01X0005691Y0002172D01*
G01X0005693Y0002176D01*
G01X0005695Y0002179D01*
G01X0005698Y0002182D01*
G01X0005700Y0002185D01*
G01X0005703Y0002188D01*
G01X0005706Y0002190D01*
G01X0005710Y0002192D01*
G01X0005713Y0002194D01*
G01X0005717Y0002195D01*
G01X0005721Y0002196D01*
G01X0005725Y0002197D01*
G01X0005729Y0002197D01*
G01X0005810Y0002197D01*
G01X0005814Y0002197D01*
G01X0005814Y0002197D01*
G37*
G54D11*
G01X0005770Y0002109D03*
G54D10*
G36*
G01X-017938Y0001431D02*
G01X-017934Y0001431D01*
G01X-017930Y0001430D01*
G01X-017926Y0001428D01*
G01X-017923Y0001426D01*
G01X-017919Y0001424D01*
G01X-017916Y0001422D01*
G01X-017913Y0001419D01*
G01X-017910Y0001416D01*
G01X-017908Y0001413D01*
G01X-017906Y0001410D01*
G01X-017904Y0001406D01*
G01X-017903Y0001402D01*
G01X-017902Y0001399D01*
G01X-017901Y0001395D01*
G01X-017901Y0001391D01*
G01X-017901Y0001309D01*
G01X-017901Y0001305D01*
G01X-017902Y0001301D01*
G01X-017903Y0001298D01*
G01X-017904Y0001294D01*
G01X-017906Y0001290D01*
G01X-017908Y0001287D01*
G01X-017910Y0001284D01*
G01X-017913Y0001281D01*
G01X-017916Y0001278D01*
G01X-017919Y0001276D01*
G01X-017923Y0001274D01*
G01X-017926Y0001272D01*
G01X-017930Y0001270D01*
G01X-017934Y0001269D01*
G01X-017938Y0001269D01*
G01X-017942Y0001269D01*
G01X-018037Y0001269D01*
G01X-018041Y0001269D01*
G01X-018045Y0001269D01*
G01X-018049Y0001270D01*
G01X-018052Y0001272D01*
G01X-018056Y0001274D01*
G01X-018059Y0001276D01*
G01X-018063Y0001278D01*
G01X-018066Y0001281D01*
G01X-018068Y0001284D01*
G01X-018071Y0001287D01*
G01X-018073Y0001290D01*
G01X-018074Y0001294D01*
G01X-018076Y0001298D01*
G01X-018077Y0001301D01*
G01X-018077Y0001305D01*
G01X-018078Y0001309D01*
G01X-018078Y0001391D01*
G01X-018077Y0001395D01*
G01X-018077Y0001399D01*
G01X-018076Y0001402D01*
G01X-018074Y0001406D01*
G01X-018073Y0001410D01*
G01X-018071Y0001413D01*
G01X-018068Y0001416D01*
G01X-018066Y0001419D01*
G01X-018063Y0001422D01*
G01X-018059Y0001424D01*
G01X-018056Y0001426D01*
G01X-018052Y0001428D01*
G01X-018049Y0001430D01*
G01X-018045Y0001431D01*
G01X-018041Y0001431D01*
G01X-018037Y0001431D01*
G01X-017942Y0001431D01*
G01X-017938Y0001431D01*
G01X-017938Y0001431D01*
G37*
G54D11*
G01X-017989Y0001350D03*
G54D10*
G36*
G01X-017938Y0001049D02*
G01X-017934Y0001049D01*
G01X-017930Y0001048D01*
G01X-017926Y0001046D01*
G01X-017923Y0001045D01*
G01X-017919Y0001043D01*
G01X-017916Y0001040D01*
G01X-017913Y0001038D01*
G01X-017910Y0001035D01*
G01X-017908Y0001031D01*
G01X-017906Y0001028D01*
G01X-017904Y0001024D01*
G01X-017903Y0001021D01*
G01X-017902Y0001017D01*
G01X-017901Y0001013D01*
G01X-017901Y0001009D01*
G01X-017901Y0000927D01*
G01X-017901Y0000923D01*
G01X-017902Y0000920D01*
G01X-017903Y0000916D01*
G01X-017904Y0000912D01*
G01X-017906Y0000908D01*
G01X-017908Y0000905D01*
G01X-017910Y0000902D01*
G01X-017913Y0000899D01*
G01X-017916Y0000896D01*
G01X-017919Y0000894D01*
G01X-017923Y0000892D01*
G01X-017926Y0000890D01*
G01X-017930Y0000889D01*
G01X-017934Y0000888D01*
G01X-017938Y0000887D01*
G01X-017942Y0000887D01*
G01X-018037Y0000887D01*
G01X-018041Y0000887D01*
G01X-018045Y0000888D01*
G01X-018049Y0000889D01*
G01X-018052Y0000890D01*
G01X-018056Y0000892D01*
G01X-018059Y0000894D01*
G01X-018063Y0000896D01*
G01X-018066Y0000899D01*
G01X-018068Y0000902D01*
G01X-018071Y0000905D01*
G01X-018073Y0000908D01*
G01X-018074Y0000912D01*
G01X-018076Y0000916D01*
G01X-018077Y0000920D01*
G01X-018077Y0000923D01*
G01X-018078Y0000927D01*
G01X-018078Y0001009D01*
G01X-018077Y0001013D01*
G01X-018077Y0001017D01*
G01X-018076Y0001021D01*
G01X-018074Y0001024D01*
G01X-018073Y0001028D01*
G01X-018071Y0001031D01*
G01X-018068Y0001035D01*
G01X-018066Y0001038D01*
G01X-018063Y0001040D01*
G01X-018059Y0001043D01*
G01X-018056Y0001045D01*
G01X-018052Y0001046D01*
G01X-018049Y0001048D01*
G01X-018045Y0001049D01*
G01X-018041Y0001049D01*
G01X-018037Y0001049D01*
G01X-017942Y0001049D01*
G01X-017938Y0001049D01*
G01X-017938Y0001049D01*
G37*
G54D11*
G01X-017989Y0000968D03*
G54D10*
G36*
G01X-017138Y0001049D02*
G01X-017134Y0001049D01*
G01X-017130Y0001048D01*
G01X-017126Y0001046D01*
G01X-017123Y0001045D01*
G01X-017119Y0001043D01*
G01X-017116Y0001040D01*
G01X-017113Y0001038D01*
G01X-017110Y0001035D01*
G01X-017108Y0001031D01*
G01X-017106Y0001028D01*
G01X-017104Y0001024D01*
G01X-017103Y0001021D01*
G01X-017102Y0001017D01*
G01X-017101Y0001013D01*
G01X-017101Y0001009D01*
G01X-017101Y0000927D01*
G01X-017101Y0000923D01*
G01X-017102Y0000920D01*
G01X-017103Y0000916D01*
G01X-017104Y0000912D01*
G01X-017106Y0000908D01*
G01X-017108Y0000905D01*
G01X-017110Y0000902D01*
G01X-017113Y0000899D01*
G01X-017116Y0000896D01*
G01X-017119Y0000894D01*
G01X-017123Y0000892D01*
G01X-017126Y0000890D01*
G01X-017130Y0000889D01*
G01X-017134Y0000888D01*
G01X-017138Y0000887D01*
G01X-017142Y0000887D01*
G01X-017237Y0000887D01*
G01X-017241Y0000887D01*
G01X-017245Y0000888D01*
G01X-017249Y0000889D01*
G01X-017252Y0000890D01*
G01X-017256Y0000892D01*
G01X-017259Y0000894D01*
G01X-017263Y0000896D01*
G01X-017266Y0000899D01*
G01X-017268Y0000902D01*
G01X-017271Y0000905D01*
G01X-017273Y0000908D01*
G01X-017274Y0000912D01*
G01X-017276Y0000916D01*
G01X-017277Y0000920D01*
G01X-017277Y0000923D01*
G01X-017278Y0000927D01*
G01X-017278Y0001009D01*
G01X-017277Y0001013D01*
G01X-017277Y0001017D01*
G01X-017276Y0001021D01*
G01X-017274Y0001024D01*
G01X-017273Y0001028D01*
G01X-017271Y0001031D01*
G01X-017268Y0001035D01*
G01X-017266Y0001038D01*
G01X-017263Y0001040D01*
G01X-017259Y0001043D01*
G01X-017256Y0001045D01*
G01X-017252Y0001046D01*
G01X-017249Y0001048D01*
G01X-017245Y0001049D01*
G01X-017241Y0001049D01*
G01X-017237Y0001049D01*
G01X-017142Y0001049D01*
G01X-017138Y0001049D01*
G01X-017138Y0001049D01*
G37*
G54D11*
G01X-017189Y0000968D03*
G54D10*
G36*
G01X-017138Y0001431D02*
G01X-017134Y0001431D01*
G01X-017130Y0001430D01*
G01X-017126Y0001428D01*
G01X-017123Y0001426D01*
G01X-017119Y0001424D01*
G01X-017116Y0001422D01*
G01X-017113Y0001419D01*
G01X-017110Y0001416D01*
G01X-017108Y0001413D01*
G01X-017106Y0001410D01*
G01X-017104Y0001406D01*
G01X-017103Y0001402D01*
G01X-017102Y0001399D01*
G01X-017101Y0001395D01*
G01X-017101Y0001391D01*
G01X-017101Y0001309D01*
G01X-017101Y0001305D01*
G01X-017102Y0001301D01*
G01X-017103Y0001298D01*
G01X-017104Y0001294D01*
G01X-017106Y0001290D01*
G01X-017108Y0001287D01*
G01X-017110Y0001284D01*
G01X-017113Y0001281D01*
G01X-017116Y0001278D01*
G01X-017119Y0001276D01*
G01X-017123Y0001274D01*
G01X-017126Y0001272D01*
G01X-017130Y0001270D01*
G01X-017134Y0001269D01*
G01X-017138Y0001269D01*
G01X-017142Y0001269D01*
G01X-017237Y0001269D01*
G01X-017241Y0001269D01*
G01X-017245Y0001269D01*
G01X-017249Y0001270D01*
G01X-017252Y0001272D01*
G01X-017256Y0001274D01*
G01X-017259Y0001276D01*
G01X-017263Y0001278D01*
G01X-017266Y0001281D01*
G01X-017268Y0001284D01*
G01X-017271Y0001287D01*
G01X-017273Y0001290D01*
G01X-017274Y0001294D01*
G01X-017276Y0001298D01*
G01X-017277Y0001301D01*
G01X-017277Y0001305D01*
G01X-017278Y0001309D01*
G01X-017278Y0001391D01*
G01X-017277Y0001395D01*
G01X-017277Y0001399D01*
G01X-017276Y0001402D01*
G01X-017274Y0001406D01*
G01X-017273Y0001410D01*
G01X-017271Y0001413D01*
G01X-017268Y0001416D01*
G01X-017266Y0001419D01*
G01X-017263Y0001422D01*
G01X-017259Y0001424D01*
G01X-017256Y0001426D01*
G01X-017252Y0001428D01*
G01X-017249Y0001430D01*
G01X-017245Y0001431D01*
G01X-017241Y0001431D01*
G01X-017237Y0001431D01*
G01X-017142Y0001431D01*
G01X-017138Y0001431D01*
G01X-017138Y0001431D01*
G37*
G54D11*
G01X-017189Y0001350D03*
G54D10*
G36*
G01X-017538Y0001049D02*
G01X-017534Y0001049D01*
G01X-017530Y0001048D01*
G01X-017526Y0001046D01*
G01X-017523Y0001045D01*
G01X-017519Y0001043D01*
G01X-017516Y0001040D01*
G01X-017513Y0001038D01*
G01X-017510Y0001035D01*
G01X-017508Y0001031D01*
G01X-017506Y0001028D01*
G01X-017504Y0001024D01*
G01X-017503Y0001021D01*
G01X-017502Y0001017D01*
G01X-017501Y0001013D01*
G01X-017501Y0001009D01*
G01X-017501Y0000927D01*
G01X-017501Y0000923D01*
G01X-017502Y0000920D01*
G01X-017503Y0000916D01*
G01X-017504Y0000912D01*
G01X-017506Y0000908D01*
G01X-017508Y0000905D01*
G01X-017510Y0000902D01*
G01X-017513Y0000899D01*
G01X-017516Y0000896D01*
G01X-017519Y0000894D01*
G01X-017523Y0000892D01*
G01X-017526Y0000890D01*
G01X-017530Y0000889D01*
G01X-017534Y0000888D01*
G01X-017538Y0000887D01*
G01X-017542Y0000887D01*
G01X-017637Y0000887D01*
G01X-017641Y0000887D01*
G01X-017645Y0000888D01*
G01X-017649Y0000889D01*
G01X-017652Y0000890D01*
G01X-017656Y0000892D01*
G01X-017659Y0000894D01*
G01X-017663Y0000896D01*
G01X-017666Y0000899D01*
G01X-017668Y0000902D01*
G01X-017671Y0000905D01*
G01X-017673Y0000908D01*
G01X-017674Y0000912D01*
G01X-017676Y0000916D01*
G01X-017677Y0000920D01*
G01X-017677Y0000923D01*
G01X-017678Y0000927D01*
G01X-017678Y0001009D01*
G01X-017677Y0001013D01*
G01X-017677Y0001017D01*
G01X-017676Y0001021D01*
G01X-017674Y0001024D01*
G01X-017673Y0001028D01*
G01X-017671Y0001031D01*
G01X-017668Y0001035D01*
G01X-017666Y0001038D01*
G01X-017663Y0001040D01*
G01X-017659Y0001043D01*
G01X-017656Y0001045D01*
G01X-017652Y0001046D01*
G01X-017649Y0001048D01*
G01X-017645Y0001049D01*
G01X-017641Y0001049D01*
G01X-017637Y0001049D01*
G01X-017542Y0001049D01*
G01X-017538Y0001049D01*
G01X-017538Y0001049D01*
G37*
G54D11*
G01X-017589Y0000968D03*
G54D10*
G36*
G01X-017538Y0001431D02*
G01X-017534Y0001431D01*
G01X-017530Y0001430D01*
G01X-017526Y0001428D01*
G01X-017523Y0001426D01*
G01X-017519Y0001424D01*
G01X-017516Y0001422D01*
G01X-017513Y0001419D01*
G01X-017510Y0001416D01*
G01X-017508Y0001413D01*
G01X-017506Y0001410D01*
G01X-017504Y0001406D01*
G01X-017503Y0001402D01*
G01X-017502Y0001399D01*
G01X-017501Y0001395D01*
G01X-017501Y0001391D01*
G01X-017501Y0001309D01*
G01X-017501Y0001305D01*
G01X-017502Y0001301D01*
G01X-017503Y0001298D01*
G01X-017504Y0001294D01*
G01X-017506Y0001290D01*
G01X-017508Y0001287D01*
G01X-017510Y0001284D01*
G01X-017513Y0001281D01*
G01X-017516Y0001278D01*
G01X-017519Y0001276D01*
G01X-017523Y0001274D01*
G01X-017526Y0001272D01*
G01X-017530Y0001270D01*
G01X-017534Y0001269D01*
G01X-017538Y0001269D01*
G01X-017542Y0001269D01*
G01X-017637Y0001269D01*
G01X-017641Y0001269D01*
G01X-017645Y0001269D01*
G01X-017649Y0001270D01*
G01X-017652Y0001272D01*
G01X-017656Y0001274D01*
G01X-017659Y0001276D01*
G01X-017663Y0001278D01*
G01X-017666Y0001281D01*
G01X-017668Y0001284D01*
G01X-017671Y0001287D01*
G01X-017673Y0001290D01*
G01X-017674Y0001294D01*
G01X-017676Y0001298D01*
G01X-017677Y0001301D01*
G01X-017677Y0001305D01*
G01X-017678Y0001309D01*
G01X-017678Y0001391D01*
G01X-017677Y0001395D01*
G01X-017677Y0001399D01*
G01X-017676Y0001402D01*
G01X-017674Y0001406D01*
G01X-017673Y0001410D01*
G01X-017671Y0001413D01*
G01X-017668Y0001416D01*
G01X-017666Y0001419D01*
G01X-017663Y0001422D01*
G01X-017659Y0001424D01*
G01X-017656Y0001426D01*
G01X-017652Y0001428D01*
G01X-017649Y0001430D01*
G01X-017645Y0001431D01*
G01X-017641Y0001431D01*
G01X-017637Y0001431D01*
G01X-017542Y0001431D01*
G01X-017538Y0001431D01*
G01X-017538Y0001431D01*
G37*
G54D11*
G01X-017589Y0001350D03*
G54D10*
G36*
G01X-016738Y0001431D02*
G01X-016734Y0001431D01*
G01X-016730Y0001430D01*
G01X-016726Y0001428D01*
G01X-016723Y0001426D01*
G01X-016719Y0001424D01*
G01X-016716Y0001422D01*
G01X-016713Y0001419D01*
G01X-016710Y0001416D01*
G01X-016708Y0001413D01*
G01X-016706Y0001410D01*
G01X-016704Y0001406D01*
G01X-016703Y0001402D01*
G01X-016702Y0001399D01*
G01X-016701Y0001395D01*
G01X-016701Y0001391D01*
G01X-016701Y0001309D01*
G01X-016701Y0001305D01*
G01X-016702Y0001301D01*
G01X-016703Y0001298D01*
G01X-016704Y0001294D01*
G01X-016706Y0001290D01*
G01X-016708Y0001287D01*
G01X-016710Y0001284D01*
G01X-016713Y0001281D01*
G01X-016716Y0001278D01*
G01X-016719Y0001276D01*
G01X-016723Y0001274D01*
G01X-016726Y0001272D01*
G01X-016730Y0001270D01*
G01X-016734Y0001269D01*
G01X-016738Y0001269D01*
G01X-016742Y0001269D01*
G01X-016837Y0001269D01*
G01X-016841Y0001269D01*
G01X-016845Y0001269D01*
G01X-016849Y0001270D01*
G01X-016852Y0001272D01*
G01X-016856Y0001274D01*
G01X-016859Y0001276D01*
G01X-016863Y0001278D01*
G01X-016866Y0001281D01*
G01X-016868Y0001284D01*
G01X-016871Y0001287D01*
G01X-016873Y0001290D01*
G01X-016874Y0001294D01*
G01X-016876Y0001298D01*
G01X-016877Y0001301D01*
G01X-016877Y0001305D01*
G01X-016878Y0001309D01*
G01X-016878Y0001391D01*
G01X-016877Y0001395D01*
G01X-016877Y0001399D01*
G01X-016876Y0001402D01*
G01X-016874Y0001406D01*
G01X-016873Y0001410D01*
G01X-016871Y0001413D01*
G01X-016868Y0001416D01*
G01X-016866Y0001419D01*
G01X-016863Y0001422D01*
G01X-016859Y0001424D01*
G01X-016856Y0001426D01*
G01X-016852Y0001428D01*
G01X-016849Y0001430D01*
G01X-016845Y0001431D01*
G01X-016841Y0001431D01*
G01X-016837Y0001431D01*
G01X-016742Y0001431D01*
G01X-016738Y0001431D01*
G01X-016738Y0001431D01*
G37*
G54D11*
G01X-016789Y0001350D03*
G54D10*
G36*
G01X-016738Y0001049D02*
G01X-016734Y0001049D01*
G01X-016730Y0001048D01*
G01X-016726Y0001046D01*
G01X-016723Y0001045D01*
G01X-016719Y0001043D01*
G01X-016716Y0001040D01*
G01X-016713Y0001038D01*
G01X-016710Y0001035D01*
G01X-016708Y0001031D01*
G01X-016706Y0001028D01*
G01X-016704Y0001024D01*
G01X-016703Y0001021D01*
G01X-016702Y0001017D01*
G01X-016701Y0001013D01*
G01X-016701Y0001009D01*
G01X-016701Y0000927D01*
G01X-016701Y0000923D01*
G01X-016702Y0000920D01*
G01X-016703Y0000916D01*
G01X-016704Y0000912D01*
G01X-016706Y0000908D01*
G01X-016708Y0000905D01*
G01X-016710Y0000902D01*
G01X-016713Y0000899D01*
G01X-016716Y0000896D01*
G01X-016719Y0000894D01*
G01X-016723Y0000892D01*
G01X-016726Y0000890D01*
G01X-016730Y0000889D01*
G01X-016734Y0000888D01*
G01X-016738Y0000887D01*
G01X-016742Y0000887D01*
G01X-016837Y0000887D01*
G01X-016841Y0000887D01*
G01X-016845Y0000888D01*
G01X-016849Y0000889D01*
G01X-016852Y0000890D01*
G01X-016856Y0000892D01*
G01X-016859Y0000894D01*
G01X-016863Y0000896D01*
G01X-016866Y0000899D01*
G01X-016868Y0000902D01*
G01X-016871Y0000905D01*
G01X-016873Y0000908D01*
G01X-016874Y0000912D01*
G01X-016876Y0000916D01*
G01X-016877Y0000920D01*
G01X-016877Y0000923D01*
G01X-016878Y0000927D01*
G01X-016878Y0001009D01*
G01X-016877Y0001013D01*
G01X-016877Y0001017D01*
G01X-016876Y0001021D01*
G01X-016874Y0001024D01*
G01X-016873Y0001028D01*
G01X-016871Y0001031D01*
G01X-016868Y0001035D01*
G01X-016866Y0001038D01*
G01X-016863Y0001040D01*
G01X-016859Y0001043D01*
G01X-016856Y0001045D01*
G01X-016852Y0001046D01*
G01X-016849Y0001048D01*
G01X-016845Y0001049D01*
G01X-016841Y0001049D01*
G01X-016837Y0001049D01*
G01X-016742Y0001049D01*
G01X-016738Y0001049D01*
G01X-016738Y0001049D01*
G37*
G54D11*
G01X-016789Y0000968D03*
G54D25*
G01X-018226Y0003706D03*
G01X-017911Y0003706D03*
G01X-018068Y0003706D03*
G01X-017753Y0003706D03*
G01X-018226Y0003912D03*
G01X-018068Y0003912D03*
G01X-017911Y0003912D03*
G01X-017753Y0003912D03*
G01X-017753Y0002566D03*
G01X-017911Y0002566D03*
G01X-018068Y0002566D03*
G01X-018226Y0002566D03*
G01X-017753Y0002359D03*
G01X-018068Y0002359D03*
G01X-017911Y0002359D03*
G01X-018226Y0002359D03*
G54D10*
G36*
G01X-001988Y-004769D02*
G01X-001984Y-004769D01*
G01X-001980Y-004770D01*
G01X-001976Y-004772D01*
G01X-001973Y-004774D01*
G01X-001969Y-004776D01*
G01X-001966Y-004778D01*
G01X-001963Y-004781D01*
G01X-001960Y-004784D01*
G01X-001958Y-004787D01*
G01X-001956Y-004790D01*
G01X-001954Y-004794D01*
G01X-001953Y-004798D01*
G01X-001952Y-004801D01*
G01X-001951Y-004805D01*
G01X-001951Y-004809D01*
G01X-001951Y-004891D01*
G01X-001951Y-004895D01*
G01X-001952Y-004899D01*
G01X-001953Y-004902D01*
G01X-001954Y-004906D01*
G01X-001956Y-004910D01*
G01X-001958Y-004913D01*
G01X-001960Y-004916D01*
G01X-001963Y-004919D01*
G01X-001966Y-004922D01*
G01X-001969Y-004924D01*
G01X-001973Y-004926D01*
G01X-001976Y-004928D01*
G01X-001980Y-004930D01*
G01X-001984Y-004931D01*
G01X-001988Y-004931D01*
G01X-001992Y-004931D01*
G01X-002087Y-004931D01*
G01X-002091Y-004931D01*
G01X-002095Y-004931D01*
G01X-002099Y-004930D01*
G01X-002102Y-004928D01*
G01X-002106Y-004926D01*
G01X-002109Y-004924D01*
G01X-002113Y-004922D01*
G01X-002116Y-004919D01*
G01X-002118Y-004916D01*
G01X-002121Y-004913D01*
G01X-002123Y-004910D01*
G01X-002124Y-004906D01*
G01X-002126Y-004902D01*
G01X-002127Y-004899D01*
G01X-002127Y-004895D01*
G01X-002128Y-004891D01*
G01X-002128Y-004809D01*
G01X-002127Y-004805D01*
G01X-002127Y-004801D01*
G01X-002126Y-004798D01*
G01X-002124Y-004794D01*
G01X-002123Y-004790D01*
G01X-002121Y-004787D01*
G01X-002118Y-004784D01*
G01X-002116Y-004781D01*
G01X-002113Y-004778D01*
G01X-002109Y-004776D01*
G01X-002106Y-004774D01*
G01X-002102Y-004772D01*
G01X-002099Y-004770D01*
G01X-002095Y-004769D01*
G01X-002091Y-004769D01*
G01X-002087Y-004769D01*
G01X-001992Y-004769D01*
G01X-001988Y-004769D01*
G01X-001988Y-004769D01*
G37*
G54D11*
G01X-002039Y-004850D03*
G54D10*
G36*
G01X-001988Y-005151D02*
G01X-001984Y-005151D01*
G01X-001980Y-005152D01*
G01X-001976Y-005154D01*
G01X-001973Y-005155D01*
G01X-001969Y-005157D01*
G01X-001966Y-005160D01*
G01X-001963Y-005162D01*
G01X-001960Y-005165D01*
G01X-001958Y-005169D01*
G01X-001956Y-005172D01*
G01X-001954Y-005176D01*
G01X-001953Y-005179D01*
G01X-001952Y-005183D01*
G01X-001951Y-005187D01*
G01X-001951Y-005191D01*
G01X-001951Y-005273D01*
G01X-001951Y-005277D01*
G01X-001952Y-005280D01*
G01X-001953Y-005284D01*
G01X-001954Y-005288D01*
G01X-001956Y-005292D01*
G01X-001958Y-005295D01*
G01X-001960Y-005298D01*
G01X-001963Y-005301D01*
G01X-001966Y-005304D01*
G01X-001969Y-005306D01*
G01X-001973Y-005308D01*
G01X-001976Y-005310D01*
G01X-001980Y-005311D01*
G01X-001984Y-005312D01*
G01X-001988Y-005313D01*
G01X-001992Y-005313D01*
G01X-002087Y-005313D01*
G01X-002091Y-005313D01*
G01X-002095Y-005312D01*
G01X-002099Y-005311D01*
G01X-002102Y-005310D01*
G01X-002106Y-005308D01*
G01X-002109Y-005306D01*
G01X-002113Y-005304D01*
G01X-002116Y-005301D01*
G01X-002118Y-005298D01*
G01X-002121Y-005295D01*
G01X-002123Y-005292D01*
G01X-002124Y-005288D01*
G01X-002126Y-005284D01*
G01X-002127Y-005280D01*
G01X-002127Y-005277D01*
G01X-002128Y-005273D01*
G01X-002128Y-005191D01*
G01X-002127Y-005187D01*
G01X-002127Y-005183D01*
G01X-002126Y-005179D01*
G01X-002124Y-005176D01*
G01X-002123Y-005172D01*
G01X-002121Y-005169D01*
G01X-002118Y-005165D01*
G01X-002116Y-005162D01*
G01X-002113Y-005160D01*
G01X-002109Y-005157D01*
G01X-002106Y-005155D01*
G01X-002102Y-005154D01*
G01X-002099Y-005152D01*
G01X-002095Y-005151D01*
G01X-002091Y-005151D01*
G01X-002087Y-005151D01*
G01X-001992Y-005151D01*
G01X-001988Y-005151D01*
G01X-001988Y-005151D01*
G37*
G54D11*
G01X-002039Y-005232D03*
G54D10*
G36*
G01X-013787Y0001957D02*
G01X-013783Y0001957D01*
G01X-013779Y0001956D01*
G01X-013775Y0001954D01*
G01X-013772Y0001952D01*
G01X-013768Y0001950D01*
G01X-013765Y0001948D01*
G01X-013762Y0001945D01*
G01X-013760Y0001942D01*
G01X-013757Y0001939D01*
G01X-013755Y0001936D01*
G01X-013753Y0001932D01*
G01X-013752Y0001928D01*
G01X-013751Y0001925D01*
G01X-013751Y0001921D01*
G01X-013750Y0001917D01*
G01X-013750Y0001835D01*
G01X-013751Y0001831D01*
G01X-013751Y0001827D01*
G01X-013752Y0001824D01*
G01X-013753Y0001820D01*
G01X-013755Y0001816D01*
G01X-013757Y0001813D01*
G01X-013760Y0001810D01*
G01X-013762Y0001807D01*
G01X-013765Y0001804D01*
G01X-013768Y0001802D01*
G01X-013772Y0001799D01*
G01X-013775Y0001798D01*
G01X-013779Y0001796D01*
G01X-013783Y0001795D01*
G01X-013787Y0001795D01*
G01X-013791Y0001795D01*
G01X-013886Y0001795D01*
G01X-013890Y0001795D01*
G01X-013894Y0001795D01*
G01X-013898Y0001796D01*
G01X-013902Y0001798D01*
G01X-013905Y0001799D01*
G01X-013909Y0001802D01*
G01X-013912Y0001804D01*
G01X-013915Y0001807D01*
G01X-013918Y0001810D01*
G01X-013920Y0001813D01*
G01X-013922Y0001816D01*
G01X-013924Y0001820D01*
G01X-013925Y0001824D01*
G01X-013926Y0001827D01*
G01X-013927Y0001831D01*
G01X-013927Y0001835D01*
G01X-013927Y0001917D01*
G01X-013927Y0001921D01*
G01X-013926Y0001925D01*
G01X-013925Y0001928D01*
G01X-013924Y0001932D01*
G01X-013922Y0001936D01*
G01X-013920Y0001939D01*
G01X-013918Y0001942D01*
G01X-013915Y0001945D01*
G01X-013912Y0001948D01*
G01X-013909Y0001950D01*
G01X-013905Y0001952D01*
G01X-013902Y0001954D01*
G01X-013898Y0001956D01*
G01X-013894Y0001957D01*
G01X-013890Y0001957D01*
G01X-013886Y0001957D01*
G01X-013791Y0001957D01*
G01X-013787Y0001957D01*
G01X-013787Y0001957D01*
G37*
G54D11*
G01X-013839Y0001876D03*
G54D10*
G36*
G01X-013787Y0002339D02*
G01X-013783Y0002338D01*
G01X-013779Y0002337D01*
G01X-013775Y0002336D01*
G01X-013772Y0002334D01*
G01X-013768Y0002332D01*
G01X-013765Y0002330D01*
G01X-013762Y0002327D01*
G01X-013760Y0002324D01*
G01X-013757Y0002321D01*
G01X-013755Y0002318D01*
G01X-013753Y0002314D01*
G01X-013752Y0002310D01*
G01X-013751Y0002306D01*
G01X-013751Y0002303D01*
G01X-013750Y0002299D01*
G01X-013750Y0002217D01*
G01X-013751Y0002213D01*
G01X-013751Y0002209D01*
G01X-013752Y0002205D01*
G01X-013753Y0002202D01*
G01X-013755Y0002198D01*
G01X-013757Y0002195D01*
G01X-013760Y0002191D01*
G01X-013762Y0002188D01*
G01X-013765Y0002186D01*
G01X-013768Y0002183D01*
G01X-013772Y0002181D01*
G01X-013775Y0002180D01*
G01X-013779Y0002178D01*
G01X-013783Y0002177D01*
G01X-013787Y0002177D01*
G01X-013791Y0002177D01*
G01X-013886Y0002177D01*
G01X-013890Y0002177D01*
G01X-013894Y0002177D01*
G01X-013898Y0002178D01*
G01X-013902Y0002180D01*
G01X-013905Y0002181D01*
G01X-013909Y0002183D01*
G01X-013912Y0002186D01*
G01X-013915Y0002188D01*
G01X-013918Y0002191D01*
G01X-013920Y0002195D01*
G01X-013922Y0002198D01*
G01X-013924Y0002202D01*
G01X-013925Y0002205D01*
G01X-013926Y0002209D01*
G01X-013927Y0002213D01*
G01X-013927Y0002217D01*
G01X-013927Y0002299D01*
G01X-013927Y0002303D01*
G01X-013926Y0002306D01*
G01X-013925Y0002310D01*
G01X-013924Y0002314D01*
G01X-013922Y0002318D01*
G01X-013920Y0002321D01*
G01X-013918Y0002324D01*
G01X-013915Y0002327D01*
G01X-013912Y0002330D01*
G01X-013909Y0002332D01*
G01X-013905Y0002334D01*
G01X-013902Y0002336D01*
G01X-013898Y0002337D01*
G01X-013894Y0002338D01*
G01X-013890Y0002339D01*
G01X-013886Y0002339D01*
G01X-013791Y0002339D01*
G01X-013787Y0002339D01*
G01X-013787Y0002339D01*
G37*
G54D11*
G01X-013839Y0002258D03*
G54D26*
G01X-014350Y0001870D03*
G01X-014350Y0002244D03*
G01X-014350Y0002618D03*
G01X-015217Y0002618D03*
G01X-015217Y0001870D03*
G01X-015217Y0000453D03*
G01X-015217Y0001201D03*
G01X-014350Y0001201D03*
G01X-014350Y0000827D03*
G01X-014350Y0000453D03*
M02*
