G04 #@! TF.GenerationSoftware,KiCad,Pcbnew,5.0.0-4.fc29*
G04 #@! TF.CreationDate,2018-09-24T06:15:53+02:00*
G04 #@! TF.ProjectId,macro-motor,6D6163726F2D6D6F746F722E6B696361,rev?*
G04 #@! TF.SameCoordinates,Original*
G04 #@! TF.FileFunction,Soldermask,Top*
G04 #@! TF.FilePolarity,Negative*
%FSLAX46Y46*%
G04 Gerber Fmt 4.6, Leading zero omitted, Abs format (unit mm)*
G04 Created by KiCad (PCBNEW 5.0.0-4.fc29) date Mon Sep 24 06:15:53 2018*
%MOMM*%
%LPD*%
G01*
G04 APERTURE LIST*
%ADD10C,5.600000*%
%ADD11C,0.100000*%
%ADD12C,0.590000*%
%ADD13R,1.700000X1.700000*%
%ADD14O,1.700000X1.700000*%
%ADD15C,0.875000*%
%ADD16R,1.600000X1.600000*%
%ADD17C,1.600000*%
%ADD18C,2.000000*%
%ADD19R,2.400000X2.400000*%
%ADD20C,2.400000*%
%ADD21C,0.500000*%
%ADD22R,2.135000X1.440000*%
%ADD23R,0.420000X0.790000*%
%ADD24C,0.975000*%
%ADD25C,0.450000*%
%ADD26R,0.300000X0.500000*%
%ADD27R,0.500000X0.300000*%
%ADD28R,4.600000X4.600000*%
%ADD29R,1.060000X0.400000*%
%ADD30C,0.225000*%
%ADD31R,0.550000X0.300000*%
%ADD32R,0.300000X0.550000*%
%ADD33R,5.600000X5.600000*%
%ADD34R,1.550000X0.600000*%
%ADD35R,0.175000X0.275000*%
G04 APERTURE END LIST*
D10*
G04 #@! TO.C,REF\002A\002A*
X105000000Y-55000000D03*
G04 #@! TD*
G04 #@! TO.C,REF\002A\002A*
X105000000Y-85000000D03*
G04 #@! TD*
G04 #@! TO.C,REF\002A\002A*
X200000000Y-85000000D03*
G04 #@! TD*
D11*
G04 #@! TO.C,C201*
G36*
X117509958Y-67625710D02*
X117524276Y-67627834D01*
X117538317Y-67631351D01*
X117551946Y-67636228D01*
X117565031Y-67642417D01*
X117577447Y-67649858D01*
X117589073Y-67658481D01*
X117599798Y-67668202D01*
X117609519Y-67678927D01*
X117618142Y-67690553D01*
X117625583Y-67702969D01*
X117631772Y-67716054D01*
X117636649Y-67729683D01*
X117640166Y-67743724D01*
X117642290Y-67758042D01*
X117643000Y-67772500D01*
X117643000Y-68117500D01*
X117642290Y-68131958D01*
X117640166Y-68146276D01*
X117636649Y-68160317D01*
X117631772Y-68173946D01*
X117625583Y-68187031D01*
X117618142Y-68199447D01*
X117609519Y-68211073D01*
X117599798Y-68221798D01*
X117589073Y-68231519D01*
X117577447Y-68240142D01*
X117565031Y-68247583D01*
X117551946Y-68253772D01*
X117538317Y-68258649D01*
X117524276Y-68262166D01*
X117509958Y-68264290D01*
X117495500Y-68265000D01*
X117200500Y-68265000D01*
X117186042Y-68264290D01*
X117171724Y-68262166D01*
X117157683Y-68258649D01*
X117144054Y-68253772D01*
X117130969Y-68247583D01*
X117118553Y-68240142D01*
X117106927Y-68231519D01*
X117096202Y-68221798D01*
X117086481Y-68211073D01*
X117077858Y-68199447D01*
X117070417Y-68187031D01*
X117064228Y-68173946D01*
X117059351Y-68160317D01*
X117055834Y-68146276D01*
X117053710Y-68131958D01*
X117053000Y-68117500D01*
X117053000Y-67772500D01*
X117053710Y-67758042D01*
X117055834Y-67743724D01*
X117059351Y-67729683D01*
X117064228Y-67716054D01*
X117070417Y-67702969D01*
X117077858Y-67690553D01*
X117086481Y-67678927D01*
X117096202Y-67668202D01*
X117106927Y-67658481D01*
X117118553Y-67649858D01*
X117130969Y-67642417D01*
X117144054Y-67636228D01*
X117157683Y-67631351D01*
X117171724Y-67627834D01*
X117186042Y-67625710D01*
X117200500Y-67625000D01*
X117495500Y-67625000D01*
X117509958Y-67625710D01*
X117509958Y-67625710D01*
G37*
D12*
X117348000Y-67945000D03*
D11*
G36*
X116539958Y-67625710D02*
X116554276Y-67627834D01*
X116568317Y-67631351D01*
X116581946Y-67636228D01*
X116595031Y-67642417D01*
X116607447Y-67649858D01*
X116619073Y-67658481D01*
X116629798Y-67668202D01*
X116639519Y-67678927D01*
X116648142Y-67690553D01*
X116655583Y-67702969D01*
X116661772Y-67716054D01*
X116666649Y-67729683D01*
X116670166Y-67743724D01*
X116672290Y-67758042D01*
X116673000Y-67772500D01*
X116673000Y-68117500D01*
X116672290Y-68131958D01*
X116670166Y-68146276D01*
X116666649Y-68160317D01*
X116661772Y-68173946D01*
X116655583Y-68187031D01*
X116648142Y-68199447D01*
X116639519Y-68211073D01*
X116629798Y-68221798D01*
X116619073Y-68231519D01*
X116607447Y-68240142D01*
X116595031Y-68247583D01*
X116581946Y-68253772D01*
X116568317Y-68258649D01*
X116554276Y-68262166D01*
X116539958Y-68264290D01*
X116525500Y-68265000D01*
X116230500Y-68265000D01*
X116216042Y-68264290D01*
X116201724Y-68262166D01*
X116187683Y-68258649D01*
X116174054Y-68253772D01*
X116160969Y-68247583D01*
X116148553Y-68240142D01*
X116136927Y-68231519D01*
X116126202Y-68221798D01*
X116116481Y-68211073D01*
X116107858Y-68199447D01*
X116100417Y-68187031D01*
X116094228Y-68173946D01*
X116089351Y-68160317D01*
X116085834Y-68146276D01*
X116083710Y-68131958D01*
X116083000Y-68117500D01*
X116083000Y-67772500D01*
X116083710Y-67758042D01*
X116085834Y-67743724D01*
X116089351Y-67729683D01*
X116094228Y-67716054D01*
X116100417Y-67702969D01*
X116107858Y-67690553D01*
X116116481Y-67678927D01*
X116126202Y-67668202D01*
X116136927Y-67658481D01*
X116148553Y-67649858D01*
X116160969Y-67642417D01*
X116174054Y-67636228D01*
X116187683Y-67631351D01*
X116201724Y-67627834D01*
X116216042Y-67625710D01*
X116230500Y-67625000D01*
X116525500Y-67625000D01*
X116539958Y-67625710D01*
X116539958Y-67625710D01*
G37*
D12*
X116378000Y-67945000D03*
G04 #@! TD*
D13*
G04 #@! TO.C,J604*
X124460000Y-77470000D03*
D14*
X127000000Y-77470000D03*
X129540000Y-77470000D03*
G04 #@! TD*
D11*
G04 #@! TO.C,C101*
G36*
X112291691Y-76170053D02*
X112312926Y-76173203D01*
X112333750Y-76178419D01*
X112353962Y-76185651D01*
X112373368Y-76194830D01*
X112391781Y-76205866D01*
X112409024Y-76218654D01*
X112424930Y-76233070D01*
X112439346Y-76248976D01*
X112452134Y-76266219D01*
X112463170Y-76284632D01*
X112472349Y-76304038D01*
X112479581Y-76324250D01*
X112484797Y-76345074D01*
X112487947Y-76366309D01*
X112489000Y-76387750D01*
X112489000Y-76825250D01*
X112487947Y-76846691D01*
X112484797Y-76867926D01*
X112479581Y-76888750D01*
X112472349Y-76908962D01*
X112463170Y-76928368D01*
X112452134Y-76946781D01*
X112439346Y-76964024D01*
X112424930Y-76979930D01*
X112409024Y-76994346D01*
X112391781Y-77007134D01*
X112373368Y-77018170D01*
X112353962Y-77027349D01*
X112333750Y-77034581D01*
X112312926Y-77039797D01*
X112291691Y-77042947D01*
X112270250Y-77044000D01*
X111757750Y-77044000D01*
X111736309Y-77042947D01*
X111715074Y-77039797D01*
X111694250Y-77034581D01*
X111674038Y-77027349D01*
X111654632Y-77018170D01*
X111636219Y-77007134D01*
X111618976Y-76994346D01*
X111603070Y-76979930D01*
X111588654Y-76964024D01*
X111575866Y-76946781D01*
X111564830Y-76928368D01*
X111555651Y-76908962D01*
X111548419Y-76888750D01*
X111543203Y-76867926D01*
X111540053Y-76846691D01*
X111539000Y-76825250D01*
X111539000Y-76387750D01*
X111540053Y-76366309D01*
X111543203Y-76345074D01*
X111548419Y-76324250D01*
X111555651Y-76304038D01*
X111564830Y-76284632D01*
X111575866Y-76266219D01*
X111588654Y-76248976D01*
X111603070Y-76233070D01*
X111618976Y-76218654D01*
X111636219Y-76205866D01*
X111654632Y-76194830D01*
X111674038Y-76185651D01*
X111694250Y-76178419D01*
X111715074Y-76173203D01*
X111736309Y-76170053D01*
X111757750Y-76169000D01*
X112270250Y-76169000D01*
X112291691Y-76170053D01*
X112291691Y-76170053D01*
G37*
D15*
X112014000Y-76606500D03*
D11*
G36*
X112291691Y-74595053D02*
X112312926Y-74598203D01*
X112333750Y-74603419D01*
X112353962Y-74610651D01*
X112373368Y-74619830D01*
X112391781Y-74630866D01*
X112409024Y-74643654D01*
X112424930Y-74658070D01*
X112439346Y-74673976D01*
X112452134Y-74691219D01*
X112463170Y-74709632D01*
X112472349Y-74729038D01*
X112479581Y-74749250D01*
X112484797Y-74770074D01*
X112487947Y-74791309D01*
X112489000Y-74812750D01*
X112489000Y-75250250D01*
X112487947Y-75271691D01*
X112484797Y-75292926D01*
X112479581Y-75313750D01*
X112472349Y-75333962D01*
X112463170Y-75353368D01*
X112452134Y-75371781D01*
X112439346Y-75389024D01*
X112424930Y-75404930D01*
X112409024Y-75419346D01*
X112391781Y-75432134D01*
X112373368Y-75443170D01*
X112353962Y-75452349D01*
X112333750Y-75459581D01*
X112312926Y-75464797D01*
X112291691Y-75467947D01*
X112270250Y-75469000D01*
X111757750Y-75469000D01*
X111736309Y-75467947D01*
X111715074Y-75464797D01*
X111694250Y-75459581D01*
X111674038Y-75452349D01*
X111654632Y-75443170D01*
X111636219Y-75432134D01*
X111618976Y-75419346D01*
X111603070Y-75404930D01*
X111588654Y-75389024D01*
X111575866Y-75371781D01*
X111564830Y-75353368D01*
X111555651Y-75333962D01*
X111548419Y-75313750D01*
X111543203Y-75292926D01*
X111540053Y-75271691D01*
X111539000Y-75250250D01*
X111539000Y-74812750D01*
X111540053Y-74791309D01*
X111543203Y-74770074D01*
X111548419Y-74749250D01*
X111555651Y-74729038D01*
X111564830Y-74709632D01*
X111575866Y-74691219D01*
X111588654Y-74673976D01*
X111603070Y-74658070D01*
X111618976Y-74643654D01*
X111636219Y-74630866D01*
X111654632Y-74619830D01*
X111674038Y-74610651D01*
X111694250Y-74603419D01*
X111715074Y-74598203D01*
X111736309Y-74595053D01*
X111757750Y-74594000D01*
X112270250Y-74594000D01*
X112291691Y-74595053D01*
X112291691Y-74595053D01*
G37*
D15*
X112014000Y-75031500D03*
G04 #@! TD*
D11*
G04 #@! TO.C,C102*
G36*
X115502958Y-78214710D02*
X115517276Y-78216834D01*
X115531317Y-78220351D01*
X115544946Y-78225228D01*
X115558031Y-78231417D01*
X115570447Y-78238858D01*
X115582073Y-78247481D01*
X115592798Y-78257202D01*
X115602519Y-78267927D01*
X115611142Y-78279553D01*
X115618583Y-78291969D01*
X115624772Y-78305054D01*
X115629649Y-78318683D01*
X115633166Y-78332724D01*
X115635290Y-78347042D01*
X115636000Y-78361500D01*
X115636000Y-78656500D01*
X115635290Y-78670958D01*
X115633166Y-78685276D01*
X115629649Y-78699317D01*
X115624772Y-78712946D01*
X115618583Y-78726031D01*
X115611142Y-78738447D01*
X115602519Y-78750073D01*
X115592798Y-78760798D01*
X115582073Y-78770519D01*
X115570447Y-78779142D01*
X115558031Y-78786583D01*
X115544946Y-78792772D01*
X115531317Y-78797649D01*
X115517276Y-78801166D01*
X115502958Y-78803290D01*
X115488500Y-78804000D01*
X115143500Y-78804000D01*
X115129042Y-78803290D01*
X115114724Y-78801166D01*
X115100683Y-78797649D01*
X115087054Y-78792772D01*
X115073969Y-78786583D01*
X115061553Y-78779142D01*
X115049927Y-78770519D01*
X115039202Y-78760798D01*
X115029481Y-78750073D01*
X115020858Y-78738447D01*
X115013417Y-78726031D01*
X115007228Y-78712946D01*
X115002351Y-78699317D01*
X114998834Y-78685276D01*
X114996710Y-78670958D01*
X114996000Y-78656500D01*
X114996000Y-78361500D01*
X114996710Y-78347042D01*
X114998834Y-78332724D01*
X115002351Y-78318683D01*
X115007228Y-78305054D01*
X115013417Y-78291969D01*
X115020858Y-78279553D01*
X115029481Y-78267927D01*
X115039202Y-78257202D01*
X115049927Y-78247481D01*
X115061553Y-78238858D01*
X115073969Y-78231417D01*
X115087054Y-78225228D01*
X115100683Y-78220351D01*
X115114724Y-78216834D01*
X115129042Y-78214710D01*
X115143500Y-78214000D01*
X115488500Y-78214000D01*
X115502958Y-78214710D01*
X115502958Y-78214710D01*
G37*
D12*
X115316000Y-78509000D03*
D11*
G36*
X115502958Y-79184710D02*
X115517276Y-79186834D01*
X115531317Y-79190351D01*
X115544946Y-79195228D01*
X115558031Y-79201417D01*
X115570447Y-79208858D01*
X115582073Y-79217481D01*
X115592798Y-79227202D01*
X115602519Y-79237927D01*
X115611142Y-79249553D01*
X115618583Y-79261969D01*
X115624772Y-79275054D01*
X115629649Y-79288683D01*
X115633166Y-79302724D01*
X115635290Y-79317042D01*
X115636000Y-79331500D01*
X115636000Y-79626500D01*
X115635290Y-79640958D01*
X115633166Y-79655276D01*
X115629649Y-79669317D01*
X115624772Y-79682946D01*
X115618583Y-79696031D01*
X115611142Y-79708447D01*
X115602519Y-79720073D01*
X115592798Y-79730798D01*
X115582073Y-79740519D01*
X115570447Y-79749142D01*
X115558031Y-79756583D01*
X115544946Y-79762772D01*
X115531317Y-79767649D01*
X115517276Y-79771166D01*
X115502958Y-79773290D01*
X115488500Y-79774000D01*
X115143500Y-79774000D01*
X115129042Y-79773290D01*
X115114724Y-79771166D01*
X115100683Y-79767649D01*
X115087054Y-79762772D01*
X115073969Y-79756583D01*
X115061553Y-79749142D01*
X115049927Y-79740519D01*
X115039202Y-79730798D01*
X115029481Y-79720073D01*
X115020858Y-79708447D01*
X115013417Y-79696031D01*
X115007228Y-79682946D01*
X115002351Y-79669317D01*
X114998834Y-79655276D01*
X114996710Y-79640958D01*
X114996000Y-79626500D01*
X114996000Y-79331500D01*
X114996710Y-79317042D01*
X114998834Y-79302724D01*
X115002351Y-79288683D01*
X115007228Y-79275054D01*
X115013417Y-79261969D01*
X115020858Y-79249553D01*
X115029481Y-79237927D01*
X115039202Y-79227202D01*
X115049927Y-79217481D01*
X115061553Y-79208858D01*
X115073969Y-79201417D01*
X115087054Y-79195228D01*
X115100683Y-79190351D01*
X115114724Y-79186834D01*
X115129042Y-79184710D01*
X115143500Y-79184000D01*
X115488500Y-79184000D01*
X115502958Y-79184710D01*
X115502958Y-79184710D01*
G37*
D12*
X115316000Y-79479000D03*
G04 #@! TD*
D11*
G04 #@! TO.C,C103*
G36*
X115502958Y-75166710D02*
X115517276Y-75168834D01*
X115531317Y-75172351D01*
X115544946Y-75177228D01*
X115558031Y-75183417D01*
X115570447Y-75190858D01*
X115582073Y-75199481D01*
X115592798Y-75209202D01*
X115602519Y-75219927D01*
X115611142Y-75231553D01*
X115618583Y-75243969D01*
X115624772Y-75257054D01*
X115629649Y-75270683D01*
X115633166Y-75284724D01*
X115635290Y-75299042D01*
X115636000Y-75313500D01*
X115636000Y-75608500D01*
X115635290Y-75622958D01*
X115633166Y-75637276D01*
X115629649Y-75651317D01*
X115624772Y-75664946D01*
X115618583Y-75678031D01*
X115611142Y-75690447D01*
X115602519Y-75702073D01*
X115592798Y-75712798D01*
X115582073Y-75722519D01*
X115570447Y-75731142D01*
X115558031Y-75738583D01*
X115544946Y-75744772D01*
X115531317Y-75749649D01*
X115517276Y-75753166D01*
X115502958Y-75755290D01*
X115488500Y-75756000D01*
X115143500Y-75756000D01*
X115129042Y-75755290D01*
X115114724Y-75753166D01*
X115100683Y-75749649D01*
X115087054Y-75744772D01*
X115073969Y-75738583D01*
X115061553Y-75731142D01*
X115049927Y-75722519D01*
X115039202Y-75712798D01*
X115029481Y-75702073D01*
X115020858Y-75690447D01*
X115013417Y-75678031D01*
X115007228Y-75664946D01*
X115002351Y-75651317D01*
X114998834Y-75637276D01*
X114996710Y-75622958D01*
X114996000Y-75608500D01*
X114996000Y-75313500D01*
X114996710Y-75299042D01*
X114998834Y-75284724D01*
X115002351Y-75270683D01*
X115007228Y-75257054D01*
X115013417Y-75243969D01*
X115020858Y-75231553D01*
X115029481Y-75219927D01*
X115039202Y-75209202D01*
X115049927Y-75199481D01*
X115061553Y-75190858D01*
X115073969Y-75183417D01*
X115087054Y-75177228D01*
X115100683Y-75172351D01*
X115114724Y-75168834D01*
X115129042Y-75166710D01*
X115143500Y-75166000D01*
X115488500Y-75166000D01*
X115502958Y-75166710D01*
X115502958Y-75166710D01*
G37*
D12*
X115316000Y-75461000D03*
D11*
G36*
X115502958Y-76136710D02*
X115517276Y-76138834D01*
X115531317Y-76142351D01*
X115544946Y-76147228D01*
X115558031Y-76153417D01*
X115570447Y-76160858D01*
X115582073Y-76169481D01*
X115592798Y-76179202D01*
X115602519Y-76189927D01*
X115611142Y-76201553D01*
X115618583Y-76213969D01*
X115624772Y-76227054D01*
X115629649Y-76240683D01*
X115633166Y-76254724D01*
X115635290Y-76269042D01*
X115636000Y-76283500D01*
X115636000Y-76578500D01*
X115635290Y-76592958D01*
X115633166Y-76607276D01*
X115629649Y-76621317D01*
X115624772Y-76634946D01*
X115618583Y-76648031D01*
X115611142Y-76660447D01*
X115602519Y-76672073D01*
X115592798Y-76682798D01*
X115582073Y-76692519D01*
X115570447Y-76701142D01*
X115558031Y-76708583D01*
X115544946Y-76714772D01*
X115531317Y-76719649D01*
X115517276Y-76723166D01*
X115502958Y-76725290D01*
X115488500Y-76726000D01*
X115143500Y-76726000D01*
X115129042Y-76725290D01*
X115114724Y-76723166D01*
X115100683Y-76719649D01*
X115087054Y-76714772D01*
X115073969Y-76708583D01*
X115061553Y-76701142D01*
X115049927Y-76692519D01*
X115039202Y-76682798D01*
X115029481Y-76672073D01*
X115020858Y-76660447D01*
X115013417Y-76648031D01*
X115007228Y-76634946D01*
X115002351Y-76621317D01*
X114998834Y-76607276D01*
X114996710Y-76592958D01*
X114996000Y-76578500D01*
X114996000Y-76283500D01*
X114996710Y-76269042D01*
X114998834Y-76254724D01*
X115002351Y-76240683D01*
X115007228Y-76227054D01*
X115013417Y-76213969D01*
X115020858Y-76201553D01*
X115029481Y-76189927D01*
X115039202Y-76179202D01*
X115049927Y-76169481D01*
X115061553Y-76160858D01*
X115073969Y-76153417D01*
X115087054Y-76147228D01*
X115100683Y-76142351D01*
X115114724Y-76138834D01*
X115129042Y-76136710D01*
X115143500Y-76136000D01*
X115488500Y-76136000D01*
X115502958Y-76136710D01*
X115502958Y-76136710D01*
G37*
D12*
X115316000Y-76431000D03*
G04 #@! TD*
D16*
G04 #@! TO.C,C301*
X174625000Y-82550000D03*
D17*
X174625000Y-79050000D03*
G04 #@! TD*
D11*
G04 #@! TO.C,C303*
G36*
X166683958Y-73642710D02*
X166698276Y-73644834D01*
X166712317Y-73648351D01*
X166725946Y-73653228D01*
X166739031Y-73659417D01*
X166751447Y-73666858D01*
X166763073Y-73675481D01*
X166773798Y-73685202D01*
X166783519Y-73695927D01*
X166792142Y-73707553D01*
X166799583Y-73719969D01*
X166805772Y-73733054D01*
X166810649Y-73746683D01*
X166814166Y-73760724D01*
X166816290Y-73775042D01*
X166817000Y-73789500D01*
X166817000Y-74084500D01*
X166816290Y-74098958D01*
X166814166Y-74113276D01*
X166810649Y-74127317D01*
X166805772Y-74140946D01*
X166799583Y-74154031D01*
X166792142Y-74166447D01*
X166783519Y-74178073D01*
X166773798Y-74188798D01*
X166763073Y-74198519D01*
X166751447Y-74207142D01*
X166739031Y-74214583D01*
X166725946Y-74220772D01*
X166712317Y-74225649D01*
X166698276Y-74229166D01*
X166683958Y-74231290D01*
X166669500Y-74232000D01*
X166324500Y-74232000D01*
X166310042Y-74231290D01*
X166295724Y-74229166D01*
X166281683Y-74225649D01*
X166268054Y-74220772D01*
X166254969Y-74214583D01*
X166242553Y-74207142D01*
X166230927Y-74198519D01*
X166220202Y-74188798D01*
X166210481Y-74178073D01*
X166201858Y-74166447D01*
X166194417Y-74154031D01*
X166188228Y-74140946D01*
X166183351Y-74127317D01*
X166179834Y-74113276D01*
X166177710Y-74098958D01*
X166177000Y-74084500D01*
X166177000Y-73789500D01*
X166177710Y-73775042D01*
X166179834Y-73760724D01*
X166183351Y-73746683D01*
X166188228Y-73733054D01*
X166194417Y-73719969D01*
X166201858Y-73707553D01*
X166210481Y-73695927D01*
X166220202Y-73685202D01*
X166230927Y-73675481D01*
X166242553Y-73666858D01*
X166254969Y-73659417D01*
X166268054Y-73653228D01*
X166281683Y-73648351D01*
X166295724Y-73644834D01*
X166310042Y-73642710D01*
X166324500Y-73642000D01*
X166669500Y-73642000D01*
X166683958Y-73642710D01*
X166683958Y-73642710D01*
G37*
D12*
X166497000Y-73937000D03*
D11*
G36*
X166683958Y-74612710D02*
X166698276Y-74614834D01*
X166712317Y-74618351D01*
X166725946Y-74623228D01*
X166739031Y-74629417D01*
X166751447Y-74636858D01*
X166763073Y-74645481D01*
X166773798Y-74655202D01*
X166783519Y-74665927D01*
X166792142Y-74677553D01*
X166799583Y-74689969D01*
X166805772Y-74703054D01*
X166810649Y-74716683D01*
X166814166Y-74730724D01*
X166816290Y-74745042D01*
X166817000Y-74759500D01*
X166817000Y-75054500D01*
X166816290Y-75068958D01*
X166814166Y-75083276D01*
X166810649Y-75097317D01*
X166805772Y-75110946D01*
X166799583Y-75124031D01*
X166792142Y-75136447D01*
X166783519Y-75148073D01*
X166773798Y-75158798D01*
X166763073Y-75168519D01*
X166751447Y-75177142D01*
X166739031Y-75184583D01*
X166725946Y-75190772D01*
X166712317Y-75195649D01*
X166698276Y-75199166D01*
X166683958Y-75201290D01*
X166669500Y-75202000D01*
X166324500Y-75202000D01*
X166310042Y-75201290D01*
X166295724Y-75199166D01*
X166281683Y-75195649D01*
X166268054Y-75190772D01*
X166254969Y-75184583D01*
X166242553Y-75177142D01*
X166230927Y-75168519D01*
X166220202Y-75158798D01*
X166210481Y-75148073D01*
X166201858Y-75136447D01*
X166194417Y-75124031D01*
X166188228Y-75110946D01*
X166183351Y-75097317D01*
X166179834Y-75083276D01*
X166177710Y-75068958D01*
X166177000Y-75054500D01*
X166177000Y-74759500D01*
X166177710Y-74745042D01*
X166179834Y-74730724D01*
X166183351Y-74716683D01*
X166188228Y-74703054D01*
X166194417Y-74689969D01*
X166201858Y-74677553D01*
X166210481Y-74665927D01*
X166220202Y-74655202D01*
X166230927Y-74645481D01*
X166242553Y-74636858D01*
X166254969Y-74629417D01*
X166268054Y-74623228D01*
X166281683Y-74618351D01*
X166295724Y-74614834D01*
X166310042Y-74612710D01*
X166324500Y-74612000D01*
X166669500Y-74612000D01*
X166683958Y-74612710D01*
X166683958Y-74612710D01*
G37*
D12*
X166497000Y-74907000D03*
G04 #@! TD*
D11*
G04 #@! TO.C,C304*
G36*
X162873958Y-68158710D02*
X162888276Y-68160834D01*
X162902317Y-68164351D01*
X162915946Y-68169228D01*
X162929031Y-68175417D01*
X162941447Y-68182858D01*
X162953073Y-68191481D01*
X162963798Y-68201202D01*
X162973519Y-68211927D01*
X162982142Y-68223553D01*
X162989583Y-68235969D01*
X162995772Y-68249054D01*
X163000649Y-68262683D01*
X163004166Y-68276724D01*
X163006290Y-68291042D01*
X163007000Y-68305500D01*
X163007000Y-68600500D01*
X163006290Y-68614958D01*
X163004166Y-68629276D01*
X163000649Y-68643317D01*
X162995772Y-68656946D01*
X162989583Y-68670031D01*
X162982142Y-68682447D01*
X162973519Y-68694073D01*
X162963798Y-68704798D01*
X162953073Y-68714519D01*
X162941447Y-68723142D01*
X162929031Y-68730583D01*
X162915946Y-68736772D01*
X162902317Y-68741649D01*
X162888276Y-68745166D01*
X162873958Y-68747290D01*
X162859500Y-68748000D01*
X162514500Y-68748000D01*
X162500042Y-68747290D01*
X162485724Y-68745166D01*
X162471683Y-68741649D01*
X162458054Y-68736772D01*
X162444969Y-68730583D01*
X162432553Y-68723142D01*
X162420927Y-68714519D01*
X162410202Y-68704798D01*
X162400481Y-68694073D01*
X162391858Y-68682447D01*
X162384417Y-68670031D01*
X162378228Y-68656946D01*
X162373351Y-68643317D01*
X162369834Y-68629276D01*
X162367710Y-68614958D01*
X162367000Y-68600500D01*
X162367000Y-68305500D01*
X162367710Y-68291042D01*
X162369834Y-68276724D01*
X162373351Y-68262683D01*
X162378228Y-68249054D01*
X162384417Y-68235969D01*
X162391858Y-68223553D01*
X162400481Y-68211927D01*
X162410202Y-68201202D01*
X162420927Y-68191481D01*
X162432553Y-68182858D01*
X162444969Y-68175417D01*
X162458054Y-68169228D01*
X162471683Y-68164351D01*
X162485724Y-68160834D01*
X162500042Y-68158710D01*
X162514500Y-68158000D01*
X162859500Y-68158000D01*
X162873958Y-68158710D01*
X162873958Y-68158710D01*
G37*
D12*
X162687000Y-68453000D03*
D11*
G36*
X162873958Y-67188710D02*
X162888276Y-67190834D01*
X162902317Y-67194351D01*
X162915946Y-67199228D01*
X162929031Y-67205417D01*
X162941447Y-67212858D01*
X162953073Y-67221481D01*
X162963798Y-67231202D01*
X162973519Y-67241927D01*
X162982142Y-67253553D01*
X162989583Y-67265969D01*
X162995772Y-67279054D01*
X163000649Y-67292683D01*
X163004166Y-67306724D01*
X163006290Y-67321042D01*
X163007000Y-67335500D01*
X163007000Y-67630500D01*
X163006290Y-67644958D01*
X163004166Y-67659276D01*
X163000649Y-67673317D01*
X162995772Y-67686946D01*
X162989583Y-67700031D01*
X162982142Y-67712447D01*
X162973519Y-67724073D01*
X162963798Y-67734798D01*
X162953073Y-67744519D01*
X162941447Y-67753142D01*
X162929031Y-67760583D01*
X162915946Y-67766772D01*
X162902317Y-67771649D01*
X162888276Y-67775166D01*
X162873958Y-67777290D01*
X162859500Y-67778000D01*
X162514500Y-67778000D01*
X162500042Y-67777290D01*
X162485724Y-67775166D01*
X162471683Y-67771649D01*
X162458054Y-67766772D01*
X162444969Y-67760583D01*
X162432553Y-67753142D01*
X162420927Y-67744519D01*
X162410202Y-67734798D01*
X162400481Y-67724073D01*
X162391858Y-67712447D01*
X162384417Y-67700031D01*
X162378228Y-67686946D01*
X162373351Y-67673317D01*
X162369834Y-67659276D01*
X162367710Y-67644958D01*
X162367000Y-67630500D01*
X162367000Y-67335500D01*
X162367710Y-67321042D01*
X162369834Y-67306724D01*
X162373351Y-67292683D01*
X162378228Y-67279054D01*
X162384417Y-67265969D01*
X162391858Y-67253553D01*
X162400481Y-67241927D01*
X162410202Y-67231202D01*
X162420927Y-67221481D01*
X162432553Y-67212858D01*
X162444969Y-67205417D01*
X162458054Y-67199228D01*
X162471683Y-67194351D01*
X162485724Y-67190834D01*
X162500042Y-67188710D01*
X162514500Y-67188000D01*
X162859500Y-67188000D01*
X162873958Y-67188710D01*
X162873958Y-67188710D01*
G37*
D12*
X162687000Y-67483000D03*
G04 #@! TD*
D11*
G04 #@! TO.C,C305*
G36*
X165667958Y-74612710D02*
X165682276Y-74614834D01*
X165696317Y-74618351D01*
X165709946Y-74623228D01*
X165723031Y-74629417D01*
X165735447Y-74636858D01*
X165747073Y-74645481D01*
X165757798Y-74655202D01*
X165767519Y-74665927D01*
X165776142Y-74677553D01*
X165783583Y-74689969D01*
X165789772Y-74703054D01*
X165794649Y-74716683D01*
X165798166Y-74730724D01*
X165800290Y-74745042D01*
X165801000Y-74759500D01*
X165801000Y-75054500D01*
X165800290Y-75068958D01*
X165798166Y-75083276D01*
X165794649Y-75097317D01*
X165789772Y-75110946D01*
X165783583Y-75124031D01*
X165776142Y-75136447D01*
X165767519Y-75148073D01*
X165757798Y-75158798D01*
X165747073Y-75168519D01*
X165735447Y-75177142D01*
X165723031Y-75184583D01*
X165709946Y-75190772D01*
X165696317Y-75195649D01*
X165682276Y-75199166D01*
X165667958Y-75201290D01*
X165653500Y-75202000D01*
X165308500Y-75202000D01*
X165294042Y-75201290D01*
X165279724Y-75199166D01*
X165265683Y-75195649D01*
X165252054Y-75190772D01*
X165238969Y-75184583D01*
X165226553Y-75177142D01*
X165214927Y-75168519D01*
X165204202Y-75158798D01*
X165194481Y-75148073D01*
X165185858Y-75136447D01*
X165178417Y-75124031D01*
X165172228Y-75110946D01*
X165167351Y-75097317D01*
X165163834Y-75083276D01*
X165161710Y-75068958D01*
X165161000Y-75054500D01*
X165161000Y-74759500D01*
X165161710Y-74745042D01*
X165163834Y-74730724D01*
X165167351Y-74716683D01*
X165172228Y-74703054D01*
X165178417Y-74689969D01*
X165185858Y-74677553D01*
X165194481Y-74665927D01*
X165204202Y-74655202D01*
X165214927Y-74645481D01*
X165226553Y-74636858D01*
X165238969Y-74629417D01*
X165252054Y-74623228D01*
X165265683Y-74618351D01*
X165279724Y-74614834D01*
X165294042Y-74612710D01*
X165308500Y-74612000D01*
X165653500Y-74612000D01*
X165667958Y-74612710D01*
X165667958Y-74612710D01*
G37*
D12*
X165481000Y-74907000D03*
D11*
G36*
X165667958Y-73642710D02*
X165682276Y-73644834D01*
X165696317Y-73648351D01*
X165709946Y-73653228D01*
X165723031Y-73659417D01*
X165735447Y-73666858D01*
X165747073Y-73675481D01*
X165757798Y-73685202D01*
X165767519Y-73695927D01*
X165776142Y-73707553D01*
X165783583Y-73719969D01*
X165789772Y-73733054D01*
X165794649Y-73746683D01*
X165798166Y-73760724D01*
X165800290Y-73775042D01*
X165801000Y-73789500D01*
X165801000Y-74084500D01*
X165800290Y-74098958D01*
X165798166Y-74113276D01*
X165794649Y-74127317D01*
X165789772Y-74140946D01*
X165783583Y-74154031D01*
X165776142Y-74166447D01*
X165767519Y-74178073D01*
X165757798Y-74188798D01*
X165747073Y-74198519D01*
X165735447Y-74207142D01*
X165723031Y-74214583D01*
X165709946Y-74220772D01*
X165696317Y-74225649D01*
X165682276Y-74229166D01*
X165667958Y-74231290D01*
X165653500Y-74232000D01*
X165308500Y-74232000D01*
X165294042Y-74231290D01*
X165279724Y-74229166D01*
X165265683Y-74225649D01*
X165252054Y-74220772D01*
X165238969Y-74214583D01*
X165226553Y-74207142D01*
X165214927Y-74198519D01*
X165204202Y-74188798D01*
X165194481Y-74178073D01*
X165185858Y-74166447D01*
X165178417Y-74154031D01*
X165172228Y-74140946D01*
X165167351Y-74127317D01*
X165163834Y-74113276D01*
X165161710Y-74098958D01*
X165161000Y-74084500D01*
X165161000Y-73789500D01*
X165161710Y-73775042D01*
X165163834Y-73760724D01*
X165167351Y-73746683D01*
X165172228Y-73733054D01*
X165178417Y-73719969D01*
X165185858Y-73707553D01*
X165194481Y-73695927D01*
X165204202Y-73685202D01*
X165214927Y-73675481D01*
X165226553Y-73666858D01*
X165238969Y-73659417D01*
X165252054Y-73653228D01*
X165265683Y-73648351D01*
X165279724Y-73644834D01*
X165294042Y-73642710D01*
X165308500Y-73642000D01*
X165653500Y-73642000D01*
X165667958Y-73642710D01*
X165667958Y-73642710D01*
G37*
D12*
X165481000Y-73937000D03*
G04 #@! TD*
D11*
G04 #@! TO.C,C306*
G36*
X163760958Y-73594710D02*
X163775276Y-73596834D01*
X163789317Y-73600351D01*
X163802946Y-73605228D01*
X163816031Y-73611417D01*
X163828447Y-73618858D01*
X163840073Y-73627481D01*
X163850798Y-73637202D01*
X163860519Y-73647927D01*
X163869142Y-73659553D01*
X163876583Y-73671969D01*
X163882772Y-73685054D01*
X163887649Y-73698683D01*
X163891166Y-73712724D01*
X163893290Y-73727042D01*
X163894000Y-73741500D01*
X163894000Y-74086500D01*
X163893290Y-74100958D01*
X163891166Y-74115276D01*
X163887649Y-74129317D01*
X163882772Y-74142946D01*
X163876583Y-74156031D01*
X163869142Y-74168447D01*
X163860519Y-74180073D01*
X163850798Y-74190798D01*
X163840073Y-74200519D01*
X163828447Y-74209142D01*
X163816031Y-74216583D01*
X163802946Y-74222772D01*
X163789317Y-74227649D01*
X163775276Y-74231166D01*
X163760958Y-74233290D01*
X163746500Y-74234000D01*
X163451500Y-74234000D01*
X163437042Y-74233290D01*
X163422724Y-74231166D01*
X163408683Y-74227649D01*
X163395054Y-74222772D01*
X163381969Y-74216583D01*
X163369553Y-74209142D01*
X163357927Y-74200519D01*
X163347202Y-74190798D01*
X163337481Y-74180073D01*
X163328858Y-74168447D01*
X163321417Y-74156031D01*
X163315228Y-74142946D01*
X163310351Y-74129317D01*
X163306834Y-74115276D01*
X163304710Y-74100958D01*
X163304000Y-74086500D01*
X163304000Y-73741500D01*
X163304710Y-73727042D01*
X163306834Y-73712724D01*
X163310351Y-73698683D01*
X163315228Y-73685054D01*
X163321417Y-73671969D01*
X163328858Y-73659553D01*
X163337481Y-73647927D01*
X163347202Y-73637202D01*
X163357927Y-73627481D01*
X163369553Y-73618858D01*
X163381969Y-73611417D01*
X163395054Y-73605228D01*
X163408683Y-73600351D01*
X163422724Y-73596834D01*
X163437042Y-73594710D01*
X163451500Y-73594000D01*
X163746500Y-73594000D01*
X163760958Y-73594710D01*
X163760958Y-73594710D01*
G37*
D12*
X163599000Y-73914000D03*
D11*
G36*
X164730958Y-73594710D02*
X164745276Y-73596834D01*
X164759317Y-73600351D01*
X164772946Y-73605228D01*
X164786031Y-73611417D01*
X164798447Y-73618858D01*
X164810073Y-73627481D01*
X164820798Y-73637202D01*
X164830519Y-73647927D01*
X164839142Y-73659553D01*
X164846583Y-73671969D01*
X164852772Y-73685054D01*
X164857649Y-73698683D01*
X164861166Y-73712724D01*
X164863290Y-73727042D01*
X164864000Y-73741500D01*
X164864000Y-74086500D01*
X164863290Y-74100958D01*
X164861166Y-74115276D01*
X164857649Y-74129317D01*
X164852772Y-74142946D01*
X164846583Y-74156031D01*
X164839142Y-74168447D01*
X164830519Y-74180073D01*
X164820798Y-74190798D01*
X164810073Y-74200519D01*
X164798447Y-74209142D01*
X164786031Y-74216583D01*
X164772946Y-74222772D01*
X164759317Y-74227649D01*
X164745276Y-74231166D01*
X164730958Y-74233290D01*
X164716500Y-74234000D01*
X164421500Y-74234000D01*
X164407042Y-74233290D01*
X164392724Y-74231166D01*
X164378683Y-74227649D01*
X164365054Y-74222772D01*
X164351969Y-74216583D01*
X164339553Y-74209142D01*
X164327927Y-74200519D01*
X164317202Y-74190798D01*
X164307481Y-74180073D01*
X164298858Y-74168447D01*
X164291417Y-74156031D01*
X164285228Y-74142946D01*
X164280351Y-74129317D01*
X164276834Y-74115276D01*
X164274710Y-74100958D01*
X164274000Y-74086500D01*
X164274000Y-73741500D01*
X164274710Y-73727042D01*
X164276834Y-73712724D01*
X164280351Y-73698683D01*
X164285228Y-73685054D01*
X164291417Y-73671969D01*
X164298858Y-73659553D01*
X164307481Y-73647927D01*
X164317202Y-73637202D01*
X164327927Y-73627481D01*
X164339553Y-73618858D01*
X164351969Y-73611417D01*
X164365054Y-73605228D01*
X164378683Y-73600351D01*
X164392724Y-73596834D01*
X164407042Y-73594710D01*
X164421500Y-73594000D01*
X164716500Y-73594000D01*
X164730958Y-73594710D01*
X164730958Y-73594710D01*
G37*
D12*
X164569000Y-73914000D03*
G04 #@! TD*
D11*
G04 #@! TO.C,C401*
G36*
X118550958Y-70975710D02*
X118565276Y-70977834D01*
X118579317Y-70981351D01*
X118592946Y-70986228D01*
X118606031Y-70992417D01*
X118618447Y-70999858D01*
X118630073Y-71008481D01*
X118640798Y-71018202D01*
X118650519Y-71028927D01*
X118659142Y-71040553D01*
X118666583Y-71052969D01*
X118672772Y-71066054D01*
X118677649Y-71079683D01*
X118681166Y-71093724D01*
X118683290Y-71108042D01*
X118684000Y-71122500D01*
X118684000Y-71417500D01*
X118683290Y-71431958D01*
X118681166Y-71446276D01*
X118677649Y-71460317D01*
X118672772Y-71473946D01*
X118666583Y-71487031D01*
X118659142Y-71499447D01*
X118650519Y-71511073D01*
X118640798Y-71521798D01*
X118630073Y-71531519D01*
X118618447Y-71540142D01*
X118606031Y-71547583D01*
X118592946Y-71553772D01*
X118579317Y-71558649D01*
X118565276Y-71562166D01*
X118550958Y-71564290D01*
X118536500Y-71565000D01*
X118191500Y-71565000D01*
X118177042Y-71564290D01*
X118162724Y-71562166D01*
X118148683Y-71558649D01*
X118135054Y-71553772D01*
X118121969Y-71547583D01*
X118109553Y-71540142D01*
X118097927Y-71531519D01*
X118087202Y-71521798D01*
X118077481Y-71511073D01*
X118068858Y-71499447D01*
X118061417Y-71487031D01*
X118055228Y-71473946D01*
X118050351Y-71460317D01*
X118046834Y-71446276D01*
X118044710Y-71431958D01*
X118044000Y-71417500D01*
X118044000Y-71122500D01*
X118044710Y-71108042D01*
X118046834Y-71093724D01*
X118050351Y-71079683D01*
X118055228Y-71066054D01*
X118061417Y-71052969D01*
X118068858Y-71040553D01*
X118077481Y-71028927D01*
X118087202Y-71018202D01*
X118097927Y-71008481D01*
X118109553Y-70999858D01*
X118121969Y-70992417D01*
X118135054Y-70986228D01*
X118148683Y-70981351D01*
X118162724Y-70977834D01*
X118177042Y-70975710D01*
X118191500Y-70975000D01*
X118536500Y-70975000D01*
X118550958Y-70975710D01*
X118550958Y-70975710D01*
G37*
D12*
X118364000Y-71270000D03*
D11*
G36*
X118550958Y-71945710D02*
X118565276Y-71947834D01*
X118579317Y-71951351D01*
X118592946Y-71956228D01*
X118606031Y-71962417D01*
X118618447Y-71969858D01*
X118630073Y-71978481D01*
X118640798Y-71988202D01*
X118650519Y-71998927D01*
X118659142Y-72010553D01*
X118666583Y-72022969D01*
X118672772Y-72036054D01*
X118677649Y-72049683D01*
X118681166Y-72063724D01*
X118683290Y-72078042D01*
X118684000Y-72092500D01*
X118684000Y-72387500D01*
X118683290Y-72401958D01*
X118681166Y-72416276D01*
X118677649Y-72430317D01*
X118672772Y-72443946D01*
X118666583Y-72457031D01*
X118659142Y-72469447D01*
X118650519Y-72481073D01*
X118640798Y-72491798D01*
X118630073Y-72501519D01*
X118618447Y-72510142D01*
X118606031Y-72517583D01*
X118592946Y-72523772D01*
X118579317Y-72528649D01*
X118565276Y-72532166D01*
X118550958Y-72534290D01*
X118536500Y-72535000D01*
X118191500Y-72535000D01*
X118177042Y-72534290D01*
X118162724Y-72532166D01*
X118148683Y-72528649D01*
X118135054Y-72523772D01*
X118121969Y-72517583D01*
X118109553Y-72510142D01*
X118097927Y-72501519D01*
X118087202Y-72491798D01*
X118077481Y-72481073D01*
X118068858Y-72469447D01*
X118061417Y-72457031D01*
X118055228Y-72443946D01*
X118050351Y-72430317D01*
X118046834Y-72416276D01*
X118044710Y-72401958D01*
X118044000Y-72387500D01*
X118044000Y-72092500D01*
X118044710Y-72078042D01*
X118046834Y-72063724D01*
X118050351Y-72049683D01*
X118055228Y-72036054D01*
X118061417Y-72022969D01*
X118068858Y-72010553D01*
X118077481Y-71998927D01*
X118087202Y-71988202D01*
X118097927Y-71978481D01*
X118109553Y-71969858D01*
X118121969Y-71962417D01*
X118135054Y-71956228D01*
X118148683Y-71951351D01*
X118162724Y-71947834D01*
X118177042Y-71945710D01*
X118191500Y-71945000D01*
X118536500Y-71945000D01*
X118550958Y-71945710D01*
X118550958Y-71945710D01*
G37*
D12*
X118364000Y-72240000D03*
G04 #@! TD*
D11*
G04 #@! TO.C,C601*
G36*
X132901958Y-66807710D02*
X132916276Y-66809834D01*
X132930317Y-66813351D01*
X132943946Y-66818228D01*
X132957031Y-66824417D01*
X132969447Y-66831858D01*
X132981073Y-66840481D01*
X132991798Y-66850202D01*
X133001519Y-66860927D01*
X133010142Y-66872553D01*
X133017583Y-66884969D01*
X133023772Y-66898054D01*
X133028649Y-66911683D01*
X133032166Y-66925724D01*
X133034290Y-66940042D01*
X133035000Y-66954500D01*
X133035000Y-67249500D01*
X133034290Y-67263958D01*
X133032166Y-67278276D01*
X133028649Y-67292317D01*
X133023772Y-67305946D01*
X133017583Y-67319031D01*
X133010142Y-67331447D01*
X133001519Y-67343073D01*
X132991798Y-67353798D01*
X132981073Y-67363519D01*
X132969447Y-67372142D01*
X132957031Y-67379583D01*
X132943946Y-67385772D01*
X132930317Y-67390649D01*
X132916276Y-67394166D01*
X132901958Y-67396290D01*
X132887500Y-67397000D01*
X132542500Y-67397000D01*
X132528042Y-67396290D01*
X132513724Y-67394166D01*
X132499683Y-67390649D01*
X132486054Y-67385772D01*
X132472969Y-67379583D01*
X132460553Y-67372142D01*
X132448927Y-67363519D01*
X132438202Y-67353798D01*
X132428481Y-67343073D01*
X132419858Y-67331447D01*
X132412417Y-67319031D01*
X132406228Y-67305946D01*
X132401351Y-67292317D01*
X132397834Y-67278276D01*
X132395710Y-67263958D01*
X132395000Y-67249500D01*
X132395000Y-66954500D01*
X132395710Y-66940042D01*
X132397834Y-66925724D01*
X132401351Y-66911683D01*
X132406228Y-66898054D01*
X132412417Y-66884969D01*
X132419858Y-66872553D01*
X132428481Y-66860927D01*
X132438202Y-66850202D01*
X132448927Y-66840481D01*
X132460553Y-66831858D01*
X132472969Y-66824417D01*
X132486054Y-66818228D01*
X132499683Y-66813351D01*
X132513724Y-66809834D01*
X132528042Y-66807710D01*
X132542500Y-66807000D01*
X132887500Y-66807000D01*
X132901958Y-66807710D01*
X132901958Y-66807710D01*
G37*
D12*
X132715000Y-67102000D03*
D11*
G36*
X132901958Y-67777710D02*
X132916276Y-67779834D01*
X132930317Y-67783351D01*
X132943946Y-67788228D01*
X132957031Y-67794417D01*
X132969447Y-67801858D01*
X132981073Y-67810481D01*
X132991798Y-67820202D01*
X133001519Y-67830927D01*
X133010142Y-67842553D01*
X133017583Y-67854969D01*
X133023772Y-67868054D01*
X133028649Y-67881683D01*
X133032166Y-67895724D01*
X133034290Y-67910042D01*
X133035000Y-67924500D01*
X133035000Y-68219500D01*
X133034290Y-68233958D01*
X133032166Y-68248276D01*
X133028649Y-68262317D01*
X133023772Y-68275946D01*
X133017583Y-68289031D01*
X133010142Y-68301447D01*
X133001519Y-68313073D01*
X132991798Y-68323798D01*
X132981073Y-68333519D01*
X132969447Y-68342142D01*
X132957031Y-68349583D01*
X132943946Y-68355772D01*
X132930317Y-68360649D01*
X132916276Y-68364166D01*
X132901958Y-68366290D01*
X132887500Y-68367000D01*
X132542500Y-68367000D01*
X132528042Y-68366290D01*
X132513724Y-68364166D01*
X132499683Y-68360649D01*
X132486054Y-68355772D01*
X132472969Y-68349583D01*
X132460553Y-68342142D01*
X132448927Y-68333519D01*
X132438202Y-68323798D01*
X132428481Y-68313073D01*
X132419858Y-68301447D01*
X132412417Y-68289031D01*
X132406228Y-68275946D01*
X132401351Y-68262317D01*
X132397834Y-68248276D01*
X132395710Y-68233958D01*
X132395000Y-68219500D01*
X132395000Y-67924500D01*
X132395710Y-67910042D01*
X132397834Y-67895724D01*
X132401351Y-67881683D01*
X132406228Y-67868054D01*
X132412417Y-67854969D01*
X132419858Y-67842553D01*
X132428481Y-67830927D01*
X132438202Y-67820202D01*
X132448927Y-67810481D01*
X132460553Y-67801858D01*
X132472969Y-67794417D01*
X132486054Y-67788228D01*
X132499683Y-67783351D01*
X132513724Y-67779834D01*
X132528042Y-67777710D01*
X132542500Y-67777000D01*
X132887500Y-67777000D01*
X132901958Y-67777710D01*
X132901958Y-67777710D01*
G37*
D12*
X132715000Y-68072000D03*
G04 #@! TD*
D11*
G04 #@! TO.C,C602*
G36*
X142759958Y-71435710D02*
X142774276Y-71437834D01*
X142788317Y-71441351D01*
X142801946Y-71446228D01*
X142815031Y-71452417D01*
X142827447Y-71459858D01*
X142839073Y-71468481D01*
X142849798Y-71478202D01*
X142859519Y-71488927D01*
X142868142Y-71500553D01*
X142875583Y-71512969D01*
X142881772Y-71526054D01*
X142886649Y-71539683D01*
X142890166Y-71553724D01*
X142892290Y-71568042D01*
X142893000Y-71582500D01*
X142893000Y-71927500D01*
X142892290Y-71941958D01*
X142890166Y-71956276D01*
X142886649Y-71970317D01*
X142881772Y-71983946D01*
X142875583Y-71997031D01*
X142868142Y-72009447D01*
X142859519Y-72021073D01*
X142849798Y-72031798D01*
X142839073Y-72041519D01*
X142827447Y-72050142D01*
X142815031Y-72057583D01*
X142801946Y-72063772D01*
X142788317Y-72068649D01*
X142774276Y-72072166D01*
X142759958Y-72074290D01*
X142745500Y-72075000D01*
X142450500Y-72075000D01*
X142436042Y-72074290D01*
X142421724Y-72072166D01*
X142407683Y-72068649D01*
X142394054Y-72063772D01*
X142380969Y-72057583D01*
X142368553Y-72050142D01*
X142356927Y-72041519D01*
X142346202Y-72031798D01*
X142336481Y-72021073D01*
X142327858Y-72009447D01*
X142320417Y-71997031D01*
X142314228Y-71983946D01*
X142309351Y-71970317D01*
X142305834Y-71956276D01*
X142303710Y-71941958D01*
X142303000Y-71927500D01*
X142303000Y-71582500D01*
X142303710Y-71568042D01*
X142305834Y-71553724D01*
X142309351Y-71539683D01*
X142314228Y-71526054D01*
X142320417Y-71512969D01*
X142327858Y-71500553D01*
X142336481Y-71488927D01*
X142346202Y-71478202D01*
X142356927Y-71468481D01*
X142368553Y-71459858D01*
X142380969Y-71452417D01*
X142394054Y-71446228D01*
X142407683Y-71441351D01*
X142421724Y-71437834D01*
X142436042Y-71435710D01*
X142450500Y-71435000D01*
X142745500Y-71435000D01*
X142759958Y-71435710D01*
X142759958Y-71435710D01*
G37*
D12*
X142598000Y-71755000D03*
D11*
G36*
X141789958Y-71435710D02*
X141804276Y-71437834D01*
X141818317Y-71441351D01*
X141831946Y-71446228D01*
X141845031Y-71452417D01*
X141857447Y-71459858D01*
X141869073Y-71468481D01*
X141879798Y-71478202D01*
X141889519Y-71488927D01*
X141898142Y-71500553D01*
X141905583Y-71512969D01*
X141911772Y-71526054D01*
X141916649Y-71539683D01*
X141920166Y-71553724D01*
X141922290Y-71568042D01*
X141923000Y-71582500D01*
X141923000Y-71927500D01*
X141922290Y-71941958D01*
X141920166Y-71956276D01*
X141916649Y-71970317D01*
X141911772Y-71983946D01*
X141905583Y-71997031D01*
X141898142Y-72009447D01*
X141889519Y-72021073D01*
X141879798Y-72031798D01*
X141869073Y-72041519D01*
X141857447Y-72050142D01*
X141845031Y-72057583D01*
X141831946Y-72063772D01*
X141818317Y-72068649D01*
X141804276Y-72072166D01*
X141789958Y-72074290D01*
X141775500Y-72075000D01*
X141480500Y-72075000D01*
X141466042Y-72074290D01*
X141451724Y-72072166D01*
X141437683Y-72068649D01*
X141424054Y-72063772D01*
X141410969Y-72057583D01*
X141398553Y-72050142D01*
X141386927Y-72041519D01*
X141376202Y-72031798D01*
X141366481Y-72021073D01*
X141357858Y-72009447D01*
X141350417Y-71997031D01*
X141344228Y-71983946D01*
X141339351Y-71970317D01*
X141335834Y-71956276D01*
X141333710Y-71941958D01*
X141333000Y-71927500D01*
X141333000Y-71582500D01*
X141333710Y-71568042D01*
X141335834Y-71553724D01*
X141339351Y-71539683D01*
X141344228Y-71526054D01*
X141350417Y-71512969D01*
X141357858Y-71500553D01*
X141366481Y-71488927D01*
X141376202Y-71478202D01*
X141386927Y-71468481D01*
X141398553Y-71459858D01*
X141410969Y-71452417D01*
X141424054Y-71446228D01*
X141437683Y-71441351D01*
X141451724Y-71437834D01*
X141466042Y-71435710D01*
X141480500Y-71435000D01*
X141775500Y-71435000D01*
X141789958Y-71435710D01*
X141789958Y-71435710D01*
G37*
D12*
X141628000Y-71755000D03*
G04 #@! TD*
D11*
G04 #@! TO.C,C603*
G36*
X135185958Y-62545710D02*
X135200276Y-62547834D01*
X135214317Y-62551351D01*
X135227946Y-62556228D01*
X135241031Y-62562417D01*
X135253447Y-62569858D01*
X135265073Y-62578481D01*
X135275798Y-62588202D01*
X135285519Y-62598927D01*
X135294142Y-62610553D01*
X135301583Y-62622969D01*
X135307772Y-62636054D01*
X135312649Y-62649683D01*
X135316166Y-62663724D01*
X135318290Y-62678042D01*
X135319000Y-62692500D01*
X135319000Y-63037500D01*
X135318290Y-63051958D01*
X135316166Y-63066276D01*
X135312649Y-63080317D01*
X135307772Y-63093946D01*
X135301583Y-63107031D01*
X135294142Y-63119447D01*
X135285519Y-63131073D01*
X135275798Y-63141798D01*
X135265073Y-63151519D01*
X135253447Y-63160142D01*
X135241031Y-63167583D01*
X135227946Y-63173772D01*
X135214317Y-63178649D01*
X135200276Y-63182166D01*
X135185958Y-63184290D01*
X135171500Y-63185000D01*
X134876500Y-63185000D01*
X134862042Y-63184290D01*
X134847724Y-63182166D01*
X134833683Y-63178649D01*
X134820054Y-63173772D01*
X134806969Y-63167583D01*
X134794553Y-63160142D01*
X134782927Y-63151519D01*
X134772202Y-63141798D01*
X134762481Y-63131073D01*
X134753858Y-63119447D01*
X134746417Y-63107031D01*
X134740228Y-63093946D01*
X134735351Y-63080317D01*
X134731834Y-63066276D01*
X134729710Y-63051958D01*
X134729000Y-63037500D01*
X134729000Y-62692500D01*
X134729710Y-62678042D01*
X134731834Y-62663724D01*
X134735351Y-62649683D01*
X134740228Y-62636054D01*
X134746417Y-62622969D01*
X134753858Y-62610553D01*
X134762481Y-62598927D01*
X134772202Y-62588202D01*
X134782927Y-62578481D01*
X134794553Y-62569858D01*
X134806969Y-62562417D01*
X134820054Y-62556228D01*
X134833683Y-62551351D01*
X134847724Y-62547834D01*
X134862042Y-62545710D01*
X134876500Y-62545000D01*
X135171500Y-62545000D01*
X135185958Y-62545710D01*
X135185958Y-62545710D01*
G37*
D12*
X135024000Y-62865000D03*
D11*
G36*
X136155958Y-62545710D02*
X136170276Y-62547834D01*
X136184317Y-62551351D01*
X136197946Y-62556228D01*
X136211031Y-62562417D01*
X136223447Y-62569858D01*
X136235073Y-62578481D01*
X136245798Y-62588202D01*
X136255519Y-62598927D01*
X136264142Y-62610553D01*
X136271583Y-62622969D01*
X136277772Y-62636054D01*
X136282649Y-62649683D01*
X136286166Y-62663724D01*
X136288290Y-62678042D01*
X136289000Y-62692500D01*
X136289000Y-63037500D01*
X136288290Y-63051958D01*
X136286166Y-63066276D01*
X136282649Y-63080317D01*
X136277772Y-63093946D01*
X136271583Y-63107031D01*
X136264142Y-63119447D01*
X136255519Y-63131073D01*
X136245798Y-63141798D01*
X136235073Y-63151519D01*
X136223447Y-63160142D01*
X136211031Y-63167583D01*
X136197946Y-63173772D01*
X136184317Y-63178649D01*
X136170276Y-63182166D01*
X136155958Y-63184290D01*
X136141500Y-63185000D01*
X135846500Y-63185000D01*
X135832042Y-63184290D01*
X135817724Y-63182166D01*
X135803683Y-63178649D01*
X135790054Y-63173772D01*
X135776969Y-63167583D01*
X135764553Y-63160142D01*
X135752927Y-63151519D01*
X135742202Y-63141798D01*
X135732481Y-63131073D01*
X135723858Y-63119447D01*
X135716417Y-63107031D01*
X135710228Y-63093946D01*
X135705351Y-63080317D01*
X135701834Y-63066276D01*
X135699710Y-63051958D01*
X135699000Y-63037500D01*
X135699000Y-62692500D01*
X135699710Y-62678042D01*
X135701834Y-62663724D01*
X135705351Y-62649683D01*
X135710228Y-62636054D01*
X135716417Y-62622969D01*
X135723858Y-62610553D01*
X135732481Y-62598927D01*
X135742202Y-62588202D01*
X135752927Y-62578481D01*
X135764553Y-62569858D01*
X135776969Y-62562417D01*
X135790054Y-62556228D01*
X135803683Y-62551351D01*
X135817724Y-62547834D01*
X135832042Y-62545710D01*
X135846500Y-62545000D01*
X136141500Y-62545000D01*
X136155958Y-62545710D01*
X136155958Y-62545710D01*
G37*
D12*
X135994000Y-62865000D03*
G04 #@! TD*
D11*
G04 #@! TO.C,D601*
G36*
X144456958Y-71816710D02*
X144471276Y-71818834D01*
X144485317Y-71822351D01*
X144498946Y-71827228D01*
X144512031Y-71833417D01*
X144524447Y-71840858D01*
X144536073Y-71849481D01*
X144546798Y-71859202D01*
X144556519Y-71869927D01*
X144565142Y-71881553D01*
X144572583Y-71893969D01*
X144578772Y-71907054D01*
X144583649Y-71920683D01*
X144587166Y-71934724D01*
X144589290Y-71949042D01*
X144590000Y-71963500D01*
X144590000Y-72308500D01*
X144589290Y-72322958D01*
X144587166Y-72337276D01*
X144583649Y-72351317D01*
X144578772Y-72364946D01*
X144572583Y-72378031D01*
X144565142Y-72390447D01*
X144556519Y-72402073D01*
X144546798Y-72412798D01*
X144536073Y-72422519D01*
X144524447Y-72431142D01*
X144512031Y-72438583D01*
X144498946Y-72444772D01*
X144485317Y-72449649D01*
X144471276Y-72453166D01*
X144456958Y-72455290D01*
X144442500Y-72456000D01*
X144147500Y-72456000D01*
X144133042Y-72455290D01*
X144118724Y-72453166D01*
X144104683Y-72449649D01*
X144091054Y-72444772D01*
X144077969Y-72438583D01*
X144065553Y-72431142D01*
X144053927Y-72422519D01*
X144043202Y-72412798D01*
X144033481Y-72402073D01*
X144024858Y-72390447D01*
X144017417Y-72378031D01*
X144011228Y-72364946D01*
X144006351Y-72351317D01*
X144002834Y-72337276D01*
X144000710Y-72322958D01*
X144000000Y-72308500D01*
X144000000Y-71963500D01*
X144000710Y-71949042D01*
X144002834Y-71934724D01*
X144006351Y-71920683D01*
X144011228Y-71907054D01*
X144017417Y-71893969D01*
X144024858Y-71881553D01*
X144033481Y-71869927D01*
X144043202Y-71859202D01*
X144053927Y-71849481D01*
X144065553Y-71840858D01*
X144077969Y-71833417D01*
X144091054Y-71827228D01*
X144104683Y-71822351D01*
X144118724Y-71818834D01*
X144133042Y-71816710D01*
X144147500Y-71816000D01*
X144442500Y-71816000D01*
X144456958Y-71816710D01*
X144456958Y-71816710D01*
G37*
D12*
X144295000Y-72136000D03*
D11*
G36*
X145426958Y-71816710D02*
X145441276Y-71818834D01*
X145455317Y-71822351D01*
X145468946Y-71827228D01*
X145482031Y-71833417D01*
X145494447Y-71840858D01*
X145506073Y-71849481D01*
X145516798Y-71859202D01*
X145526519Y-71869927D01*
X145535142Y-71881553D01*
X145542583Y-71893969D01*
X145548772Y-71907054D01*
X145553649Y-71920683D01*
X145557166Y-71934724D01*
X145559290Y-71949042D01*
X145560000Y-71963500D01*
X145560000Y-72308500D01*
X145559290Y-72322958D01*
X145557166Y-72337276D01*
X145553649Y-72351317D01*
X145548772Y-72364946D01*
X145542583Y-72378031D01*
X145535142Y-72390447D01*
X145526519Y-72402073D01*
X145516798Y-72412798D01*
X145506073Y-72422519D01*
X145494447Y-72431142D01*
X145482031Y-72438583D01*
X145468946Y-72444772D01*
X145455317Y-72449649D01*
X145441276Y-72453166D01*
X145426958Y-72455290D01*
X145412500Y-72456000D01*
X145117500Y-72456000D01*
X145103042Y-72455290D01*
X145088724Y-72453166D01*
X145074683Y-72449649D01*
X145061054Y-72444772D01*
X145047969Y-72438583D01*
X145035553Y-72431142D01*
X145023927Y-72422519D01*
X145013202Y-72412798D01*
X145003481Y-72402073D01*
X144994858Y-72390447D01*
X144987417Y-72378031D01*
X144981228Y-72364946D01*
X144976351Y-72351317D01*
X144972834Y-72337276D01*
X144970710Y-72322958D01*
X144970000Y-72308500D01*
X144970000Y-71963500D01*
X144970710Y-71949042D01*
X144972834Y-71934724D01*
X144976351Y-71920683D01*
X144981228Y-71907054D01*
X144987417Y-71893969D01*
X144994858Y-71881553D01*
X145003481Y-71869927D01*
X145013202Y-71859202D01*
X145023927Y-71849481D01*
X145035553Y-71840858D01*
X145047969Y-71833417D01*
X145061054Y-71827228D01*
X145074683Y-71822351D01*
X145088724Y-71818834D01*
X145103042Y-71816710D01*
X145117500Y-71816000D01*
X145412500Y-71816000D01*
X145426958Y-71816710D01*
X145426958Y-71816710D01*
G37*
D12*
X145265000Y-72136000D03*
G04 #@! TD*
D11*
G04 #@! TO.C,D602*
G36*
X144456958Y-70800710D02*
X144471276Y-70802834D01*
X144485317Y-70806351D01*
X144498946Y-70811228D01*
X144512031Y-70817417D01*
X144524447Y-70824858D01*
X144536073Y-70833481D01*
X144546798Y-70843202D01*
X144556519Y-70853927D01*
X144565142Y-70865553D01*
X144572583Y-70877969D01*
X144578772Y-70891054D01*
X144583649Y-70904683D01*
X144587166Y-70918724D01*
X144589290Y-70933042D01*
X144590000Y-70947500D01*
X144590000Y-71292500D01*
X144589290Y-71306958D01*
X144587166Y-71321276D01*
X144583649Y-71335317D01*
X144578772Y-71348946D01*
X144572583Y-71362031D01*
X144565142Y-71374447D01*
X144556519Y-71386073D01*
X144546798Y-71396798D01*
X144536073Y-71406519D01*
X144524447Y-71415142D01*
X144512031Y-71422583D01*
X144498946Y-71428772D01*
X144485317Y-71433649D01*
X144471276Y-71437166D01*
X144456958Y-71439290D01*
X144442500Y-71440000D01*
X144147500Y-71440000D01*
X144133042Y-71439290D01*
X144118724Y-71437166D01*
X144104683Y-71433649D01*
X144091054Y-71428772D01*
X144077969Y-71422583D01*
X144065553Y-71415142D01*
X144053927Y-71406519D01*
X144043202Y-71396798D01*
X144033481Y-71386073D01*
X144024858Y-71374447D01*
X144017417Y-71362031D01*
X144011228Y-71348946D01*
X144006351Y-71335317D01*
X144002834Y-71321276D01*
X144000710Y-71306958D01*
X144000000Y-71292500D01*
X144000000Y-70947500D01*
X144000710Y-70933042D01*
X144002834Y-70918724D01*
X144006351Y-70904683D01*
X144011228Y-70891054D01*
X144017417Y-70877969D01*
X144024858Y-70865553D01*
X144033481Y-70853927D01*
X144043202Y-70843202D01*
X144053927Y-70833481D01*
X144065553Y-70824858D01*
X144077969Y-70817417D01*
X144091054Y-70811228D01*
X144104683Y-70806351D01*
X144118724Y-70802834D01*
X144133042Y-70800710D01*
X144147500Y-70800000D01*
X144442500Y-70800000D01*
X144456958Y-70800710D01*
X144456958Y-70800710D01*
G37*
D12*
X144295000Y-71120000D03*
D11*
G36*
X145426958Y-70800710D02*
X145441276Y-70802834D01*
X145455317Y-70806351D01*
X145468946Y-70811228D01*
X145482031Y-70817417D01*
X145494447Y-70824858D01*
X145506073Y-70833481D01*
X145516798Y-70843202D01*
X145526519Y-70853927D01*
X145535142Y-70865553D01*
X145542583Y-70877969D01*
X145548772Y-70891054D01*
X145553649Y-70904683D01*
X145557166Y-70918724D01*
X145559290Y-70933042D01*
X145560000Y-70947500D01*
X145560000Y-71292500D01*
X145559290Y-71306958D01*
X145557166Y-71321276D01*
X145553649Y-71335317D01*
X145548772Y-71348946D01*
X145542583Y-71362031D01*
X145535142Y-71374447D01*
X145526519Y-71386073D01*
X145516798Y-71396798D01*
X145506073Y-71406519D01*
X145494447Y-71415142D01*
X145482031Y-71422583D01*
X145468946Y-71428772D01*
X145455317Y-71433649D01*
X145441276Y-71437166D01*
X145426958Y-71439290D01*
X145412500Y-71440000D01*
X145117500Y-71440000D01*
X145103042Y-71439290D01*
X145088724Y-71437166D01*
X145074683Y-71433649D01*
X145061054Y-71428772D01*
X145047969Y-71422583D01*
X145035553Y-71415142D01*
X145023927Y-71406519D01*
X145013202Y-71396798D01*
X145003481Y-71386073D01*
X144994858Y-71374447D01*
X144987417Y-71362031D01*
X144981228Y-71348946D01*
X144976351Y-71335317D01*
X144972834Y-71321276D01*
X144970710Y-71306958D01*
X144970000Y-71292500D01*
X144970000Y-70947500D01*
X144970710Y-70933042D01*
X144972834Y-70918724D01*
X144976351Y-70904683D01*
X144981228Y-70891054D01*
X144987417Y-70877969D01*
X144994858Y-70865553D01*
X145003481Y-70853927D01*
X145013202Y-70843202D01*
X145023927Y-70833481D01*
X145035553Y-70824858D01*
X145047969Y-70817417D01*
X145061054Y-70811228D01*
X145074683Y-70806351D01*
X145088724Y-70802834D01*
X145103042Y-70800710D01*
X145117500Y-70800000D01*
X145412500Y-70800000D01*
X145426958Y-70800710D01*
X145426958Y-70800710D01*
G37*
D12*
X145265000Y-71120000D03*
G04 #@! TD*
D13*
G04 #@! TO.C,J101*
X107696000Y-69850000D03*
D14*
X107696000Y-72390000D03*
X107696000Y-74930000D03*
X107696000Y-77470000D03*
X107696000Y-80010000D03*
G04 #@! TD*
D18*
G04 #@! TO.C,J102*
X118110000Y-80010000D03*
G04 #@! TD*
G04 #@! TO.C,J103*
X118110000Y-76200000D03*
G04 #@! TD*
G04 #@! TO.C,J104*
X136906000Y-54610000D03*
G04 #@! TD*
G04 #@! TO.C,J105*
X142367000Y-81280000D03*
G04 #@! TD*
G04 #@! TO.C,J106*
X133350000Y-54610000D03*
G04 #@! TD*
G04 #@! TO.C,J107*
X130810000Y-54610000D03*
G04 #@! TD*
G04 #@! TO.C,J108*
X128270000Y-54610000D03*
G04 #@! TD*
D19*
G04 #@! TO.C,J109*
X199390000Y-75890000D03*
D20*
X199390000Y-72390000D03*
X199390000Y-68890000D03*
G04 #@! TD*
D18*
G04 #@! TO.C,J202*
X120269000Y-62738000D03*
G04 #@! TD*
G04 #@! TO.C,J203*
X120269000Y-65786000D03*
G04 #@! TD*
D13*
G04 #@! TO.C,J301*
X182245000Y-63500000D03*
D14*
X182245000Y-66040000D03*
G04 #@! TD*
D13*
G04 #@! TO.C,J302*
X182245000Y-69850000D03*
D14*
X182245000Y-72390000D03*
G04 #@! TD*
G04 #@! TO.C,J303*
X182245000Y-78740000D03*
D13*
X182245000Y-76200000D03*
G04 #@! TD*
D18*
G04 #@! TO.C,J501*
X152527000Y-78486000D03*
G04 #@! TD*
G04 #@! TO.C,J502*
X152527000Y-81407000D03*
G04 #@! TD*
G04 #@! TO.C,J503*
X155448000Y-78486000D03*
G04 #@! TD*
G04 #@! TO.C,J504*
X155448000Y-81407000D03*
G04 #@! TD*
D13*
G04 #@! TO.C,J601*
X143510000Y-62611000D03*
D14*
X146050000Y-62611000D03*
X148590000Y-62611000D03*
G04 #@! TD*
D18*
G04 #@! TO.C,J605*
X129540000Y-72390000D03*
G04 #@! TD*
G04 #@! TO.C,J606*
X133350000Y-73279000D03*
G04 #@! TD*
G04 #@! TO.C,J607*
X128270000Y-68580000D03*
G04 #@! TD*
G04 #@! TO.C,J608*
X129540000Y-66040000D03*
G04 #@! TD*
G04 #@! TO.C,J609*
X127000000Y-66040000D03*
G04 #@! TD*
D21*
G04 #@! TO.C,JP301*
X179705000Y-63500000D03*
D11*
G36*
X179705000Y-62750602D02*
X179729534Y-62750602D01*
X179778365Y-62755412D01*
X179826490Y-62764984D01*
X179873445Y-62779228D01*
X179918778Y-62798005D01*
X179962051Y-62821136D01*
X180002850Y-62848396D01*
X180040779Y-62879524D01*
X180075476Y-62914221D01*
X180106604Y-62952150D01*
X180133864Y-62992949D01*
X180156995Y-63036222D01*
X180175772Y-63081555D01*
X180190016Y-63128510D01*
X180199588Y-63176635D01*
X180204398Y-63225466D01*
X180204398Y-63250000D01*
X180205000Y-63250000D01*
X180205000Y-63750000D01*
X180204398Y-63750000D01*
X180204398Y-63774534D01*
X180199588Y-63823365D01*
X180190016Y-63871490D01*
X180175772Y-63918445D01*
X180156995Y-63963778D01*
X180133864Y-64007051D01*
X180106604Y-64047850D01*
X180075476Y-64085779D01*
X180040779Y-64120476D01*
X180002850Y-64151604D01*
X179962051Y-64178864D01*
X179918778Y-64201995D01*
X179873445Y-64220772D01*
X179826490Y-64235016D01*
X179778365Y-64244588D01*
X179729534Y-64249398D01*
X179705000Y-64249398D01*
X179705000Y-64250000D01*
X179205000Y-64250000D01*
X179205000Y-62750000D01*
X179705000Y-62750000D01*
X179705000Y-62750602D01*
X179705000Y-62750602D01*
G37*
D21*
X178405000Y-63500000D03*
D11*
G36*
X178905000Y-64250000D02*
X178405000Y-64250000D01*
X178405000Y-64249398D01*
X178380466Y-64249398D01*
X178331635Y-64244588D01*
X178283510Y-64235016D01*
X178236555Y-64220772D01*
X178191222Y-64201995D01*
X178147949Y-64178864D01*
X178107150Y-64151604D01*
X178069221Y-64120476D01*
X178034524Y-64085779D01*
X178003396Y-64047850D01*
X177976136Y-64007051D01*
X177953005Y-63963778D01*
X177934228Y-63918445D01*
X177919984Y-63871490D01*
X177910412Y-63823365D01*
X177905602Y-63774534D01*
X177905602Y-63750000D01*
X177905000Y-63750000D01*
X177905000Y-63250000D01*
X177905602Y-63250000D01*
X177905602Y-63225466D01*
X177910412Y-63176635D01*
X177919984Y-63128510D01*
X177934228Y-63081555D01*
X177953005Y-63036222D01*
X177976136Y-62992949D01*
X178003396Y-62952150D01*
X178034524Y-62914221D01*
X178069221Y-62879524D01*
X178107150Y-62848396D01*
X178147949Y-62821136D01*
X178191222Y-62798005D01*
X178236555Y-62779228D01*
X178283510Y-62764984D01*
X178331635Y-62755412D01*
X178380466Y-62750602D01*
X178405000Y-62750602D01*
X178405000Y-62750000D01*
X178905000Y-62750000D01*
X178905000Y-64250000D01*
X178905000Y-64250000D01*
G37*
G04 #@! TD*
D21*
G04 #@! TO.C,JP302*
X178405000Y-69850000D03*
D11*
G36*
X178905000Y-70600000D02*
X178405000Y-70600000D01*
X178405000Y-70599398D01*
X178380466Y-70599398D01*
X178331635Y-70594588D01*
X178283510Y-70585016D01*
X178236555Y-70570772D01*
X178191222Y-70551995D01*
X178147949Y-70528864D01*
X178107150Y-70501604D01*
X178069221Y-70470476D01*
X178034524Y-70435779D01*
X178003396Y-70397850D01*
X177976136Y-70357051D01*
X177953005Y-70313778D01*
X177934228Y-70268445D01*
X177919984Y-70221490D01*
X177910412Y-70173365D01*
X177905602Y-70124534D01*
X177905602Y-70100000D01*
X177905000Y-70100000D01*
X177905000Y-69600000D01*
X177905602Y-69600000D01*
X177905602Y-69575466D01*
X177910412Y-69526635D01*
X177919984Y-69478510D01*
X177934228Y-69431555D01*
X177953005Y-69386222D01*
X177976136Y-69342949D01*
X178003396Y-69302150D01*
X178034524Y-69264221D01*
X178069221Y-69229524D01*
X178107150Y-69198396D01*
X178147949Y-69171136D01*
X178191222Y-69148005D01*
X178236555Y-69129228D01*
X178283510Y-69114984D01*
X178331635Y-69105412D01*
X178380466Y-69100602D01*
X178405000Y-69100602D01*
X178405000Y-69100000D01*
X178905000Y-69100000D01*
X178905000Y-70600000D01*
X178905000Y-70600000D01*
G37*
D21*
X179705000Y-69850000D03*
D11*
G36*
X179705000Y-69100602D02*
X179729534Y-69100602D01*
X179778365Y-69105412D01*
X179826490Y-69114984D01*
X179873445Y-69129228D01*
X179918778Y-69148005D01*
X179962051Y-69171136D01*
X180002850Y-69198396D01*
X180040779Y-69229524D01*
X180075476Y-69264221D01*
X180106604Y-69302150D01*
X180133864Y-69342949D01*
X180156995Y-69386222D01*
X180175772Y-69431555D01*
X180190016Y-69478510D01*
X180199588Y-69526635D01*
X180204398Y-69575466D01*
X180204398Y-69600000D01*
X180205000Y-69600000D01*
X180205000Y-70100000D01*
X180204398Y-70100000D01*
X180204398Y-70124534D01*
X180199588Y-70173365D01*
X180190016Y-70221490D01*
X180175772Y-70268445D01*
X180156995Y-70313778D01*
X180133864Y-70357051D01*
X180106604Y-70397850D01*
X180075476Y-70435779D01*
X180040779Y-70470476D01*
X180002850Y-70501604D01*
X179962051Y-70528864D01*
X179918778Y-70551995D01*
X179873445Y-70570772D01*
X179826490Y-70585016D01*
X179778365Y-70594588D01*
X179729534Y-70599398D01*
X179705000Y-70599398D01*
X179705000Y-70600000D01*
X179205000Y-70600000D01*
X179205000Y-69100000D01*
X179705000Y-69100000D01*
X179705000Y-69100602D01*
X179705000Y-69100602D01*
G37*
G04 #@! TD*
D21*
G04 #@! TO.C,JP303*
X178405000Y-76200000D03*
D11*
G36*
X178905000Y-76950000D02*
X178405000Y-76950000D01*
X178405000Y-76949398D01*
X178380466Y-76949398D01*
X178331635Y-76944588D01*
X178283510Y-76935016D01*
X178236555Y-76920772D01*
X178191222Y-76901995D01*
X178147949Y-76878864D01*
X178107150Y-76851604D01*
X178069221Y-76820476D01*
X178034524Y-76785779D01*
X178003396Y-76747850D01*
X177976136Y-76707051D01*
X177953005Y-76663778D01*
X177934228Y-76618445D01*
X177919984Y-76571490D01*
X177910412Y-76523365D01*
X177905602Y-76474534D01*
X177905602Y-76450000D01*
X177905000Y-76450000D01*
X177905000Y-75950000D01*
X177905602Y-75950000D01*
X177905602Y-75925466D01*
X177910412Y-75876635D01*
X177919984Y-75828510D01*
X177934228Y-75781555D01*
X177953005Y-75736222D01*
X177976136Y-75692949D01*
X178003396Y-75652150D01*
X178034524Y-75614221D01*
X178069221Y-75579524D01*
X178107150Y-75548396D01*
X178147949Y-75521136D01*
X178191222Y-75498005D01*
X178236555Y-75479228D01*
X178283510Y-75464984D01*
X178331635Y-75455412D01*
X178380466Y-75450602D01*
X178405000Y-75450602D01*
X178405000Y-75450000D01*
X178905000Y-75450000D01*
X178905000Y-76950000D01*
X178905000Y-76950000D01*
G37*
D21*
X179705000Y-76200000D03*
D11*
G36*
X179705000Y-75450602D02*
X179729534Y-75450602D01*
X179778365Y-75455412D01*
X179826490Y-75464984D01*
X179873445Y-75479228D01*
X179918778Y-75498005D01*
X179962051Y-75521136D01*
X180002850Y-75548396D01*
X180040779Y-75579524D01*
X180075476Y-75614221D01*
X180106604Y-75652150D01*
X180133864Y-75692949D01*
X180156995Y-75736222D01*
X180175772Y-75781555D01*
X180190016Y-75828510D01*
X180199588Y-75876635D01*
X180204398Y-75925466D01*
X180204398Y-75950000D01*
X180205000Y-75950000D01*
X180205000Y-76450000D01*
X180204398Y-76450000D01*
X180204398Y-76474534D01*
X180199588Y-76523365D01*
X180190016Y-76571490D01*
X180175772Y-76618445D01*
X180156995Y-76663778D01*
X180133864Y-76707051D01*
X180106604Y-76747850D01*
X180075476Y-76785779D01*
X180040779Y-76820476D01*
X180002850Y-76851604D01*
X179962051Y-76878864D01*
X179918778Y-76901995D01*
X179873445Y-76920772D01*
X179826490Y-76935016D01*
X179778365Y-76944588D01*
X179729534Y-76949398D01*
X179705000Y-76949398D01*
X179705000Y-76950000D01*
X179205000Y-76950000D01*
X179205000Y-75450000D01*
X179705000Y-75450000D01*
X179705000Y-75450602D01*
X179705000Y-75450602D01*
G37*
G04 #@! TD*
D22*
G04 #@! TO.C,Q301*
X187312500Y-63500000D03*
X189877500Y-63500000D03*
D23*
X188270000Y-64955000D03*
X188920000Y-64955000D03*
X187620000Y-64955000D03*
X186970000Y-62045000D03*
X186970000Y-64955000D03*
X187620000Y-62045000D03*
X188270000Y-62045000D03*
X188920000Y-62045000D03*
X189570000Y-64955000D03*
X190220000Y-62045000D03*
X189570000Y-62045000D03*
X190220000Y-64955000D03*
G04 #@! TD*
G04 #@! TO.C,Q302*
X190220000Y-71305000D03*
X189570000Y-68395000D03*
X190220000Y-68395000D03*
X189570000Y-71305000D03*
X188920000Y-68395000D03*
X188270000Y-68395000D03*
X187620000Y-68395000D03*
X186970000Y-71305000D03*
X186970000Y-68395000D03*
X187620000Y-71305000D03*
X188920000Y-71305000D03*
X188270000Y-71305000D03*
D22*
X189877500Y-69850000D03*
X187312500Y-69850000D03*
G04 #@! TD*
D23*
G04 #@! TO.C,Q303*
X190220000Y-77655000D03*
X189570000Y-74745000D03*
X190220000Y-74745000D03*
X189570000Y-77655000D03*
X188920000Y-74745000D03*
X188270000Y-74745000D03*
X187620000Y-74745000D03*
X186970000Y-77655000D03*
X186970000Y-74745000D03*
X187620000Y-77655000D03*
X188920000Y-77655000D03*
X188270000Y-77655000D03*
D22*
X189877500Y-76200000D03*
X187312500Y-76200000D03*
G04 #@! TD*
D11*
G04 #@! TO.C,R101*
G36*
X145426958Y-80960710D02*
X145441276Y-80962834D01*
X145455317Y-80966351D01*
X145468946Y-80971228D01*
X145482031Y-80977417D01*
X145494447Y-80984858D01*
X145506073Y-80993481D01*
X145516798Y-81003202D01*
X145526519Y-81013927D01*
X145535142Y-81025553D01*
X145542583Y-81037969D01*
X145548772Y-81051054D01*
X145553649Y-81064683D01*
X145557166Y-81078724D01*
X145559290Y-81093042D01*
X145560000Y-81107500D01*
X145560000Y-81452500D01*
X145559290Y-81466958D01*
X145557166Y-81481276D01*
X145553649Y-81495317D01*
X145548772Y-81508946D01*
X145542583Y-81522031D01*
X145535142Y-81534447D01*
X145526519Y-81546073D01*
X145516798Y-81556798D01*
X145506073Y-81566519D01*
X145494447Y-81575142D01*
X145482031Y-81582583D01*
X145468946Y-81588772D01*
X145455317Y-81593649D01*
X145441276Y-81597166D01*
X145426958Y-81599290D01*
X145412500Y-81600000D01*
X145117500Y-81600000D01*
X145103042Y-81599290D01*
X145088724Y-81597166D01*
X145074683Y-81593649D01*
X145061054Y-81588772D01*
X145047969Y-81582583D01*
X145035553Y-81575142D01*
X145023927Y-81566519D01*
X145013202Y-81556798D01*
X145003481Y-81546073D01*
X144994858Y-81534447D01*
X144987417Y-81522031D01*
X144981228Y-81508946D01*
X144976351Y-81495317D01*
X144972834Y-81481276D01*
X144970710Y-81466958D01*
X144970000Y-81452500D01*
X144970000Y-81107500D01*
X144970710Y-81093042D01*
X144972834Y-81078724D01*
X144976351Y-81064683D01*
X144981228Y-81051054D01*
X144987417Y-81037969D01*
X144994858Y-81025553D01*
X145003481Y-81013927D01*
X145013202Y-81003202D01*
X145023927Y-80993481D01*
X145035553Y-80984858D01*
X145047969Y-80977417D01*
X145061054Y-80971228D01*
X145074683Y-80966351D01*
X145088724Y-80962834D01*
X145103042Y-80960710D01*
X145117500Y-80960000D01*
X145412500Y-80960000D01*
X145426958Y-80960710D01*
X145426958Y-80960710D01*
G37*
D12*
X145265000Y-81280000D03*
D11*
G36*
X144456958Y-80960710D02*
X144471276Y-80962834D01*
X144485317Y-80966351D01*
X144498946Y-80971228D01*
X144512031Y-80977417D01*
X144524447Y-80984858D01*
X144536073Y-80993481D01*
X144546798Y-81003202D01*
X144556519Y-81013927D01*
X144565142Y-81025553D01*
X144572583Y-81037969D01*
X144578772Y-81051054D01*
X144583649Y-81064683D01*
X144587166Y-81078724D01*
X144589290Y-81093042D01*
X144590000Y-81107500D01*
X144590000Y-81452500D01*
X144589290Y-81466958D01*
X144587166Y-81481276D01*
X144583649Y-81495317D01*
X144578772Y-81508946D01*
X144572583Y-81522031D01*
X144565142Y-81534447D01*
X144556519Y-81546073D01*
X144546798Y-81556798D01*
X144536073Y-81566519D01*
X144524447Y-81575142D01*
X144512031Y-81582583D01*
X144498946Y-81588772D01*
X144485317Y-81593649D01*
X144471276Y-81597166D01*
X144456958Y-81599290D01*
X144442500Y-81600000D01*
X144147500Y-81600000D01*
X144133042Y-81599290D01*
X144118724Y-81597166D01*
X144104683Y-81593649D01*
X144091054Y-81588772D01*
X144077969Y-81582583D01*
X144065553Y-81575142D01*
X144053927Y-81566519D01*
X144043202Y-81556798D01*
X144033481Y-81546073D01*
X144024858Y-81534447D01*
X144017417Y-81522031D01*
X144011228Y-81508946D01*
X144006351Y-81495317D01*
X144002834Y-81481276D01*
X144000710Y-81466958D01*
X144000000Y-81452500D01*
X144000000Y-81107500D01*
X144000710Y-81093042D01*
X144002834Y-81078724D01*
X144006351Y-81064683D01*
X144011228Y-81051054D01*
X144017417Y-81037969D01*
X144024858Y-81025553D01*
X144033481Y-81013927D01*
X144043202Y-81003202D01*
X144053927Y-80993481D01*
X144065553Y-80984858D01*
X144077969Y-80977417D01*
X144091054Y-80971228D01*
X144104683Y-80966351D01*
X144118724Y-80962834D01*
X144133042Y-80960710D01*
X144147500Y-80960000D01*
X144442500Y-80960000D01*
X144456958Y-80960710D01*
X144456958Y-80960710D01*
G37*
D12*
X144295000Y-81280000D03*
G04 #@! TD*
D11*
G04 #@! TO.C,R102*
G36*
X140013958Y-75420710D02*
X140028276Y-75422834D01*
X140042317Y-75426351D01*
X140055946Y-75431228D01*
X140069031Y-75437417D01*
X140081447Y-75444858D01*
X140093073Y-75453481D01*
X140103798Y-75463202D01*
X140113519Y-75473927D01*
X140122142Y-75485553D01*
X140129583Y-75497969D01*
X140135772Y-75511054D01*
X140140649Y-75524683D01*
X140144166Y-75538724D01*
X140146290Y-75553042D01*
X140147000Y-75567500D01*
X140147000Y-75862500D01*
X140146290Y-75876958D01*
X140144166Y-75891276D01*
X140140649Y-75905317D01*
X140135772Y-75918946D01*
X140129583Y-75932031D01*
X140122142Y-75944447D01*
X140113519Y-75956073D01*
X140103798Y-75966798D01*
X140093073Y-75976519D01*
X140081447Y-75985142D01*
X140069031Y-75992583D01*
X140055946Y-75998772D01*
X140042317Y-76003649D01*
X140028276Y-76007166D01*
X140013958Y-76009290D01*
X139999500Y-76010000D01*
X139654500Y-76010000D01*
X139640042Y-76009290D01*
X139625724Y-76007166D01*
X139611683Y-76003649D01*
X139598054Y-75998772D01*
X139584969Y-75992583D01*
X139572553Y-75985142D01*
X139560927Y-75976519D01*
X139550202Y-75966798D01*
X139540481Y-75956073D01*
X139531858Y-75944447D01*
X139524417Y-75932031D01*
X139518228Y-75918946D01*
X139513351Y-75905317D01*
X139509834Y-75891276D01*
X139507710Y-75876958D01*
X139507000Y-75862500D01*
X139507000Y-75567500D01*
X139507710Y-75553042D01*
X139509834Y-75538724D01*
X139513351Y-75524683D01*
X139518228Y-75511054D01*
X139524417Y-75497969D01*
X139531858Y-75485553D01*
X139540481Y-75473927D01*
X139550202Y-75463202D01*
X139560927Y-75453481D01*
X139572553Y-75444858D01*
X139584969Y-75437417D01*
X139598054Y-75431228D01*
X139611683Y-75426351D01*
X139625724Y-75422834D01*
X139640042Y-75420710D01*
X139654500Y-75420000D01*
X139999500Y-75420000D01*
X140013958Y-75420710D01*
X140013958Y-75420710D01*
G37*
D12*
X139827000Y-75715000D03*
D11*
G36*
X140013958Y-76390710D02*
X140028276Y-76392834D01*
X140042317Y-76396351D01*
X140055946Y-76401228D01*
X140069031Y-76407417D01*
X140081447Y-76414858D01*
X140093073Y-76423481D01*
X140103798Y-76433202D01*
X140113519Y-76443927D01*
X140122142Y-76455553D01*
X140129583Y-76467969D01*
X140135772Y-76481054D01*
X140140649Y-76494683D01*
X140144166Y-76508724D01*
X140146290Y-76523042D01*
X140147000Y-76537500D01*
X140147000Y-76832500D01*
X140146290Y-76846958D01*
X140144166Y-76861276D01*
X140140649Y-76875317D01*
X140135772Y-76888946D01*
X140129583Y-76902031D01*
X140122142Y-76914447D01*
X140113519Y-76926073D01*
X140103798Y-76936798D01*
X140093073Y-76946519D01*
X140081447Y-76955142D01*
X140069031Y-76962583D01*
X140055946Y-76968772D01*
X140042317Y-76973649D01*
X140028276Y-76977166D01*
X140013958Y-76979290D01*
X139999500Y-76980000D01*
X139654500Y-76980000D01*
X139640042Y-76979290D01*
X139625724Y-76977166D01*
X139611683Y-76973649D01*
X139598054Y-76968772D01*
X139584969Y-76962583D01*
X139572553Y-76955142D01*
X139560927Y-76946519D01*
X139550202Y-76936798D01*
X139540481Y-76926073D01*
X139531858Y-76914447D01*
X139524417Y-76902031D01*
X139518228Y-76888946D01*
X139513351Y-76875317D01*
X139509834Y-76861276D01*
X139507710Y-76846958D01*
X139507000Y-76832500D01*
X139507000Y-76537500D01*
X139507710Y-76523042D01*
X139509834Y-76508724D01*
X139513351Y-76494683D01*
X139518228Y-76481054D01*
X139524417Y-76467969D01*
X139531858Y-76455553D01*
X139540481Y-76443927D01*
X139550202Y-76433202D01*
X139560927Y-76423481D01*
X139572553Y-76414858D01*
X139584969Y-76407417D01*
X139598054Y-76401228D01*
X139611683Y-76396351D01*
X139625724Y-76392834D01*
X139640042Y-76390710D01*
X139654500Y-76390000D01*
X139999500Y-76390000D01*
X140013958Y-76390710D01*
X140013958Y-76390710D01*
G37*
D12*
X139827000Y-76685000D03*
G04 #@! TD*
D11*
G04 #@! TO.C,R103*
G36*
X138997958Y-75420710D02*
X139012276Y-75422834D01*
X139026317Y-75426351D01*
X139039946Y-75431228D01*
X139053031Y-75437417D01*
X139065447Y-75444858D01*
X139077073Y-75453481D01*
X139087798Y-75463202D01*
X139097519Y-75473927D01*
X139106142Y-75485553D01*
X139113583Y-75497969D01*
X139119772Y-75511054D01*
X139124649Y-75524683D01*
X139128166Y-75538724D01*
X139130290Y-75553042D01*
X139131000Y-75567500D01*
X139131000Y-75862500D01*
X139130290Y-75876958D01*
X139128166Y-75891276D01*
X139124649Y-75905317D01*
X139119772Y-75918946D01*
X139113583Y-75932031D01*
X139106142Y-75944447D01*
X139097519Y-75956073D01*
X139087798Y-75966798D01*
X139077073Y-75976519D01*
X139065447Y-75985142D01*
X139053031Y-75992583D01*
X139039946Y-75998772D01*
X139026317Y-76003649D01*
X139012276Y-76007166D01*
X138997958Y-76009290D01*
X138983500Y-76010000D01*
X138638500Y-76010000D01*
X138624042Y-76009290D01*
X138609724Y-76007166D01*
X138595683Y-76003649D01*
X138582054Y-75998772D01*
X138568969Y-75992583D01*
X138556553Y-75985142D01*
X138544927Y-75976519D01*
X138534202Y-75966798D01*
X138524481Y-75956073D01*
X138515858Y-75944447D01*
X138508417Y-75932031D01*
X138502228Y-75918946D01*
X138497351Y-75905317D01*
X138493834Y-75891276D01*
X138491710Y-75876958D01*
X138491000Y-75862500D01*
X138491000Y-75567500D01*
X138491710Y-75553042D01*
X138493834Y-75538724D01*
X138497351Y-75524683D01*
X138502228Y-75511054D01*
X138508417Y-75497969D01*
X138515858Y-75485553D01*
X138524481Y-75473927D01*
X138534202Y-75463202D01*
X138544927Y-75453481D01*
X138556553Y-75444858D01*
X138568969Y-75437417D01*
X138582054Y-75431228D01*
X138595683Y-75426351D01*
X138609724Y-75422834D01*
X138624042Y-75420710D01*
X138638500Y-75420000D01*
X138983500Y-75420000D01*
X138997958Y-75420710D01*
X138997958Y-75420710D01*
G37*
D12*
X138811000Y-75715000D03*
D11*
G36*
X138997958Y-76390710D02*
X139012276Y-76392834D01*
X139026317Y-76396351D01*
X139039946Y-76401228D01*
X139053031Y-76407417D01*
X139065447Y-76414858D01*
X139077073Y-76423481D01*
X139087798Y-76433202D01*
X139097519Y-76443927D01*
X139106142Y-76455553D01*
X139113583Y-76467969D01*
X139119772Y-76481054D01*
X139124649Y-76494683D01*
X139128166Y-76508724D01*
X139130290Y-76523042D01*
X139131000Y-76537500D01*
X139131000Y-76832500D01*
X139130290Y-76846958D01*
X139128166Y-76861276D01*
X139124649Y-76875317D01*
X139119772Y-76888946D01*
X139113583Y-76902031D01*
X139106142Y-76914447D01*
X139097519Y-76926073D01*
X139087798Y-76936798D01*
X139077073Y-76946519D01*
X139065447Y-76955142D01*
X139053031Y-76962583D01*
X139039946Y-76968772D01*
X139026317Y-76973649D01*
X139012276Y-76977166D01*
X138997958Y-76979290D01*
X138983500Y-76980000D01*
X138638500Y-76980000D01*
X138624042Y-76979290D01*
X138609724Y-76977166D01*
X138595683Y-76973649D01*
X138582054Y-76968772D01*
X138568969Y-76962583D01*
X138556553Y-76955142D01*
X138544927Y-76946519D01*
X138534202Y-76936798D01*
X138524481Y-76926073D01*
X138515858Y-76914447D01*
X138508417Y-76902031D01*
X138502228Y-76888946D01*
X138497351Y-76875317D01*
X138493834Y-76861276D01*
X138491710Y-76846958D01*
X138491000Y-76832500D01*
X138491000Y-76537500D01*
X138491710Y-76523042D01*
X138493834Y-76508724D01*
X138497351Y-76494683D01*
X138502228Y-76481054D01*
X138508417Y-76467969D01*
X138515858Y-76455553D01*
X138524481Y-76443927D01*
X138534202Y-76433202D01*
X138544927Y-76423481D01*
X138556553Y-76414858D01*
X138568969Y-76407417D01*
X138582054Y-76401228D01*
X138595683Y-76396351D01*
X138609724Y-76392834D01*
X138624042Y-76390710D01*
X138638500Y-76390000D01*
X138983500Y-76390000D01*
X138997958Y-76390710D01*
X138997958Y-76390710D01*
G37*
D12*
X138811000Y-76685000D03*
G04 #@! TD*
D11*
G04 #@! TO.C,R104*
G36*
X137981958Y-75420710D02*
X137996276Y-75422834D01*
X138010317Y-75426351D01*
X138023946Y-75431228D01*
X138037031Y-75437417D01*
X138049447Y-75444858D01*
X138061073Y-75453481D01*
X138071798Y-75463202D01*
X138081519Y-75473927D01*
X138090142Y-75485553D01*
X138097583Y-75497969D01*
X138103772Y-75511054D01*
X138108649Y-75524683D01*
X138112166Y-75538724D01*
X138114290Y-75553042D01*
X138115000Y-75567500D01*
X138115000Y-75862500D01*
X138114290Y-75876958D01*
X138112166Y-75891276D01*
X138108649Y-75905317D01*
X138103772Y-75918946D01*
X138097583Y-75932031D01*
X138090142Y-75944447D01*
X138081519Y-75956073D01*
X138071798Y-75966798D01*
X138061073Y-75976519D01*
X138049447Y-75985142D01*
X138037031Y-75992583D01*
X138023946Y-75998772D01*
X138010317Y-76003649D01*
X137996276Y-76007166D01*
X137981958Y-76009290D01*
X137967500Y-76010000D01*
X137622500Y-76010000D01*
X137608042Y-76009290D01*
X137593724Y-76007166D01*
X137579683Y-76003649D01*
X137566054Y-75998772D01*
X137552969Y-75992583D01*
X137540553Y-75985142D01*
X137528927Y-75976519D01*
X137518202Y-75966798D01*
X137508481Y-75956073D01*
X137499858Y-75944447D01*
X137492417Y-75932031D01*
X137486228Y-75918946D01*
X137481351Y-75905317D01*
X137477834Y-75891276D01*
X137475710Y-75876958D01*
X137475000Y-75862500D01*
X137475000Y-75567500D01*
X137475710Y-75553042D01*
X137477834Y-75538724D01*
X137481351Y-75524683D01*
X137486228Y-75511054D01*
X137492417Y-75497969D01*
X137499858Y-75485553D01*
X137508481Y-75473927D01*
X137518202Y-75463202D01*
X137528927Y-75453481D01*
X137540553Y-75444858D01*
X137552969Y-75437417D01*
X137566054Y-75431228D01*
X137579683Y-75426351D01*
X137593724Y-75422834D01*
X137608042Y-75420710D01*
X137622500Y-75420000D01*
X137967500Y-75420000D01*
X137981958Y-75420710D01*
X137981958Y-75420710D01*
G37*
D12*
X137795000Y-75715000D03*
D11*
G36*
X137981958Y-76390710D02*
X137996276Y-76392834D01*
X138010317Y-76396351D01*
X138023946Y-76401228D01*
X138037031Y-76407417D01*
X138049447Y-76414858D01*
X138061073Y-76423481D01*
X138071798Y-76433202D01*
X138081519Y-76443927D01*
X138090142Y-76455553D01*
X138097583Y-76467969D01*
X138103772Y-76481054D01*
X138108649Y-76494683D01*
X138112166Y-76508724D01*
X138114290Y-76523042D01*
X138115000Y-76537500D01*
X138115000Y-76832500D01*
X138114290Y-76846958D01*
X138112166Y-76861276D01*
X138108649Y-76875317D01*
X138103772Y-76888946D01*
X138097583Y-76902031D01*
X138090142Y-76914447D01*
X138081519Y-76926073D01*
X138071798Y-76936798D01*
X138061073Y-76946519D01*
X138049447Y-76955142D01*
X138037031Y-76962583D01*
X138023946Y-76968772D01*
X138010317Y-76973649D01*
X137996276Y-76977166D01*
X137981958Y-76979290D01*
X137967500Y-76980000D01*
X137622500Y-76980000D01*
X137608042Y-76979290D01*
X137593724Y-76977166D01*
X137579683Y-76973649D01*
X137566054Y-76968772D01*
X137552969Y-76962583D01*
X137540553Y-76955142D01*
X137528927Y-76946519D01*
X137518202Y-76936798D01*
X137508481Y-76926073D01*
X137499858Y-76914447D01*
X137492417Y-76902031D01*
X137486228Y-76888946D01*
X137481351Y-76875317D01*
X137477834Y-76861276D01*
X137475710Y-76846958D01*
X137475000Y-76832500D01*
X137475000Y-76537500D01*
X137475710Y-76523042D01*
X137477834Y-76508724D01*
X137481351Y-76494683D01*
X137486228Y-76481054D01*
X137492417Y-76467969D01*
X137499858Y-76455553D01*
X137508481Y-76443927D01*
X137518202Y-76433202D01*
X137528927Y-76423481D01*
X137540553Y-76414858D01*
X137552969Y-76407417D01*
X137566054Y-76401228D01*
X137579683Y-76396351D01*
X137593724Y-76392834D01*
X137608042Y-76390710D01*
X137622500Y-76390000D01*
X137967500Y-76390000D01*
X137981958Y-76390710D01*
X137981958Y-76390710D01*
G37*
D12*
X137795000Y-76685000D03*
G04 #@! TD*
D11*
G04 #@! TO.C,R105*
G36*
X144456958Y-76896710D02*
X144471276Y-76898834D01*
X144485317Y-76902351D01*
X144498946Y-76907228D01*
X144512031Y-76913417D01*
X144524447Y-76920858D01*
X144536073Y-76929481D01*
X144546798Y-76939202D01*
X144556519Y-76949927D01*
X144565142Y-76961553D01*
X144572583Y-76973969D01*
X144578772Y-76987054D01*
X144583649Y-77000683D01*
X144587166Y-77014724D01*
X144589290Y-77029042D01*
X144590000Y-77043500D01*
X144590000Y-77388500D01*
X144589290Y-77402958D01*
X144587166Y-77417276D01*
X144583649Y-77431317D01*
X144578772Y-77444946D01*
X144572583Y-77458031D01*
X144565142Y-77470447D01*
X144556519Y-77482073D01*
X144546798Y-77492798D01*
X144536073Y-77502519D01*
X144524447Y-77511142D01*
X144512031Y-77518583D01*
X144498946Y-77524772D01*
X144485317Y-77529649D01*
X144471276Y-77533166D01*
X144456958Y-77535290D01*
X144442500Y-77536000D01*
X144147500Y-77536000D01*
X144133042Y-77535290D01*
X144118724Y-77533166D01*
X144104683Y-77529649D01*
X144091054Y-77524772D01*
X144077969Y-77518583D01*
X144065553Y-77511142D01*
X144053927Y-77502519D01*
X144043202Y-77492798D01*
X144033481Y-77482073D01*
X144024858Y-77470447D01*
X144017417Y-77458031D01*
X144011228Y-77444946D01*
X144006351Y-77431317D01*
X144002834Y-77417276D01*
X144000710Y-77402958D01*
X144000000Y-77388500D01*
X144000000Y-77043500D01*
X144000710Y-77029042D01*
X144002834Y-77014724D01*
X144006351Y-77000683D01*
X144011228Y-76987054D01*
X144017417Y-76973969D01*
X144024858Y-76961553D01*
X144033481Y-76949927D01*
X144043202Y-76939202D01*
X144053927Y-76929481D01*
X144065553Y-76920858D01*
X144077969Y-76913417D01*
X144091054Y-76907228D01*
X144104683Y-76902351D01*
X144118724Y-76898834D01*
X144133042Y-76896710D01*
X144147500Y-76896000D01*
X144442500Y-76896000D01*
X144456958Y-76896710D01*
X144456958Y-76896710D01*
G37*
D12*
X144295000Y-77216000D03*
D11*
G36*
X145426958Y-76896710D02*
X145441276Y-76898834D01*
X145455317Y-76902351D01*
X145468946Y-76907228D01*
X145482031Y-76913417D01*
X145494447Y-76920858D01*
X145506073Y-76929481D01*
X145516798Y-76939202D01*
X145526519Y-76949927D01*
X145535142Y-76961553D01*
X145542583Y-76973969D01*
X145548772Y-76987054D01*
X145553649Y-77000683D01*
X145557166Y-77014724D01*
X145559290Y-77029042D01*
X145560000Y-77043500D01*
X145560000Y-77388500D01*
X145559290Y-77402958D01*
X145557166Y-77417276D01*
X145553649Y-77431317D01*
X145548772Y-77444946D01*
X145542583Y-77458031D01*
X145535142Y-77470447D01*
X145526519Y-77482073D01*
X145516798Y-77492798D01*
X145506073Y-77502519D01*
X145494447Y-77511142D01*
X145482031Y-77518583D01*
X145468946Y-77524772D01*
X145455317Y-77529649D01*
X145441276Y-77533166D01*
X145426958Y-77535290D01*
X145412500Y-77536000D01*
X145117500Y-77536000D01*
X145103042Y-77535290D01*
X145088724Y-77533166D01*
X145074683Y-77529649D01*
X145061054Y-77524772D01*
X145047969Y-77518583D01*
X145035553Y-77511142D01*
X145023927Y-77502519D01*
X145013202Y-77492798D01*
X145003481Y-77482073D01*
X144994858Y-77470447D01*
X144987417Y-77458031D01*
X144981228Y-77444946D01*
X144976351Y-77431317D01*
X144972834Y-77417276D01*
X144970710Y-77402958D01*
X144970000Y-77388500D01*
X144970000Y-77043500D01*
X144970710Y-77029042D01*
X144972834Y-77014724D01*
X144976351Y-77000683D01*
X144981228Y-76987054D01*
X144987417Y-76973969D01*
X144994858Y-76961553D01*
X145003481Y-76949927D01*
X145013202Y-76939202D01*
X145023927Y-76929481D01*
X145035553Y-76920858D01*
X145047969Y-76913417D01*
X145061054Y-76907228D01*
X145074683Y-76902351D01*
X145088724Y-76898834D01*
X145103042Y-76896710D01*
X145117500Y-76896000D01*
X145412500Y-76896000D01*
X145426958Y-76896710D01*
X145426958Y-76896710D01*
G37*
D12*
X145265000Y-77216000D03*
G04 #@! TD*
D11*
G04 #@! TO.C,R106*
G36*
X144456958Y-75880710D02*
X144471276Y-75882834D01*
X144485317Y-75886351D01*
X144498946Y-75891228D01*
X144512031Y-75897417D01*
X144524447Y-75904858D01*
X144536073Y-75913481D01*
X144546798Y-75923202D01*
X144556519Y-75933927D01*
X144565142Y-75945553D01*
X144572583Y-75957969D01*
X144578772Y-75971054D01*
X144583649Y-75984683D01*
X144587166Y-75998724D01*
X144589290Y-76013042D01*
X144590000Y-76027500D01*
X144590000Y-76372500D01*
X144589290Y-76386958D01*
X144587166Y-76401276D01*
X144583649Y-76415317D01*
X144578772Y-76428946D01*
X144572583Y-76442031D01*
X144565142Y-76454447D01*
X144556519Y-76466073D01*
X144546798Y-76476798D01*
X144536073Y-76486519D01*
X144524447Y-76495142D01*
X144512031Y-76502583D01*
X144498946Y-76508772D01*
X144485317Y-76513649D01*
X144471276Y-76517166D01*
X144456958Y-76519290D01*
X144442500Y-76520000D01*
X144147500Y-76520000D01*
X144133042Y-76519290D01*
X144118724Y-76517166D01*
X144104683Y-76513649D01*
X144091054Y-76508772D01*
X144077969Y-76502583D01*
X144065553Y-76495142D01*
X144053927Y-76486519D01*
X144043202Y-76476798D01*
X144033481Y-76466073D01*
X144024858Y-76454447D01*
X144017417Y-76442031D01*
X144011228Y-76428946D01*
X144006351Y-76415317D01*
X144002834Y-76401276D01*
X144000710Y-76386958D01*
X144000000Y-76372500D01*
X144000000Y-76027500D01*
X144000710Y-76013042D01*
X144002834Y-75998724D01*
X144006351Y-75984683D01*
X144011228Y-75971054D01*
X144017417Y-75957969D01*
X144024858Y-75945553D01*
X144033481Y-75933927D01*
X144043202Y-75923202D01*
X144053927Y-75913481D01*
X144065553Y-75904858D01*
X144077969Y-75897417D01*
X144091054Y-75891228D01*
X144104683Y-75886351D01*
X144118724Y-75882834D01*
X144133042Y-75880710D01*
X144147500Y-75880000D01*
X144442500Y-75880000D01*
X144456958Y-75880710D01*
X144456958Y-75880710D01*
G37*
D12*
X144295000Y-76200000D03*
D11*
G36*
X145426958Y-75880710D02*
X145441276Y-75882834D01*
X145455317Y-75886351D01*
X145468946Y-75891228D01*
X145482031Y-75897417D01*
X145494447Y-75904858D01*
X145506073Y-75913481D01*
X145516798Y-75923202D01*
X145526519Y-75933927D01*
X145535142Y-75945553D01*
X145542583Y-75957969D01*
X145548772Y-75971054D01*
X145553649Y-75984683D01*
X145557166Y-75998724D01*
X145559290Y-76013042D01*
X145560000Y-76027500D01*
X145560000Y-76372500D01*
X145559290Y-76386958D01*
X145557166Y-76401276D01*
X145553649Y-76415317D01*
X145548772Y-76428946D01*
X145542583Y-76442031D01*
X145535142Y-76454447D01*
X145526519Y-76466073D01*
X145516798Y-76476798D01*
X145506073Y-76486519D01*
X145494447Y-76495142D01*
X145482031Y-76502583D01*
X145468946Y-76508772D01*
X145455317Y-76513649D01*
X145441276Y-76517166D01*
X145426958Y-76519290D01*
X145412500Y-76520000D01*
X145117500Y-76520000D01*
X145103042Y-76519290D01*
X145088724Y-76517166D01*
X145074683Y-76513649D01*
X145061054Y-76508772D01*
X145047969Y-76502583D01*
X145035553Y-76495142D01*
X145023927Y-76486519D01*
X145013202Y-76476798D01*
X145003481Y-76466073D01*
X144994858Y-76454447D01*
X144987417Y-76442031D01*
X144981228Y-76428946D01*
X144976351Y-76415317D01*
X144972834Y-76401276D01*
X144970710Y-76386958D01*
X144970000Y-76372500D01*
X144970000Y-76027500D01*
X144970710Y-76013042D01*
X144972834Y-75998724D01*
X144976351Y-75984683D01*
X144981228Y-75971054D01*
X144987417Y-75957969D01*
X144994858Y-75945553D01*
X145003481Y-75933927D01*
X145013202Y-75923202D01*
X145023927Y-75913481D01*
X145035553Y-75904858D01*
X145047969Y-75897417D01*
X145061054Y-75891228D01*
X145074683Y-75886351D01*
X145088724Y-75882834D01*
X145103042Y-75880710D01*
X145117500Y-75880000D01*
X145412500Y-75880000D01*
X145426958Y-75880710D01*
X145426958Y-75880710D01*
G37*
D12*
X145265000Y-76200000D03*
G04 #@! TD*
D11*
G04 #@! TO.C,R107*
G36*
X144456958Y-74864710D02*
X144471276Y-74866834D01*
X144485317Y-74870351D01*
X144498946Y-74875228D01*
X144512031Y-74881417D01*
X144524447Y-74888858D01*
X144536073Y-74897481D01*
X144546798Y-74907202D01*
X144556519Y-74917927D01*
X144565142Y-74929553D01*
X144572583Y-74941969D01*
X144578772Y-74955054D01*
X144583649Y-74968683D01*
X144587166Y-74982724D01*
X144589290Y-74997042D01*
X144590000Y-75011500D01*
X144590000Y-75356500D01*
X144589290Y-75370958D01*
X144587166Y-75385276D01*
X144583649Y-75399317D01*
X144578772Y-75412946D01*
X144572583Y-75426031D01*
X144565142Y-75438447D01*
X144556519Y-75450073D01*
X144546798Y-75460798D01*
X144536073Y-75470519D01*
X144524447Y-75479142D01*
X144512031Y-75486583D01*
X144498946Y-75492772D01*
X144485317Y-75497649D01*
X144471276Y-75501166D01*
X144456958Y-75503290D01*
X144442500Y-75504000D01*
X144147500Y-75504000D01*
X144133042Y-75503290D01*
X144118724Y-75501166D01*
X144104683Y-75497649D01*
X144091054Y-75492772D01*
X144077969Y-75486583D01*
X144065553Y-75479142D01*
X144053927Y-75470519D01*
X144043202Y-75460798D01*
X144033481Y-75450073D01*
X144024858Y-75438447D01*
X144017417Y-75426031D01*
X144011228Y-75412946D01*
X144006351Y-75399317D01*
X144002834Y-75385276D01*
X144000710Y-75370958D01*
X144000000Y-75356500D01*
X144000000Y-75011500D01*
X144000710Y-74997042D01*
X144002834Y-74982724D01*
X144006351Y-74968683D01*
X144011228Y-74955054D01*
X144017417Y-74941969D01*
X144024858Y-74929553D01*
X144033481Y-74917927D01*
X144043202Y-74907202D01*
X144053927Y-74897481D01*
X144065553Y-74888858D01*
X144077969Y-74881417D01*
X144091054Y-74875228D01*
X144104683Y-74870351D01*
X144118724Y-74866834D01*
X144133042Y-74864710D01*
X144147500Y-74864000D01*
X144442500Y-74864000D01*
X144456958Y-74864710D01*
X144456958Y-74864710D01*
G37*
D12*
X144295000Y-75184000D03*
D11*
G36*
X145426958Y-74864710D02*
X145441276Y-74866834D01*
X145455317Y-74870351D01*
X145468946Y-74875228D01*
X145482031Y-74881417D01*
X145494447Y-74888858D01*
X145506073Y-74897481D01*
X145516798Y-74907202D01*
X145526519Y-74917927D01*
X145535142Y-74929553D01*
X145542583Y-74941969D01*
X145548772Y-74955054D01*
X145553649Y-74968683D01*
X145557166Y-74982724D01*
X145559290Y-74997042D01*
X145560000Y-75011500D01*
X145560000Y-75356500D01*
X145559290Y-75370958D01*
X145557166Y-75385276D01*
X145553649Y-75399317D01*
X145548772Y-75412946D01*
X145542583Y-75426031D01*
X145535142Y-75438447D01*
X145526519Y-75450073D01*
X145516798Y-75460798D01*
X145506073Y-75470519D01*
X145494447Y-75479142D01*
X145482031Y-75486583D01*
X145468946Y-75492772D01*
X145455317Y-75497649D01*
X145441276Y-75501166D01*
X145426958Y-75503290D01*
X145412500Y-75504000D01*
X145117500Y-75504000D01*
X145103042Y-75503290D01*
X145088724Y-75501166D01*
X145074683Y-75497649D01*
X145061054Y-75492772D01*
X145047969Y-75486583D01*
X145035553Y-75479142D01*
X145023927Y-75470519D01*
X145013202Y-75460798D01*
X145003481Y-75450073D01*
X144994858Y-75438447D01*
X144987417Y-75426031D01*
X144981228Y-75412946D01*
X144976351Y-75399317D01*
X144972834Y-75385276D01*
X144970710Y-75370958D01*
X144970000Y-75356500D01*
X144970000Y-75011500D01*
X144970710Y-74997042D01*
X144972834Y-74982724D01*
X144976351Y-74968683D01*
X144981228Y-74955054D01*
X144987417Y-74941969D01*
X144994858Y-74929553D01*
X145003481Y-74917927D01*
X145013202Y-74907202D01*
X145023927Y-74897481D01*
X145035553Y-74888858D01*
X145047969Y-74881417D01*
X145061054Y-74875228D01*
X145074683Y-74870351D01*
X145088724Y-74866834D01*
X145103042Y-74864710D01*
X145117500Y-74864000D01*
X145412500Y-74864000D01*
X145426958Y-74864710D01*
X145426958Y-74864710D01*
G37*
D12*
X145265000Y-75184000D03*
G04 #@! TD*
D11*
G04 #@! TO.C,R301*
G36*
X167547958Y-62545710D02*
X167562276Y-62547834D01*
X167576317Y-62551351D01*
X167589946Y-62556228D01*
X167603031Y-62562417D01*
X167615447Y-62569858D01*
X167627073Y-62578481D01*
X167637798Y-62588202D01*
X167647519Y-62598927D01*
X167656142Y-62610553D01*
X167663583Y-62622969D01*
X167669772Y-62636054D01*
X167674649Y-62649683D01*
X167678166Y-62663724D01*
X167680290Y-62678042D01*
X167681000Y-62692500D01*
X167681000Y-63037500D01*
X167680290Y-63051958D01*
X167678166Y-63066276D01*
X167674649Y-63080317D01*
X167669772Y-63093946D01*
X167663583Y-63107031D01*
X167656142Y-63119447D01*
X167647519Y-63131073D01*
X167637798Y-63141798D01*
X167627073Y-63151519D01*
X167615447Y-63160142D01*
X167603031Y-63167583D01*
X167589946Y-63173772D01*
X167576317Y-63178649D01*
X167562276Y-63182166D01*
X167547958Y-63184290D01*
X167533500Y-63185000D01*
X167238500Y-63185000D01*
X167224042Y-63184290D01*
X167209724Y-63182166D01*
X167195683Y-63178649D01*
X167182054Y-63173772D01*
X167168969Y-63167583D01*
X167156553Y-63160142D01*
X167144927Y-63151519D01*
X167134202Y-63141798D01*
X167124481Y-63131073D01*
X167115858Y-63119447D01*
X167108417Y-63107031D01*
X167102228Y-63093946D01*
X167097351Y-63080317D01*
X167093834Y-63066276D01*
X167091710Y-63051958D01*
X167091000Y-63037500D01*
X167091000Y-62692500D01*
X167091710Y-62678042D01*
X167093834Y-62663724D01*
X167097351Y-62649683D01*
X167102228Y-62636054D01*
X167108417Y-62622969D01*
X167115858Y-62610553D01*
X167124481Y-62598927D01*
X167134202Y-62588202D01*
X167144927Y-62578481D01*
X167156553Y-62569858D01*
X167168969Y-62562417D01*
X167182054Y-62556228D01*
X167195683Y-62551351D01*
X167209724Y-62547834D01*
X167224042Y-62545710D01*
X167238500Y-62545000D01*
X167533500Y-62545000D01*
X167547958Y-62545710D01*
X167547958Y-62545710D01*
G37*
D12*
X167386000Y-62865000D03*
D11*
G36*
X166577958Y-62545710D02*
X166592276Y-62547834D01*
X166606317Y-62551351D01*
X166619946Y-62556228D01*
X166633031Y-62562417D01*
X166645447Y-62569858D01*
X166657073Y-62578481D01*
X166667798Y-62588202D01*
X166677519Y-62598927D01*
X166686142Y-62610553D01*
X166693583Y-62622969D01*
X166699772Y-62636054D01*
X166704649Y-62649683D01*
X166708166Y-62663724D01*
X166710290Y-62678042D01*
X166711000Y-62692500D01*
X166711000Y-63037500D01*
X166710290Y-63051958D01*
X166708166Y-63066276D01*
X166704649Y-63080317D01*
X166699772Y-63093946D01*
X166693583Y-63107031D01*
X166686142Y-63119447D01*
X166677519Y-63131073D01*
X166667798Y-63141798D01*
X166657073Y-63151519D01*
X166645447Y-63160142D01*
X166633031Y-63167583D01*
X166619946Y-63173772D01*
X166606317Y-63178649D01*
X166592276Y-63182166D01*
X166577958Y-63184290D01*
X166563500Y-63185000D01*
X166268500Y-63185000D01*
X166254042Y-63184290D01*
X166239724Y-63182166D01*
X166225683Y-63178649D01*
X166212054Y-63173772D01*
X166198969Y-63167583D01*
X166186553Y-63160142D01*
X166174927Y-63151519D01*
X166164202Y-63141798D01*
X166154481Y-63131073D01*
X166145858Y-63119447D01*
X166138417Y-63107031D01*
X166132228Y-63093946D01*
X166127351Y-63080317D01*
X166123834Y-63066276D01*
X166121710Y-63051958D01*
X166121000Y-63037500D01*
X166121000Y-62692500D01*
X166121710Y-62678042D01*
X166123834Y-62663724D01*
X166127351Y-62649683D01*
X166132228Y-62636054D01*
X166138417Y-62622969D01*
X166145858Y-62610553D01*
X166154481Y-62598927D01*
X166164202Y-62588202D01*
X166174927Y-62578481D01*
X166186553Y-62569858D01*
X166198969Y-62562417D01*
X166212054Y-62556228D01*
X166225683Y-62551351D01*
X166239724Y-62547834D01*
X166254042Y-62545710D01*
X166268500Y-62545000D01*
X166563500Y-62545000D01*
X166577958Y-62545710D01*
X166577958Y-62545710D01*
G37*
D12*
X166416000Y-62865000D03*
G04 #@! TD*
D11*
G04 #@! TO.C,R302*
G36*
X185265142Y-65221174D02*
X185288803Y-65224684D01*
X185312007Y-65230496D01*
X185334529Y-65238554D01*
X185356153Y-65248782D01*
X185376670Y-65261079D01*
X185395883Y-65275329D01*
X185413607Y-65291393D01*
X185429671Y-65309117D01*
X185443921Y-65328330D01*
X185456218Y-65348847D01*
X185466446Y-65370471D01*
X185474504Y-65392993D01*
X185480316Y-65416197D01*
X185483826Y-65439858D01*
X185485000Y-65463750D01*
X185485000Y-65951250D01*
X185483826Y-65975142D01*
X185480316Y-65998803D01*
X185474504Y-66022007D01*
X185466446Y-66044529D01*
X185456218Y-66066153D01*
X185443921Y-66086670D01*
X185429671Y-66105883D01*
X185413607Y-66123607D01*
X185395883Y-66139671D01*
X185376670Y-66153921D01*
X185356153Y-66166218D01*
X185334529Y-66176446D01*
X185312007Y-66184504D01*
X185288803Y-66190316D01*
X185265142Y-66193826D01*
X185241250Y-66195000D01*
X184328750Y-66195000D01*
X184304858Y-66193826D01*
X184281197Y-66190316D01*
X184257993Y-66184504D01*
X184235471Y-66176446D01*
X184213847Y-66166218D01*
X184193330Y-66153921D01*
X184174117Y-66139671D01*
X184156393Y-66123607D01*
X184140329Y-66105883D01*
X184126079Y-66086670D01*
X184113782Y-66066153D01*
X184103554Y-66044529D01*
X184095496Y-66022007D01*
X184089684Y-65998803D01*
X184086174Y-65975142D01*
X184085000Y-65951250D01*
X184085000Y-65463750D01*
X184086174Y-65439858D01*
X184089684Y-65416197D01*
X184095496Y-65392993D01*
X184103554Y-65370471D01*
X184113782Y-65348847D01*
X184126079Y-65328330D01*
X184140329Y-65309117D01*
X184156393Y-65291393D01*
X184174117Y-65275329D01*
X184193330Y-65261079D01*
X184213847Y-65248782D01*
X184235471Y-65238554D01*
X184257993Y-65230496D01*
X184281197Y-65224684D01*
X184304858Y-65221174D01*
X184328750Y-65220000D01*
X185241250Y-65220000D01*
X185265142Y-65221174D01*
X185265142Y-65221174D01*
G37*
D24*
X184785000Y-65707500D03*
D11*
G36*
X185265142Y-63346174D02*
X185288803Y-63349684D01*
X185312007Y-63355496D01*
X185334529Y-63363554D01*
X185356153Y-63373782D01*
X185376670Y-63386079D01*
X185395883Y-63400329D01*
X185413607Y-63416393D01*
X185429671Y-63434117D01*
X185443921Y-63453330D01*
X185456218Y-63473847D01*
X185466446Y-63495471D01*
X185474504Y-63517993D01*
X185480316Y-63541197D01*
X185483826Y-63564858D01*
X185485000Y-63588750D01*
X185485000Y-64076250D01*
X185483826Y-64100142D01*
X185480316Y-64123803D01*
X185474504Y-64147007D01*
X185466446Y-64169529D01*
X185456218Y-64191153D01*
X185443921Y-64211670D01*
X185429671Y-64230883D01*
X185413607Y-64248607D01*
X185395883Y-64264671D01*
X185376670Y-64278921D01*
X185356153Y-64291218D01*
X185334529Y-64301446D01*
X185312007Y-64309504D01*
X185288803Y-64315316D01*
X185265142Y-64318826D01*
X185241250Y-64320000D01*
X184328750Y-64320000D01*
X184304858Y-64318826D01*
X184281197Y-64315316D01*
X184257993Y-64309504D01*
X184235471Y-64301446D01*
X184213847Y-64291218D01*
X184193330Y-64278921D01*
X184174117Y-64264671D01*
X184156393Y-64248607D01*
X184140329Y-64230883D01*
X184126079Y-64211670D01*
X184113782Y-64191153D01*
X184103554Y-64169529D01*
X184095496Y-64147007D01*
X184089684Y-64123803D01*
X184086174Y-64100142D01*
X184085000Y-64076250D01*
X184085000Y-63588750D01*
X184086174Y-63564858D01*
X184089684Y-63541197D01*
X184095496Y-63517993D01*
X184103554Y-63495471D01*
X184113782Y-63473847D01*
X184126079Y-63453330D01*
X184140329Y-63434117D01*
X184156393Y-63416393D01*
X184174117Y-63400329D01*
X184193330Y-63386079D01*
X184213847Y-63373782D01*
X184235471Y-63363554D01*
X184257993Y-63355496D01*
X184281197Y-63349684D01*
X184304858Y-63346174D01*
X184328750Y-63345000D01*
X185241250Y-63345000D01*
X185265142Y-63346174D01*
X185265142Y-63346174D01*
G37*
D24*
X184785000Y-63832500D03*
G04 #@! TD*
D11*
G04 #@! TO.C,R303*
G36*
X185265142Y-69696174D02*
X185288803Y-69699684D01*
X185312007Y-69705496D01*
X185334529Y-69713554D01*
X185356153Y-69723782D01*
X185376670Y-69736079D01*
X185395883Y-69750329D01*
X185413607Y-69766393D01*
X185429671Y-69784117D01*
X185443921Y-69803330D01*
X185456218Y-69823847D01*
X185466446Y-69845471D01*
X185474504Y-69867993D01*
X185480316Y-69891197D01*
X185483826Y-69914858D01*
X185485000Y-69938750D01*
X185485000Y-70426250D01*
X185483826Y-70450142D01*
X185480316Y-70473803D01*
X185474504Y-70497007D01*
X185466446Y-70519529D01*
X185456218Y-70541153D01*
X185443921Y-70561670D01*
X185429671Y-70580883D01*
X185413607Y-70598607D01*
X185395883Y-70614671D01*
X185376670Y-70628921D01*
X185356153Y-70641218D01*
X185334529Y-70651446D01*
X185312007Y-70659504D01*
X185288803Y-70665316D01*
X185265142Y-70668826D01*
X185241250Y-70670000D01*
X184328750Y-70670000D01*
X184304858Y-70668826D01*
X184281197Y-70665316D01*
X184257993Y-70659504D01*
X184235471Y-70651446D01*
X184213847Y-70641218D01*
X184193330Y-70628921D01*
X184174117Y-70614671D01*
X184156393Y-70598607D01*
X184140329Y-70580883D01*
X184126079Y-70561670D01*
X184113782Y-70541153D01*
X184103554Y-70519529D01*
X184095496Y-70497007D01*
X184089684Y-70473803D01*
X184086174Y-70450142D01*
X184085000Y-70426250D01*
X184085000Y-69938750D01*
X184086174Y-69914858D01*
X184089684Y-69891197D01*
X184095496Y-69867993D01*
X184103554Y-69845471D01*
X184113782Y-69823847D01*
X184126079Y-69803330D01*
X184140329Y-69784117D01*
X184156393Y-69766393D01*
X184174117Y-69750329D01*
X184193330Y-69736079D01*
X184213847Y-69723782D01*
X184235471Y-69713554D01*
X184257993Y-69705496D01*
X184281197Y-69699684D01*
X184304858Y-69696174D01*
X184328750Y-69695000D01*
X185241250Y-69695000D01*
X185265142Y-69696174D01*
X185265142Y-69696174D01*
G37*
D24*
X184785000Y-70182500D03*
D11*
G36*
X185265142Y-71571174D02*
X185288803Y-71574684D01*
X185312007Y-71580496D01*
X185334529Y-71588554D01*
X185356153Y-71598782D01*
X185376670Y-71611079D01*
X185395883Y-71625329D01*
X185413607Y-71641393D01*
X185429671Y-71659117D01*
X185443921Y-71678330D01*
X185456218Y-71698847D01*
X185466446Y-71720471D01*
X185474504Y-71742993D01*
X185480316Y-71766197D01*
X185483826Y-71789858D01*
X185485000Y-71813750D01*
X185485000Y-72301250D01*
X185483826Y-72325142D01*
X185480316Y-72348803D01*
X185474504Y-72372007D01*
X185466446Y-72394529D01*
X185456218Y-72416153D01*
X185443921Y-72436670D01*
X185429671Y-72455883D01*
X185413607Y-72473607D01*
X185395883Y-72489671D01*
X185376670Y-72503921D01*
X185356153Y-72516218D01*
X185334529Y-72526446D01*
X185312007Y-72534504D01*
X185288803Y-72540316D01*
X185265142Y-72543826D01*
X185241250Y-72545000D01*
X184328750Y-72545000D01*
X184304858Y-72543826D01*
X184281197Y-72540316D01*
X184257993Y-72534504D01*
X184235471Y-72526446D01*
X184213847Y-72516218D01*
X184193330Y-72503921D01*
X184174117Y-72489671D01*
X184156393Y-72473607D01*
X184140329Y-72455883D01*
X184126079Y-72436670D01*
X184113782Y-72416153D01*
X184103554Y-72394529D01*
X184095496Y-72372007D01*
X184089684Y-72348803D01*
X184086174Y-72325142D01*
X184085000Y-72301250D01*
X184085000Y-71813750D01*
X184086174Y-71789858D01*
X184089684Y-71766197D01*
X184095496Y-71742993D01*
X184103554Y-71720471D01*
X184113782Y-71698847D01*
X184126079Y-71678330D01*
X184140329Y-71659117D01*
X184156393Y-71641393D01*
X184174117Y-71625329D01*
X184193330Y-71611079D01*
X184213847Y-71598782D01*
X184235471Y-71588554D01*
X184257993Y-71580496D01*
X184281197Y-71574684D01*
X184304858Y-71571174D01*
X184328750Y-71570000D01*
X185241250Y-71570000D01*
X185265142Y-71571174D01*
X185265142Y-71571174D01*
G37*
D24*
X184785000Y-72057500D03*
G04 #@! TD*
D11*
G04 #@! TO.C,R304*
G36*
X185265142Y-76046174D02*
X185288803Y-76049684D01*
X185312007Y-76055496D01*
X185334529Y-76063554D01*
X185356153Y-76073782D01*
X185376670Y-76086079D01*
X185395883Y-76100329D01*
X185413607Y-76116393D01*
X185429671Y-76134117D01*
X185443921Y-76153330D01*
X185456218Y-76173847D01*
X185466446Y-76195471D01*
X185474504Y-76217993D01*
X185480316Y-76241197D01*
X185483826Y-76264858D01*
X185485000Y-76288750D01*
X185485000Y-76776250D01*
X185483826Y-76800142D01*
X185480316Y-76823803D01*
X185474504Y-76847007D01*
X185466446Y-76869529D01*
X185456218Y-76891153D01*
X185443921Y-76911670D01*
X185429671Y-76930883D01*
X185413607Y-76948607D01*
X185395883Y-76964671D01*
X185376670Y-76978921D01*
X185356153Y-76991218D01*
X185334529Y-77001446D01*
X185312007Y-77009504D01*
X185288803Y-77015316D01*
X185265142Y-77018826D01*
X185241250Y-77020000D01*
X184328750Y-77020000D01*
X184304858Y-77018826D01*
X184281197Y-77015316D01*
X184257993Y-77009504D01*
X184235471Y-77001446D01*
X184213847Y-76991218D01*
X184193330Y-76978921D01*
X184174117Y-76964671D01*
X184156393Y-76948607D01*
X184140329Y-76930883D01*
X184126079Y-76911670D01*
X184113782Y-76891153D01*
X184103554Y-76869529D01*
X184095496Y-76847007D01*
X184089684Y-76823803D01*
X184086174Y-76800142D01*
X184085000Y-76776250D01*
X184085000Y-76288750D01*
X184086174Y-76264858D01*
X184089684Y-76241197D01*
X184095496Y-76217993D01*
X184103554Y-76195471D01*
X184113782Y-76173847D01*
X184126079Y-76153330D01*
X184140329Y-76134117D01*
X184156393Y-76116393D01*
X184174117Y-76100329D01*
X184193330Y-76086079D01*
X184213847Y-76073782D01*
X184235471Y-76063554D01*
X184257993Y-76055496D01*
X184281197Y-76049684D01*
X184304858Y-76046174D01*
X184328750Y-76045000D01*
X185241250Y-76045000D01*
X185265142Y-76046174D01*
X185265142Y-76046174D01*
G37*
D24*
X184785000Y-76532500D03*
D11*
G36*
X185265142Y-77921174D02*
X185288803Y-77924684D01*
X185312007Y-77930496D01*
X185334529Y-77938554D01*
X185356153Y-77948782D01*
X185376670Y-77961079D01*
X185395883Y-77975329D01*
X185413607Y-77991393D01*
X185429671Y-78009117D01*
X185443921Y-78028330D01*
X185456218Y-78048847D01*
X185466446Y-78070471D01*
X185474504Y-78092993D01*
X185480316Y-78116197D01*
X185483826Y-78139858D01*
X185485000Y-78163750D01*
X185485000Y-78651250D01*
X185483826Y-78675142D01*
X185480316Y-78698803D01*
X185474504Y-78722007D01*
X185466446Y-78744529D01*
X185456218Y-78766153D01*
X185443921Y-78786670D01*
X185429671Y-78805883D01*
X185413607Y-78823607D01*
X185395883Y-78839671D01*
X185376670Y-78853921D01*
X185356153Y-78866218D01*
X185334529Y-78876446D01*
X185312007Y-78884504D01*
X185288803Y-78890316D01*
X185265142Y-78893826D01*
X185241250Y-78895000D01*
X184328750Y-78895000D01*
X184304858Y-78893826D01*
X184281197Y-78890316D01*
X184257993Y-78884504D01*
X184235471Y-78876446D01*
X184213847Y-78866218D01*
X184193330Y-78853921D01*
X184174117Y-78839671D01*
X184156393Y-78823607D01*
X184140329Y-78805883D01*
X184126079Y-78786670D01*
X184113782Y-78766153D01*
X184103554Y-78744529D01*
X184095496Y-78722007D01*
X184089684Y-78698803D01*
X184086174Y-78675142D01*
X184085000Y-78651250D01*
X184085000Y-78163750D01*
X184086174Y-78139858D01*
X184089684Y-78116197D01*
X184095496Y-78092993D01*
X184103554Y-78070471D01*
X184113782Y-78048847D01*
X184126079Y-78028330D01*
X184140329Y-78009117D01*
X184156393Y-77991393D01*
X184174117Y-77975329D01*
X184193330Y-77961079D01*
X184213847Y-77948782D01*
X184235471Y-77938554D01*
X184257993Y-77930496D01*
X184281197Y-77924684D01*
X184304858Y-77921174D01*
X184328750Y-77920000D01*
X185241250Y-77920000D01*
X185265142Y-77921174D01*
X185265142Y-77921174D01*
G37*
D24*
X184785000Y-78407500D03*
G04 #@! TD*
D11*
G04 #@! TO.C,R501*
G36*
X145426958Y-79944710D02*
X145441276Y-79946834D01*
X145455317Y-79950351D01*
X145468946Y-79955228D01*
X145482031Y-79961417D01*
X145494447Y-79968858D01*
X145506073Y-79977481D01*
X145516798Y-79987202D01*
X145526519Y-79997927D01*
X145535142Y-80009553D01*
X145542583Y-80021969D01*
X145548772Y-80035054D01*
X145553649Y-80048683D01*
X145557166Y-80062724D01*
X145559290Y-80077042D01*
X145560000Y-80091500D01*
X145560000Y-80436500D01*
X145559290Y-80450958D01*
X145557166Y-80465276D01*
X145553649Y-80479317D01*
X145548772Y-80492946D01*
X145542583Y-80506031D01*
X145535142Y-80518447D01*
X145526519Y-80530073D01*
X145516798Y-80540798D01*
X145506073Y-80550519D01*
X145494447Y-80559142D01*
X145482031Y-80566583D01*
X145468946Y-80572772D01*
X145455317Y-80577649D01*
X145441276Y-80581166D01*
X145426958Y-80583290D01*
X145412500Y-80584000D01*
X145117500Y-80584000D01*
X145103042Y-80583290D01*
X145088724Y-80581166D01*
X145074683Y-80577649D01*
X145061054Y-80572772D01*
X145047969Y-80566583D01*
X145035553Y-80559142D01*
X145023927Y-80550519D01*
X145013202Y-80540798D01*
X145003481Y-80530073D01*
X144994858Y-80518447D01*
X144987417Y-80506031D01*
X144981228Y-80492946D01*
X144976351Y-80479317D01*
X144972834Y-80465276D01*
X144970710Y-80450958D01*
X144970000Y-80436500D01*
X144970000Y-80091500D01*
X144970710Y-80077042D01*
X144972834Y-80062724D01*
X144976351Y-80048683D01*
X144981228Y-80035054D01*
X144987417Y-80021969D01*
X144994858Y-80009553D01*
X145003481Y-79997927D01*
X145013202Y-79987202D01*
X145023927Y-79977481D01*
X145035553Y-79968858D01*
X145047969Y-79961417D01*
X145061054Y-79955228D01*
X145074683Y-79950351D01*
X145088724Y-79946834D01*
X145103042Y-79944710D01*
X145117500Y-79944000D01*
X145412500Y-79944000D01*
X145426958Y-79944710D01*
X145426958Y-79944710D01*
G37*
D12*
X145265000Y-80264000D03*
D11*
G36*
X144456958Y-79944710D02*
X144471276Y-79946834D01*
X144485317Y-79950351D01*
X144498946Y-79955228D01*
X144512031Y-79961417D01*
X144524447Y-79968858D01*
X144536073Y-79977481D01*
X144546798Y-79987202D01*
X144556519Y-79997927D01*
X144565142Y-80009553D01*
X144572583Y-80021969D01*
X144578772Y-80035054D01*
X144583649Y-80048683D01*
X144587166Y-80062724D01*
X144589290Y-80077042D01*
X144590000Y-80091500D01*
X144590000Y-80436500D01*
X144589290Y-80450958D01*
X144587166Y-80465276D01*
X144583649Y-80479317D01*
X144578772Y-80492946D01*
X144572583Y-80506031D01*
X144565142Y-80518447D01*
X144556519Y-80530073D01*
X144546798Y-80540798D01*
X144536073Y-80550519D01*
X144524447Y-80559142D01*
X144512031Y-80566583D01*
X144498946Y-80572772D01*
X144485317Y-80577649D01*
X144471276Y-80581166D01*
X144456958Y-80583290D01*
X144442500Y-80584000D01*
X144147500Y-80584000D01*
X144133042Y-80583290D01*
X144118724Y-80581166D01*
X144104683Y-80577649D01*
X144091054Y-80572772D01*
X144077969Y-80566583D01*
X144065553Y-80559142D01*
X144053927Y-80550519D01*
X144043202Y-80540798D01*
X144033481Y-80530073D01*
X144024858Y-80518447D01*
X144017417Y-80506031D01*
X144011228Y-80492946D01*
X144006351Y-80479317D01*
X144002834Y-80465276D01*
X144000710Y-80450958D01*
X144000000Y-80436500D01*
X144000000Y-80091500D01*
X144000710Y-80077042D01*
X144002834Y-80062724D01*
X144006351Y-80048683D01*
X144011228Y-80035054D01*
X144017417Y-80021969D01*
X144024858Y-80009553D01*
X144033481Y-79997927D01*
X144043202Y-79987202D01*
X144053927Y-79977481D01*
X144065553Y-79968858D01*
X144077969Y-79961417D01*
X144091054Y-79955228D01*
X144104683Y-79950351D01*
X144118724Y-79946834D01*
X144133042Y-79944710D01*
X144147500Y-79944000D01*
X144442500Y-79944000D01*
X144456958Y-79944710D01*
X144456958Y-79944710D01*
G37*
D12*
X144295000Y-80264000D03*
G04 #@! TD*
D11*
G04 #@! TO.C,R502*
G36*
X145426958Y-78928710D02*
X145441276Y-78930834D01*
X145455317Y-78934351D01*
X145468946Y-78939228D01*
X145482031Y-78945417D01*
X145494447Y-78952858D01*
X145506073Y-78961481D01*
X145516798Y-78971202D01*
X145526519Y-78981927D01*
X145535142Y-78993553D01*
X145542583Y-79005969D01*
X145548772Y-79019054D01*
X145553649Y-79032683D01*
X145557166Y-79046724D01*
X145559290Y-79061042D01*
X145560000Y-79075500D01*
X145560000Y-79420500D01*
X145559290Y-79434958D01*
X145557166Y-79449276D01*
X145553649Y-79463317D01*
X145548772Y-79476946D01*
X145542583Y-79490031D01*
X145535142Y-79502447D01*
X145526519Y-79514073D01*
X145516798Y-79524798D01*
X145506073Y-79534519D01*
X145494447Y-79543142D01*
X145482031Y-79550583D01*
X145468946Y-79556772D01*
X145455317Y-79561649D01*
X145441276Y-79565166D01*
X145426958Y-79567290D01*
X145412500Y-79568000D01*
X145117500Y-79568000D01*
X145103042Y-79567290D01*
X145088724Y-79565166D01*
X145074683Y-79561649D01*
X145061054Y-79556772D01*
X145047969Y-79550583D01*
X145035553Y-79543142D01*
X145023927Y-79534519D01*
X145013202Y-79524798D01*
X145003481Y-79514073D01*
X144994858Y-79502447D01*
X144987417Y-79490031D01*
X144981228Y-79476946D01*
X144976351Y-79463317D01*
X144972834Y-79449276D01*
X144970710Y-79434958D01*
X144970000Y-79420500D01*
X144970000Y-79075500D01*
X144970710Y-79061042D01*
X144972834Y-79046724D01*
X144976351Y-79032683D01*
X144981228Y-79019054D01*
X144987417Y-79005969D01*
X144994858Y-78993553D01*
X145003481Y-78981927D01*
X145013202Y-78971202D01*
X145023927Y-78961481D01*
X145035553Y-78952858D01*
X145047969Y-78945417D01*
X145061054Y-78939228D01*
X145074683Y-78934351D01*
X145088724Y-78930834D01*
X145103042Y-78928710D01*
X145117500Y-78928000D01*
X145412500Y-78928000D01*
X145426958Y-78928710D01*
X145426958Y-78928710D01*
G37*
D12*
X145265000Y-79248000D03*
D11*
G36*
X144456958Y-78928710D02*
X144471276Y-78930834D01*
X144485317Y-78934351D01*
X144498946Y-78939228D01*
X144512031Y-78945417D01*
X144524447Y-78952858D01*
X144536073Y-78961481D01*
X144546798Y-78971202D01*
X144556519Y-78981927D01*
X144565142Y-78993553D01*
X144572583Y-79005969D01*
X144578772Y-79019054D01*
X144583649Y-79032683D01*
X144587166Y-79046724D01*
X144589290Y-79061042D01*
X144590000Y-79075500D01*
X144590000Y-79420500D01*
X144589290Y-79434958D01*
X144587166Y-79449276D01*
X144583649Y-79463317D01*
X144578772Y-79476946D01*
X144572583Y-79490031D01*
X144565142Y-79502447D01*
X144556519Y-79514073D01*
X144546798Y-79524798D01*
X144536073Y-79534519D01*
X144524447Y-79543142D01*
X144512031Y-79550583D01*
X144498946Y-79556772D01*
X144485317Y-79561649D01*
X144471276Y-79565166D01*
X144456958Y-79567290D01*
X144442500Y-79568000D01*
X144147500Y-79568000D01*
X144133042Y-79567290D01*
X144118724Y-79565166D01*
X144104683Y-79561649D01*
X144091054Y-79556772D01*
X144077969Y-79550583D01*
X144065553Y-79543142D01*
X144053927Y-79534519D01*
X144043202Y-79524798D01*
X144033481Y-79514073D01*
X144024858Y-79502447D01*
X144017417Y-79490031D01*
X144011228Y-79476946D01*
X144006351Y-79463317D01*
X144002834Y-79449276D01*
X144000710Y-79434958D01*
X144000000Y-79420500D01*
X144000000Y-79075500D01*
X144000710Y-79061042D01*
X144002834Y-79046724D01*
X144006351Y-79032683D01*
X144011228Y-79019054D01*
X144017417Y-79005969D01*
X144024858Y-78993553D01*
X144033481Y-78981927D01*
X144043202Y-78971202D01*
X144053927Y-78961481D01*
X144065553Y-78952858D01*
X144077969Y-78945417D01*
X144091054Y-78939228D01*
X144104683Y-78934351D01*
X144118724Y-78930834D01*
X144133042Y-78928710D01*
X144147500Y-78928000D01*
X144442500Y-78928000D01*
X144456958Y-78928710D01*
X144456958Y-78928710D01*
G37*
D12*
X144295000Y-79248000D03*
G04 #@! TD*
D11*
G04 #@! TO.C,R601*
G36*
X144456958Y-72832710D02*
X144471276Y-72834834D01*
X144485317Y-72838351D01*
X144498946Y-72843228D01*
X144512031Y-72849417D01*
X144524447Y-72856858D01*
X144536073Y-72865481D01*
X144546798Y-72875202D01*
X144556519Y-72885927D01*
X144565142Y-72897553D01*
X144572583Y-72909969D01*
X144578772Y-72923054D01*
X144583649Y-72936683D01*
X144587166Y-72950724D01*
X144589290Y-72965042D01*
X144590000Y-72979500D01*
X144590000Y-73324500D01*
X144589290Y-73338958D01*
X144587166Y-73353276D01*
X144583649Y-73367317D01*
X144578772Y-73380946D01*
X144572583Y-73394031D01*
X144565142Y-73406447D01*
X144556519Y-73418073D01*
X144546798Y-73428798D01*
X144536073Y-73438519D01*
X144524447Y-73447142D01*
X144512031Y-73454583D01*
X144498946Y-73460772D01*
X144485317Y-73465649D01*
X144471276Y-73469166D01*
X144456958Y-73471290D01*
X144442500Y-73472000D01*
X144147500Y-73472000D01*
X144133042Y-73471290D01*
X144118724Y-73469166D01*
X144104683Y-73465649D01*
X144091054Y-73460772D01*
X144077969Y-73454583D01*
X144065553Y-73447142D01*
X144053927Y-73438519D01*
X144043202Y-73428798D01*
X144033481Y-73418073D01*
X144024858Y-73406447D01*
X144017417Y-73394031D01*
X144011228Y-73380946D01*
X144006351Y-73367317D01*
X144002834Y-73353276D01*
X144000710Y-73338958D01*
X144000000Y-73324500D01*
X144000000Y-72979500D01*
X144000710Y-72965042D01*
X144002834Y-72950724D01*
X144006351Y-72936683D01*
X144011228Y-72923054D01*
X144017417Y-72909969D01*
X144024858Y-72897553D01*
X144033481Y-72885927D01*
X144043202Y-72875202D01*
X144053927Y-72865481D01*
X144065553Y-72856858D01*
X144077969Y-72849417D01*
X144091054Y-72843228D01*
X144104683Y-72838351D01*
X144118724Y-72834834D01*
X144133042Y-72832710D01*
X144147500Y-72832000D01*
X144442500Y-72832000D01*
X144456958Y-72832710D01*
X144456958Y-72832710D01*
G37*
D12*
X144295000Y-73152000D03*
D11*
G36*
X145426958Y-72832710D02*
X145441276Y-72834834D01*
X145455317Y-72838351D01*
X145468946Y-72843228D01*
X145482031Y-72849417D01*
X145494447Y-72856858D01*
X145506073Y-72865481D01*
X145516798Y-72875202D01*
X145526519Y-72885927D01*
X145535142Y-72897553D01*
X145542583Y-72909969D01*
X145548772Y-72923054D01*
X145553649Y-72936683D01*
X145557166Y-72950724D01*
X145559290Y-72965042D01*
X145560000Y-72979500D01*
X145560000Y-73324500D01*
X145559290Y-73338958D01*
X145557166Y-73353276D01*
X145553649Y-73367317D01*
X145548772Y-73380946D01*
X145542583Y-73394031D01*
X145535142Y-73406447D01*
X145526519Y-73418073D01*
X145516798Y-73428798D01*
X145506073Y-73438519D01*
X145494447Y-73447142D01*
X145482031Y-73454583D01*
X145468946Y-73460772D01*
X145455317Y-73465649D01*
X145441276Y-73469166D01*
X145426958Y-73471290D01*
X145412500Y-73472000D01*
X145117500Y-73472000D01*
X145103042Y-73471290D01*
X145088724Y-73469166D01*
X145074683Y-73465649D01*
X145061054Y-73460772D01*
X145047969Y-73454583D01*
X145035553Y-73447142D01*
X145023927Y-73438519D01*
X145013202Y-73428798D01*
X145003481Y-73418073D01*
X144994858Y-73406447D01*
X144987417Y-73394031D01*
X144981228Y-73380946D01*
X144976351Y-73367317D01*
X144972834Y-73353276D01*
X144970710Y-73338958D01*
X144970000Y-73324500D01*
X144970000Y-72979500D01*
X144970710Y-72965042D01*
X144972834Y-72950724D01*
X144976351Y-72936683D01*
X144981228Y-72923054D01*
X144987417Y-72909969D01*
X144994858Y-72897553D01*
X145003481Y-72885927D01*
X145013202Y-72875202D01*
X145023927Y-72865481D01*
X145035553Y-72856858D01*
X145047969Y-72849417D01*
X145061054Y-72843228D01*
X145074683Y-72838351D01*
X145088724Y-72834834D01*
X145103042Y-72832710D01*
X145117500Y-72832000D01*
X145412500Y-72832000D01*
X145426958Y-72832710D01*
X145426958Y-72832710D01*
G37*
D12*
X145265000Y-73152000D03*
G04 #@! TD*
D11*
G04 #@! TO.C,R602*
G36*
X144456958Y-73848710D02*
X144471276Y-73850834D01*
X144485317Y-73854351D01*
X144498946Y-73859228D01*
X144512031Y-73865417D01*
X144524447Y-73872858D01*
X144536073Y-73881481D01*
X144546798Y-73891202D01*
X144556519Y-73901927D01*
X144565142Y-73913553D01*
X144572583Y-73925969D01*
X144578772Y-73939054D01*
X144583649Y-73952683D01*
X144587166Y-73966724D01*
X144589290Y-73981042D01*
X144590000Y-73995500D01*
X144590000Y-74340500D01*
X144589290Y-74354958D01*
X144587166Y-74369276D01*
X144583649Y-74383317D01*
X144578772Y-74396946D01*
X144572583Y-74410031D01*
X144565142Y-74422447D01*
X144556519Y-74434073D01*
X144546798Y-74444798D01*
X144536073Y-74454519D01*
X144524447Y-74463142D01*
X144512031Y-74470583D01*
X144498946Y-74476772D01*
X144485317Y-74481649D01*
X144471276Y-74485166D01*
X144456958Y-74487290D01*
X144442500Y-74488000D01*
X144147500Y-74488000D01*
X144133042Y-74487290D01*
X144118724Y-74485166D01*
X144104683Y-74481649D01*
X144091054Y-74476772D01*
X144077969Y-74470583D01*
X144065553Y-74463142D01*
X144053927Y-74454519D01*
X144043202Y-74444798D01*
X144033481Y-74434073D01*
X144024858Y-74422447D01*
X144017417Y-74410031D01*
X144011228Y-74396946D01*
X144006351Y-74383317D01*
X144002834Y-74369276D01*
X144000710Y-74354958D01*
X144000000Y-74340500D01*
X144000000Y-73995500D01*
X144000710Y-73981042D01*
X144002834Y-73966724D01*
X144006351Y-73952683D01*
X144011228Y-73939054D01*
X144017417Y-73925969D01*
X144024858Y-73913553D01*
X144033481Y-73901927D01*
X144043202Y-73891202D01*
X144053927Y-73881481D01*
X144065553Y-73872858D01*
X144077969Y-73865417D01*
X144091054Y-73859228D01*
X144104683Y-73854351D01*
X144118724Y-73850834D01*
X144133042Y-73848710D01*
X144147500Y-73848000D01*
X144442500Y-73848000D01*
X144456958Y-73848710D01*
X144456958Y-73848710D01*
G37*
D12*
X144295000Y-74168000D03*
D11*
G36*
X145426958Y-73848710D02*
X145441276Y-73850834D01*
X145455317Y-73854351D01*
X145468946Y-73859228D01*
X145482031Y-73865417D01*
X145494447Y-73872858D01*
X145506073Y-73881481D01*
X145516798Y-73891202D01*
X145526519Y-73901927D01*
X145535142Y-73913553D01*
X145542583Y-73925969D01*
X145548772Y-73939054D01*
X145553649Y-73952683D01*
X145557166Y-73966724D01*
X145559290Y-73981042D01*
X145560000Y-73995500D01*
X145560000Y-74340500D01*
X145559290Y-74354958D01*
X145557166Y-74369276D01*
X145553649Y-74383317D01*
X145548772Y-74396946D01*
X145542583Y-74410031D01*
X145535142Y-74422447D01*
X145526519Y-74434073D01*
X145516798Y-74444798D01*
X145506073Y-74454519D01*
X145494447Y-74463142D01*
X145482031Y-74470583D01*
X145468946Y-74476772D01*
X145455317Y-74481649D01*
X145441276Y-74485166D01*
X145426958Y-74487290D01*
X145412500Y-74488000D01*
X145117500Y-74488000D01*
X145103042Y-74487290D01*
X145088724Y-74485166D01*
X145074683Y-74481649D01*
X145061054Y-74476772D01*
X145047969Y-74470583D01*
X145035553Y-74463142D01*
X145023927Y-74454519D01*
X145013202Y-74444798D01*
X145003481Y-74434073D01*
X144994858Y-74422447D01*
X144987417Y-74410031D01*
X144981228Y-74396946D01*
X144976351Y-74383317D01*
X144972834Y-74369276D01*
X144970710Y-74354958D01*
X144970000Y-74340500D01*
X144970000Y-73995500D01*
X144970710Y-73981042D01*
X144972834Y-73966724D01*
X144976351Y-73952683D01*
X144981228Y-73939054D01*
X144987417Y-73925969D01*
X144994858Y-73913553D01*
X145003481Y-73901927D01*
X145013202Y-73891202D01*
X145023927Y-73881481D01*
X145035553Y-73872858D01*
X145047969Y-73865417D01*
X145061054Y-73859228D01*
X145074683Y-73854351D01*
X145088724Y-73850834D01*
X145103042Y-73848710D01*
X145117500Y-73848000D01*
X145412500Y-73848000D01*
X145426958Y-73848710D01*
X145426958Y-73848710D01*
G37*
D12*
X145265000Y-74168000D03*
G04 #@! TD*
D11*
G04 #@! TO.C,R603*
G36*
X145426958Y-77912710D02*
X145441276Y-77914834D01*
X145455317Y-77918351D01*
X145468946Y-77923228D01*
X145482031Y-77929417D01*
X145494447Y-77936858D01*
X145506073Y-77945481D01*
X145516798Y-77955202D01*
X145526519Y-77965927D01*
X145535142Y-77977553D01*
X145542583Y-77989969D01*
X145548772Y-78003054D01*
X145553649Y-78016683D01*
X145557166Y-78030724D01*
X145559290Y-78045042D01*
X145560000Y-78059500D01*
X145560000Y-78404500D01*
X145559290Y-78418958D01*
X145557166Y-78433276D01*
X145553649Y-78447317D01*
X145548772Y-78460946D01*
X145542583Y-78474031D01*
X145535142Y-78486447D01*
X145526519Y-78498073D01*
X145516798Y-78508798D01*
X145506073Y-78518519D01*
X145494447Y-78527142D01*
X145482031Y-78534583D01*
X145468946Y-78540772D01*
X145455317Y-78545649D01*
X145441276Y-78549166D01*
X145426958Y-78551290D01*
X145412500Y-78552000D01*
X145117500Y-78552000D01*
X145103042Y-78551290D01*
X145088724Y-78549166D01*
X145074683Y-78545649D01*
X145061054Y-78540772D01*
X145047969Y-78534583D01*
X145035553Y-78527142D01*
X145023927Y-78518519D01*
X145013202Y-78508798D01*
X145003481Y-78498073D01*
X144994858Y-78486447D01*
X144987417Y-78474031D01*
X144981228Y-78460946D01*
X144976351Y-78447317D01*
X144972834Y-78433276D01*
X144970710Y-78418958D01*
X144970000Y-78404500D01*
X144970000Y-78059500D01*
X144970710Y-78045042D01*
X144972834Y-78030724D01*
X144976351Y-78016683D01*
X144981228Y-78003054D01*
X144987417Y-77989969D01*
X144994858Y-77977553D01*
X145003481Y-77965927D01*
X145013202Y-77955202D01*
X145023927Y-77945481D01*
X145035553Y-77936858D01*
X145047969Y-77929417D01*
X145061054Y-77923228D01*
X145074683Y-77918351D01*
X145088724Y-77914834D01*
X145103042Y-77912710D01*
X145117500Y-77912000D01*
X145412500Y-77912000D01*
X145426958Y-77912710D01*
X145426958Y-77912710D01*
G37*
D12*
X145265000Y-78232000D03*
D11*
G36*
X144456958Y-77912710D02*
X144471276Y-77914834D01*
X144485317Y-77918351D01*
X144498946Y-77923228D01*
X144512031Y-77929417D01*
X144524447Y-77936858D01*
X144536073Y-77945481D01*
X144546798Y-77955202D01*
X144556519Y-77965927D01*
X144565142Y-77977553D01*
X144572583Y-77989969D01*
X144578772Y-78003054D01*
X144583649Y-78016683D01*
X144587166Y-78030724D01*
X144589290Y-78045042D01*
X144590000Y-78059500D01*
X144590000Y-78404500D01*
X144589290Y-78418958D01*
X144587166Y-78433276D01*
X144583649Y-78447317D01*
X144578772Y-78460946D01*
X144572583Y-78474031D01*
X144565142Y-78486447D01*
X144556519Y-78498073D01*
X144546798Y-78508798D01*
X144536073Y-78518519D01*
X144524447Y-78527142D01*
X144512031Y-78534583D01*
X144498946Y-78540772D01*
X144485317Y-78545649D01*
X144471276Y-78549166D01*
X144456958Y-78551290D01*
X144442500Y-78552000D01*
X144147500Y-78552000D01*
X144133042Y-78551290D01*
X144118724Y-78549166D01*
X144104683Y-78545649D01*
X144091054Y-78540772D01*
X144077969Y-78534583D01*
X144065553Y-78527142D01*
X144053927Y-78518519D01*
X144043202Y-78508798D01*
X144033481Y-78498073D01*
X144024858Y-78486447D01*
X144017417Y-78474031D01*
X144011228Y-78460946D01*
X144006351Y-78447317D01*
X144002834Y-78433276D01*
X144000710Y-78418958D01*
X144000000Y-78404500D01*
X144000000Y-78059500D01*
X144000710Y-78045042D01*
X144002834Y-78030724D01*
X144006351Y-78016683D01*
X144011228Y-78003054D01*
X144017417Y-77989969D01*
X144024858Y-77977553D01*
X144033481Y-77965927D01*
X144043202Y-77955202D01*
X144053927Y-77945481D01*
X144065553Y-77936858D01*
X144077969Y-77929417D01*
X144091054Y-77923228D01*
X144104683Y-77918351D01*
X144118724Y-77914834D01*
X144133042Y-77912710D01*
X144147500Y-77912000D01*
X144442500Y-77912000D01*
X144456958Y-77912710D01*
X144456958Y-77912710D01*
G37*
D12*
X144295000Y-78232000D03*
G04 #@! TD*
D11*
G04 #@! TO.C,R604*
G36*
X136965958Y-72118710D02*
X136980276Y-72120834D01*
X136994317Y-72124351D01*
X137007946Y-72129228D01*
X137021031Y-72135417D01*
X137033447Y-72142858D01*
X137045073Y-72151481D01*
X137055798Y-72161202D01*
X137065519Y-72171927D01*
X137074142Y-72183553D01*
X137081583Y-72195969D01*
X137087772Y-72209054D01*
X137092649Y-72222683D01*
X137096166Y-72236724D01*
X137098290Y-72251042D01*
X137099000Y-72265500D01*
X137099000Y-72560500D01*
X137098290Y-72574958D01*
X137096166Y-72589276D01*
X137092649Y-72603317D01*
X137087772Y-72616946D01*
X137081583Y-72630031D01*
X137074142Y-72642447D01*
X137065519Y-72654073D01*
X137055798Y-72664798D01*
X137045073Y-72674519D01*
X137033447Y-72683142D01*
X137021031Y-72690583D01*
X137007946Y-72696772D01*
X136994317Y-72701649D01*
X136980276Y-72705166D01*
X136965958Y-72707290D01*
X136951500Y-72708000D01*
X136606500Y-72708000D01*
X136592042Y-72707290D01*
X136577724Y-72705166D01*
X136563683Y-72701649D01*
X136550054Y-72696772D01*
X136536969Y-72690583D01*
X136524553Y-72683142D01*
X136512927Y-72674519D01*
X136502202Y-72664798D01*
X136492481Y-72654073D01*
X136483858Y-72642447D01*
X136476417Y-72630031D01*
X136470228Y-72616946D01*
X136465351Y-72603317D01*
X136461834Y-72589276D01*
X136459710Y-72574958D01*
X136459000Y-72560500D01*
X136459000Y-72265500D01*
X136459710Y-72251042D01*
X136461834Y-72236724D01*
X136465351Y-72222683D01*
X136470228Y-72209054D01*
X136476417Y-72195969D01*
X136483858Y-72183553D01*
X136492481Y-72171927D01*
X136502202Y-72161202D01*
X136512927Y-72151481D01*
X136524553Y-72142858D01*
X136536969Y-72135417D01*
X136550054Y-72129228D01*
X136563683Y-72124351D01*
X136577724Y-72120834D01*
X136592042Y-72118710D01*
X136606500Y-72118000D01*
X136951500Y-72118000D01*
X136965958Y-72118710D01*
X136965958Y-72118710D01*
G37*
D12*
X136779000Y-72413000D03*
D11*
G36*
X136965958Y-73088710D02*
X136980276Y-73090834D01*
X136994317Y-73094351D01*
X137007946Y-73099228D01*
X137021031Y-73105417D01*
X137033447Y-73112858D01*
X137045073Y-73121481D01*
X137055798Y-73131202D01*
X137065519Y-73141927D01*
X137074142Y-73153553D01*
X137081583Y-73165969D01*
X137087772Y-73179054D01*
X137092649Y-73192683D01*
X137096166Y-73206724D01*
X137098290Y-73221042D01*
X137099000Y-73235500D01*
X137099000Y-73530500D01*
X137098290Y-73544958D01*
X137096166Y-73559276D01*
X137092649Y-73573317D01*
X137087772Y-73586946D01*
X137081583Y-73600031D01*
X137074142Y-73612447D01*
X137065519Y-73624073D01*
X137055798Y-73634798D01*
X137045073Y-73644519D01*
X137033447Y-73653142D01*
X137021031Y-73660583D01*
X137007946Y-73666772D01*
X136994317Y-73671649D01*
X136980276Y-73675166D01*
X136965958Y-73677290D01*
X136951500Y-73678000D01*
X136606500Y-73678000D01*
X136592042Y-73677290D01*
X136577724Y-73675166D01*
X136563683Y-73671649D01*
X136550054Y-73666772D01*
X136536969Y-73660583D01*
X136524553Y-73653142D01*
X136512927Y-73644519D01*
X136502202Y-73634798D01*
X136492481Y-73624073D01*
X136483858Y-73612447D01*
X136476417Y-73600031D01*
X136470228Y-73586946D01*
X136465351Y-73573317D01*
X136461834Y-73559276D01*
X136459710Y-73544958D01*
X136459000Y-73530500D01*
X136459000Y-73235500D01*
X136459710Y-73221042D01*
X136461834Y-73206724D01*
X136465351Y-73192683D01*
X136470228Y-73179054D01*
X136476417Y-73165969D01*
X136483858Y-73153553D01*
X136492481Y-73141927D01*
X136502202Y-73131202D01*
X136512927Y-73121481D01*
X136524553Y-73112858D01*
X136536969Y-73105417D01*
X136550054Y-73099228D01*
X136563683Y-73094351D01*
X136577724Y-73090834D01*
X136592042Y-73088710D01*
X136606500Y-73088000D01*
X136951500Y-73088000D01*
X136965958Y-73088710D01*
X136965958Y-73088710D01*
G37*
D12*
X136779000Y-73383000D03*
G04 #@! TD*
D11*
G04 #@! TO.C,R605*
G36*
X132266958Y-70340710D02*
X132281276Y-70342834D01*
X132295317Y-70346351D01*
X132308946Y-70351228D01*
X132322031Y-70357417D01*
X132334447Y-70364858D01*
X132346073Y-70373481D01*
X132356798Y-70383202D01*
X132366519Y-70393927D01*
X132375142Y-70405553D01*
X132382583Y-70417969D01*
X132388772Y-70431054D01*
X132393649Y-70444683D01*
X132397166Y-70458724D01*
X132399290Y-70473042D01*
X132400000Y-70487500D01*
X132400000Y-70782500D01*
X132399290Y-70796958D01*
X132397166Y-70811276D01*
X132393649Y-70825317D01*
X132388772Y-70838946D01*
X132382583Y-70852031D01*
X132375142Y-70864447D01*
X132366519Y-70876073D01*
X132356798Y-70886798D01*
X132346073Y-70896519D01*
X132334447Y-70905142D01*
X132322031Y-70912583D01*
X132308946Y-70918772D01*
X132295317Y-70923649D01*
X132281276Y-70927166D01*
X132266958Y-70929290D01*
X132252500Y-70930000D01*
X131907500Y-70930000D01*
X131893042Y-70929290D01*
X131878724Y-70927166D01*
X131864683Y-70923649D01*
X131851054Y-70918772D01*
X131837969Y-70912583D01*
X131825553Y-70905142D01*
X131813927Y-70896519D01*
X131803202Y-70886798D01*
X131793481Y-70876073D01*
X131784858Y-70864447D01*
X131777417Y-70852031D01*
X131771228Y-70838946D01*
X131766351Y-70825317D01*
X131762834Y-70811276D01*
X131760710Y-70796958D01*
X131760000Y-70782500D01*
X131760000Y-70487500D01*
X131760710Y-70473042D01*
X131762834Y-70458724D01*
X131766351Y-70444683D01*
X131771228Y-70431054D01*
X131777417Y-70417969D01*
X131784858Y-70405553D01*
X131793481Y-70393927D01*
X131803202Y-70383202D01*
X131813927Y-70373481D01*
X131825553Y-70364858D01*
X131837969Y-70357417D01*
X131851054Y-70351228D01*
X131864683Y-70346351D01*
X131878724Y-70342834D01*
X131893042Y-70340710D01*
X131907500Y-70340000D01*
X132252500Y-70340000D01*
X132266958Y-70340710D01*
X132266958Y-70340710D01*
G37*
D12*
X132080000Y-70635000D03*
D11*
G36*
X132266958Y-71310710D02*
X132281276Y-71312834D01*
X132295317Y-71316351D01*
X132308946Y-71321228D01*
X132322031Y-71327417D01*
X132334447Y-71334858D01*
X132346073Y-71343481D01*
X132356798Y-71353202D01*
X132366519Y-71363927D01*
X132375142Y-71375553D01*
X132382583Y-71387969D01*
X132388772Y-71401054D01*
X132393649Y-71414683D01*
X132397166Y-71428724D01*
X132399290Y-71443042D01*
X132400000Y-71457500D01*
X132400000Y-71752500D01*
X132399290Y-71766958D01*
X132397166Y-71781276D01*
X132393649Y-71795317D01*
X132388772Y-71808946D01*
X132382583Y-71822031D01*
X132375142Y-71834447D01*
X132366519Y-71846073D01*
X132356798Y-71856798D01*
X132346073Y-71866519D01*
X132334447Y-71875142D01*
X132322031Y-71882583D01*
X132308946Y-71888772D01*
X132295317Y-71893649D01*
X132281276Y-71897166D01*
X132266958Y-71899290D01*
X132252500Y-71900000D01*
X131907500Y-71900000D01*
X131893042Y-71899290D01*
X131878724Y-71897166D01*
X131864683Y-71893649D01*
X131851054Y-71888772D01*
X131837969Y-71882583D01*
X131825553Y-71875142D01*
X131813927Y-71866519D01*
X131803202Y-71856798D01*
X131793481Y-71846073D01*
X131784858Y-71834447D01*
X131777417Y-71822031D01*
X131771228Y-71808946D01*
X131766351Y-71795317D01*
X131762834Y-71781276D01*
X131760710Y-71766958D01*
X131760000Y-71752500D01*
X131760000Y-71457500D01*
X131760710Y-71443042D01*
X131762834Y-71428724D01*
X131766351Y-71414683D01*
X131771228Y-71401054D01*
X131777417Y-71387969D01*
X131784858Y-71375553D01*
X131793481Y-71363927D01*
X131803202Y-71353202D01*
X131813927Y-71343481D01*
X131825553Y-71334858D01*
X131837969Y-71327417D01*
X131851054Y-71321228D01*
X131864683Y-71316351D01*
X131878724Y-71312834D01*
X131893042Y-71310710D01*
X131907500Y-71310000D01*
X132252500Y-71310000D01*
X132266958Y-71310710D01*
X132266958Y-71310710D01*
G37*
D12*
X132080000Y-71605000D03*
G04 #@! TD*
D11*
G04 #@! TO.C,R606*
G36*
X130971958Y-69530710D02*
X130986276Y-69532834D01*
X131000317Y-69536351D01*
X131013946Y-69541228D01*
X131027031Y-69547417D01*
X131039447Y-69554858D01*
X131051073Y-69563481D01*
X131061798Y-69573202D01*
X131071519Y-69583927D01*
X131080142Y-69595553D01*
X131087583Y-69607969D01*
X131093772Y-69621054D01*
X131098649Y-69634683D01*
X131102166Y-69648724D01*
X131104290Y-69663042D01*
X131105000Y-69677500D01*
X131105000Y-70022500D01*
X131104290Y-70036958D01*
X131102166Y-70051276D01*
X131098649Y-70065317D01*
X131093772Y-70078946D01*
X131087583Y-70092031D01*
X131080142Y-70104447D01*
X131071519Y-70116073D01*
X131061798Y-70126798D01*
X131051073Y-70136519D01*
X131039447Y-70145142D01*
X131027031Y-70152583D01*
X131013946Y-70158772D01*
X131000317Y-70163649D01*
X130986276Y-70167166D01*
X130971958Y-70169290D01*
X130957500Y-70170000D01*
X130662500Y-70170000D01*
X130648042Y-70169290D01*
X130633724Y-70167166D01*
X130619683Y-70163649D01*
X130606054Y-70158772D01*
X130592969Y-70152583D01*
X130580553Y-70145142D01*
X130568927Y-70136519D01*
X130558202Y-70126798D01*
X130548481Y-70116073D01*
X130539858Y-70104447D01*
X130532417Y-70092031D01*
X130526228Y-70078946D01*
X130521351Y-70065317D01*
X130517834Y-70051276D01*
X130515710Y-70036958D01*
X130515000Y-70022500D01*
X130515000Y-69677500D01*
X130515710Y-69663042D01*
X130517834Y-69648724D01*
X130521351Y-69634683D01*
X130526228Y-69621054D01*
X130532417Y-69607969D01*
X130539858Y-69595553D01*
X130548481Y-69583927D01*
X130558202Y-69573202D01*
X130568927Y-69563481D01*
X130580553Y-69554858D01*
X130592969Y-69547417D01*
X130606054Y-69541228D01*
X130619683Y-69536351D01*
X130633724Y-69532834D01*
X130648042Y-69530710D01*
X130662500Y-69530000D01*
X130957500Y-69530000D01*
X130971958Y-69530710D01*
X130971958Y-69530710D01*
G37*
D12*
X130810000Y-69850000D03*
D11*
G36*
X131941958Y-69530710D02*
X131956276Y-69532834D01*
X131970317Y-69536351D01*
X131983946Y-69541228D01*
X131997031Y-69547417D01*
X132009447Y-69554858D01*
X132021073Y-69563481D01*
X132031798Y-69573202D01*
X132041519Y-69583927D01*
X132050142Y-69595553D01*
X132057583Y-69607969D01*
X132063772Y-69621054D01*
X132068649Y-69634683D01*
X132072166Y-69648724D01*
X132074290Y-69663042D01*
X132075000Y-69677500D01*
X132075000Y-70022500D01*
X132074290Y-70036958D01*
X132072166Y-70051276D01*
X132068649Y-70065317D01*
X132063772Y-70078946D01*
X132057583Y-70092031D01*
X132050142Y-70104447D01*
X132041519Y-70116073D01*
X132031798Y-70126798D01*
X132021073Y-70136519D01*
X132009447Y-70145142D01*
X131997031Y-70152583D01*
X131983946Y-70158772D01*
X131970317Y-70163649D01*
X131956276Y-70167166D01*
X131941958Y-70169290D01*
X131927500Y-70170000D01*
X131632500Y-70170000D01*
X131618042Y-70169290D01*
X131603724Y-70167166D01*
X131589683Y-70163649D01*
X131576054Y-70158772D01*
X131562969Y-70152583D01*
X131550553Y-70145142D01*
X131538927Y-70136519D01*
X131528202Y-70126798D01*
X131518481Y-70116073D01*
X131509858Y-70104447D01*
X131502417Y-70092031D01*
X131496228Y-70078946D01*
X131491351Y-70065317D01*
X131487834Y-70051276D01*
X131485710Y-70036958D01*
X131485000Y-70022500D01*
X131485000Y-69677500D01*
X131485710Y-69663042D01*
X131487834Y-69648724D01*
X131491351Y-69634683D01*
X131496228Y-69621054D01*
X131502417Y-69607969D01*
X131509858Y-69595553D01*
X131518481Y-69583927D01*
X131528202Y-69573202D01*
X131538927Y-69563481D01*
X131550553Y-69554858D01*
X131562969Y-69547417D01*
X131576054Y-69541228D01*
X131589683Y-69536351D01*
X131603724Y-69532834D01*
X131618042Y-69530710D01*
X131632500Y-69530000D01*
X131927500Y-69530000D01*
X131941958Y-69530710D01*
X131941958Y-69530710D01*
G37*
D12*
X131780000Y-69850000D03*
G04 #@! TD*
D11*
G04 #@! TO.C,R607*
G36*
X131941958Y-68260710D02*
X131956276Y-68262834D01*
X131970317Y-68266351D01*
X131983946Y-68271228D01*
X131997031Y-68277417D01*
X132009447Y-68284858D01*
X132021073Y-68293481D01*
X132031798Y-68303202D01*
X132041519Y-68313927D01*
X132050142Y-68325553D01*
X132057583Y-68337969D01*
X132063772Y-68351054D01*
X132068649Y-68364683D01*
X132072166Y-68378724D01*
X132074290Y-68393042D01*
X132075000Y-68407500D01*
X132075000Y-68752500D01*
X132074290Y-68766958D01*
X132072166Y-68781276D01*
X132068649Y-68795317D01*
X132063772Y-68808946D01*
X132057583Y-68822031D01*
X132050142Y-68834447D01*
X132041519Y-68846073D01*
X132031798Y-68856798D01*
X132021073Y-68866519D01*
X132009447Y-68875142D01*
X131997031Y-68882583D01*
X131983946Y-68888772D01*
X131970317Y-68893649D01*
X131956276Y-68897166D01*
X131941958Y-68899290D01*
X131927500Y-68900000D01*
X131632500Y-68900000D01*
X131618042Y-68899290D01*
X131603724Y-68897166D01*
X131589683Y-68893649D01*
X131576054Y-68888772D01*
X131562969Y-68882583D01*
X131550553Y-68875142D01*
X131538927Y-68866519D01*
X131528202Y-68856798D01*
X131518481Y-68846073D01*
X131509858Y-68834447D01*
X131502417Y-68822031D01*
X131496228Y-68808946D01*
X131491351Y-68795317D01*
X131487834Y-68781276D01*
X131485710Y-68766958D01*
X131485000Y-68752500D01*
X131485000Y-68407500D01*
X131485710Y-68393042D01*
X131487834Y-68378724D01*
X131491351Y-68364683D01*
X131496228Y-68351054D01*
X131502417Y-68337969D01*
X131509858Y-68325553D01*
X131518481Y-68313927D01*
X131528202Y-68303202D01*
X131538927Y-68293481D01*
X131550553Y-68284858D01*
X131562969Y-68277417D01*
X131576054Y-68271228D01*
X131589683Y-68266351D01*
X131603724Y-68262834D01*
X131618042Y-68260710D01*
X131632500Y-68260000D01*
X131927500Y-68260000D01*
X131941958Y-68260710D01*
X131941958Y-68260710D01*
G37*
D12*
X131780000Y-68580000D03*
D11*
G36*
X130971958Y-68260710D02*
X130986276Y-68262834D01*
X131000317Y-68266351D01*
X131013946Y-68271228D01*
X131027031Y-68277417D01*
X131039447Y-68284858D01*
X131051073Y-68293481D01*
X131061798Y-68303202D01*
X131071519Y-68313927D01*
X131080142Y-68325553D01*
X131087583Y-68337969D01*
X131093772Y-68351054D01*
X131098649Y-68364683D01*
X131102166Y-68378724D01*
X131104290Y-68393042D01*
X131105000Y-68407500D01*
X131105000Y-68752500D01*
X131104290Y-68766958D01*
X131102166Y-68781276D01*
X131098649Y-68795317D01*
X131093772Y-68808946D01*
X131087583Y-68822031D01*
X131080142Y-68834447D01*
X131071519Y-68846073D01*
X131061798Y-68856798D01*
X131051073Y-68866519D01*
X131039447Y-68875142D01*
X131027031Y-68882583D01*
X131013946Y-68888772D01*
X131000317Y-68893649D01*
X130986276Y-68897166D01*
X130971958Y-68899290D01*
X130957500Y-68900000D01*
X130662500Y-68900000D01*
X130648042Y-68899290D01*
X130633724Y-68897166D01*
X130619683Y-68893649D01*
X130606054Y-68888772D01*
X130592969Y-68882583D01*
X130580553Y-68875142D01*
X130568927Y-68866519D01*
X130558202Y-68856798D01*
X130548481Y-68846073D01*
X130539858Y-68834447D01*
X130532417Y-68822031D01*
X130526228Y-68808946D01*
X130521351Y-68795317D01*
X130517834Y-68781276D01*
X130515710Y-68766958D01*
X130515000Y-68752500D01*
X130515000Y-68407500D01*
X130515710Y-68393042D01*
X130517834Y-68378724D01*
X130521351Y-68364683D01*
X130526228Y-68351054D01*
X130532417Y-68337969D01*
X130539858Y-68325553D01*
X130548481Y-68313927D01*
X130558202Y-68303202D01*
X130568927Y-68293481D01*
X130580553Y-68284858D01*
X130592969Y-68277417D01*
X130606054Y-68271228D01*
X130619683Y-68266351D01*
X130633724Y-68262834D01*
X130648042Y-68260710D01*
X130662500Y-68260000D01*
X130957500Y-68260000D01*
X130971958Y-68260710D01*
X130971958Y-68260710D01*
G37*
D12*
X130810000Y-68580000D03*
G04 #@! TD*
D11*
G04 #@! TO.C,R608*
G36*
X133536958Y-71310710D02*
X133551276Y-71312834D01*
X133565317Y-71316351D01*
X133578946Y-71321228D01*
X133592031Y-71327417D01*
X133604447Y-71334858D01*
X133616073Y-71343481D01*
X133626798Y-71353202D01*
X133636519Y-71363927D01*
X133645142Y-71375553D01*
X133652583Y-71387969D01*
X133658772Y-71401054D01*
X133663649Y-71414683D01*
X133667166Y-71428724D01*
X133669290Y-71443042D01*
X133670000Y-71457500D01*
X133670000Y-71752500D01*
X133669290Y-71766958D01*
X133667166Y-71781276D01*
X133663649Y-71795317D01*
X133658772Y-71808946D01*
X133652583Y-71822031D01*
X133645142Y-71834447D01*
X133636519Y-71846073D01*
X133626798Y-71856798D01*
X133616073Y-71866519D01*
X133604447Y-71875142D01*
X133592031Y-71882583D01*
X133578946Y-71888772D01*
X133565317Y-71893649D01*
X133551276Y-71897166D01*
X133536958Y-71899290D01*
X133522500Y-71900000D01*
X133177500Y-71900000D01*
X133163042Y-71899290D01*
X133148724Y-71897166D01*
X133134683Y-71893649D01*
X133121054Y-71888772D01*
X133107969Y-71882583D01*
X133095553Y-71875142D01*
X133083927Y-71866519D01*
X133073202Y-71856798D01*
X133063481Y-71846073D01*
X133054858Y-71834447D01*
X133047417Y-71822031D01*
X133041228Y-71808946D01*
X133036351Y-71795317D01*
X133032834Y-71781276D01*
X133030710Y-71766958D01*
X133030000Y-71752500D01*
X133030000Y-71457500D01*
X133030710Y-71443042D01*
X133032834Y-71428724D01*
X133036351Y-71414683D01*
X133041228Y-71401054D01*
X133047417Y-71387969D01*
X133054858Y-71375553D01*
X133063481Y-71363927D01*
X133073202Y-71353202D01*
X133083927Y-71343481D01*
X133095553Y-71334858D01*
X133107969Y-71327417D01*
X133121054Y-71321228D01*
X133134683Y-71316351D01*
X133148724Y-71312834D01*
X133163042Y-71310710D01*
X133177500Y-71310000D01*
X133522500Y-71310000D01*
X133536958Y-71310710D01*
X133536958Y-71310710D01*
G37*
D12*
X133350000Y-71605000D03*
D11*
G36*
X133536958Y-70340710D02*
X133551276Y-70342834D01*
X133565317Y-70346351D01*
X133578946Y-70351228D01*
X133592031Y-70357417D01*
X133604447Y-70364858D01*
X133616073Y-70373481D01*
X133626798Y-70383202D01*
X133636519Y-70393927D01*
X133645142Y-70405553D01*
X133652583Y-70417969D01*
X133658772Y-70431054D01*
X133663649Y-70444683D01*
X133667166Y-70458724D01*
X133669290Y-70473042D01*
X133670000Y-70487500D01*
X133670000Y-70782500D01*
X133669290Y-70796958D01*
X133667166Y-70811276D01*
X133663649Y-70825317D01*
X133658772Y-70838946D01*
X133652583Y-70852031D01*
X133645142Y-70864447D01*
X133636519Y-70876073D01*
X133626798Y-70886798D01*
X133616073Y-70896519D01*
X133604447Y-70905142D01*
X133592031Y-70912583D01*
X133578946Y-70918772D01*
X133565317Y-70923649D01*
X133551276Y-70927166D01*
X133536958Y-70929290D01*
X133522500Y-70930000D01*
X133177500Y-70930000D01*
X133163042Y-70929290D01*
X133148724Y-70927166D01*
X133134683Y-70923649D01*
X133121054Y-70918772D01*
X133107969Y-70912583D01*
X133095553Y-70905142D01*
X133083927Y-70896519D01*
X133073202Y-70886798D01*
X133063481Y-70876073D01*
X133054858Y-70864447D01*
X133047417Y-70852031D01*
X133041228Y-70838946D01*
X133036351Y-70825317D01*
X133032834Y-70811276D01*
X133030710Y-70796958D01*
X133030000Y-70782500D01*
X133030000Y-70487500D01*
X133030710Y-70473042D01*
X133032834Y-70458724D01*
X133036351Y-70444683D01*
X133041228Y-70431054D01*
X133047417Y-70417969D01*
X133054858Y-70405553D01*
X133063481Y-70393927D01*
X133073202Y-70383202D01*
X133083927Y-70373481D01*
X133095553Y-70364858D01*
X133107969Y-70357417D01*
X133121054Y-70351228D01*
X133134683Y-70346351D01*
X133148724Y-70342834D01*
X133163042Y-70340710D01*
X133177500Y-70340000D01*
X133522500Y-70340000D01*
X133536958Y-70340710D01*
X133536958Y-70340710D01*
G37*
D12*
X133350000Y-70635000D03*
G04 #@! TD*
D18*
G04 #@! TO.C,TP303*
X158115000Y-66167000D03*
G04 #@! TD*
G04 #@! TO.C,TP304*
X155448000Y-67691000D03*
G04 #@! TD*
G04 #@! TO.C,TP305*
X158115000Y-69215000D03*
G04 #@! TD*
G04 #@! TO.C,TP306*
X155448000Y-70739000D03*
G04 #@! TD*
G04 #@! TO.C,TP307*
X158115000Y-72263000D03*
G04 #@! TD*
G04 #@! TO.C,TP308*
X155448000Y-73787000D03*
G04 #@! TD*
G04 #@! TO.C,TP309*
X158115000Y-55753000D03*
G04 #@! TD*
G04 #@! TO.C,TP310*
X161290000Y-55753000D03*
G04 #@! TD*
G04 #@! TO.C,TP311*
X154940000Y-55753000D03*
G04 #@! TD*
G04 #@! TO.C,TP312*
X153670000Y-61722000D03*
G04 #@! TD*
G04 #@! TO.C,TP313*
X127000000Y-71120000D03*
G04 #@! TD*
G04 #@! TO.C,TP314*
X133350000Y-80010000D03*
G04 #@! TD*
G04 #@! TO.C,TP315*
X133350000Y-77470000D03*
G04 #@! TD*
G04 #@! TO.C,TP316*
X168910000Y-76581000D03*
G04 #@! TD*
G04 #@! TO.C,TP317*
X172085000Y-74930000D03*
G04 #@! TD*
G04 #@! TO.C,TP318*
X175260000Y-66675000D03*
G04 #@! TD*
G04 #@! TO.C,TP319*
X186563000Y-58420000D03*
G04 #@! TD*
G04 #@! TO.C,TP320*
X173355000Y-69850000D03*
G04 #@! TD*
G04 #@! TO.C,TP321*
X176022000Y-71247000D03*
G04 #@! TD*
G04 #@! TO.C,TP322*
X194310000Y-68580000D03*
G04 #@! TD*
G04 #@! TO.C,TP323*
X194310000Y-72390000D03*
G04 #@! TD*
G04 #@! TO.C,TP324*
X194310000Y-76200000D03*
G04 #@! TD*
D25*
G04 #@! TO.C,U101*
X113719000Y-78594000D03*
X114119000Y-78594000D03*
X113719000Y-78994000D03*
X114119000Y-78994000D03*
X113719000Y-79394000D03*
X114119000Y-79394000D03*
G04 #@! TD*
G04 #@! TO.C,U102*
X114119000Y-76346000D03*
X113719000Y-76346000D03*
X114119000Y-75946000D03*
X113719000Y-75946000D03*
X114119000Y-75546000D03*
X113719000Y-75546000D03*
G04 #@! TD*
D26*
G04 #@! TO.C,U301*
X164755000Y-72850000D03*
X165255000Y-72850000D03*
X165755000Y-72850000D03*
X166255000Y-72850000D03*
X166755000Y-72850000D03*
X167255000Y-72850000D03*
X167755000Y-72850000D03*
X168255000Y-72850000D03*
X168755000Y-72850000D03*
X169255000Y-72850000D03*
D27*
X170005000Y-72100000D03*
X170005000Y-71600000D03*
X170005000Y-71100000D03*
X170005000Y-70600000D03*
X170005000Y-70100000D03*
X170005000Y-69600000D03*
X170005000Y-69100000D03*
X170005000Y-68600000D03*
X170005000Y-68100000D03*
X170005000Y-67600000D03*
D26*
X169255000Y-66850000D03*
X168755000Y-66850000D03*
X168255000Y-66850000D03*
X167755000Y-66850000D03*
X167255000Y-66850000D03*
X166755000Y-66850000D03*
X166255000Y-66850000D03*
X165755000Y-66850000D03*
X165255000Y-66850000D03*
X164755000Y-66850000D03*
D27*
X164005000Y-67600000D03*
X164005000Y-68100000D03*
X164005000Y-68600000D03*
X164005000Y-69100000D03*
X164005000Y-69600000D03*
X164005000Y-70100000D03*
X164005000Y-70600000D03*
X164005000Y-71100000D03*
X164005000Y-71600000D03*
X164005000Y-72100000D03*
D28*
X167005000Y-69850000D03*
G04 #@! TD*
D29*
G04 #@! TO.C,U401*
X116924000Y-72735000D03*
X116924000Y-72085000D03*
X116924000Y-71425000D03*
X116924000Y-70775000D03*
X114724000Y-70775000D03*
X114724000Y-71425000D03*
X114724000Y-72085000D03*
X114724000Y-72735000D03*
G04 #@! TD*
D30*
G04 #@! TO.C,U501*
X149352000Y-82304000D03*
X148852000Y-82304000D03*
X148852000Y-82804000D03*
X148852000Y-83304000D03*
X149352000Y-83304000D03*
X149852000Y-83304000D03*
X149852000Y-82804000D03*
X149852000Y-82304000D03*
G04 #@! TD*
D31*
G04 #@! TO.C,U601*
X135055000Y-64560000D03*
X135055000Y-65060000D03*
X135055000Y-65560000D03*
X135055000Y-66060000D03*
X135055000Y-66560000D03*
X135055000Y-67060000D03*
X135055000Y-67560000D03*
X135055000Y-68060000D03*
X135055000Y-68560000D03*
X135055000Y-69060000D03*
X135055000Y-69560000D03*
X135055000Y-70060000D03*
D32*
X135680000Y-70685000D03*
X136180000Y-70685000D03*
X136680000Y-70685000D03*
X137180000Y-70685000D03*
X137680000Y-70685000D03*
X138180000Y-70685000D03*
X138680000Y-70685000D03*
X139180000Y-70685000D03*
X139680000Y-70685000D03*
X140180000Y-70685000D03*
X140680000Y-70685000D03*
X141180000Y-70685000D03*
D31*
X141805000Y-70060000D03*
X141805000Y-69560000D03*
X141805000Y-69060000D03*
X141805000Y-68560000D03*
X141805000Y-68060000D03*
X141805000Y-67560000D03*
X141805000Y-67060000D03*
X141805000Y-66560000D03*
X141805000Y-66060000D03*
X141805000Y-65560000D03*
X141805000Y-65060000D03*
X141805000Y-64560000D03*
D32*
X141180000Y-63935000D03*
X140680000Y-63935000D03*
X140180000Y-63935000D03*
X139680000Y-63935000D03*
X139180000Y-63935000D03*
X138680000Y-63935000D03*
X138180000Y-63935000D03*
X137680000Y-63935000D03*
X137180000Y-63935000D03*
X136680000Y-63935000D03*
X136180000Y-63935000D03*
X135680000Y-63935000D03*
D33*
X138430000Y-67310000D03*
G04 #@! TD*
D13*
G04 #@! TO.C,J110*
X136445001Y-59690000D03*
D14*
X133905001Y-59690000D03*
X131365001Y-59690000D03*
X128825001Y-59690000D03*
X126285001Y-59690000D03*
G04 #@! TD*
D13*
G04 #@! TO.C,J204*
X122301000Y-58928000D03*
D14*
X119761000Y-58928000D03*
X117221000Y-58928000D03*
X114681000Y-58928000D03*
X112141000Y-58928000D03*
X109601000Y-58928000D03*
G04 #@! TD*
D11*
G04 #@! TO.C,R203*
G36*
X111055958Y-54925710D02*
X111070276Y-54927834D01*
X111084317Y-54931351D01*
X111097946Y-54936228D01*
X111111031Y-54942417D01*
X111123447Y-54949858D01*
X111135073Y-54958481D01*
X111145798Y-54968202D01*
X111155519Y-54978927D01*
X111164142Y-54990553D01*
X111171583Y-55002969D01*
X111177772Y-55016054D01*
X111182649Y-55029683D01*
X111186166Y-55043724D01*
X111188290Y-55058042D01*
X111189000Y-55072500D01*
X111189000Y-55417500D01*
X111188290Y-55431958D01*
X111186166Y-55446276D01*
X111182649Y-55460317D01*
X111177772Y-55473946D01*
X111171583Y-55487031D01*
X111164142Y-55499447D01*
X111155519Y-55511073D01*
X111145798Y-55521798D01*
X111135073Y-55531519D01*
X111123447Y-55540142D01*
X111111031Y-55547583D01*
X111097946Y-55553772D01*
X111084317Y-55558649D01*
X111070276Y-55562166D01*
X111055958Y-55564290D01*
X111041500Y-55565000D01*
X110746500Y-55565000D01*
X110732042Y-55564290D01*
X110717724Y-55562166D01*
X110703683Y-55558649D01*
X110690054Y-55553772D01*
X110676969Y-55547583D01*
X110664553Y-55540142D01*
X110652927Y-55531519D01*
X110642202Y-55521798D01*
X110632481Y-55511073D01*
X110623858Y-55499447D01*
X110616417Y-55487031D01*
X110610228Y-55473946D01*
X110605351Y-55460317D01*
X110601834Y-55446276D01*
X110599710Y-55431958D01*
X110599000Y-55417500D01*
X110599000Y-55072500D01*
X110599710Y-55058042D01*
X110601834Y-55043724D01*
X110605351Y-55029683D01*
X110610228Y-55016054D01*
X110616417Y-55002969D01*
X110623858Y-54990553D01*
X110632481Y-54978927D01*
X110642202Y-54968202D01*
X110652927Y-54958481D01*
X110664553Y-54949858D01*
X110676969Y-54942417D01*
X110690054Y-54936228D01*
X110703683Y-54931351D01*
X110717724Y-54927834D01*
X110732042Y-54925710D01*
X110746500Y-54925000D01*
X111041500Y-54925000D01*
X111055958Y-54925710D01*
X111055958Y-54925710D01*
G37*
D12*
X110894000Y-55245000D03*
D11*
G36*
X112025958Y-54925710D02*
X112040276Y-54927834D01*
X112054317Y-54931351D01*
X112067946Y-54936228D01*
X112081031Y-54942417D01*
X112093447Y-54949858D01*
X112105073Y-54958481D01*
X112115798Y-54968202D01*
X112125519Y-54978927D01*
X112134142Y-54990553D01*
X112141583Y-55002969D01*
X112147772Y-55016054D01*
X112152649Y-55029683D01*
X112156166Y-55043724D01*
X112158290Y-55058042D01*
X112159000Y-55072500D01*
X112159000Y-55417500D01*
X112158290Y-55431958D01*
X112156166Y-55446276D01*
X112152649Y-55460317D01*
X112147772Y-55473946D01*
X112141583Y-55487031D01*
X112134142Y-55499447D01*
X112125519Y-55511073D01*
X112115798Y-55521798D01*
X112105073Y-55531519D01*
X112093447Y-55540142D01*
X112081031Y-55547583D01*
X112067946Y-55553772D01*
X112054317Y-55558649D01*
X112040276Y-55562166D01*
X112025958Y-55564290D01*
X112011500Y-55565000D01*
X111716500Y-55565000D01*
X111702042Y-55564290D01*
X111687724Y-55562166D01*
X111673683Y-55558649D01*
X111660054Y-55553772D01*
X111646969Y-55547583D01*
X111634553Y-55540142D01*
X111622927Y-55531519D01*
X111612202Y-55521798D01*
X111602481Y-55511073D01*
X111593858Y-55499447D01*
X111586417Y-55487031D01*
X111580228Y-55473946D01*
X111575351Y-55460317D01*
X111571834Y-55446276D01*
X111569710Y-55431958D01*
X111569000Y-55417500D01*
X111569000Y-55072500D01*
X111569710Y-55058042D01*
X111571834Y-55043724D01*
X111575351Y-55029683D01*
X111580228Y-55016054D01*
X111586417Y-55002969D01*
X111593858Y-54990553D01*
X111602481Y-54978927D01*
X111612202Y-54968202D01*
X111622927Y-54958481D01*
X111634553Y-54949858D01*
X111646969Y-54942417D01*
X111660054Y-54936228D01*
X111673683Y-54931351D01*
X111687724Y-54927834D01*
X111702042Y-54925710D01*
X111716500Y-54925000D01*
X112011500Y-54925000D01*
X112025958Y-54925710D01*
X112025958Y-54925710D01*
G37*
D12*
X111864000Y-55245000D03*
G04 #@! TD*
D11*
G04 #@! TO.C,R204*
G36*
X113595958Y-54925710D02*
X113610276Y-54927834D01*
X113624317Y-54931351D01*
X113637946Y-54936228D01*
X113651031Y-54942417D01*
X113663447Y-54949858D01*
X113675073Y-54958481D01*
X113685798Y-54968202D01*
X113695519Y-54978927D01*
X113704142Y-54990553D01*
X113711583Y-55002969D01*
X113717772Y-55016054D01*
X113722649Y-55029683D01*
X113726166Y-55043724D01*
X113728290Y-55058042D01*
X113729000Y-55072500D01*
X113729000Y-55417500D01*
X113728290Y-55431958D01*
X113726166Y-55446276D01*
X113722649Y-55460317D01*
X113717772Y-55473946D01*
X113711583Y-55487031D01*
X113704142Y-55499447D01*
X113695519Y-55511073D01*
X113685798Y-55521798D01*
X113675073Y-55531519D01*
X113663447Y-55540142D01*
X113651031Y-55547583D01*
X113637946Y-55553772D01*
X113624317Y-55558649D01*
X113610276Y-55562166D01*
X113595958Y-55564290D01*
X113581500Y-55565000D01*
X113286500Y-55565000D01*
X113272042Y-55564290D01*
X113257724Y-55562166D01*
X113243683Y-55558649D01*
X113230054Y-55553772D01*
X113216969Y-55547583D01*
X113204553Y-55540142D01*
X113192927Y-55531519D01*
X113182202Y-55521798D01*
X113172481Y-55511073D01*
X113163858Y-55499447D01*
X113156417Y-55487031D01*
X113150228Y-55473946D01*
X113145351Y-55460317D01*
X113141834Y-55446276D01*
X113139710Y-55431958D01*
X113139000Y-55417500D01*
X113139000Y-55072500D01*
X113139710Y-55058042D01*
X113141834Y-55043724D01*
X113145351Y-55029683D01*
X113150228Y-55016054D01*
X113156417Y-55002969D01*
X113163858Y-54990553D01*
X113172481Y-54978927D01*
X113182202Y-54968202D01*
X113192927Y-54958481D01*
X113204553Y-54949858D01*
X113216969Y-54942417D01*
X113230054Y-54936228D01*
X113243683Y-54931351D01*
X113257724Y-54927834D01*
X113272042Y-54925710D01*
X113286500Y-54925000D01*
X113581500Y-54925000D01*
X113595958Y-54925710D01*
X113595958Y-54925710D01*
G37*
D12*
X113434000Y-55245000D03*
D11*
G36*
X114565958Y-54925710D02*
X114580276Y-54927834D01*
X114594317Y-54931351D01*
X114607946Y-54936228D01*
X114621031Y-54942417D01*
X114633447Y-54949858D01*
X114645073Y-54958481D01*
X114655798Y-54968202D01*
X114665519Y-54978927D01*
X114674142Y-54990553D01*
X114681583Y-55002969D01*
X114687772Y-55016054D01*
X114692649Y-55029683D01*
X114696166Y-55043724D01*
X114698290Y-55058042D01*
X114699000Y-55072500D01*
X114699000Y-55417500D01*
X114698290Y-55431958D01*
X114696166Y-55446276D01*
X114692649Y-55460317D01*
X114687772Y-55473946D01*
X114681583Y-55487031D01*
X114674142Y-55499447D01*
X114665519Y-55511073D01*
X114655798Y-55521798D01*
X114645073Y-55531519D01*
X114633447Y-55540142D01*
X114621031Y-55547583D01*
X114607946Y-55553772D01*
X114594317Y-55558649D01*
X114580276Y-55562166D01*
X114565958Y-55564290D01*
X114551500Y-55565000D01*
X114256500Y-55565000D01*
X114242042Y-55564290D01*
X114227724Y-55562166D01*
X114213683Y-55558649D01*
X114200054Y-55553772D01*
X114186969Y-55547583D01*
X114174553Y-55540142D01*
X114162927Y-55531519D01*
X114152202Y-55521798D01*
X114142481Y-55511073D01*
X114133858Y-55499447D01*
X114126417Y-55487031D01*
X114120228Y-55473946D01*
X114115351Y-55460317D01*
X114111834Y-55446276D01*
X114109710Y-55431958D01*
X114109000Y-55417500D01*
X114109000Y-55072500D01*
X114109710Y-55058042D01*
X114111834Y-55043724D01*
X114115351Y-55029683D01*
X114120228Y-55016054D01*
X114126417Y-55002969D01*
X114133858Y-54990553D01*
X114142481Y-54978927D01*
X114152202Y-54968202D01*
X114162927Y-54958481D01*
X114174553Y-54949858D01*
X114186969Y-54942417D01*
X114200054Y-54936228D01*
X114213683Y-54931351D01*
X114227724Y-54927834D01*
X114242042Y-54925710D01*
X114256500Y-54925000D01*
X114551500Y-54925000D01*
X114565958Y-54925710D01*
X114565958Y-54925710D01*
G37*
D12*
X114404000Y-55245000D03*
G04 #@! TD*
D11*
G04 #@! TO.C,R205*
G36*
X118675958Y-54925710D02*
X118690276Y-54927834D01*
X118704317Y-54931351D01*
X118717946Y-54936228D01*
X118731031Y-54942417D01*
X118743447Y-54949858D01*
X118755073Y-54958481D01*
X118765798Y-54968202D01*
X118775519Y-54978927D01*
X118784142Y-54990553D01*
X118791583Y-55002969D01*
X118797772Y-55016054D01*
X118802649Y-55029683D01*
X118806166Y-55043724D01*
X118808290Y-55058042D01*
X118809000Y-55072500D01*
X118809000Y-55417500D01*
X118808290Y-55431958D01*
X118806166Y-55446276D01*
X118802649Y-55460317D01*
X118797772Y-55473946D01*
X118791583Y-55487031D01*
X118784142Y-55499447D01*
X118775519Y-55511073D01*
X118765798Y-55521798D01*
X118755073Y-55531519D01*
X118743447Y-55540142D01*
X118731031Y-55547583D01*
X118717946Y-55553772D01*
X118704317Y-55558649D01*
X118690276Y-55562166D01*
X118675958Y-55564290D01*
X118661500Y-55565000D01*
X118366500Y-55565000D01*
X118352042Y-55564290D01*
X118337724Y-55562166D01*
X118323683Y-55558649D01*
X118310054Y-55553772D01*
X118296969Y-55547583D01*
X118284553Y-55540142D01*
X118272927Y-55531519D01*
X118262202Y-55521798D01*
X118252481Y-55511073D01*
X118243858Y-55499447D01*
X118236417Y-55487031D01*
X118230228Y-55473946D01*
X118225351Y-55460317D01*
X118221834Y-55446276D01*
X118219710Y-55431958D01*
X118219000Y-55417500D01*
X118219000Y-55072500D01*
X118219710Y-55058042D01*
X118221834Y-55043724D01*
X118225351Y-55029683D01*
X118230228Y-55016054D01*
X118236417Y-55002969D01*
X118243858Y-54990553D01*
X118252481Y-54978927D01*
X118262202Y-54968202D01*
X118272927Y-54958481D01*
X118284553Y-54949858D01*
X118296969Y-54942417D01*
X118310054Y-54936228D01*
X118323683Y-54931351D01*
X118337724Y-54927834D01*
X118352042Y-54925710D01*
X118366500Y-54925000D01*
X118661500Y-54925000D01*
X118675958Y-54925710D01*
X118675958Y-54925710D01*
G37*
D12*
X118514000Y-55245000D03*
D11*
G36*
X119645958Y-54925710D02*
X119660276Y-54927834D01*
X119674317Y-54931351D01*
X119687946Y-54936228D01*
X119701031Y-54942417D01*
X119713447Y-54949858D01*
X119725073Y-54958481D01*
X119735798Y-54968202D01*
X119745519Y-54978927D01*
X119754142Y-54990553D01*
X119761583Y-55002969D01*
X119767772Y-55016054D01*
X119772649Y-55029683D01*
X119776166Y-55043724D01*
X119778290Y-55058042D01*
X119779000Y-55072500D01*
X119779000Y-55417500D01*
X119778290Y-55431958D01*
X119776166Y-55446276D01*
X119772649Y-55460317D01*
X119767772Y-55473946D01*
X119761583Y-55487031D01*
X119754142Y-55499447D01*
X119745519Y-55511073D01*
X119735798Y-55521798D01*
X119725073Y-55531519D01*
X119713447Y-55540142D01*
X119701031Y-55547583D01*
X119687946Y-55553772D01*
X119674317Y-55558649D01*
X119660276Y-55562166D01*
X119645958Y-55564290D01*
X119631500Y-55565000D01*
X119336500Y-55565000D01*
X119322042Y-55564290D01*
X119307724Y-55562166D01*
X119293683Y-55558649D01*
X119280054Y-55553772D01*
X119266969Y-55547583D01*
X119254553Y-55540142D01*
X119242927Y-55531519D01*
X119232202Y-55521798D01*
X119222481Y-55511073D01*
X119213858Y-55499447D01*
X119206417Y-55487031D01*
X119200228Y-55473946D01*
X119195351Y-55460317D01*
X119191834Y-55446276D01*
X119189710Y-55431958D01*
X119189000Y-55417500D01*
X119189000Y-55072500D01*
X119189710Y-55058042D01*
X119191834Y-55043724D01*
X119195351Y-55029683D01*
X119200228Y-55016054D01*
X119206417Y-55002969D01*
X119213858Y-54990553D01*
X119222481Y-54978927D01*
X119232202Y-54968202D01*
X119242927Y-54958481D01*
X119254553Y-54949858D01*
X119266969Y-54942417D01*
X119280054Y-54936228D01*
X119293683Y-54931351D01*
X119307724Y-54927834D01*
X119322042Y-54925710D01*
X119336500Y-54925000D01*
X119631500Y-54925000D01*
X119645958Y-54925710D01*
X119645958Y-54925710D01*
G37*
D12*
X119484000Y-55245000D03*
G04 #@! TD*
D11*
G04 #@! TO.C,R206*
G36*
X121215958Y-54925710D02*
X121230276Y-54927834D01*
X121244317Y-54931351D01*
X121257946Y-54936228D01*
X121271031Y-54942417D01*
X121283447Y-54949858D01*
X121295073Y-54958481D01*
X121305798Y-54968202D01*
X121315519Y-54978927D01*
X121324142Y-54990553D01*
X121331583Y-55002969D01*
X121337772Y-55016054D01*
X121342649Y-55029683D01*
X121346166Y-55043724D01*
X121348290Y-55058042D01*
X121349000Y-55072500D01*
X121349000Y-55417500D01*
X121348290Y-55431958D01*
X121346166Y-55446276D01*
X121342649Y-55460317D01*
X121337772Y-55473946D01*
X121331583Y-55487031D01*
X121324142Y-55499447D01*
X121315519Y-55511073D01*
X121305798Y-55521798D01*
X121295073Y-55531519D01*
X121283447Y-55540142D01*
X121271031Y-55547583D01*
X121257946Y-55553772D01*
X121244317Y-55558649D01*
X121230276Y-55562166D01*
X121215958Y-55564290D01*
X121201500Y-55565000D01*
X120906500Y-55565000D01*
X120892042Y-55564290D01*
X120877724Y-55562166D01*
X120863683Y-55558649D01*
X120850054Y-55553772D01*
X120836969Y-55547583D01*
X120824553Y-55540142D01*
X120812927Y-55531519D01*
X120802202Y-55521798D01*
X120792481Y-55511073D01*
X120783858Y-55499447D01*
X120776417Y-55487031D01*
X120770228Y-55473946D01*
X120765351Y-55460317D01*
X120761834Y-55446276D01*
X120759710Y-55431958D01*
X120759000Y-55417500D01*
X120759000Y-55072500D01*
X120759710Y-55058042D01*
X120761834Y-55043724D01*
X120765351Y-55029683D01*
X120770228Y-55016054D01*
X120776417Y-55002969D01*
X120783858Y-54990553D01*
X120792481Y-54978927D01*
X120802202Y-54968202D01*
X120812927Y-54958481D01*
X120824553Y-54949858D01*
X120836969Y-54942417D01*
X120850054Y-54936228D01*
X120863683Y-54931351D01*
X120877724Y-54927834D01*
X120892042Y-54925710D01*
X120906500Y-54925000D01*
X121201500Y-54925000D01*
X121215958Y-54925710D01*
X121215958Y-54925710D01*
G37*
D12*
X121054000Y-55245000D03*
D11*
G36*
X122185958Y-54925710D02*
X122200276Y-54927834D01*
X122214317Y-54931351D01*
X122227946Y-54936228D01*
X122241031Y-54942417D01*
X122253447Y-54949858D01*
X122265073Y-54958481D01*
X122275798Y-54968202D01*
X122285519Y-54978927D01*
X122294142Y-54990553D01*
X122301583Y-55002969D01*
X122307772Y-55016054D01*
X122312649Y-55029683D01*
X122316166Y-55043724D01*
X122318290Y-55058042D01*
X122319000Y-55072500D01*
X122319000Y-55417500D01*
X122318290Y-55431958D01*
X122316166Y-55446276D01*
X122312649Y-55460317D01*
X122307772Y-55473946D01*
X122301583Y-55487031D01*
X122294142Y-55499447D01*
X122285519Y-55511073D01*
X122275798Y-55521798D01*
X122265073Y-55531519D01*
X122253447Y-55540142D01*
X122241031Y-55547583D01*
X122227946Y-55553772D01*
X122214317Y-55558649D01*
X122200276Y-55562166D01*
X122185958Y-55564290D01*
X122171500Y-55565000D01*
X121876500Y-55565000D01*
X121862042Y-55564290D01*
X121847724Y-55562166D01*
X121833683Y-55558649D01*
X121820054Y-55553772D01*
X121806969Y-55547583D01*
X121794553Y-55540142D01*
X121782927Y-55531519D01*
X121772202Y-55521798D01*
X121762481Y-55511073D01*
X121753858Y-55499447D01*
X121746417Y-55487031D01*
X121740228Y-55473946D01*
X121735351Y-55460317D01*
X121731834Y-55446276D01*
X121729710Y-55431958D01*
X121729000Y-55417500D01*
X121729000Y-55072500D01*
X121729710Y-55058042D01*
X121731834Y-55043724D01*
X121735351Y-55029683D01*
X121740228Y-55016054D01*
X121746417Y-55002969D01*
X121753858Y-54990553D01*
X121762481Y-54978927D01*
X121772202Y-54968202D01*
X121782927Y-54958481D01*
X121794553Y-54949858D01*
X121806969Y-54942417D01*
X121820054Y-54936228D01*
X121833683Y-54931351D01*
X121847724Y-54927834D01*
X121862042Y-54925710D01*
X121876500Y-54925000D01*
X122171500Y-54925000D01*
X122185958Y-54925710D01*
X122185958Y-54925710D01*
G37*
D12*
X122024000Y-55245000D03*
G04 #@! TD*
D34*
G04 #@! TO.C,U202*
X116873000Y-66548000D03*
X116873000Y-65278000D03*
X116873000Y-64008000D03*
X116873000Y-62738000D03*
X111473000Y-62738000D03*
X111473000Y-64008000D03*
X111473000Y-65278000D03*
X111473000Y-66548000D03*
G04 #@! TD*
D18*
G04 #@! TO.C,TP301*
X167005000Y-82550000D03*
G04 #@! TD*
G04 #@! TO.C,TP302*
X167005000Y-78740000D03*
G04 #@! TD*
G04 #@! TO.C,J111*
X168783000Y-59690000D03*
G04 #@! TD*
D11*
G04 #@! TO.C,R108*
G36*
X168286958Y-64323710D02*
X168301276Y-64325834D01*
X168315317Y-64329351D01*
X168328946Y-64334228D01*
X168342031Y-64340417D01*
X168354447Y-64347858D01*
X168366073Y-64356481D01*
X168376798Y-64366202D01*
X168386519Y-64376927D01*
X168395142Y-64388553D01*
X168402583Y-64400969D01*
X168408772Y-64414054D01*
X168413649Y-64427683D01*
X168417166Y-64441724D01*
X168419290Y-64456042D01*
X168420000Y-64470500D01*
X168420000Y-64815500D01*
X168419290Y-64829958D01*
X168417166Y-64844276D01*
X168413649Y-64858317D01*
X168408772Y-64871946D01*
X168402583Y-64885031D01*
X168395142Y-64897447D01*
X168386519Y-64909073D01*
X168376798Y-64919798D01*
X168366073Y-64929519D01*
X168354447Y-64938142D01*
X168342031Y-64945583D01*
X168328946Y-64951772D01*
X168315317Y-64956649D01*
X168301276Y-64960166D01*
X168286958Y-64962290D01*
X168272500Y-64963000D01*
X167977500Y-64963000D01*
X167963042Y-64962290D01*
X167948724Y-64960166D01*
X167934683Y-64956649D01*
X167921054Y-64951772D01*
X167907969Y-64945583D01*
X167895553Y-64938142D01*
X167883927Y-64929519D01*
X167873202Y-64919798D01*
X167863481Y-64909073D01*
X167854858Y-64897447D01*
X167847417Y-64885031D01*
X167841228Y-64871946D01*
X167836351Y-64858317D01*
X167832834Y-64844276D01*
X167830710Y-64829958D01*
X167830000Y-64815500D01*
X167830000Y-64470500D01*
X167830710Y-64456042D01*
X167832834Y-64441724D01*
X167836351Y-64427683D01*
X167841228Y-64414054D01*
X167847417Y-64400969D01*
X167854858Y-64388553D01*
X167863481Y-64376927D01*
X167873202Y-64366202D01*
X167883927Y-64356481D01*
X167895553Y-64347858D01*
X167907969Y-64340417D01*
X167921054Y-64334228D01*
X167934683Y-64329351D01*
X167948724Y-64325834D01*
X167963042Y-64323710D01*
X167977500Y-64323000D01*
X168272500Y-64323000D01*
X168286958Y-64323710D01*
X168286958Y-64323710D01*
G37*
D12*
X168125000Y-64643000D03*
D11*
G36*
X167316958Y-64323710D02*
X167331276Y-64325834D01*
X167345317Y-64329351D01*
X167358946Y-64334228D01*
X167372031Y-64340417D01*
X167384447Y-64347858D01*
X167396073Y-64356481D01*
X167406798Y-64366202D01*
X167416519Y-64376927D01*
X167425142Y-64388553D01*
X167432583Y-64400969D01*
X167438772Y-64414054D01*
X167443649Y-64427683D01*
X167447166Y-64441724D01*
X167449290Y-64456042D01*
X167450000Y-64470500D01*
X167450000Y-64815500D01*
X167449290Y-64829958D01*
X167447166Y-64844276D01*
X167443649Y-64858317D01*
X167438772Y-64871946D01*
X167432583Y-64885031D01*
X167425142Y-64897447D01*
X167416519Y-64909073D01*
X167406798Y-64919798D01*
X167396073Y-64929519D01*
X167384447Y-64938142D01*
X167372031Y-64945583D01*
X167358946Y-64951772D01*
X167345317Y-64956649D01*
X167331276Y-64960166D01*
X167316958Y-64962290D01*
X167302500Y-64963000D01*
X167007500Y-64963000D01*
X166993042Y-64962290D01*
X166978724Y-64960166D01*
X166964683Y-64956649D01*
X166951054Y-64951772D01*
X166937969Y-64945583D01*
X166925553Y-64938142D01*
X166913927Y-64929519D01*
X166903202Y-64919798D01*
X166893481Y-64909073D01*
X166884858Y-64897447D01*
X166877417Y-64885031D01*
X166871228Y-64871946D01*
X166866351Y-64858317D01*
X166862834Y-64844276D01*
X166860710Y-64829958D01*
X166860000Y-64815500D01*
X166860000Y-64470500D01*
X166860710Y-64456042D01*
X166862834Y-64441724D01*
X166866351Y-64427683D01*
X166871228Y-64414054D01*
X166877417Y-64400969D01*
X166884858Y-64388553D01*
X166893481Y-64376927D01*
X166903202Y-64366202D01*
X166913927Y-64356481D01*
X166925553Y-64347858D01*
X166937969Y-64340417D01*
X166951054Y-64334228D01*
X166964683Y-64329351D01*
X166978724Y-64325834D01*
X166993042Y-64323710D01*
X167007500Y-64323000D01*
X167302500Y-64323000D01*
X167316958Y-64323710D01*
X167316958Y-64323710D01*
G37*
D12*
X167155000Y-64643000D03*
G04 #@! TD*
D11*
G04 #@! TO.C,C202*
G36*
X106993958Y-66276710D02*
X107008276Y-66278834D01*
X107022317Y-66282351D01*
X107035946Y-66287228D01*
X107049031Y-66293417D01*
X107061447Y-66300858D01*
X107073073Y-66309481D01*
X107083798Y-66319202D01*
X107093519Y-66329927D01*
X107102142Y-66341553D01*
X107109583Y-66353969D01*
X107115772Y-66367054D01*
X107120649Y-66380683D01*
X107124166Y-66394724D01*
X107126290Y-66409042D01*
X107127000Y-66423500D01*
X107127000Y-66718500D01*
X107126290Y-66732958D01*
X107124166Y-66747276D01*
X107120649Y-66761317D01*
X107115772Y-66774946D01*
X107109583Y-66788031D01*
X107102142Y-66800447D01*
X107093519Y-66812073D01*
X107083798Y-66822798D01*
X107073073Y-66832519D01*
X107061447Y-66841142D01*
X107049031Y-66848583D01*
X107035946Y-66854772D01*
X107022317Y-66859649D01*
X107008276Y-66863166D01*
X106993958Y-66865290D01*
X106979500Y-66866000D01*
X106634500Y-66866000D01*
X106620042Y-66865290D01*
X106605724Y-66863166D01*
X106591683Y-66859649D01*
X106578054Y-66854772D01*
X106564969Y-66848583D01*
X106552553Y-66841142D01*
X106540927Y-66832519D01*
X106530202Y-66822798D01*
X106520481Y-66812073D01*
X106511858Y-66800447D01*
X106504417Y-66788031D01*
X106498228Y-66774946D01*
X106493351Y-66761317D01*
X106489834Y-66747276D01*
X106487710Y-66732958D01*
X106487000Y-66718500D01*
X106487000Y-66423500D01*
X106487710Y-66409042D01*
X106489834Y-66394724D01*
X106493351Y-66380683D01*
X106498228Y-66367054D01*
X106504417Y-66353969D01*
X106511858Y-66341553D01*
X106520481Y-66329927D01*
X106530202Y-66319202D01*
X106540927Y-66309481D01*
X106552553Y-66300858D01*
X106564969Y-66293417D01*
X106578054Y-66287228D01*
X106591683Y-66282351D01*
X106605724Y-66278834D01*
X106620042Y-66276710D01*
X106634500Y-66276000D01*
X106979500Y-66276000D01*
X106993958Y-66276710D01*
X106993958Y-66276710D01*
G37*
D12*
X106807000Y-66571000D03*
D11*
G36*
X106993958Y-67246710D02*
X107008276Y-67248834D01*
X107022317Y-67252351D01*
X107035946Y-67257228D01*
X107049031Y-67263417D01*
X107061447Y-67270858D01*
X107073073Y-67279481D01*
X107083798Y-67289202D01*
X107093519Y-67299927D01*
X107102142Y-67311553D01*
X107109583Y-67323969D01*
X107115772Y-67337054D01*
X107120649Y-67350683D01*
X107124166Y-67364724D01*
X107126290Y-67379042D01*
X107127000Y-67393500D01*
X107127000Y-67688500D01*
X107126290Y-67702958D01*
X107124166Y-67717276D01*
X107120649Y-67731317D01*
X107115772Y-67744946D01*
X107109583Y-67758031D01*
X107102142Y-67770447D01*
X107093519Y-67782073D01*
X107083798Y-67792798D01*
X107073073Y-67802519D01*
X107061447Y-67811142D01*
X107049031Y-67818583D01*
X107035946Y-67824772D01*
X107022317Y-67829649D01*
X107008276Y-67833166D01*
X106993958Y-67835290D01*
X106979500Y-67836000D01*
X106634500Y-67836000D01*
X106620042Y-67835290D01*
X106605724Y-67833166D01*
X106591683Y-67829649D01*
X106578054Y-67824772D01*
X106564969Y-67818583D01*
X106552553Y-67811142D01*
X106540927Y-67802519D01*
X106530202Y-67792798D01*
X106520481Y-67782073D01*
X106511858Y-67770447D01*
X106504417Y-67758031D01*
X106498228Y-67744946D01*
X106493351Y-67731317D01*
X106489834Y-67717276D01*
X106487710Y-67702958D01*
X106487000Y-67688500D01*
X106487000Y-67393500D01*
X106487710Y-67379042D01*
X106489834Y-67364724D01*
X106493351Y-67350683D01*
X106498228Y-67337054D01*
X106504417Y-67323969D01*
X106511858Y-67311553D01*
X106520481Y-67299927D01*
X106530202Y-67289202D01*
X106540927Y-67279481D01*
X106552553Y-67270858D01*
X106564969Y-67263417D01*
X106578054Y-67257228D01*
X106591683Y-67252351D01*
X106605724Y-67248834D01*
X106620042Y-67246710D01*
X106634500Y-67246000D01*
X106979500Y-67246000D01*
X106993958Y-67246710D01*
X106993958Y-67246710D01*
G37*
D12*
X106807000Y-67541000D03*
G04 #@! TD*
D11*
G04 #@! TO.C,C203*
G36*
X109025958Y-67246710D02*
X109040276Y-67248834D01*
X109054317Y-67252351D01*
X109067946Y-67257228D01*
X109081031Y-67263417D01*
X109093447Y-67270858D01*
X109105073Y-67279481D01*
X109115798Y-67289202D01*
X109125519Y-67299927D01*
X109134142Y-67311553D01*
X109141583Y-67323969D01*
X109147772Y-67337054D01*
X109152649Y-67350683D01*
X109156166Y-67364724D01*
X109158290Y-67379042D01*
X109159000Y-67393500D01*
X109159000Y-67688500D01*
X109158290Y-67702958D01*
X109156166Y-67717276D01*
X109152649Y-67731317D01*
X109147772Y-67744946D01*
X109141583Y-67758031D01*
X109134142Y-67770447D01*
X109125519Y-67782073D01*
X109115798Y-67792798D01*
X109105073Y-67802519D01*
X109093447Y-67811142D01*
X109081031Y-67818583D01*
X109067946Y-67824772D01*
X109054317Y-67829649D01*
X109040276Y-67833166D01*
X109025958Y-67835290D01*
X109011500Y-67836000D01*
X108666500Y-67836000D01*
X108652042Y-67835290D01*
X108637724Y-67833166D01*
X108623683Y-67829649D01*
X108610054Y-67824772D01*
X108596969Y-67818583D01*
X108584553Y-67811142D01*
X108572927Y-67802519D01*
X108562202Y-67792798D01*
X108552481Y-67782073D01*
X108543858Y-67770447D01*
X108536417Y-67758031D01*
X108530228Y-67744946D01*
X108525351Y-67731317D01*
X108521834Y-67717276D01*
X108519710Y-67702958D01*
X108519000Y-67688500D01*
X108519000Y-67393500D01*
X108519710Y-67379042D01*
X108521834Y-67364724D01*
X108525351Y-67350683D01*
X108530228Y-67337054D01*
X108536417Y-67323969D01*
X108543858Y-67311553D01*
X108552481Y-67299927D01*
X108562202Y-67289202D01*
X108572927Y-67279481D01*
X108584553Y-67270858D01*
X108596969Y-67263417D01*
X108610054Y-67257228D01*
X108623683Y-67252351D01*
X108637724Y-67248834D01*
X108652042Y-67246710D01*
X108666500Y-67246000D01*
X109011500Y-67246000D01*
X109025958Y-67246710D01*
X109025958Y-67246710D01*
G37*
D12*
X108839000Y-67541000D03*
D11*
G36*
X109025958Y-66276710D02*
X109040276Y-66278834D01*
X109054317Y-66282351D01*
X109067946Y-66287228D01*
X109081031Y-66293417D01*
X109093447Y-66300858D01*
X109105073Y-66309481D01*
X109115798Y-66319202D01*
X109125519Y-66329927D01*
X109134142Y-66341553D01*
X109141583Y-66353969D01*
X109147772Y-66367054D01*
X109152649Y-66380683D01*
X109156166Y-66394724D01*
X109158290Y-66409042D01*
X109159000Y-66423500D01*
X109159000Y-66718500D01*
X109158290Y-66732958D01*
X109156166Y-66747276D01*
X109152649Y-66761317D01*
X109147772Y-66774946D01*
X109141583Y-66788031D01*
X109134142Y-66800447D01*
X109125519Y-66812073D01*
X109115798Y-66822798D01*
X109105073Y-66832519D01*
X109093447Y-66841142D01*
X109081031Y-66848583D01*
X109067946Y-66854772D01*
X109054317Y-66859649D01*
X109040276Y-66863166D01*
X109025958Y-66865290D01*
X109011500Y-66866000D01*
X108666500Y-66866000D01*
X108652042Y-66865290D01*
X108637724Y-66863166D01*
X108623683Y-66859649D01*
X108610054Y-66854772D01*
X108596969Y-66848583D01*
X108584553Y-66841142D01*
X108572927Y-66832519D01*
X108562202Y-66822798D01*
X108552481Y-66812073D01*
X108543858Y-66800447D01*
X108536417Y-66788031D01*
X108530228Y-66774946D01*
X108525351Y-66761317D01*
X108521834Y-66747276D01*
X108519710Y-66732958D01*
X108519000Y-66718500D01*
X108519000Y-66423500D01*
X108519710Y-66409042D01*
X108521834Y-66394724D01*
X108525351Y-66380683D01*
X108530228Y-66367054D01*
X108536417Y-66353969D01*
X108543858Y-66341553D01*
X108552481Y-66329927D01*
X108562202Y-66319202D01*
X108572927Y-66309481D01*
X108584553Y-66300858D01*
X108596969Y-66293417D01*
X108610054Y-66287228D01*
X108623683Y-66282351D01*
X108637724Y-66278834D01*
X108652042Y-66276710D01*
X108666500Y-66276000D01*
X109011500Y-66276000D01*
X109025958Y-66276710D01*
X109025958Y-66276710D01*
G37*
D12*
X108839000Y-66571000D03*
G04 #@! TD*
D11*
G04 #@! TO.C,C204*
G36*
X108009958Y-67246710D02*
X108024276Y-67248834D01*
X108038317Y-67252351D01*
X108051946Y-67257228D01*
X108065031Y-67263417D01*
X108077447Y-67270858D01*
X108089073Y-67279481D01*
X108099798Y-67289202D01*
X108109519Y-67299927D01*
X108118142Y-67311553D01*
X108125583Y-67323969D01*
X108131772Y-67337054D01*
X108136649Y-67350683D01*
X108140166Y-67364724D01*
X108142290Y-67379042D01*
X108143000Y-67393500D01*
X108143000Y-67688500D01*
X108142290Y-67702958D01*
X108140166Y-67717276D01*
X108136649Y-67731317D01*
X108131772Y-67744946D01*
X108125583Y-67758031D01*
X108118142Y-67770447D01*
X108109519Y-67782073D01*
X108099798Y-67792798D01*
X108089073Y-67802519D01*
X108077447Y-67811142D01*
X108065031Y-67818583D01*
X108051946Y-67824772D01*
X108038317Y-67829649D01*
X108024276Y-67833166D01*
X108009958Y-67835290D01*
X107995500Y-67836000D01*
X107650500Y-67836000D01*
X107636042Y-67835290D01*
X107621724Y-67833166D01*
X107607683Y-67829649D01*
X107594054Y-67824772D01*
X107580969Y-67818583D01*
X107568553Y-67811142D01*
X107556927Y-67802519D01*
X107546202Y-67792798D01*
X107536481Y-67782073D01*
X107527858Y-67770447D01*
X107520417Y-67758031D01*
X107514228Y-67744946D01*
X107509351Y-67731317D01*
X107505834Y-67717276D01*
X107503710Y-67702958D01*
X107503000Y-67688500D01*
X107503000Y-67393500D01*
X107503710Y-67379042D01*
X107505834Y-67364724D01*
X107509351Y-67350683D01*
X107514228Y-67337054D01*
X107520417Y-67323969D01*
X107527858Y-67311553D01*
X107536481Y-67299927D01*
X107546202Y-67289202D01*
X107556927Y-67279481D01*
X107568553Y-67270858D01*
X107580969Y-67263417D01*
X107594054Y-67257228D01*
X107607683Y-67252351D01*
X107621724Y-67248834D01*
X107636042Y-67246710D01*
X107650500Y-67246000D01*
X107995500Y-67246000D01*
X108009958Y-67246710D01*
X108009958Y-67246710D01*
G37*
D12*
X107823000Y-67541000D03*
D11*
G36*
X108009958Y-66276710D02*
X108024276Y-66278834D01*
X108038317Y-66282351D01*
X108051946Y-66287228D01*
X108065031Y-66293417D01*
X108077447Y-66300858D01*
X108089073Y-66309481D01*
X108099798Y-66319202D01*
X108109519Y-66329927D01*
X108118142Y-66341553D01*
X108125583Y-66353969D01*
X108131772Y-66367054D01*
X108136649Y-66380683D01*
X108140166Y-66394724D01*
X108142290Y-66409042D01*
X108143000Y-66423500D01*
X108143000Y-66718500D01*
X108142290Y-66732958D01*
X108140166Y-66747276D01*
X108136649Y-66761317D01*
X108131772Y-66774946D01*
X108125583Y-66788031D01*
X108118142Y-66800447D01*
X108109519Y-66812073D01*
X108099798Y-66822798D01*
X108089073Y-66832519D01*
X108077447Y-66841142D01*
X108065031Y-66848583D01*
X108051946Y-66854772D01*
X108038317Y-66859649D01*
X108024276Y-66863166D01*
X108009958Y-66865290D01*
X107995500Y-66866000D01*
X107650500Y-66866000D01*
X107636042Y-66865290D01*
X107621724Y-66863166D01*
X107607683Y-66859649D01*
X107594054Y-66854772D01*
X107580969Y-66848583D01*
X107568553Y-66841142D01*
X107556927Y-66832519D01*
X107546202Y-66822798D01*
X107536481Y-66812073D01*
X107527858Y-66800447D01*
X107520417Y-66788031D01*
X107514228Y-66774946D01*
X107509351Y-66761317D01*
X107505834Y-66747276D01*
X107503710Y-66732958D01*
X107503000Y-66718500D01*
X107503000Y-66423500D01*
X107503710Y-66409042D01*
X107505834Y-66394724D01*
X107509351Y-66380683D01*
X107514228Y-66367054D01*
X107520417Y-66353969D01*
X107527858Y-66341553D01*
X107536481Y-66329927D01*
X107546202Y-66319202D01*
X107556927Y-66309481D01*
X107568553Y-66300858D01*
X107580969Y-66293417D01*
X107594054Y-66287228D01*
X107607683Y-66282351D01*
X107621724Y-66278834D01*
X107636042Y-66276710D01*
X107650500Y-66276000D01*
X107995500Y-66276000D01*
X108009958Y-66276710D01*
X108009958Y-66276710D01*
G37*
D12*
X107823000Y-66571000D03*
G04 #@! TD*
D11*
G04 #@! TO.C,C205*
G36*
X110041958Y-66276710D02*
X110056276Y-66278834D01*
X110070317Y-66282351D01*
X110083946Y-66287228D01*
X110097031Y-66293417D01*
X110109447Y-66300858D01*
X110121073Y-66309481D01*
X110131798Y-66319202D01*
X110141519Y-66329927D01*
X110150142Y-66341553D01*
X110157583Y-66353969D01*
X110163772Y-66367054D01*
X110168649Y-66380683D01*
X110172166Y-66394724D01*
X110174290Y-66409042D01*
X110175000Y-66423500D01*
X110175000Y-66718500D01*
X110174290Y-66732958D01*
X110172166Y-66747276D01*
X110168649Y-66761317D01*
X110163772Y-66774946D01*
X110157583Y-66788031D01*
X110150142Y-66800447D01*
X110141519Y-66812073D01*
X110131798Y-66822798D01*
X110121073Y-66832519D01*
X110109447Y-66841142D01*
X110097031Y-66848583D01*
X110083946Y-66854772D01*
X110070317Y-66859649D01*
X110056276Y-66863166D01*
X110041958Y-66865290D01*
X110027500Y-66866000D01*
X109682500Y-66866000D01*
X109668042Y-66865290D01*
X109653724Y-66863166D01*
X109639683Y-66859649D01*
X109626054Y-66854772D01*
X109612969Y-66848583D01*
X109600553Y-66841142D01*
X109588927Y-66832519D01*
X109578202Y-66822798D01*
X109568481Y-66812073D01*
X109559858Y-66800447D01*
X109552417Y-66788031D01*
X109546228Y-66774946D01*
X109541351Y-66761317D01*
X109537834Y-66747276D01*
X109535710Y-66732958D01*
X109535000Y-66718500D01*
X109535000Y-66423500D01*
X109535710Y-66409042D01*
X109537834Y-66394724D01*
X109541351Y-66380683D01*
X109546228Y-66367054D01*
X109552417Y-66353969D01*
X109559858Y-66341553D01*
X109568481Y-66329927D01*
X109578202Y-66319202D01*
X109588927Y-66309481D01*
X109600553Y-66300858D01*
X109612969Y-66293417D01*
X109626054Y-66287228D01*
X109639683Y-66282351D01*
X109653724Y-66278834D01*
X109668042Y-66276710D01*
X109682500Y-66276000D01*
X110027500Y-66276000D01*
X110041958Y-66276710D01*
X110041958Y-66276710D01*
G37*
D12*
X109855000Y-66571000D03*
D11*
G36*
X110041958Y-67246710D02*
X110056276Y-67248834D01*
X110070317Y-67252351D01*
X110083946Y-67257228D01*
X110097031Y-67263417D01*
X110109447Y-67270858D01*
X110121073Y-67279481D01*
X110131798Y-67289202D01*
X110141519Y-67299927D01*
X110150142Y-67311553D01*
X110157583Y-67323969D01*
X110163772Y-67337054D01*
X110168649Y-67350683D01*
X110172166Y-67364724D01*
X110174290Y-67379042D01*
X110175000Y-67393500D01*
X110175000Y-67688500D01*
X110174290Y-67702958D01*
X110172166Y-67717276D01*
X110168649Y-67731317D01*
X110163772Y-67744946D01*
X110157583Y-67758031D01*
X110150142Y-67770447D01*
X110141519Y-67782073D01*
X110131798Y-67792798D01*
X110121073Y-67802519D01*
X110109447Y-67811142D01*
X110097031Y-67818583D01*
X110083946Y-67824772D01*
X110070317Y-67829649D01*
X110056276Y-67833166D01*
X110041958Y-67835290D01*
X110027500Y-67836000D01*
X109682500Y-67836000D01*
X109668042Y-67835290D01*
X109653724Y-67833166D01*
X109639683Y-67829649D01*
X109626054Y-67824772D01*
X109612969Y-67818583D01*
X109600553Y-67811142D01*
X109588927Y-67802519D01*
X109578202Y-67792798D01*
X109568481Y-67782073D01*
X109559858Y-67770447D01*
X109552417Y-67758031D01*
X109546228Y-67744946D01*
X109541351Y-67731317D01*
X109537834Y-67717276D01*
X109535710Y-67702958D01*
X109535000Y-67688500D01*
X109535000Y-67393500D01*
X109535710Y-67379042D01*
X109537834Y-67364724D01*
X109541351Y-67350683D01*
X109546228Y-67337054D01*
X109552417Y-67323969D01*
X109559858Y-67311553D01*
X109568481Y-67299927D01*
X109578202Y-67289202D01*
X109588927Y-67279481D01*
X109600553Y-67270858D01*
X109612969Y-67263417D01*
X109626054Y-67257228D01*
X109639683Y-67252351D01*
X109653724Y-67248834D01*
X109668042Y-67246710D01*
X109682500Y-67246000D01*
X110027500Y-67246000D01*
X110041958Y-67246710D01*
X110041958Y-67246710D01*
G37*
D12*
X109855000Y-67541000D03*
G04 #@! TD*
D35*
G04 #@! TO.C,RN201*
X106207000Y-60587500D03*
X107007000Y-60587500D03*
X106607000Y-60587500D03*
X107407000Y-60587500D03*
X106207000Y-60062500D03*
X106607000Y-60062500D03*
X107007000Y-60062500D03*
X107407000Y-60062500D03*
G04 #@! TD*
G04 #@! TO.C,RN202*
X107407000Y-63483000D03*
X107007000Y-63483000D03*
X106607000Y-63483000D03*
X106207000Y-63483000D03*
X107407000Y-64008000D03*
X106607000Y-64008000D03*
X107007000Y-64008000D03*
X106207000Y-64008000D03*
G04 #@! TD*
D11*
G04 #@! TO.C,C501*
G36*
X147506958Y-82024710D02*
X147521276Y-82026834D01*
X147535317Y-82030351D01*
X147548946Y-82035228D01*
X147562031Y-82041417D01*
X147574447Y-82048858D01*
X147586073Y-82057481D01*
X147596798Y-82067202D01*
X147606519Y-82077927D01*
X147615142Y-82089553D01*
X147622583Y-82101969D01*
X147628772Y-82115054D01*
X147633649Y-82128683D01*
X147637166Y-82142724D01*
X147639290Y-82157042D01*
X147640000Y-82171500D01*
X147640000Y-82466500D01*
X147639290Y-82480958D01*
X147637166Y-82495276D01*
X147633649Y-82509317D01*
X147628772Y-82522946D01*
X147622583Y-82536031D01*
X147615142Y-82548447D01*
X147606519Y-82560073D01*
X147596798Y-82570798D01*
X147586073Y-82580519D01*
X147574447Y-82589142D01*
X147562031Y-82596583D01*
X147548946Y-82602772D01*
X147535317Y-82607649D01*
X147521276Y-82611166D01*
X147506958Y-82613290D01*
X147492500Y-82614000D01*
X147147500Y-82614000D01*
X147133042Y-82613290D01*
X147118724Y-82611166D01*
X147104683Y-82607649D01*
X147091054Y-82602772D01*
X147077969Y-82596583D01*
X147065553Y-82589142D01*
X147053927Y-82580519D01*
X147043202Y-82570798D01*
X147033481Y-82560073D01*
X147024858Y-82548447D01*
X147017417Y-82536031D01*
X147011228Y-82522946D01*
X147006351Y-82509317D01*
X147002834Y-82495276D01*
X147000710Y-82480958D01*
X147000000Y-82466500D01*
X147000000Y-82171500D01*
X147000710Y-82157042D01*
X147002834Y-82142724D01*
X147006351Y-82128683D01*
X147011228Y-82115054D01*
X147017417Y-82101969D01*
X147024858Y-82089553D01*
X147033481Y-82077927D01*
X147043202Y-82067202D01*
X147053927Y-82057481D01*
X147065553Y-82048858D01*
X147077969Y-82041417D01*
X147091054Y-82035228D01*
X147104683Y-82030351D01*
X147118724Y-82026834D01*
X147133042Y-82024710D01*
X147147500Y-82024000D01*
X147492500Y-82024000D01*
X147506958Y-82024710D01*
X147506958Y-82024710D01*
G37*
D12*
X147320000Y-82319000D03*
D11*
G36*
X147506958Y-82994710D02*
X147521276Y-82996834D01*
X147535317Y-83000351D01*
X147548946Y-83005228D01*
X147562031Y-83011417D01*
X147574447Y-83018858D01*
X147586073Y-83027481D01*
X147596798Y-83037202D01*
X147606519Y-83047927D01*
X147615142Y-83059553D01*
X147622583Y-83071969D01*
X147628772Y-83085054D01*
X147633649Y-83098683D01*
X147637166Y-83112724D01*
X147639290Y-83127042D01*
X147640000Y-83141500D01*
X147640000Y-83436500D01*
X147639290Y-83450958D01*
X147637166Y-83465276D01*
X147633649Y-83479317D01*
X147628772Y-83492946D01*
X147622583Y-83506031D01*
X147615142Y-83518447D01*
X147606519Y-83530073D01*
X147596798Y-83540798D01*
X147586073Y-83550519D01*
X147574447Y-83559142D01*
X147562031Y-83566583D01*
X147548946Y-83572772D01*
X147535317Y-83577649D01*
X147521276Y-83581166D01*
X147506958Y-83583290D01*
X147492500Y-83584000D01*
X147147500Y-83584000D01*
X147133042Y-83583290D01*
X147118724Y-83581166D01*
X147104683Y-83577649D01*
X147091054Y-83572772D01*
X147077969Y-83566583D01*
X147065553Y-83559142D01*
X147053927Y-83550519D01*
X147043202Y-83540798D01*
X147033481Y-83530073D01*
X147024858Y-83518447D01*
X147017417Y-83506031D01*
X147011228Y-83492946D01*
X147006351Y-83479317D01*
X147002834Y-83465276D01*
X147000710Y-83450958D01*
X147000000Y-83436500D01*
X147000000Y-83141500D01*
X147000710Y-83127042D01*
X147002834Y-83112724D01*
X147006351Y-83098683D01*
X147011228Y-83085054D01*
X147017417Y-83071969D01*
X147024858Y-83059553D01*
X147033481Y-83047927D01*
X147043202Y-83037202D01*
X147053927Y-83027481D01*
X147065553Y-83018858D01*
X147077969Y-83011417D01*
X147091054Y-83005228D01*
X147104683Y-83000351D01*
X147118724Y-82996834D01*
X147133042Y-82994710D01*
X147147500Y-82994000D01*
X147492500Y-82994000D01*
X147506958Y-82994710D01*
X147506958Y-82994710D01*
G37*
D12*
X147320000Y-83289000D03*
G04 #@! TD*
D10*
G04 #@! TO.C,REF\002A\002A*
X200000000Y-55000000D03*
G04 #@! TD*
M02*
