G04 #@! TF.GenerationSoftware,KiCad,Pcbnew,5.0.0-4.fc29*
G04 #@! TF.CreationDate,2018-09-24T06:15:53+02:00*
G04 #@! TF.ProjectId,macro-motor,6D6163726F2D6D6F746F722E6B696361,rev?*
G04 #@! TF.SameCoordinates,Original*
G04 #@! TF.FileFunction,Legend,Bot*
G04 #@! TF.FilePolarity,Positive*
%FSLAX46Y46*%
G04 Gerber Fmt 4.6, Leading zero omitted, Abs format (unit mm)*
G04 Created by KiCad (PCBNEW 5.0.0-4.fc29) date Mon Sep 24 06:15:53 2018*
%MOMM*%
%LPD*%
G01*
G04 APERTURE LIST*
%ADD10C,0.120000*%
%ADD11C,0.150000*%
G04 APERTURE END LIST*
D10*
G04 #@! TO.C,C302*
X184656000Y-80934779D02*
X184656000Y-80609221D01*
X185676000Y-80934779D02*
X185676000Y-80609221D01*
D11*
X186953142Y-79652952D02*
X187000761Y-79605333D01*
X187048380Y-79462476D01*
X187048380Y-79367238D01*
X187000761Y-79224380D01*
X186905523Y-79129142D01*
X186810285Y-79081523D01*
X186619809Y-79033904D01*
X186476952Y-79033904D01*
X186286476Y-79081523D01*
X186191238Y-79129142D01*
X186096000Y-79224380D01*
X186048380Y-79367238D01*
X186048380Y-79462476D01*
X186096000Y-79605333D01*
X186143619Y-79652952D01*
X186048380Y-79986285D02*
X186048380Y-80605333D01*
X186429333Y-80272000D01*
X186429333Y-80414857D01*
X186476952Y-80510095D01*
X186524571Y-80557714D01*
X186619809Y-80605333D01*
X186857904Y-80605333D01*
X186953142Y-80557714D01*
X187000761Y-80510095D01*
X187048380Y-80414857D01*
X187048380Y-80129142D01*
X187000761Y-80033904D01*
X186953142Y-79986285D01*
X186048380Y-81224380D02*
X186048380Y-81319619D01*
X186096000Y-81414857D01*
X186143619Y-81462476D01*
X186238857Y-81510095D01*
X186429333Y-81557714D01*
X186667428Y-81557714D01*
X186857904Y-81510095D01*
X186953142Y-81462476D01*
X187000761Y-81414857D01*
X187048380Y-81319619D01*
X187048380Y-81224380D01*
X187000761Y-81129142D01*
X186953142Y-81081523D01*
X186857904Y-81033904D01*
X186667428Y-80986285D01*
X186429333Y-80986285D01*
X186238857Y-81033904D01*
X186143619Y-81081523D01*
X186096000Y-81129142D01*
X186048380Y-81224380D01*
X186143619Y-81938666D02*
X186096000Y-81986285D01*
X186048380Y-82081523D01*
X186048380Y-82319619D01*
X186096000Y-82414857D01*
X186143619Y-82462476D01*
X186238857Y-82510095D01*
X186334095Y-82510095D01*
X186476952Y-82462476D01*
X187048380Y-81891047D01*
X187048380Y-82510095D01*
G04 #@! TD*
M02*
