G04 #@! TF.GenerationSoftware,KiCad,Pcbnew,5.0.0-4.fc29*
G04 #@! TF.CreationDate,2018-09-25T17:24:54+02:00*
G04 #@! TF.ProjectId,macro-motor,6D6163726F2D6D6F746F722E6B696361,rev?*
G04 #@! TF.SameCoordinates,PX916f720PY42c1d80*
G04 #@! TF.FileFunction,Paste,Top*
G04 #@! TF.FilePolarity,Positive*
%FSLAX46Y46*%
G04 Gerber Fmt 4.6, Leading zero omitted, Abs format (unit mm)*
G04 Created by KiCad (PCBNEW 5.0.0-4.fc29) date Tue Sep 25 17:24:54 2018*
%MOMM*%
%LPD*%
G01*
G04 APERTURE LIST*
%ADD10C,0.100000*%
%ADD11C,0.413000*%
%ADD12C,0.612500*%
%ADD13R,0.294000X0.553000*%
%ADD14R,0.800000X1.200000*%
%ADD15C,0.682500*%
%ADD16C,0.175000*%
%ADD17R,0.210000X0.350000*%
%ADD18R,0.350000X0.210000*%
%ADD19R,0.920000X0.920000*%
%ADD20R,0.742000X0.280000*%
%ADD21C,0.225000*%
%ADD22R,0.385000X0.210000*%
%ADD23R,0.210000X0.385000*%
%ADD24R,1.120000X1.120000*%
%ADD25R,0.122500X0.192500*%
%ADD26R,0.742000X0.455000*%
G04 APERTURE END LIST*
D10*
G04 #@! TO.C,C201*
G36*
X-35019130Y1371003D02*
X-35009107Y1369516D01*
X-34999278Y1367054D01*
X-34989738Y1363641D01*
X-34980578Y1359308D01*
X-34971887Y1354099D01*
X-34963749Y1348063D01*
X-34956241Y1341259D01*
X-34949437Y1333751D01*
X-34943401Y1325613D01*
X-34938192Y1316922D01*
X-34933859Y1307762D01*
X-34930446Y1298222D01*
X-34927984Y1288393D01*
X-34926497Y1278370D01*
X-34926000Y1268250D01*
X-34926000Y1061750D01*
X-34926497Y1051630D01*
X-34927984Y1041607D01*
X-34930446Y1031778D01*
X-34933859Y1022238D01*
X-34938192Y1013078D01*
X-34943401Y1004387D01*
X-34949437Y996249D01*
X-34956241Y988741D01*
X-34963749Y981937D01*
X-34971887Y975901D01*
X-34980578Y970692D01*
X-34989738Y966359D01*
X-34999278Y962946D01*
X-35009107Y960484D01*
X-35019130Y958997D01*
X-35029250Y958500D01*
X-35270750Y958500D01*
X-35280870Y958997D01*
X-35290893Y960484D01*
X-35300722Y962946D01*
X-35310262Y966359D01*
X-35319422Y970692D01*
X-35328113Y975901D01*
X-35336251Y981937D01*
X-35343759Y988741D01*
X-35350563Y996249D01*
X-35356599Y1004387D01*
X-35361808Y1013078D01*
X-35366141Y1022238D01*
X-35369554Y1031778D01*
X-35372016Y1041607D01*
X-35373503Y1051630D01*
X-35374000Y1061750D01*
X-35374000Y1268250D01*
X-35373503Y1278370D01*
X-35372016Y1288393D01*
X-35369554Y1298222D01*
X-35366141Y1307762D01*
X-35361808Y1316922D01*
X-35356599Y1325613D01*
X-35350563Y1333751D01*
X-35343759Y1341259D01*
X-35336251Y1348063D01*
X-35328113Y1354099D01*
X-35319422Y1359308D01*
X-35310262Y1363641D01*
X-35300722Y1367054D01*
X-35290893Y1369516D01*
X-35280870Y1371003D01*
X-35270750Y1371500D01*
X-35029250Y1371500D01*
X-35019130Y1371003D01*
X-35019130Y1371003D01*
G37*
D11*
X-35150000Y1165000D03*
D10*
G36*
X-35019130Y2341003D02*
X-35009107Y2339516D01*
X-34999278Y2337054D01*
X-34989738Y2333641D01*
X-34980578Y2329308D01*
X-34971887Y2324099D01*
X-34963749Y2318063D01*
X-34956241Y2311259D01*
X-34949437Y2303751D01*
X-34943401Y2295613D01*
X-34938192Y2286922D01*
X-34933859Y2277762D01*
X-34930446Y2268222D01*
X-34927984Y2258393D01*
X-34926497Y2248370D01*
X-34926000Y2238250D01*
X-34926000Y2031750D01*
X-34926497Y2021630D01*
X-34927984Y2011607D01*
X-34930446Y2001778D01*
X-34933859Y1992238D01*
X-34938192Y1983078D01*
X-34943401Y1974387D01*
X-34949437Y1966249D01*
X-34956241Y1958741D01*
X-34963749Y1951937D01*
X-34971887Y1945901D01*
X-34980578Y1940692D01*
X-34989738Y1936359D01*
X-34999278Y1932946D01*
X-35009107Y1930484D01*
X-35019130Y1928997D01*
X-35029250Y1928500D01*
X-35270750Y1928500D01*
X-35280870Y1928997D01*
X-35290893Y1930484D01*
X-35300722Y1932946D01*
X-35310262Y1936359D01*
X-35319422Y1940692D01*
X-35328113Y1945901D01*
X-35336251Y1951937D01*
X-35343759Y1958741D01*
X-35350563Y1966249D01*
X-35356599Y1974387D01*
X-35361808Y1983078D01*
X-35366141Y1992238D01*
X-35369554Y2001778D01*
X-35372016Y2011607D01*
X-35373503Y2021630D01*
X-35374000Y2031750D01*
X-35374000Y2238250D01*
X-35373503Y2248370D01*
X-35372016Y2258393D01*
X-35369554Y2268222D01*
X-35366141Y2277762D01*
X-35361808Y2286922D01*
X-35356599Y2295613D01*
X-35350563Y2303751D01*
X-35343759Y2311259D01*
X-35336251Y2318063D01*
X-35328113Y2324099D01*
X-35319422Y2329308D01*
X-35310262Y2333641D01*
X-35300722Y2337054D01*
X-35290893Y2339516D01*
X-35280870Y2341003D01*
X-35270750Y2341500D01*
X-35029250Y2341500D01*
X-35019130Y2341003D01*
X-35019130Y2341003D01*
G37*
D11*
X-35150000Y2135000D03*
G04 #@! TD*
D10*
G04 #@! TO.C,C101*
G36*
X-40291616Y-6300987D02*
X-40276752Y-6303192D01*
X-40262175Y-6306844D01*
X-40248027Y-6311906D01*
X-40234442Y-6318331D01*
X-40221553Y-6326056D01*
X-40209484Y-6335008D01*
X-40198349Y-6345099D01*
X-40188258Y-6356234D01*
X-40179306Y-6368303D01*
X-40171581Y-6381192D01*
X-40165156Y-6394777D01*
X-40160094Y-6408925D01*
X-40156442Y-6423502D01*
X-40154237Y-6438366D01*
X-40153500Y-6453375D01*
X-40153500Y-6759625D01*
X-40154237Y-6774634D01*
X-40156442Y-6789498D01*
X-40160094Y-6804075D01*
X-40165156Y-6818223D01*
X-40171581Y-6831808D01*
X-40179306Y-6844697D01*
X-40188258Y-6856766D01*
X-40198349Y-6867901D01*
X-40209484Y-6877992D01*
X-40221553Y-6886944D01*
X-40234442Y-6894669D01*
X-40248027Y-6901094D01*
X-40262175Y-6906156D01*
X-40276752Y-6909808D01*
X-40291616Y-6912013D01*
X-40306625Y-6912750D01*
X-40665375Y-6912750D01*
X-40680384Y-6912013D01*
X-40695248Y-6909808D01*
X-40709825Y-6906156D01*
X-40723973Y-6901094D01*
X-40737558Y-6894669D01*
X-40750447Y-6886944D01*
X-40762516Y-6877992D01*
X-40773651Y-6867901D01*
X-40783742Y-6856766D01*
X-40792694Y-6844697D01*
X-40800419Y-6831808D01*
X-40806844Y-6818223D01*
X-40811906Y-6804075D01*
X-40815558Y-6789498D01*
X-40817763Y-6774634D01*
X-40818500Y-6759625D01*
X-40818500Y-6453375D01*
X-40817763Y-6438366D01*
X-40815558Y-6423502D01*
X-40811906Y-6408925D01*
X-40806844Y-6394777D01*
X-40800419Y-6381192D01*
X-40792694Y-6368303D01*
X-40783742Y-6356234D01*
X-40773651Y-6345099D01*
X-40762516Y-6335008D01*
X-40750447Y-6326056D01*
X-40737558Y-6318331D01*
X-40723973Y-6311906D01*
X-40709825Y-6306844D01*
X-40695248Y-6303192D01*
X-40680384Y-6300987D01*
X-40665375Y-6300250D01*
X-40306625Y-6300250D01*
X-40291616Y-6300987D01*
X-40291616Y-6300987D01*
G37*
D12*
X-40486000Y-6606500D03*
D10*
G36*
X-40291616Y-4725987D02*
X-40276752Y-4728192D01*
X-40262175Y-4731844D01*
X-40248027Y-4736906D01*
X-40234442Y-4743331D01*
X-40221553Y-4751056D01*
X-40209484Y-4760008D01*
X-40198349Y-4770099D01*
X-40188258Y-4781234D01*
X-40179306Y-4793303D01*
X-40171581Y-4806192D01*
X-40165156Y-4819777D01*
X-40160094Y-4833925D01*
X-40156442Y-4848502D01*
X-40154237Y-4863366D01*
X-40153500Y-4878375D01*
X-40153500Y-5184625D01*
X-40154237Y-5199634D01*
X-40156442Y-5214498D01*
X-40160094Y-5229075D01*
X-40165156Y-5243223D01*
X-40171581Y-5256808D01*
X-40179306Y-5269697D01*
X-40188258Y-5281766D01*
X-40198349Y-5292901D01*
X-40209484Y-5302992D01*
X-40221553Y-5311944D01*
X-40234442Y-5319669D01*
X-40248027Y-5326094D01*
X-40262175Y-5331156D01*
X-40276752Y-5334808D01*
X-40291616Y-5337013D01*
X-40306625Y-5337750D01*
X-40665375Y-5337750D01*
X-40680384Y-5337013D01*
X-40695248Y-5334808D01*
X-40709825Y-5331156D01*
X-40723973Y-5326094D01*
X-40737558Y-5319669D01*
X-40750447Y-5311944D01*
X-40762516Y-5302992D01*
X-40773651Y-5292901D01*
X-40783742Y-5281766D01*
X-40792694Y-5269697D01*
X-40800419Y-5256808D01*
X-40806844Y-5243223D01*
X-40811906Y-5229075D01*
X-40815558Y-5214498D01*
X-40817763Y-5199634D01*
X-40818500Y-5184625D01*
X-40818500Y-4878375D01*
X-40817763Y-4863366D01*
X-40815558Y-4848502D01*
X-40811906Y-4833925D01*
X-40806844Y-4819777D01*
X-40800419Y-4806192D01*
X-40792694Y-4793303D01*
X-40783742Y-4781234D01*
X-40773651Y-4770099D01*
X-40762516Y-4760008D01*
X-40750447Y-4751056D01*
X-40737558Y-4743331D01*
X-40723973Y-4736906D01*
X-40709825Y-4731844D01*
X-40695248Y-4728192D01*
X-40680384Y-4725987D01*
X-40665375Y-4725250D01*
X-40306625Y-4725250D01*
X-40291616Y-4725987D01*
X-40291616Y-4725987D01*
G37*
D12*
X-40486000Y-5031500D03*
G04 #@! TD*
D10*
G04 #@! TO.C,C102*
G36*
X-37053130Y-8302997D02*
X-37043107Y-8304484D01*
X-37033278Y-8306946D01*
X-37023738Y-8310359D01*
X-37014578Y-8314692D01*
X-37005887Y-8319901D01*
X-36997749Y-8325937D01*
X-36990241Y-8332741D01*
X-36983437Y-8340249D01*
X-36977401Y-8348387D01*
X-36972192Y-8357078D01*
X-36967859Y-8366238D01*
X-36964446Y-8375778D01*
X-36961984Y-8385607D01*
X-36960497Y-8395630D01*
X-36960000Y-8405750D01*
X-36960000Y-8612250D01*
X-36960497Y-8622370D01*
X-36961984Y-8632393D01*
X-36964446Y-8642222D01*
X-36967859Y-8651762D01*
X-36972192Y-8660922D01*
X-36977401Y-8669613D01*
X-36983437Y-8677751D01*
X-36990241Y-8685259D01*
X-36997749Y-8692063D01*
X-37005887Y-8698099D01*
X-37014578Y-8703308D01*
X-37023738Y-8707641D01*
X-37033278Y-8711054D01*
X-37043107Y-8713516D01*
X-37053130Y-8715003D01*
X-37063250Y-8715500D01*
X-37304750Y-8715500D01*
X-37314870Y-8715003D01*
X-37324893Y-8713516D01*
X-37334722Y-8711054D01*
X-37344262Y-8707641D01*
X-37353422Y-8703308D01*
X-37362113Y-8698099D01*
X-37370251Y-8692063D01*
X-37377759Y-8685259D01*
X-37384563Y-8677751D01*
X-37390599Y-8669613D01*
X-37395808Y-8660922D01*
X-37400141Y-8651762D01*
X-37403554Y-8642222D01*
X-37406016Y-8632393D01*
X-37407503Y-8622370D01*
X-37408000Y-8612250D01*
X-37408000Y-8405750D01*
X-37407503Y-8395630D01*
X-37406016Y-8385607D01*
X-37403554Y-8375778D01*
X-37400141Y-8366238D01*
X-37395808Y-8357078D01*
X-37390599Y-8348387D01*
X-37384563Y-8340249D01*
X-37377759Y-8332741D01*
X-37370251Y-8325937D01*
X-37362113Y-8319901D01*
X-37353422Y-8314692D01*
X-37344262Y-8310359D01*
X-37334722Y-8306946D01*
X-37324893Y-8304484D01*
X-37314870Y-8302997D01*
X-37304750Y-8302500D01*
X-37063250Y-8302500D01*
X-37053130Y-8302997D01*
X-37053130Y-8302997D01*
G37*
D11*
X-37184000Y-8509000D03*
D10*
G36*
X-37053130Y-9272997D02*
X-37043107Y-9274484D01*
X-37033278Y-9276946D01*
X-37023738Y-9280359D01*
X-37014578Y-9284692D01*
X-37005887Y-9289901D01*
X-36997749Y-9295937D01*
X-36990241Y-9302741D01*
X-36983437Y-9310249D01*
X-36977401Y-9318387D01*
X-36972192Y-9327078D01*
X-36967859Y-9336238D01*
X-36964446Y-9345778D01*
X-36961984Y-9355607D01*
X-36960497Y-9365630D01*
X-36960000Y-9375750D01*
X-36960000Y-9582250D01*
X-36960497Y-9592370D01*
X-36961984Y-9602393D01*
X-36964446Y-9612222D01*
X-36967859Y-9621762D01*
X-36972192Y-9630922D01*
X-36977401Y-9639613D01*
X-36983437Y-9647751D01*
X-36990241Y-9655259D01*
X-36997749Y-9662063D01*
X-37005887Y-9668099D01*
X-37014578Y-9673308D01*
X-37023738Y-9677641D01*
X-37033278Y-9681054D01*
X-37043107Y-9683516D01*
X-37053130Y-9685003D01*
X-37063250Y-9685500D01*
X-37304750Y-9685500D01*
X-37314870Y-9685003D01*
X-37324893Y-9683516D01*
X-37334722Y-9681054D01*
X-37344262Y-9677641D01*
X-37353422Y-9673308D01*
X-37362113Y-9668099D01*
X-37370251Y-9662063D01*
X-37377759Y-9655259D01*
X-37384563Y-9647751D01*
X-37390599Y-9639613D01*
X-37395808Y-9630922D01*
X-37400141Y-9621762D01*
X-37403554Y-9612222D01*
X-37406016Y-9602393D01*
X-37407503Y-9592370D01*
X-37408000Y-9582250D01*
X-37408000Y-9375750D01*
X-37407503Y-9365630D01*
X-37406016Y-9355607D01*
X-37403554Y-9345778D01*
X-37400141Y-9336238D01*
X-37395808Y-9327078D01*
X-37390599Y-9318387D01*
X-37384563Y-9310249D01*
X-37377759Y-9302741D01*
X-37370251Y-9295937D01*
X-37362113Y-9289901D01*
X-37353422Y-9284692D01*
X-37344262Y-9280359D01*
X-37334722Y-9276946D01*
X-37324893Y-9274484D01*
X-37314870Y-9272997D01*
X-37304750Y-9272500D01*
X-37063250Y-9272500D01*
X-37053130Y-9272997D01*
X-37053130Y-9272997D01*
G37*
D11*
X-37184000Y-9479000D03*
G04 #@! TD*
D10*
G04 #@! TO.C,C103*
G36*
X-37053130Y-5254997D02*
X-37043107Y-5256484D01*
X-37033278Y-5258946D01*
X-37023738Y-5262359D01*
X-37014578Y-5266692D01*
X-37005887Y-5271901D01*
X-36997749Y-5277937D01*
X-36990241Y-5284741D01*
X-36983437Y-5292249D01*
X-36977401Y-5300387D01*
X-36972192Y-5309078D01*
X-36967859Y-5318238D01*
X-36964446Y-5327778D01*
X-36961984Y-5337607D01*
X-36960497Y-5347630D01*
X-36960000Y-5357750D01*
X-36960000Y-5564250D01*
X-36960497Y-5574370D01*
X-36961984Y-5584393D01*
X-36964446Y-5594222D01*
X-36967859Y-5603762D01*
X-36972192Y-5612922D01*
X-36977401Y-5621613D01*
X-36983437Y-5629751D01*
X-36990241Y-5637259D01*
X-36997749Y-5644063D01*
X-37005887Y-5650099D01*
X-37014578Y-5655308D01*
X-37023738Y-5659641D01*
X-37033278Y-5663054D01*
X-37043107Y-5665516D01*
X-37053130Y-5667003D01*
X-37063250Y-5667500D01*
X-37304750Y-5667500D01*
X-37314870Y-5667003D01*
X-37324893Y-5665516D01*
X-37334722Y-5663054D01*
X-37344262Y-5659641D01*
X-37353422Y-5655308D01*
X-37362113Y-5650099D01*
X-37370251Y-5644063D01*
X-37377759Y-5637259D01*
X-37384563Y-5629751D01*
X-37390599Y-5621613D01*
X-37395808Y-5612922D01*
X-37400141Y-5603762D01*
X-37403554Y-5594222D01*
X-37406016Y-5584393D01*
X-37407503Y-5574370D01*
X-37408000Y-5564250D01*
X-37408000Y-5357750D01*
X-37407503Y-5347630D01*
X-37406016Y-5337607D01*
X-37403554Y-5327778D01*
X-37400141Y-5318238D01*
X-37395808Y-5309078D01*
X-37390599Y-5300387D01*
X-37384563Y-5292249D01*
X-37377759Y-5284741D01*
X-37370251Y-5277937D01*
X-37362113Y-5271901D01*
X-37353422Y-5266692D01*
X-37344262Y-5262359D01*
X-37334722Y-5258946D01*
X-37324893Y-5256484D01*
X-37314870Y-5254997D01*
X-37304750Y-5254500D01*
X-37063250Y-5254500D01*
X-37053130Y-5254997D01*
X-37053130Y-5254997D01*
G37*
D11*
X-37184000Y-5461000D03*
D10*
G36*
X-37053130Y-6224997D02*
X-37043107Y-6226484D01*
X-37033278Y-6228946D01*
X-37023738Y-6232359D01*
X-37014578Y-6236692D01*
X-37005887Y-6241901D01*
X-36997749Y-6247937D01*
X-36990241Y-6254741D01*
X-36983437Y-6262249D01*
X-36977401Y-6270387D01*
X-36972192Y-6279078D01*
X-36967859Y-6288238D01*
X-36964446Y-6297778D01*
X-36961984Y-6307607D01*
X-36960497Y-6317630D01*
X-36960000Y-6327750D01*
X-36960000Y-6534250D01*
X-36960497Y-6544370D01*
X-36961984Y-6554393D01*
X-36964446Y-6564222D01*
X-36967859Y-6573762D01*
X-36972192Y-6582922D01*
X-36977401Y-6591613D01*
X-36983437Y-6599751D01*
X-36990241Y-6607259D01*
X-36997749Y-6614063D01*
X-37005887Y-6620099D01*
X-37014578Y-6625308D01*
X-37023738Y-6629641D01*
X-37033278Y-6633054D01*
X-37043107Y-6635516D01*
X-37053130Y-6637003D01*
X-37063250Y-6637500D01*
X-37304750Y-6637500D01*
X-37314870Y-6637003D01*
X-37324893Y-6635516D01*
X-37334722Y-6633054D01*
X-37344262Y-6629641D01*
X-37353422Y-6625308D01*
X-37362113Y-6620099D01*
X-37370251Y-6614063D01*
X-37377759Y-6607259D01*
X-37384563Y-6599751D01*
X-37390599Y-6591613D01*
X-37395808Y-6582922D01*
X-37400141Y-6573762D01*
X-37403554Y-6564222D01*
X-37406016Y-6554393D01*
X-37407503Y-6544370D01*
X-37408000Y-6534250D01*
X-37408000Y-6327750D01*
X-37407503Y-6317630D01*
X-37406016Y-6307607D01*
X-37403554Y-6297778D01*
X-37400141Y-6288238D01*
X-37395808Y-6279078D01*
X-37390599Y-6270387D01*
X-37384563Y-6262249D01*
X-37377759Y-6254741D01*
X-37370251Y-6247937D01*
X-37362113Y-6241901D01*
X-37353422Y-6236692D01*
X-37344262Y-6232359D01*
X-37334722Y-6228946D01*
X-37324893Y-6226484D01*
X-37314870Y-6224997D01*
X-37304750Y-6224500D01*
X-37063250Y-6224500D01*
X-37053130Y-6224997D01*
X-37053130Y-6224997D01*
G37*
D11*
X-37184000Y-6431000D03*
G04 #@! TD*
D10*
G04 #@! TO.C,C303*
G36*
X14127870Y-3730997D02*
X14137893Y-3732484D01*
X14147722Y-3734946D01*
X14157262Y-3738359D01*
X14166422Y-3742692D01*
X14175113Y-3747901D01*
X14183251Y-3753937D01*
X14190759Y-3760741D01*
X14197563Y-3768249D01*
X14203599Y-3776387D01*
X14208808Y-3785078D01*
X14213141Y-3794238D01*
X14216554Y-3803778D01*
X14219016Y-3813607D01*
X14220503Y-3823630D01*
X14221000Y-3833750D01*
X14221000Y-4040250D01*
X14220503Y-4050370D01*
X14219016Y-4060393D01*
X14216554Y-4070222D01*
X14213141Y-4079762D01*
X14208808Y-4088922D01*
X14203599Y-4097613D01*
X14197563Y-4105751D01*
X14190759Y-4113259D01*
X14183251Y-4120063D01*
X14175113Y-4126099D01*
X14166422Y-4131308D01*
X14157262Y-4135641D01*
X14147722Y-4139054D01*
X14137893Y-4141516D01*
X14127870Y-4143003D01*
X14117750Y-4143500D01*
X13876250Y-4143500D01*
X13866130Y-4143003D01*
X13856107Y-4141516D01*
X13846278Y-4139054D01*
X13836738Y-4135641D01*
X13827578Y-4131308D01*
X13818887Y-4126099D01*
X13810749Y-4120063D01*
X13803241Y-4113259D01*
X13796437Y-4105751D01*
X13790401Y-4097613D01*
X13785192Y-4088922D01*
X13780859Y-4079762D01*
X13777446Y-4070222D01*
X13774984Y-4060393D01*
X13773497Y-4050370D01*
X13773000Y-4040250D01*
X13773000Y-3833750D01*
X13773497Y-3823630D01*
X13774984Y-3813607D01*
X13777446Y-3803778D01*
X13780859Y-3794238D01*
X13785192Y-3785078D01*
X13790401Y-3776387D01*
X13796437Y-3768249D01*
X13803241Y-3760741D01*
X13810749Y-3753937D01*
X13818887Y-3747901D01*
X13827578Y-3742692D01*
X13836738Y-3738359D01*
X13846278Y-3734946D01*
X13856107Y-3732484D01*
X13866130Y-3730997D01*
X13876250Y-3730500D01*
X14117750Y-3730500D01*
X14127870Y-3730997D01*
X14127870Y-3730997D01*
G37*
D11*
X13997000Y-3937000D03*
D10*
G36*
X14127870Y-4700997D02*
X14137893Y-4702484D01*
X14147722Y-4704946D01*
X14157262Y-4708359D01*
X14166422Y-4712692D01*
X14175113Y-4717901D01*
X14183251Y-4723937D01*
X14190759Y-4730741D01*
X14197563Y-4738249D01*
X14203599Y-4746387D01*
X14208808Y-4755078D01*
X14213141Y-4764238D01*
X14216554Y-4773778D01*
X14219016Y-4783607D01*
X14220503Y-4793630D01*
X14221000Y-4803750D01*
X14221000Y-5010250D01*
X14220503Y-5020370D01*
X14219016Y-5030393D01*
X14216554Y-5040222D01*
X14213141Y-5049762D01*
X14208808Y-5058922D01*
X14203599Y-5067613D01*
X14197563Y-5075751D01*
X14190759Y-5083259D01*
X14183251Y-5090063D01*
X14175113Y-5096099D01*
X14166422Y-5101308D01*
X14157262Y-5105641D01*
X14147722Y-5109054D01*
X14137893Y-5111516D01*
X14127870Y-5113003D01*
X14117750Y-5113500D01*
X13876250Y-5113500D01*
X13866130Y-5113003D01*
X13856107Y-5111516D01*
X13846278Y-5109054D01*
X13836738Y-5105641D01*
X13827578Y-5101308D01*
X13818887Y-5096099D01*
X13810749Y-5090063D01*
X13803241Y-5083259D01*
X13796437Y-5075751D01*
X13790401Y-5067613D01*
X13785192Y-5058922D01*
X13780859Y-5049762D01*
X13777446Y-5040222D01*
X13774984Y-5030393D01*
X13773497Y-5020370D01*
X13773000Y-5010250D01*
X13773000Y-4803750D01*
X13773497Y-4793630D01*
X13774984Y-4783607D01*
X13777446Y-4773778D01*
X13780859Y-4764238D01*
X13785192Y-4755078D01*
X13790401Y-4746387D01*
X13796437Y-4738249D01*
X13803241Y-4730741D01*
X13810749Y-4723937D01*
X13818887Y-4717901D01*
X13827578Y-4712692D01*
X13836738Y-4708359D01*
X13846278Y-4704946D01*
X13856107Y-4702484D01*
X13866130Y-4700997D01*
X13876250Y-4700500D01*
X14117750Y-4700500D01*
X14127870Y-4700997D01*
X14127870Y-4700997D01*
G37*
D11*
X13997000Y-4907000D03*
G04 #@! TD*
D10*
G04 #@! TO.C,C304*
G36*
X10317870Y1753003D02*
X10327893Y1751516D01*
X10337722Y1749054D01*
X10347262Y1745641D01*
X10356422Y1741308D01*
X10365113Y1736099D01*
X10373251Y1730063D01*
X10380759Y1723259D01*
X10387563Y1715751D01*
X10393599Y1707613D01*
X10398808Y1698922D01*
X10403141Y1689762D01*
X10406554Y1680222D01*
X10409016Y1670393D01*
X10410503Y1660370D01*
X10411000Y1650250D01*
X10411000Y1443750D01*
X10410503Y1433630D01*
X10409016Y1423607D01*
X10406554Y1413778D01*
X10403141Y1404238D01*
X10398808Y1395078D01*
X10393599Y1386387D01*
X10387563Y1378249D01*
X10380759Y1370741D01*
X10373251Y1363937D01*
X10365113Y1357901D01*
X10356422Y1352692D01*
X10347262Y1348359D01*
X10337722Y1344946D01*
X10327893Y1342484D01*
X10317870Y1340997D01*
X10307750Y1340500D01*
X10066250Y1340500D01*
X10056130Y1340997D01*
X10046107Y1342484D01*
X10036278Y1344946D01*
X10026738Y1348359D01*
X10017578Y1352692D01*
X10008887Y1357901D01*
X10000749Y1363937D01*
X9993241Y1370741D01*
X9986437Y1378249D01*
X9980401Y1386387D01*
X9975192Y1395078D01*
X9970859Y1404238D01*
X9967446Y1413778D01*
X9964984Y1423607D01*
X9963497Y1433630D01*
X9963000Y1443750D01*
X9963000Y1650250D01*
X9963497Y1660370D01*
X9964984Y1670393D01*
X9967446Y1680222D01*
X9970859Y1689762D01*
X9975192Y1698922D01*
X9980401Y1707613D01*
X9986437Y1715751D01*
X9993241Y1723259D01*
X10000749Y1730063D01*
X10008887Y1736099D01*
X10017578Y1741308D01*
X10026738Y1745641D01*
X10036278Y1749054D01*
X10046107Y1751516D01*
X10056130Y1753003D01*
X10066250Y1753500D01*
X10307750Y1753500D01*
X10317870Y1753003D01*
X10317870Y1753003D01*
G37*
D11*
X10187000Y1547000D03*
D10*
G36*
X10317870Y2723003D02*
X10327893Y2721516D01*
X10337722Y2719054D01*
X10347262Y2715641D01*
X10356422Y2711308D01*
X10365113Y2706099D01*
X10373251Y2700063D01*
X10380759Y2693259D01*
X10387563Y2685751D01*
X10393599Y2677613D01*
X10398808Y2668922D01*
X10403141Y2659762D01*
X10406554Y2650222D01*
X10409016Y2640393D01*
X10410503Y2630370D01*
X10411000Y2620250D01*
X10411000Y2413750D01*
X10410503Y2403630D01*
X10409016Y2393607D01*
X10406554Y2383778D01*
X10403141Y2374238D01*
X10398808Y2365078D01*
X10393599Y2356387D01*
X10387563Y2348249D01*
X10380759Y2340741D01*
X10373251Y2333937D01*
X10365113Y2327901D01*
X10356422Y2322692D01*
X10347262Y2318359D01*
X10337722Y2314946D01*
X10327893Y2312484D01*
X10317870Y2310997D01*
X10307750Y2310500D01*
X10066250Y2310500D01*
X10056130Y2310997D01*
X10046107Y2312484D01*
X10036278Y2314946D01*
X10026738Y2318359D01*
X10017578Y2322692D01*
X10008887Y2327901D01*
X10000749Y2333937D01*
X9993241Y2340741D01*
X9986437Y2348249D01*
X9980401Y2356387D01*
X9975192Y2365078D01*
X9970859Y2374238D01*
X9967446Y2383778D01*
X9964984Y2393607D01*
X9963497Y2403630D01*
X9963000Y2413750D01*
X9963000Y2620250D01*
X9963497Y2630370D01*
X9964984Y2640393D01*
X9967446Y2650222D01*
X9970859Y2659762D01*
X9975192Y2668922D01*
X9980401Y2677613D01*
X9986437Y2685751D01*
X9993241Y2693259D01*
X10000749Y2700063D01*
X10008887Y2706099D01*
X10017578Y2711308D01*
X10026738Y2715641D01*
X10036278Y2719054D01*
X10046107Y2721516D01*
X10056130Y2723003D01*
X10066250Y2723500D01*
X10307750Y2723500D01*
X10317870Y2723003D01*
X10317870Y2723003D01*
G37*
D11*
X10187000Y2517000D03*
G04 #@! TD*
D10*
G04 #@! TO.C,C305*
G36*
X13111870Y-4700997D02*
X13121893Y-4702484D01*
X13131722Y-4704946D01*
X13141262Y-4708359D01*
X13150422Y-4712692D01*
X13159113Y-4717901D01*
X13167251Y-4723937D01*
X13174759Y-4730741D01*
X13181563Y-4738249D01*
X13187599Y-4746387D01*
X13192808Y-4755078D01*
X13197141Y-4764238D01*
X13200554Y-4773778D01*
X13203016Y-4783607D01*
X13204503Y-4793630D01*
X13205000Y-4803750D01*
X13205000Y-5010250D01*
X13204503Y-5020370D01*
X13203016Y-5030393D01*
X13200554Y-5040222D01*
X13197141Y-5049762D01*
X13192808Y-5058922D01*
X13187599Y-5067613D01*
X13181563Y-5075751D01*
X13174759Y-5083259D01*
X13167251Y-5090063D01*
X13159113Y-5096099D01*
X13150422Y-5101308D01*
X13141262Y-5105641D01*
X13131722Y-5109054D01*
X13121893Y-5111516D01*
X13111870Y-5113003D01*
X13101750Y-5113500D01*
X12860250Y-5113500D01*
X12850130Y-5113003D01*
X12840107Y-5111516D01*
X12830278Y-5109054D01*
X12820738Y-5105641D01*
X12811578Y-5101308D01*
X12802887Y-5096099D01*
X12794749Y-5090063D01*
X12787241Y-5083259D01*
X12780437Y-5075751D01*
X12774401Y-5067613D01*
X12769192Y-5058922D01*
X12764859Y-5049762D01*
X12761446Y-5040222D01*
X12758984Y-5030393D01*
X12757497Y-5020370D01*
X12757000Y-5010250D01*
X12757000Y-4803750D01*
X12757497Y-4793630D01*
X12758984Y-4783607D01*
X12761446Y-4773778D01*
X12764859Y-4764238D01*
X12769192Y-4755078D01*
X12774401Y-4746387D01*
X12780437Y-4738249D01*
X12787241Y-4730741D01*
X12794749Y-4723937D01*
X12802887Y-4717901D01*
X12811578Y-4712692D01*
X12820738Y-4708359D01*
X12830278Y-4704946D01*
X12840107Y-4702484D01*
X12850130Y-4700997D01*
X12860250Y-4700500D01*
X13101750Y-4700500D01*
X13111870Y-4700997D01*
X13111870Y-4700997D01*
G37*
D11*
X12981000Y-4907000D03*
D10*
G36*
X13111870Y-3730997D02*
X13121893Y-3732484D01*
X13131722Y-3734946D01*
X13141262Y-3738359D01*
X13150422Y-3742692D01*
X13159113Y-3747901D01*
X13167251Y-3753937D01*
X13174759Y-3760741D01*
X13181563Y-3768249D01*
X13187599Y-3776387D01*
X13192808Y-3785078D01*
X13197141Y-3794238D01*
X13200554Y-3803778D01*
X13203016Y-3813607D01*
X13204503Y-3823630D01*
X13205000Y-3833750D01*
X13205000Y-4040250D01*
X13204503Y-4050370D01*
X13203016Y-4060393D01*
X13200554Y-4070222D01*
X13197141Y-4079762D01*
X13192808Y-4088922D01*
X13187599Y-4097613D01*
X13181563Y-4105751D01*
X13174759Y-4113259D01*
X13167251Y-4120063D01*
X13159113Y-4126099D01*
X13150422Y-4131308D01*
X13141262Y-4135641D01*
X13131722Y-4139054D01*
X13121893Y-4141516D01*
X13111870Y-4143003D01*
X13101750Y-4143500D01*
X12860250Y-4143500D01*
X12850130Y-4143003D01*
X12840107Y-4141516D01*
X12830278Y-4139054D01*
X12820738Y-4135641D01*
X12811578Y-4131308D01*
X12802887Y-4126099D01*
X12794749Y-4120063D01*
X12787241Y-4113259D01*
X12780437Y-4105751D01*
X12774401Y-4097613D01*
X12769192Y-4088922D01*
X12764859Y-4079762D01*
X12761446Y-4070222D01*
X12758984Y-4060393D01*
X12757497Y-4050370D01*
X12757000Y-4040250D01*
X12757000Y-3833750D01*
X12757497Y-3823630D01*
X12758984Y-3813607D01*
X12761446Y-3803778D01*
X12764859Y-3794238D01*
X12769192Y-3785078D01*
X12774401Y-3776387D01*
X12780437Y-3768249D01*
X12787241Y-3760741D01*
X12794749Y-3753937D01*
X12802887Y-3747901D01*
X12811578Y-3742692D01*
X12820738Y-3738359D01*
X12830278Y-3734946D01*
X12840107Y-3732484D01*
X12850130Y-3730997D01*
X12860250Y-3730500D01*
X13101750Y-3730500D01*
X13111870Y-3730997D01*
X13111870Y-3730997D01*
G37*
D11*
X12981000Y-3937000D03*
G04 #@! TD*
D10*
G04 #@! TO.C,C306*
G36*
X11212370Y-3690497D02*
X11222393Y-3691984D01*
X11232222Y-3694446D01*
X11241762Y-3697859D01*
X11250922Y-3702192D01*
X11259613Y-3707401D01*
X11267751Y-3713437D01*
X11275259Y-3720241D01*
X11282063Y-3727749D01*
X11288099Y-3735887D01*
X11293308Y-3744578D01*
X11297641Y-3753738D01*
X11301054Y-3763278D01*
X11303516Y-3773107D01*
X11305003Y-3783130D01*
X11305500Y-3793250D01*
X11305500Y-4034750D01*
X11305003Y-4044870D01*
X11303516Y-4054893D01*
X11301054Y-4064722D01*
X11297641Y-4074262D01*
X11293308Y-4083422D01*
X11288099Y-4092113D01*
X11282063Y-4100251D01*
X11275259Y-4107759D01*
X11267751Y-4114563D01*
X11259613Y-4120599D01*
X11250922Y-4125808D01*
X11241762Y-4130141D01*
X11232222Y-4133554D01*
X11222393Y-4136016D01*
X11212370Y-4137503D01*
X11202250Y-4138000D01*
X10995750Y-4138000D01*
X10985630Y-4137503D01*
X10975607Y-4136016D01*
X10965778Y-4133554D01*
X10956238Y-4130141D01*
X10947078Y-4125808D01*
X10938387Y-4120599D01*
X10930249Y-4114563D01*
X10922741Y-4107759D01*
X10915937Y-4100251D01*
X10909901Y-4092113D01*
X10904692Y-4083422D01*
X10900359Y-4074262D01*
X10896946Y-4064722D01*
X10894484Y-4054893D01*
X10892997Y-4044870D01*
X10892500Y-4034750D01*
X10892500Y-3793250D01*
X10892997Y-3783130D01*
X10894484Y-3773107D01*
X10896946Y-3763278D01*
X10900359Y-3753738D01*
X10904692Y-3744578D01*
X10909901Y-3735887D01*
X10915937Y-3727749D01*
X10922741Y-3720241D01*
X10930249Y-3713437D01*
X10938387Y-3707401D01*
X10947078Y-3702192D01*
X10956238Y-3697859D01*
X10965778Y-3694446D01*
X10975607Y-3691984D01*
X10985630Y-3690497D01*
X10995750Y-3690000D01*
X11202250Y-3690000D01*
X11212370Y-3690497D01*
X11212370Y-3690497D01*
G37*
D11*
X11099000Y-3914000D03*
D10*
G36*
X12182370Y-3690497D02*
X12192393Y-3691984D01*
X12202222Y-3694446D01*
X12211762Y-3697859D01*
X12220922Y-3702192D01*
X12229613Y-3707401D01*
X12237751Y-3713437D01*
X12245259Y-3720241D01*
X12252063Y-3727749D01*
X12258099Y-3735887D01*
X12263308Y-3744578D01*
X12267641Y-3753738D01*
X12271054Y-3763278D01*
X12273516Y-3773107D01*
X12275003Y-3783130D01*
X12275500Y-3793250D01*
X12275500Y-4034750D01*
X12275003Y-4044870D01*
X12273516Y-4054893D01*
X12271054Y-4064722D01*
X12267641Y-4074262D01*
X12263308Y-4083422D01*
X12258099Y-4092113D01*
X12252063Y-4100251D01*
X12245259Y-4107759D01*
X12237751Y-4114563D01*
X12229613Y-4120599D01*
X12220922Y-4125808D01*
X12211762Y-4130141D01*
X12202222Y-4133554D01*
X12192393Y-4136016D01*
X12182370Y-4137503D01*
X12172250Y-4138000D01*
X11965750Y-4138000D01*
X11955630Y-4137503D01*
X11945607Y-4136016D01*
X11935778Y-4133554D01*
X11926238Y-4130141D01*
X11917078Y-4125808D01*
X11908387Y-4120599D01*
X11900249Y-4114563D01*
X11892741Y-4107759D01*
X11885937Y-4100251D01*
X11879901Y-4092113D01*
X11874692Y-4083422D01*
X11870359Y-4074262D01*
X11866946Y-4064722D01*
X11864484Y-4054893D01*
X11862997Y-4044870D01*
X11862500Y-4034750D01*
X11862500Y-3793250D01*
X11862997Y-3783130D01*
X11864484Y-3773107D01*
X11866946Y-3763278D01*
X11870359Y-3753738D01*
X11874692Y-3744578D01*
X11879901Y-3735887D01*
X11885937Y-3727749D01*
X11892741Y-3720241D01*
X11900249Y-3713437D01*
X11908387Y-3707401D01*
X11917078Y-3702192D01*
X11926238Y-3697859D01*
X11935778Y-3694446D01*
X11945607Y-3691984D01*
X11955630Y-3690497D01*
X11965750Y-3690000D01*
X12172250Y-3690000D01*
X12182370Y-3690497D01*
X12182370Y-3690497D01*
G37*
D11*
X12069000Y-3914000D03*
G04 #@! TD*
D10*
G04 #@! TO.C,C401*
G36*
X-34005130Y-1063997D02*
X-33995107Y-1065484D01*
X-33985278Y-1067946D01*
X-33975738Y-1071359D01*
X-33966578Y-1075692D01*
X-33957887Y-1080901D01*
X-33949749Y-1086937D01*
X-33942241Y-1093741D01*
X-33935437Y-1101249D01*
X-33929401Y-1109387D01*
X-33924192Y-1118078D01*
X-33919859Y-1127238D01*
X-33916446Y-1136778D01*
X-33913984Y-1146607D01*
X-33912497Y-1156630D01*
X-33912000Y-1166750D01*
X-33912000Y-1373250D01*
X-33912497Y-1383370D01*
X-33913984Y-1393393D01*
X-33916446Y-1403222D01*
X-33919859Y-1412762D01*
X-33924192Y-1421922D01*
X-33929401Y-1430613D01*
X-33935437Y-1438751D01*
X-33942241Y-1446259D01*
X-33949749Y-1453063D01*
X-33957887Y-1459099D01*
X-33966578Y-1464308D01*
X-33975738Y-1468641D01*
X-33985278Y-1472054D01*
X-33995107Y-1474516D01*
X-34005130Y-1476003D01*
X-34015250Y-1476500D01*
X-34256750Y-1476500D01*
X-34266870Y-1476003D01*
X-34276893Y-1474516D01*
X-34286722Y-1472054D01*
X-34296262Y-1468641D01*
X-34305422Y-1464308D01*
X-34314113Y-1459099D01*
X-34322251Y-1453063D01*
X-34329759Y-1446259D01*
X-34336563Y-1438751D01*
X-34342599Y-1430613D01*
X-34347808Y-1421922D01*
X-34352141Y-1412762D01*
X-34355554Y-1403222D01*
X-34358016Y-1393393D01*
X-34359503Y-1383370D01*
X-34360000Y-1373250D01*
X-34360000Y-1166750D01*
X-34359503Y-1156630D01*
X-34358016Y-1146607D01*
X-34355554Y-1136778D01*
X-34352141Y-1127238D01*
X-34347808Y-1118078D01*
X-34342599Y-1109387D01*
X-34336563Y-1101249D01*
X-34329759Y-1093741D01*
X-34322251Y-1086937D01*
X-34314113Y-1080901D01*
X-34305422Y-1075692D01*
X-34296262Y-1071359D01*
X-34286722Y-1067946D01*
X-34276893Y-1065484D01*
X-34266870Y-1063997D01*
X-34256750Y-1063500D01*
X-34015250Y-1063500D01*
X-34005130Y-1063997D01*
X-34005130Y-1063997D01*
G37*
D11*
X-34136000Y-1270000D03*
D10*
G36*
X-34005130Y-2033997D02*
X-33995107Y-2035484D01*
X-33985278Y-2037946D01*
X-33975738Y-2041359D01*
X-33966578Y-2045692D01*
X-33957887Y-2050901D01*
X-33949749Y-2056937D01*
X-33942241Y-2063741D01*
X-33935437Y-2071249D01*
X-33929401Y-2079387D01*
X-33924192Y-2088078D01*
X-33919859Y-2097238D01*
X-33916446Y-2106778D01*
X-33913984Y-2116607D01*
X-33912497Y-2126630D01*
X-33912000Y-2136750D01*
X-33912000Y-2343250D01*
X-33912497Y-2353370D01*
X-33913984Y-2363393D01*
X-33916446Y-2373222D01*
X-33919859Y-2382762D01*
X-33924192Y-2391922D01*
X-33929401Y-2400613D01*
X-33935437Y-2408751D01*
X-33942241Y-2416259D01*
X-33949749Y-2423063D01*
X-33957887Y-2429099D01*
X-33966578Y-2434308D01*
X-33975738Y-2438641D01*
X-33985278Y-2442054D01*
X-33995107Y-2444516D01*
X-34005130Y-2446003D01*
X-34015250Y-2446500D01*
X-34256750Y-2446500D01*
X-34266870Y-2446003D01*
X-34276893Y-2444516D01*
X-34286722Y-2442054D01*
X-34296262Y-2438641D01*
X-34305422Y-2434308D01*
X-34314113Y-2429099D01*
X-34322251Y-2423063D01*
X-34329759Y-2416259D01*
X-34336563Y-2408751D01*
X-34342599Y-2400613D01*
X-34347808Y-2391922D01*
X-34352141Y-2382762D01*
X-34355554Y-2373222D01*
X-34358016Y-2363393D01*
X-34359503Y-2353370D01*
X-34360000Y-2343250D01*
X-34360000Y-2136750D01*
X-34359503Y-2126630D01*
X-34358016Y-2116607D01*
X-34355554Y-2106778D01*
X-34352141Y-2097238D01*
X-34347808Y-2088078D01*
X-34342599Y-2079387D01*
X-34336563Y-2071249D01*
X-34329759Y-2063741D01*
X-34322251Y-2056937D01*
X-34314113Y-2050901D01*
X-34305422Y-2045692D01*
X-34296262Y-2041359D01*
X-34286722Y-2037946D01*
X-34276893Y-2035484D01*
X-34266870Y-2033997D01*
X-34256750Y-2033500D01*
X-34015250Y-2033500D01*
X-34005130Y-2033997D01*
X-34005130Y-2033997D01*
G37*
D11*
X-34136000Y-2240000D03*
G04 #@! TD*
D10*
G04 #@! TO.C,C601*
G36*
X-19654130Y3104003D02*
X-19644107Y3102516D01*
X-19634278Y3100054D01*
X-19624738Y3096641D01*
X-19615578Y3092308D01*
X-19606887Y3087099D01*
X-19598749Y3081063D01*
X-19591241Y3074259D01*
X-19584437Y3066751D01*
X-19578401Y3058613D01*
X-19573192Y3049922D01*
X-19568859Y3040762D01*
X-19565446Y3031222D01*
X-19562984Y3021393D01*
X-19561497Y3011370D01*
X-19561000Y3001250D01*
X-19561000Y2794750D01*
X-19561497Y2784630D01*
X-19562984Y2774607D01*
X-19565446Y2764778D01*
X-19568859Y2755238D01*
X-19573192Y2746078D01*
X-19578401Y2737387D01*
X-19584437Y2729249D01*
X-19591241Y2721741D01*
X-19598749Y2714937D01*
X-19606887Y2708901D01*
X-19615578Y2703692D01*
X-19624738Y2699359D01*
X-19634278Y2695946D01*
X-19644107Y2693484D01*
X-19654130Y2691997D01*
X-19664250Y2691500D01*
X-19905750Y2691500D01*
X-19915870Y2691997D01*
X-19925893Y2693484D01*
X-19935722Y2695946D01*
X-19945262Y2699359D01*
X-19954422Y2703692D01*
X-19963113Y2708901D01*
X-19971251Y2714937D01*
X-19978759Y2721741D01*
X-19985563Y2729249D01*
X-19991599Y2737387D01*
X-19996808Y2746078D01*
X-20001141Y2755238D01*
X-20004554Y2764778D01*
X-20007016Y2774607D01*
X-20008503Y2784630D01*
X-20009000Y2794750D01*
X-20009000Y3001250D01*
X-20008503Y3011370D01*
X-20007016Y3021393D01*
X-20004554Y3031222D01*
X-20001141Y3040762D01*
X-19996808Y3049922D01*
X-19991599Y3058613D01*
X-19985563Y3066751D01*
X-19978759Y3074259D01*
X-19971251Y3081063D01*
X-19963113Y3087099D01*
X-19954422Y3092308D01*
X-19945262Y3096641D01*
X-19935722Y3100054D01*
X-19925893Y3102516D01*
X-19915870Y3104003D01*
X-19905750Y3104500D01*
X-19664250Y3104500D01*
X-19654130Y3104003D01*
X-19654130Y3104003D01*
G37*
D11*
X-19785000Y2898000D03*
D10*
G36*
X-19654130Y2134003D02*
X-19644107Y2132516D01*
X-19634278Y2130054D01*
X-19624738Y2126641D01*
X-19615578Y2122308D01*
X-19606887Y2117099D01*
X-19598749Y2111063D01*
X-19591241Y2104259D01*
X-19584437Y2096751D01*
X-19578401Y2088613D01*
X-19573192Y2079922D01*
X-19568859Y2070762D01*
X-19565446Y2061222D01*
X-19562984Y2051393D01*
X-19561497Y2041370D01*
X-19561000Y2031250D01*
X-19561000Y1824750D01*
X-19561497Y1814630D01*
X-19562984Y1804607D01*
X-19565446Y1794778D01*
X-19568859Y1785238D01*
X-19573192Y1776078D01*
X-19578401Y1767387D01*
X-19584437Y1759249D01*
X-19591241Y1751741D01*
X-19598749Y1744937D01*
X-19606887Y1738901D01*
X-19615578Y1733692D01*
X-19624738Y1729359D01*
X-19634278Y1725946D01*
X-19644107Y1723484D01*
X-19654130Y1721997D01*
X-19664250Y1721500D01*
X-19905750Y1721500D01*
X-19915870Y1721997D01*
X-19925893Y1723484D01*
X-19935722Y1725946D01*
X-19945262Y1729359D01*
X-19954422Y1733692D01*
X-19963113Y1738901D01*
X-19971251Y1744937D01*
X-19978759Y1751741D01*
X-19985563Y1759249D01*
X-19991599Y1767387D01*
X-19996808Y1776078D01*
X-20001141Y1785238D01*
X-20004554Y1794778D01*
X-20007016Y1804607D01*
X-20008503Y1814630D01*
X-20009000Y1824750D01*
X-20009000Y2031250D01*
X-20008503Y2041370D01*
X-20007016Y2051393D01*
X-20004554Y2061222D01*
X-20001141Y2070762D01*
X-19996808Y2079922D01*
X-19991599Y2088613D01*
X-19985563Y2096751D01*
X-19978759Y2104259D01*
X-19971251Y2111063D01*
X-19963113Y2117099D01*
X-19954422Y2122308D01*
X-19945262Y2126641D01*
X-19935722Y2130054D01*
X-19925893Y2132516D01*
X-19915870Y2134003D01*
X-19905750Y2134500D01*
X-19664250Y2134500D01*
X-19654130Y2134003D01*
X-19654130Y2134003D01*
G37*
D11*
X-19785000Y1928000D03*
G04 #@! TD*
D10*
G04 #@! TO.C,C602*
G36*
X-9788630Y-1531497D02*
X-9778607Y-1532984D01*
X-9768778Y-1535446D01*
X-9759238Y-1538859D01*
X-9750078Y-1543192D01*
X-9741387Y-1548401D01*
X-9733249Y-1554437D01*
X-9725741Y-1561241D01*
X-9718937Y-1568749D01*
X-9712901Y-1576887D01*
X-9707692Y-1585578D01*
X-9703359Y-1594738D01*
X-9699946Y-1604278D01*
X-9697484Y-1614107D01*
X-9695997Y-1624130D01*
X-9695500Y-1634250D01*
X-9695500Y-1875750D01*
X-9695997Y-1885870D01*
X-9697484Y-1895893D01*
X-9699946Y-1905722D01*
X-9703359Y-1915262D01*
X-9707692Y-1924422D01*
X-9712901Y-1933113D01*
X-9718937Y-1941251D01*
X-9725741Y-1948759D01*
X-9733249Y-1955563D01*
X-9741387Y-1961599D01*
X-9750078Y-1966808D01*
X-9759238Y-1971141D01*
X-9768778Y-1974554D01*
X-9778607Y-1977016D01*
X-9788630Y-1978503D01*
X-9798750Y-1979000D01*
X-10005250Y-1979000D01*
X-10015370Y-1978503D01*
X-10025393Y-1977016D01*
X-10035222Y-1974554D01*
X-10044762Y-1971141D01*
X-10053922Y-1966808D01*
X-10062613Y-1961599D01*
X-10070751Y-1955563D01*
X-10078259Y-1948759D01*
X-10085063Y-1941251D01*
X-10091099Y-1933113D01*
X-10096308Y-1924422D01*
X-10100641Y-1915262D01*
X-10104054Y-1905722D01*
X-10106516Y-1895893D01*
X-10108003Y-1885870D01*
X-10108500Y-1875750D01*
X-10108500Y-1634250D01*
X-10108003Y-1624130D01*
X-10106516Y-1614107D01*
X-10104054Y-1604278D01*
X-10100641Y-1594738D01*
X-10096308Y-1585578D01*
X-10091099Y-1576887D01*
X-10085063Y-1568749D01*
X-10078259Y-1561241D01*
X-10070751Y-1554437D01*
X-10062613Y-1548401D01*
X-10053922Y-1543192D01*
X-10044762Y-1538859D01*
X-10035222Y-1535446D01*
X-10025393Y-1532984D01*
X-10015370Y-1531497D01*
X-10005250Y-1531000D01*
X-9798750Y-1531000D01*
X-9788630Y-1531497D01*
X-9788630Y-1531497D01*
G37*
D11*
X-9902000Y-1755000D03*
D10*
G36*
X-10758630Y-1531497D02*
X-10748607Y-1532984D01*
X-10738778Y-1535446D01*
X-10729238Y-1538859D01*
X-10720078Y-1543192D01*
X-10711387Y-1548401D01*
X-10703249Y-1554437D01*
X-10695741Y-1561241D01*
X-10688937Y-1568749D01*
X-10682901Y-1576887D01*
X-10677692Y-1585578D01*
X-10673359Y-1594738D01*
X-10669946Y-1604278D01*
X-10667484Y-1614107D01*
X-10665997Y-1624130D01*
X-10665500Y-1634250D01*
X-10665500Y-1875750D01*
X-10665997Y-1885870D01*
X-10667484Y-1895893D01*
X-10669946Y-1905722D01*
X-10673359Y-1915262D01*
X-10677692Y-1924422D01*
X-10682901Y-1933113D01*
X-10688937Y-1941251D01*
X-10695741Y-1948759D01*
X-10703249Y-1955563D01*
X-10711387Y-1961599D01*
X-10720078Y-1966808D01*
X-10729238Y-1971141D01*
X-10738778Y-1974554D01*
X-10748607Y-1977016D01*
X-10758630Y-1978503D01*
X-10768750Y-1979000D01*
X-10975250Y-1979000D01*
X-10985370Y-1978503D01*
X-10995393Y-1977016D01*
X-11005222Y-1974554D01*
X-11014762Y-1971141D01*
X-11023922Y-1966808D01*
X-11032613Y-1961599D01*
X-11040751Y-1955563D01*
X-11048259Y-1948759D01*
X-11055063Y-1941251D01*
X-11061099Y-1933113D01*
X-11066308Y-1924422D01*
X-11070641Y-1915262D01*
X-11074054Y-1905722D01*
X-11076516Y-1895893D01*
X-11078003Y-1885870D01*
X-11078500Y-1875750D01*
X-11078500Y-1634250D01*
X-11078003Y-1624130D01*
X-11076516Y-1614107D01*
X-11074054Y-1604278D01*
X-11070641Y-1594738D01*
X-11066308Y-1585578D01*
X-11061099Y-1576887D01*
X-11055063Y-1568749D01*
X-11048259Y-1561241D01*
X-11040751Y-1554437D01*
X-11032613Y-1548401D01*
X-11023922Y-1543192D01*
X-11014762Y-1538859D01*
X-11005222Y-1535446D01*
X-10995393Y-1532984D01*
X-10985370Y-1531497D01*
X-10975250Y-1531000D01*
X-10768750Y-1531000D01*
X-10758630Y-1531497D01*
X-10758630Y-1531497D01*
G37*
D11*
X-10872000Y-1755000D03*
G04 #@! TD*
D10*
G04 #@! TO.C,C603*
G36*
X-17362630Y7358503D02*
X-17352607Y7357016D01*
X-17342778Y7354554D01*
X-17333238Y7351141D01*
X-17324078Y7346808D01*
X-17315387Y7341599D01*
X-17307249Y7335563D01*
X-17299741Y7328759D01*
X-17292937Y7321251D01*
X-17286901Y7313113D01*
X-17281692Y7304422D01*
X-17277359Y7295262D01*
X-17273946Y7285722D01*
X-17271484Y7275893D01*
X-17269997Y7265870D01*
X-17269500Y7255750D01*
X-17269500Y7014250D01*
X-17269997Y7004130D01*
X-17271484Y6994107D01*
X-17273946Y6984278D01*
X-17277359Y6974738D01*
X-17281692Y6965578D01*
X-17286901Y6956887D01*
X-17292937Y6948749D01*
X-17299741Y6941241D01*
X-17307249Y6934437D01*
X-17315387Y6928401D01*
X-17324078Y6923192D01*
X-17333238Y6918859D01*
X-17342778Y6915446D01*
X-17352607Y6912984D01*
X-17362630Y6911497D01*
X-17372750Y6911000D01*
X-17579250Y6911000D01*
X-17589370Y6911497D01*
X-17599393Y6912984D01*
X-17609222Y6915446D01*
X-17618762Y6918859D01*
X-17627922Y6923192D01*
X-17636613Y6928401D01*
X-17644751Y6934437D01*
X-17652259Y6941241D01*
X-17659063Y6948749D01*
X-17665099Y6956887D01*
X-17670308Y6965578D01*
X-17674641Y6974738D01*
X-17678054Y6984278D01*
X-17680516Y6994107D01*
X-17682003Y7004130D01*
X-17682500Y7014250D01*
X-17682500Y7255750D01*
X-17682003Y7265870D01*
X-17680516Y7275893D01*
X-17678054Y7285722D01*
X-17674641Y7295262D01*
X-17670308Y7304422D01*
X-17665099Y7313113D01*
X-17659063Y7321251D01*
X-17652259Y7328759D01*
X-17644751Y7335563D01*
X-17636613Y7341599D01*
X-17627922Y7346808D01*
X-17618762Y7351141D01*
X-17609222Y7354554D01*
X-17599393Y7357016D01*
X-17589370Y7358503D01*
X-17579250Y7359000D01*
X-17372750Y7359000D01*
X-17362630Y7358503D01*
X-17362630Y7358503D01*
G37*
D11*
X-17476000Y7135000D03*
D10*
G36*
X-16392630Y7358503D02*
X-16382607Y7357016D01*
X-16372778Y7354554D01*
X-16363238Y7351141D01*
X-16354078Y7346808D01*
X-16345387Y7341599D01*
X-16337249Y7335563D01*
X-16329741Y7328759D01*
X-16322937Y7321251D01*
X-16316901Y7313113D01*
X-16311692Y7304422D01*
X-16307359Y7295262D01*
X-16303946Y7285722D01*
X-16301484Y7275893D01*
X-16299997Y7265870D01*
X-16299500Y7255750D01*
X-16299500Y7014250D01*
X-16299997Y7004130D01*
X-16301484Y6994107D01*
X-16303946Y6984278D01*
X-16307359Y6974738D01*
X-16311692Y6965578D01*
X-16316901Y6956887D01*
X-16322937Y6948749D01*
X-16329741Y6941241D01*
X-16337249Y6934437D01*
X-16345387Y6928401D01*
X-16354078Y6923192D01*
X-16363238Y6918859D01*
X-16372778Y6915446D01*
X-16382607Y6912984D01*
X-16392630Y6911497D01*
X-16402750Y6911000D01*
X-16609250Y6911000D01*
X-16619370Y6911497D01*
X-16629393Y6912984D01*
X-16639222Y6915446D01*
X-16648762Y6918859D01*
X-16657922Y6923192D01*
X-16666613Y6928401D01*
X-16674751Y6934437D01*
X-16682259Y6941241D01*
X-16689063Y6948749D01*
X-16695099Y6956887D01*
X-16700308Y6965578D01*
X-16704641Y6974738D01*
X-16708054Y6984278D01*
X-16710516Y6994107D01*
X-16712003Y7004130D01*
X-16712500Y7014250D01*
X-16712500Y7255750D01*
X-16712003Y7265870D01*
X-16710516Y7275893D01*
X-16708054Y7285722D01*
X-16704641Y7295262D01*
X-16700308Y7304422D01*
X-16695099Y7313113D01*
X-16689063Y7321251D01*
X-16682259Y7328759D01*
X-16674751Y7335563D01*
X-16666613Y7341599D01*
X-16657922Y7346808D01*
X-16648762Y7351141D01*
X-16639222Y7354554D01*
X-16629393Y7357016D01*
X-16619370Y7358503D01*
X-16609250Y7359000D01*
X-16402750Y7359000D01*
X-16392630Y7358503D01*
X-16392630Y7358503D01*
G37*
D11*
X-16506000Y7135000D03*
G04 #@! TD*
D10*
G04 #@! TO.C,D601*
G36*
X-8091630Y-1912497D02*
X-8081607Y-1913984D01*
X-8071778Y-1916446D01*
X-8062238Y-1919859D01*
X-8053078Y-1924192D01*
X-8044387Y-1929401D01*
X-8036249Y-1935437D01*
X-8028741Y-1942241D01*
X-8021937Y-1949749D01*
X-8015901Y-1957887D01*
X-8010692Y-1966578D01*
X-8006359Y-1975738D01*
X-8002946Y-1985278D01*
X-8000484Y-1995107D01*
X-7998997Y-2005130D01*
X-7998500Y-2015250D01*
X-7998500Y-2256750D01*
X-7998997Y-2266870D01*
X-8000484Y-2276893D01*
X-8002946Y-2286722D01*
X-8006359Y-2296262D01*
X-8010692Y-2305422D01*
X-8015901Y-2314113D01*
X-8021937Y-2322251D01*
X-8028741Y-2329759D01*
X-8036249Y-2336563D01*
X-8044387Y-2342599D01*
X-8053078Y-2347808D01*
X-8062238Y-2352141D01*
X-8071778Y-2355554D01*
X-8081607Y-2358016D01*
X-8091630Y-2359503D01*
X-8101750Y-2360000D01*
X-8308250Y-2360000D01*
X-8318370Y-2359503D01*
X-8328393Y-2358016D01*
X-8338222Y-2355554D01*
X-8347762Y-2352141D01*
X-8356922Y-2347808D01*
X-8365613Y-2342599D01*
X-8373751Y-2336563D01*
X-8381259Y-2329759D01*
X-8388063Y-2322251D01*
X-8394099Y-2314113D01*
X-8399308Y-2305422D01*
X-8403641Y-2296262D01*
X-8407054Y-2286722D01*
X-8409516Y-2276893D01*
X-8411003Y-2266870D01*
X-8411500Y-2256750D01*
X-8411500Y-2015250D01*
X-8411003Y-2005130D01*
X-8409516Y-1995107D01*
X-8407054Y-1985278D01*
X-8403641Y-1975738D01*
X-8399308Y-1966578D01*
X-8394099Y-1957887D01*
X-8388063Y-1949749D01*
X-8381259Y-1942241D01*
X-8373751Y-1935437D01*
X-8365613Y-1929401D01*
X-8356922Y-1924192D01*
X-8347762Y-1919859D01*
X-8338222Y-1916446D01*
X-8328393Y-1913984D01*
X-8318370Y-1912497D01*
X-8308250Y-1912000D01*
X-8101750Y-1912000D01*
X-8091630Y-1912497D01*
X-8091630Y-1912497D01*
G37*
D11*
X-8205000Y-2136000D03*
D10*
G36*
X-7121630Y-1912497D02*
X-7111607Y-1913984D01*
X-7101778Y-1916446D01*
X-7092238Y-1919859D01*
X-7083078Y-1924192D01*
X-7074387Y-1929401D01*
X-7066249Y-1935437D01*
X-7058741Y-1942241D01*
X-7051937Y-1949749D01*
X-7045901Y-1957887D01*
X-7040692Y-1966578D01*
X-7036359Y-1975738D01*
X-7032946Y-1985278D01*
X-7030484Y-1995107D01*
X-7028997Y-2005130D01*
X-7028500Y-2015250D01*
X-7028500Y-2256750D01*
X-7028997Y-2266870D01*
X-7030484Y-2276893D01*
X-7032946Y-2286722D01*
X-7036359Y-2296262D01*
X-7040692Y-2305422D01*
X-7045901Y-2314113D01*
X-7051937Y-2322251D01*
X-7058741Y-2329759D01*
X-7066249Y-2336563D01*
X-7074387Y-2342599D01*
X-7083078Y-2347808D01*
X-7092238Y-2352141D01*
X-7101778Y-2355554D01*
X-7111607Y-2358016D01*
X-7121630Y-2359503D01*
X-7131750Y-2360000D01*
X-7338250Y-2360000D01*
X-7348370Y-2359503D01*
X-7358393Y-2358016D01*
X-7368222Y-2355554D01*
X-7377762Y-2352141D01*
X-7386922Y-2347808D01*
X-7395613Y-2342599D01*
X-7403751Y-2336563D01*
X-7411259Y-2329759D01*
X-7418063Y-2322251D01*
X-7424099Y-2314113D01*
X-7429308Y-2305422D01*
X-7433641Y-2296262D01*
X-7437054Y-2286722D01*
X-7439516Y-2276893D01*
X-7441003Y-2266870D01*
X-7441500Y-2256750D01*
X-7441500Y-2015250D01*
X-7441003Y-2005130D01*
X-7439516Y-1995107D01*
X-7437054Y-1985278D01*
X-7433641Y-1975738D01*
X-7429308Y-1966578D01*
X-7424099Y-1957887D01*
X-7418063Y-1949749D01*
X-7411259Y-1942241D01*
X-7403751Y-1935437D01*
X-7395613Y-1929401D01*
X-7386922Y-1924192D01*
X-7377762Y-1919859D01*
X-7368222Y-1916446D01*
X-7358393Y-1913984D01*
X-7348370Y-1912497D01*
X-7338250Y-1912000D01*
X-7131750Y-1912000D01*
X-7121630Y-1912497D01*
X-7121630Y-1912497D01*
G37*
D11*
X-7235000Y-2136000D03*
G04 #@! TD*
D10*
G04 #@! TO.C,D602*
G36*
X-8091630Y-896497D02*
X-8081607Y-897984D01*
X-8071778Y-900446D01*
X-8062238Y-903859D01*
X-8053078Y-908192D01*
X-8044387Y-913401D01*
X-8036249Y-919437D01*
X-8028741Y-926241D01*
X-8021937Y-933749D01*
X-8015901Y-941887D01*
X-8010692Y-950578D01*
X-8006359Y-959738D01*
X-8002946Y-969278D01*
X-8000484Y-979107D01*
X-7998997Y-989130D01*
X-7998500Y-999250D01*
X-7998500Y-1240750D01*
X-7998997Y-1250870D01*
X-8000484Y-1260893D01*
X-8002946Y-1270722D01*
X-8006359Y-1280262D01*
X-8010692Y-1289422D01*
X-8015901Y-1298113D01*
X-8021937Y-1306251D01*
X-8028741Y-1313759D01*
X-8036249Y-1320563D01*
X-8044387Y-1326599D01*
X-8053078Y-1331808D01*
X-8062238Y-1336141D01*
X-8071778Y-1339554D01*
X-8081607Y-1342016D01*
X-8091630Y-1343503D01*
X-8101750Y-1344000D01*
X-8308250Y-1344000D01*
X-8318370Y-1343503D01*
X-8328393Y-1342016D01*
X-8338222Y-1339554D01*
X-8347762Y-1336141D01*
X-8356922Y-1331808D01*
X-8365613Y-1326599D01*
X-8373751Y-1320563D01*
X-8381259Y-1313759D01*
X-8388063Y-1306251D01*
X-8394099Y-1298113D01*
X-8399308Y-1289422D01*
X-8403641Y-1280262D01*
X-8407054Y-1270722D01*
X-8409516Y-1260893D01*
X-8411003Y-1250870D01*
X-8411500Y-1240750D01*
X-8411500Y-999250D01*
X-8411003Y-989130D01*
X-8409516Y-979107D01*
X-8407054Y-969278D01*
X-8403641Y-959738D01*
X-8399308Y-950578D01*
X-8394099Y-941887D01*
X-8388063Y-933749D01*
X-8381259Y-926241D01*
X-8373751Y-919437D01*
X-8365613Y-913401D01*
X-8356922Y-908192D01*
X-8347762Y-903859D01*
X-8338222Y-900446D01*
X-8328393Y-897984D01*
X-8318370Y-896497D01*
X-8308250Y-896000D01*
X-8101750Y-896000D01*
X-8091630Y-896497D01*
X-8091630Y-896497D01*
G37*
D11*
X-8205000Y-1120000D03*
D10*
G36*
X-7121630Y-896497D02*
X-7111607Y-897984D01*
X-7101778Y-900446D01*
X-7092238Y-903859D01*
X-7083078Y-908192D01*
X-7074387Y-913401D01*
X-7066249Y-919437D01*
X-7058741Y-926241D01*
X-7051937Y-933749D01*
X-7045901Y-941887D01*
X-7040692Y-950578D01*
X-7036359Y-959738D01*
X-7032946Y-969278D01*
X-7030484Y-979107D01*
X-7028997Y-989130D01*
X-7028500Y-999250D01*
X-7028500Y-1240750D01*
X-7028997Y-1250870D01*
X-7030484Y-1260893D01*
X-7032946Y-1270722D01*
X-7036359Y-1280262D01*
X-7040692Y-1289422D01*
X-7045901Y-1298113D01*
X-7051937Y-1306251D01*
X-7058741Y-1313759D01*
X-7066249Y-1320563D01*
X-7074387Y-1326599D01*
X-7083078Y-1331808D01*
X-7092238Y-1336141D01*
X-7101778Y-1339554D01*
X-7111607Y-1342016D01*
X-7121630Y-1343503D01*
X-7131750Y-1344000D01*
X-7338250Y-1344000D01*
X-7348370Y-1343503D01*
X-7358393Y-1342016D01*
X-7368222Y-1339554D01*
X-7377762Y-1336141D01*
X-7386922Y-1331808D01*
X-7395613Y-1326599D01*
X-7403751Y-1320563D01*
X-7411259Y-1313759D01*
X-7418063Y-1306251D01*
X-7424099Y-1298113D01*
X-7429308Y-1289422D01*
X-7433641Y-1280262D01*
X-7437054Y-1270722D01*
X-7439516Y-1260893D01*
X-7441003Y-1250870D01*
X-7441500Y-1240750D01*
X-7441500Y-999250D01*
X-7441003Y-989130D01*
X-7439516Y-979107D01*
X-7437054Y-969278D01*
X-7433641Y-959738D01*
X-7429308Y-950578D01*
X-7424099Y-941887D01*
X-7418063Y-933749D01*
X-7411259Y-926241D01*
X-7403751Y-919437D01*
X-7395613Y-913401D01*
X-7386922Y-908192D01*
X-7377762Y-903859D01*
X-7368222Y-900446D01*
X-7358393Y-897984D01*
X-7348370Y-896497D01*
X-7338250Y-896000D01*
X-7131750Y-896000D01*
X-7121630Y-896497D01*
X-7121630Y-896497D01*
G37*
D11*
X-7235000Y-1120000D03*
G04 #@! TD*
D13*
G04 #@! TO.C,Q301*
X35770000Y5045000D03*
X36420000Y5045000D03*
X35120000Y5045000D03*
X34470000Y7955000D03*
X34470000Y5045000D03*
X35120000Y7955000D03*
X35770000Y7955000D03*
X36420000Y7955000D03*
X37070000Y5045000D03*
X37720000Y7955000D03*
X37070000Y7955000D03*
X37720000Y5045000D03*
D14*
X37895000Y6500000D03*
X36895000Y6500000D03*
X35295000Y6500000D03*
X34295000Y6500000D03*
G04 #@! TD*
G04 #@! TO.C,Q302*
X34295000Y150000D03*
X35295000Y150000D03*
X36895000Y150000D03*
X37895000Y150000D03*
D13*
X37720000Y-1305000D03*
X37070000Y1605000D03*
X37720000Y1605000D03*
X37070000Y-1305000D03*
X36420000Y1605000D03*
X35770000Y1605000D03*
X35120000Y1605000D03*
X34470000Y-1305000D03*
X34470000Y1605000D03*
X35120000Y-1305000D03*
X36420000Y-1305000D03*
X35770000Y-1305000D03*
G04 #@! TD*
D14*
G04 #@! TO.C,Q303*
X34295000Y-6200000D03*
X35295000Y-6200000D03*
X36895000Y-6200000D03*
X37895000Y-6200000D03*
D13*
X37720000Y-7655000D03*
X37070000Y-4745000D03*
X37720000Y-4745000D03*
X37070000Y-7655000D03*
X36420000Y-4745000D03*
X35770000Y-4745000D03*
X35120000Y-4745000D03*
X34470000Y-7655000D03*
X34470000Y-4745000D03*
X35120000Y-7655000D03*
X36420000Y-7655000D03*
X35770000Y-7655000D03*
G04 #@! TD*
D10*
G04 #@! TO.C,R101*
G36*
X-7121630Y-11056497D02*
X-7111607Y-11057984D01*
X-7101778Y-11060446D01*
X-7092238Y-11063859D01*
X-7083078Y-11068192D01*
X-7074387Y-11073401D01*
X-7066249Y-11079437D01*
X-7058741Y-11086241D01*
X-7051937Y-11093749D01*
X-7045901Y-11101887D01*
X-7040692Y-11110578D01*
X-7036359Y-11119738D01*
X-7032946Y-11129278D01*
X-7030484Y-11139107D01*
X-7028997Y-11149130D01*
X-7028500Y-11159250D01*
X-7028500Y-11400750D01*
X-7028997Y-11410870D01*
X-7030484Y-11420893D01*
X-7032946Y-11430722D01*
X-7036359Y-11440262D01*
X-7040692Y-11449422D01*
X-7045901Y-11458113D01*
X-7051937Y-11466251D01*
X-7058741Y-11473759D01*
X-7066249Y-11480563D01*
X-7074387Y-11486599D01*
X-7083078Y-11491808D01*
X-7092238Y-11496141D01*
X-7101778Y-11499554D01*
X-7111607Y-11502016D01*
X-7121630Y-11503503D01*
X-7131750Y-11504000D01*
X-7338250Y-11504000D01*
X-7348370Y-11503503D01*
X-7358393Y-11502016D01*
X-7368222Y-11499554D01*
X-7377762Y-11496141D01*
X-7386922Y-11491808D01*
X-7395613Y-11486599D01*
X-7403751Y-11480563D01*
X-7411259Y-11473759D01*
X-7418063Y-11466251D01*
X-7424099Y-11458113D01*
X-7429308Y-11449422D01*
X-7433641Y-11440262D01*
X-7437054Y-11430722D01*
X-7439516Y-11420893D01*
X-7441003Y-11410870D01*
X-7441500Y-11400750D01*
X-7441500Y-11159250D01*
X-7441003Y-11149130D01*
X-7439516Y-11139107D01*
X-7437054Y-11129278D01*
X-7433641Y-11119738D01*
X-7429308Y-11110578D01*
X-7424099Y-11101887D01*
X-7418063Y-11093749D01*
X-7411259Y-11086241D01*
X-7403751Y-11079437D01*
X-7395613Y-11073401D01*
X-7386922Y-11068192D01*
X-7377762Y-11063859D01*
X-7368222Y-11060446D01*
X-7358393Y-11057984D01*
X-7348370Y-11056497D01*
X-7338250Y-11056000D01*
X-7131750Y-11056000D01*
X-7121630Y-11056497D01*
X-7121630Y-11056497D01*
G37*
D11*
X-7235000Y-11280000D03*
D10*
G36*
X-8091630Y-11056497D02*
X-8081607Y-11057984D01*
X-8071778Y-11060446D01*
X-8062238Y-11063859D01*
X-8053078Y-11068192D01*
X-8044387Y-11073401D01*
X-8036249Y-11079437D01*
X-8028741Y-11086241D01*
X-8021937Y-11093749D01*
X-8015901Y-11101887D01*
X-8010692Y-11110578D01*
X-8006359Y-11119738D01*
X-8002946Y-11129278D01*
X-8000484Y-11139107D01*
X-7998997Y-11149130D01*
X-7998500Y-11159250D01*
X-7998500Y-11400750D01*
X-7998997Y-11410870D01*
X-8000484Y-11420893D01*
X-8002946Y-11430722D01*
X-8006359Y-11440262D01*
X-8010692Y-11449422D01*
X-8015901Y-11458113D01*
X-8021937Y-11466251D01*
X-8028741Y-11473759D01*
X-8036249Y-11480563D01*
X-8044387Y-11486599D01*
X-8053078Y-11491808D01*
X-8062238Y-11496141D01*
X-8071778Y-11499554D01*
X-8081607Y-11502016D01*
X-8091630Y-11503503D01*
X-8101750Y-11504000D01*
X-8308250Y-11504000D01*
X-8318370Y-11503503D01*
X-8328393Y-11502016D01*
X-8338222Y-11499554D01*
X-8347762Y-11496141D01*
X-8356922Y-11491808D01*
X-8365613Y-11486599D01*
X-8373751Y-11480563D01*
X-8381259Y-11473759D01*
X-8388063Y-11466251D01*
X-8394099Y-11458113D01*
X-8399308Y-11449422D01*
X-8403641Y-11440262D01*
X-8407054Y-11430722D01*
X-8409516Y-11420893D01*
X-8411003Y-11410870D01*
X-8411500Y-11400750D01*
X-8411500Y-11159250D01*
X-8411003Y-11149130D01*
X-8409516Y-11139107D01*
X-8407054Y-11129278D01*
X-8403641Y-11119738D01*
X-8399308Y-11110578D01*
X-8394099Y-11101887D01*
X-8388063Y-11093749D01*
X-8381259Y-11086241D01*
X-8373751Y-11079437D01*
X-8365613Y-11073401D01*
X-8356922Y-11068192D01*
X-8347762Y-11063859D01*
X-8338222Y-11060446D01*
X-8328393Y-11057984D01*
X-8318370Y-11056497D01*
X-8308250Y-11056000D01*
X-8101750Y-11056000D01*
X-8091630Y-11056497D01*
X-8091630Y-11056497D01*
G37*
D11*
X-8205000Y-11280000D03*
G04 #@! TD*
D10*
G04 #@! TO.C,R102*
G36*
X-12542130Y-5508997D02*
X-12532107Y-5510484D01*
X-12522278Y-5512946D01*
X-12512738Y-5516359D01*
X-12503578Y-5520692D01*
X-12494887Y-5525901D01*
X-12486749Y-5531937D01*
X-12479241Y-5538741D01*
X-12472437Y-5546249D01*
X-12466401Y-5554387D01*
X-12461192Y-5563078D01*
X-12456859Y-5572238D01*
X-12453446Y-5581778D01*
X-12450984Y-5591607D01*
X-12449497Y-5601630D01*
X-12449000Y-5611750D01*
X-12449000Y-5818250D01*
X-12449497Y-5828370D01*
X-12450984Y-5838393D01*
X-12453446Y-5848222D01*
X-12456859Y-5857762D01*
X-12461192Y-5866922D01*
X-12466401Y-5875613D01*
X-12472437Y-5883751D01*
X-12479241Y-5891259D01*
X-12486749Y-5898063D01*
X-12494887Y-5904099D01*
X-12503578Y-5909308D01*
X-12512738Y-5913641D01*
X-12522278Y-5917054D01*
X-12532107Y-5919516D01*
X-12542130Y-5921003D01*
X-12552250Y-5921500D01*
X-12793750Y-5921500D01*
X-12803870Y-5921003D01*
X-12813893Y-5919516D01*
X-12823722Y-5917054D01*
X-12833262Y-5913641D01*
X-12842422Y-5909308D01*
X-12851113Y-5904099D01*
X-12859251Y-5898063D01*
X-12866759Y-5891259D01*
X-12873563Y-5883751D01*
X-12879599Y-5875613D01*
X-12884808Y-5866922D01*
X-12889141Y-5857762D01*
X-12892554Y-5848222D01*
X-12895016Y-5838393D01*
X-12896503Y-5828370D01*
X-12897000Y-5818250D01*
X-12897000Y-5611750D01*
X-12896503Y-5601630D01*
X-12895016Y-5591607D01*
X-12892554Y-5581778D01*
X-12889141Y-5572238D01*
X-12884808Y-5563078D01*
X-12879599Y-5554387D01*
X-12873563Y-5546249D01*
X-12866759Y-5538741D01*
X-12859251Y-5531937D01*
X-12851113Y-5525901D01*
X-12842422Y-5520692D01*
X-12833262Y-5516359D01*
X-12823722Y-5512946D01*
X-12813893Y-5510484D01*
X-12803870Y-5508997D01*
X-12793750Y-5508500D01*
X-12552250Y-5508500D01*
X-12542130Y-5508997D01*
X-12542130Y-5508997D01*
G37*
D11*
X-12673000Y-5715000D03*
D10*
G36*
X-12542130Y-6478997D02*
X-12532107Y-6480484D01*
X-12522278Y-6482946D01*
X-12512738Y-6486359D01*
X-12503578Y-6490692D01*
X-12494887Y-6495901D01*
X-12486749Y-6501937D01*
X-12479241Y-6508741D01*
X-12472437Y-6516249D01*
X-12466401Y-6524387D01*
X-12461192Y-6533078D01*
X-12456859Y-6542238D01*
X-12453446Y-6551778D01*
X-12450984Y-6561607D01*
X-12449497Y-6571630D01*
X-12449000Y-6581750D01*
X-12449000Y-6788250D01*
X-12449497Y-6798370D01*
X-12450984Y-6808393D01*
X-12453446Y-6818222D01*
X-12456859Y-6827762D01*
X-12461192Y-6836922D01*
X-12466401Y-6845613D01*
X-12472437Y-6853751D01*
X-12479241Y-6861259D01*
X-12486749Y-6868063D01*
X-12494887Y-6874099D01*
X-12503578Y-6879308D01*
X-12512738Y-6883641D01*
X-12522278Y-6887054D01*
X-12532107Y-6889516D01*
X-12542130Y-6891003D01*
X-12552250Y-6891500D01*
X-12793750Y-6891500D01*
X-12803870Y-6891003D01*
X-12813893Y-6889516D01*
X-12823722Y-6887054D01*
X-12833262Y-6883641D01*
X-12842422Y-6879308D01*
X-12851113Y-6874099D01*
X-12859251Y-6868063D01*
X-12866759Y-6861259D01*
X-12873563Y-6853751D01*
X-12879599Y-6845613D01*
X-12884808Y-6836922D01*
X-12889141Y-6827762D01*
X-12892554Y-6818222D01*
X-12895016Y-6808393D01*
X-12896503Y-6798370D01*
X-12897000Y-6788250D01*
X-12897000Y-6581750D01*
X-12896503Y-6571630D01*
X-12895016Y-6561607D01*
X-12892554Y-6551778D01*
X-12889141Y-6542238D01*
X-12884808Y-6533078D01*
X-12879599Y-6524387D01*
X-12873563Y-6516249D01*
X-12866759Y-6508741D01*
X-12859251Y-6501937D01*
X-12851113Y-6495901D01*
X-12842422Y-6490692D01*
X-12833262Y-6486359D01*
X-12823722Y-6482946D01*
X-12813893Y-6480484D01*
X-12803870Y-6478997D01*
X-12793750Y-6478500D01*
X-12552250Y-6478500D01*
X-12542130Y-6478997D01*
X-12542130Y-6478997D01*
G37*
D11*
X-12673000Y-6685000D03*
G04 #@! TD*
D10*
G04 #@! TO.C,R103*
G36*
X-13558130Y-5508997D02*
X-13548107Y-5510484D01*
X-13538278Y-5512946D01*
X-13528738Y-5516359D01*
X-13519578Y-5520692D01*
X-13510887Y-5525901D01*
X-13502749Y-5531937D01*
X-13495241Y-5538741D01*
X-13488437Y-5546249D01*
X-13482401Y-5554387D01*
X-13477192Y-5563078D01*
X-13472859Y-5572238D01*
X-13469446Y-5581778D01*
X-13466984Y-5591607D01*
X-13465497Y-5601630D01*
X-13465000Y-5611750D01*
X-13465000Y-5818250D01*
X-13465497Y-5828370D01*
X-13466984Y-5838393D01*
X-13469446Y-5848222D01*
X-13472859Y-5857762D01*
X-13477192Y-5866922D01*
X-13482401Y-5875613D01*
X-13488437Y-5883751D01*
X-13495241Y-5891259D01*
X-13502749Y-5898063D01*
X-13510887Y-5904099D01*
X-13519578Y-5909308D01*
X-13528738Y-5913641D01*
X-13538278Y-5917054D01*
X-13548107Y-5919516D01*
X-13558130Y-5921003D01*
X-13568250Y-5921500D01*
X-13809750Y-5921500D01*
X-13819870Y-5921003D01*
X-13829893Y-5919516D01*
X-13839722Y-5917054D01*
X-13849262Y-5913641D01*
X-13858422Y-5909308D01*
X-13867113Y-5904099D01*
X-13875251Y-5898063D01*
X-13882759Y-5891259D01*
X-13889563Y-5883751D01*
X-13895599Y-5875613D01*
X-13900808Y-5866922D01*
X-13905141Y-5857762D01*
X-13908554Y-5848222D01*
X-13911016Y-5838393D01*
X-13912503Y-5828370D01*
X-13913000Y-5818250D01*
X-13913000Y-5611750D01*
X-13912503Y-5601630D01*
X-13911016Y-5591607D01*
X-13908554Y-5581778D01*
X-13905141Y-5572238D01*
X-13900808Y-5563078D01*
X-13895599Y-5554387D01*
X-13889563Y-5546249D01*
X-13882759Y-5538741D01*
X-13875251Y-5531937D01*
X-13867113Y-5525901D01*
X-13858422Y-5520692D01*
X-13849262Y-5516359D01*
X-13839722Y-5512946D01*
X-13829893Y-5510484D01*
X-13819870Y-5508997D01*
X-13809750Y-5508500D01*
X-13568250Y-5508500D01*
X-13558130Y-5508997D01*
X-13558130Y-5508997D01*
G37*
D11*
X-13689000Y-5715000D03*
D10*
G36*
X-13558130Y-6478997D02*
X-13548107Y-6480484D01*
X-13538278Y-6482946D01*
X-13528738Y-6486359D01*
X-13519578Y-6490692D01*
X-13510887Y-6495901D01*
X-13502749Y-6501937D01*
X-13495241Y-6508741D01*
X-13488437Y-6516249D01*
X-13482401Y-6524387D01*
X-13477192Y-6533078D01*
X-13472859Y-6542238D01*
X-13469446Y-6551778D01*
X-13466984Y-6561607D01*
X-13465497Y-6571630D01*
X-13465000Y-6581750D01*
X-13465000Y-6788250D01*
X-13465497Y-6798370D01*
X-13466984Y-6808393D01*
X-13469446Y-6818222D01*
X-13472859Y-6827762D01*
X-13477192Y-6836922D01*
X-13482401Y-6845613D01*
X-13488437Y-6853751D01*
X-13495241Y-6861259D01*
X-13502749Y-6868063D01*
X-13510887Y-6874099D01*
X-13519578Y-6879308D01*
X-13528738Y-6883641D01*
X-13538278Y-6887054D01*
X-13548107Y-6889516D01*
X-13558130Y-6891003D01*
X-13568250Y-6891500D01*
X-13809750Y-6891500D01*
X-13819870Y-6891003D01*
X-13829893Y-6889516D01*
X-13839722Y-6887054D01*
X-13849262Y-6883641D01*
X-13858422Y-6879308D01*
X-13867113Y-6874099D01*
X-13875251Y-6868063D01*
X-13882759Y-6861259D01*
X-13889563Y-6853751D01*
X-13895599Y-6845613D01*
X-13900808Y-6836922D01*
X-13905141Y-6827762D01*
X-13908554Y-6818222D01*
X-13911016Y-6808393D01*
X-13912503Y-6798370D01*
X-13913000Y-6788250D01*
X-13913000Y-6581750D01*
X-13912503Y-6571630D01*
X-13911016Y-6561607D01*
X-13908554Y-6551778D01*
X-13905141Y-6542238D01*
X-13900808Y-6533078D01*
X-13895599Y-6524387D01*
X-13889563Y-6516249D01*
X-13882759Y-6508741D01*
X-13875251Y-6501937D01*
X-13867113Y-6495901D01*
X-13858422Y-6490692D01*
X-13849262Y-6486359D01*
X-13839722Y-6482946D01*
X-13829893Y-6480484D01*
X-13819870Y-6478997D01*
X-13809750Y-6478500D01*
X-13568250Y-6478500D01*
X-13558130Y-6478997D01*
X-13558130Y-6478997D01*
G37*
D11*
X-13689000Y-6685000D03*
G04 #@! TD*
D10*
G04 #@! TO.C,R104*
G36*
X-14574130Y-5508997D02*
X-14564107Y-5510484D01*
X-14554278Y-5512946D01*
X-14544738Y-5516359D01*
X-14535578Y-5520692D01*
X-14526887Y-5525901D01*
X-14518749Y-5531937D01*
X-14511241Y-5538741D01*
X-14504437Y-5546249D01*
X-14498401Y-5554387D01*
X-14493192Y-5563078D01*
X-14488859Y-5572238D01*
X-14485446Y-5581778D01*
X-14482984Y-5591607D01*
X-14481497Y-5601630D01*
X-14481000Y-5611750D01*
X-14481000Y-5818250D01*
X-14481497Y-5828370D01*
X-14482984Y-5838393D01*
X-14485446Y-5848222D01*
X-14488859Y-5857762D01*
X-14493192Y-5866922D01*
X-14498401Y-5875613D01*
X-14504437Y-5883751D01*
X-14511241Y-5891259D01*
X-14518749Y-5898063D01*
X-14526887Y-5904099D01*
X-14535578Y-5909308D01*
X-14544738Y-5913641D01*
X-14554278Y-5917054D01*
X-14564107Y-5919516D01*
X-14574130Y-5921003D01*
X-14584250Y-5921500D01*
X-14825750Y-5921500D01*
X-14835870Y-5921003D01*
X-14845893Y-5919516D01*
X-14855722Y-5917054D01*
X-14865262Y-5913641D01*
X-14874422Y-5909308D01*
X-14883113Y-5904099D01*
X-14891251Y-5898063D01*
X-14898759Y-5891259D01*
X-14905563Y-5883751D01*
X-14911599Y-5875613D01*
X-14916808Y-5866922D01*
X-14921141Y-5857762D01*
X-14924554Y-5848222D01*
X-14927016Y-5838393D01*
X-14928503Y-5828370D01*
X-14929000Y-5818250D01*
X-14929000Y-5611750D01*
X-14928503Y-5601630D01*
X-14927016Y-5591607D01*
X-14924554Y-5581778D01*
X-14921141Y-5572238D01*
X-14916808Y-5563078D01*
X-14911599Y-5554387D01*
X-14905563Y-5546249D01*
X-14898759Y-5538741D01*
X-14891251Y-5531937D01*
X-14883113Y-5525901D01*
X-14874422Y-5520692D01*
X-14865262Y-5516359D01*
X-14855722Y-5512946D01*
X-14845893Y-5510484D01*
X-14835870Y-5508997D01*
X-14825750Y-5508500D01*
X-14584250Y-5508500D01*
X-14574130Y-5508997D01*
X-14574130Y-5508997D01*
G37*
D11*
X-14705000Y-5715000D03*
D10*
G36*
X-14574130Y-6478997D02*
X-14564107Y-6480484D01*
X-14554278Y-6482946D01*
X-14544738Y-6486359D01*
X-14535578Y-6490692D01*
X-14526887Y-6495901D01*
X-14518749Y-6501937D01*
X-14511241Y-6508741D01*
X-14504437Y-6516249D01*
X-14498401Y-6524387D01*
X-14493192Y-6533078D01*
X-14488859Y-6542238D01*
X-14485446Y-6551778D01*
X-14482984Y-6561607D01*
X-14481497Y-6571630D01*
X-14481000Y-6581750D01*
X-14481000Y-6788250D01*
X-14481497Y-6798370D01*
X-14482984Y-6808393D01*
X-14485446Y-6818222D01*
X-14488859Y-6827762D01*
X-14493192Y-6836922D01*
X-14498401Y-6845613D01*
X-14504437Y-6853751D01*
X-14511241Y-6861259D01*
X-14518749Y-6868063D01*
X-14526887Y-6874099D01*
X-14535578Y-6879308D01*
X-14544738Y-6883641D01*
X-14554278Y-6887054D01*
X-14564107Y-6889516D01*
X-14574130Y-6891003D01*
X-14584250Y-6891500D01*
X-14825750Y-6891500D01*
X-14835870Y-6891003D01*
X-14845893Y-6889516D01*
X-14855722Y-6887054D01*
X-14865262Y-6883641D01*
X-14874422Y-6879308D01*
X-14883113Y-6874099D01*
X-14891251Y-6868063D01*
X-14898759Y-6861259D01*
X-14905563Y-6853751D01*
X-14911599Y-6845613D01*
X-14916808Y-6836922D01*
X-14921141Y-6827762D01*
X-14924554Y-6818222D01*
X-14927016Y-6808393D01*
X-14928503Y-6798370D01*
X-14929000Y-6788250D01*
X-14929000Y-6581750D01*
X-14928503Y-6571630D01*
X-14927016Y-6561607D01*
X-14924554Y-6551778D01*
X-14921141Y-6542238D01*
X-14916808Y-6533078D01*
X-14911599Y-6524387D01*
X-14905563Y-6516249D01*
X-14898759Y-6508741D01*
X-14891251Y-6501937D01*
X-14883113Y-6495901D01*
X-14874422Y-6490692D01*
X-14865262Y-6486359D01*
X-14855722Y-6482946D01*
X-14845893Y-6480484D01*
X-14835870Y-6478997D01*
X-14825750Y-6478500D01*
X-14584250Y-6478500D01*
X-14574130Y-6478997D01*
X-14574130Y-6478997D01*
G37*
D11*
X-14705000Y-6685000D03*
G04 #@! TD*
D10*
G04 #@! TO.C,R105*
G36*
X-8091630Y-6992497D02*
X-8081607Y-6993984D01*
X-8071778Y-6996446D01*
X-8062238Y-6999859D01*
X-8053078Y-7004192D01*
X-8044387Y-7009401D01*
X-8036249Y-7015437D01*
X-8028741Y-7022241D01*
X-8021937Y-7029749D01*
X-8015901Y-7037887D01*
X-8010692Y-7046578D01*
X-8006359Y-7055738D01*
X-8002946Y-7065278D01*
X-8000484Y-7075107D01*
X-7998997Y-7085130D01*
X-7998500Y-7095250D01*
X-7998500Y-7336750D01*
X-7998997Y-7346870D01*
X-8000484Y-7356893D01*
X-8002946Y-7366722D01*
X-8006359Y-7376262D01*
X-8010692Y-7385422D01*
X-8015901Y-7394113D01*
X-8021937Y-7402251D01*
X-8028741Y-7409759D01*
X-8036249Y-7416563D01*
X-8044387Y-7422599D01*
X-8053078Y-7427808D01*
X-8062238Y-7432141D01*
X-8071778Y-7435554D01*
X-8081607Y-7438016D01*
X-8091630Y-7439503D01*
X-8101750Y-7440000D01*
X-8308250Y-7440000D01*
X-8318370Y-7439503D01*
X-8328393Y-7438016D01*
X-8338222Y-7435554D01*
X-8347762Y-7432141D01*
X-8356922Y-7427808D01*
X-8365613Y-7422599D01*
X-8373751Y-7416563D01*
X-8381259Y-7409759D01*
X-8388063Y-7402251D01*
X-8394099Y-7394113D01*
X-8399308Y-7385422D01*
X-8403641Y-7376262D01*
X-8407054Y-7366722D01*
X-8409516Y-7356893D01*
X-8411003Y-7346870D01*
X-8411500Y-7336750D01*
X-8411500Y-7095250D01*
X-8411003Y-7085130D01*
X-8409516Y-7075107D01*
X-8407054Y-7065278D01*
X-8403641Y-7055738D01*
X-8399308Y-7046578D01*
X-8394099Y-7037887D01*
X-8388063Y-7029749D01*
X-8381259Y-7022241D01*
X-8373751Y-7015437D01*
X-8365613Y-7009401D01*
X-8356922Y-7004192D01*
X-8347762Y-6999859D01*
X-8338222Y-6996446D01*
X-8328393Y-6993984D01*
X-8318370Y-6992497D01*
X-8308250Y-6992000D01*
X-8101750Y-6992000D01*
X-8091630Y-6992497D01*
X-8091630Y-6992497D01*
G37*
D11*
X-8205000Y-7216000D03*
D10*
G36*
X-7121630Y-6992497D02*
X-7111607Y-6993984D01*
X-7101778Y-6996446D01*
X-7092238Y-6999859D01*
X-7083078Y-7004192D01*
X-7074387Y-7009401D01*
X-7066249Y-7015437D01*
X-7058741Y-7022241D01*
X-7051937Y-7029749D01*
X-7045901Y-7037887D01*
X-7040692Y-7046578D01*
X-7036359Y-7055738D01*
X-7032946Y-7065278D01*
X-7030484Y-7075107D01*
X-7028997Y-7085130D01*
X-7028500Y-7095250D01*
X-7028500Y-7336750D01*
X-7028997Y-7346870D01*
X-7030484Y-7356893D01*
X-7032946Y-7366722D01*
X-7036359Y-7376262D01*
X-7040692Y-7385422D01*
X-7045901Y-7394113D01*
X-7051937Y-7402251D01*
X-7058741Y-7409759D01*
X-7066249Y-7416563D01*
X-7074387Y-7422599D01*
X-7083078Y-7427808D01*
X-7092238Y-7432141D01*
X-7101778Y-7435554D01*
X-7111607Y-7438016D01*
X-7121630Y-7439503D01*
X-7131750Y-7440000D01*
X-7338250Y-7440000D01*
X-7348370Y-7439503D01*
X-7358393Y-7438016D01*
X-7368222Y-7435554D01*
X-7377762Y-7432141D01*
X-7386922Y-7427808D01*
X-7395613Y-7422599D01*
X-7403751Y-7416563D01*
X-7411259Y-7409759D01*
X-7418063Y-7402251D01*
X-7424099Y-7394113D01*
X-7429308Y-7385422D01*
X-7433641Y-7376262D01*
X-7437054Y-7366722D01*
X-7439516Y-7356893D01*
X-7441003Y-7346870D01*
X-7441500Y-7336750D01*
X-7441500Y-7095250D01*
X-7441003Y-7085130D01*
X-7439516Y-7075107D01*
X-7437054Y-7065278D01*
X-7433641Y-7055738D01*
X-7429308Y-7046578D01*
X-7424099Y-7037887D01*
X-7418063Y-7029749D01*
X-7411259Y-7022241D01*
X-7403751Y-7015437D01*
X-7395613Y-7009401D01*
X-7386922Y-7004192D01*
X-7377762Y-6999859D01*
X-7368222Y-6996446D01*
X-7358393Y-6993984D01*
X-7348370Y-6992497D01*
X-7338250Y-6992000D01*
X-7131750Y-6992000D01*
X-7121630Y-6992497D01*
X-7121630Y-6992497D01*
G37*
D11*
X-7235000Y-7216000D03*
G04 #@! TD*
D10*
G04 #@! TO.C,R106*
G36*
X-8091630Y-5976497D02*
X-8081607Y-5977984D01*
X-8071778Y-5980446D01*
X-8062238Y-5983859D01*
X-8053078Y-5988192D01*
X-8044387Y-5993401D01*
X-8036249Y-5999437D01*
X-8028741Y-6006241D01*
X-8021937Y-6013749D01*
X-8015901Y-6021887D01*
X-8010692Y-6030578D01*
X-8006359Y-6039738D01*
X-8002946Y-6049278D01*
X-8000484Y-6059107D01*
X-7998997Y-6069130D01*
X-7998500Y-6079250D01*
X-7998500Y-6320750D01*
X-7998997Y-6330870D01*
X-8000484Y-6340893D01*
X-8002946Y-6350722D01*
X-8006359Y-6360262D01*
X-8010692Y-6369422D01*
X-8015901Y-6378113D01*
X-8021937Y-6386251D01*
X-8028741Y-6393759D01*
X-8036249Y-6400563D01*
X-8044387Y-6406599D01*
X-8053078Y-6411808D01*
X-8062238Y-6416141D01*
X-8071778Y-6419554D01*
X-8081607Y-6422016D01*
X-8091630Y-6423503D01*
X-8101750Y-6424000D01*
X-8308250Y-6424000D01*
X-8318370Y-6423503D01*
X-8328393Y-6422016D01*
X-8338222Y-6419554D01*
X-8347762Y-6416141D01*
X-8356922Y-6411808D01*
X-8365613Y-6406599D01*
X-8373751Y-6400563D01*
X-8381259Y-6393759D01*
X-8388063Y-6386251D01*
X-8394099Y-6378113D01*
X-8399308Y-6369422D01*
X-8403641Y-6360262D01*
X-8407054Y-6350722D01*
X-8409516Y-6340893D01*
X-8411003Y-6330870D01*
X-8411500Y-6320750D01*
X-8411500Y-6079250D01*
X-8411003Y-6069130D01*
X-8409516Y-6059107D01*
X-8407054Y-6049278D01*
X-8403641Y-6039738D01*
X-8399308Y-6030578D01*
X-8394099Y-6021887D01*
X-8388063Y-6013749D01*
X-8381259Y-6006241D01*
X-8373751Y-5999437D01*
X-8365613Y-5993401D01*
X-8356922Y-5988192D01*
X-8347762Y-5983859D01*
X-8338222Y-5980446D01*
X-8328393Y-5977984D01*
X-8318370Y-5976497D01*
X-8308250Y-5976000D01*
X-8101750Y-5976000D01*
X-8091630Y-5976497D01*
X-8091630Y-5976497D01*
G37*
D11*
X-8205000Y-6200000D03*
D10*
G36*
X-7121630Y-5976497D02*
X-7111607Y-5977984D01*
X-7101778Y-5980446D01*
X-7092238Y-5983859D01*
X-7083078Y-5988192D01*
X-7074387Y-5993401D01*
X-7066249Y-5999437D01*
X-7058741Y-6006241D01*
X-7051937Y-6013749D01*
X-7045901Y-6021887D01*
X-7040692Y-6030578D01*
X-7036359Y-6039738D01*
X-7032946Y-6049278D01*
X-7030484Y-6059107D01*
X-7028997Y-6069130D01*
X-7028500Y-6079250D01*
X-7028500Y-6320750D01*
X-7028997Y-6330870D01*
X-7030484Y-6340893D01*
X-7032946Y-6350722D01*
X-7036359Y-6360262D01*
X-7040692Y-6369422D01*
X-7045901Y-6378113D01*
X-7051937Y-6386251D01*
X-7058741Y-6393759D01*
X-7066249Y-6400563D01*
X-7074387Y-6406599D01*
X-7083078Y-6411808D01*
X-7092238Y-6416141D01*
X-7101778Y-6419554D01*
X-7111607Y-6422016D01*
X-7121630Y-6423503D01*
X-7131750Y-6424000D01*
X-7338250Y-6424000D01*
X-7348370Y-6423503D01*
X-7358393Y-6422016D01*
X-7368222Y-6419554D01*
X-7377762Y-6416141D01*
X-7386922Y-6411808D01*
X-7395613Y-6406599D01*
X-7403751Y-6400563D01*
X-7411259Y-6393759D01*
X-7418063Y-6386251D01*
X-7424099Y-6378113D01*
X-7429308Y-6369422D01*
X-7433641Y-6360262D01*
X-7437054Y-6350722D01*
X-7439516Y-6340893D01*
X-7441003Y-6330870D01*
X-7441500Y-6320750D01*
X-7441500Y-6079250D01*
X-7441003Y-6069130D01*
X-7439516Y-6059107D01*
X-7437054Y-6049278D01*
X-7433641Y-6039738D01*
X-7429308Y-6030578D01*
X-7424099Y-6021887D01*
X-7418063Y-6013749D01*
X-7411259Y-6006241D01*
X-7403751Y-5999437D01*
X-7395613Y-5993401D01*
X-7386922Y-5988192D01*
X-7377762Y-5983859D01*
X-7368222Y-5980446D01*
X-7358393Y-5977984D01*
X-7348370Y-5976497D01*
X-7338250Y-5976000D01*
X-7131750Y-5976000D01*
X-7121630Y-5976497D01*
X-7121630Y-5976497D01*
G37*
D11*
X-7235000Y-6200000D03*
G04 #@! TD*
D10*
G04 #@! TO.C,R107*
G36*
X-8091630Y-4960497D02*
X-8081607Y-4961984D01*
X-8071778Y-4964446D01*
X-8062238Y-4967859D01*
X-8053078Y-4972192D01*
X-8044387Y-4977401D01*
X-8036249Y-4983437D01*
X-8028741Y-4990241D01*
X-8021937Y-4997749D01*
X-8015901Y-5005887D01*
X-8010692Y-5014578D01*
X-8006359Y-5023738D01*
X-8002946Y-5033278D01*
X-8000484Y-5043107D01*
X-7998997Y-5053130D01*
X-7998500Y-5063250D01*
X-7998500Y-5304750D01*
X-7998997Y-5314870D01*
X-8000484Y-5324893D01*
X-8002946Y-5334722D01*
X-8006359Y-5344262D01*
X-8010692Y-5353422D01*
X-8015901Y-5362113D01*
X-8021937Y-5370251D01*
X-8028741Y-5377759D01*
X-8036249Y-5384563D01*
X-8044387Y-5390599D01*
X-8053078Y-5395808D01*
X-8062238Y-5400141D01*
X-8071778Y-5403554D01*
X-8081607Y-5406016D01*
X-8091630Y-5407503D01*
X-8101750Y-5408000D01*
X-8308250Y-5408000D01*
X-8318370Y-5407503D01*
X-8328393Y-5406016D01*
X-8338222Y-5403554D01*
X-8347762Y-5400141D01*
X-8356922Y-5395808D01*
X-8365613Y-5390599D01*
X-8373751Y-5384563D01*
X-8381259Y-5377759D01*
X-8388063Y-5370251D01*
X-8394099Y-5362113D01*
X-8399308Y-5353422D01*
X-8403641Y-5344262D01*
X-8407054Y-5334722D01*
X-8409516Y-5324893D01*
X-8411003Y-5314870D01*
X-8411500Y-5304750D01*
X-8411500Y-5063250D01*
X-8411003Y-5053130D01*
X-8409516Y-5043107D01*
X-8407054Y-5033278D01*
X-8403641Y-5023738D01*
X-8399308Y-5014578D01*
X-8394099Y-5005887D01*
X-8388063Y-4997749D01*
X-8381259Y-4990241D01*
X-8373751Y-4983437D01*
X-8365613Y-4977401D01*
X-8356922Y-4972192D01*
X-8347762Y-4967859D01*
X-8338222Y-4964446D01*
X-8328393Y-4961984D01*
X-8318370Y-4960497D01*
X-8308250Y-4960000D01*
X-8101750Y-4960000D01*
X-8091630Y-4960497D01*
X-8091630Y-4960497D01*
G37*
D11*
X-8205000Y-5184000D03*
D10*
G36*
X-7121630Y-4960497D02*
X-7111607Y-4961984D01*
X-7101778Y-4964446D01*
X-7092238Y-4967859D01*
X-7083078Y-4972192D01*
X-7074387Y-4977401D01*
X-7066249Y-4983437D01*
X-7058741Y-4990241D01*
X-7051937Y-4997749D01*
X-7045901Y-5005887D01*
X-7040692Y-5014578D01*
X-7036359Y-5023738D01*
X-7032946Y-5033278D01*
X-7030484Y-5043107D01*
X-7028997Y-5053130D01*
X-7028500Y-5063250D01*
X-7028500Y-5304750D01*
X-7028997Y-5314870D01*
X-7030484Y-5324893D01*
X-7032946Y-5334722D01*
X-7036359Y-5344262D01*
X-7040692Y-5353422D01*
X-7045901Y-5362113D01*
X-7051937Y-5370251D01*
X-7058741Y-5377759D01*
X-7066249Y-5384563D01*
X-7074387Y-5390599D01*
X-7083078Y-5395808D01*
X-7092238Y-5400141D01*
X-7101778Y-5403554D01*
X-7111607Y-5406016D01*
X-7121630Y-5407503D01*
X-7131750Y-5408000D01*
X-7338250Y-5408000D01*
X-7348370Y-5407503D01*
X-7358393Y-5406016D01*
X-7368222Y-5403554D01*
X-7377762Y-5400141D01*
X-7386922Y-5395808D01*
X-7395613Y-5390599D01*
X-7403751Y-5384563D01*
X-7411259Y-5377759D01*
X-7418063Y-5370251D01*
X-7424099Y-5362113D01*
X-7429308Y-5353422D01*
X-7433641Y-5344262D01*
X-7437054Y-5334722D01*
X-7439516Y-5324893D01*
X-7441003Y-5314870D01*
X-7441500Y-5304750D01*
X-7441500Y-5063250D01*
X-7441003Y-5053130D01*
X-7439516Y-5043107D01*
X-7437054Y-5033278D01*
X-7433641Y-5023738D01*
X-7429308Y-5014578D01*
X-7424099Y-5005887D01*
X-7418063Y-4997749D01*
X-7411259Y-4990241D01*
X-7403751Y-4983437D01*
X-7395613Y-4977401D01*
X-7386922Y-4972192D01*
X-7377762Y-4967859D01*
X-7368222Y-4964446D01*
X-7358393Y-4961984D01*
X-7348370Y-4960497D01*
X-7338250Y-4960000D01*
X-7131750Y-4960000D01*
X-7121630Y-4960497D01*
X-7121630Y-4960497D01*
G37*
D11*
X-7235000Y-5184000D03*
G04 #@! TD*
D10*
G04 #@! TO.C,R301*
G36*
X14999370Y7358503D02*
X15009393Y7357016D01*
X15019222Y7354554D01*
X15028762Y7351141D01*
X15037922Y7346808D01*
X15046613Y7341599D01*
X15054751Y7335563D01*
X15062259Y7328759D01*
X15069063Y7321251D01*
X15075099Y7313113D01*
X15080308Y7304422D01*
X15084641Y7295262D01*
X15088054Y7285722D01*
X15090516Y7275893D01*
X15092003Y7265870D01*
X15092500Y7255750D01*
X15092500Y7014250D01*
X15092003Y7004130D01*
X15090516Y6994107D01*
X15088054Y6984278D01*
X15084641Y6974738D01*
X15080308Y6965578D01*
X15075099Y6956887D01*
X15069063Y6948749D01*
X15062259Y6941241D01*
X15054751Y6934437D01*
X15046613Y6928401D01*
X15037922Y6923192D01*
X15028762Y6918859D01*
X15019222Y6915446D01*
X15009393Y6912984D01*
X14999370Y6911497D01*
X14989250Y6911000D01*
X14782750Y6911000D01*
X14772630Y6911497D01*
X14762607Y6912984D01*
X14752778Y6915446D01*
X14743238Y6918859D01*
X14734078Y6923192D01*
X14725387Y6928401D01*
X14717249Y6934437D01*
X14709741Y6941241D01*
X14702937Y6948749D01*
X14696901Y6956887D01*
X14691692Y6965578D01*
X14687359Y6974738D01*
X14683946Y6984278D01*
X14681484Y6994107D01*
X14679997Y7004130D01*
X14679500Y7014250D01*
X14679500Y7255750D01*
X14679997Y7265870D01*
X14681484Y7275893D01*
X14683946Y7285722D01*
X14687359Y7295262D01*
X14691692Y7304422D01*
X14696901Y7313113D01*
X14702937Y7321251D01*
X14709741Y7328759D01*
X14717249Y7335563D01*
X14725387Y7341599D01*
X14734078Y7346808D01*
X14743238Y7351141D01*
X14752778Y7354554D01*
X14762607Y7357016D01*
X14772630Y7358503D01*
X14782750Y7359000D01*
X14989250Y7359000D01*
X14999370Y7358503D01*
X14999370Y7358503D01*
G37*
D11*
X14886000Y7135000D03*
D10*
G36*
X14029370Y7358503D02*
X14039393Y7357016D01*
X14049222Y7354554D01*
X14058762Y7351141D01*
X14067922Y7346808D01*
X14076613Y7341599D01*
X14084751Y7335563D01*
X14092259Y7328759D01*
X14099063Y7321251D01*
X14105099Y7313113D01*
X14110308Y7304422D01*
X14114641Y7295262D01*
X14118054Y7285722D01*
X14120516Y7275893D01*
X14122003Y7265870D01*
X14122500Y7255750D01*
X14122500Y7014250D01*
X14122003Y7004130D01*
X14120516Y6994107D01*
X14118054Y6984278D01*
X14114641Y6974738D01*
X14110308Y6965578D01*
X14105099Y6956887D01*
X14099063Y6948749D01*
X14092259Y6941241D01*
X14084751Y6934437D01*
X14076613Y6928401D01*
X14067922Y6923192D01*
X14058762Y6918859D01*
X14049222Y6915446D01*
X14039393Y6912984D01*
X14029370Y6911497D01*
X14019250Y6911000D01*
X13812750Y6911000D01*
X13802630Y6911497D01*
X13792607Y6912984D01*
X13782778Y6915446D01*
X13773238Y6918859D01*
X13764078Y6923192D01*
X13755387Y6928401D01*
X13747249Y6934437D01*
X13739741Y6941241D01*
X13732937Y6948749D01*
X13726901Y6956887D01*
X13721692Y6965578D01*
X13717359Y6974738D01*
X13713946Y6984278D01*
X13711484Y6994107D01*
X13709997Y7004130D01*
X13709500Y7014250D01*
X13709500Y7255750D01*
X13709997Y7265870D01*
X13711484Y7275893D01*
X13713946Y7285722D01*
X13717359Y7295262D01*
X13721692Y7304422D01*
X13726901Y7313113D01*
X13732937Y7321251D01*
X13739741Y7328759D01*
X13747249Y7335563D01*
X13755387Y7341599D01*
X13764078Y7346808D01*
X13773238Y7351141D01*
X13782778Y7354554D01*
X13792607Y7357016D01*
X13802630Y7358503D01*
X13812750Y7359000D01*
X14019250Y7359000D01*
X14029370Y7358503D01*
X14029370Y7358503D01*
G37*
D11*
X13916000Y7135000D03*
G04 #@! TD*
D10*
G04 #@! TO.C,R302*
G36*
X32621099Y4632928D02*
X32637662Y4630471D01*
X32653905Y4626403D01*
X32669670Y4620762D01*
X32684807Y4613603D01*
X32699169Y4604995D01*
X32712618Y4595020D01*
X32725025Y4583775D01*
X32736270Y4571368D01*
X32746245Y4557919D01*
X32754853Y4543557D01*
X32762012Y4528420D01*
X32767653Y4512655D01*
X32771721Y4496412D01*
X32774178Y4479849D01*
X32775000Y4463125D01*
X32775000Y4121875D01*
X32774178Y4105151D01*
X32771721Y4088588D01*
X32767653Y4072345D01*
X32762012Y4056580D01*
X32754853Y4041443D01*
X32746245Y4027081D01*
X32736270Y4013632D01*
X32725025Y4001225D01*
X32712618Y3989980D01*
X32699169Y3980005D01*
X32684807Y3971397D01*
X32669670Y3964238D01*
X32653905Y3958597D01*
X32637662Y3954529D01*
X32621099Y3952072D01*
X32604375Y3951250D01*
X31965625Y3951250D01*
X31948901Y3952072D01*
X31932338Y3954529D01*
X31916095Y3958597D01*
X31900330Y3964238D01*
X31885193Y3971397D01*
X31870831Y3980005D01*
X31857382Y3989980D01*
X31844975Y4001225D01*
X31833730Y4013632D01*
X31823755Y4027081D01*
X31815147Y4041443D01*
X31807988Y4056580D01*
X31802347Y4072345D01*
X31798279Y4088588D01*
X31795822Y4105151D01*
X31795000Y4121875D01*
X31795000Y4463125D01*
X31795822Y4479849D01*
X31798279Y4496412D01*
X31802347Y4512655D01*
X31807988Y4528420D01*
X31815147Y4543557D01*
X31823755Y4557919D01*
X31833730Y4571368D01*
X31844975Y4583775D01*
X31857382Y4595020D01*
X31870831Y4604995D01*
X31885193Y4613603D01*
X31900330Y4620762D01*
X31916095Y4626403D01*
X31932338Y4630471D01*
X31948901Y4632928D01*
X31965625Y4633750D01*
X32604375Y4633750D01*
X32621099Y4632928D01*
X32621099Y4632928D01*
G37*
D15*
X32285000Y4292500D03*
D10*
G36*
X32621099Y6507928D02*
X32637662Y6505471D01*
X32653905Y6501403D01*
X32669670Y6495762D01*
X32684807Y6488603D01*
X32699169Y6479995D01*
X32712618Y6470020D01*
X32725025Y6458775D01*
X32736270Y6446368D01*
X32746245Y6432919D01*
X32754853Y6418557D01*
X32762012Y6403420D01*
X32767653Y6387655D01*
X32771721Y6371412D01*
X32774178Y6354849D01*
X32775000Y6338125D01*
X32775000Y5996875D01*
X32774178Y5980151D01*
X32771721Y5963588D01*
X32767653Y5947345D01*
X32762012Y5931580D01*
X32754853Y5916443D01*
X32746245Y5902081D01*
X32736270Y5888632D01*
X32725025Y5876225D01*
X32712618Y5864980D01*
X32699169Y5855005D01*
X32684807Y5846397D01*
X32669670Y5839238D01*
X32653905Y5833597D01*
X32637662Y5829529D01*
X32621099Y5827072D01*
X32604375Y5826250D01*
X31965625Y5826250D01*
X31948901Y5827072D01*
X31932338Y5829529D01*
X31916095Y5833597D01*
X31900330Y5839238D01*
X31885193Y5846397D01*
X31870831Y5855005D01*
X31857382Y5864980D01*
X31844975Y5876225D01*
X31833730Y5888632D01*
X31823755Y5902081D01*
X31815147Y5916443D01*
X31807988Y5931580D01*
X31802347Y5947345D01*
X31798279Y5963588D01*
X31795822Y5980151D01*
X31795000Y5996875D01*
X31795000Y6338125D01*
X31795822Y6354849D01*
X31798279Y6371412D01*
X31802347Y6387655D01*
X31807988Y6403420D01*
X31815147Y6418557D01*
X31823755Y6432919D01*
X31833730Y6446368D01*
X31844975Y6458775D01*
X31857382Y6470020D01*
X31870831Y6479995D01*
X31885193Y6488603D01*
X31900330Y6495762D01*
X31916095Y6501403D01*
X31932338Y6505471D01*
X31948901Y6507928D01*
X31965625Y6508750D01*
X32604375Y6508750D01*
X32621099Y6507928D01*
X32621099Y6507928D01*
G37*
D15*
X32285000Y6167500D03*
G04 #@! TD*
D10*
G04 #@! TO.C,R303*
G36*
X32621099Y157928D02*
X32637662Y155471D01*
X32653905Y151403D01*
X32669670Y145762D01*
X32684807Y138603D01*
X32699169Y129995D01*
X32712618Y120020D01*
X32725025Y108775D01*
X32736270Y96368D01*
X32746245Y82919D01*
X32754853Y68557D01*
X32762012Y53420D01*
X32767653Y37655D01*
X32771721Y21412D01*
X32774178Y4849D01*
X32775000Y-11875D01*
X32775000Y-353125D01*
X32774178Y-369849D01*
X32771721Y-386412D01*
X32767653Y-402655D01*
X32762012Y-418420D01*
X32754853Y-433557D01*
X32746245Y-447919D01*
X32736270Y-461368D01*
X32725025Y-473775D01*
X32712618Y-485020D01*
X32699169Y-494995D01*
X32684807Y-503603D01*
X32669670Y-510762D01*
X32653905Y-516403D01*
X32637662Y-520471D01*
X32621099Y-522928D01*
X32604375Y-523750D01*
X31965625Y-523750D01*
X31948901Y-522928D01*
X31932338Y-520471D01*
X31916095Y-516403D01*
X31900330Y-510762D01*
X31885193Y-503603D01*
X31870831Y-494995D01*
X31857382Y-485020D01*
X31844975Y-473775D01*
X31833730Y-461368D01*
X31823755Y-447919D01*
X31815147Y-433557D01*
X31807988Y-418420D01*
X31802347Y-402655D01*
X31798279Y-386412D01*
X31795822Y-369849D01*
X31795000Y-353125D01*
X31795000Y-11875D01*
X31795822Y4849D01*
X31798279Y21412D01*
X31802347Y37655D01*
X31807988Y53420D01*
X31815147Y68557D01*
X31823755Y82919D01*
X31833730Y96368D01*
X31844975Y108775D01*
X31857382Y120020D01*
X31870831Y129995D01*
X31885193Y138603D01*
X31900330Y145762D01*
X31916095Y151403D01*
X31932338Y155471D01*
X31948901Y157928D01*
X31965625Y158750D01*
X32604375Y158750D01*
X32621099Y157928D01*
X32621099Y157928D01*
G37*
D15*
X32285000Y-182500D03*
D10*
G36*
X32621099Y-1717072D02*
X32637662Y-1719529D01*
X32653905Y-1723597D01*
X32669670Y-1729238D01*
X32684807Y-1736397D01*
X32699169Y-1745005D01*
X32712618Y-1754980D01*
X32725025Y-1766225D01*
X32736270Y-1778632D01*
X32746245Y-1792081D01*
X32754853Y-1806443D01*
X32762012Y-1821580D01*
X32767653Y-1837345D01*
X32771721Y-1853588D01*
X32774178Y-1870151D01*
X32775000Y-1886875D01*
X32775000Y-2228125D01*
X32774178Y-2244849D01*
X32771721Y-2261412D01*
X32767653Y-2277655D01*
X32762012Y-2293420D01*
X32754853Y-2308557D01*
X32746245Y-2322919D01*
X32736270Y-2336368D01*
X32725025Y-2348775D01*
X32712618Y-2360020D01*
X32699169Y-2369995D01*
X32684807Y-2378603D01*
X32669670Y-2385762D01*
X32653905Y-2391403D01*
X32637662Y-2395471D01*
X32621099Y-2397928D01*
X32604375Y-2398750D01*
X31965625Y-2398750D01*
X31948901Y-2397928D01*
X31932338Y-2395471D01*
X31916095Y-2391403D01*
X31900330Y-2385762D01*
X31885193Y-2378603D01*
X31870831Y-2369995D01*
X31857382Y-2360020D01*
X31844975Y-2348775D01*
X31833730Y-2336368D01*
X31823755Y-2322919D01*
X31815147Y-2308557D01*
X31807988Y-2293420D01*
X31802347Y-2277655D01*
X31798279Y-2261412D01*
X31795822Y-2244849D01*
X31795000Y-2228125D01*
X31795000Y-1886875D01*
X31795822Y-1870151D01*
X31798279Y-1853588D01*
X31802347Y-1837345D01*
X31807988Y-1821580D01*
X31815147Y-1806443D01*
X31823755Y-1792081D01*
X31833730Y-1778632D01*
X31844975Y-1766225D01*
X31857382Y-1754980D01*
X31870831Y-1745005D01*
X31885193Y-1736397D01*
X31900330Y-1729238D01*
X31916095Y-1723597D01*
X31932338Y-1719529D01*
X31948901Y-1717072D01*
X31965625Y-1716250D01*
X32604375Y-1716250D01*
X32621099Y-1717072D01*
X32621099Y-1717072D01*
G37*
D15*
X32285000Y-2057500D03*
G04 #@! TD*
D10*
G04 #@! TO.C,R304*
G36*
X32621099Y-6192072D02*
X32637662Y-6194529D01*
X32653905Y-6198597D01*
X32669670Y-6204238D01*
X32684807Y-6211397D01*
X32699169Y-6220005D01*
X32712618Y-6229980D01*
X32725025Y-6241225D01*
X32736270Y-6253632D01*
X32746245Y-6267081D01*
X32754853Y-6281443D01*
X32762012Y-6296580D01*
X32767653Y-6312345D01*
X32771721Y-6328588D01*
X32774178Y-6345151D01*
X32775000Y-6361875D01*
X32775000Y-6703125D01*
X32774178Y-6719849D01*
X32771721Y-6736412D01*
X32767653Y-6752655D01*
X32762012Y-6768420D01*
X32754853Y-6783557D01*
X32746245Y-6797919D01*
X32736270Y-6811368D01*
X32725025Y-6823775D01*
X32712618Y-6835020D01*
X32699169Y-6844995D01*
X32684807Y-6853603D01*
X32669670Y-6860762D01*
X32653905Y-6866403D01*
X32637662Y-6870471D01*
X32621099Y-6872928D01*
X32604375Y-6873750D01*
X31965625Y-6873750D01*
X31948901Y-6872928D01*
X31932338Y-6870471D01*
X31916095Y-6866403D01*
X31900330Y-6860762D01*
X31885193Y-6853603D01*
X31870831Y-6844995D01*
X31857382Y-6835020D01*
X31844975Y-6823775D01*
X31833730Y-6811368D01*
X31823755Y-6797919D01*
X31815147Y-6783557D01*
X31807988Y-6768420D01*
X31802347Y-6752655D01*
X31798279Y-6736412D01*
X31795822Y-6719849D01*
X31795000Y-6703125D01*
X31795000Y-6361875D01*
X31795822Y-6345151D01*
X31798279Y-6328588D01*
X31802347Y-6312345D01*
X31807988Y-6296580D01*
X31815147Y-6281443D01*
X31823755Y-6267081D01*
X31833730Y-6253632D01*
X31844975Y-6241225D01*
X31857382Y-6229980D01*
X31870831Y-6220005D01*
X31885193Y-6211397D01*
X31900330Y-6204238D01*
X31916095Y-6198597D01*
X31932338Y-6194529D01*
X31948901Y-6192072D01*
X31965625Y-6191250D01*
X32604375Y-6191250D01*
X32621099Y-6192072D01*
X32621099Y-6192072D01*
G37*
D15*
X32285000Y-6532500D03*
D10*
G36*
X32621099Y-8067072D02*
X32637662Y-8069529D01*
X32653905Y-8073597D01*
X32669670Y-8079238D01*
X32684807Y-8086397D01*
X32699169Y-8095005D01*
X32712618Y-8104980D01*
X32725025Y-8116225D01*
X32736270Y-8128632D01*
X32746245Y-8142081D01*
X32754853Y-8156443D01*
X32762012Y-8171580D01*
X32767653Y-8187345D01*
X32771721Y-8203588D01*
X32774178Y-8220151D01*
X32775000Y-8236875D01*
X32775000Y-8578125D01*
X32774178Y-8594849D01*
X32771721Y-8611412D01*
X32767653Y-8627655D01*
X32762012Y-8643420D01*
X32754853Y-8658557D01*
X32746245Y-8672919D01*
X32736270Y-8686368D01*
X32725025Y-8698775D01*
X32712618Y-8710020D01*
X32699169Y-8719995D01*
X32684807Y-8728603D01*
X32669670Y-8735762D01*
X32653905Y-8741403D01*
X32637662Y-8745471D01*
X32621099Y-8747928D01*
X32604375Y-8748750D01*
X31965625Y-8748750D01*
X31948901Y-8747928D01*
X31932338Y-8745471D01*
X31916095Y-8741403D01*
X31900330Y-8735762D01*
X31885193Y-8728603D01*
X31870831Y-8719995D01*
X31857382Y-8710020D01*
X31844975Y-8698775D01*
X31833730Y-8686368D01*
X31823755Y-8672919D01*
X31815147Y-8658557D01*
X31807988Y-8643420D01*
X31802347Y-8627655D01*
X31798279Y-8611412D01*
X31795822Y-8594849D01*
X31795000Y-8578125D01*
X31795000Y-8236875D01*
X31795822Y-8220151D01*
X31798279Y-8203588D01*
X31802347Y-8187345D01*
X31807988Y-8171580D01*
X31815147Y-8156443D01*
X31823755Y-8142081D01*
X31833730Y-8128632D01*
X31844975Y-8116225D01*
X31857382Y-8104980D01*
X31870831Y-8095005D01*
X31885193Y-8086397D01*
X31900330Y-8079238D01*
X31916095Y-8073597D01*
X31932338Y-8069529D01*
X31948901Y-8067072D01*
X31965625Y-8066250D01*
X32604375Y-8066250D01*
X32621099Y-8067072D01*
X32621099Y-8067072D01*
G37*
D15*
X32285000Y-8407500D03*
G04 #@! TD*
D10*
G04 #@! TO.C,R501*
G36*
X-7121630Y-10040497D02*
X-7111607Y-10041984D01*
X-7101778Y-10044446D01*
X-7092238Y-10047859D01*
X-7083078Y-10052192D01*
X-7074387Y-10057401D01*
X-7066249Y-10063437D01*
X-7058741Y-10070241D01*
X-7051937Y-10077749D01*
X-7045901Y-10085887D01*
X-7040692Y-10094578D01*
X-7036359Y-10103738D01*
X-7032946Y-10113278D01*
X-7030484Y-10123107D01*
X-7028997Y-10133130D01*
X-7028500Y-10143250D01*
X-7028500Y-10384750D01*
X-7028997Y-10394870D01*
X-7030484Y-10404893D01*
X-7032946Y-10414722D01*
X-7036359Y-10424262D01*
X-7040692Y-10433422D01*
X-7045901Y-10442113D01*
X-7051937Y-10450251D01*
X-7058741Y-10457759D01*
X-7066249Y-10464563D01*
X-7074387Y-10470599D01*
X-7083078Y-10475808D01*
X-7092238Y-10480141D01*
X-7101778Y-10483554D01*
X-7111607Y-10486016D01*
X-7121630Y-10487503D01*
X-7131750Y-10488000D01*
X-7338250Y-10488000D01*
X-7348370Y-10487503D01*
X-7358393Y-10486016D01*
X-7368222Y-10483554D01*
X-7377762Y-10480141D01*
X-7386922Y-10475808D01*
X-7395613Y-10470599D01*
X-7403751Y-10464563D01*
X-7411259Y-10457759D01*
X-7418063Y-10450251D01*
X-7424099Y-10442113D01*
X-7429308Y-10433422D01*
X-7433641Y-10424262D01*
X-7437054Y-10414722D01*
X-7439516Y-10404893D01*
X-7441003Y-10394870D01*
X-7441500Y-10384750D01*
X-7441500Y-10143250D01*
X-7441003Y-10133130D01*
X-7439516Y-10123107D01*
X-7437054Y-10113278D01*
X-7433641Y-10103738D01*
X-7429308Y-10094578D01*
X-7424099Y-10085887D01*
X-7418063Y-10077749D01*
X-7411259Y-10070241D01*
X-7403751Y-10063437D01*
X-7395613Y-10057401D01*
X-7386922Y-10052192D01*
X-7377762Y-10047859D01*
X-7368222Y-10044446D01*
X-7358393Y-10041984D01*
X-7348370Y-10040497D01*
X-7338250Y-10040000D01*
X-7131750Y-10040000D01*
X-7121630Y-10040497D01*
X-7121630Y-10040497D01*
G37*
D11*
X-7235000Y-10264000D03*
D10*
G36*
X-8091630Y-10040497D02*
X-8081607Y-10041984D01*
X-8071778Y-10044446D01*
X-8062238Y-10047859D01*
X-8053078Y-10052192D01*
X-8044387Y-10057401D01*
X-8036249Y-10063437D01*
X-8028741Y-10070241D01*
X-8021937Y-10077749D01*
X-8015901Y-10085887D01*
X-8010692Y-10094578D01*
X-8006359Y-10103738D01*
X-8002946Y-10113278D01*
X-8000484Y-10123107D01*
X-7998997Y-10133130D01*
X-7998500Y-10143250D01*
X-7998500Y-10384750D01*
X-7998997Y-10394870D01*
X-8000484Y-10404893D01*
X-8002946Y-10414722D01*
X-8006359Y-10424262D01*
X-8010692Y-10433422D01*
X-8015901Y-10442113D01*
X-8021937Y-10450251D01*
X-8028741Y-10457759D01*
X-8036249Y-10464563D01*
X-8044387Y-10470599D01*
X-8053078Y-10475808D01*
X-8062238Y-10480141D01*
X-8071778Y-10483554D01*
X-8081607Y-10486016D01*
X-8091630Y-10487503D01*
X-8101750Y-10488000D01*
X-8308250Y-10488000D01*
X-8318370Y-10487503D01*
X-8328393Y-10486016D01*
X-8338222Y-10483554D01*
X-8347762Y-10480141D01*
X-8356922Y-10475808D01*
X-8365613Y-10470599D01*
X-8373751Y-10464563D01*
X-8381259Y-10457759D01*
X-8388063Y-10450251D01*
X-8394099Y-10442113D01*
X-8399308Y-10433422D01*
X-8403641Y-10424262D01*
X-8407054Y-10414722D01*
X-8409516Y-10404893D01*
X-8411003Y-10394870D01*
X-8411500Y-10384750D01*
X-8411500Y-10143250D01*
X-8411003Y-10133130D01*
X-8409516Y-10123107D01*
X-8407054Y-10113278D01*
X-8403641Y-10103738D01*
X-8399308Y-10094578D01*
X-8394099Y-10085887D01*
X-8388063Y-10077749D01*
X-8381259Y-10070241D01*
X-8373751Y-10063437D01*
X-8365613Y-10057401D01*
X-8356922Y-10052192D01*
X-8347762Y-10047859D01*
X-8338222Y-10044446D01*
X-8328393Y-10041984D01*
X-8318370Y-10040497D01*
X-8308250Y-10040000D01*
X-8101750Y-10040000D01*
X-8091630Y-10040497D01*
X-8091630Y-10040497D01*
G37*
D11*
X-8205000Y-10264000D03*
G04 #@! TD*
D10*
G04 #@! TO.C,R502*
G36*
X-7121630Y-9024497D02*
X-7111607Y-9025984D01*
X-7101778Y-9028446D01*
X-7092238Y-9031859D01*
X-7083078Y-9036192D01*
X-7074387Y-9041401D01*
X-7066249Y-9047437D01*
X-7058741Y-9054241D01*
X-7051937Y-9061749D01*
X-7045901Y-9069887D01*
X-7040692Y-9078578D01*
X-7036359Y-9087738D01*
X-7032946Y-9097278D01*
X-7030484Y-9107107D01*
X-7028997Y-9117130D01*
X-7028500Y-9127250D01*
X-7028500Y-9368750D01*
X-7028997Y-9378870D01*
X-7030484Y-9388893D01*
X-7032946Y-9398722D01*
X-7036359Y-9408262D01*
X-7040692Y-9417422D01*
X-7045901Y-9426113D01*
X-7051937Y-9434251D01*
X-7058741Y-9441759D01*
X-7066249Y-9448563D01*
X-7074387Y-9454599D01*
X-7083078Y-9459808D01*
X-7092238Y-9464141D01*
X-7101778Y-9467554D01*
X-7111607Y-9470016D01*
X-7121630Y-9471503D01*
X-7131750Y-9472000D01*
X-7338250Y-9472000D01*
X-7348370Y-9471503D01*
X-7358393Y-9470016D01*
X-7368222Y-9467554D01*
X-7377762Y-9464141D01*
X-7386922Y-9459808D01*
X-7395613Y-9454599D01*
X-7403751Y-9448563D01*
X-7411259Y-9441759D01*
X-7418063Y-9434251D01*
X-7424099Y-9426113D01*
X-7429308Y-9417422D01*
X-7433641Y-9408262D01*
X-7437054Y-9398722D01*
X-7439516Y-9388893D01*
X-7441003Y-9378870D01*
X-7441500Y-9368750D01*
X-7441500Y-9127250D01*
X-7441003Y-9117130D01*
X-7439516Y-9107107D01*
X-7437054Y-9097278D01*
X-7433641Y-9087738D01*
X-7429308Y-9078578D01*
X-7424099Y-9069887D01*
X-7418063Y-9061749D01*
X-7411259Y-9054241D01*
X-7403751Y-9047437D01*
X-7395613Y-9041401D01*
X-7386922Y-9036192D01*
X-7377762Y-9031859D01*
X-7368222Y-9028446D01*
X-7358393Y-9025984D01*
X-7348370Y-9024497D01*
X-7338250Y-9024000D01*
X-7131750Y-9024000D01*
X-7121630Y-9024497D01*
X-7121630Y-9024497D01*
G37*
D11*
X-7235000Y-9248000D03*
D10*
G36*
X-8091630Y-9024497D02*
X-8081607Y-9025984D01*
X-8071778Y-9028446D01*
X-8062238Y-9031859D01*
X-8053078Y-9036192D01*
X-8044387Y-9041401D01*
X-8036249Y-9047437D01*
X-8028741Y-9054241D01*
X-8021937Y-9061749D01*
X-8015901Y-9069887D01*
X-8010692Y-9078578D01*
X-8006359Y-9087738D01*
X-8002946Y-9097278D01*
X-8000484Y-9107107D01*
X-7998997Y-9117130D01*
X-7998500Y-9127250D01*
X-7998500Y-9368750D01*
X-7998997Y-9378870D01*
X-8000484Y-9388893D01*
X-8002946Y-9398722D01*
X-8006359Y-9408262D01*
X-8010692Y-9417422D01*
X-8015901Y-9426113D01*
X-8021937Y-9434251D01*
X-8028741Y-9441759D01*
X-8036249Y-9448563D01*
X-8044387Y-9454599D01*
X-8053078Y-9459808D01*
X-8062238Y-9464141D01*
X-8071778Y-9467554D01*
X-8081607Y-9470016D01*
X-8091630Y-9471503D01*
X-8101750Y-9472000D01*
X-8308250Y-9472000D01*
X-8318370Y-9471503D01*
X-8328393Y-9470016D01*
X-8338222Y-9467554D01*
X-8347762Y-9464141D01*
X-8356922Y-9459808D01*
X-8365613Y-9454599D01*
X-8373751Y-9448563D01*
X-8381259Y-9441759D01*
X-8388063Y-9434251D01*
X-8394099Y-9426113D01*
X-8399308Y-9417422D01*
X-8403641Y-9408262D01*
X-8407054Y-9398722D01*
X-8409516Y-9388893D01*
X-8411003Y-9378870D01*
X-8411500Y-9368750D01*
X-8411500Y-9127250D01*
X-8411003Y-9117130D01*
X-8409516Y-9107107D01*
X-8407054Y-9097278D01*
X-8403641Y-9087738D01*
X-8399308Y-9078578D01*
X-8394099Y-9069887D01*
X-8388063Y-9061749D01*
X-8381259Y-9054241D01*
X-8373751Y-9047437D01*
X-8365613Y-9041401D01*
X-8356922Y-9036192D01*
X-8347762Y-9031859D01*
X-8338222Y-9028446D01*
X-8328393Y-9025984D01*
X-8318370Y-9024497D01*
X-8308250Y-9024000D01*
X-8101750Y-9024000D01*
X-8091630Y-9024497D01*
X-8091630Y-9024497D01*
G37*
D11*
X-8205000Y-9248000D03*
G04 #@! TD*
D10*
G04 #@! TO.C,R601*
G36*
X-8091630Y-2928497D02*
X-8081607Y-2929984D01*
X-8071778Y-2932446D01*
X-8062238Y-2935859D01*
X-8053078Y-2940192D01*
X-8044387Y-2945401D01*
X-8036249Y-2951437D01*
X-8028741Y-2958241D01*
X-8021937Y-2965749D01*
X-8015901Y-2973887D01*
X-8010692Y-2982578D01*
X-8006359Y-2991738D01*
X-8002946Y-3001278D01*
X-8000484Y-3011107D01*
X-7998997Y-3021130D01*
X-7998500Y-3031250D01*
X-7998500Y-3272750D01*
X-7998997Y-3282870D01*
X-8000484Y-3292893D01*
X-8002946Y-3302722D01*
X-8006359Y-3312262D01*
X-8010692Y-3321422D01*
X-8015901Y-3330113D01*
X-8021937Y-3338251D01*
X-8028741Y-3345759D01*
X-8036249Y-3352563D01*
X-8044387Y-3358599D01*
X-8053078Y-3363808D01*
X-8062238Y-3368141D01*
X-8071778Y-3371554D01*
X-8081607Y-3374016D01*
X-8091630Y-3375503D01*
X-8101750Y-3376000D01*
X-8308250Y-3376000D01*
X-8318370Y-3375503D01*
X-8328393Y-3374016D01*
X-8338222Y-3371554D01*
X-8347762Y-3368141D01*
X-8356922Y-3363808D01*
X-8365613Y-3358599D01*
X-8373751Y-3352563D01*
X-8381259Y-3345759D01*
X-8388063Y-3338251D01*
X-8394099Y-3330113D01*
X-8399308Y-3321422D01*
X-8403641Y-3312262D01*
X-8407054Y-3302722D01*
X-8409516Y-3292893D01*
X-8411003Y-3282870D01*
X-8411500Y-3272750D01*
X-8411500Y-3031250D01*
X-8411003Y-3021130D01*
X-8409516Y-3011107D01*
X-8407054Y-3001278D01*
X-8403641Y-2991738D01*
X-8399308Y-2982578D01*
X-8394099Y-2973887D01*
X-8388063Y-2965749D01*
X-8381259Y-2958241D01*
X-8373751Y-2951437D01*
X-8365613Y-2945401D01*
X-8356922Y-2940192D01*
X-8347762Y-2935859D01*
X-8338222Y-2932446D01*
X-8328393Y-2929984D01*
X-8318370Y-2928497D01*
X-8308250Y-2928000D01*
X-8101750Y-2928000D01*
X-8091630Y-2928497D01*
X-8091630Y-2928497D01*
G37*
D11*
X-8205000Y-3152000D03*
D10*
G36*
X-7121630Y-2928497D02*
X-7111607Y-2929984D01*
X-7101778Y-2932446D01*
X-7092238Y-2935859D01*
X-7083078Y-2940192D01*
X-7074387Y-2945401D01*
X-7066249Y-2951437D01*
X-7058741Y-2958241D01*
X-7051937Y-2965749D01*
X-7045901Y-2973887D01*
X-7040692Y-2982578D01*
X-7036359Y-2991738D01*
X-7032946Y-3001278D01*
X-7030484Y-3011107D01*
X-7028997Y-3021130D01*
X-7028500Y-3031250D01*
X-7028500Y-3272750D01*
X-7028997Y-3282870D01*
X-7030484Y-3292893D01*
X-7032946Y-3302722D01*
X-7036359Y-3312262D01*
X-7040692Y-3321422D01*
X-7045901Y-3330113D01*
X-7051937Y-3338251D01*
X-7058741Y-3345759D01*
X-7066249Y-3352563D01*
X-7074387Y-3358599D01*
X-7083078Y-3363808D01*
X-7092238Y-3368141D01*
X-7101778Y-3371554D01*
X-7111607Y-3374016D01*
X-7121630Y-3375503D01*
X-7131750Y-3376000D01*
X-7338250Y-3376000D01*
X-7348370Y-3375503D01*
X-7358393Y-3374016D01*
X-7368222Y-3371554D01*
X-7377762Y-3368141D01*
X-7386922Y-3363808D01*
X-7395613Y-3358599D01*
X-7403751Y-3352563D01*
X-7411259Y-3345759D01*
X-7418063Y-3338251D01*
X-7424099Y-3330113D01*
X-7429308Y-3321422D01*
X-7433641Y-3312262D01*
X-7437054Y-3302722D01*
X-7439516Y-3292893D01*
X-7441003Y-3282870D01*
X-7441500Y-3272750D01*
X-7441500Y-3031250D01*
X-7441003Y-3021130D01*
X-7439516Y-3011107D01*
X-7437054Y-3001278D01*
X-7433641Y-2991738D01*
X-7429308Y-2982578D01*
X-7424099Y-2973887D01*
X-7418063Y-2965749D01*
X-7411259Y-2958241D01*
X-7403751Y-2951437D01*
X-7395613Y-2945401D01*
X-7386922Y-2940192D01*
X-7377762Y-2935859D01*
X-7368222Y-2932446D01*
X-7358393Y-2929984D01*
X-7348370Y-2928497D01*
X-7338250Y-2928000D01*
X-7131750Y-2928000D01*
X-7121630Y-2928497D01*
X-7121630Y-2928497D01*
G37*
D11*
X-7235000Y-3152000D03*
G04 #@! TD*
D10*
G04 #@! TO.C,R602*
G36*
X-8091630Y-3944497D02*
X-8081607Y-3945984D01*
X-8071778Y-3948446D01*
X-8062238Y-3951859D01*
X-8053078Y-3956192D01*
X-8044387Y-3961401D01*
X-8036249Y-3967437D01*
X-8028741Y-3974241D01*
X-8021937Y-3981749D01*
X-8015901Y-3989887D01*
X-8010692Y-3998578D01*
X-8006359Y-4007738D01*
X-8002946Y-4017278D01*
X-8000484Y-4027107D01*
X-7998997Y-4037130D01*
X-7998500Y-4047250D01*
X-7998500Y-4288750D01*
X-7998997Y-4298870D01*
X-8000484Y-4308893D01*
X-8002946Y-4318722D01*
X-8006359Y-4328262D01*
X-8010692Y-4337422D01*
X-8015901Y-4346113D01*
X-8021937Y-4354251D01*
X-8028741Y-4361759D01*
X-8036249Y-4368563D01*
X-8044387Y-4374599D01*
X-8053078Y-4379808D01*
X-8062238Y-4384141D01*
X-8071778Y-4387554D01*
X-8081607Y-4390016D01*
X-8091630Y-4391503D01*
X-8101750Y-4392000D01*
X-8308250Y-4392000D01*
X-8318370Y-4391503D01*
X-8328393Y-4390016D01*
X-8338222Y-4387554D01*
X-8347762Y-4384141D01*
X-8356922Y-4379808D01*
X-8365613Y-4374599D01*
X-8373751Y-4368563D01*
X-8381259Y-4361759D01*
X-8388063Y-4354251D01*
X-8394099Y-4346113D01*
X-8399308Y-4337422D01*
X-8403641Y-4328262D01*
X-8407054Y-4318722D01*
X-8409516Y-4308893D01*
X-8411003Y-4298870D01*
X-8411500Y-4288750D01*
X-8411500Y-4047250D01*
X-8411003Y-4037130D01*
X-8409516Y-4027107D01*
X-8407054Y-4017278D01*
X-8403641Y-4007738D01*
X-8399308Y-3998578D01*
X-8394099Y-3989887D01*
X-8388063Y-3981749D01*
X-8381259Y-3974241D01*
X-8373751Y-3967437D01*
X-8365613Y-3961401D01*
X-8356922Y-3956192D01*
X-8347762Y-3951859D01*
X-8338222Y-3948446D01*
X-8328393Y-3945984D01*
X-8318370Y-3944497D01*
X-8308250Y-3944000D01*
X-8101750Y-3944000D01*
X-8091630Y-3944497D01*
X-8091630Y-3944497D01*
G37*
D11*
X-8205000Y-4168000D03*
D10*
G36*
X-7121630Y-3944497D02*
X-7111607Y-3945984D01*
X-7101778Y-3948446D01*
X-7092238Y-3951859D01*
X-7083078Y-3956192D01*
X-7074387Y-3961401D01*
X-7066249Y-3967437D01*
X-7058741Y-3974241D01*
X-7051937Y-3981749D01*
X-7045901Y-3989887D01*
X-7040692Y-3998578D01*
X-7036359Y-4007738D01*
X-7032946Y-4017278D01*
X-7030484Y-4027107D01*
X-7028997Y-4037130D01*
X-7028500Y-4047250D01*
X-7028500Y-4288750D01*
X-7028997Y-4298870D01*
X-7030484Y-4308893D01*
X-7032946Y-4318722D01*
X-7036359Y-4328262D01*
X-7040692Y-4337422D01*
X-7045901Y-4346113D01*
X-7051937Y-4354251D01*
X-7058741Y-4361759D01*
X-7066249Y-4368563D01*
X-7074387Y-4374599D01*
X-7083078Y-4379808D01*
X-7092238Y-4384141D01*
X-7101778Y-4387554D01*
X-7111607Y-4390016D01*
X-7121630Y-4391503D01*
X-7131750Y-4392000D01*
X-7338250Y-4392000D01*
X-7348370Y-4391503D01*
X-7358393Y-4390016D01*
X-7368222Y-4387554D01*
X-7377762Y-4384141D01*
X-7386922Y-4379808D01*
X-7395613Y-4374599D01*
X-7403751Y-4368563D01*
X-7411259Y-4361759D01*
X-7418063Y-4354251D01*
X-7424099Y-4346113D01*
X-7429308Y-4337422D01*
X-7433641Y-4328262D01*
X-7437054Y-4318722D01*
X-7439516Y-4308893D01*
X-7441003Y-4298870D01*
X-7441500Y-4288750D01*
X-7441500Y-4047250D01*
X-7441003Y-4037130D01*
X-7439516Y-4027107D01*
X-7437054Y-4017278D01*
X-7433641Y-4007738D01*
X-7429308Y-3998578D01*
X-7424099Y-3989887D01*
X-7418063Y-3981749D01*
X-7411259Y-3974241D01*
X-7403751Y-3967437D01*
X-7395613Y-3961401D01*
X-7386922Y-3956192D01*
X-7377762Y-3951859D01*
X-7368222Y-3948446D01*
X-7358393Y-3945984D01*
X-7348370Y-3944497D01*
X-7338250Y-3944000D01*
X-7131750Y-3944000D01*
X-7121630Y-3944497D01*
X-7121630Y-3944497D01*
G37*
D11*
X-7235000Y-4168000D03*
G04 #@! TD*
D10*
G04 #@! TO.C,R603*
G36*
X-7121630Y-8008497D02*
X-7111607Y-8009984D01*
X-7101778Y-8012446D01*
X-7092238Y-8015859D01*
X-7083078Y-8020192D01*
X-7074387Y-8025401D01*
X-7066249Y-8031437D01*
X-7058741Y-8038241D01*
X-7051937Y-8045749D01*
X-7045901Y-8053887D01*
X-7040692Y-8062578D01*
X-7036359Y-8071738D01*
X-7032946Y-8081278D01*
X-7030484Y-8091107D01*
X-7028997Y-8101130D01*
X-7028500Y-8111250D01*
X-7028500Y-8352750D01*
X-7028997Y-8362870D01*
X-7030484Y-8372893D01*
X-7032946Y-8382722D01*
X-7036359Y-8392262D01*
X-7040692Y-8401422D01*
X-7045901Y-8410113D01*
X-7051937Y-8418251D01*
X-7058741Y-8425759D01*
X-7066249Y-8432563D01*
X-7074387Y-8438599D01*
X-7083078Y-8443808D01*
X-7092238Y-8448141D01*
X-7101778Y-8451554D01*
X-7111607Y-8454016D01*
X-7121630Y-8455503D01*
X-7131750Y-8456000D01*
X-7338250Y-8456000D01*
X-7348370Y-8455503D01*
X-7358393Y-8454016D01*
X-7368222Y-8451554D01*
X-7377762Y-8448141D01*
X-7386922Y-8443808D01*
X-7395613Y-8438599D01*
X-7403751Y-8432563D01*
X-7411259Y-8425759D01*
X-7418063Y-8418251D01*
X-7424099Y-8410113D01*
X-7429308Y-8401422D01*
X-7433641Y-8392262D01*
X-7437054Y-8382722D01*
X-7439516Y-8372893D01*
X-7441003Y-8362870D01*
X-7441500Y-8352750D01*
X-7441500Y-8111250D01*
X-7441003Y-8101130D01*
X-7439516Y-8091107D01*
X-7437054Y-8081278D01*
X-7433641Y-8071738D01*
X-7429308Y-8062578D01*
X-7424099Y-8053887D01*
X-7418063Y-8045749D01*
X-7411259Y-8038241D01*
X-7403751Y-8031437D01*
X-7395613Y-8025401D01*
X-7386922Y-8020192D01*
X-7377762Y-8015859D01*
X-7368222Y-8012446D01*
X-7358393Y-8009984D01*
X-7348370Y-8008497D01*
X-7338250Y-8008000D01*
X-7131750Y-8008000D01*
X-7121630Y-8008497D01*
X-7121630Y-8008497D01*
G37*
D11*
X-7235000Y-8232000D03*
D10*
G36*
X-8091630Y-8008497D02*
X-8081607Y-8009984D01*
X-8071778Y-8012446D01*
X-8062238Y-8015859D01*
X-8053078Y-8020192D01*
X-8044387Y-8025401D01*
X-8036249Y-8031437D01*
X-8028741Y-8038241D01*
X-8021937Y-8045749D01*
X-8015901Y-8053887D01*
X-8010692Y-8062578D01*
X-8006359Y-8071738D01*
X-8002946Y-8081278D01*
X-8000484Y-8091107D01*
X-7998997Y-8101130D01*
X-7998500Y-8111250D01*
X-7998500Y-8352750D01*
X-7998997Y-8362870D01*
X-8000484Y-8372893D01*
X-8002946Y-8382722D01*
X-8006359Y-8392262D01*
X-8010692Y-8401422D01*
X-8015901Y-8410113D01*
X-8021937Y-8418251D01*
X-8028741Y-8425759D01*
X-8036249Y-8432563D01*
X-8044387Y-8438599D01*
X-8053078Y-8443808D01*
X-8062238Y-8448141D01*
X-8071778Y-8451554D01*
X-8081607Y-8454016D01*
X-8091630Y-8455503D01*
X-8101750Y-8456000D01*
X-8308250Y-8456000D01*
X-8318370Y-8455503D01*
X-8328393Y-8454016D01*
X-8338222Y-8451554D01*
X-8347762Y-8448141D01*
X-8356922Y-8443808D01*
X-8365613Y-8438599D01*
X-8373751Y-8432563D01*
X-8381259Y-8425759D01*
X-8388063Y-8418251D01*
X-8394099Y-8410113D01*
X-8399308Y-8401422D01*
X-8403641Y-8392262D01*
X-8407054Y-8382722D01*
X-8409516Y-8372893D01*
X-8411003Y-8362870D01*
X-8411500Y-8352750D01*
X-8411500Y-8111250D01*
X-8411003Y-8101130D01*
X-8409516Y-8091107D01*
X-8407054Y-8081278D01*
X-8403641Y-8071738D01*
X-8399308Y-8062578D01*
X-8394099Y-8053887D01*
X-8388063Y-8045749D01*
X-8381259Y-8038241D01*
X-8373751Y-8031437D01*
X-8365613Y-8025401D01*
X-8356922Y-8020192D01*
X-8347762Y-8015859D01*
X-8338222Y-8012446D01*
X-8328393Y-8009984D01*
X-8318370Y-8008497D01*
X-8308250Y-8008000D01*
X-8101750Y-8008000D01*
X-8091630Y-8008497D01*
X-8091630Y-8008497D01*
G37*
D11*
X-8205000Y-8232000D03*
G04 #@! TD*
D10*
G04 #@! TO.C,R604*
G36*
X-15590130Y-2206997D02*
X-15580107Y-2208484D01*
X-15570278Y-2210946D01*
X-15560738Y-2214359D01*
X-15551578Y-2218692D01*
X-15542887Y-2223901D01*
X-15534749Y-2229937D01*
X-15527241Y-2236741D01*
X-15520437Y-2244249D01*
X-15514401Y-2252387D01*
X-15509192Y-2261078D01*
X-15504859Y-2270238D01*
X-15501446Y-2279778D01*
X-15498984Y-2289607D01*
X-15497497Y-2299630D01*
X-15497000Y-2309750D01*
X-15497000Y-2516250D01*
X-15497497Y-2526370D01*
X-15498984Y-2536393D01*
X-15501446Y-2546222D01*
X-15504859Y-2555762D01*
X-15509192Y-2564922D01*
X-15514401Y-2573613D01*
X-15520437Y-2581751D01*
X-15527241Y-2589259D01*
X-15534749Y-2596063D01*
X-15542887Y-2602099D01*
X-15551578Y-2607308D01*
X-15560738Y-2611641D01*
X-15570278Y-2615054D01*
X-15580107Y-2617516D01*
X-15590130Y-2619003D01*
X-15600250Y-2619500D01*
X-15841750Y-2619500D01*
X-15851870Y-2619003D01*
X-15861893Y-2617516D01*
X-15871722Y-2615054D01*
X-15881262Y-2611641D01*
X-15890422Y-2607308D01*
X-15899113Y-2602099D01*
X-15907251Y-2596063D01*
X-15914759Y-2589259D01*
X-15921563Y-2581751D01*
X-15927599Y-2573613D01*
X-15932808Y-2564922D01*
X-15937141Y-2555762D01*
X-15940554Y-2546222D01*
X-15943016Y-2536393D01*
X-15944503Y-2526370D01*
X-15945000Y-2516250D01*
X-15945000Y-2309750D01*
X-15944503Y-2299630D01*
X-15943016Y-2289607D01*
X-15940554Y-2279778D01*
X-15937141Y-2270238D01*
X-15932808Y-2261078D01*
X-15927599Y-2252387D01*
X-15921563Y-2244249D01*
X-15914759Y-2236741D01*
X-15907251Y-2229937D01*
X-15899113Y-2223901D01*
X-15890422Y-2218692D01*
X-15881262Y-2214359D01*
X-15871722Y-2210946D01*
X-15861893Y-2208484D01*
X-15851870Y-2206997D01*
X-15841750Y-2206500D01*
X-15600250Y-2206500D01*
X-15590130Y-2206997D01*
X-15590130Y-2206997D01*
G37*
D11*
X-15721000Y-2413000D03*
D10*
G36*
X-15590130Y-3176997D02*
X-15580107Y-3178484D01*
X-15570278Y-3180946D01*
X-15560738Y-3184359D01*
X-15551578Y-3188692D01*
X-15542887Y-3193901D01*
X-15534749Y-3199937D01*
X-15527241Y-3206741D01*
X-15520437Y-3214249D01*
X-15514401Y-3222387D01*
X-15509192Y-3231078D01*
X-15504859Y-3240238D01*
X-15501446Y-3249778D01*
X-15498984Y-3259607D01*
X-15497497Y-3269630D01*
X-15497000Y-3279750D01*
X-15497000Y-3486250D01*
X-15497497Y-3496370D01*
X-15498984Y-3506393D01*
X-15501446Y-3516222D01*
X-15504859Y-3525762D01*
X-15509192Y-3534922D01*
X-15514401Y-3543613D01*
X-15520437Y-3551751D01*
X-15527241Y-3559259D01*
X-15534749Y-3566063D01*
X-15542887Y-3572099D01*
X-15551578Y-3577308D01*
X-15560738Y-3581641D01*
X-15570278Y-3585054D01*
X-15580107Y-3587516D01*
X-15590130Y-3589003D01*
X-15600250Y-3589500D01*
X-15841750Y-3589500D01*
X-15851870Y-3589003D01*
X-15861893Y-3587516D01*
X-15871722Y-3585054D01*
X-15881262Y-3581641D01*
X-15890422Y-3577308D01*
X-15899113Y-3572099D01*
X-15907251Y-3566063D01*
X-15914759Y-3559259D01*
X-15921563Y-3551751D01*
X-15927599Y-3543613D01*
X-15932808Y-3534922D01*
X-15937141Y-3525762D01*
X-15940554Y-3516222D01*
X-15943016Y-3506393D01*
X-15944503Y-3496370D01*
X-15945000Y-3486250D01*
X-15945000Y-3279750D01*
X-15944503Y-3269630D01*
X-15943016Y-3259607D01*
X-15940554Y-3249778D01*
X-15937141Y-3240238D01*
X-15932808Y-3231078D01*
X-15927599Y-3222387D01*
X-15921563Y-3214249D01*
X-15914759Y-3206741D01*
X-15907251Y-3199937D01*
X-15899113Y-3193901D01*
X-15890422Y-3188692D01*
X-15881262Y-3184359D01*
X-15871722Y-3180946D01*
X-15861893Y-3178484D01*
X-15851870Y-3176997D01*
X-15841750Y-3176500D01*
X-15600250Y-3176500D01*
X-15590130Y-3176997D01*
X-15590130Y-3176997D01*
G37*
D11*
X-15721000Y-3383000D03*
G04 #@! TD*
D10*
G04 #@! TO.C,R605*
G36*
X-20289130Y-428997D02*
X-20279107Y-430484D01*
X-20269278Y-432946D01*
X-20259738Y-436359D01*
X-20250578Y-440692D01*
X-20241887Y-445901D01*
X-20233749Y-451937D01*
X-20226241Y-458741D01*
X-20219437Y-466249D01*
X-20213401Y-474387D01*
X-20208192Y-483078D01*
X-20203859Y-492238D01*
X-20200446Y-501778D01*
X-20197984Y-511607D01*
X-20196497Y-521630D01*
X-20196000Y-531750D01*
X-20196000Y-738250D01*
X-20196497Y-748370D01*
X-20197984Y-758393D01*
X-20200446Y-768222D01*
X-20203859Y-777762D01*
X-20208192Y-786922D01*
X-20213401Y-795613D01*
X-20219437Y-803751D01*
X-20226241Y-811259D01*
X-20233749Y-818063D01*
X-20241887Y-824099D01*
X-20250578Y-829308D01*
X-20259738Y-833641D01*
X-20269278Y-837054D01*
X-20279107Y-839516D01*
X-20289130Y-841003D01*
X-20299250Y-841500D01*
X-20540750Y-841500D01*
X-20550870Y-841003D01*
X-20560893Y-839516D01*
X-20570722Y-837054D01*
X-20580262Y-833641D01*
X-20589422Y-829308D01*
X-20598113Y-824099D01*
X-20606251Y-818063D01*
X-20613759Y-811259D01*
X-20620563Y-803751D01*
X-20626599Y-795613D01*
X-20631808Y-786922D01*
X-20636141Y-777762D01*
X-20639554Y-768222D01*
X-20642016Y-758393D01*
X-20643503Y-748370D01*
X-20644000Y-738250D01*
X-20644000Y-531750D01*
X-20643503Y-521630D01*
X-20642016Y-511607D01*
X-20639554Y-501778D01*
X-20636141Y-492238D01*
X-20631808Y-483078D01*
X-20626599Y-474387D01*
X-20620563Y-466249D01*
X-20613759Y-458741D01*
X-20606251Y-451937D01*
X-20598113Y-445901D01*
X-20589422Y-440692D01*
X-20580262Y-436359D01*
X-20570722Y-432946D01*
X-20560893Y-430484D01*
X-20550870Y-428997D01*
X-20540750Y-428500D01*
X-20299250Y-428500D01*
X-20289130Y-428997D01*
X-20289130Y-428997D01*
G37*
D11*
X-20420000Y-635000D03*
D10*
G36*
X-20289130Y-1398997D02*
X-20279107Y-1400484D01*
X-20269278Y-1402946D01*
X-20259738Y-1406359D01*
X-20250578Y-1410692D01*
X-20241887Y-1415901D01*
X-20233749Y-1421937D01*
X-20226241Y-1428741D01*
X-20219437Y-1436249D01*
X-20213401Y-1444387D01*
X-20208192Y-1453078D01*
X-20203859Y-1462238D01*
X-20200446Y-1471778D01*
X-20197984Y-1481607D01*
X-20196497Y-1491630D01*
X-20196000Y-1501750D01*
X-20196000Y-1708250D01*
X-20196497Y-1718370D01*
X-20197984Y-1728393D01*
X-20200446Y-1738222D01*
X-20203859Y-1747762D01*
X-20208192Y-1756922D01*
X-20213401Y-1765613D01*
X-20219437Y-1773751D01*
X-20226241Y-1781259D01*
X-20233749Y-1788063D01*
X-20241887Y-1794099D01*
X-20250578Y-1799308D01*
X-20259738Y-1803641D01*
X-20269278Y-1807054D01*
X-20279107Y-1809516D01*
X-20289130Y-1811003D01*
X-20299250Y-1811500D01*
X-20540750Y-1811500D01*
X-20550870Y-1811003D01*
X-20560893Y-1809516D01*
X-20570722Y-1807054D01*
X-20580262Y-1803641D01*
X-20589422Y-1799308D01*
X-20598113Y-1794099D01*
X-20606251Y-1788063D01*
X-20613759Y-1781259D01*
X-20620563Y-1773751D01*
X-20626599Y-1765613D01*
X-20631808Y-1756922D01*
X-20636141Y-1747762D01*
X-20639554Y-1738222D01*
X-20642016Y-1728393D01*
X-20643503Y-1718370D01*
X-20644000Y-1708250D01*
X-20644000Y-1501750D01*
X-20643503Y-1491630D01*
X-20642016Y-1481607D01*
X-20639554Y-1471778D01*
X-20636141Y-1462238D01*
X-20631808Y-1453078D01*
X-20626599Y-1444387D01*
X-20620563Y-1436249D01*
X-20613759Y-1428741D01*
X-20606251Y-1421937D01*
X-20598113Y-1415901D01*
X-20589422Y-1410692D01*
X-20580262Y-1406359D01*
X-20570722Y-1402946D01*
X-20560893Y-1400484D01*
X-20550870Y-1398997D01*
X-20540750Y-1398500D01*
X-20299250Y-1398500D01*
X-20289130Y-1398997D01*
X-20289130Y-1398997D01*
G37*
D11*
X-20420000Y-1605000D03*
G04 #@! TD*
D10*
G04 #@! TO.C,R606*
G36*
X-21576630Y373503D02*
X-21566607Y372016D01*
X-21556778Y369554D01*
X-21547238Y366141D01*
X-21538078Y361808D01*
X-21529387Y356599D01*
X-21521249Y350563D01*
X-21513741Y343759D01*
X-21506937Y336251D01*
X-21500901Y328113D01*
X-21495692Y319422D01*
X-21491359Y310262D01*
X-21487946Y300722D01*
X-21485484Y290893D01*
X-21483997Y280870D01*
X-21483500Y270750D01*
X-21483500Y29250D01*
X-21483997Y19130D01*
X-21485484Y9107D01*
X-21487946Y-722D01*
X-21491359Y-10262D01*
X-21495692Y-19422D01*
X-21500901Y-28113D01*
X-21506937Y-36251D01*
X-21513741Y-43759D01*
X-21521249Y-50563D01*
X-21529387Y-56599D01*
X-21538078Y-61808D01*
X-21547238Y-66141D01*
X-21556778Y-69554D01*
X-21566607Y-72016D01*
X-21576630Y-73503D01*
X-21586750Y-74000D01*
X-21793250Y-74000D01*
X-21803370Y-73503D01*
X-21813393Y-72016D01*
X-21823222Y-69554D01*
X-21832762Y-66141D01*
X-21841922Y-61808D01*
X-21850613Y-56599D01*
X-21858751Y-50563D01*
X-21866259Y-43759D01*
X-21873063Y-36251D01*
X-21879099Y-28113D01*
X-21884308Y-19422D01*
X-21888641Y-10262D01*
X-21892054Y-722D01*
X-21894516Y9107D01*
X-21896003Y19130D01*
X-21896500Y29250D01*
X-21896500Y270750D01*
X-21896003Y280870D01*
X-21894516Y290893D01*
X-21892054Y300722D01*
X-21888641Y310262D01*
X-21884308Y319422D01*
X-21879099Y328113D01*
X-21873063Y336251D01*
X-21866259Y343759D01*
X-21858751Y350563D01*
X-21850613Y356599D01*
X-21841922Y361808D01*
X-21832762Y366141D01*
X-21823222Y369554D01*
X-21813393Y372016D01*
X-21803370Y373503D01*
X-21793250Y374000D01*
X-21586750Y374000D01*
X-21576630Y373503D01*
X-21576630Y373503D01*
G37*
D11*
X-21690000Y150000D03*
D10*
G36*
X-20606630Y373503D02*
X-20596607Y372016D01*
X-20586778Y369554D01*
X-20577238Y366141D01*
X-20568078Y361808D01*
X-20559387Y356599D01*
X-20551249Y350563D01*
X-20543741Y343759D01*
X-20536937Y336251D01*
X-20530901Y328113D01*
X-20525692Y319422D01*
X-20521359Y310262D01*
X-20517946Y300722D01*
X-20515484Y290893D01*
X-20513997Y280870D01*
X-20513500Y270750D01*
X-20513500Y29250D01*
X-20513997Y19130D01*
X-20515484Y9107D01*
X-20517946Y-722D01*
X-20521359Y-10262D01*
X-20525692Y-19422D01*
X-20530901Y-28113D01*
X-20536937Y-36251D01*
X-20543741Y-43759D01*
X-20551249Y-50563D01*
X-20559387Y-56599D01*
X-20568078Y-61808D01*
X-20577238Y-66141D01*
X-20586778Y-69554D01*
X-20596607Y-72016D01*
X-20606630Y-73503D01*
X-20616750Y-74000D01*
X-20823250Y-74000D01*
X-20833370Y-73503D01*
X-20843393Y-72016D01*
X-20853222Y-69554D01*
X-20862762Y-66141D01*
X-20871922Y-61808D01*
X-20880613Y-56599D01*
X-20888751Y-50563D01*
X-20896259Y-43759D01*
X-20903063Y-36251D01*
X-20909099Y-28113D01*
X-20914308Y-19422D01*
X-20918641Y-10262D01*
X-20922054Y-722D01*
X-20924516Y9107D01*
X-20926003Y19130D01*
X-20926500Y29250D01*
X-20926500Y270750D01*
X-20926003Y280870D01*
X-20924516Y290893D01*
X-20922054Y300722D01*
X-20918641Y310262D01*
X-20914308Y319422D01*
X-20909099Y328113D01*
X-20903063Y336251D01*
X-20896259Y343759D01*
X-20888751Y350563D01*
X-20880613Y356599D01*
X-20871922Y361808D01*
X-20862762Y366141D01*
X-20853222Y369554D01*
X-20843393Y372016D01*
X-20833370Y373503D01*
X-20823250Y374000D01*
X-20616750Y374000D01*
X-20606630Y373503D01*
X-20606630Y373503D01*
G37*
D11*
X-20720000Y150000D03*
G04 #@! TD*
D10*
G04 #@! TO.C,R607*
G36*
X-20606630Y1643503D02*
X-20596607Y1642016D01*
X-20586778Y1639554D01*
X-20577238Y1636141D01*
X-20568078Y1631808D01*
X-20559387Y1626599D01*
X-20551249Y1620563D01*
X-20543741Y1613759D01*
X-20536937Y1606251D01*
X-20530901Y1598113D01*
X-20525692Y1589422D01*
X-20521359Y1580262D01*
X-20517946Y1570722D01*
X-20515484Y1560893D01*
X-20513997Y1550870D01*
X-20513500Y1540750D01*
X-20513500Y1299250D01*
X-20513997Y1289130D01*
X-20515484Y1279107D01*
X-20517946Y1269278D01*
X-20521359Y1259738D01*
X-20525692Y1250578D01*
X-20530901Y1241887D01*
X-20536937Y1233749D01*
X-20543741Y1226241D01*
X-20551249Y1219437D01*
X-20559387Y1213401D01*
X-20568078Y1208192D01*
X-20577238Y1203859D01*
X-20586778Y1200446D01*
X-20596607Y1197984D01*
X-20606630Y1196497D01*
X-20616750Y1196000D01*
X-20823250Y1196000D01*
X-20833370Y1196497D01*
X-20843393Y1197984D01*
X-20853222Y1200446D01*
X-20862762Y1203859D01*
X-20871922Y1208192D01*
X-20880613Y1213401D01*
X-20888751Y1219437D01*
X-20896259Y1226241D01*
X-20903063Y1233749D01*
X-20909099Y1241887D01*
X-20914308Y1250578D01*
X-20918641Y1259738D01*
X-20922054Y1269278D01*
X-20924516Y1279107D01*
X-20926003Y1289130D01*
X-20926500Y1299250D01*
X-20926500Y1540750D01*
X-20926003Y1550870D01*
X-20924516Y1560893D01*
X-20922054Y1570722D01*
X-20918641Y1580262D01*
X-20914308Y1589422D01*
X-20909099Y1598113D01*
X-20903063Y1606251D01*
X-20896259Y1613759D01*
X-20888751Y1620563D01*
X-20880613Y1626599D01*
X-20871922Y1631808D01*
X-20862762Y1636141D01*
X-20853222Y1639554D01*
X-20843393Y1642016D01*
X-20833370Y1643503D01*
X-20823250Y1644000D01*
X-20616750Y1644000D01*
X-20606630Y1643503D01*
X-20606630Y1643503D01*
G37*
D11*
X-20720000Y1420000D03*
D10*
G36*
X-21576630Y1643503D02*
X-21566607Y1642016D01*
X-21556778Y1639554D01*
X-21547238Y1636141D01*
X-21538078Y1631808D01*
X-21529387Y1626599D01*
X-21521249Y1620563D01*
X-21513741Y1613759D01*
X-21506937Y1606251D01*
X-21500901Y1598113D01*
X-21495692Y1589422D01*
X-21491359Y1580262D01*
X-21487946Y1570722D01*
X-21485484Y1560893D01*
X-21483997Y1550870D01*
X-21483500Y1540750D01*
X-21483500Y1299250D01*
X-21483997Y1289130D01*
X-21485484Y1279107D01*
X-21487946Y1269278D01*
X-21491359Y1259738D01*
X-21495692Y1250578D01*
X-21500901Y1241887D01*
X-21506937Y1233749D01*
X-21513741Y1226241D01*
X-21521249Y1219437D01*
X-21529387Y1213401D01*
X-21538078Y1208192D01*
X-21547238Y1203859D01*
X-21556778Y1200446D01*
X-21566607Y1197984D01*
X-21576630Y1196497D01*
X-21586750Y1196000D01*
X-21793250Y1196000D01*
X-21803370Y1196497D01*
X-21813393Y1197984D01*
X-21823222Y1200446D01*
X-21832762Y1203859D01*
X-21841922Y1208192D01*
X-21850613Y1213401D01*
X-21858751Y1219437D01*
X-21866259Y1226241D01*
X-21873063Y1233749D01*
X-21879099Y1241887D01*
X-21884308Y1250578D01*
X-21888641Y1259738D01*
X-21892054Y1269278D01*
X-21894516Y1279107D01*
X-21896003Y1289130D01*
X-21896500Y1299250D01*
X-21896500Y1540750D01*
X-21896003Y1550870D01*
X-21894516Y1560893D01*
X-21892054Y1570722D01*
X-21888641Y1580262D01*
X-21884308Y1589422D01*
X-21879099Y1598113D01*
X-21873063Y1606251D01*
X-21866259Y1613759D01*
X-21858751Y1620563D01*
X-21850613Y1626599D01*
X-21841922Y1631808D01*
X-21832762Y1636141D01*
X-21823222Y1639554D01*
X-21813393Y1642016D01*
X-21803370Y1643503D01*
X-21793250Y1644000D01*
X-21586750Y1644000D01*
X-21576630Y1643503D01*
X-21576630Y1643503D01*
G37*
D11*
X-21690000Y1420000D03*
G04 #@! TD*
D10*
G04 #@! TO.C,R608*
G36*
X-19019130Y-1398997D02*
X-19009107Y-1400484D01*
X-18999278Y-1402946D01*
X-18989738Y-1406359D01*
X-18980578Y-1410692D01*
X-18971887Y-1415901D01*
X-18963749Y-1421937D01*
X-18956241Y-1428741D01*
X-18949437Y-1436249D01*
X-18943401Y-1444387D01*
X-18938192Y-1453078D01*
X-18933859Y-1462238D01*
X-18930446Y-1471778D01*
X-18927984Y-1481607D01*
X-18926497Y-1491630D01*
X-18926000Y-1501750D01*
X-18926000Y-1708250D01*
X-18926497Y-1718370D01*
X-18927984Y-1728393D01*
X-18930446Y-1738222D01*
X-18933859Y-1747762D01*
X-18938192Y-1756922D01*
X-18943401Y-1765613D01*
X-18949437Y-1773751D01*
X-18956241Y-1781259D01*
X-18963749Y-1788063D01*
X-18971887Y-1794099D01*
X-18980578Y-1799308D01*
X-18989738Y-1803641D01*
X-18999278Y-1807054D01*
X-19009107Y-1809516D01*
X-19019130Y-1811003D01*
X-19029250Y-1811500D01*
X-19270750Y-1811500D01*
X-19280870Y-1811003D01*
X-19290893Y-1809516D01*
X-19300722Y-1807054D01*
X-19310262Y-1803641D01*
X-19319422Y-1799308D01*
X-19328113Y-1794099D01*
X-19336251Y-1788063D01*
X-19343759Y-1781259D01*
X-19350563Y-1773751D01*
X-19356599Y-1765613D01*
X-19361808Y-1756922D01*
X-19366141Y-1747762D01*
X-19369554Y-1738222D01*
X-19372016Y-1728393D01*
X-19373503Y-1718370D01*
X-19374000Y-1708250D01*
X-19374000Y-1501750D01*
X-19373503Y-1491630D01*
X-19372016Y-1481607D01*
X-19369554Y-1471778D01*
X-19366141Y-1462238D01*
X-19361808Y-1453078D01*
X-19356599Y-1444387D01*
X-19350563Y-1436249D01*
X-19343759Y-1428741D01*
X-19336251Y-1421937D01*
X-19328113Y-1415901D01*
X-19319422Y-1410692D01*
X-19310262Y-1406359D01*
X-19300722Y-1402946D01*
X-19290893Y-1400484D01*
X-19280870Y-1398997D01*
X-19270750Y-1398500D01*
X-19029250Y-1398500D01*
X-19019130Y-1398997D01*
X-19019130Y-1398997D01*
G37*
D11*
X-19150000Y-1605000D03*
D10*
G36*
X-19019130Y-428997D02*
X-19009107Y-430484D01*
X-18999278Y-432946D01*
X-18989738Y-436359D01*
X-18980578Y-440692D01*
X-18971887Y-445901D01*
X-18963749Y-451937D01*
X-18956241Y-458741D01*
X-18949437Y-466249D01*
X-18943401Y-474387D01*
X-18938192Y-483078D01*
X-18933859Y-492238D01*
X-18930446Y-501778D01*
X-18927984Y-511607D01*
X-18926497Y-521630D01*
X-18926000Y-531750D01*
X-18926000Y-738250D01*
X-18926497Y-748370D01*
X-18927984Y-758393D01*
X-18930446Y-768222D01*
X-18933859Y-777762D01*
X-18938192Y-786922D01*
X-18943401Y-795613D01*
X-18949437Y-803751D01*
X-18956241Y-811259D01*
X-18963749Y-818063D01*
X-18971887Y-824099D01*
X-18980578Y-829308D01*
X-18989738Y-833641D01*
X-18999278Y-837054D01*
X-19009107Y-839516D01*
X-19019130Y-841003D01*
X-19029250Y-841500D01*
X-19270750Y-841500D01*
X-19280870Y-841003D01*
X-19290893Y-839516D01*
X-19300722Y-837054D01*
X-19310262Y-833641D01*
X-19319422Y-829308D01*
X-19328113Y-824099D01*
X-19336251Y-818063D01*
X-19343759Y-811259D01*
X-19350563Y-803751D01*
X-19356599Y-795613D01*
X-19361808Y-786922D01*
X-19366141Y-777762D01*
X-19369554Y-768222D01*
X-19372016Y-758393D01*
X-19373503Y-748370D01*
X-19374000Y-738250D01*
X-19374000Y-531750D01*
X-19373503Y-521630D01*
X-19372016Y-511607D01*
X-19369554Y-501778D01*
X-19366141Y-492238D01*
X-19361808Y-483078D01*
X-19356599Y-474387D01*
X-19350563Y-466249D01*
X-19343759Y-458741D01*
X-19336251Y-451937D01*
X-19328113Y-445901D01*
X-19319422Y-440692D01*
X-19310262Y-436359D01*
X-19300722Y-432946D01*
X-19290893Y-430484D01*
X-19280870Y-428997D01*
X-19270750Y-428500D01*
X-19029250Y-428500D01*
X-19019130Y-428997D01*
X-19019130Y-428997D01*
G37*
D11*
X-19150000Y-635000D03*
G04 #@! TD*
D16*
G04 #@! TO.C,U101*
X-38781000Y-8594000D03*
X-38381000Y-8594000D03*
X-38781000Y-8994000D03*
X-38381000Y-8994000D03*
X-38781000Y-9394000D03*
X-38381000Y-9394000D03*
G04 #@! TD*
G04 #@! TO.C,U102*
X-38381000Y-6346000D03*
X-38781000Y-6346000D03*
X-38381000Y-5946000D03*
X-38781000Y-5946000D03*
X-38381000Y-5546000D03*
X-38781000Y-5546000D03*
G04 #@! TD*
D17*
G04 #@! TO.C,U301*
X12255000Y-2850000D03*
X12755000Y-2850000D03*
X13255000Y-2850000D03*
X13755000Y-2850000D03*
X14255000Y-2850000D03*
X14755000Y-2850000D03*
X15255000Y-2850000D03*
X15755000Y-2850000D03*
X16255000Y-2850000D03*
X16755000Y-2850000D03*
D18*
X17505000Y-2100000D03*
X17505000Y-1600000D03*
X17505000Y-1100000D03*
X17505000Y-600000D03*
X17505000Y-100000D03*
X17505000Y400000D03*
X17505000Y900000D03*
X17505000Y1400000D03*
X17505000Y1900000D03*
X17505000Y2400000D03*
D17*
X16755000Y3150000D03*
X16255000Y3150000D03*
X15755000Y3150000D03*
X15255000Y3150000D03*
X14755000Y3150000D03*
X14255000Y3150000D03*
X13755000Y3150000D03*
X13255000Y3150000D03*
X12755000Y3150000D03*
X12255000Y3150000D03*
D18*
X11505000Y2400000D03*
X11505000Y1900000D03*
X11505000Y1400000D03*
X11505000Y900000D03*
X11505000Y400000D03*
X11505000Y-100000D03*
X11505000Y-600000D03*
X11505000Y-1100000D03*
X11505000Y-1600000D03*
X11505000Y-2100000D03*
D19*
X16230000Y-1575000D03*
X16230000Y-425000D03*
X16230000Y725000D03*
X16230000Y1875000D03*
X15080000Y1875000D03*
X15080000Y725000D03*
X15080000Y-425000D03*
X15080000Y-1575000D03*
X13930000Y1875000D03*
X13930000Y725000D03*
X13930000Y-425000D03*
X13930000Y-1575000D03*
X12780000Y1875000D03*
X12780000Y725000D03*
X12780000Y-425000D03*
X12780000Y-1575000D03*
G04 #@! TD*
D20*
G04 #@! TO.C,U401*
X-35576000Y-2735000D03*
X-35576000Y-2085000D03*
X-35576000Y-1425000D03*
X-35576000Y-775000D03*
X-37776000Y-775000D03*
X-37776000Y-1425000D03*
X-37776000Y-2085000D03*
X-37776000Y-2735000D03*
G04 #@! TD*
D21*
G04 #@! TO.C,U501*
X-3148000Y-12304000D03*
X-3648000Y-12304000D03*
X-3648000Y-12804000D03*
X-3648000Y-13304000D03*
X-3148000Y-13304000D03*
X-2648000Y-13304000D03*
X-2648000Y-12804000D03*
X-2648000Y-12304000D03*
G04 #@! TD*
D22*
G04 #@! TO.C,U601*
X-17445000Y5440000D03*
X-17445000Y4940000D03*
X-17445000Y4440000D03*
X-17445000Y3940000D03*
X-17445000Y3440000D03*
X-17445000Y2940000D03*
X-17445000Y2440000D03*
X-17445000Y1940000D03*
X-17445000Y1440000D03*
X-17445000Y940000D03*
X-17445000Y440000D03*
X-17445000Y-60000D03*
D23*
X-16820000Y-685000D03*
X-16320000Y-685000D03*
X-15820000Y-685000D03*
X-15320000Y-685000D03*
X-14820000Y-685000D03*
X-14320000Y-685000D03*
X-13820000Y-685000D03*
X-13320000Y-685000D03*
X-12820000Y-685000D03*
X-12320000Y-685000D03*
X-11820000Y-685000D03*
X-11320000Y-685000D03*
D22*
X-10695000Y-60000D03*
X-10695000Y440000D03*
X-10695000Y940000D03*
X-10695000Y1440000D03*
X-10695000Y1940000D03*
X-10695000Y2440000D03*
X-10695000Y2940000D03*
X-10695000Y3440000D03*
X-10695000Y3940000D03*
X-10695000Y4440000D03*
X-10695000Y4940000D03*
X-10695000Y5440000D03*
D23*
X-11320000Y6065000D03*
X-11820000Y6065000D03*
X-12320000Y6065000D03*
X-12820000Y6065000D03*
X-13320000Y6065000D03*
X-13820000Y6065000D03*
X-14320000Y6065000D03*
X-14820000Y6065000D03*
X-15320000Y6065000D03*
X-15820000Y6065000D03*
X-16320000Y6065000D03*
X-16820000Y6065000D03*
D24*
X-16170000Y4790000D03*
X-16170000Y3390000D03*
X-16170000Y1990000D03*
X-16170000Y590000D03*
X-14770000Y4790000D03*
X-14770000Y3390000D03*
X-14770000Y1990000D03*
X-14770000Y590000D03*
X-13370000Y4790000D03*
X-13370000Y3390000D03*
X-13370000Y1990000D03*
X-13370000Y590000D03*
X-11970000Y4790000D03*
X-11970000Y3390000D03*
X-11970000Y1990000D03*
X-11970000Y590000D03*
G04 #@! TD*
D10*
G04 #@! TO.C,R203*
G36*
X-41492630Y14978503D02*
X-41482607Y14977016D01*
X-41472778Y14974554D01*
X-41463238Y14971141D01*
X-41454078Y14966808D01*
X-41445387Y14961599D01*
X-41437249Y14955563D01*
X-41429741Y14948759D01*
X-41422937Y14941251D01*
X-41416901Y14933113D01*
X-41411692Y14924422D01*
X-41407359Y14915262D01*
X-41403946Y14905722D01*
X-41401484Y14895893D01*
X-41399997Y14885870D01*
X-41399500Y14875750D01*
X-41399500Y14634250D01*
X-41399997Y14624130D01*
X-41401484Y14614107D01*
X-41403946Y14604278D01*
X-41407359Y14594738D01*
X-41411692Y14585578D01*
X-41416901Y14576887D01*
X-41422937Y14568749D01*
X-41429741Y14561241D01*
X-41437249Y14554437D01*
X-41445387Y14548401D01*
X-41454078Y14543192D01*
X-41463238Y14538859D01*
X-41472778Y14535446D01*
X-41482607Y14532984D01*
X-41492630Y14531497D01*
X-41502750Y14531000D01*
X-41709250Y14531000D01*
X-41719370Y14531497D01*
X-41729393Y14532984D01*
X-41739222Y14535446D01*
X-41748762Y14538859D01*
X-41757922Y14543192D01*
X-41766613Y14548401D01*
X-41774751Y14554437D01*
X-41782259Y14561241D01*
X-41789063Y14568749D01*
X-41795099Y14576887D01*
X-41800308Y14585578D01*
X-41804641Y14594738D01*
X-41808054Y14604278D01*
X-41810516Y14614107D01*
X-41812003Y14624130D01*
X-41812500Y14634250D01*
X-41812500Y14875750D01*
X-41812003Y14885870D01*
X-41810516Y14895893D01*
X-41808054Y14905722D01*
X-41804641Y14915262D01*
X-41800308Y14924422D01*
X-41795099Y14933113D01*
X-41789063Y14941251D01*
X-41782259Y14948759D01*
X-41774751Y14955563D01*
X-41766613Y14961599D01*
X-41757922Y14966808D01*
X-41748762Y14971141D01*
X-41739222Y14974554D01*
X-41729393Y14977016D01*
X-41719370Y14978503D01*
X-41709250Y14979000D01*
X-41502750Y14979000D01*
X-41492630Y14978503D01*
X-41492630Y14978503D01*
G37*
D11*
X-41606000Y14755000D03*
D10*
G36*
X-40522630Y14978503D02*
X-40512607Y14977016D01*
X-40502778Y14974554D01*
X-40493238Y14971141D01*
X-40484078Y14966808D01*
X-40475387Y14961599D01*
X-40467249Y14955563D01*
X-40459741Y14948759D01*
X-40452937Y14941251D01*
X-40446901Y14933113D01*
X-40441692Y14924422D01*
X-40437359Y14915262D01*
X-40433946Y14905722D01*
X-40431484Y14895893D01*
X-40429997Y14885870D01*
X-40429500Y14875750D01*
X-40429500Y14634250D01*
X-40429997Y14624130D01*
X-40431484Y14614107D01*
X-40433946Y14604278D01*
X-40437359Y14594738D01*
X-40441692Y14585578D01*
X-40446901Y14576887D01*
X-40452937Y14568749D01*
X-40459741Y14561241D01*
X-40467249Y14554437D01*
X-40475387Y14548401D01*
X-40484078Y14543192D01*
X-40493238Y14538859D01*
X-40502778Y14535446D01*
X-40512607Y14532984D01*
X-40522630Y14531497D01*
X-40532750Y14531000D01*
X-40739250Y14531000D01*
X-40749370Y14531497D01*
X-40759393Y14532984D01*
X-40769222Y14535446D01*
X-40778762Y14538859D01*
X-40787922Y14543192D01*
X-40796613Y14548401D01*
X-40804751Y14554437D01*
X-40812259Y14561241D01*
X-40819063Y14568749D01*
X-40825099Y14576887D01*
X-40830308Y14585578D01*
X-40834641Y14594738D01*
X-40838054Y14604278D01*
X-40840516Y14614107D01*
X-40842003Y14624130D01*
X-40842500Y14634250D01*
X-40842500Y14875750D01*
X-40842003Y14885870D01*
X-40840516Y14895893D01*
X-40838054Y14905722D01*
X-40834641Y14915262D01*
X-40830308Y14924422D01*
X-40825099Y14933113D01*
X-40819063Y14941251D01*
X-40812259Y14948759D01*
X-40804751Y14955563D01*
X-40796613Y14961599D01*
X-40787922Y14966808D01*
X-40778762Y14971141D01*
X-40769222Y14974554D01*
X-40759393Y14977016D01*
X-40749370Y14978503D01*
X-40739250Y14979000D01*
X-40532750Y14979000D01*
X-40522630Y14978503D01*
X-40522630Y14978503D01*
G37*
D11*
X-40636000Y14755000D03*
G04 #@! TD*
D10*
G04 #@! TO.C,R204*
G36*
X-38952630Y14978503D02*
X-38942607Y14977016D01*
X-38932778Y14974554D01*
X-38923238Y14971141D01*
X-38914078Y14966808D01*
X-38905387Y14961599D01*
X-38897249Y14955563D01*
X-38889741Y14948759D01*
X-38882937Y14941251D01*
X-38876901Y14933113D01*
X-38871692Y14924422D01*
X-38867359Y14915262D01*
X-38863946Y14905722D01*
X-38861484Y14895893D01*
X-38859997Y14885870D01*
X-38859500Y14875750D01*
X-38859500Y14634250D01*
X-38859997Y14624130D01*
X-38861484Y14614107D01*
X-38863946Y14604278D01*
X-38867359Y14594738D01*
X-38871692Y14585578D01*
X-38876901Y14576887D01*
X-38882937Y14568749D01*
X-38889741Y14561241D01*
X-38897249Y14554437D01*
X-38905387Y14548401D01*
X-38914078Y14543192D01*
X-38923238Y14538859D01*
X-38932778Y14535446D01*
X-38942607Y14532984D01*
X-38952630Y14531497D01*
X-38962750Y14531000D01*
X-39169250Y14531000D01*
X-39179370Y14531497D01*
X-39189393Y14532984D01*
X-39199222Y14535446D01*
X-39208762Y14538859D01*
X-39217922Y14543192D01*
X-39226613Y14548401D01*
X-39234751Y14554437D01*
X-39242259Y14561241D01*
X-39249063Y14568749D01*
X-39255099Y14576887D01*
X-39260308Y14585578D01*
X-39264641Y14594738D01*
X-39268054Y14604278D01*
X-39270516Y14614107D01*
X-39272003Y14624130D01*
X-39272500Y14634250D01*
X-39272500Y14875750D01*
X-39272003Y14885870D01*
X-39270516Y14895893D01*
X-39268054Y14905722D01*
X-39264641Y14915262D01*
X-39260308Y14924422D01*
X-39255099Y14933113D01*
X-39249063Y14941251D01*
X-39242259Y14948759D01*
X-39234751Y14955563D01*
X-39226613Y14961599D01*
X-39217922Y14966808D01*
X-39208762Y14971141D01*
X-39199222Y14974554D01*
X-39189393Y14977016D01*
X-39179370Y14978503D01*
X-39169250Y14979000D01*
X-38962750Y14979000D01*
X-38952630Y14978503D01*
X-38952630Y14978503D01*
G37*
D11*
X-39066000Y14755000D03*
D10*
G36*
X-37982630Y14978503D02*
X-37972607Y14977016D01*
X-37962778Y14974554D01*
X-37953238Y14971141D01*
X-37944078Y14966808D01*
X-37935387Y14961599D01*
X-37927249Y14955563D01*
X-37919741Y14948759D01*
X-37912937Y14941251D01*
X-37906901Y14933113D01*
X-37901692Y14924422D01*
X-37897359Y14915262D01*
X-37893946Y14905722D01*
X-37891484Y14895893D01*
X-37889997Y14885870D01*
X-37889500Y14875750D01*
X-37889500Y14634250D01*
X-37889997Y14624130D01*
X-37891484Y14614107D01*
X-37893946Y14604278D01*
X-37897359Y14594738D01*
X-37901692Y14585578D01*
X-37906901Y14576887D01*
X-37912937Y14568749D01*
X-37919741Y14561241D01*
X-37927249Y14554437D01*
X-37935387Y14548401D01*
X-37944078Y14543192D01*
X-37953238Y14538859D01*
X-37962778Y14535446D01*
X-37972607Y14532984D01*
X-37982630Y14531497D01*
X-37992750Y14531000D01*
X-38199250Y14531000D01*
X-38209370Y14531497D01*
X-38219393Y14532984D01*
X-38229222Y14535446D01*
X-38238762Y14538859D01*
X-38247922Y14543192D01*
X-38256613Y14548401D01*
X-38264751Y14554437D01*
X-38272259Y14561241D01*
X-38279063Y14568749D01*
X-38285099Y14576887D01*
X-38290308Y14585578D01*
X-38294641Y14594738D01*
X-38298054Y14604278D01*
X-38300516Y14614107D01*
X-38302003Y14624130D01*
X-38302500Y14634250D01*
X-38302500Y14875750D01*
X-38302003Y14885870D01*
X-38300516Y14895893D01*
X-38298054Y14905722D01*
X-38294641Y14915262D01*
X-38290308Y14924422D01*
X-38285099Y14933113D01*
X-38279063Y14941251D01*
X-38272259Y14948759D01*
X-38264751Y14955563D01*
X-38256613Y14961599D01*
X-38247922Y14966808D01*
X-38238762Y14971141D01*
X-38229222Y14974554D01*
X-38219393Y14977016D01*
X-38209370Y14978503D01*
X-38199250Y14979000D01*
X-37992750Y14979000D01*
X-37982630Y14978503D01*
X-37982630Y14978503D01*
G37*
D11*
X-38096000Y14755000D03*
G04 #@! TD*
D10*
G04 #@! TO.C,R205*
G36*
X-33872630Y14978503D02*
X-33862607Y14977016D01*
X-33852778Y14974554D01*
X-33843238Y14971141D01*
X-33834078Y14966808D01*
X-33825387Y14961599D01*
X-33817249Y14955563D01*
X-33809741Y14948759D01*
X-33802937Y14941251D01*
X-33796901Y14933113D01*
X-33791692Y14924422D01*
X-33787359Y14915262D01*
X-33783946Y14905722D01*
X-33781484Y14895893D01*
X-33779997Y14885870D01*
X-33779500Y14875750D01*
X-33779500Y14634250D01*
X-33779997Y14624130D01*
X-33781484Y14614107D01*
X-33783946Y14604278D01*
X-33787359Y14594738D01*
X-33791692Y14585578D01*
X-33796901Y14576887D01*
X-33802937Y14568749D01*
X-33809741Y14561241D01*
X-33817249Y14554437D01*
X-33825387Y14548401D01*
X-33834078Y14543192D01*
X-33843238Y14538859D01*
X-33852778Y14535446D01*
X-33862607Y14532984D01*
X-33872630Y14531497D01*
X-33882750Y14531000D01*
X-34089250Y14531000D01*
X-34099370Y14531497D01*
X-34109393Y14532984D01*
X-34119222Y14535446D01*
X-34128762Y14538859D01*
X-34137922Y14543192D01*
X-34146613Y14548401D01*
X-34154751Y14554437D01*
X-34162259Y14561241D01*
X-34169063Y14568749D01*
X-34175099Y14576887D01*
X-34180308Y14585578D01*
X-34184641Y14594738D01*
X-34188054Y14604278D01*
X-34190516Y14614107D01*
X-34192003Y14624130D01*
X-34192500Y14634250D01*
X-34192500Y14875750D01*
X-34192003Y14885870D01*
X-34190516Y14895893D01*
X-34188054Y14905722D01*
X-34184641Y14915262D01*
X-34180308Y14924422D01*
X-34175099Y14933113D01*
X-34169063Y14941251D01*
X-34162259Y14948759D01*
X-34154751Y14955563D01*
X-34146613Y14961599D01*
X-34137922Y14966808D01*
X-34128762Y14971141D01*
X-34119222Y14974554D01*
X-34109393Y14977016D01*
X-34099370Y14978503D01*
X-34089250Y14979000D01*
X-33882750Y14979000D01*
X-33872630Y14978503D01*
X-33872630Y14978503D01*
G37*
D11*
X-33986000Y14755000D03*
D10*
G36*
X-32902630Y14978503D02*
X-32892607Y14977016D01*
X-32882778Y14974554D01*
X-32873238Y14971141D01*
X-32864078Y14966808D01*
X-32855387Y14961599D01*
X-32847249Y14955563D01*
X-32839741Y14948759D01*
X-32832937Y14941251D01*
X-32826901Y14933113D01*
X-32821692Y14924422D01*
X-32817359Y14915262D01*
X-32813946Y14905722D01*
X-32811484Y14895893D01*
X-32809997Y14885870D01*
X-32809500Y14875750D01*
X-32809500Y14634250D01*
X-32809997Y14624130D01*
X-32811484Y14614107D01*
X-32813946Y14604278D01*
X-32817359Y14594738D01*
X-32821692Y14585578D01*
X-32826901Y14576887D01*
X-32832937Y14568749D01*
X-32839741Y14561241D01*
X-32847249Y14554437D01*
X-32855387Y14548401D01*
X-32864078Y14543192D01*
X-32873238Y14538859D01*
X-32882778Y14535446D01*
X-32892607Y14532984D01*
X-32902630Y14531497D01*
X-32912750Y14531000D01*
X-33119250Y14531000D01*
X-33129370Y14531497D01*
X-33139393Y14532984D01*
X-33149222Y14535446D01*
X-33158762Y14538859D01*
X-33167922Y14543192D01*
X-33176613Y14548401D01*
X-33184751Y14554437D01*
X-33192259Y14561241D01*
X-33199063Y14568749D01*
X-33205099Y14576887D01*
X-33210308Y14585578D01*
X-33214641Y14594738D01*
X-33218054Y14604278D01*
X-33220516Y14614107D01*
X-33222003Y14624130D01*
X-33222500Y14634250D01*
X-33222500Y14875750D01*
X-33222003Y14885870D01*
X-33220516Y14895893D01*
X-33218054Y14905722D01*
X-33214641Y14915262D01*
X-33210308Y14924422D01*
X-33205099Y14933113D01*
X-33199063Y14941251D01*
X-33192259Y14948759D01*
X-33184751Y14955563D01*
X-33176613Y14961599D01*
X-33167922Y14966808D01*
X-33158762Y14971141D01*
X-33149222Y14974554D01*
X-33139393Y14977016D01*
X-33129370Y14978503D01*
X-33119250Y14979000D01*
X-32912750Y14979000D01*
X-32902630Y14978503D01*
X-32902630Y14978503D01*
G37*
D11*
X-33016000Y14755000D03*
G04 #@! TD*
D10*
G04 #@! TO.C,R206*
G36*
X-31332630Y14978503D02*
X-31322607Y14977016D01*
X-31312778Y14974554D01*
X-31303238Y14971141D01*
X-31294078Y14966808D01*
X-31285387Y14961599D01*
X-31277249Y14955563D01*
X-31269741Y14948759D01*
X-31262937Y14941251D01*
X-31256901Y14933113D01*
X-31251692Y14924422D01*
X-31247359Y14915262D01*
X-31243946Y14905722D01*
X-31241484Y14895893D01*
X-31239997Y14885870D01*
X-31239500Y14875750D01*
X-31239500Y14634250D01*
X-31239997Y14624130D01*
X-31241484Y14614107D01*
X-31243946Y14604278D01*
X-31247359Y14594738D01*
X-31251692Y14585578D01*
X-31256901Y14576887D01*
X-31262937Y14568749D01*
X-31269741Y14561241D01*
X-31277249Y14554437D01*
X-31285387Y14548401D01*
X-31294078Y14543192D01*
X-31303238Y14538859D01*
X-31312778Y14535446D01*
X-31322607Y14532984D01*
X-31332630Y14531497D01*
X-31342750Y14531000D01*
X-31549250Y14531000D01*
X-31559370Y14531497D01*
X-31569393Y14532984D01*
X-31579222Y14535446D01*
X-31588762Y14538859D01*
X-31597922Y14543192D01*
X-31606613Y14548401D01*
X-31614751Y14554437D01*
X-31622259Y14561241D01*
X-31629063Y14568749D01*
X-31635099Y14576887D01*
X-31640308Y14585578D01*
X-31644641Y14594738D01*
X-31648054Y14604278D01*
X-31650516Y14614107D01*
X-31652003Y14624130D01*
X-31652500Y14634250D01*
X-31652500Y14875750D01*
X-31652003Y14885870D01*
X-31650516Y14895893D01*
X-31648054Y14905722D01*
X-31644641Y14915262D01*
X-31640308Y14924422D01*
X-31635099Y14933113D01*
X-31629063Y14941251D01*
X-31622259Y14948759D01*
X-31614751Y14955563D01*
X-31606613Y14961599D01*
X-31597922Y14966808D01*
X-31588762Y14971141D01*
X-31579222Y14974554D01*
X-31569393Y14977016D01*
X-31559370Y14978503D01*
X-31549250Y14979000D01*
X-31342750Y14979000D01*
X-31332630Y14978503D01*
X-31332630Y14978503D01*
G37*
D11*
X-31446000Y14755000D03*
D10*
G36*
X-30362630Y14978503D02*
X-30352607Y14977016D01*
X-30342778Y14974554D01*
X-30333238Y14971141D01*
X-30324078Y14966808D01*
X-30315387Y14961599D01*
X-30307249Y14955563D01*
X-30299741Y14948759D01*
X-30292937Y14941251D01*
X-30286901Y14933113D01*
X-30281692Y14924422D01*
X-30277359Y14915262D01*
X-30273946Y14905722D01*
X-30271484Y14895893D01*
X-30269997Y14885870D01*
X-30269500Y14875750D01*
X-30269500Y14634250D01*
X-30269997Y14624130D01*
X-30271484Y14614107D01*
X-30273946Y14604278D01*
X-30277359Y14594738D01*
X-30281692Y14585578D01*
X-30286901Y14576887D01*
X-30292937Y14568749D01*
X-30299741Y14561241D01*
X-30307249Y14554437D01*
X-30315387Y14548401D01*
X-30324078Y14543192D01*
X-30333238Y14538859D01*
X-30342778Y14535446D01*
X-30352607Y14532984D01*
X-30362630Y14531497D01*
X-30372750Y14531000D01*
X-30579250Y14531000D01*
X-30589370Y14531497D01*
X-30599393Y14532984D01*
X-30609222Y14535446D01*
X-30618762Y14538859D01*
X-30627922Y14543192D01*
X-30636613Y14548401D01*
X-30644751Y14554437D01*
X-30652259Y14561241D01*
X-30659063Y14568749D01*
X-30665099Y14576887D01*
X-30670308Y14585578D01*
X-30674641Y14594738D01*
X-30678054Y14604278D01*
X-30680516Y14614107D01*
X-30682003Y14624130D01*
X-30682500Y14634250D01*
X-30682500Y14875750D01*
X-30682003Y14885870D01*
X-30680516Y14895893D01*
X-30678054Y14905722D01*
X-30674641Y14915262D01*
X-30670308Y14924422D01*
X-30665099Y14933113D01*
X-30659063Y14941251D01*
X-30652259Y14948759D01*
X-30644751Y14955563D01*
X-30636613Y14961599D01*
X-30627922Y14966808D01*
X-30618762Y14971141D01*
X-30609222Y14974554D01*
X-30599393Y14977016D01*
X-30589370Y14978503D01*
X-30579250Y14979000D01*
X-30372750Y14979000D01*
X-30362630Y14978503D01*
X-30362630Y14978503D01*
G37*
D11*
X-30476000Y14755000D03*
G04 #@! TD*
D10*
G04 #@! TO.C,R108*
G36*
X15738370Y5580503D02*
X15748393Y5579016D01*
X15758222Y5576554D01*
X15767762Y5573141D01*
X15776922Y5568808D01*
X15785613Y5563599D01*
X15793751Y5557563D01*
X15801259Y5550759D01*
X15808063Y5543251D01*
X15814099Y5535113D01*
X15819308Y5526422D01*
X15823641Y5517262D01*
X15827054Y5507722D01*
X15829516Y5497893D01*
X15831003Y5487870D01*
X15831500Y5477750D01*
X15831500Y5236250D01*
X15831003Y5226130D01*
X15829516Y5216107D01*
X15827054Y5206278D01*
X15823641Y5196738D01*
X15819308Y5187578D01*
X15814099Y5178887D01*
X15808063Y5170749D01*
X15801259Y5163241D01*
X15793751Y5156437D01*
X15785613Y5150401D01*
X15776922Y5145192D01*
X15767762Y5140859D01*
X15758222Y5137446D01*
X15748393Y5134984D01*
X15738370Y5133497D01*
X15728250Y5133000D01*
X15521750Y5133000D01*
X15511630Y5133497D01*
X15501607Y5134984D01*
X15491778Y5137446D01*
X15482238Y5140859D01*
X15473078Y5145192D01*
X15464387Y5150401D01*
X15456249Y5156437D01*
X15448741Y5163241D01*
X15441937Y5170749D01*
X15435901Y5178887D01*
X15430692Y5187578D01*
X15426359Y5196738D01*
X15422946Y5206278D01*
X15420484Y5216107D01*
X15418997Y5226130D01*
X15418500Y5236250D01*
X15418500Y5477750D01*
X15418997Y5487870D01*
X15420484Y5497893D01*
X15422946Y5507722D01*
X15426359Y5517262D01*
X15430692Y5526422D01*
X15435901Y5535113D01*
X15441937Y5543251D01*
X15448741Y5550759D01*
X15456249Y5557563D01*
X15464387Y5563599D01*
X15473078Y5568808D01*
X15482238Y5573141D01*
X15491778Y5576554D01*
X15501607Y5579016D01*
X15511630Y5580503D01*
X15521750Y5581000D01*
X15728250Y5581000D01*
X15738370Y5580503D01*
X15738370Y5580503D01*
G37*
D11*
X15625000Y5357000D03*
D10*
G36*
X14768370Y5580503D02*
X14778393Y5579016D01*
X14788222Y5576554D01*
X14797762Y5573141D01*
X14806922Y5568808D01*
X14815613Y5563599D01*
X14823751Y5557563D01*
X14831259Y5550759D01*
X14838063Y5543251D01*
X14844099Y5535113D01*
X14849308Y5526422D01*
X14853641Y5517262D01*
X14857054Y5507722D01*
X14859516Y5497893D01*
X14861003Y5487870D01*
X14861500Y5477750D01*
X14861500Y5236250D01*
X14861003Y5226130D01*
X14859516Y5216107D01*
X14857054Y5206278D01*
X14853641Y5196738D01*
X14849308Y5187578D01*
X14844099Y5178887D01*
X14838063Y5170749D01*
X14831259Y5163241D01*
X14823751Y5156437D01*
X14815613Y5150401D01*
X14806922Y5145192D01*
X14797762Y5140859D01*
X14788222Y5137446D01*
X14778393Y5134984D01*
X14768370Y5133497D01*
X14758250Y5133000D01*
X14551750Y5133000D01*
X14541630Y5133497D01*
X14531607Y5134984D01*
X14521778Y5137446D01*
X14512238Y5140859D01*
X14503078Y5145192D01*
X14494387Y5150401D01*
X14486249Y5156437D01*
X14478741Y5163241D01*
X14471937Y5170749D01*
X14465901Y5178887D01*
X14460692Y5187578D01*
X14456359Y5196738D01*
X14452946Y5206278D01*
X14450484Y5216107D01*
X14448997Y5226130D01*
X14448500Y5236250D01*
X14448500Y5477750D01*
X14448997Y5487870D01*
X14450484Y5497893D01*
X14452946Y5507722D01*
X14456359Y5517262D01*
X14460692Y5526422D01*
X14465901Y5535113D01*
X14471937Y5543251D01*
X14478741Y5550759D01*
X14486249Y5557563D01*
X14494387Y5563599D01*
X14503078Y5568808D01*
X14512238Y5573141D01*
X14521778Y5576554D01*
X14531607Y5579016D01*
X14541630Y5580503D01*
X14551750Y5581000D01*
X14758250Y5581000D01*
X14768370Y5580503D01*
X14768370Y5580503D01*
G37*
D11*
X14655000Y5357000D03*
G04 #@! TD*
D10*
G04 #@! TO.C,C202*
G36*
X-45562130Y3635003D02*
X-45552107Y3633516D01*
X-45542278Y3631054D01*
X-45532738Y3627641D01*
X-45523578Y3623308D01*
X-45514887Y3618099D01*
X-45506749Y3612063D01*
X-45499241Y3605259D01*
X-45492437Y3597751D01*
X-45486401Y3589613D01*
X-45481192Y3580922D01*
X-45476859Y3571762D01*
X-45473446Y3562222D01*
X-45470984Y3552393D01*
X-45469497Y3542370D01*
X-45469000Y3532250D01*
X-45469000Y3325750D01*
X-45469497Y3315630D01*
X-45470984Y3305607D01*
X-45473446Y3295778D01*
X-45476859Y3286238D01*
X-45481192Y3277078D01*
X-45486401Y3268387D01*
X-45492437Y3260249D01*
X-45499241Y3252741D01*
X-45506749Y3245937D01*
X-45514887Y3239901D01*
X-45523578Y3234692D01*
X-45532738Y3230359D01*
X-45542278Y3226946D01*
X-45552107Y3224484D01*
X-45562130Y3222997D01*
X-45572250Y3222500D01*
X-45813750Y3222500D01*
X-45823870Y3222997D01*
X-45833893Y3224484D01*
X-45843722Y3226946D01*
X-45853262Y3230359D01*
X-45862422Y3234692D01*
X-45871113Y3239901D01*
X-45879251Y3245937D01*
X-45886759Y3252741D01*
X-45893563Y3260249D01*
X-45899599Y3268387D01*
X-45904808Y3277078D01*
X-45909141Y3286238D01*
X-45912554Y3295778D01*
X-45915016Y3305607D01*
X-45916503Y3315630D01*
X-45917000Y3325750D01*
X-45917000Y3532250D01*
X-45916503Y3542370D01*
X-45915016Y3552393D01*
X-45912554Y3562222D01*
X-45909141Y3571762D01*
X-45904808Y3580922D01*
X-45899599Y3589613D01*
X-45893563Y3597751D01*
X-45886759Y3605259D01*
X-45879251Y3612063D01*
X-45871113Y3618099D01*
X-45862422Y3623308D01*
X-45853262Y3627641D01*
X-45843722Y3631054D01*
X-45833893Y3633516D01*
X-45823870Y3635003D01*
X-45813750Y3635500D01*
X-45572250Y3635500D01*
X-45562130Y3635003D01*
X-45562130Y3635003D01*
G37*
D11*
X-45693000Y3429000D03*
D10*
G36*
X-45562130Y2665003D02*
X-45552107Y2663516D01*
X-45542278Y2661054D01*
X-45532738Y2657641D01*
X-45523578Y2653308D01*
X-45514887Y2648099D01*
X-45506749Y2642063D01*
X-45499241Y2635259D01*
X-45492437Y2627751D01*
X-45486401Y2619613D01*
X-45481192Y2610922D01*
X-45476859Y2601762D01*
X-45473446Y2592222D01*
X-45470984Y2582393D01*
X-45469497Y2572370D01*
X-45469000Y2562250D01*
X-45469000Y2355750D01*
X-45469497Y2345630D01*
X-45470984Y2335607D01*
X-45473446Y2325778D01*
X-45476859Y2316238D01*
X-45481192Y2307078D01*
X-45486401Y2298387D01*
X-45492437Y2290249D01*
X-45499241Y2282741D01*
X-45506749Y2275937D01*
X-45514887Y2269901D01*
X-45523578Y2264692D01*
X-45532738Y2260359D01*
X-45542278Y2256946D01*
X-45552107Y2254484D01*
X-45562130Y2252997D01*
X-45572250Y2252500D01*
X-45813750Y2252500D01*
X-45823870Y2252997D01*
X-45833893Y2254484D01*
X-45843722Y2256946D01*
X-45853262Y2260359D01*
X-45862422Y2264692D01*
X-45871113Y2269901D01*
X-45879251Y2275937D01*
X-45886759Y2282741D01*
X-45893563Y2290249D01*
X-45899599Y2298387D01*
X-45904808Y2307078D01*
X-45909141Y2316238D01*
X-45912554Y2325778D01*
X-45915016Y2335607D01*
X-45916503Y2345630D01*
X-45917000Y2355750D01*
X-45917000Y2562250D01*
X-45916503Y2572370D01*
X-45915016Y2582393D01*
X-45912554Y2592222D01*
X-45909141Y2601762D01*
X-45904808Y2610922D01*
X-45899599Y2619613D01*
X-45893563Y2627751D01*
X-45886759Y2635259D01*
X-45879251Y2642063D01*
X-45871113Y2648099D01*
X-45862422Y2653308D01*
X-45853262Y2657641D01*
X-45843722Y2661054D01*
X-45833893Y2663516D01*
X-45823870Y2665003D01*
X-45813750Y2665500D01*
X-45572250Y2665500D01*
X-45562130Y2665003D01*
X-45562130Y2665003D01*
G37*
D11*
X-45693000Y2459000D03*
G04 #@! TD*
D10*
G04 #@! TO.C,C203*
G36*
X-43530130Y2665003D02*
X-43520107Y2663516D01*
X-43510278Y2661054D01*
X-43500738Y2657641D01*
X-43491578Y2653308D01*
X-43482887Y2648099D01*
X-43474749Y2642063D01*
X-43467241Y2635259D01*
X-43460437Y2627751D01*
X-43454401Y2619613D01*
X-43449192Y2610922D01*
X-43444859Y2601762D01*
X-43441446Y2592222D01*
X-43438984Y2582393D01*
X-43437497Y2572370D01*
X-43437000Y2562250D01*
X-43437000Y2355750D01*
X-43437497Y2345630D01*
X-43438984Y2335607D01*
X-43441446Y2325778D01*
X-43444859Y2316238D01*
X-43449192Y2307078D01*
X-43454401Y2298387D01*
X-43460437Y2290249D01*
X-43467241Y2282741D01*
X-43474749Y2275937D01*
X-43482887Y2269901D01*
X-43491578Y2264692D01*
X-43500738Y2260359D01*
X-43510278Y2256946D01*
X-43520107Y2254484D01*
X-43530130Y2252997D01*
X-43540250Y2252500D01*
X-43781750Y2252500D01*
X-43791870Y2252997D01*
X-43801893Y2254484D01*
X-43811722Y2256946D01*
X-43821262Y2260359D01*
X-43830422Y2264692D01*
X-43839113Y2269901D01*
X-43847251Y2275937D01*
X-43854759Y2282741D01*
X-43861563Y2290249D01*
X-43867599Y2298387D01*
X-43872808Y2307078D01*
X-43877141Y2316238D01*
X-43880554Y2325778D01*
X-43883016Y2335607D01*
X-43884503Y2345630D01*
X-43885000Y2355750D01*
X-43885000Y2562250D01*
X-43884503Y2572370D01*
X-43883016Y2582393D01*
X-43880554Y2592222D01*
X-43877141Y2601762D01*
X-43872808Y2610922D01*
X-43867599Y2619613D01*
X-43861563Y2627751D01*
X-43854759Y2635259D01*
X-43847251Y2642063D01*
X-43839113Y2648099D01*
X-43830422Y2653308D01*
X-43821262Y2657641D01*
X-43811722Y2661054D01*
X-43801893Y2663516D01*
X-43791870Y2665003D01*
X-43781750Y2665500D01*
X-43540250Y2665500D01*
X-43530130Y2665003D01*
X-43530130Y2665003D01*
G37*
D11*
X-43661000Y2459000D03*
D10*
G36*
X-43530130Y3635003D02*
X-43520107Y3633516D01*
X-43510278Y3631054D01*
X-43500738Y3627641D01*
X-43491578Y3623308D01*
X-43482887Y3618099D01*
X-43474749Y3612063D01*
X-43467241Y3605259D01*
X-43460437Y3597751D01*
X-43454401Y3589613D01*
X-43449192Y3580922D01*
X-43444859Y3571762D01*
X-43441446Y3562222D01*
X-43438984Y3552393D01*
X-43437497Y3542370D01*
X-43437000Y3532250D01*
X-43437000Y3325750D01*
X-43437497Y3315630D01*
X-43438984Y3305607D01*
X-43441446Y3295778D01*
X-43444859Y3286238D01*
X-43449192Y3277078D01*
X-43454401Y3268387D01*
X-43460437Y3260249D01*
X-43467241Y3252741D01*
X-43474749Y3245937D01*
X-43482887Y3239901D01*
X-43491578Y3234692D01*
X-43500738Y3230359D01*
X-43510278Y3226946D01*
X-43520107Y3224484D01*
X-43530130Y3222997D01*
X-43540250Y3222500D01*
X-43781750Y3222500D01*
X-43791870Y3222997D01*
X-43801893Y3224484D01*
X-43811722Y3226946D01*
X-43821262Y3230359D01*
X-43830422Y3234692D01*
X-43839113Y3239901D01*
X-43847251Y3245937D01*
X-43854759Y3252741D01*
X-43861563Y3260249D01*
X-43867599Y3268387D01*
X-43872808Y3277078D01*
X-43877141Y3286238D01*
X-43880554Y3295778D01*
X-43883016Y3305607D01*
X-43884503Y3315630D01*
X-43885000Y3325750D01*
X-43885000Y3532250D01*
X-43884503Y3542370D01*
X-43883016Y3552393D01*
X-43880554Y3562222D01*
X-43877141Y3571762D01*
X-43872808Y3580922D01*
X-43867599Y3589613D01*
X-43861563Y3597751D01*
X-43854759Y3605259D01*
X-43847251Y3612063D01*
X-43839113Y3618099D01*
X-43830422Y3623308D01*
X-43821262Y3627641D01*
X-43811722Y3631054D01*
X-43801893Y3633516D01*
X-43791870Y3635003D01*
X-43781750Y3635500D01*
X-43540250Y3635500D01*
X-43530130Y3635003D01*
X-43530130Y3635003D01*
G37*
D11*
X-43661000Y3429000D03*
G04 #@! TD*
D10*
G04 #@! TO.C,C204*
G36*
X-44546130Y2665003D02*
X-44536107Y2663516D01*
X-44526278Y2661054D01*
X-44516738Y2657641D01*
X-44507578Y2653308D01*
X-44498887Y2648099D01*
X-44490749Y2642063D01*
X-44483241Y2635259D01*
X-44476437Y2627751D01*
X-44470401Y2619613D01*
X-44465192Y2610922D01*
X-44460859Y2601762D01*
X-44457446Y2592222D01*
X-44454984Y2582393D01*
X-44453497Y2572370D01*
X-44453000Y2562250D01*
X-44453000Y2355750D01*
X-44453497Y2345630D01*
X-44454984Y2335607D01*
X-44457446Y2325778D01*
X-44460859Y2316238D01*
X-44465192Y2307078D01*
X-44470401Y2298387D01*
X-44476437Y2290249D01*
X-44483241Y2282741D01*
X-44490749Y2275937D01*
X-44498887Y2269901D01*
X-44507578Y2264692D01*
X-44516738Y2260359D01*
X-44526278Y2256946D01*
X-44536107Y2254484D01*
X-44546130Y2252997D01*
X-44556250Y2252500D01*
X-44797750Y2252500D01*
X-44807870Y2252997D01*
X-44817893Y2254484D01*
X-44827722Y2256946D01*
X-44837262Y2260359D01*
X-44846422Y2264692D01*
X-44855113Y2269901D01*
X-44863251Y2275937D01*
X-44870759Y2282741D01*
X-44877563Y2290249D01*
X-44883599Y2298387D01*
X-44888808Y2307078D01*
X-44893141Y2316238D01*
X-44896554Y2325778D01*
X-44899016Y2335607D01*
X-44900503Y2345630D01*
X-44901000Y2355750D01*
X-44901000Y2562250D01*
X-44900503Y2572370D01*
X-44899016Y2582393D01*
X-44896554Y2592222D01*
X-44893141Y2601762D01*
X-44888808Y2610922D01*
X-44883599Y2619613D01*
X-44877563Y2627751D01*
X-44870759Y2635259D01*
X-44863251Y2642063D01*
X-44855113Y2648099D01*
X-44846422Y2653308D01*
X-44837262Y2657641D01*
X-44827722Y2661054D01*
X-44817893Y2663516D01*
X-44807870Y2665003D01*
X-44797750Y2665500D01*
X-44556250Y2665500D01*
X-44546130Y2665003D01*
X-44546130Y2665003D01*
G37*
D11*
X-44677000Y2459000D03*
D10*
G36*
X-44546130Y3635003D02*
X-44536107Y3633516D01*
X-44526278Y3631054D01*
X-44516738Y3627641D01*
X-44507578Y3623308D01*
X-44498887Y3618099D01*
X-44490749Y3612063D01*
X-44483241Y3605259D01*
X-44476437Y3597751D01*
X-44470401Y3589613D01*
X-44465192Y3580922D01*
X-44460859Y3571762D01*
X-44457446Y3562222D01*
X-44454984Y3552393D01*
X-44453497Y3542370D01*
X-44453000Y3532250D01*
X-44453000Y3325750D01*
X-44453497Y3315630D01*
X-44454984Y3305607D01*
X-44457446Y3295778D01*
X-44460859Y3286238D01*
X-44465192Y3277078D01*
X-44470401Y3268387D01*
X-44476437Y3260249D01*
X-44483241Y3252741D01*
X-44490749Y3245937D01*
X-44498887Y3239901D01*
X-44507578Y3234692D01*
X-44516738Y3230359D01*
X-44526278Y3226946D01*
X-44536107Y3224484D01*
X-44546130Y3222997D01*
X-44556250Y3222500D01*
X-44797750Y3222500D01*
X-44807870Y3222997D01*
X-44817893Y3224484D01*
X-44827722Y3226946D01*
X-44837262Y3230359D01*
X-44846422Y3234692D01*
X-44855113Y3239901D01*
X-44863251Y3245937D01*
X-44870759Y3252741D01*
X-44877563Y3260249D01*
X-44883599Y3268387D01*
X-44888808Y3277078D01*
X-44893141Y3286238D01*
X-44896554Y3295778D01*
X-44899016Y3305607D01*
X-44900503Y3315630D01*
X-44901000Y3325750D01*
X-44901000Y3532250D01*
X-44900503Y3542370D01*
X-44899016Y3552393D01*
X-44896554Y3562222D01*
X-44893141Y3571762D01*
X-44888808Y3580922D01*
X-44883599Y3589613D01*
X-44877563Y3597751D01*
X-44870759Y3605259D01*
X-44863251Y3612063D01*
X-44855113Y3618099D01*
X-44846422Y3623308D01*
X-44837262Y3627641D01*
X-44827722Y3631054D01*
X-44817893Y3633516D01*
X-44807870Y3635003D01*
X-44797750Y3635500D01*
X-44556250Y3635500D01*
X-44546130Y3635003D01*
X-44546130Y3635003D01*
G37*
D11*
X-44677000Y3429000D03*
G04 #@! TD*
D10*
G04 #@! TO.C,C205*
G36*
X-42514130Y3635003D02*
X-42504107Y3633516D01*
X-42494278Y3631054D01*
X-42484738Y3627641D01*
X-42475578Y3623308D01*
X-42466887Y3618099D01*
X-42458749Y3612063D01*
X-42451241Y3605259D01*
X-42444437Y3597751D01*
X-42438401Y3589613D01*
X-42433192Y3580922D01*
X-42428859Y3571762D01*
X-42425446Y3562222D01*
X-42422984Y3552393D01*
X-42421497Y3542370D01*
X-42421000Y3532250D01*
X-42421000Y3325750D01*
X-42421497Y3315630D01*
X-42422984Y3305607D01*
X-42425446Y3295778D01*
X-42428859Y3286238D01*
X-42433192Y3277078D01*
X-42438401Y3268387D01*
X-42444437Y3260249D01*
X-42451241Y3252741D01*
X-42458749Y3245937D01*
X-42466887Y3239901D01*
X-42475578Y3234692D01*
X-42484738Y3230359D01*
X-42494278Y3226946D01*
X-42504107Y3224484D01*
X-42514130Y3222997D01*
X-42524250Y3222500D01*
X-42765750Y3222500D01*
X-42775870Y3222997D01*
X-42785893Y3224484D01*
X-42795722Y3226946D01*
X-42805262Y3230359D01*
X-42814422Y3234692D01*
X-42823113Y3239901D01*
X-42831251Y3245937D01*
X-42838759Y3252741D01*
X-42845563Y3260249D01*
X-42851599Y3268387D01*
X-42856808Y3277078D01*
X-42861141Y3286238D01*
X-42864554Y3295778D01*
X-42867016Y3305607D01*
X-42868503Y3315630D01*
X-42869000Y3325750D01*
X-42869000Y3532250D01*
X-42868503Y3542370D01*
X-42867016Y3552393D01*
X-42864554Y3562222D01*
X-42861141Y3571762D01*
X-42856808Y3580922D01*
X-42851599Y3589613D01*
X-42845563Y3597751D01*
X-42838759Y3605259D01*
X-42831251Y3612063D01*
X-42823113Y3618099D01*
X-42814422Y3623308D01*
X-42805262Y3627641D01*
X-42795722Y3631054D01*
X-42785893Y3633516D01*
X-42775870Y3635003D01*
X-42765750Y3635500D01*
X-42524250Y3635500D01*
X-42514130Y3635003D01*
X-42514130Y3635003D01*
G37*
D11*
X-42645000Y3429000D03*
D10*
G36*
X-42514130Y2665003D02*
X-42504107Y2663516D01*
X-42494278Y2661054D01*
X-42484738Y2657641D01*
X-42475578Y2653308D01*
X-42466887Y2648099D01*
X-42458749Y2642063D01*
X-42451241Y2635259D01*
X-42444437Y2627751D01*
X-42438401Y2619613D01*
X-42433192Y2610922D01*
X-42428859Y2601762D01*
X-42425446Y2592222D01*
X-42422984Y2582393D01*
X-42421497Y2572370D01*
X-42421000Y2562250D01*
X-42421000Y2355750D01*
X-42421497Y2345630D01*
X-42422984Y2335607D01*
X-42425446Y2325778D01*
X-42428859Y2316238D01*
X-42433192Y2307078D01*
X-42438401Y2298387D01*
X-42444437Y2290249D01*
X-42451241Y2282741D01*
X-42458749Y2275937D01*
X-42466887Y2269901D01*
X-42475578Y2264692D01*
X-42484738Y2260359D01*
X-42494278Y2256946D01*
X-42504107Y2254484D01*
X-42514130Y2252997D01*
X-42524250Y2252500D01*
X-42765750Y2252500D01*
X-42775870Y2252997D01*
X-42785893Y2254484D01*
X-42795722Y2256946D01*
X-42805262Y2260359D01*
X-42814422Y2264692D01*
X-42823113Y2269901D01*
X-42831251Y2275937D01*
X-42838759Y2282741D01*
X-42845563Y2290249D01*
X-42851599Y2298387D01*
X-42856808Y2307078D01*
X-42861141Y2316238D01*
X-42864554Y2325778D01*
X-42867016Y2335607D01*
X-42868503Y2345630D01*
X-42869000Y2355750D01*
X-42869000Y2562250D01*
X-42868503Y2572370D01*
X-42867016Y2582393D01*
X-42864554Y2592222D01*
X-42861141Y2601762D01*
X-42856808Y2610922D01*
X-42851599Y2619613D01*
X-42845563Y2627751D01*
X-42838759Y2635259D01*
X-42831251Y2642063D01*
X-42823113Y2648099D01*
X-42814422Y2653308D01*
X-42805262Y2657641D01*
X-42795722Y2661054D01*
X-42785893Y2663516D01*
X-42775870Y2665003D01*
X-42765750Y2665500D01*
X-42524250Y2665500D01*
X-42514130Y2665003D01*
X-42514130Y2665003D01*
G37*
D11*
X-42645000Y2459000D03*
G04 #@! TD*
D25*
G04 #@! TO.C,RN201*
X-46293000Y9412500D03*
X-45493000Y9412500D03*
X-45893000Y9412500D03*
X-45093000Y9412500D03*
X-46293000Y9937500D03*
X-45893000Y9937500D03*
X-45493000Y9937500D03*
X-45093000Y9937500D03*
G04 #@! TD*
G04 #@! TO.C,RN202*
X-45093000Y6517000D03*
X-45493000Y6517000D03*
X-45893000Y6517000D03*
X-46293000Y6517000D03*
X-45093000Y5992000D03*
X-45893000Y5992000D03*
X-45493000Y5992000D03*
X-46293000Y5992000D03*
G04 #@! TD*
D10*
G04 #@! TO.C,C501*
G36*
X-5049130Y-12112997D02*
X-5039107Y-12114484D01*
X-5029278Y-12116946D01*
X-5019738Y-12120359D01*
X-5010578Y-12124692D01*
X-5001887Y-12129901D01*
X-4993749Y-12135937D01*
X-4986241Y-12142741D01*
X-4979437Y-12150249D01*
X-4973401Y-12158387D01*
X-4968192Y-12167078D01*
X-4963859Y-12176238D01*
X-4960446Y-12185778D01*
X-4957984Y-12195607D01*
X-4956497Y-12205630D01*
X-4956000Y-12215750D01*
X-4956000Y-12422250D01*
X-4956497Y-12432370D01*
X-4957984Y-12442393D01*
X-4960446Y-12452222D01*
X-4963859Y-12461762D01*
X-4968192Y-12470922D01*
X-4973401Y-12479613D01*
X-4979437Y-12487751D01*
X-4986241Y-12495259D01*
X-4993749Y-12502063D01*
X-5001887Y-12508099D01*
X-5010578Y-12513308D01*
X-5019738Y-12517641D01*
X-5029278Y-12521054D01*
X-5039107Y-12523516D01*
X-5049130Y-12525003D01*
X-5059250Y-12525500D01*
X-5300750Y-12525500D01*
X-5310870Y-12525003D01*
X-5320893Y-12523516D01*
X-5330722Y-12521054D01*
X-5340262Y-12517641D01*
X-5349422Y-12513308D01*
X-5358113Y-12508099D01*
X-5366251Y-12502063D01*
X-5373759Y-12495259D01*
X-5380563Y-12487751D01*
X-5386599Y-12479613D01*
X-5391808Y-12470922D01*
X-5396141Y-12461762D01*
X-5399554Y-12452222D01*
X-5402016Y-12442393D01*
X-5403503Y-12432370D01*
X-5404000Y-12422250D01*
X-5404000Y-12215750D01*
X-5403503Y-12205630D01*
X-5402016Y-12195607D01*
X-5399554Y-12185778D01*
X-5396141Y-12176238D01*
X-5391808Y-12167078D01*
X-5386599Y-12158387D01*
X-5380563Y-12150249D01*
X-5373759Y-12142741D01*
X-5366251Y-12135937D01*
X-5358113Y-12129901D01*
X-5349422Y-12124692D01*
X-5340262Y-12120359D01*
X-5330722Y-12116946D01*
X-5320893Y-12114484D01*
X-5310870Y-12112997D01*
X-5300750Y-12112500D01*
X-5059250Y-12112500D01*
X-5049130Y-12112997D01*
X-5049130Y-12112997D01*
G37*
D11*
X-5180000Y-12319000D03*
D10*
G36*
X-5049130Y-13082997D02*
X-5039107Y-13084484D01*
X-5029278Y-13086946D01*
X-5019738Y-13090359D01*
X-5010578Y-13094692D01*
X-5001887Y-13099901D01*
X-4993749Y-13105937D01*
X-4986241Y-13112741D01*
X-4979437Y-13120249D01*
X-4973401Y-13128387D01*
X-4968192Y-13137078D01*
X-4963859Y-13146238D01*
X-4960446Y-13155778D01*
X-4957984Y-13165607D01*
X-4956497Y-13175630D01*
X-4956000Y-13185750D01*
X-4956000Y-13392250D01*
X-4956497Y-13402370D01*
X-4957984Y-13412393D01*
X-4960446Y-13422222D01*
X-4963859Y-13431762D01*
X-4968192Y-13440922D01*
X-4973401Y-13449613D01*
X-4979437Y-13457751D01*
X-4986241Y-13465259D01*
X-4993749Y-13472063D01*
X-5001887Y-13478099D01*
X-5010578Y-13483308D01*
X-5019738Y-13487641D01*
X-5029278Y-13491054D01*
X-5039107Y-13493516D01*
X-5049130Y-13495003D01*
X-5059250Y-13495500D01*
X-5300750Y-13495500D01*
X-5310870Y-13495003D01*
X-5320893Y-13493516D01*
X-5330722Y-13491054D01*
X-5340262Y-13487641D01*
X-5349422Y-13483308D01*
X-5358113Y-13478099D01*
X-5366251Y-13472063D01*
X-5373759Y-13465259D01*
X-5380563Y-13457751D01*
X-5386599Y-13449613D01*
X-5391808Y-13440922D01*
X-5396141Y-13431762D01*
X-5399554Y-13422222D01*
X-5402016Y-13412393D01*
X-5403503Y-13402370D01*
X-5404000Y-13392250D01*
X-5404000Y-13185750D01*
X-5403503Y-13175630D01*
X-5402016Y-13165607D01*
X-5399554Y-13155778D01*
X-5396141Y-13146238D01*
X-5391808Y-13137078D01*
X-5386599Y-13128387D01*
X-5380563Y-13120249D01*
X-5373759Y-13112741D01*
X-5366251Y-13105937D01*
X-5358113Y-13099901D01*
X-5349422Y-13094692D01*
X-5340262Y-13090359D01*
X-5330722Y-13086946D01*
X-5320893Y-13084484D01*
X-5310870Y-13082997D01*
X-5300750Y-13082500D01*
X-5059250Y-13082500D01*
X-5049130Y-13082997D01*
X-5049130Y-13082997D01*
G37*
D11*
X-5180000Y-13289000D03*
G04 #@! TD*
D10*
G04 #@! TO.C,C206*
G36*
X-35019130Y4971003D02*
X-35009107Y4969516D01*
X-34999278Y4967054D01*
X-34989738Y4963641D01*
X-34980578Y4959308D01*
X-34971887Y4954099D01*
X-34963749Y4948063D01*
X-34956241Y4941259D01*
X-34949437Y4933751D01*
X-34943401Y4925613D01*
X-34938192Y4916922D01*
X-34933859Y4907762D01*
X-34930446Y4898222D01*
X-34927984Y4888393D01*
X-34926497Y4878370D01*
X-34926000Y4868250D01*
X-34926000Y4661750D01*
X-34926497Y4651630D01*
X-34927984Y4641607D01*
X-34930446Y4631778D01*
X-34933859Y4622238D01*
X-34938192Y4613078D01*
X-34943401Y4604387D01*
X-34949437Y4596249D01*
X-34956241Y4588741D01*
X-34963749Y4581937D01*
X-34971887Y4575901D01*
X-34980578Y4570692D01*
X-34989738Y4566359D01*
X-34999278Y4562946D01*
X-35009107Y4560484D01*
X-35019130Y4558997D01*
X-35029250Y4558500D01*
X-35270750Y4558500D01*
X-35280870Y4558997D01*
X-35290893Y4560484D01*
X-35300722Y4562946D01*
X-35310262Y4566359D01*
X-35319422Y4570692D01*
X-35328113Y4575901D01*
X-35336251Y4581937D01*
X-35343759Y4588741D01*
X-35350563Y4596249D01*
X-35356599Y4604387D01*
X-35361808Y4613078D01*
X-35366141Y4622238D01*
X-35369554Y4631778D01*
X-35372016Y4641607D01*
X-35373503Y4651630D01*
X-35374000Y4661750D01*
X-35374000Y4868250D01*
X-35373503Y4878370D01*
X-35372016Y4888393D01*
X-35369554Y4898222D01*
X-35366141Y4907762D01*
X-35361808Y4916922D01*
X-35356599Y4925613D01*
X-35350563Y4933751D01*
X-35343759Y4941259D01*
X-35336251Y4948063D01*
X-35328113Y4954099D01*
X-35319422Y4959308D01*
X-35310262Y4963641D01*
X-35300722Y4967054D01*
X-35290893Y4969516D01*
X-35280870Y4971003D01*
X-35270750Y4971500D01*
X-35029250Y4971500D01*
X-35019130Y4971003D01*
X-35019130Y4971003D01*
G37*
D11*
X-35150000Y4765000D03*
D10*
G36*
X-35019130Y5941003D02*
X-35009107Y5939516D01*
X-34999278Y5937054D01*
X-34989738Y5933641D01*
X-34980578Y5929308D01*
X-34971887Y5924099D01*
X-34963749Y5918063D01*
X-34956241Y5911259D01*
X-34949437Y5903751D01*
X-34943401Y5895613D01*
X-34938192Y5886922D01*
X-34933859Y5877762D01*
X-34930446Y5868222D01*
X-34927984Y5858393D01*
X-34926497Y5848370D01*
X-34926000Y5838250D01*
X-34926000Y5631750D01*
X-34926497Y5621630D01*
X-34927984Y5611607D01*
X-34930446Y5601778D01*
X-34933859Y5592238D01*
X-34938192Y5583078D01*
X-34943401Y5574387D01*
X-34949437Y5566249D01*
X-34956241Y5558741D01*
X-34963749Y5551937D01*
X-34971887Y5545901D01*
X-34980578Y5540692D01*
X-34989738Y5536359D01*
X-34999278Y5532946D01*
X-35009107Y5530484D01*
X-35019130Y5528997D01*
X-35029250Y5528500D01*
X-35270750Y5528500D01*
X-35280870Y5528997D01*
X-35290893Y5530484D01*
X-35300722Y5532946D01*
X-35310262Y5536359D01*
X-35319422Y5540692D01*
X-35328113Y5545901D01*
X-35336251Y5551937D01*
X-35343759Y5558741D01*
X-35350563Y5566249D01*
X-35356599Y5574387D01*
X-35361808Y5583078D01*
X-35366141Y5592238D01*
X-35369554Y5601778D01*
X-35372016Y5611607D01*
X-35373503Y5621630D01*
X-35374000Y5631750D01*
X-35374000Y5838250D01*
X-35373503Y5848370D01*
X-35372016Y5858393D01*
X-35369554Y5868222D01*
X-35366141Y5877762D01*
X-35361808Y5886922D01*
X-35356599Y5895613D01*
X-35350563Y5903751D01*
X-35343759Y5911259D01*
X-35336251Y5918063D01*
X-35328113Y5924099D01*
X-35319422Y5929308D01*
X-35310262Y5933641D01*
X-35300722Y5937054D01*
X-35290893Y5939516D01*
X-35280870Y5941003D01*
X-35270750Y5941500D01*
X-35029250Y5941500D01*
X-35019130Y5941003D01*
X-35019130Y5941003D01*
G37*
D11*
X-35150000Y5735000D03*
G04 #@! TD*
D26*
G04 #@! TO.C,U201*
X-36450000Y4750000D03*
X-36450000Y5700000D03*
X-36450000Y6650000D03*
X-38650000Y6650000D03*
X-38650000Y4750000D03*
G04 #@! TD*
G04 #@! TO.C,U202*
X-38650000Y1150000D03*
X-38650000Y3050000D03*
X-36450000Y3050000D03*
X-36450000Y2100000D03*
X-36450000Y1150000D03*
G04 #@! TD*
M02*
