M48
;DRILL file {KiCad 5.0.0-4.fc29} date Tue Sep 25 17:24:55 2018
;FORMAT={-:-/ absolute / inch / decimal}
FMAT,2
INCH,TZ
T1C0.0079
T2C0.0118
T3C0.0157
T4C0.0315
T5C0.0394
T6C0.0472
T7C0.1260
%
G90
G05
M72
T1
X-1.8339Y0.3059
X-1.8039Y0.2909
X-1.7989Y0.1659
X-1.7843Y0.3412
X-1.7603Y0.1679
X-1.7189Y0.1859
X-1.5839Y0.6009
T2
X-1.8939Y0.4259
X-1.8939Y0.2259
X-1.8939Y0.0309
X-1.8939Y-0.1741
X-1.8939Y-0.3791
X-1.8289Y0.0959
X-1.7189Y0.2609
X-1.6939Y0.3759
X-1.6689Y-0.1691
X-1.66Y0.2325
X-1.6489Y0.0959
X-1.6439Y-0.3341
X-1.628Y0.1201
X-1.626Y0.159
X-1.6239Y-0.0141
X-1.6142Y0.1909
X-1.6Y0.25
X-1.5589Y-0.4191
X-1.5539Y0.3659
X-1.5339Y-0.1091
X-1.4639Y-0.1841
X-1.4639Y-0.3041
X-1.4539Y0.5509
X-1.45Y0.3425
X-1.4325Y0.005
X-1.4289Y-0.2141
X-1.4249Y-0.5531
X-1.4239Y-0.3341
X-1.3689Y-0.1641
X-1.365Y-0.12
X-1.3575Y0.145
X-1.3525Y0.0475
X-1.3506Y-0.0024
X-1.33Y0.2225
X-1.3239Y-0.3091
X-1.3139Y-0.0891
X-1.3039Y0.0909
X-1.2789Y-0.0391
X-1.2539Y0.5409
X-1.2339Y-0.1041
X-1.2289Y0.3509
X-1.2289Y-0.2841
X-1.2039Y0.2409
X-1.1839Y0.0009
X-1.1489Y0.3309
X-1.1239Y-0.1341
X-1.0939Y-0.5531
X-1.0889Y-0.0241
X-1.0789Y0.4659
X-1.0689Y0.1109
X-0.997Y-0.4482
X-0.9739Y-0.1491
X-0.8389Y-0.1841
X-0.8103Y0.1009
X-0.7889Y-0.5531
X-0.7789Y-0.0091
X-0.757Y0.019
X-0.7439Y0.0509
X-0.7339Y-0.2291
X-0.7139Y0.2509
X-0.6782Y-0.177
X-0.6739Y-0.0641
X-0.6639Y-0.2741
X-0.6439Y-0.1941
X-0.6189Y0.1909
X-0.6172Y0.2783
X-0.6089Y0.0609
X-0.5859Y0.3023
X-0.5709Y0.5118
X-0.5589Y0.1909
X-0.5539Y0.0609
X-0.5489Y-0.4241
X-0.5389Y-0.5531
X-0.5189Y-0.2841
X-0.5039Y0.1909
X-0.5039Y0.0609
X-0.4781Y0.3335
X-0.4589Y0.3109
X-0.4528Y0.6299
X-0.4289Y0.3559
X-0.4239Y0.2859
X-0.4139Y-0.0997
X-0.4089Y-0.3791
X-0.3925Y-0.1775
X-0.3589Y-0.3035
X-0.3589Y-0.3641
X-0.3346Y0.5118
X-0.3339Y0.2359
X-0.3289Y-0.4991
X-0.2839Y-0.4691
X-0.2839Y-0.5531
X-0.2539Y-0.3641
X-0.2339Y-0.4691
X-0.2339Y-0.5531
X-0.2165Y0.6299
X-0.2089Y-0.0641
X-0.1889Y-0.1791
X-0.1839Y-0.4441
X-0.1789Y0.1809
X-0.1789Y-0.3341
X-0.1789Y-0.5531
X-0.1539Y-0.4141
X-0.1339Y-0.3341
X-0.1189Y0.1809
X-0.1189Y-0.3991
X-0.0639Y0.3509
X-0.0639Y0.2809
X-0.0639Y0.1809
X-0.0591Y0.5118
X-0.0239Y-0.5531
X-0.0089Y-0.1091
X0.0197Y0.6299
X0.1611Y-0.5531
X0.1761Y-0.2991
X0.1911Y-0.3741
X0.2161Y-0.2991
X0.2411Y-0.4891
X0.2559Y0.6299
X0.2611Y-0.1891
X0.2911Y0.1309
X0.3011Y-0.5531
X0.3461Y0.1609
X0.3561Y0.0709
X0.3661Y-0.3541
X0.4011Y0.1409
X0.4011Y-0.5141
X0.4161Y-0.0941
X0.4761Y-0.2941
X0.4921Y0.6299
X0.4921Y0.4331
X0.5011Y0.0109
X0.5511Y-0.2591
X0.5561Y-0.0691
X0.5611Y0.0659
X0.5911Y-0.0591
X0.6361Y0.2509
X0.6511Y0.1909
X0.6511Y0.0259
X0.6511Y0.0009
X0.6611Y0.1609
X0.6761Y-0.3563
X0.6761Y-0.4141
X0.7283Y0.6299
X0.7611Y-0.3563
X0.7661Y-0.4141
X0.7677Y0.4331
X0.7677Y0.2362
X0.7677Y0.1575
X0.8071Y0.1969
X0.8465Y0.2362
X0.9646Y0.6299
X0.9646Y0.4331
X1.0827Y0.5118
X1.2008Y0.6299
X1.2411Y-0.3691
X1.2411Y-0.3991
X1.2661Y-0.3441
X1.2961Y-0.3441
X1.437Y0.6299
T3
X-0.7139Y-0.0241
X-0.6189Y-0.1641
X-0.5689Y-0.1991
X-0.5345Y-0.1847
X-0.5339Y-0.1491
X-0.3739Y-0.0891
X-0.3739Y-0.2741
X-0.3689Y0.2209
X-0.3689Y-0.2091
X-0.3489Y-0.2443
X-0.2065Y0.0935
X-0.1637Y0.0205
X-0.1139Y0.0859
X-0.0489Y-0.0291
X0.1961Y0.3959
X0.3061Y0.3659
X0.3261Y0.2909
X0.4111Y-0.2141
X0.4611Y-0.2141
X0.4711Y-0.2541
X0.5711Y0.2459
X0.6811Y-0.1093
X0.6811Y-0.1941
X0.7003Y0.2026
X0.7161Y0.1159
X0.7161Y-0.0991
X0.755Y-0.0276
X0.8361Y0.0837
X0.9311Y0.2159
X0.9511Y0.2909
X1.0011Y0.1259
X1.2361Y-0.0591
X1.2361Y-0.1141
X1.2411Y0.1959
X1.2411Y0.1359
X1.2411Y0.1059
X1.2661Y-0.0591
X1.2661Y-0.1141
X1.2711Y0.1959
X1.2711Y0.1359
X1.2711Y0.1059
X1.2961Y-0.0591
X1.2961Y-0.1141
X1.3011Y0.1959
X1.3011Y0.1359
X1.3461Y0.1609
X1.3811Y-0.1041
X1.3969Y-0.1515
X1.4014Y0.0965
X1.4361Y0.3509
X1.4361Y0.1009
X1.4361Y-0.1441
X1.4711Y0.3509
X1.4711Y0.1009
X1.4711Y-0.1441
X1.5061Y0.3509
X1.5061Y0.1009
X1.5061Y-0.0541
X1.5061Y-0.1441
X1.5111Y-0.2991
X1.5361Y0.3609
X1.5361Y0.3309
X1.5361Y0.3009
X1.5361Y0.2709
X1.5361Y0.2409
X1.5361Y0.1109
X1.5361Y0.0809
X1.5361Y0.0509
X1.5361Y0.0209
X1.5361Y-0.0091
X1.5361Y-0.1691
X1.5361Y-0.1991
X1.5361Y-0.2291
X1.5361Y-0.2591
T4
X0.8711Y-0.3563
X0.8711Y-0.4941
T5
X0.7711Y-0.1941
X-0.7539Y-0.2941
X-0.9539Y0.6059
X0.1161Y-0.1491
X0.8961Y0.1309
X0.2211Y0.5609
X-0.3989Y-0.4441
X-0.9039Y-0.0941
X0.0461Y0.3259
X-1.7639Y0.0059
X-1.7639Y-0.0941
X-1.7639Y-0.1941
X-1.7639Y-0.2941
X-1.7639Y-0.3941
X0.8211Y0.0059
X-1.0039Y-0.0441
X-1.27Y0.16
X-0.9039Y0.1559
X0.0011Y-0.4491
X1.6461Y-0.0941
X0.0011Y-0.3341
X-0.9539Y0.0559
X0.1161Y-0.4491
X0.9261Y-0.0491
X0.6411Y0.4059
X-1.0039Y0.1559
X1.6461Y0.0559
X1.1711Y0.0059
X1.1711Y-0.0941
X0.1161Y-0.3341
X-1.1039Y-0.2941
X-1.0039Y-0.2941
X-0.9039Y-0.2941
X-1.3539Y-0.3941
X0.1161Y-0.0291
X-1.0321Y0.4059
X-0.9321Y0.4059
X-0.8321Y0.4059
X-0.7321Y0.4059
X-0.6321Y0.4059
X-0.7539Y-0.1291
X-1.3539Y-0.2441
X0.5711Y-0.3441
X0.5711Y-0.4941
X0.3461Y0.5609
X1.1711Y0.2559
X1.1711Y0.1559
X-0.7539Y0.6059
X-0.8539Y0.6059
X-1.27Y0.265
X-0.6139Y0.6059
X0.0961Y0.5609
X-0.7539Y-0.3941
X-0.3539Y0.2909
X-0.2539Y0.2909
X-0.1539Y0.2909
X0.6461Y-0.2591
X1.6461Y-0.2441
X0.2211Y0.1509
X1.3411Y0.4559
X-1.6889Y0.4359
X-1.5889Y0.4359
X-1.4889Y0.4359
X-1.3889Y0.4359
X-1.2889Y0.4359
X-1.1889Y0.4359
X0.1161Y0.0909
X0.2211Y0.0309
X1.1711Y-0.2441
X1.1711Y-0.3441
X0.2211Y-0.0891
T6
X1.8461Y0.0437
X1.8461Y-0.0941
X1.8461Y-0.2319
T7
X-1.8701Y0.5906
X1.8701Y0.5906
X-1.8701Y-0.5906
X1.8701Y-0.5906
T0
M30
