G04 #@! TF.GenerationSoftware,KiCad,Pcbnew,5.0.0-4.fc29*
G04 #@! TF.CreationDate,2018-09-25T17:24:54+02:00*
G04 #@! TF.ProjectId,macro-motor,6D6163726F2D6D6F746F722E6B696361,rev?*
G04 #@! TF.SameCoordinates,PX916f720PY42c1d80*
G04 #@! TF.FileFunction,Soldermask,Bot*
G04 #@! TF.FilePolarity,Negative*
%FSLAX46Y46*%
G04 Gerber Fmt 4.6, Leading zero omitted, Abs format (unit mm)*
G04 Created by KiCad (PCBNEW 5.0.0-4.fc29) date Tue Sep 25 17:24:54 2018*
%MOMM*%
%LPD*%
G01*
G04 APERTURE LIST*
%ADD10C,0.100000*%
G04 APERTURE END LIST*
D10*
G36*
X48324022Y-12283563D02*
X48838139Y-12496517D01*
X49300833Y-12805679D01*
X49694321Y-13199167D01*
X50003483Y-13661861D01*
X50216437Y-14175978D01*
X50325000Y-14721762D01*
X50325000Y-15278238D01*
X50216437Y-15824022D01*
X50003483Y-16338139D01*
X49694321Y-16800833D01*
X49300833Y-17194321D01*
X48838139Y-17503483D01*
X48324022Y-17716437D01*
X47778238Y-17825000D01*
X47221762Y-17825000D01*
X46675978Y-17716437D01*
X46161861Y-17503483D01*
X45699167Y-17194321D01*
X45305679Y-16800833D01*
X44996517Y-16338139D01*
X44783563Y-15824022D01*
X44675000Y-15278238D01*
X44675000Y-14721762D01*
X44783563Y-14175978D01*
X44996517Y-13661861D01*
X45305679Y-13199167D01*
X45699167Y-12805679D01*
X46161861Y-12496517D01*
X46675978Y-12283563D01*
X47221762Y-12175000D01*
X47778238Y-12175000D01*
X48324022Y-12283563D01*
X48324022Y-12283563D01*
G37*
G36*
X-46675978Y-12283563D02*
X-46161861Y-12496517D01*
X-45699167Y-12805679D01*
X-45305679Y-13199167D01*
X-44996517Y-13661861D01*
X-44783563Y-14175978D01*
X-44675000Y-14721762D01*
X-44675000Y-15278238D01*
X-44783563Y-15824022D01*
X-44996517Y-16338139D01*
X-45305679Y-16800833D01*
X-45699167Y-17194321D01*
X-46161861Y-17503483D01*
X-46675978Y-17716437D01*
X-47221762Y-17825000D01*
X-47778238Y-17825000D01*
X-48324022Y-17716437D01*
X-48838139Y-17503483D01*
X-49300833Y-17194321D01*
X-49694321Y-16800833D01*
X-50003483Y-16338139D01*
X-50216437Y-15824022D01*
X-50325000Y-15278238D01*
X-50325000Y-14721762D01*
X-50216437Y-14175978D01*
X-50003483Y-13661861D01*
X-49694321Y-13199167D01*
X-49300833Y-12805679D01*
X-48838139Y-12496517D01*
X-48324022Y-12283563D01*
X-47778238Y-12175000D01*
X-47221762Y-12175000D01*
X-46675978Y-12283563D01*
X-46675978Y-12283563D01*
G37*
G36*
X14737973Y-11551260D02*
X14803983Y-11564390D01*
X14990520Y-11641656D01*
X15158400Y-11753830D01*
X15301170Y-11896600D01*
X15342092Y-11957844D01*
X15413344Y-12064480D01*
X15490610Y-12251017D01*
X15530000Y-12449048D01*
X15530000Y-12650952D01*
X15499224Y-12805679D01*
X15490610Y-12848982D01*
X15413344Y-13035520D01*
X15301170Y-13203400D01*
X15158400Y-13346170D01*
X15115253Y-13375000D01*
X14990520Y-13458344D01*
X14803983Y-13535610D01*
X14737973Y-13548740D01*
X14605954Y-13575000D01*
X14404046Y-13575000D01*
X14272027Y-13548740D01*
X14206017Y-13535610D01*
X14019480Y-13458344D01*
X13894747Y-13375000D01*
X13851600Y-13346170D01*
X13708830Y-13203400D01*
X13596656Y-13035520D01*
X13519390Y-12848982D01*
X13510777Y-12805679D01*
X13480000Y-12650952D01*
X13480000Y-12449048D01*
X13519390Y-12251017D01*
X13596656Y-12064480D01*
X13667908Y-11957844D01*
X13708830Y-11896600D01*
X13851600Y-11753830D01*
X14019480Y-11641656D01*
X14206017Y-11564390D01*
X14272027Y-11551260D01*
X14404046Y-11525000D01*
X14605954Y-11525000D01*
X14737973Y-11551260D01*
X14737973Y-11551260D01*
G37*
G36*
X22950000Y-13375000D02*
X21300000Y-13375000D01*
X21300000Y-11725000D01*
X22950000Y-11725000D01*
X22950000Y-13375000D01*
X22950000Y-13375000D01*
G37*
G36*
X3179801Y-10408027D02*
X3246983Y-10421390D01*
X3397724Y-10483829D01*
X3433520Y-10498656D01*
X3601400Y-10610830D01*
X3744170Y-10753600D01*
X3823508Y-10872338D01*
X3856344Y-10921480D01*
X3929047Y-11097000D01*
X3933610Y-11108018D01*
X3973000Y-11306046D01*
X3973000Y-11507954D01*
X3946740Y-11639973D01*
X3933610Y-11705983D01*
X3913791Y-11753830D01*
X3856344Y-11892520D01*
X3744170Y-12060400D01*
X3601400Y-12203170D01*
X3481082Y-12283564D01*
X3433520Y-12315344D01*
X3246983Y-12392610D01*
X3180973Y-12405740D01*
X3048954Y-12432000D01*
X2847046Y-12432000D01*
X2715027Y-12405740D01*
X2649017Y-12392610D01*
X2462480Y-12315344D01*
X2414918Y-12283564D01*
X2294600Y-12203170D01*
X2151830Y-12060400D01*
X2039656Y-11892520D01*
X1982209Y-11753830D01*
X1962390Y-11705983D01*
X1949260Y-11639973D01*
X1923000Y-11507954D01*
X1923000Y-11306046D01*
X1962390Y-11108018D01*
X1966954Y-11097000D01*
X2039656Y-10921480D01*
X2072492Y-10872338D01*
X2151830Y-10753600D01*
X2294600Y-10610830D01*
X2462480Y-10498656D01*
X2498276Y-10483829D01*
X2649017Y-10421390D01*
X2716199Y-10408027D01*
X2847046Y-10382000D01*
X3048954Y-10382000D01*
X3179801Y-10408027D01*
X3179801Y-10408027D01*
G37*
G36*
X258801Y-10408027D02*
X325983Y-10421390D01*
X476724Y-10483829D01*
X512520Y-10498656D01*
X680400Y-10610830D01*
X823170Y-10753600D01*
X902508Y-10872338D01*
X935344Y-10921480D01*
X1008047Y-11097000D01*
X1012610Y-11108018D01*
X1052000Y-11306046D01*
X1052000Y-11507954D01*
X1025740Y-11639973D01*
X1012610Y-11705983D01*
X992791Y-11753830D01*
X935344Y-11892520D01*
X823170Y-12060400D01*
X680400Y-12203170D01*
X560082Y-12283564D01*
X512520Y-12315344D01*
X325983Y-12392610D01*
X259973Y-12405740D01*
X127954Y-12432000D01*
X-73954Y-12432000D01*
X-205973Y-12405740D01*
X-271983Y-12392610D01*
X-458520Y-12315344D01*
X-506082Y-12283564D01*
X-626400Y-12203170D01*
X-769170Y-12060400D01*
X-881344Y-11892520D01*
X-938791Y-11753830D01*
X-958610Y-11705983D01*
X-971740Y-11639973D01*
X-998000Y-11507954D01*
X-998000Y-11306046D01*
X-958610Y-11108018D01*
X-954046Y-11097000D01*
X-881344Y-10921480D01*
X-848508Y-10872338D01*
X-769170Y-10753600D01*
X-626400Y-10610830D01*
X-458520Y-10498656D01*
X-422724Y-10483829D01*
X-271983Y-10421390D01*
X-204801Y-10408027D01*
X-73954Y-10382000D01*
X127954Y-10382000D01*
X258801Y-10408027D01*
X258801Y-10408027D01*
G37*
G36*
X-9900027Y-10281260D02*
X-9834017Y-10294390D01*
X-9700453Y-10349714D01*
X-9647480Y-10371656D01*
X-9479600Y-10483830D01*
X-9336830Y-10626600D01*
X-9260353Y-10741056D01*
X-9224656Y-10794480D01*
X-9187161Y-10885000D01*
X-9147390Y-10981018D01*
X-9108000Y-11179046D01*
X-9108000Y-11380954D01*
X-9147390Y-11578982D01*
X-9224656Y-11765520D01*
X-9336830Y-11933400D01*
X-9479600Y-12076170D01*
X-9627509Y-12175000D01*
X-9647480Y-12188344D01*
X-9834017Y-12265610D01*
X-9900027Y-12278740D01*
X-10032046Y-12305000D01*
X-10233954Y-12305000D01*
X-10365973Y-12278740D01*
X-10431983Y-12265610D01*
X-10618520Y-12188344D01*
X-10638491Y-12175000D01*
X-10786400Y-12076170D01*
X-10929170Y-11933400D01*
X-11041344Y-11765520D01*
X-11118610Y-11578982D01*
X-11158000Y-11380954D01*
X-11158000Y-11179046D01*
X-11118610Y-10981018D01*
X-11078838Y-10885000D01*
X-11041344Y-10794480D01*
X-11005647Y-10741056D01*
X-10929170Y-10626600D01*
X-10786400Y-10483830D01*
X-10618520Y-10371656D01*
X-10565547Y-10349714D01*
X-10431983Y-10294390D01*
X-10365973Y-10281260D01*
X-10233954Y-10255000D01*
X-10032046Y-10255000D01*
X-9900027Y-10281260D01*
X-9900027Y-10281260D01*
G37*
G36*
X32989902Y-11101323D02*
X33030918Y-11113764D01*
X33068714Y-11133967D01*
X33101844Y-11161156D01*
X33129033Y-11194286D01*
X33149236Y-11232082D01*
X33161677Y-11273098D01*
X33166000Y-11316983D01*
X33166000Y-11802017D01*
X33161677Y-11845902D01*
X33149236Y-11886918D01*
X33129033Y-11924714D01*
X33101844Y-11957844D01*
X33068714Y-11985033D01*
X33030918Y-12005236D01*
X32989902Y-12017677D01*
X32946017Y-12022000D01*
X32385983Y-12022000D01*
X32342098Y-12017677D01*
X32301082Y-12005236D01*
X32263286Y-11985033D01*
X32230156Y-11957844D01*
X32202967Y-11924714D01*
X32182764Y-11886918D01*
X32170323Y-11845902D01*
X32166000Y-11802017D01*
X32166000Y-11316983D01*
X32170323Y-11273098D01*
X32182764Y-11232082D01*
X32202967Y-11194286D01*
X32230156Y-11161156D01*
X32263286Y-11133967D01*
X32301082Y-11113764D01*
X32342098Y-11101323D01*
X32385983Y-11097000D01*
X32946017Y-11097000D01*
X32989902Y-11101323D01*
X32989902Y-11101323D01*
G37*
G36*
X-18917027Y-9011260D02*
X-18851017Y-9024390D01*
X-18664480Y-9101656D01*
X-18496600Y-9213830D01*
X-18353830Y-9356600D01*
X-18277353Y-9471056D01*
X-18241656Y-9524480D01*
X-18169741Y-9698098D01*
X-18164390Y-9711018D01*
X-18125000Y-9909046D01*
X-18125000Y-10110954D01*
X-18139039Y-10181534D01*
X-18164390Y-10308983D01*
X-18236813Y-10483829D01*
X-18241656Y-10495520D01*
X-18353830Y-10663400D01*
X-18496600Y-10806170D01*
X-18520748Y-10822305D01*
X-18664480Y-10918344D01*
X-18851017Y-10995610D01*
X-18917027Y-11008740D01*
X-19049046Y-11035000D01*
X-19250954Y-11035000D01*
X-19382973Y-11008740D01*
X-19448983Y-10995610D01*
X-19635520Y-10918344D01*
X-19779252Y-10822305D01*
X-19803400Y-10806170D01*
X-19946170Y-10663400D01*
X-20058344Y-10495520D01*
X-20063187Y-10483829D01*
X-20135610Y-10308983D01*
X-20160961Y-10181534D01*
X-20175000Y-10110954D01*
X-20175000Y-9909046D01*
X-20135610Y-9711018D01*
X-20130258Y-9698098D01*
X-20058344Y-9524480D01*
X-20022647Y-9471056D01*
X-19946170Y-9356600D01*
X-19803400Y-9213830D01*
X-19635520Y-9101656D01*
X-19448983Y-9024390D01*
X-19382973Y-9011260D01*
X-19250954Y-8985000D01*
X-19049046Y-8985000D01*
X-18917027Y-9011260D01*
X-18917027Y-9011260D01*
G37*
G36*
X-34157027Y-9011260D02*
X-34091017Y-9024390D01*
X-33904480Y-9101656D01*
X-33736600Y-9213830D01*
X-33593830Y-9356600D01*
X-33517353Y-9471056D01*
X-33481656Y-9524480D01*
X-33409741Y-9698098D01*
X-33404390Y-9711018D01*
X-33365000Y-9909046D01*
X-33365000Y-10110954D01*
X-33379039Y-10181534D01*
X-33404390Y-10308983D01*
X-33476813Y-10483829D01*
X-33481656Y-10495520D01*
X-33593830Y-10663400D01*
X-33736600Y-10806170D01*
X-33760748Y-10822305D01*
X-33904480Y-10918344D01*
X-34091017Y-10995610D01*
X-34157027Y-11008740D01*
X-34289046Y-11035000D01*
X-34490954Y-11035000D01*
X-34622973Y-11008740D01*
X-34688983Y-10995610D01*
X-34875520Y-10918344D01*
X-35019252Y-10822305D01*
X-35043400Y-10806170D01*
X-35186170Y-10663400D01*
X-35298344Y-10495520D01*
X-35303187Y-10483829D01*
X-35375610Y-10308983D01*
X-35400961Y-10181534D01*
X-35415000Y-10110954D01*
X-35415000Y-9909046D01*
X-35375610Y-9711018D01*
X-35370258Y-9698098D01*
X-35298344Y-9524480D01*
X-35262647Y-9471056D01*
X-35186170Y-9356600D01*
X-35043400Y-9213830D01*
X-34875520Y-9101656D01*
X-34688983Y-9024390D01*
X-34622973Y-9011260D01*
X-34490954Y-8985000D01*
X-34289046Y-8985000D01*
X-34157027Y-9011260D01*
X-34157027Y-9011260D01*
G37*
G36*
X-44632470Y-9147661D02*
X-44632467Y-9147662D01*
X-44632466Y-9147662D01*
X-44467535Y-9197693D01*
X-44437347Y-9213829D01*
X-44315524Y-9278944D01*
X-44182288Y-9388288D01*
X-44072944Y-9521524D01*
X-44029749Y-9602338D01*
X-43991693Y-9673535D01*
X-43959062Y-9781106D01*
X-43941661Y-9838470D01*
X-43924767Y-10010000D01*
X-43941661Y-10181530D01*
X-43941662Y-10181533D01*
X-43941662Y-10181534D01*
X-43991693Y-10346465D01*
X-43991695Y-10346468D01*
X-44072944Y-10498476D01*
X-44182288Y-10631712D01*
X-44315524Y-10741056D01*
X-44424377Y-10799238D01*
X-44467535Y-10822307D01*
X-44632466Y-10872338D01*
X-44632467Y-10872338D01*
X-44632470Y-10872339D01*
X-44761021Y-10885000D01*
X-44846979Y-10885000D01*
X-44975530Y-10872339D01*
X-44975533Y-10872338D01*
X-44975534Y-10872338D01*
X-45140465Y-10822307D01*
X-45183623Y-10799238D01*
X-45292476Y-10741056D01*
X-45425712Y-10631712D01*
X-45535056Y-10498476D01*
X-45616305Y-10346468D01*
X-45616307Y-10346465D01*
X-45666338Y-10181534D01*
X-45666338Y-10181533D01*
X-45666339Y-10181530D01*
X-45683233Y-10010000D01*
X-45666339Y-9838470D01*
X-45648938Y-9781106D01*
X-45616307Y-9673535D01*
X-45578251Y-9602338D01*
X-45535056Y-9521524D01*
X-45425712Y-9388288D01*
X-45292476Y-9278944D01*
X-45170653Y-9213829D01*
X-45140465Y-9197693D01*
X-44975534Y-9147662D01*
X-44975533Y-9147662D01*
X-44975530Y-9147661D01*
X-44846979Y-9135000D01*
X-44761021Y-9135000D01*
X-44632470Y-9147661D01*
X-44632470Y-9147661D01*
G37*
G36*
X32989902Y-9526323D02*
X33030918Y-9538764D01*
X33068714Y-9558967D01*
X33101844Y-9586156D01*
X33129033Y-9619286D01*
X33149236Y-9657082D01*
X33161677Y-9698098D01*
X33166000Y-9741983D01*
X33166000Y-10227017D01*
X33161677Y-10270902D01*
X33149236Y-10311918D01*
X33129033Y-10349714D01*
X33101844Y-10382844D01*
X33068714Y-10410033D01*
X33030918Y-10430236D01*
X32989902Y-10442677D01*
X32946017Y-10447000D01*
X32385983Y-10447000D01*
X32342098Y-10442677D01*
X32301082Y-10430236D01*
X32263286Y-10410033D01*
X32230156Y-10382844D01*
X32202967Y-10349714D01*
X32182764Y-10311918D01*
X32170323Y-10270902D01*
X32166000Y-10227017D01*
X32166000Y-9741983D01*
X32170323Y-9698098D01*
X32182764Y-9657082D01*
X32202967Y-9619286D01*
X32230156Y-9586156D01*
X32263286Y-9558967D01*
X32301082Y-9538764D01*
X32342098Y-9526323D01*
X32385983Y-9522000D01*
X32946017Y-9522000D01*
X32989902Y-9526323D01*
X32989902Y-9526323D01*
G37*
G36*
X22365644Y-8256704D02*
X22515784Y-8318894D01*
X22614787Y-8385046D01*
X22642458Y-8403535D01*
X22650907Y-8409181D01*
X22765819Y-8524093D01*
X22856106Y-8659216D01*
X22918296Y-8809356D01*
X22950000Y-8968745D01*
X22950000Y-9131255D01*
X22918296Y-9290644D01*
X22856106Y-9440784D01*
X22802157Y-9521524D01*
X22765820Y-9575906D01*
X22650906Y-9690820D01*
X22624992Y-9708135D01*
X22515784Y-9781106D01*
X22365644Y-9843296D01*
X22206255Y-9875000D01*
X22043745Y-9875000D01*
X21884356Y-9843296D01*
X21734216Y-9781106D01*
X21625008Y-9708135D01*
X21599094Y-9690820D01*
X21484180Y-9575906D01*
X21447843Y-9521524D01*
X21393894Y-9440784D01*
X21331704Y-9290644D01*
X21300000Y-9131255D01*
X21300000Y-8968745D01*
X21331704Y-8809356D01*
X21393894Y-8659216D01*
X21484181Y-8524093D01*
X21599093Y-8409181D01*
X21607543Y-8403535D01*
X21635213Y-8385046D01*
X21734216Y-8318894D01*
X21884356Y-8256704D01*
X22043745Y-8225000D01*
X22206255Y-8225000D01*
X22365644Y-8256704D01*
X22365644Y-8256704D01*
G37*
G36*
X14737973Y-7741260D02*
X14803983Y-7754390D01*
X14990520Y-7831656D01*
X15158400Y-7943830D01*
X15301170Y-8086600D01*
X15377647Y-8201056D01*
X15413344Y-8254480D01*
X15477423Y-8409180D01*
X15490610Y-8441018D01*
X15530000Y-8639046D01*
X15530000Y-8840954D01*
X15515961Y-8911534D01*
X15490610Y-9038983D01*
X15449017Y-9139398D01*
X15413344Y-9225520D01*
X15301170Y-9393400D01*
X15158400Y-9536170D01*
X15078239Y-9589732D01*
X14990520Y-9648344D01*
X14803983Y-9725610D01*
X14737973Y-9738740D01*
X14605954Y-9765000D01*
X14404046Y-9765000D01*
X14272027Y-9738740D01*
X14206017Y-9725610D01*
X14019480Y-9648344D01*
X13931761Y-9589732D01*
X13851600Y-9536170D01*
X13708830Y-9393400D01*
X13596656Y-9225520D01*
X13560983Y-9139398D01*
X13519390Y-9038983D01*
X13494039Y-8911534D01*
X13480000Y-8840954D01*
X13480000Y-8639046D01*
X13519390Y-8441018D01*
X13532578Y-8409180D01*
X13596656Y-8254480D01*
X13632353Y-8201056D01*
X13708830Y-8086600D01*
X13851600Y-7943830D01*
X14019480Y-7831656D01*
X14206017Y-7754390D01*
X14272027Y-7741260D01*
X14404046Y-7715000D01*
X14605954Y-7715000D01*
X14737973Y-7741260D01*
X14737973Y-7741260D01*
G37*
G36*
X29916530Y-7877661D02*
X29916533Y-7877662D01*
X29916534Y-7877662D01*
X30081465Y-7927693D01*
X30111653Y-7943829D01*
X30233476Y-8008944D01*
X30366712Y-8118288D01*
X30476056Y-8251524D01*
X30512066Y-8318895D01*
X30557307Y-8403535D01*
X30593878Y-8524094D01*
X30607339Y-8568470D01*
X30624233Y-8740000D01*
X30607339Y-8911530D01*
X30607338Y-8911533D01*
X30607338Y-8911534D01*
X30557307Y-9076465D01*
X30557305Y-9076468D01*
X30476056Y-9228476D01*
X30366712Y-9361712D01*
X30233476Y-9471056D01*
X30130077Y-9526323D01*
X30081465Y-9552307D01*
X29916534Y-9602338D01*
X29916533Y-9602338D01*
X29916530Y-9602339D01*
X29787979Y-9615000D01*
X29702021Y-9615000D01*
X29573470Y-9602339D01*
X29573467Y-9602338D01*
X29573466Y-9602338D01*
X29408535Y-9552307D01*
X29359923Y-9526323D01*
X29256524Y-9471056D01*
X29123288Y-9361712D01*
X29013944Y-9228476D01*
X28932695Y-9076468D01*
X28932693Y-9076465D01*
X28882662Y-8911534D01*
X28882662Y-8911533D01*
X28882661Y-8911530D01*
X28865767Y-8740000D01*
X28882661Y-8568470D01*
X28896122Y-8524094D01*
X28932693Y-8403535D01*
X28977934Y-8318895D01*
X29013944Y-8251524D01*
X29123288Y-8118288D01*
X29256524Y-8008944D01*
X29378347Y-7943829D01*
X29408535Y-7927693D01*
X29573466Y-7877662D01*
X29573467Y-7877662D01*
X29573470Y-7877661D01*
X29702021Y-7865000D01*
X29787979Y-7865000D01*
X29916530Y-7877661D01*
X29916530Y-7877661D01*
G37*
G36*
X3180973Y-7487260D02*
X3246983Y-7500390D01*
X3417335Y-7570952D01*
X3433520Y-7577656D01*
X3601400Y-7689830D01*
X3744170Y-7832600D01*
X3818491Y-7943829D01*
X3856344Y-8000480D01*
X3905142Y-8118288D01*
X3933610Y-8187018D01*
X3959842Y-8318894D01*
X3973000Y-8385048D01*
X3973000Y-8586952D01*
X3933610Y-8784983D01*
X3881191Y-8911534D01*
X3856344Y-8971520D01*
X3744170Y-9139400D01*
X3601400Y-9282170D01*
X3588716Y-9290645D01*
X3433520Y-9394344D01*
X3246983Y-9471610D01*
X3180973Y-9484740D01*
X3048954Y-9511000D01*
X2847046Y-9511000D01*
X2715027Y-9484740D01*
X2649017Y-9471610D01*
X2462480Y-9394344D01*
X2307284Y-9290645D01*
X2294600Y-9282170D01*
X2151830Y-9139400D01*
X2039656Y-8971520D01*
X2014809Y-8911534D01*
X1962390Y-8784983D01*
X1923000Y-8586952D01*
X1923000Y-8385048D01*
X1936159Y-8318894D01*
X1962390Y-8187018D01*
X1990859Y-8118288D01*
X2039656Y-8000480D01*
X2077509Y-7943829D01*
X2151830Y-7832600D01*
X2294600Y-7689830D01*
X2462480Y-7577656D01*
X2478665Y-7570952D01*
X2649017Y-7500390D01*
X2715027Y-7487260D01*
X2847046Y-7461000D01*
X3048954Y-7461000D01*
X3180973Y-7487260D01*
X3180973Y-7487260D01*
G37*
G36*
X259973Y-7487260D02*
X325983Y-7500390D01*
X496335Y-7570952D01*
X512520Y-7577656D01*
X680400Y-7689830D01*
X823170Y-7832600D01*
X897491Y-7943829D01*
X935344Y-8000480D01*
X984142Y-8118288D01*
X1012610Y-8187018D01*
X1038842Y-8318894D01*
X1052000Y-8385048D01*
X1052000Y-8586952D01*
X1012610Y-8784983D01*
X960191Y-8911534D01*
X935344Y-8971520D01*
X823170Y-9139400D01*
X680400Y-9282170D01*
X667716Y-9290645D01*
X512520Y-9394344D01*
X325983Y-9471610D01*
X259973Y-9484740D01*
X127954Y-9511000D01*
X-73954Y-9511000D01*
X-205973Y-9484740D01*
X-271983Y-9471610D01*
X-458520Y-9394344D01*
X-613716Y-9290645D01*
X-626400Y-9282170D01*
X-769170Y-9139400D01*
X-881344Y-8971520D01*
X-906191Y-8911534D01*
X-958610Y-8784983D01*
X-998000Y-8586952D01*
X-998000Y-8385048D01*
X-984841Y-8318894D01*
X-958610Y-8187018D01*
X-930141Y-8118288D01*
X-881344Y-8000480D01*
X-843491Y-7943829D01*
X-769170Y-7832600D01*
X-626400Y-7689830D01*
X-458520Y-7577656D01*
X-442335Y-7570952D01*
X-271983Y-7500390D01*
X-205973Y-7487260D01*
X-73954Y-7461000D01*
X127954Y-7461000D01*
X259973Y-7487260D01*
X259973Y-7487260D01*
G37*
G36*
X-18917027Y-6471260D02*
X-18851017Y-6484390D01*
X-18664480Y-6561656D01*
X-18496600Y-6673830D01*
X-18353830Y-6816600D01*
X-18311479Y-6879983D01*
X-18241656Y-6984480D01*
X-18204161Y-7075000D01*
X-18164390Y-7171018D01*
X-18125000Y-7369046D01*
X-18125000Y-7570954D01*
X-18139039Y-7641534D01*
X-18164390Y-7768983D01*
X-18209406Y-7877661D01*
X-18241656Y-7955520D01*
X-18353830Y-8123400D01*
X-18496600Y-8266170D01*
X-18595627Y-8332338D01*
X-18664480Y-8378344D01*
X-18851017Y-8455610D01*
X-18917027Y-8468740D01*
X-19049046Y-8495000D01*
X-19250954Y-8495000D01*
X-19382973Y-8468740D01*
X-19448983Y-8455610D01*
X-19635520Y-8378344D01*
X-19704373Y-8332338D01*
X-19803400Y-8266170D01*
X-19946170Y-8123400D01*
X-20058344Y-7955520D01*
X-20090594Y-7877661D01*
X-20135610Y-7768983D01*
X-20160961Y-7641534D01*
X-20175000Y-7570954D01*
X-20175000Y-7369046D01*
X-20135610Y-7171018D01*
X-20095838Y-7075000D01*
X-20058344Y-6984480D01*
X-19988521Y-6879983D01*
X-19946170Y-6816600D01*
X-19803400Y-6673830D01*
X-19635520Y-6561656D01*
X-19448983Y-6484390D01*
X-19382973Y-6471260D01*
X-19250954Y-6445000D01*
X-19049046Y-6445000D01*
X-18917027Y-6471260D01*
X-18917027Y-6471260D01*
G37*
G36*
X-25328470Y-6607661D02*
X-25328467Y-6607662D01*
X-25328466Y-6607662D01*
X-25163535Y-6657693D01*
X-25133347Y-6673829D01*
X-25011524Y-6738944D01*
X-24878288Y-6848288D01*
X-24768944Y-6981524D01*
X-24723513Y-7066520D01*
X-24687693Y-7133535D01*
X-24637662Y-7298466D01*
X-24637661Y-7298470D01*
X-24620767Y-7470000D01*
X-24637661Y-7641530D01*
X-24637662Y-7641533D01*
X-24637662Y-7641534D01*
X-24687693Y-7806465D01*
X-24687695Y-7806468D01*
X-24768944Y-7958476D01*
X-24878288Y-8091712D01*
X-25011524Y-8201056D01*
X-25115635Y-8256704D01*
X-25163535Y-8282307D01*
X-25328466Y-8332338D01*
X-25328467Y-8332338D01*
X-25328470Y-8332339D01*
X-25457021Y-8345000D01*
X-25542979Y-8345000D01*
X-25671530Y-8332339D01*
X-25671533Y-8332338D01*
X-25671534Y-8332338D01*
X-25836465Y-8282307D01*
X-25884365Y-8256704D01*
X-25988476Y-8201056D01*
X-26121712Y-8091712D01*
X-26231056Y-7958476D01*
X-26312305Y-7806468D01*
X-26312307Y-7806465D01*
X-26362338Y-7641534D01*
X-26362338Y-7641533D01*
X-26362339Y-7641530D01*
X-26379233Y-7470000D01*
X-26362339Y-7298470D01*
X-26362338Y-7298466D01*
X-26312307Y-7133535D01*
X-26276487Y-7066520D01*
X-26231056Y-6981524D01*
X-26121712Y-6848288D01*
X-25988476Y-6738944D01*
X-25866653Y-6673829D01*
X-25836465Y-6657693D01*
X-25671534Y-6607662D01*
X-25671533Y-6607662D01*
X-25671530Y-6607661D01*
X-25542979Y-6595000D01*
X-25457021Y-6595000D01*
X-25328470Y-6607661D01*
X-25328470Y-6607661D01*
G37*
G36*
X-44632470Y-6607661D02*
X-44632467Y-6607662D01*
X-44632466Y-6607662D01*
X-44467535Y-6657693D01*
X-44437347Y-6673829D01*
X-44315524Y-6738944D01*
X-44182288Y-6848288D01*
X-44072944Y-6981524D01*
X-44027513Y-7066520D01*
X-43991693Y-7133535D01*
X-43941662Y-7298466D01*
X-43941661Y-7298470D01*
X-43924767Y-7470000D01*
X-43941661Y-7641530D01*
X-43941662Y-7641533D01*
X-43941662Y-7641534D01*
X-43991693Y-7806465D01*
X-43991695Y-7806468D01*
X-44072944Y-7958476D01*
X-44182288Y-8091712D01*
X-44315524Y-8201056D01*
X-44419635Y-8256704D01*
X-44467535Y-8282307D01*
X-44632466Y-8332338D01*
X-44632467Y-8332338D01*
X-44632470Y-8332339D01*
X-44761021Y-8345000D01*
X-44846979Y-8345000D01*
X-44975530Y-8332339D01*
X-44975533Y-8332338D01*
X-44975534Y-8332338D01*
X-45140465Y-8282307D01*
X-45188365Y-8256704D01*
X-45292476Y-8201056D01*
X-45425712Y-8091712D01*
X-45535056Y-7958476D01*
X-45616305Y-7806468D01*
X-45616307Y-7806465D01*
X-45666338Y-7641534D01*
X-45666338Y-7641533D01*
X-45666339Y-7641530D01*
X-45683233Y-7470000D01*
X-45666339Y-7298470D01*
X-45666338Y-7298466D01*
X-45616307Y-7133535D01*
X-45580487Y-7066520D01*
X-45535056Y-6981524D01*
X-45425712Y-6848288D01*
X-45292476Y-6738944D01*
X-45170653Y-6673829D01*
X-45140465Y-6657693D01*
X-44975534Y-6607662D01*
X-44975533Y-6607662D01*
X-44975530Y-6607661D01*
X-44846979Y-6595000D01*
X-44761021Y-6595000D01*
X-44632470Y-6607661D01*
X-44632470Y-6607661D01*
G37*
G36*
X-27165000Y-8345000D02*
X-28915000Y-8345000D01*
X-28915000Y-6595000D01*
X-27165000Y-6595000D01*
X-27165000Y-8345000D01*
X-27165000Y-8345000D01*
G37*
G36*
X-22788470Y-6607661D02*
X-22788467Y-6607662D01*
X-22788466Y-6607662D01*
X-22623535Y-6657693D01*
X-22593347Y-6673829D01*
X-22471524Y-6738944D01*
X-22338288Y-6848288D01*
X-22228944Y-6981524D01*
X-22183513Y-7066520D01*
X-22147693Y-7133535D01*
X-22097662Y-7298466D01*
X-22097661Y-7298470D01*
X-22080767Y-7470000D01*
X-22097661Y-7641530D01*
X-22097662Y-7641533D01*
X-22097662Y-7641534D01*
X-22147693Y-7806465D01*
X-22147695Y-7806468D01*
X-22228944Y-7958476D01*
X-22338288Y-8091712D01*
X-22471524Y-8201056D01*
X-22575635Y-8256704D01*
X-22623535Y-8282307D01*
X-22788466Y-8332338D01*
X-22788467Y-8332338D01*
X-22788470Y-8332339D01*
X-22917021Y-8345000D01*
X-23002979Y-8345000D01*
X-23131530Y-8332339D01*
X-23131533Y-8332338D01*
X-23131534Y-8332338D01*
X-23296465Y-8282307D01*
X-23344365Y-8256704D01*
X-23448476Y-8201056D01*
X-23581712Y-8091712D01*
X-23691056Y-7958476D01*
X-23772305Y-7806468D01*
X-23772307Y-7806465D01*
X-23822338Y-7641534D01*
X-23822338Y-7641533D01*
X-23822339Y-7641530D01*
X-23839233Y-7470000D01*
X-23822339Y-7298470D01*
X-23822338Y-7298466D01*
X-23772307Y-7133535D01*
X-23736487Y-7066520D01*
X-23691056Y-6981524D01*
X-23581712Y-6848288D01*
X-23448476Y-6738944D01*
X-23326653Y-6673829D01*
X-23296465Y-6657693D01*
X-23131534Y-6607662D01*
X-23131533Y-6607662D01*
X-23131530Y-6607661D01*
X-23002979Y-6595000D01*
X-22917021Y-6595000D01*
X-22788470Y-6607661D01*
X-22788470Y-6607661D01*
G37*
G36*
X16642973Y-5582260D02*
X16708983Y-5595390D01*
X16867513Y-5661055D01*
X16895520Y-5672656D01*
X17063400Y-5784830D01*
X17206170Y-5927600D01*
X17318344Y-6095480D01*
X17395610Y-6282018D01*
X17435000Y-6480046D01*
X17435000Y-6681954D01*
X17423664Y-6738944D01*
X17400898Y-6853400D01*
X17395610Y-6879982D01*
X17318344Y-7066520D01*
X17206170Y-7234400D01*
X17063400Y-7377170D01*
X16937940Y-7461000D01*
X16895520Y-7489344D01*
X16708983Y-7566610D01*
X16653450Y-7577656D01*
X16510954Y-7606000D01*
X16309046Y-7606000D01*
X16166550Y-7577656D01*
X16111017Y-7566610D01*
X15924480Y-7489344D01*
X15882060Y-7461000D01*
X15756600Y-7377170D01*
X15613830Y-7234400D01*
X15501656Y-7066520D01*
X15424390Y-6879982D01*
X15419103Y-6853400D01*
X15396336Y-6738944D01*
X15385000Y-6681954D01*
X15385000Y-6480046D01*
X15424390Y-6282018D01*
X15501656Y-6095480D01*
X15613830Y-5927600D01*
X15756600Y-5784830D01*
X15924480Y-5672656D01*
X15952487Y-5661055D01*
X16111017Y-5595390D01*
X16177027Y-5582260D01*
X16309046Y-5556000D01*
X16510954Y-5556000D01*
X16642973Y-5582260D01*
X16642973Y-5582260D01*
G37*
G36*
X42042973Y-5201260D02*
X42108983Y-5214390D01*
X42295520Y-5291656D01*
X42463400Y-5403830D01*
X42606170Y-5546600D01*
X42682647Y-5661056D01*
X42718344Y-5714480D01*
X42795610Y-5901017D01*
X42800898Y-5927602D01*
X42834291Y-6095480D01*
X42835000Y-6099048D01*
X42835000Y-6300952D01*
X42795610Y-6498983D01*
X42750594Y-6607661D01*
X42718344Y-6685520D01*
X42606170Y-6853400D01*
X42463400Y-6996170D01*
X42358114Y-7066520D01*
X42295520Y-7108344D01*
X42108983Y-7185610D01*
X42042973Y-7198740D01*
X41910954Y-7225000D01*
X41709046Y-7225000D01*
X41577027Y-7198740D01*
X41511017Y-7185610D01*
X41324480Y-7108344D01*
X41261886Y-7066520D01*
X41156600Y-6996170D01*
X41013830Y-6853400D01*
X40901656Y-6685520D01*
X40869406Y-6607661D01*
X40824390Y-6498983D01*
X40785000Y-6300952D01*
X40785000Y-6099048D01*
X40785710Y-6095480D01*
X40819102Y-5927602D01*
X40824390Y-5901017D01*
X40901656Y-5714480D01*
X40937353Y-5661056D01*
X41013830Y-5546600D01*
X41156600Y-5403830D01*
X41324480Y-5291656D01*
X41511017Y-5214390D01*
X41577027Y-5201260D01*
X41709046Y-5175000D01*
X41910954Y-5175000D01*
X42042973Y-5201260D01*
X42042973Y-5201260D01*
G37*
G36*
X-34157027Y-5201260D02*
X-34091017Y-5214390D01*
X-33904480Y-5291656D01*
X-33736600Y-5403830D01*
X-33593830Y-5546600D01*
X-33517353Y-5661056D01*
X-33481656Y-5714480D01*
X-33404390Y-5901017D01*
X-33399102Y-5927602D01*
X-33365709Y-6095480D01*
X-33365000Y-6099048D01*
X-33365000Y-6300952D01*
X-33404390Y-6498983D01*
X-33449406Y-6607661D01*
X-33481656Y-6685520D01*
X-33593830Y-6853400D01*
X-33736600Y-6996170D01*
X-33841886Y-7066520D01*
X-33904480Y-7108344D01*
X-34091017Y-7185610D01*
X-34157027Y-7198740D01*
X-34289046Y-7225000D01*
X-34490954Y-7225000D01*
X-34622973Y-7198740D01*
X-34688983Y-7185610D01*
X-34875520Y-7108344D01*
X-34938114Y-7066520D01*
X-35043400Y-6996170D01*
X-35186170Y-6853400D01*
X-35298344Y-6685520D01*
X-35330594Y-6607661D01*
X-35375610Y-6498983D01*
X-35415000Y-6300952D01*
X-35415000Y-6099048D01*
X-35414290Y-6095480D01*
X-35380898Y-5927602D01*
X-35375610Y-5901017D01*
X-35298344Y-5714480D01*
X-35262647Y-5661056D01*
X-35186170Y-5546600D01*
X-35043400Y-5403830D01*
X-34875520Y-5291656D01*
X-34688983Y-5214390D01*
X-34622973Y-5201260D01*
X-34490954Y-5175000D01*
X-34289046Y-5175000D01*
X-34157027Y-5201260D01*
X-34157027Y-5201260D01*
G37*
G36*
X48115000Y-7115000D02*
X45665000Y-7115000D01*
X45665000Y-4665000D01*
X48115000Y-4665000D01*
X48115000Y-7115000D01*
X48115000Y-7115000D01*
G37*
G36*
X30620000Y-7075000D02*
X28870000Y-7075000D01*
X28870000Y-5325000D01*
X30620000Y-5325000D01*
X30620000Y-7075000D01*
X30620000Y-7075000D01*
G37*
G36*
X19817973Y-3931260D02*
X19883983Y-3944390D01*
X20070520Y-4021656D01*
X20238400Y-4133830D01*
X20381170Y-4276600D01*
X20381171Y-4276602D01*
X20493344Y-4444480D01*
X20550792Y-4583171D01*
X20570610Y-4631018D01*
X20610000Y-4829046D01*
X20610000Y-5030954D01*
X20595961Y-5101534D01*
X20570610Y-5228983D01*
X20498187Y-5403829D01*
X20493344Y-5415520D01*
X20381170Y-5583400D01*
X20238400Y-5726170D01*
X20150609Y-5784830D01*
X20070520Y-5838344D01*
X19883983Y-5915610D01*
X19823704Y-5927600D01*
X19685954Y-5955000D01*
X19484046Y-5955000D01*
X19346296Y-5927600D01*
X19286017Y-5915610D01*
X19099480Y-5838344D01*
X19019391Y-5784830D01*
X18931600Y-5726170D01*
X18788830Y-5583400D01*
X18676656Y-5415520D01*
X18671813Y-5403829D01*
X18599390Y-5228983D01*
X18574039Y-5101534D01*
X18560000Y-5030954D01*
X18560000Y-4829046D01*
X18599390Y-4631018D01*
X18619209Y-4583171D01*
X18676656Y-4444480D01*
X18788829Y-4276602D01*
X18788830Y-4276600D01*
X18931600Y-4133830D01*
X19099480Y-4021656D01*
X19286017Y-3944390D01*
X19352027Y-3931260D01*
X19484046Y-3905000D01*
X19685954Y-3905000D01*
X19817973Y-3931260D01*
X19817973Y-3931260D01*
G37*
G36*
X-44632470Y-4067661D02*
X-44632467Y-4067662D01*
X-44632466Y-4067662D01*
X-44467535Y-4117693D01*
X-44437347Y-4133829D01*
X-44315524Y-4198944D01*
X-44182288Y-4308288D01*
X-44072944Y-4441524D01*
X-44014762Y-4550377D01*
X-43991693Y-4593535D01*
X-43960810Y-4695344D01*
X-43941661Y-4758470D01*
X-43924767Y-4930000D01*
X-43941661Y-5101530D01*
X-43941662Y-5101533D01*
X-43941662Y-5101534D01*
X-43991693Y-5266465D01*
X-43991695Y-5266468D01*
X-44072944Y-5418476D01*
X-44182288Y-5551712D01*
X-44315524Y-5661056D01*
X-44424377Y-5719238D01*
X-44467535Y-5742307D01*
X-44632466Y-5792338D01*
X-44632467Y-5792338D01*
X-44632470Y-5792339D01*
X-44761021Y-5805000D01*
X-44846979Y-5805000D01*
X-44975530Y-5792339D01*
X-44975533Y-5792338D01*
X-44975534Y-5792338D01*
X-45140465Y-5742307D01*
X-45183623Y-5719238D01*
X-45292476Y-5661056D01*
X-45425712Y-5551712D01*
X-45535056Y-5418476D01*
X-45616305Y-5266468D01*
X-45616307Y-5266465D01*
X-45666338Y-5101534D01*
X-45666338Y-5101533D01*
X-45666339Y-5101530D01*
X-45683233Y-4930000D01*
X-45666339Y-4758470D01*
X-45647190Y-4695344D01*
X-45616307Y-4593535D01*
X-45593238Y-4550377D01*
X-45535056Y-4441524D01*
X-45425712Y-4308288D01*
X-45292476Y-4198944D01*
X-45170653Y-4133829D01*
X-45140465Y-4117693D01*
X-44975534Y-4067662D01*
X-44975533Y-4067662D01*
X-44975530Y-4067661D01*
X-44846979Y-4055000D01*
X-44761021Y-4055000D01*
X-44632470Y-4067661D01*
X-44632470Y-4067661D01*
G37*
G36*
X3180973Y-2788260D02*
X3246983Y-2801390D01*
X3425949Y-2875520D01*
X3433520Y-2878656D01*
X3601400Y-2990830D01*
X3744170Y-3133600D01*
X3821017Y-3248610D01*
X3856344Y-3301480D01*
X3928459Y-3475581D01*
X3933610Y-3488018D01*
X3973000Y-3686046D01*
X3973000Y-3887954D01*
X3964159Y-3932400D01*
X3933610Y-4085983D01*
X3913791Y-4133830D01*
X3856344Y-4272520D01*
X3744170Y-4440400D01*
X3601400Y-4583170D01*
X3478933Y-4665000D01*
X3433520Y-4695344D01*
X3246983Y-4772610D01*
X3180973Y-4785740D01*
X3048954Y-4812000D01*
X2847046Y-4812000D01*
X2715027Y-4785740D01*
X2649017Y-4772610D01*
X2462480Y-4695344D01*
X2417067Y-4665000D01*
X2294600Y-4583170D01*
X2151830Y-4440400D01*
X2039656Y-4272520D01*
X1982209Y-4133830D01*
X1962390Y-4085983D01*
X1931841Y-3932400D01*
X1923000Y-3887954D01*
X1923000Y-3686046D01*
X1962390Y-3488018D01*
X1967542Y-3475581D01*
X2039656Y-3301480D01*
X2074983Y-3248610D01*
X2151830Y-3133600D01*
X2294600Y-2990830D01*
X2462480Y-2878656D01*
X2470051Y-2875520D01*
X2649017Y-2801390D01*
X2715027Y-2788260D01*
X2847046Y-2762000D01*
X3048954Y-2762000D01*
X3180973Y-2788260D01*
X3180973Y-2788260D01*
G37*
G36*
X-18917027Y-2280260D02*
X-18851017Y-2293390D01*
X-18680665Y-2363952D01*
X-18664480Y-2370656D01*
X-18496600Y-2482830D01*
X-18353830Y-2625600D01*
X-18311479Y-2688983D01*
X-18241656Y-2793480D01*
X-18164390Y-2980017D01*
X-18162239Y-2990830D01*
X-18125000Y-3178046D01*
X-18125000Y-3379954D01*
X-18164390Y-3577982D01*
X-18241656Y-3764520D01*
X-18353830Y-3932400D01*
X-18496600Y-4075170D01*
X-18584391Y-4133830D01*
X-18664480Y-4187344D01*
X-18851017Y-4264610D01*
X-18890784Y-4272520D01*
X-19049046Y-4304000D01*
X-19250954Y-4304000D01*
X-19409216Y-4272520D01*
X-19448983Y-4264610D01*
X-19635520Y-4187344D01*
X-19715609Y-4133830D01*
X-19803400Y-4075170D01*
X-19946170Y-3932400D01*
X-20058344Y-3764520D01*
X-20135610Y-3577982D01*
X-20175000Y-3379954D01*
X-20175000Y-3178046D01*
X-20137761Y-2990830D01*
X-20135610Y-2980017D01*
X-20058344Y-2793480D01*
X-19988521Y-2688983D01*
X-19946170Y-2625600D01*
X-19803400Y-2482830D01*
X-19635520Y-2370656D01*
X-19619335Y-2363952D01*
X-19448983Y-2293390D01*
X-19382973Y-2280260D01*
X-19250954Y-2254000D01*
X-19049046Y-2254000D01*
X-18917027Y-2280260D01*
X-18917027Y-2280260D01*
G37*
G36*
X47247319Y-1212076D02*
X47470255Y-1304419D01*
X47670892Y-1438481D01*
X47841519Y-1609108D01*
X47975581Y-1809745D01*
X48067924Y-2032681D01*
X48115000Y-2269348D01*
X48115000Y-2510652D01*
X48067924Y-2747319D01*
X47975581Y-2970255D01*
X47841519Y-3170892D01*
X47670892Y-3341519D01*
X47470255Y-3475581D01*
X47247319Y-3567924D01*
X47010652Y-3615000D01*
X46769348Y-3615000D01*
X46532681Y-3567924D01*
X46309745Y-3475581D01*
X46109108Y-3341519D01*
X45938481Y-3170892D01*
X45804419Y-2970255D01*
X45712076Y-2747319D01*
X45665000Y-2510652D01*
X45665000Y-2269348D01*
X45712076Y-2032681D01*
X45804419Y-1809745D01*
X45938481Y-1609108D01*
X46109108Y-1438481D01*
X46309745Y-1304419D01*
X46532681Y-1212076D01*
X46769348Y-1165000D01*
X47010652Y-1165000D01*
X47247319Y-1212076D01*
X47247319Y-1212076D01*
G37*
G36*
X-22727027Y-1391260D02*
X-22661017Y-1404390D01*
X-22578714Y-1438481D01*
X-22474480Y-1481656D01*
X-22306600Y-1593830D01*
X-22163830Y-1736600D01*
X-22139241Y-1773400D01*
X-22051656Y-1904480D01*
X-21994208Y-2043171D01*
X-21974390Y-2091018D01*
X-21935000Y-2289046D01*
X-21935000Y-2490954D01*
X-21961260Y-2622973D01*
X-21974390Y-2688983D01*
X-22051656Y-2875520D01*
X-22163830Y-3043400D01*
X-22306600Y-3186170D01*
X-22330748Y-3202305D01*
X-22474480Y-3298344D01*
X-22661017Y-3375610D01*
X-22727027Y-3388740D01*
X-22859046Y-3415000D01*
X-23060954Y-3415000D01*
X-23192973Y-3388740D01*
X-23258983Y-3375610D01*
X-23445520Y-3298344D01*
X-23589252Y-3202305D01*
X-23613400Y-3186170D01*
X-23756170Y-3043400D01*
X-23868344Y-2875520D01*
X-23945610Y-2688983D01*
X-23958740Y-2622973D01*
X-23985000Y-2490954D01*
X-23985000Y-2289046D01*
X-23945610Y-2091018D01*
X-23925791Y-2043171D01*
X-23868344Y-1904480D01*
X-23780759Y-1773400D01*
X-23756170Y-1736600D01*
X-23613400Y-1593830D01*
X-23445520Y-1481656D01*
X-23341286Y-1438481D01*
X-23258983Y-1404390D01*
X-23192973Y-1391260D01*
X-23060954Y-1365000D01*
X-22859046Y-1365000D01*
X-22727027Y-1391260D01*
X-22727027Y-1391260D01*
G37*
G36*
X42042973Y-1391260D02*
X42108983Y-1404390D01*
X42191286Y-1438481D01*
X42295520Y-1481656D01*
X42463400Y-1593830D01*
X42606170Y-1736600D01*
X42630759Y-1773400D01*
X42718344Y-1904480D01*
X42775792Y-2043171D01*
X42795610Y-2091018D01*
X42835000Y-2289046D01*
X42835000Y-2490954D01*
X42808740Y-2622973D01*
X42795610Y-2688983D01*
X42718344Y-2875520D01*
X42606170Y-3043400D01*
X42463400Y-3186170D01*
X42439252Y-3202305D01*
X42295520Y-3298344D01*
X42108983Y-3375610D01*
X42042973Y-3388740D01*
X41910954Y-3415000D01*
X41709046Y-3415000D01*
X41577027Y-3388740D01*
X41511017Y-3375610D01*
X41324480Y-3298344D01*
X41180748Y-3202305D01*
X41156600Y-3186170D01*
X41013830Y-3043400D01*
X40901656Y-2875520D01*
X40824390Y-2688983D01*
X40811260Y-2622973D01*
X40785000Y-2490954D01*
X40785000Y-2289046D01*
X40824390Y-2091018D01*
X40844209Y-2043171D01*
X40901656Y-1904480D01*
X40989241Y-1773400D01*
X41013830Y-1736600D01*
X41156600Y-1593830D01*
X41324480Y-1481656D01*
X41428714Y-1438481D01*
X41511017Y-1404390D01*
X41577027Y-1391260D01*
X41709046Y-1365000D01*
X41910954Y-1365000D01*
X42042973Y-1391260D01*
X42042973Y-1391260D01*
G37*
G36*
X5847973Y-1264260D02*
X5913983Y-1277390D01*
X6084335Y-1347952D01*
X6100520Y-1354656D01*
X6268400Y-1466830D01*
X6411170Y-1609600D01*
X6444141Y-1658945D01*
X6523344Y-1777480D01*
X6580792Y-1916171D01*
X6600610Y-1964018D01*
X6640000Y-2162046D01*
X6640000Y-2363954D01*
X6600610Y-2561982D01*
X6523344Y-2748520D01*
X6411170Y-2916400D01*
X6268400Y-3059170D01*
X6175781Y-3121056D01*
X6100520Y-3171344D01*
X5913983Y-3248610D01*
X5847973Y-3261740D01*
X5715954Y-3288000D01*
X5514046Y-3288000D01*
X5382027Y-3261740D01*
X5316017Y-3248610D01*
X5129480Y-3171344D01*
X5054219Y-3121056D01*
X4961600Y-3059170D01*
X4818830Y-2916400D01*
X4706656Y-2748520D01*
X4629390Y-2561982D01*
X4590000Y-2363954D01*
X4590000Y-2162046D01*
X4629390Y-1964018D01*
X4649209Y-1916171D01*
X4706656Y-1777480D01*
X4785859Y-1658945D01*
X4818830Y-1609600D01*
X4961600Y-1466830D01*
X5129480Y-1354656D01*
X5145665Y-1347952D01*
X5316017Y-1277390D01*
X5382027Y-1264260D01*
X5514046Y-1238000D01*
X5715954Y-1238000D01*
X5847973Y-1264260D01*
X5847973Y-1264260D01*
G37*
G36*
X29916530Y-1527661D02*
X29916533Y-1527662D01*
X29916534Y-1527662D01*
X30081465Y-1577693D01*
X30111653Y-1593829D01*
X30233476Y-1658944D01*
X30366712Y-1768288D01*
X30476056Y-1901524D01*
X30509459Y-1964018D01*
X30557307Y-2053535D01*
X30607338Y-2218466D01*
X30607339Y-2218470D01*
X30624233Y-2390000D01*
X30607339Y-2561530D01*
X30607338Y-2561533D01*
X30607338Y-2561534D01*
X30557307Y-2726465D01*
X30557305Y-2726468D01*
X30476056Y-2878476D01*
X30366712Y-3011712D01*
X30233476Y-3121056D01*
X30126854Y-3178046D01*
X30081465Y-3202307D01*
X29916534Y-3252338D01*
X29916533Y-3252338D01*
X29916530Y-3252339D01*
X29787979Y-3265000D01*
X29702021Y-3265000D01*
X29573470Y-3252339D01*
X29573467Y-3252338D01*
X29573466Y-3252338D01*
X29408535Y-3202307D01*
X29363146Y-3178046D01*
X29256524Y-3121056D01*
X29123288Y-3011712D01*
X29013944Y-2878476D01*
X28932695Y-2726468D01*
X28932693Y-2726465D01*
X28882662Y-2561534D01*
X28882662Y-2561533D01*
X28882661Y-2561530D01*
X28865767Y-2390000D01*
X28882661Y-2218470D01*
X28882662Y-2218466D01*
X28932693Y-2053535D01*
X28980541Y-1964018D01*
X29013944Y-1901524D01*
X29123288Y-1768288D01*
X29256524Y-1658944D01*
X29378347Y-1593829D01*
X29408535Y-1577693D01*
X29573466Y-1527662D01*
X29573467Y-1527662D01*
X29573470Y-1527661D01*
X29702021Y-1515000D01*
X29787979Y-1515000D01*
X29916530Y-1527661D01*
X29916530Y-1527661D01*
G37*
G36*
X-44632470Y-1527661D02*
X-44632467Y-1527662D01*
X-44632466Y-1527662D01*
X-44467535Y-1577693D01*
X-44437347Y-1593829D01*
X-44315524Y-1658944D01*
X-44182288Y-1768288D01*
X-44072944Y-1901524D01*
X-44039541Y-1964018D01*
X-43991693Y-2053535D01*
X-43941662Y-2218466D01*
X-43941661Y-2218470D01*
X-43924767Y-2390000D01*
X-43941661Y-2561530D01*
X-43941662Y-2561533D01*
X-43941662Y-2561534D01*
X-43991693Y-2726465D01*
X-43991695Y-2726468D01*
X-44072944Y-2878476D01*
X-44182288Y-3011712D01*
X-44315524Y-3121056D01*
X-44422146Y-3178046D01*
X-44467535Y-3202307D01*
X-44632466Y-3252338D01*
X-44632467Y-3252338D01*
X-44632470Y-3252339D01*
X-44761021Y-3265000D01*
X-44846979Y-3265000D01*
X-44975530Y-3252339D01*
X-44975533Y-3252338D01*
X-44975534Y-3252338D01*
X-45140465Y-3202307D01*
X-45185854Y-3178046D01*
X-45292476Y-3121056D01*
X-45425712Y-3011712D01*
X-45535056Y-2878476D01*
X-45616305Y-2726468D01*
X-45616307Y-2726465D01*
X-45666338Y-2561534D01*
X-45666338Y-2561533D01*
X-45666339Y-2561530D01*
X-45683233Y-2390000D01*
X-45666339Y-2218470D01*
X-45666338Y-2218466D01*
X-45616307Y-2053535D01*
X-45568459Y-1964018D01*
X-45535056Y-1901524D01*
X-45425712Y-1768288D01*
X-45292476Y-1658944D01*
X-45170653Y-1593829D01*
X-45140465Y-1577693D01*
X-44975534Y-1527662D01*
X-44975533Y-1527662D01*
X-44975530Y-1527661D01*
X-44846979Y-1515000D01*
X-44761021Y-1515000D01*
X-44632470Y-1527661D01*
X-44632470Y-1527661D01*
G37*
G36*
X23754973Y-248260D02*
X23820983Y-261390D01*
X23971724Y-323829D01*
X24007520Y-338656D01*
X24175400Y-450830D01*
X24318170Y-593600D01*
X24318171Y-593602D01*
X24430344Y-761480D01*
X24461050Y-835610D01*
X24507610Y-948018D01*
X24547000Y-1146046D01*
X24547000Y-1347954D01*
X24528993Y-1438480D01*
X24507610Y-1545983D01*
X24487791Y-1593830D01*
X24430344Y-1732520D01*
X24318170Y-1900400D01*
X24175400Y-2043170D01*
X24081952Y-2105610D01*
X24007520Y-2155344D01*
X23820983Y-2232610D01*
X23754973Y-2245740D01*
X23622954Y-2272000D01*
X23421046Y-2272000D01*
X23289027Y-2245740D01*
X23223017Y-2232610D01*
X23036480Y-2155344D01*
X22962048Y-2105610D01*
X22868600Y-2043170D01*
X22725830Y-1900400D01*
X22613656Y-1732520D01*
X22556209Y-1593830D01*
X22536390Y-1545983D01*
X22515007Y-1438480D01*
X22497000Y-1347954D01*
X22497000Y-1146046D01*
X22536390Y-948018D01*
X22582951Y-835610D01*
X22613656Y-761480D01*
X22725829Y-593602D01*
X22725830Y-593600D01*
X22868600Y-450830D01*
X23036480Y-338656D01*
X23072276Y-323829D01*
X23223017Y-261390D01*
X23289027Y-248260D01*
X23421046Y-222000D01*
X23622954Y-222000D01*
X23754973Y-248260D01*
X23754973Y-248260D01*
G37*
G36*
X-25298499Y-115000D02*
X-25201017Y-134390D01*
X-25014480Y-211656D01*
X-24846600Y-323830D01*
X-24703830Y-466600D01*
X-24679241Y-503400D01*
X-24591656Y-634480D01*
X-24554161Y-725000D01*
X-24514390Y-821018D01*
X-24475000Y-1019046D01*
X-24475000Y-1220954D01*
X-24478391Y-1238000D01*
X-24514390Y-1418983D01*
X-24559406Y-1527661D01*
X-24591656Y-1605520D01*
X-24703830Y-1773400D01*
X-24846600Y-1916170D01*
X-25014480Y-2028344D01*
X-25201017Y-2105610D01*
X-25267027Y-2118740D01*
X-25399046Y-2145000D01*
X-25600954Y-2145000D01*
X-25732973Y-2118740D01*
X-25798983Y-2105610D01*
X-25985520Y-2028344D01*
X-26153400Y-1916170D01*
X-26296170Y-1773400D01*
X-26408344Y-1605520D01*
X-26440594Y-1527661D01*
X-26485610Y-1418983D01*
X-26521609Y-1238000D01*
X-26525000Y-1220954D01*
X-26525000Y-1019046D01*
X-26485610Y-821018D01*
X-26445838Y-725000D01*
X-26408344Y-634480D01*
X-26320759Y-503400D01*
X-26296170Y-466600D01*
X-26153400Y-323830D01*
X-25985520Y-211656D01*
X-25798983Y-134390D01*
X-25701501Y-115000D01*
X-25600954Y-95000D01*
X-25399046Y-95000D01*
X-25298499Y-115000D01*
X-25298499Y-115000D01*
G37*
G36*
X3180973Y259740D02*
X3246983Y246610D01*
X3433520Y169344D01*
X3601400Y57170D01*
X3744170Y-85600D01*
X3786521Y-148983D01*
X3856344Y-253480D01*
X3933610Y-440017D01*
X3938898Y-466602D01*
X3973000Y-638046D01*
X3973000Y-839954D01*
X3933610Y-1037982D01*
X3856344Y-1224520D01*
X3744170Y-1392400D01*
X3601400Y-1535170D01*
X3513609Y-1593830D01*
X3433520Y-1647344D01*
X3246983Y-1724610D01*
X3207216Y-1732520D01*
X3048954Y-1764000D01*
X2847046Y-1764000D01*
X2688784Y-1732520D01*
X2649017Y-1724610D01*
X2462480Y-1647344D01*
X2382391Y-1593830D01*
X2294600Y-1535170D01*
X2151830Y-1392400D01*
X2039656Y-1224520D01*
X1962390Y-1037982D01*
X1923000Y-839954D01*
X1923000Y-638046D01*
X1957102Y-466602D01*
X1962390Y-440017D01*
X2039656Y-253480D01*
X2109479Y-148983D01*
X2151830Y-85600D01*
X2294600Y57170D01*
X2462480Y169344D01*
X2649017Y246610D01*
X2715027Y259740D01*
X2847046Y286000D01*
X3048954Y286000D01*
X3180973Y259740D01*
X3180973Y259740D01*
G37*
G36*
X21087973Y1148740D02*
X21153983Y1135610D01*
X21278622Y1083983D01*
X21340520Y1058344D01*
X21508400Y946170D01*
X21651170Y803400D01*
X21730920Y684046D01*
X21763344Y635520D01*
X21825270Y486018D01*
X21840610Y448982D01*
X21870348Y299480D01*
X21880000Y250952D01*
X21880000Y49048D01*
X21840610Y-148983D01*
X21768187Y-323829D01*
X21763344Y-335520D01*
X21651170Y-503400D01*
X21508400Y-646170D01*
X21390423Y-725000D01*
X21340520Y-758344D01*
X21153983Y-835610D01*
X21087973Y-848740D01*
X20955954Y-875000D01*
X20754046Y-875000D01*
X20622027Y-848740D01*
X20556017Y-835610D01*
X20369480Y-758344D01*
X20319577Y-725000D01*
X20201600Y-646170D01*
X20058830Y-503400D01*
X19946656Y-335520D01*
X19941813Y-323829D01*
X19869390Y-148983D01*
X19830000Y49048D01*
X19830000Y250952D01*
X19839653Y299480D01*
X19869390Y448982D01*
X19884731Y486018D01*
X19946656Y635520D01*
X19979080Y684046D01*
X20058830Y803400D01*
X20201600Y946170D01*
X20369480Y1058344D01*
X20431378Y1083983D01*
X20556017Y1135610D01*
X20622027Y1148740D01*
X20754046Y1175000D01*
X20955954Y1175000D01*
X21087973Y1148740D01*
X21087973Y1148740D01*
G37*
G36*
X-43929000Y-725000D02*
X-45679000Y-725000D01*
X-45679000Y1025000D01*
X-43929000Y1025000D01*
X-43929000Y-725000D01*
X-43929000Y-725000D01*
G37*
G36*
X30620000Y-725000D02*
X28870000Y-725000D01*
X28870000Y1025000D01*
X30620000Y1025000D01*
X30620000Y-725000D01*
X30620000Y-725000D01*
G37*
G36*
X5847973Y1783740D02*
X5913983Y1770610D01*
X6038622Y1718983D01*
X6100520Y1693344D01*
X6268400Y1581170D01*
X6411170Y1438400D01*
X6490920Y1319046D01*
X6523344Y1270520D01*
X6585270Y1121018D01*
X6600610Y1083982D01*
X6640000Y885954D01*
X6640000Y684046D01*
X6628022Y623830D01*
X6600610Y486017D01*
X6535617Y329110D01*
X6523344Y299480D01*
X6411170Y131600D01*
X6268400Y-11170D01*
X6183463Y-67923D01*
X6100520Y-123344D01*
X5913983Y-200610D01*
X5858450Y-211656D01*
X5715954Y-240000D01*
X5514046Y-240000D01*
X5371550Y-211656D01*
X5316017Y-200610D01*
X5129480Y-123344D01*
X5046537Y-67923D01*
X4961600Y-11170D01*
X4818830Y131600D01*
X4706656Y299480D01*
X4694383Y329110D01*
X4629390Y486017D01*
X4601978Y623830D01*
X4590000Y684046D01*
X4590000Y885954D01*
X4629390Y1083982D01*
X4644731Y1121018D01*
X4706656Y1270520D01*
X4739080Y1319046D01*
X4818830Y1438400D01*
X4961600Y1581170D01*
X5129480Y1693344D01*
X5191378Y1718983D01*
X5316017Y1770610D01*
X5382027Y1783740D01*
X5514046Y1810000D01*
X5715954Y1810000D01*
X5847973Y1783740D01*
X5847973Y1783740D01*
G37*
G36*
X47247319Y2287924D02*
X47470255Y2195581D01*
X47670892Y2061519D01*
X47841519Y1890892D01*
X47975581Y1690255D01*
X48067924Y1467319D01*
X48115000Y1230652D01*
X48115000Y989348D01*
X48067924Y752681D01*
X47975581Y529745D01*
X47841519Y329108D01*
X47670892Y158481D01*
X47470255Y24419D01*
X47247319Y-67924D01*
X47010652Y-115000D01*
X46769348Y-115000D01*
X46532681Y-67924D01*
X46309745Y24419D01*
X46109108Y158481D01*
X45938481Y329108D01*
X45804419Y529745D01*
X45712076Y752681D01*
X45665000Y989348D01*
X45665000Y1230652D01*
X45712076Y1467319D01*
X45804419Y1690255D01*
X45938481Y1890892D01*
X46109108Y2061519D01*
X46309745Y2195581D01*
X46532681Y2287924D01*
X46769348Y2335000D01*
X47010652Y2335000D01*
X47247319Y2287924D01*
X47247319Y2287924D01*
G37*
G36*
X-23997027Y2418740D02*
X-23931017Y2405610D01*
X-23760549Y2335000D01*
X-23744480Y2328344D01*
X-23576600Y2216170D01*
X-23433830Y2073400D01*
X-23391479Y2010017D01*
X-23321656Y1905520D01*
X-23282090Y1810000D01*
X-23244390Y1718982D01*
X-23205000Y1520954D01*
X-23205000Y1319046D01*
X-23222583Y1230652D01*
X-23244390Y1121017D01*
X-23298928Y989350D01*
X-23321656Y934480D01*
X-23433830Y766600D01*
X-23576600Y623830D01*
X-23717408Y529745D01*
X-23744480Y511656D01*
X-23931017Y434390D01*
X-23997027Y421260D01*
X-24129046Y395000D01*
X-24330954Y395000D01*
X-24462973Y421260D01*
X-24528983Y434390D01*
X-24715520Y511656D01*
X-24742592Y529745D01*
X-24883400Y623830D01*
X-25026170Y766600D01*
X-25138344Y934480D01*
X-25161072Y989350D01*
X-25215610Y1121017D01*
X-25237417Y1230652D01*
X-25255000Y1319046D01*
X-25255000Y1520954D01*
X-25215610Y1718982D01*
X-25177909Y1810000D01*
X-25138344Y1905520D01*
X-25068521Y2010017D01*
X-25026170Y2073400D01*
X-24883400Y2216170D01*
X-24715520Y2328344D01*
X-24699451Y2335000D01*
X-24528983Y2405610D01*
X-24462973Y2418740D01*
X-24330954Y2445000D01*
X-24129046Y2445000D01*
X-23997027Y2418740D01*
X-23997027Y2418740D01*
G37*
G36*
X42042973Y2418740D02*
X42108983Y2405610D01*
X42279451Y2335000D01*
X42295520Y2328344D01*
X42463400Y2216170D01*
X42606170Y2073400D01*
X42648521Y2010017D01*
X42718344Y1905520D01*
X42757910Y1810000D01*
X42795610Y1718982D01*
X42835000Y1520954D01*
X42835000Y1319046D01*
X42817417Y1230652D01*
X42795610Y1121017D01*
X42741072Y989350D01*
X42718344Y934480D01*
X42606170Y766600D01*
X42463400Y623830D01*
X42322592Y529745D01*
X42295520Y511656D01*
X42108983Y434390D01*
X42042973Y421260D01*
X41910954Y395000D01*
X41709046Y395000D01*
X41577027Y421260D01*
X41511017Y434390D01*
X41324480Y511656D01*
X41297408Y529745D01*
X41156600Y623830D01*
X41013830Y766600D01*
X40901656Y934480D01*
X40878928Y989350D01*
X40824390Y1121017D01*
X40802583Y1230652D01*
X40785000Y1319046D01*
X40785000Y1520954D01*
X40824390Y1718982D01*
X40862091Y1810000D01*
X40901656Y1905520D01*
X40971479Y2010017D01*
X41013830Y2073400D01*
X41156600Y2216170D01*
X41324480Y2328344D01*
X41340549Y2335000D01*
X41511017Y2405610D01*
X41577027Y2418740D01*
X41709046Y2445000D01*
X41910954Y2445000D01*
X42042973Y2418740D01*
X42042973Y2418740D01*
G37*
G36*
X3180973Y3307740D02*
X3246983Y3294610D01*
X3311638Y3267829D01*
X3433520Y3217344D01*
X3601400Y3105170D01*
X3744170Y2962400D01*
X3856344Y2794520D01*
X3933610Y2607982D01*
X3973000Y2409954D01*
X3973000Y2208046D01*
X3933610Y2010018D01*
X3856344Y1823480D01*
X3744170Y1655600D01*
X3601400Y1512830D01*
X3533288Y1467319D01*
X3433520Y1400656D01*
X3246983Y1323390D01*
X3180973Y1310260D01*
X3048954Y1284000D01*
X2847046Y1284000D01*
X2715027Y1310260D01*
X2649017Y1323390D01*
X2462480Y1400656D01*
X2362712Y1467319D01*
X2294600Y1512830D01*
X2151830Y1655600D01*
X2039656Y1823480D01*
X1962390Y2010018D01*
X1923000Y2208046D01*
X1923000Y2409954D01*
X1962390Y2607982D01*
X2039656Y2794520D01*
X2151830Y2962400D01*
X2294600Y3105170D01*
X2462480Y3217344D01*
X2584362Y3267829D01*
X2649017Y3294610D01*
X2715027Y3307740D01*
X2847046Y3334000D01*
X3048954Y3334000D01*
X3180973Y3307740D01*
X3180973Y3307740D01*
G37*
G36*
X22992973Y4323740D02*
X23058983Y4310610D01*
X23183622Y4258983D01*
X23245520Y4233344D01*
X23413400Y4121170D01*
X23556170Y3978400D01*
X23635920Y3859046D01*
X23668344Y3810520D01*
X23730270Y3661018D01*
X23745610Y3623982D01*
X23785000Y3425954D01*
X23785000Y3224046D01*
X23761354Y3105171D01*
X23745610Y3026017D01*
X23703625Y2924656D01*
X23668344Y2839480D01*
X23556170Y2671600D01*
X23413400Y2528830D01*
X23287940Y2445000D01*
X23245520Y2416656D01*
X23058983Y2339390D01*
X23003450Y2328344D01*
X22860954Y2300000D01*
X22659046Y2300000D01*
X22516550Y2328344D01*
X22461017Y2339390D01*
X22274480Y2416656D01*
X22232060Y2445000D01*
X22106600Y2528830D01*
X21963830Y2671600D01*
X21851656Y2839480D01*
X21816375Y2924656D01*
X21774390Y3026017D01*
X21758646Y3105171D01*
X21735000Y3224046D01*
X21735000Y3425954D01*
X21774390Y3623982D01*
X21789731Y3661018D01*
X21851656Y3810520D01*
X21884080Y3859046D01*
X21963830Y3978400D01*
X22106600Y4121170D01*
X22274480Y4233344D01*
X22336378Y4258983D01*
X22461017Y4310610D01*
X22527027Y4323740D01*
X22659046Y4350000D01*
X22860954Y4350000D01*
X22992973Y4323740D01*
X22992973Y4323740D01*
G37*
G36*
X5831583Y4835000D02*
X5913983Y4818610D01*
X6025773Y4772305D01*
X6100520Y4741344D01*
X6268400Y4629170D01*
X6411170Y4486400D01*
X6411171Y4486398D01*
X6523344Y4318520D01*
X6600610Y4131983D01*
X6602761Y4121170D01*
X6640000Y3933954D01*
X6640000Y3732046D01*
X6618505Y3623983D01*
X6600610Y3534017D01*
X6555849Y3425954D01*
X6523344Y3347480D01*
X6411170Y3179600D01*
X6268400Y3036830D01*
X6252217Y3026017D01*
X6100520Y2924656D01*
X5913983Y2847390D01*
X5874216Y2839480D01*
X5715954Y2808000D01*
X5514046Y2808000D01*
X5355784Y2839480D01*
X5316017Y2847390D01*
X5129480Y2924656D01*
X4977783Y3026017D01*
X4961600Y3036830D01*
X4818830Y3179600D01*
X4706656Y3347480D01*
X4674151Y3425954D01*
X4629390Y3534017D01*
X4611495Y3623983D01*
X4590000Y3732046D01*
X4590000Y3933954D01*
X4627239Y4121170D01*
X4629390Y4131983D01*
X4706656Y4318520D01*
X4818829Y4486398D01*
X4818830Y4486400D01*
X4961600Y4629170D01*
X5129480Y4741344D01*
X5204227Y4772305D01*
X5316017Y4818610D01*
X5398417Y4835000D01*
X5514046Y4858000D01*
X5715954Y4858000D01*
X5831583Y4835000D01*
X5831583Y4835000D01*
G37*
G36*
X-22727027Y4958740D02*
X-22661017Y4945610D01*
X-22474480Y4868344D01*
X-22306600Y4756170D01*
X-22163830Y4613400D01*
X-22163829Y4613398D01*
X-22051656Y4445520D01*
X-22012090Y4350000D01*
X-21974390Y4258982D01*
X-21935000Y4060954D01*
X-21935000Y3859046D01*
X-21960261Y3732048D01*
X-21974390Y3661017D01*
X-21989916Y3623535D01*
X-22051656Y3474480D01*
X-22163830Y3306600D01*
X-22306600Y3163830D01*
X-22394391Y3105170D01*
X-22474480Y3051656D01*
X-22661017Y2974390D01*
X-22721296Y2962400D01*
X-22859046Y2935000D01*
X-23060954Y2935000D01*
X-23198704Y2962400D01*
X-23258983Y2974390D01*
X-23445520Y3051656D01*
X-23525609Y3105170D01*
X-23613400Y3163830D01*
X-23756170Y3306600D01*
X-23868344Y3474480D01*
X-23930084Y3623535D01*
X-23945610Y3661017D01*
X-23959739Y3732048D01*
X-23985000Y3859046D01*
X-23985000Y4060954D01*
X-23945610Y4258982D01*
X-23907909Y4350000D01*
X-23868344Y4445520D01*
X-23756171Y4613398D01*
X-23756170Y4613400D01*
X-23613400Y4756170D01*
X-23445520Y4868344D01*
X-23258983Y4945610D01*
X-23192973Y4958740D01*
X-23060954Y4985000D01*
X-22859046Y4985000D01*
X-22727027Y4958740D01*
X-22727027Y4958740D01*
G37*
G36*
X-25267027Y4958740D02*
X-25201017Y4945610D01*
X-25014480Y4868344D01*
X-24846600Y4756170D01*
X-24703830Y4613400D01*
X-24703829Y4613398D01*
X-24591656Y4445520D01*
X-24552090Y4350000D01*
X-24514390Y4258982D01*
X-24475000Y4060954D01*
X-24475000Y3859046D01*
X-24500261Y3732048D01*
X-24514390Y3661017D01*
X-24529916Y3623535D01*
X-24591656Y3474480D01*
X-24703830Y3306600D01*
X-24846600Y3163830D01*
X-24934391Y3105170D01*
X-25014480Y3051656D01*
X-25201017Y2974390D01*
X-25261296Y2962400D01*
X-25399046Y2935000D01*
X-25600954Y2935000D01*
X-25738704Y2962400D01*
X-25798983Y2974390D01*
X-25985520Y3051656D01*
X-26065609Y3105170D01*
X-26153400Y3163830D01*
X-26296170Y3306600D01*
X-26408344Y3474480D01*
X-26470084Y3623535D01*
X-26485610Y3661017D01*
X-26499739Y3732048D01*
X-26525000Y3859046D01*
X-26525000Y4060954D01*
X-26485610Y4258982D01*
X-26447909Y4350000D01*
X-26408344Y4445520D01*
X-26296171Y4613398D01*
X-26296170Y4613400D01*
X-26153400Y4756170D01*
X-25985520Y4868344D01*
X-25798983Y4945610D01*
X-25732973Y4958740D01*
X-25600954Y4985000D01*
X-25399046Y4985000D01*
X-25267027Y4958740D01*
X-25267027Y4958740D01*
G37*
G36*
X-32025027Y5062740D02*
X-31959017Y5049610D01*
X-31772480Y4972344D01*
X-31604600Y4860170D01*
X-31461830Y4717400D01*
X-31444227Y4691055D01*
X-31349656Y4549520D01*
X-31307802Y4448476D01*
X-31272390Y4362982D01*
X-31251703Y4258983D01*
X-31233000Y4164952D01*
X-31233000Y3963048D01*
X-31272390Y3765017D01*
X-31330994Y3623535D01*
X-31349656Y3578480D01*
X-31461830Y3410600D01*
X-31604600Y3267830D01*
X-31680158Y3217344D01*
X-31772480Y3155656D01*
X-31959017Y3078390D01*
X-32025027Y3065260D01*
X-32157046Y3039000D01*
X-32358954Y3039000D01*
X-32490973Y3065260D01*
X-32556983Y3078390D01*
X-32743520Y3155656D01*
X-32835842Y3217344D01*
X-32911400Y3267830D01*
X-33054170Y3410600D01*
X-33166344Y3578480D01*
X-33185006Y3623535D01*
X-33243610Y3765017D01*
X-33283000Y3963048D01*
X-33283000Y4164952D01*
X-33264296Y4258983D01*
X-33243610Y4362982D01*
X-33208197Y4448476D01*
X-33166344Y4549520D01*
X-33071773Y4691055D01*
X-33054170Y4717400D01*
X-32911400Y4860170D01*
X-32743520Y4972344D01*
X-32556983Y5049610D01*
X-32490973Y5062740D01*
X-32358954Y5089000D01*
X-32157046Y5089000D01*
X-32025027Y5062740D01*
X-32025027Y5062740D01*
G37*
G36*
X29916530Y4822339D02*
X29916533Y4822338D01*
X29916534Y4822338D01*
X30081465Y4772307D01*
X30111653Y4756171D01*
X30233476Y4691056D01*
X30366712Y4581712D01*
X30476056Y4448476D01*
X30521752Y4362983D01*
X30557307Y4296465D01*
X30607202Y4131983D01*
X30607339Y4131530D01*
X30624233Y3960000D01*
X30607339Y3788470D01*
X30607338Y3788467D01*
X30607338Y3788466D01*
X30557307Y3623535D01*
X30557305Y3623532D01*
X30476056Y3471524D01*
X30366712Y3338288D01*
X30233476Y3228944D01*
X30124623Y3170762D01*
X30081465Y3147693D01*
X29916534Y3097662D01*
X29916533Y3097662D01*
X29916530Y3097661D01*
X29787979Y3085000D01*
X29702021Y3085000D01*
X29573470Y3097661D01*
X29573467Y3097662D01*
X29573466Y3097662D01*
X29408535Y3147693D01*
X29365377Y3170762D01*
X29256524Y3228944D01*
X29123288Y3338288D01*
X29013944Y3471524D01*
X28932695Y3623532D01*
X28932693Y3623535D01*
X28882662Y3788466D01*
X28882662Y3788467D01*
X28882661Y3788470D01*
X28865767Y3960000D01*
X28882661Y4131530D01*
X28882798Y4131983D01*
X28932693Y4296465D01*
X28968248Y4362983D01*
X29013944Y4448476D01*
X29123288Y4581712D01*
X29256524Y4691056D01*
X29378347Y4756171D01*
X29408535Y4772307D01*
X29573466Y4822338D01*
X29573467Y4822338D01*
X29573470Y4822339D01*
X29702021Y4835000D01*
X29787979Y4835000D01*
X29916530Y4822339D01*
X29916530Y4822339D01*
G37*
G36*
X30620000Y5625000D02*
X28870000Y5625000D01*
X28870000Y7375000D01*
X30620000Y7375000D01*
X30620000Y5625000D01*
X30620000Y5625000D01*
G37*
G36*
X-32025027Y7729740D02*
X-31959017Y7716610D01*
X-31772480Y7639344D01*
X-31604600Y7527170D01*
X-31461830Y7384400D01*
X-31400351Y7292390D01*
X-31349656Y7216520D01*
X-31281731Y7052535D01*
X-31272390Y7029982D01*
X-31233000Y6831954D01*
X-31233000Y6630046D01*
X-31272390Y6432018D01*
X-31349656Y6245480D01*
X-31461830Y6077600D01*
X-31604600Y5934830D01*
X-31772480Y5822656D01*
X-31959017Y5745390D01*
X-32025027Y5732260D01*
X-32157046Y5706000D01*
X-32358954Y5706000D01*
X-32490973Y5732260D01*
X-32556983Y5745390D01*
X-32743520Y5822656D01*
X-32911400Y5934830D01*
X-33054170Y6077600D01*
X-33166344Y6245480D01*
X-33243610Y6432018D01*
X-33283000Y6630046D01*
X-33283000Y6831954D01*
X-33243610Y7029982D01*
X-33234268Y7052535D01*
X-33166344Y7216520D01*
X-33115649Y7292390D01*
X-33054170Y7384400D01*
X-32911400Y7527170D01*
X-32743520Y7639344D01*
X-32556983Y7716610D01*
X-32490973Y7729740D01*
X-32358954Y7756000D01*
X-32157046Y7756000D01*
X-32025027Y7729740D01*
X-32025027Y7729740D01*
G37*
G36*
X-8115000Y6514000D02*
X-9865000Y6514000D01*
X-9865000Y8264000D01*
X-8115000Y8264000D01*
X-8115000Y6514000D01*
X-8115000Y6514000D01*
G37*
G36*
X-6278470Y8251339D02*
X-6278467Y8251338D01*
X-6278466Y8251338D01*
X-6113535Y8201307D01*
X-6070377Y8178238D01*
X-5961524Y8120056D01*
X-5828288Y8010712D01*
X-5718944Y7877476D01*
X-5673513Y7792480D01*
X-5637693Y7725465D01*
X-5587662Y7560534D01*
X-5587661Y7560530D01*
X-5570767Y7389000D01*
X-5587661Y7217470D01*
X-5587662Y7217467D01*
X-5587662Y7217466D01*
X-5637693Y7052535D01*
X-5649748Y7029982D01*
X-5718944Y6900524D01*
X-5828288Y6767288D01*
X-5961524Y6657944D01*
X-6070377Y6599762D01*
X-6113535Y6576693D01*
X-6278466Y6526662D01*
X-6278467Y6526662D01*
X-6278470Y6526661D01*
X-6407021Y6514000D01*
X-6492979Y6514000D01*
X-6621530Y6526661D01*
X-6621533Y6526662D01*
X-6621534Y6526662D01*
X-6786465Y6576693D01*
X-6829623Y6599762D01*
X-6938476Y6657944D01*
X-7071712Y6767288D01*
X-7181056Y6900524D01*
X-7250252Y7029982D01*
X-7262307Y7052535D01*
X-7312338Y7217466D01*
X-7312338Y7217467D01*
X-7312339Y7217470D01*
X-7329233Y7389000D01*
X-7312339Y7560530D01*
X-7312338Y7560534D01*
X-7262307Y7725465D01*
X-7226487Y7792480D01*
X-7181056Y7877476D01*
X-7071712Y8010712D01*
X-6938476Y8120056D01*
X-6829623Y8178238D01*
X-6786465Y8201307D01*
X-6621534Y8251338D01*
X-6621533Y8251338D01*
X-6621530Y8251339D01*
X-6492979Y8264000D01*
X-6407021Y8264000D01*
X-6278470Y8251339D01*
X-6278470Y8251339D01*
G37*
G36*
X-3738470Y8251339D02*
X-3738467Y8251338D01*
X-3738466Y8251338D01*
X-3573535Y8201307D01*
X-3530377Y8178238D01*
X-3421524Y8120056D01*
X-3288288Y8010712D01*
X-3178944Y7877476D01*
X-3133513Y7792480D01*
X-3097693Y7725465D01*
X-3047662Y7560534D01*
X-3047661Y7560530D01*
X-3030767Y7389000D01*
X-3047661Y7217470D01*
X-3047662Y7217467D01*
X-3047662Y7217466D01*
X-3097693Y7052535D01*
X-3109748Y7029982D01*
X-3178944Y6900524D01*
X-3288288Y6767288D01*
X-3421524Y6657944D01*
X-3530377Y6599762D01*
X-3573535Y6576693D01*
X-3738466Y6526662D01*
X-3738467Y6526662D01*
X-3738470Y6526661D01*
X-3867021Y6514000D01*
X-3952979Y6514000D01*
X-4081530Y6526661D01*
X-4081533Y6526662D01*
X-4081534Y6526662D01*
X-4246465Y6576693D01*
X-4289623Y6599762D01*
X-4398476Y6657944D01*
X-4531712Y6767288D01*
X-4641056Y6900524D01*
X-4710252Y7029982D01*
X-4722307Y7052535D01*
X-4772338Y7217466D01*
X-4772338Y7217467D01*
X-4772339Y7217470D01*
X-4789233Y7389000D01*
X-4772339Y7560530D01*
X-4772338Y7560534D01*
X-4722307Y7725465D01*
X-4686487Y7792480D01*
X-4641056Y7877476D01*
X-4531712Y8010712D01*
X-4398476Y8120056D01*
X-4289623Y8178238D01*
X-4246465Y8201307D01*
X-4081534Y8251338D01*
X-4081533Y8251338D01*
X-4081530Y8251339D01*
X-3952979Y8264000D01*
X-3867021Y8264000D01*
X-3738470Y8251339D01*
X-3738470Y8251339D01*
G37*
G36*
X1402973Y9276740D02*
X1468983Y9263610D01*
X1655520Y9186344D01*
X1823400Y9074170D01*
X1966170Y8931400D01*
X2078344Y8763520D01*
X2155610Y8576982D01*
X2195000Y8378954D01*
X2195000Y8177046D01*
X2155610Y7979018D01*
X2078344Y7792480D01*
X1966170Y7624600D01*
X1823400Y7481830D01*
X1684470Y7389000D01*
X1655520Y7369656D01*
X1468983Y7292390D01*
X1402973Y7279260D01*
X1270954Y7253000D01*
X1069046Y7253000D01*
X937027Y7279260D01*
X871017Y7292390D01*
X684480Y7369656D01*
X655530Y7389000D01*
X516600Y7481830D01*
X373830Y7624600D01*
X261656Y7792480D01*
X184390Y7979018D01*
X145000Y8177046D01*
X145000Y8378954D01*
X184390Y8576982D01*
X261656Y8763520D01*
X373830Y8931400D01*
X516600Y9074170D01*
X684480Y9186344D01*
X871017Y9263610D01*
X937027Y9276740D01*
X1069046Y9303000D01*
X1270954Y9303000D01*
X1402973Y9276740D01*
X1402973Y9276740D01*
G37*
G36*
X16515973Y11308740D02*
X16581983Y11295610D01*
X16707706Y11243534D01*
X16768520Y11218344D01*
X16936400Y11106170D01*
X17079170Y10963400D01*
X17121221Y10900466D01*
X17191344Y10795520D01*
X17216191Y10735535D01*
X17268610Y10608982D01*
X17308000Y10410954D01*
X17308000Y10209046D01*
X17268610Y10011018D01*
X17191344Y9824480D01*
X17079170Y9656600D01*
X16936400Y9513830D01*
X16912252Y9497695D01*
X16768520Y9401656D01*
X16581983Y9324390D01*
X16515973Y9311260D01*
X16383954Y9285000D01*
X16182046Y9285000D01*
X16050027Y9311260D01*
X15984017Y9324390D01*
X15797480Y9401656D01*
X15653748Y9497695D01*
X15629600Y9513830D01*
X15486830Y9656600D01*
X15374656Y9824480D01*
X15297390Y10011018D01*
X15258000Y10209046D01*
X15258000Y10410954D01*
X15297390Y10608982D01*
X15349810Y10735535D01*
X15374656Y10795520D01*
X15444779Y10900466D01*
X15486830Y10963400D01*
X15629600Y11106170D01*
X15797480Y11218344D01*
X15858294Y11243534D01*
X15984017Y11295610D01*
X16050027Y11308740D01*
X16182046Y11335000D01*
X16383954Y11335000D01*
X16515973Y11308740D01*
X16515973Y11308740D01*
G37*
G36*
X-26043469Y11172339D02*
X-26043466Y11172338D01*
X-26043465Y11172338D01*
X-25878534Y11122307D01*
X-25848346Y11106171D01*
X-25726523Y11041056D01*
X-25593287Y10931712D01*
X-25483943Y10798476D01*
X-25425761Y10689623D01*
X-25402692Y10646465D01*
X-25374947Y10555000D01*
X-25352660Y10481530D01*
X-25335766Y10310000D01*
X-25352660Y10138470D01*
X-25352661Y10138467D01*
X-25352661Y10138466D01*
X-25402692Y9973535D01*
X-25402694Y9973532D01*
X-25483943Y9821524D01*
X-25593287Y9688288D01*
X-25726523Y9578944D01*
X-25835376Y9520762D01*
X-25878534Y9497693D01*
X-26043465Y9447662D01*
X-26043466Y9447662D01*
X-26043469Y9447661D01*
X-26172020Y9435000D01*
X-26257978Y9435000D01*
X-26386529Y9447661D01*
X-26386532Y9447662D01*
X-26386533Y9447662D01*
X-26551464Y9497693D01*
X-26594622Y9520762D01*
X-26703475Y9578944D01*
X-26836711Y9688288D01*
X-26946055Y9821524D01*
X-27027304Y9973532D01*
X-27027306Y9973535D01*
X-27077337Y10138466D01*
X-27077337Y10138467D01*
X-27077338Y10138470D01*
X-27094232Y10310000D01*
X-27077338Y10481530D01*
X-27055051Y10555000D01*
X-27027306Y10646465D01*
X-27004237Y10689623D01*
X-26946055Y10798476D01*
X-26836711Y10931712D01*
X-26703475Y11041056D01*
X-26581652Y11106171D01*
X-26551464Y11122307D01*
X-26386533Y11172338D01*
X-26386532Y11172338D01*
X-26386529Y11172339D01*
X-26257978Y11185000D01*
X-26172020Y11185000D01*
X-26043469Y11172339D01*
X-26043469Y11172339D01*
G37*
G36*
X-18423469Y11172339D02*
X-18423466Y11172338D01*
X-18423465Y11172338D01*
X-18258534Y11122307D01*
X-18228346Y11106171D01*
X-18106523Y11041056D01*
X-17973287Y10931712D01*
X-17863943Y10798476D01*
X-17805761Y10689623D01*
X-17782692Y10646465D01*
X-17754947Y10555000D01*
X-17732660Y10481530D01*
X-17715766Y10310000D01*
X-17732660Y10138470D01*
X-17732661Y10138467D01*
X-17732661Y10138466D01*
X-17782692Y9973535D01*
X-17782694Y9973532D01*
X-17863943Y9821524D01*
X-17973287Y9688288D01*
X-18106523Y9578944D01*
X-18215376Y9520762D01*
X-18258534Y9497693D01*
X-18423465Y9447662D01*
X-18423466Y9447662D01*
X-18423469Y9447661D01*
X-18552020Y9435000D01*
X-18637978Y9435000D01*
X-18766529Y9447661D01*
X-18766532Y9447662D01*
X-18766533Y9447662D01*
X-18931464Y9497693D01*
X-18974622Y9520762D01*
X-19083475Y9578944D01*
X-19216711Y9688288D01*
X-19326055Y9821524D01*
X-19407304Y9973532D01*
X-19407306Y9973535D01*
X-19457337Y10138466D01*
X-19457337Y10138467D01*
X-19457338Y10138470D01*
X-19474232Y10310000D01*
X-19457338Y10481530D01*
X-19435051Y10555000D01*
X-19407306Y10646465D01*
X-19384237Y10689623D01*
X-19326055Y10798476D01*
X-19216711Y10931712D01*
X-19083475Y11041056D01*
X-18961652Y11106171D01*
X-18931464Y11122307D01*
X-18766533Y11172338D01*
X-18766532Y11172338D01*
X-18766529Y11172339D01*
X-18637978Y11185000D01*
X-18552020Y11185000D01*
X-18423469Y11172339D01*
X-18423469Y11172339D01*
G37*
G36*
X-23503469Y11172339D02*
X-23503466Y11172338D01*
X-23503465Y11172338D01*
X-23338534Y11122307D01*
X-23308346Y11106171D01*
X-23186523Y11041056D01*
X-23053287Y10931712D01*
X-22943943Y10798476D01*
X-22885761Y10689623D01*
X-22862692Y10646465D01*
X-22834947Y10555000D01*
X-22812660Y10481530D01*
X-22795766Y10310000D01*
X-22812660Y10138470D01*
X-22812661Y10138467D01*
X-22812661Y10138466D01*
X-22862692Y9973535D01*
X-22862694Y9973532D01*
X-22943943Y9821524D01*
X-23053287Y9688288D01*
X-23186523Y9578944D01*
X-23295376Y9520762D01*
X-23338534Y9497693D01*
X-23503465Y9447662D01*
X-23503466Y9447662D01*
X-23503469Y9447661D01*
X-23632020Y9435000D01*
X-23717978Y9435000D01*
X-23846529Y9447661D01*
X-23846532Y9447662D01*
X-23846533Y9447662D01*
X-24011464Y9497693D01*
X-24054622Y9520762D01*
X-24163475Y9578944D01*
X-24296711Y9688288D01*
X-24406055Y9821524D01*
X-24487304Y9973532D01*
X-24487306Y9973535D01*
X-24537337Y10138466D01*
X-24537337Y10138467D01*
X-24537338Y10138470D01*
X-24554232Y10310000D01*
X-24537338Y10481530D01*
X-24515051Y10555000D01*
X-24487306Y10646465D01*
X-24464237Y10689623D01*
X-24406055Y10798476D01*
X-24296711Y10931712D01*
X-24163475Y11041056D01*
X-24041652Y11106171D01*
X-24011464Y11122307D01*
X-23846533Y11172338D01*
X-23846532Y11172338D01*
X-23846529Y11172339D01*
X-23717978Y11185000D01*
X-23632020Y11185000D01*
X-23503469Y11172339D01*
X-23503469Y11172339D01*
G37*
G36*
X-15179999Y9435000D02*
X-16929999Y9435000D01*
X-16929999Y11185000D01*
X-15179999Y11185000D01*
X-15179999Y9435000D01*
X-15179999Y9435000D01*
G37*
G36*
X-20963469Y11172339D02*
X-20963466Y11172338D01*
X-20963465Y11172338D01*
X-20798534Y11122307D01*
X-20768346Y11106171D01*
X-20646523Y11041056D01*
X-20513287Y10931712D01*
X-20403943Y10798476D01*
X-20345761Y10689623D01*
X-20322692Y10646465D01*
X-20294947Y10555000D01*
X-20272660Y10481530D01*
X-20255766Y10310000D01*
X-20272660Y10138470D01*
X-20272661Y10138467D01*
X-20272661Y10138466D01*
X-20322692Y9973535D01*
X-20322694Y9973532D01*
X-20403943Y9821524D01*
X-20513287Y9688288D01*
X-20646523Y9578944D01*
X-20755376Y9520762D01*
X-20798534Y9497693D01*
X-20963465Y9447662D01*
X-20963466Y9447662D01*
X-20963469Y9447661D01*
X-21092020Y9435000D01*
X-21177978Y9435000D01*
X-21306529Y9447661D01*
X-21306532Y9447662D01*
X-21306533Y9447662D01*
X-21471464Y9497693D01*
X-21514622Y9520762D01*
X-21623475Y9578944D01*
X-21756711Y9688288D01*
X-21866055Y9821524D01*
X-21947304Y9973532D01*
X-21947306Y9973535D01*
X-21997337Y10138466D01*
X-21997337Y10138467D01*
X-21997338Y10138470D01*
X-22014232Y10310000D01*
X-21997338Y10481530D01*
X-21975051Y10555000D01*
X-21947306Y10646465D01*
X-21924237Y10689623D01*
X-21866055Y10798476D01*
X-21756711Y10931712D01*
X-21623475Y11041056D01*
X-21501652Y11106171D01*
X-21471464Y11122307D01*
X-21306533Y11172338D01*
X-21306532Y11172338D01*
X-21306529Y11172339D01*
X-21177978Y11185000D01*
X-21092020Y11185000D01*
X-20963469Y11172339D01*
X-20963469Y11172339D01*
G37*
G36*
X-32567470Y11934339D02*
X-32567467Y11934338D01*
X-32567466Y11934338D01*
X-32402535Y11884307D01*
X-32392575Y11878983D01*
X-32250524Y11803056D01*
X-32117288Y11693712D01*
X-32007944Y11560476D01*
X-31949762Y11451623D01*
X-31926693Y11408465D01*
X-31876662Y11243534D01*
X-31876661Y11243530D01*
X-31859767Y11072000D01*
X-31876661Y10900470D01*
X-31876662Y10900467D01*
X-31876662Y10900466D01*
X-31926693Y10735535D01*
X-31926695Y10735532D01*
X-32007944Y10583524D01*
X-32117288Y10450288D01*
X-32250524Y10340944D01*
X-32359377Y10282762D01*
X-32402535Y10259693D01*
X-32567466Y10209662D01*
X-32567467Y10209662D01*
X-32567470Y10209661D01*
X-32696021Y10197000D01*
X-32781979Y10197000D01*
X-32910530Y10209661D01*
X-32910533Y10209662D01*
X-32910534Y10209662D01*
X-33075465Y10259693D01*
X-33118623Y10282762D01*
X-33227476Y10340944D01*
X-33360712Y10450288D01*
X-33470056Y10583524D01*
X-33551305Y10735532D01*
X-33551307Y10735535D01*
X-33601338Y10900466D01*
X-33601338Y10900467D01*
X-33601339Y10900470D01*
X-33618233Y11072000D01*
X-33601339Y11243530D01*
X-33601338Y11243534D01*
X-33551307Y11408465D01*
X-33528238Y11451623D01*
X-33470056Y11560476D01*
X-33360712Y11693712D01*
X-33227476Y11803056D01*
X-33085425Y11878983D01*
X-33075465Y11884307D01*
X-32910534Y11934338D01*
X-32910533Y11934338D01*
X-32910530Y11934339D01*
X-32781979Y11947000D01*
X-32696021Y11947000D01*
X-32567470Y11934339D01*
X-32567470Y11934339D01*
G37*
G36*
X-29324000Y10197000D02*
X-31074000Y10197000D01*
X-31074000Y11947000D01*
X-29324000Y11947000D01*
X-29324000Y10197000D01*
X-29324000Y10197000D01*
G37*
G36*
X-40187470Y11934339D02*
X-40187467Y11934338D01*
X-40187466Y11934338D01*
X-40022535Y11884307D01*
X-40012575Y11878983D01*
X-39870524Y11803056D01*
X-39737288Y11693712D01*
X-39627944Y11560476D01*
X-39569762Y11451623D01*
X-39546693Y11408465D01*
X-39496662Y11243534D01*
X-39496661Y11243530D01*
X-39479767Y11072000D01*
X-39496661Y10900470D01*
X-39496662Y10900467D01*
X-39496662Y10900466D01*
X-39546693Y10735535D01*
X-39546695Y10735532D01*
X-39627944Y10583524D01*
X-39737288Y10450288D01*
X-39870524Y10340944D01*
X-39979377Y10282762D01*
X-40022535Y10259693D01*
X-40187466Y10209662D01*
X-40187467Y10209662D01*
X-40187470Y10209661D01*
X-40316021Y10197000D01*
X-40401979Y10197000D01*
X-40530530Y10209661D01*
X-40530533Y10209662D01*
X-40530534Y10209662D01*
X-40695465Y10259693D01*
X-40738623Y10282762D01*
X-40847476Y10340944D01*
X-40980712Y10450288D01*
X-41090056Y10583524D01*
X-41171305Y10735532D01*
X-41171307Y10735535D01*
X-41221338Y10900466D01*
X-41221338Y10900467D01*
X-41221339Y10900470D01*
X-41238233Y11072000D01*
X-41221339Y11243530D01*
X-41221338Y11243534D01*
X-41171307Y11408465D01*
X-41148238Y11451623D01*
X-41090056Y11560476D01*
X-40980712Y11693712D01*
X-40847476Y11803056D01*
X-40705425Y11878983D01*
X-40695465Y11884307D01*
X-40530534Y11934338D01*
X-40530533Y11934338D01*
X-40530530Y11934339D01*
X-40401979Y11947000D01*
X-40316021Y11947000D01*
X-40187470Y11934339D01*
X-40187470Y11934339D01*
G37*
G36*
X-35107470Y11934339D02*
X-35107467Y11934338D01*
X-35107466Y11934338D01*
X-34942535Y11884307D01*
X-34932575Y11878983D01*
X-34790524Y11803056D01*
X-34657288Y11693712D01*
X-34547944Y11560476D01*
X-34489762Y11451623D01*
X-34466693Y11408465D01*
X-34416662Y11243534D01*
X-34416661Y11243530D01*
X-34399767Y11072000D01*
X-34416661Y10900470D01*
X-34416662Y10900467D01*
X-34416662Y10900466D01*
X-34466693Y10735535D01*
X-34466695Y10735532D01*
X-34547944Y10583524D01*
X-34657288Y10450288D01*
X-34790524Y10340944D01*
X-34899377Y10282762D01*
X-34942535Y10259693D01*
X-35107466Y10209662D01*
X-35107467Y10209662D01*
X-35107470Y10209661D01*
X-35236021Y10197000D01*
X-35321979Y10197000D01*
X-35450530Y10209661D01*
X-35450533Y10209662D01*
X-35450534Y10209662D01*
X-35615465Y10259693D01*
X-35658623Y10282762D01*
X-35767476Y10340944D01*
X-35900712Y10450288D01*
X-36010056Y10583524D01*
X-36091305Y10735532D01*
X-36091307Y10735535D01*
X-36141338Y10900466D01*
X-36141338Y10900467D01*
X-36141339Y10900470D01*
X-36158233Y11072000D01*
X-36141339Y11243530D01*
X-36141338Y11243534D01*
X-36091307Y11408465D01*
X-36068238Y11451623D01*
X-36010056Y11560476D01*
X-35900712Y11693712D01*
X-35767476Y11803056D01*
X-35625425Y11878983D01*
X-35615465Y11884307D01*
X-35450534Y11934338D01*
X-35450533Y11934338D01*
X-35450530Y11934339D01*
X-35321979Y11947000D01*
X-35236021Y11947000D01*
X-35107470Y11934339D01*
X-35107470Y11934339D01*
G37*
G36*
X-37647470Y11934339D02*
X-37647467Y11934338D01*
X-37647466Y11934338D01*
X-37482535Y11884307D01*
X-37472575Y11878983D01*
X-37330524Y11803056D01*
X-37197288Y11693712D01*
X-37087944Y11560476D01*
X-37029762Y11451623D01*
X-37006693Y11408465D01*
X-36956662Y11243534D01*
X-36956661Y11243530D01*
X-36939767Y11072000D01*
X-36956661Y10900470D01*
X-36956662Y10900467D01*
X-36956662Y10900466D01*
X-37006693Y10735535D01*
X-37006695Y10735532D01*
X-37087944Y10583524D01*
X-37197288Y10450288D01*
X-37330524Y10340944D01*
X-37439377Y10282762D01*
X-37482535Y10259693D01*
X-37647466Y10209662D01*
X-37647467Y10209662D01*
X-37647470Y10209661D01*
X-37776021Y10197000D01*
X-37861979Y10197000D01*
X-37990530Y10209661D01*
X-37990533Y10209662D01*
X-37990534Y10209662D01*
X-38155465Y10259693D01*
X-38198623Y10282762D01*
X-38307476Y10340944D01*
X-38440712Y10450288D01*
X-38550056Y10583524D01*
X-38631305Y10735532D01*
X-38631307Y10735535D01*
X-38681338Y10900466D01*
X-38681338Y10900467D01*
X-38681339Y10900470D01*
X-38698233Y11072000D01*
X-38681339Y11243530D01*
X-38681338Y11243534D01*
X-38631307Y11408465D01*
X-38608238Y11451623D01*
X-38550056Y11560476D01*
X-38440712Y11693712D01*
X-38307476Y11803056D01*
X-38165425Y11878983D01*
X-38155465Y11884307D01*
X-37990534Y11934338D01*
X-37990533Y11934338D01*
X-37990530Y11934339D01*
X-37861979Y11947000D01*
X-37776021Y11947000D01*
X-37647470Y11934339D01*
X-37647470Y11934339D01*
G37*
G36*
X-42727470Y11934339D02*
X-42727467Y11934338D01*
X-42727466Y11934338D01*
X-42562535Y11884307D01*
X-42552575Y11878983D01*
X-42410524Y11803056D01*
X-42277288Y11693712D01*
X-42167944Y11560476D01*
X-42109762Y11451623D01*
X-42086693Y11408465D01*
X-42036662Y11243534D01*
X-42036661Y11243530D01*
X-42019767Y11072000D01*
X-42036661Y10900470D01*
X-42036662Y10900467D01*
X-42036662Y10900466D01*
X-42086693Y10735535D01*
X-42086695Y10735532D01*
X-42167944Y10583524D01*
X-42277288Y10450288D01*
X-42410524Y10340944D01*
X-42519377Y10282762D01*
X-42562535Y10259693D01*
X-42727466Y10209662D01*
X-42727467Y10209662D01*
X-42727470Y10209661D01*
X-42856021Y10197000D01*
X-42941979Y10197000D01*
X-43070530Y10209661D01*
X-43070533Y10209662D01*
X-43070534Y10209662D01*
X-43235465Y10259693D01*
X-43278623Y10282762D01*
X-43387476Y10340944D01*
X-43520712Y10450288D01*
X-43630056Y10583524D01*
X-43711305Y10735532D01*
X-43711307Y10735535D01*
X-43761338Y10900466D01*
X-43761338Y10900467D01*
X-43761339Y10900470D01*
X-43778233Y11072000D01*
X-43761339Y11243530D01*
X-43761338Y11243534D01*
X-43711307Y11408465D01*
X-43688238Y11451623D01*
X-43630056Y11560476D01*
X-43520712Y11693712D01*
X-43387476Y11803056D01*
X-43245425Y11878983D01*
X-43235465Y11884307D01*
X-43070534Y11934338D01*
X-43070533Y11934338D01*
X-43070530Y11934339D01*
X-42941979Y11947000D01*
X-42856021Y11947000D01*
X-42727470Y11934339D01*
X-42727470Y11934339D01*
G37*
G36*
X34295973Y12578740D02*
X34361983Y12565610D01*
X34548520Y12488344D01*
X34716400Y12376170D01*
X34859170Y12233400D01*
X34971344Y12065520D01*
X35046406Y11884305D01*
X35048610Y11878982D01*
X35088000Y11680954D01*
X35088000Y11479046D01*
X35061740Y11347027D01*
X35048610Y11281017D01*
X35003594Y11172339D01*
X34971344Y11094480D01*
X34859170Y10926600D01*
X34716400Y10783830D01*
X34644117Y10735532D01*
X34548520Y10671656D01*
X34361983Y10594390D01*
X34307355Y10583524D01*
X34163954Y10555000D01*
X33962046Y10555000D01*
X33818645Y10583524D01*
X33764017Y10594390D01*
X33577480Y10671656D01*
X33481883Y10735532D01*
X33409600Y10783830D01*
X33266830Y10926600D01*
X33154656Y11094480D01*
X33122406Y11172339D01*
X33077390Y11281017D01*
X33064260Y11347027D01*
X33038000Y11479046D01*
X33038000Y11680954D01*
X33077390Y11878982D01*
X33079595Y11884305D01*
X33154656Y12065520D01*
X33266830Y12233400D01*
X33409600Y12376170D01*
X33577480Y12488344D01*
X33764017Y12565610D01*
X33830027Y12578740D01*
X33962046Y12605000D01*
X34163954Y12605000D01*
X34295973Y12578740D01*
X34295973Y12578740D01*
G37*
G36*
X48324022Y17716437D02*
X48838139Y17503483D01*
X49300833Y17194321D01*
X49694321Y16800833D01*
X50003483Y16338139D01*
X50216437Y15824022D01*
X50325000Y15278238D01*
X50325000Y14721762D01*
X50216437Y14175978D01*
X50003483Y13661861D01*
X49694321Y13199167D01*
X49300833Y12805679D01*
X48838139Y12496517D01*
X48324022Y12283563D01*
X47778238Y12175000D01*
X47221762Y12175000D01*
X46675978Y12283563D01*
X46161861Y12496517D01*
X45699167Y12805679D01*
X45305679Y13199167D01*
X44996517Y13661861D01*
X44783563Y14175978D01*
X44675000Y14721762D01*
X44675000Y15278238D01*
X44783563Y15824022D01*
X44996517Y16338139D01*
X45305679Y16800833D01*
X45699167Y17194321D01*
X46161861Y17503483D01*
X46675978Y17716437D01*
X47221762Y17825000D01*
X47778238Y17825000D01*
X48324022Y17716437D01*
X48324022Y17716437D01*
G37*
G36*
X-46675978Y17716437D02*
X-46161861Y17503483D01*
X-45699167Y17194321D01*
X-45305679Y16800833D01*
X-44996517Y16338139D01*
X-44783563Y15824022D01*
X-44675000Y15278238D01*
X-44675000Y14721762D01*
X-44783563Y14175978D01*
X-44996517Y13661861D01*
X-45305679Y13199167D01*
X-45699167Y12805679D01*
X-46161861Y12496517D01*
X-46675978Y12283563D01*
X-47221762Y12175000D01*
X-47778238Y12175000D01*
X-48324022Y12283563D01*
X-48838139Y12496517D01*
X-49300833Y12805679D01*
X-49694321Y13199167D01*
X-50003483Y13661861D01*
X-50216437Y14175978D01*
X-50325000Y14721762D01*
X-50325000Y15278238D01*
X-50216437Y15824022D01*
X-50003483Y16338139D01*
X-49694321Y16800833D01*
X-49300833Y17194321D01*
X-48838139Y17503483D01*
X-48324022Y17716437D01*
X-47778238Y17825000D01*
X-47221762Y17825000D01*
X-46675978Y17716437D01*
X-46675978Y17716437D01*
G37*
G36*
X9022973Y15245740D02*
X9088983Y15232610D01*
X9275520Y15155344D01*
X9443400Y15043170D01*
X9586170Y14900400D01*
X9586171Y14900398D01*
X9698344Y14732520D01*
X9755792Y14593829D01*
X9775610Y14545982D01*
X9815000Y14347954D01*
X9815000Y14146046D01*
X9775610Y13948018D01*
X9698344Y13761480D01*
X9586170Y13593600D01*
X9443400Y13450830D01*
X9275520Y13338656D01*
X9088983Y13261390D01*
X9022973Y13248260D01*
X8890954Y13222000D01*
X8689046Y13222000D01*
X8557027Y13248260D01*
X8491017Y13261390D01*
X8304480Y13338656D01*
X8136600Y13450830D01*
X7993830Y13593600D01*
X7881656Y13761480D01*
X7804390Y13948018D01*
X7765000Y14146046D01*
X7765000Y14347954D01*
X7804390Y14545982D01*
X7824209Y14593829D01*
X7881656Y14732520D01*
X7993829Y14900398D01*
X7993830Y14900400D01*
X8136600Y15043170D01*
X8304480Y15155344D01*
X8491017Y15232610D01*
X8557027Y15245740D01*
X8689046Y15272000D01*
X8890954Y15272000D01*
X9022973Y15245740D01*
X9022973Y15245740D01*
G37*
G36*
X5847973Y15245740D02*
X5913983Y15232610D01*
X6100520Y15155344D01*
X6268400Y15043170D01*
X6411170Y14900400D01*
X6411171Y14900398D01*
X6523344Y14732520D01*
X6580792Y14593829D01*
X6600610Y14545982D01*
X6640000Y14347954D01*
X6640000Y14146046D01*
X6600610Y13948018D01*
X6523344Y13761480D01*
X6411170Y13593600D01*
X6268400Y13450830D01*
X6100520Y13338656D01*
X5913983Y13261390D01*
X5847973Y13248260D01*
X5715954Y13222000D01*
X5514046Y13222000D01*
X5382027Y13248260D01*
X5316017Y13261390D01*
X5129480Y13338656D01*
X4961600Y13450830D01*
X4818830Y13593600D01*
X4706656Y13761480D01*
X4629390Y13948018D01*
X4590000Y14146046D01*
X4590000Y14347954D01*
X4629390Y14545982D01*
X4649209Y14593829D01*
X4706656Y14732520D01*
X4818829Y14900398D01*
X4818830Y14900400D01*
X4961600Y15043170D01*
X5129480Y15155344D01*
X5316017Y15232610D01*
X5382027Y15245740D01*
X5514046Y15272000D01*
X5715954Y15272000D01*
X5847973Y15245740D01*
X5847973Y15245740D01*
G37*
G36*
X2672973Y15245740D02*
X2738983Y15232610D01*
X2925520Y15155344D01*
X3093400Y15043170D01*
X3236170Y14900400D01*
X3236171Y14900398D01*
X3348344Y14732520D01*
X3405792Y14593829D01*
X3425610Y14545982D01*
X3465000Y14347954D01*
X3465000Y14146046D01*
X3425610Y13948018D01*
X3348344Y13761480D01*
X3236170Y13593600D01*
X3093400Y13450830D01*
X2925520Y13338656D01*
X2738983Y13261390D01*
X2672973Y13248260D01*
X2540954Y13222000D01*
X2339046Y13222000D01*
X2207027Y13248260D01*
X2141017Y13261390D01*
X1954480Y13338656D01*
X1786600Y13450830D01*
X1643830Y13593600D01*
X1531656Y13761480D01*
X1454390Y13948018D01*
X1415000Y14146046D01*
X1415000Y14347954D01*
X1454390Y14545982D01*
X1474209Y14593829D01*
X1531656Y14732520D01*
X1643829Y14900398D01*
X1643830Y14900400D01*
X1786600Y15043170D01*
X1954480Y15155344D01*
X2141017Y15232610D01*
X2207027Y15245740D01*
X2339046Y15272000D01*
X2540954Y15272000D01*
X2672973Y15245740D01*
X2672973Y15245740D01*
G37*
G36*
X-15361027Y16388740D02*
X-15295017Y16375610D01*
X-15204554Y16338139D01*
X-15108480Y16298344D01*
X-14940600Y16186170D01*
X-14797830Y16043400D01*
X-14797829Y16043398D01*
X-14685656Y15875520D01*
X-14608390Y15688983D01*
X-14569000Y15490952D01*
X-14569000Y15289048D01*
X-14608390Y15091017D01*
X-14628209Y15043170D01*
X-14685656Y14904480D01*
X-14797830Y14736600D01*
X-14940600Y14593830D01*
X-15108480Y14481656D01*
X-15295017Y14404390D01*
X-15361027Y14391260D01*
X-15493046Y14365000D01*
X-15694954Y14365000D01*
X-15826973Y14391260D01*
X-15892983Y14404390D01*
X-16079520Y14481656D01*
X-16247400Y14593830D01*
X-16390170Y14736600D01*
X-16502344Y14904480D01*
X-16559791Y15043170D01*
X-16579610Y15091017D01*
X-16619000Y15289048D01*
X-16619000Y15490952D01*
X-16579610Y15688983D01*
X-16502344Y15875520D01*
X-16390171Y16043398D01*
X-16390170Y16043400D01*
X-16247400Y16186170D01*
X-16079520Y16298344D01*
X-15983446Y16338139D01*
X-15892983Y16375610D01*
X-15826973Y16388740D01*
X-15694954Y16415000D01*
X-15493046Y16415000D01*
X-15361027Y16388740D01*
X-15361027Y16388740D01*
G37*
G36*
X-23997027Y16388740D02*
X-23931017Y16375610D01*
X-23840554Y16338139D01*
X-23744480Y16298344D01*
X-23576600Y16186170D01*
X-23433830Y16043400D01*
X-23433829Y16043398D01*
X-23321656Y15875520D01*
X-23244390Y15688983D01*
X-23205000Y15490952D01*
X-23205000Y15289048D01*
X-23244390Y15091017D01*
X-23264209Y15043170D01*
X-23321656Y14904480D01*
X-23433830Y14736600D01*
X-23576600Y14593830D01*
X-23744480Y14481656D01*
X-23931017Y14404390D01*
X-23997027Y14391260D01*
X-24129046Y14365000D01*
X-24330954Y14365000D01*
X-24462973Y14391260D01*
X-24528983Y14404390D01*
X-24715520Y14481656D01*
X-24883400Y14593830D01*
X-25026170Y14736600D01*
X-25138344Y14904480D01*
X-25195791Y15043170D01*
X-25215610Y15091017D01*
X-25255000Y15289048D01*
X-25255000Y15490952D01*
X-25215610Y15688983D01*
X-25138344Y15875520D01*
X-25026171Y16043398D01*
X-25026170Y16043400D01*
X-24883400Y16186170D01*
X-24715520Y16298344D01*
X-24619446Y16338139D01*
X-24528983Y16375610D01*
X-24462973Y16388740D01*
X-24330954Y16415000D01*
X-24129046Y16415000D01*
X-23997027Y16388740D01*
X-23997027Y16388740D01*
G37*
G36*
X-21457027Y16388740D02*
X-21391017Y16375610D01*
X-21300554Y16338139D01*
X-21204480Y16298344D01*
X-21036600Y16186170D01*
X-20893830Y16043400D01*
X-20893829Y16043398D01*
X-20781656Y15875520D01*
X-20704390Y15688983D01*
X-20665000Y15490952D01*
X-20665000Y15289048D01*
X-20704390Y15091017D01*
X-20724209Y15043170D01*
X-20781656Y14904480D01*
X-20893830Y14736600D01*
X-21036600Y14593830D01*
X-21204480Y14481656D01*
X-21391017Y14404390D01*
X-21457027Y14391260D01*
X-21589046Y14365000D01*
X-21790954Y14365000D01*
X-21922973Y14391260D01*
X-21988983Y14404390D01*
X-22175520Y14481656D01*
X-22343400Y14593830D01*
X-22486170Y14736600D01*
X-22598344Y14904480D01*
X-22655791Y15043170D01*
X-22675610Y15091017D01*
X-22715000Y15289048D01*
X-22715000Y15490952D01*
X-22675610Y15688983D01*
X-22598344Y15875520D01*
X-22486171Y16043398D01*
X-22486170Y16043400D01*
X-22343400Y16186170D01*
X-22175520Y16298344D01*
X-22079446Y16338139D01*
X-21988983Y16375610D01*
X-21922973Y16388740D01*
X-21790954Y16415000D01*
X-21589046Y16415000D01*
X-21457027Y16388740D01*
X-21457027Y16388740D01*
G37*
G36*
X-18917027Y16388740D02*
X-18851017Y16375610D01*
X-18760554Y16338139D01*
X-18664480Y16298344D01*
X-18496600Y16186170D01*
X-18353830Y16043400D01*
X-18353829Y16043398D01*
X-18241656Y15875520D01*
X-18164390Y15688983D01*
X-18125000Y15490952D01*
X-18125000Y15289048D01*
X-18164390Y15091017D01*
X-18184209Y15043170D01*
X-18241656Y14904480D01*
X-18353830Y14736600D01*
X-18496600Y14593830D01*
X-18664480Y14481656D01*
X-18851017Y14404390D01*
X-18917027Y14391260D01*
X-19049046Y14365000D01*
X-19250954Y14365000D01*
X-19382973Y14391260D01*
X-19448983Y14404390D01*
X-19635520Y14481656D01*
X-19803400Y14593830D01*
X-19946170Y14736600D01*
X-20058344Y14904480D01*
X-20115791Y15043170D01*
X-20135610Y15091017D01*
X-20175000Y15289048D01*
X-20175000Y15490952D01*
X-20135610Y15688983D01*
X-20058344Y15875520D01*
X-19946171Y16043398D01*
X-19946170Y16043400D01*
X-19803400Y16186170D01*
X-19635520Y16298344D01*
X-19539446Y16338139D01*
X-19448983Y16375610D01*
X-19382973Y16388740D01*
X-19250954Y16415000D01*
X-19049046Y16415000D01*
X-18917027Y16388740D01*
X-18917027Y16388740D01*
G37*
M02*
