M48
;DRILL file {KiCad 5.0.0-4.fc29} date Mon Sep 24 06:16:02 2018
;FORMAT={-:-/ absolute / inch / decimal}
FMAT,2
INCH,TZ
T1C0.0079
T2C0.0118
T3C0.0157
T4C0.0315
T5C0.0394
T6C0.0472
T7C0.1260
%
G90
G05
M72
T1
X4.17Y-2.45
X4.2Y-2.465
X4.205Y-2.59
X4.2197Y-2.4147
X4.2437Y-2.588
X4.285Y-2.57
X4.42Y-2.155
X4.435Y-2.52
X4.44Y-2.57
X4.44Y-2.62
T2
X4.11Y-2.33
X4.11Y-2.53
X4.11Y-2.725
X4.11Y-2.93
X4.11Y-3.135
X4.175Y-2.66
X4.285Y-2.495
X4.31Y-2.38
X4.335Y-2.925
X4.355Y-2.66
X4.36Y-3.09
X4.38Y-2.77
X4.445Y-3.175
X4.45Y-2.39
X4.47Y-2.865
X4.48Y-2.495
X4.485Y-2.595
X4.515Y-2.74
X4.54Y-2.5
X4.54Y-2.655
X4.54Y-2.94
X4.54Y-3.06
X4.55Y-2.205
X4.565Y-2.385
X4.575Y-2.97
X4.5791Y-3.3091
X4.58Y-3.09
X4.635Y-2.92
X4.6397Y-2.8704
X4.6533Y-2.7583
X4.665Y-2.62
X4.67Y-2.49
X4.68Y-3.065
X4.69Y-2.845
X4.7Y-2.665
X4.725Y-2.795
X4.75Y-2.215
X4.77Y-2.86
X4.775Y-2.405
X4.775Y-3.04
X4.8Y-2.515
X4.82Y-2.755
X4.855Y-2.425
X4.88Y-2.89
X4.91Y-3.3091
X4.915Y-2.78
X4.925Y-2.29
X4.935Y-2.645
X5.0069Y-3.2041
X5.03Y-2.905
X5.165Y-2.94
X5.1936Y-2.655
X5.215Y-3.3091
X5.225Y-2.765
X5.2469Y-2.7369
X5.26Y-2.705
X5.27Y-2.985
X5.29Y-2.505
X5.3257Y-2.9329
X5.33Y-2.82
X5.34Y-3.03
X5.36Y-2.95
X5.385Y-2.565
X5.3868Y-2.4776
X5.395Y-2.695
X5.418Y-2.4536
X5.4331Y-2.2441
X5.445Y-2.565
X5.45Y-2.695
X5.455Y-3.18
X5.465Y-3.3091
X5.485Y-3.04
X5.5Y-2.565
X5.5Y-2.695
X5.5258Y-2.4224
X5.545Y-2.445
X5.5512Y-2.126
X5.575Y-2.4
X5.58Y-2.47
X5.59Y-2.8556
X5.595Y-3.135
X5.615Y-2.92
X5.645Y-3.0594
X5.645Y-3.12
X5.6693Y-2.2441
X5.67Y-2.52
X5.675Y-3.255
X5.72Y-3.225
X5.72Y-3.3091
X5.75Y-3.12
X5.77Y-3.225
X5.77Y-3.3091
X5.7874Y-2.126
X5.795Y-2.82
X5.815Y-2.935
X5.82Y-3.2
X5.825Y-3.09
X5.825Y-3.3091
X5.85Y-3.17
X5.87Y-3.09
X5.885Y-3.155
X5.94Y-2.405
X5.94Y-2.475
X5.9449Y-2.2441
X5.98Y-3.3091
X5.995Y-2.865
X6.0236Y-2.126
X6.165Y-3.3091
X6.18Y-3.055
X6.195Y-3.13
X6.22Y-3.055
X6.245Y-3.245
X6.2598Y-2.126
X6.265Y-2.945
X6.295Y-2.625
X6.305Y-3.3091
X6.35Y-2.595
X6.36Y-2.685
X6.37Y-3.11
X6.405Y-2.615
X6.405Y-3.27
X6.42Y-2.85
X6.48Y-3.05
X6.4961Y-2.126
X6.4961Y-2.3228
X6.505Y-2.745
X6.555Y-3.015
X6.56Y-2.825
X6.565Y-2.69
X6.595Y-2.815
X6.64Y-2.505
X6.655Y-2.565
X6.655Y-2.73
X6.655Y-2.755
X6.665Y-2.595
X6.68Y-3.1122
X6.68Y-3.17
X6.7323Y-2.126
X6.765Y-3.1122
X6.77Y-3.17
X6.7717Y-2.3228
X6.7717Y-2.5197
X6.7717Y-2.5984
X6.811Y-2.5591
X6.8504Y-2.5197
X6.9685Y-2.126
X6.9685Y-2.3228
X7.0866Y-2.2441
X7.2047Y-2.126
X7.245Y-3.125
X7.245Y-3.155
X7.27Y-3.1
X7.3Y-3.1
X7.4409Y-2.126
T3
X5.29Y-2.78
X5.385Y-2.92
X5.435Y-2.955
X5.4694Y-2.9406
X5.47Y-2.905
X5.63Y-2.845
X5.63Y-3.03
X5.635Y-2.535
X5.635Y-2.965
X5.655Y-3.0002
X5.7974Y-2.6624
X5.8402Y-2.7354
X5.89Y-2.67
X5.955Y-2.785
X6.2Y-2.36
X6.31Y-2.39
X6.33Y-2.465
X6.415Y-2.97
X6.465Y-2.97
X6.475Y-3.01
X6.575Y-2.51
X6.685Y-2.8652
X6.685Y-2.95
X6.7042Y-2.5533
X6.72Y-2.64
X6.72Y-2.855
X6.7589Y-2.7835
X6.84Y-2.6722
X6.935Y-2.54
X6.955Y-2.465
X7.005Y-2.63
X7.24Y-2.815
X7.24Y-2.87
X7.245Y-2.56
X7.245Y-2.62
X7.245Y-2.65
X7.27Y-2.815
X7.27Y-2.87
X7.275Y-2.56
X7.275Y-2.62
X7.275Y-2.65
X7.3Y-2.815
X7.3Y-2.87
X7.305Y-2.56
X7.305Y-2.62
X7.35Y-2.595
X7.385Y-2.86
X7.4008Y-2.9074
X7.4054Y-2.6594
X7.44Y-2.405
X7.44Y-2.655
X7.44Y-2.9
X7.475Y-2.405
X7.475Y-2.655
X7.475Y-2.9
X7.51Y-2.405
X7.51Y-2.655
X7.51Y-2.81
X7.51Y-2.9
X7.515Y-3.055
X7.54Y-2.395
X7.54Y-2.425
X7.54Y-2.455
X7.54Y-2.485
X7.54Y-2.515
X7.54Y-2.645
X7.54Y-2.675
X7.54Y-2.705
X7.54Y-2.735
X7.54Y-2.765
X7.54Y-2.925
X7.54Y-2.955
X7.54Y-2.985
X7.54Y-3.015
T4
X6.875Y-3.1122
X6.875Y-3.25
T5
X7.65Y-2.85
X4.735Y-2.59
X7.175Y-2.5
X7.175Y-2.6
X5.Y-2.6
X5.1Y-2.85
X6.93Y-2.805
X6.225Y-2.195
X4.65Y-3.15
X6.12Y-2.665
X7.345Y-2.3
X6.35Y-2.195
X5.25Y-2.885
X4.65Y-3.
X7.65Y-3.
X6.225Y-2.845
X6.9Y-2.625
X7.65Y-2.7
X4.315Y-2.32
X4.415Y-2.32
X4.515Y-2.32
X4.615Y-2.32
X4.715Y-2.32
X4.815Y-2.32
X5.25Y-3.05
X6.12Y-2.905
X7.175Y-2.75
X7.175Y-2.85
X5.25Y-3.15
X4.9Y-3.05
X5.Y-3.05
X5.1Y-3.05
X6.575Y-3.25
X6.05Y-2.43
X4.24Y-2.75
X4.24Y-2.85
X4.24Y-2.95
X4.24Y-3.05
X4.24Y-3.15
X5.605Y-3.2
X5.1Y-2.6
X6.12Y-3.205
X5.05Y-2.15
X6.575Y-3.1
X5.39Y-2.15
X6.005Y-3.09
X5.15Y-2.15
X6.1Y-2.195
X5.65Y-2.465
X5.75Y-2.465
X5.85Y-2.465
X7.175Y-3.
X7.175Y-3.1
X6.645Y-2.35
X6.225Y-2.605
X4.9719Y-2.35
X5.0719Y-2.35
X5.1719Y-2.35
X5.2719Y-2.35
X5.3719Y-2.35
X5.Y-2.8
X4.735Y-2.47
X6.825Y-2.75
X6.005Y-3.205
X5.25Y-2.15
X6.12Y-3.09
X6.65Y-3.015
X6.12Y-2.785
X5.05Y-2.7
X6.775Y-2.95
X6.225Y-2.725
T6
X7.85Y-2.7122
X7.85Y-2.85
X7.85Y-2.9878
T7
X7.874Y-3.3465
X4.1339Y-2.1654
X4.1339Y-3.3465
X7.874Y-2.1654
T0
M30
