G04 #@! TF.GenerationSoftware,KiCad,Pcbnew,5.0.0-4.fc29*
G04 #@! TF.CreationDate,2018-09-24T06:15:53+02:00*
G04 #@! TF.ProjectId,macro-motor,6D6163726F2D6D6F746F722E6B696361,rev?*
G04 #@! TF.SameCoordinates,Original*
G04 #@! TF.FileFunction,Legend,Top*
G04 #@! TF.FilePolarity,Positive*
%FSLAX46Y46*%
G04 Gerber Fmt 4.6, Leading zero omitted, Abs format (unit mm)*
G04 Created by KiCad (PCBNEW 5.0.0-4.fc29) date Mon Sep 24 06:15:53 2018*
%MOMM*%
%LPD*%
G01*
G04 APERTURE LIST*
%ADD10C,0.120000*%
%ADD11C,0.100000*%
%ADD12C,0.150000*%
G04 APERTURE END LIST*
D10*
G04 #@! TO.C,J604*
X130870000Y-78800000D02*
X130870000Y-76140000D01*
X125730000Y-78800000D02*
X130870000Y-78800000D01*
X125730000Y-76140000D02*
X130870000Y-76140000D01*
X125730000Y-78800000D02*
X125730000Y-76140000D01*
X124460000Y-78800000D02*
X123130000Y-78800000D01*
X123130000Y-78800000D02*
X123130000Y-77470000D01*
G04 #@! TO.C,C101*
X111504000Y-75981779D02*
X111504000Y-75656221D01*
X112524000Y-75981779D02*
X112524000Y-75656221D01*
G04 #@! TO.C,C301*
X178745000Y-80800000D02*
G75*
G03X178745000Y-80800000I-4120000J0D01*
G01*
X170545000Y-80800000D02*
X178705000Y-80800000D01*
X170545000Y-80760000D02*
X178705000Y-80760000D01*
X170545000Y-80720000D02*
X178705000Y-80720000D01*
X170546000Y-80680000D02*
X178704000Y-80680000D01*
X170548000Y-80640000D02*
X178702000Y-80640000D01*
X170549000Y-80600000D02*
X178701000Y-80600000D01*
X170551000Y-80560000D02*
X178699000Y-80560000D01*
X170554000Y-80520000D02*
X178696000Y-80520000D01*
X170557000Y-80480000D02*
X178693000Y-80480000D01*
X170560000Y-80440000D02*
X178690000Y-80440000D01*
X170564000Y-80400000D02*
X178686000Y-80400000D01*
X170568000Y-80360000D02*
X178682000Y-80360000D01*
X170573000Y-80320000D02*
X178677000Y-80320000D01*
X170577000Y-80280000D02*
X178673000Y-80280000D01*
X170583000Y-80240000D02*
X178667000Y-80240000D01*
X170588000Y-80200000D02*
X178662000Y-80200000D01*
X170595000Y-80160000D02*
X178655000Y-80160000D01*
X170601000Y-80120000D02*
X178649000Y-80120000D01*
X170608000Y-80079000D02*
X173585000Y-80079000D01*
X175665000Y-80079000D02*
X178642000Y-80079000D01*
X170615000Y-80039000D02*
X173585000Y-80039000D01*
X175665000Y-80039000D02*
X178635000Y-80039000D01*
X170623000Y-79999000D02*
X173585000Y-79999000D01*
X175665000Y-79999000D02*
X178627000Y-79999000D01*
X170631000Y-79959000D02*
X173585000Y-79959000D01*
X175665000Y-79959000D02*
X178619000Y-79959000D01*
X170640000Y-79919000D02*
X173585000Y-79919000D01*
X175665000Y-79919000D02*
X178610000Y-79919000D01*
X170649000Y-79879000D02*
X173585000Y-79879000D01*
X175665000Y-79879000D02*
X178601000Y-79879000D01*
X170658000Y-79839000D02*
X173585000Y-79839000D01*
X175665000Y-79839000D02*
X178592000Y-79839000D01*
X170668000Y-79799000D02*
X173585000Y-79799000D01*
X175665000Y-79799000D02*
X178582000Y-79799000D01*
X170678000Y-79759000D02*
X173585000Y-79759000D01*
X175665000Y-79759000D02*
X178572000Y-79759000D01*
X170689000Y-79719000D02*
X173585000Y-79719000D01*
X175665000Y-79719000D02*
X178561000Y-79719000D01*
X170700000Y-79679000D02*
X173585000Y-79679000D01*
X175665000Y-79679000D02*
X178550000Y-79679000D01*
X170711000Y-79639000D02*
X173585000Y-79639000D01*
X175665000Y-79639000D02*
X178539000Y-79639000D01*
X170723000Y-79599000D02*
X173585000Y-79599000D01*
X175665000Y-79599000D02*
X178527000Y-79599000D01*
X170736000Y-79559000D02*
X173585000Y-79559000D01*
X175665000Y-79559000D02*
X178514000Y-79559000D01*
X170748000Y-79519000D02*
X173585000Y-79519000D01*
X175665000Y-79519000D02*
X178502000Y-79519000D01*
X170762000Y-79479000D02*
X173585000Y-79479000D01*
X175665000Y-79479000D02*
X178488000Y-79479000D01*
X170775000Y-79439000D02*
X173585000Y-79439000D01*
X175665000Y-79439000D02*
X178475000Y-79439000D01*
X170790000Y-79399000D02*
X173585000Y-79399000D01*
X175665000Y-79399000D02*
X178460000Y-79399000D01*
X170804000Y-79359000D02*
X173585000Y-79359000D01*
X175665000Y-79359000D02*
X178446000Y-79359000D01*
X170820000Y-79319000D02*
X173585000Y-79319000D01*
X175665000Y-79319000D02*
X178430000Y-79319000D01*
X170835000Y-79279000D02*
X173585000Y-79279000D01*
X175665000Y-79279000D02*
X178415000Y-79279000D01*
X170851000Y-79239000D02*
X173585000Y-79239000D01*
X175665000Y-79239000D02*
X178399000Y-79239000D01*
X170868000Y-79199000D02*
X173585000Y-79199000D01*
X175665000Y-79199000D02*
X178382000Y-79199000D01*
X170885000Y-79159000D02*
X173585000Y-79159000D01*
X175665000Y-79159000D02*
X178365000Y-79159000D01*
X170903000Y-79119000D02*
X173585000Y-79119000D01*
X175665000Y-79119000D02*
X178347000Y-79119000D01*
X170921000Y-79079000D02*
X173585000Y-79079000D01*
X175665000Y-79079000D02*
X178329000Y-79079000D01*
X170939000Y-79039000D02*
X173585000Y-79039000D01*
X175665000Y-79039000D02*
X178311000Y-79039000D01*
X170959000Y-78999000D02*
X173585000Y-78999000D01*
X175665000Y-78999000D02*
X178291000Y-78999000D01*
X170978000Y-78959000D02*
X173585000Y-78959000D01*
X175665000Y-78959000D02*
X178272000Y-78959000D01*
X170998000Y-78919000D02*
X173585000Y-78919000D01*
X175665000Y-78919000D02*
X178252000Y-78919000D01*
X171019000Y-78879000D02*
X173585000Y-78879000D01*
X175665000Y-78879000D02*
X178231000Y-78879000D01*
X171041000Y-78839000D02*
X173585000Y-78839000D01*
X175665000Y-78839000D02*
X178209000Y-78839000D01*
X171063000Y-78799000D02*
X173585000Y-78799000D01*
X175665000Y-78799000D02*
X178187000Y-78799000D01*
X171085000Y-78759000D02*
X173585000Y-78759000D01*
X175665000Y-78759000D02*
X178165000Y-78759000D01*
X171108000Y-78719000D02*
X173585000Y-78719000D01*
X175665000Y-78719000D02*
X178142000Y-78719000D01*
X171132000Y-78679000D02*
X173585000Y-78679000D01*
X175665000Y-78679000D02*
X178118000Y-78679000D01*
X171156000Y-78639000D02*
X173585000Y-78639000D01*
X175665000Y-78639000D02*
X178094000Y-78639000D01*
X171181000Y-78599000D02*
X173585000Y-78599000D01*
X175665000Y-78599000D02*
X178069000Y-78599000D01*
X171207000Y-78559000D02*
X173585000Y-78559000D01*
X175665000Y-78559000D02*
X178043000Y-78559000D01*
X171233000Y-78519000D02*
X173585000Y-78519000D01*
X175665000Y-78519000D02*
X178017000Y-78519000D01*
X171260000Y-78479000D02*
X173585000Y-78479000D01*
X175665000Y-78479000D02*
X177990000Y-78479000D01*
X171287000Y-78439000D02*
X173585000Y-78439000D01*
X175665000Y-78439000D02*
X177963000Y-78439000D01*
X171316000Y-78399000D02*
X173585000Y-78399000D01*
X175665000Y-78399000D02*
X177934000Y-78399000D01*
X171345000Y-78359000D02*
X173585000Y-78359000D01*
X175665000Y-78359000D02*
X177905000Y-78359000D01*
X171375000Y-78319000D02*
X173585000Y-78319000D01*
X175665000Y-78319000D02*
X177875000Y-78319000D01*
X171405000Y-78279000D02*
X173585000Y-78279000D01*
X175665000Y-78279000D02*
X177845000Y-78279000D01*
X171436000Y-78239000D02*
X173585000Y-78239000D01*
X175665000Y-78239000D02*
X177814000Y-78239000D01*
X171469000Y-78199000D02*
X173585000Y-78199000D01*
X175665000Y-78199000D02*
X177781000Y-78199000D01*
X171501000Y-78159000D02*
X173585000Y-78159000D01*
X175665000Y-78159000D02*
X177749000Y-78159000D01*
X171535000Y-78119000D02*
X173585000Y-78119000D01*
X175665000Y-78119000D02*
X177715000Y-78119000D01*
X171570000Y-78079000D02*
X173585000Y-78079000D01*
X175665000Y-78079000D02*
X177680000Y-78079000D01*
X171606000Y-78039000D02*
X173585000Y-78039000D01*
X175665000Y-78039000D02*
X177644000Y-78039000D01*
X171642000Y-77999000D02*
X177608000Y-77999000D01*
X171680000Y-77959000D02*
X177570000Y-77959000D01*
X171718000Y-77919000D02*
X177532000Y-77919000D01*
X171758000Y-77879000D02*
X177492000Y-77879000D01*
X171799000Y-77839000D02*
X177451000Y-77839000D01*
X171841000Y-77799000D02*
X177409000Y-77799000D01*
X171884000Y-77759000D02*
X177366000Y-77759000D01*
X171928000Y-77719000D02*
X177322000Y-77719000D01*
X171974000Y-77679000D02*
X177276000Y-77679000D01*
X172021000Y-77639000D02*
X177229000Y-77639000D01*
X172069000Y-77599000D02*
X177181000Y-77599000D01*
X172120000Y-77559000D02*
X177130000Y-77559000D01*
X172171000Y-77519000D02*
X177079000Y-77519000D01*
X172225000Y-77479000D02*
X177025000Y-77479000D01*
X172280000Y-77439000D02*
X176970000Y-77439000D01*
X172338000Y-77399000D02*
X176912000Y-77399000D01*
X172397000Y-77359000D02*
X176853000Y-77359000D01*
X172459000Y-77319000D02*
X176791000Y-77319000D01*
X172523000Y-77279000D02*
X176727000Y-77279000D01*
X172591000Y-77239000D02*
X176659000Y-77239000D01*
X172661000Y-77199000D02*
X176589000Y-77199000D01*
X172735000Y-77159000D02*
X176515000Y-77159000D01*
X172812000Y-77119000D02*
X176438000Y-77119000D01*
X172894000Y-77079000D02*
X176356000Y-77079000D01*
X172980000Y-77039000D02*
X176270000Y-77039000D01*
X173073000Y-76999000D02*
X176177000Y-76999000D01*
X173172000Y-76959000D02*
X176078000Y-76959000D01*
X173279000Y-76919000D02*
X175971000Y-76919000D01*
X173396000Y-76879000D02*
X175854000Y-76879000D01*
X173527000Y-76839000D02*
X175723000Y-76839000D01*
X173677000Y-76799000D02*
X175573000Y-76799000D01*
X173857000Y-76759000D02*
X175393000Y-76759000D01*
X174092000Y-76719000D02*
X175158000Y-76719000D01*
X172310000Y-85209698D02*
X172310000Y-84409698D01*
X171910000Y-84809698D02*
X172710000Y-84809698D01*
D11*
G04 #@! TO.C,D601*
X143740000Y-72136000D02*
G75*
G03X143740000Y-72136000I-50000J0D01*
G01*
G04 #@! TO.C,D602*
X145920000Y-71120000D02*
G75*
G03X145920000Y-71120000I-50000J0D01*
G01*
D10*
G04 #@! TO.C,J101*
X106366000Y-81340000D02*
X109026000Y-81340000D01*
X106366000Y-71120000D02*
X106366000Y-81340000D01*
X109026000Y-71120000D02*
X109026000Y-81340000D01*
X106366000Y-71120000D02*
X109026000Y-71120000D01*
X106366000Y-69850000D02*
X106366000Y-68520000D01*
X106366000Y-68520000D02*
X107696000Y-68520000D01*
G04 #@! TO.C,J102*
X119361000Y-80010000D02*
G75*
G03X119361000Y-80010000I-1251000J0D01*
G01*
G04 #@! TO.C,J103*
X119361000Y-76200000D02*
G75*
G03X119361000Y-76200000I-1251000J0D01*
G01*
G04 #@! TO.C,J104*
X138157000Y-54610000D02*
G75*
G03X138157000Y-54610000I-1251000J0D01*
G01*
G04 #@! TO.C,J105*
X143618000Y-81280000D02*
G75*
G03X143618000Y-81280000I-1251000J0D01*
G01*
G04 #@! TO.C,J106*
X134601000Y-54610000D02*
G75*
G03X134601000Y-54610000I-1251000J0D01*
G01*
G04 #@! TO.C,J107*
X132061000Y-54610000D02*
G75*
G03X132061000Y-54610000I-1251000J0D01*
G01*
G04 #@! TO.C,J108*
X129521000Y-54610000D02*
G75*
G03X129521000Y-54610000I-1251000J0D01*
G01*
G04 #@! TO.C,J109*
X200814721Y-74999736D02*
G75*
G02X201070000Y-75890000I-1424721J-890264D01*
G01*
X198499807Y-74464495D02*
G75*
G02X200281000Y-74465000I890193J-1425505D01*
G01*
X197964642Y-76779894D02*
G75*
G02X197950000Y-75024000I1425358J889894D01*
G01*
X200279894Y-77315358D02*
G75*
G02X198524000Y-77330000I-889894J1425358D01*
G01*
X201070099Y-75861326D02*
G75*
G02X200830000Y-76756000I-1680099J-28674D01*
G01*
X201070000Y-72390000D02*
G75*
G03X201070000Y-72390000I-1680000J0D01*
G01*
X201070000Y-68890000D02*
G75*
G03X201070000Y-68890000I-1680000J0D01*
G01*
X203490000Y-77700000D02*
X203490000Y-67080000D01*
X202390000Y-77700000D02*
X202390000Y-67080000D01*
X196230000Y-77700000D02*
X196230000Y-67080000D01*
X203950000Y-77700000D02*
X203950000Y-67080000D01*
X196230000Y-77700000D02*
X203950000Y-77700000D01*
X196230000Y-67080000D02*
X203950000Y-67080000D01*
X198321000Y-71115000D02*
X198449000Y-71244000D01*
X200571000Y-73365000D02*
X200664000Y-73459000D01*
X198115000Y-71320000D02*
X198209000Y-71414000D01*
X200331000Y-73535000D02*
X200459000Y-73664000D01*
X198321000Y-67615000D02*
X198449000Y-67744000D01*
X200571000Y-69865000D02*
X200664000Y-69959000D01*
X198115000Y-67820000D02*
X198209000Y-67914000D01*
X200331000Y-70035000D02*
X200459000Y-70164000D01*
X203550000Y-77940000D02*
X204190000Y-77940000D01*
X204190000Y-77940000D02*
X204190000Y-77540000D01*
G04 #@! TO.C,J202*
X121520000Y-62738000D02*
G75*
G03X121520000Y-62738000I-1251000J0D01*
G01*
G04 #@! TO.C,J203*
X121520000Y-65786000D02*
G75*
G03X121520000Y-65786000I-1251000J0D01*
G01*
G04 #@! TO.C,J301*
X180915000Y-67370000D02*
X183575000Y-67370000D01*
X180915000Y-64770000D02*
X180915000Y-67370000D01*
X183575000Y-64770000D02*
X183575000Y-67370000D01*
X180915000Y-64770000D02*
X183575000Y-64770000D01*
X180915000Y-63500000D02*
X180915000Y-62170000D01*
X180915000Y-62170000D02*
X182245000Y-62170000D01*
G04 #@! TO.C,J302*
X180915000Y-73720000D02*
X183575000Y-73720000D01*
X180915000Y-71120000D02*
X180915000Y-73720000D01*
X183575000Y-71120000D02*
X183575000Y-73720000D01*
X180915000Y-71120000D02*
X183575000Y-71120000D01*
X180915000Y-69850000D02*
X180915000Y-68520000D01*
X180915000Y-68520000D02*
X182245000Y-68520000D01*
G04 #@! TO.C,J303*
X180915000Y-74870000D02*
X182245000Y-74870000D01*
X180915000Y-76200000D02*
X180915000Y-74870000D01*
X180915000Y-77470000D02*
X183575000Y-77470000D01*
X183575000Y-77470000D02*
X183575000Y-80070000D01*
X180915000Y-77470000D02*
X180915000Y-80070000D01*
X180915000Y-80070000D02*
X183575000Y-80070000D01*
G04 #@! TO.C,J501*
X153778000Y-78486000D02*
G75*
G03X153778000Y-78486000I-1251000J0D01*
G01*
G04 #@! TO.C,J502*
X153778000Y-81407000D02*
G75*
G03X153778000Y-81407000I-1251000J0D01*
G01*
G04 #@! TO.C,J503*
X156699000Y-78486000D02*
G75*
G03X156699000Y-78486000I-1251000J0D01*
G01*
G04 #@! TO.C,J504*
X156699000Y-81407000D02*
G75*
G03X156699000Y-81407000I-1251000J0D01*
G01*
G04 #@! TO.C,J601*
X149920000Y-63941000D02*
X149920000Y-61281000D01*
X144780000Y-63941000D02*
X149920000Y-63941000D01*
X144780000Y-61281000D02*
X149920000Y-61281000D01*
X144780000Y-63941000D02*
X144780000Y-61281000D01*
X143510000Y-63941000D02*
X142180000Y-63941000D01*
X142180000Y-63941000D02*
X142180000Y-62611000D01*
G04 #@! TO.C,J605*
X130791000Y-72390000D02*
G75*
G03X130791000Y-72390000I-1251000J0D01*
G01*
G04 #@! TO.C,J606*
X134601000Y-73279000D02*
G75*
G03X134601000Y-73279000I-1251000J0D01*
G01*
G04 #@! TO.C,J607*
X129521000Y-68580000D02*
G75*
G03X129521000Y-68580000I-1251000J0D01*
G01*
G04 #@! TO.C,J608*
X130791000Y-66040000D02*
G75*
G03X130791000Y-66040000I-1251000J0D01*
G01*
G04 #@! TO.C,J609*
X128251000Y-66040000D02*
G75*
G03X128251000Y-66040000I-1251000J0D01*
G01*
G04 #@! TO.C,JP301*
X178355000Y-62500000D02*
X179755000Y-62500000D01*
X180455000Y-63200000D02*
X180455000Y-63800000D01*
X179755000Y-64500000D02*
X178355000Y-64500000D01*
X177655000Y-63800000D02*
X177655000Y-63200000D01*
X177655000Y-63200000D02*
G75*
G02X178355000Y-62500000I700000J0D01*
G01*
X178355000Y-64500000D02*
G75*
G02X177655000Y-63800000I0J700000D01*
G01*
X180455000Y-63800000D02*
G75*
G02X179755000Y-64500000I-700000J0D01*
G01*
X179755000Y-62500000D02*
G75*
G02X180455000Y-63200000I0J-700000D01*
G01*
G04 #@! TO.C,JP302*
X179755000Y-68850000D02*
G75*
G02X180455000Y-69550000I0J-700000D01*
G01*
X180455000Y-70150000D02*
G75*
G02X179755000Y-70850000I-700000J0D01*
G01*
X178355000Y-70850000D02*
G75*
G02X177655000Y-70150000I0J700000D01*
G01*
X177655000Y-69550000D02*
G75*
G02X178355000Y-68850000I700000J0D01*
G01*
X177655000Y-70150000D02*
X177655000Y-69550000D01*
X179755000Y-70850000D02*
X178355000Y-70850000D01*
X180455000Y-69550000D02*
X180455000Y-70150000D01*
X178355000Y-68850000D02*
X179755000Y-68850000D01*
G04 #@! TO.C,JP303*
X179755000Y-75200000D02*
G75*
G02X180455000Y-75900000I0J-700000D01*
G01*
X180455000Y-76500000D02*
G75*
G02X179755000Y-77200000I-700000J0D01*
G01*
X178355000Y-77200000D02*
G75*
G02X177655000Y-76500000I0J700000D01*
G01*
X177655000Y-75900000D02*
G75*
G02X178355000Y-75200000I700000J0D01*
G01*
X177655000Y-76500000D02*
X177655000Y-75900000D01*
X179755000Y-77200000D02*
X178355000Y-77200000D01*
X180455000Y-75900000D02*
X180455000Y-76500000D01*
X178355000Y-75200000D02*
X179755000Y-75200000D01*
D12*
G04 #@! TO.C,Q301*
X191135000Y-61595000D02*
X191389000Y-61849000D01*
X191135000Y-61341000D02*
X191643000Y-61849000D01*
X191135000Y-61087000D02*
X191897000Y-61849000D01*
X186595000Y-61850000D02*
X185845000Y-61850000D01*
X191095000Y-61100000D02*
X191095000Y-65400000D01*
X191345000Y-65150000D02*
X190595000Y-65150000D01*
X186095000Y-61600000D02*
X186095000Y-65400000D01*
X186595000Y-65150000D02*
X185845000Y-65150000D01*
X191845000Y-61850000D02*
X190595000Y-61850000D01*
G04 #@! TO.C,Q302*
X191845000Y-68200000D02*
X190595000Y-68200000D01*
X186595000Y-71500000D02*
X185845000Y-71500000D01*
X186095000Y-67950000D02*
X186095000Y-71750000D01*
X191345000Y-71500000D02*
X190595000Y-71500000D01*
X191095000Y-67450000D02*
X191095000Y-71750000D01*
X186595000Y-68200000D02*
X185845000Y-68200000D01*
X191135000Y-67437000D02*
X191897000Y-68199000D01*
X191135000Y-67691000D02*
X191643000Y-68199000D01*
X191135000Y-67945000D02*
X191389000Y-68199000D01*
G04 #@! TO.C,Q303*
X191845000Y-74550000D02*
X190595000Y-74550000D01*
X186595000Y-77850000D02*
X185845000Y-77850000D01*
X186095000Y-74300000D02*
X186095000Y-78100000D01*
X191345000Y-77850000D02*
X190595000Y-77850000D01*
X191095000Y-73800000D02*
X191095000Y-78100000D01*
X186595000Y-74550000D02*
X185845000Y-74550000D01*
X191135000Y-73787000D02*
X191897000Y-74549000D01*
X191135000Y-74041000D02*
X191643000Y-74549000D01*
X191135000Y-74295000D02*
X191389000Y-74549000D01*
D10*
G04 #@! TO.C,R302*
X184075000Y-64511422D02*
X184075000Y-65028578D01*
X185495000Y-64511422D02*
X185495000Y-65028578D01*
G04 #@! TO.C,R303*
X185495000Y-70861422D02*
X185495000Y-71378578D01*
X184075000Y-70861422D02*
X184075000Y-71378578D01*
G04 #@! TO.C,R304*
X185495000Y-77211422D02*
X185495000Y-77728578D01*
X184075000Y-77211422D02*
X184075000Y-77728578D01*
G04 #@! TO.C,TP303*
X159366000Y-66167000D02*
G75*
G03X159366000Y-66167000I-1251000J0D01*
G01*
G04 #@! TO.C,TP304*
X156699000Y-67691000D02*
G75*
G03X156699000Y-67691000I-1251000J0D01*
G01*
G04 #@! TO.C,TP305*
X159366000Y-69215000D02*
G75*
G03X159366000Y-69215000I-1251000J0D01*
G01*
G04 #@! TO.C,TP306*
X156699000Y-70739000D02*
G75*
G03X156699000Y-70739000I-1251000J0D01*
G01*
G04 #@! TO.C,TP307*
X159366000Y-72263000D02*
G75*
G03X159366000Y-72263000I-1251000J0D01*
G01*
G04 #@! TO.C,TP308*
X156699000Y-73787000D02*
G75*
G03X156699000Y-73787000I-1251000J0D01*
G01*
G04 #@! TO.C,TP309*
X159366000Y-55753000D02*
G75*
G03X159366000Y-55753000I-1251000J0D01*
G01*
G04 #@! TO.C,TP310*
X162541000Y-55753000D02*
G75*
G03X162541000Y-55753000I-1251000J0D01*
G01*
G04 #@! TO.C,TP311*
X156191000Y-55753000D02*
G75*
G03X156191000Y-55753000I-1251000J0D01*
G01*
G04 #@! TO.C,TP312*
X154921000Y-61722000D02*
G75*
G03X154921000Y-61722000I-1251000J0D01*
G01*
G04 #@! TO.C,TP313*
X128251000Y-71120000D02*
G75*
G03X128251000Y-71120000I-1251000J0D01*
G01*
G04 #@! TO.C,TP314*
X134601000Y-80010000D02*
G75*
G03X134601000Y-80010000I-1251000J0D01*
G01*
G04 #@! TO.C,TP315*
X134601000Y-77470000D02*
G75*
G03X134601000Y-77470000I-1251000J0D01*
G01*
G04 #@! TO.C,TP316*
X170161000Y-76581000D02*
G75*
G03X170161000Y-76581000I-1251000J0D01*
G01*
G04 #@! TO.C,TP317*
X173336000Y-74930000D02*
G75*
G03X173336000Y-74930000I-1251000J0D01*
G01*
G04 #@! TO.C,TP318*
X176511000Y-66675000D02*
G75*
G03X176511000Y-66675000I-1251000J0D01*
G01*
G04 #@! TO.C,TP319*
X187814000Y-58420000D02*
G75*
G03X187814000Y-58420000I-1251000J0D01*
G01*
G04 #@! TO.C,TP320*
X174606000Y-69850000D02*
G75*
G03X174606000Y-69850000I-1251000J0D01*
G01*
G04 #@! TO.C,TP321*
X177273000Y-71247000D02*
G75*
G03X177273000Y-71247000I-1251000J0D01*
G01*
G04 #@! TO.C,TP322*
X195561000Y-68580000D02*
G75*
G03X195561000Y-68580000I-1251000J0D01*
G01*
G04 #@! TO.C,TP323*
X195561000Y-72390000D02*
G75*
G03X195561000Y-72390000I-1251000J0D01*
G01*
G04 #@! TO.C,TP324*
X195561000Y-76200000D02*
G75*
G03X195561000Y-76200000I-1251000J0D01*
G01*
G04 #@! TO.C,U101*
X114499000Y-79774000D02*
X113339000Y-79774000D01*
X113339000Y-79774000D02*
X113339000Y-78214000D01*
X113339000Y-78214000D02*
X114499000Y-78214000D01*
X114499000Y-78214000D02*
X114499000Y-79774000D01*
X113219000Y-79994000D02*
G75*
G03X113219000Y-79994000I-100000J0D01*
G01*
G04 #@! TO.C,U102*
X113219000Y-76946000D02*
G75*
G03X113219000Y-76946000I-100000J0D01*
G01*
X114499000Y-75166000D02*
X114499000Y-76726000D01*
X113339000Y-75166000D02*
X114499000Y-75166000D01*
X113339000Y-76726000D02*
X113339000Y-75166000D01*
X114499000Y-76726000D02*
X113339000Y-76726000D01*
D12*
G04 #@! TO.C,U301*
X163855000Y-66700000D02*
X164380000Y-66700000D01*
X170155000Y-73000000D02*
X169630000Y-73000000D01*
X170155000Y-66700000D02*
X169630000Y-66700000D01*
X163855000Y-73000000D02*
X163855000Y-72475000D01*
X170155000Y-73000000D02*
X170155000Y-72475000D01*
X170155000Y-66700000D02*
X170155000Y-67225000D01*
X163855000Y-66700000D02*
X163855000Y-67225000D01*
D10*
G04 #@! TO.C,U401*
X116724000Y-70145000D02*
X114924000Y-70145000D01*
X114924000Y-73365000D02*
X117374000Y-73365000D01*
D11*
G04 #@! TO.C,U501*
X149552000Y-83004000D02*
X149552000Y-82604000D01*
X149552000Y-82604000D02*
X149152000Y-82604000D01*
X148252000Y-83604000D02*
X150352000Y-83604000D01*
X150152000Y-83804000D02*
X150152000Y-81804000D01*
X148552000Y-83904000D02*
X148552000Y-81804000D01*
X148352000Y-82004000D02*
X150352000Y-82004000D01*
X149152000Y-83004000D02*
X149152000Y-82604000D01*
X149552000Y-83004000D02*
X149152000Y-83004000D01*
X148552000Y-83904000D02*
X148252000Y-83604000D01*
X148552000Y-83704000D02*
X148452000Y-83604000D01*
X148352000Y-83604000D02*
X148552000Y-83804000D01*
D10*
G04 #@! TO.C,U601*
X141590000Y-63685000D02*
X142055000Y-63685000D01*
X142055000Y-63685000D02*
X142055000Y-64150000D01*
X135270000Y-70935000D02*
X134805000Y-70935000D01*
X134805000Y-70935000D02*
X134805000Y-70470000D01*
X141590000Y-70935000D02*
X142055000Y-70935000D01*
X142055000Y-70935000D02*
X142055000Y-70470000D01*
X134805000Y-63685000D02*
X135270000Y-63685000D01*
G04 #@! TO.C,J110*
X124955001Y-58360000D02*
X124955001Y-61020000D01*
X135175001Y-58360000D02*
X124955001Y-58360000D01*
X135175001Y-61020000D02*
X124955001Y-61020000D01*
X135175001Y-58360000D02*
X135175001Y-61020000D01*
X136445001Y-58360000D02*
X137775001Y-58360000D01*
X137775001Y-58360000D02*
X137775001Y-59690000D01*
G04 #@! TO.C,J204*
X108271000Y-57598000D02*
X108271000Y-60258000D01*
X121031000Y-57598000D02*
X108271000Y-57598000D01*
X121031000Y-60258000D02*
X108271000Y-60258000D01*
X121031000Y-57598000D02*
X121031000Y-60258000D01*
X122301000Y-57598000D02*
X123631000Y-57598000D01*
X123631000Y-57598000D02*
X123631000Y-58928000D01*
D12*
G04 #@! TO.C,U202*
X116248000Y-67218000D02*
X116248000Y-67168000D01*
X112098000Y-67218000D02*
X112098000Y-67073000D01*
X112098000Y-62068000D02*
X112098000Y-62213000D01*
X116248000Y-62068000D02*
X116248000Y-62213000D01*
X116248000Y-67218000D02*
X112098000Y-67218000D01*
X116248000Y-62068000D02*
X112098000Y-62068000D01*
X116248000Y-67168000D02*
X117648000Y-67168000D01*
D10*
G04 #@! TO.C,TP301*
X168256000Y-82550000D02*
G75*
G03X168256000Y-82550000I-1251000J0D01*
G01*
G04 #@! TO.C,TP302*
X168256000Y-78740000D02*
G75*
G03X168256000Y-78740000I-1251000J0D01*
G01*
G04 #@! TO.C,J111*
X170034000Y-59690000D02*
G75*
G03X170034000Y-59690000I-1251000J0D01*
G01*
D11*
G04 #@! TO.C,RN201*
X106107000Y-60400000D02*
X106107000Y-60250000D01*
X107507000Y-60400000D02*
X107507000Y-60250000D01*
X107257000Y-60625000D02*
X107157000Y-60625000D01*
X106857000Y-60625000D02*
X106757000Y-60625000D01*
X106457000Y-60625000D02*
X106357000Y-60625000D01*
X106457000Y-60025000D02*
X106357000Y-60025000D01*
X106857000Y-60025000D02*
X106757000Y-60025000D01*
X107257000Y-60025000D02*
X107157000Y-60025000D01*
G04 #@! TO.C,RN202*
X107257000Y-63445500D02*
X107157000Y-63445500D01*
X106857000Y-63445500D02*
X106757000Y-63445500D01*
X106457000Y-63445500D02*
X106357000Y-63445500D01*
X106457000Y-64045500D02*
X106357000Y-64045500D01*
X106857000Y-64045500D02*
X106757000Y-64045500D01*
X107257000Y-64045500D02*
X107157000Y-64045500D01*
X107507000Y-63820500D02*
X107507000Y-63670500D01*
X106107000Y-63820500D02*
X106107000Y-63670500D01*
G04 #@! TO.C,REF\002A\002A*
D12*
X103666666Y-51652380D02*
X103333333Y-51176190D01*
X103095238Y-51652380D02*
X103095238Y-50652380D01*
X103476190Y-50652380D01*
X103571428Y-50700000D01*
X103619047Y-50747619D01*
X103666666Y-50842857D01*
X103666666Y-50985714D01*
X103619047Y-51080952D01*
X103571428Y-51128571D01*
X103476190Y-51176190D01*
X103095238Y-51176190D01*
X104095238Y-51128571D02*
X104428571Y-51128571D01*
X104571428Y-51652380D02*
X104095238Y-51652380D01*
X104095238Y-50652380D01*
X104571428Y-50652380D01*
X105333333Y-51128571D02*
X105000000Y-51128571D01*
X105000000Y-51652380D02*
X105000000Y-50652380D01*
X105476190Y-50652380D01*
X106000000Y-50652380D02*
X106000000Y-50890476D01*
X105761904Y-50795238D02*
X106000000Y-50890476D01*
X106238095Y-50795238D01*
X105857142Y-51080952D02*
X106000000Y-50890476D01*
X106142857Y-51080952D01*
X106761904Y-50652380D02*
X106761904Y-50890476D01*
X106523809Y-50795238D02*
X106761904Y-50890476D01*
X107000000Y-50795238D01*
X106619047Y-51080952D02*
X106761904Y-50890476D01*
X106904761Y-51080952D01*
X103666666Y-81652380D02*
X103333333Y-81176190D01*
X103095238Y-81652380D02*
X103095238Y-80652380D01*
X103476190Y-80652380D01*
X103571428Y-80700000D01*
X103619047Y-80747619D01*
X103666666Y-80842857D01*
X103666666Y-80985714D01*
X103619047Y-81080952D01*
X103571428Y-81128571D01*
X103476190Y-81176190D01*
X103095238Y-81176190D01*
X104095238Y-81128571D02*
X104428571Y-81128571D01*
X104571428Y-81652380D02*
X104095238Y-81652380D01*
X104095238Y-80652380D01*
X104571428Y-80652380D01*
X105333333Y-81128571D02*
X105000000Y-81128571D01*
X105000000Y-81652380D02*
X105000000Y-80652380D01*
X105476190Y-80652380D01*
X106000000Y-80652380D02*
X106000000Y-80890476D01*
X105761904Y-80795238D02*
X106000000Y-80890476D01*
X106238095Y-80795238D01*
X105857142Y-81080952D02*
X106000000Y-80890476D01*
X106142857Y-81080952D01*
X106761904Y-80652380D02*
X106761904Y-80890476D01*
X106523809Y-80795238D02*
X106761904Y-80890476D01*
X107000000Y-80795238D01*
X106619047Y-81080952D02*
X106761904Y-80890476D01*
X106904761Y-81080952D01*
X198666666Y-81652380D02*
X198333333Y-81176190D01*
X198095238Y-81652380D02*
X198095238Y-80652380D01*
X198476190Y-80652380D01*
X198571428Y-80700000D01*
X198619047Y-80747619D01*
X198666666Y-80842857D01*
X198666666Y-80985714D01*
X198619047Y-81080952D01*
X198571428Y-81128571D01*
X198476190Y-81176190D01*
X198095238Y-81176190D01*
X199095238Y-81128571D02*
X199428571Y-81128571D01*
X199571428Y-81652380D02*
X199095238Y-81652380D01*
X199095238Y-80652380D01*
X199571428Y-80652380D01*
X200333333Y-81128571D02*
X200000000Y-81128571D01*
X200000000Y-81652380D02*
X200000000Y-80652380D01*
X200476190Y-80652380D01*
X201000000Y-80652380D02*
X201000000Y-80890476D01*
X200761904Y-80795238D02*
X201000000Y-80890476D01*
X201238095Y-80795238D01*
X200857142Y-81080952D02*
X201000000Y-80890476D01*
X201142857Y-81080952D01*
X201761904Y-80652380D02*
X201761904Y-80890476D01*
X201523809Y-80795238D02*
X201761904Y-80890476D01*
X202000000Y-80795238D01*
X201619047Y-81080952D02*
X201761904Y-80890476D01*
X201904761Y-81080952D01*
G04 #@! TO.C,C201*
X115743952Y-69472142D02*
X115696333Y-69519761D01*
X115553476Y-69567380D01*
X115458238Y-69567380D01*
X115315380Y-69519761D01*
X115220142Y-69424523D01*
X115172523Y-69329285D01*
X115124904Y-69138809D01*
X115124904Y-68995952D01*
X115172523Y-68805476D01*
X115220142Y-68710238D01*
X115315380Y-68615000D01*
X115458238Y-68567380D01*
X115553476Y-68567380D01*
X115696333Y-68615000D01*
X115743952Y-68662619D01*
X116124904Y-68662619D02*
X116172523Y-68615000D01*
X116267761Y-68567380D01*
X116505857Y-68567380D01*
X116601095Y-68615000D01*
X116648714Y-68662619D01*
X116696333Y-68757857D01*
X116696333Y-68853095D01*
X116648714Y-68995952D01*
X116077285Y-69567380D01*
X116696333Y-69567380D01*
X117315380Y-68567380D02*
X117410619Y-68567380D01*
X117505857Y-68615000D01*
X117553476Y-68662619D01*
X117601095Y-68757857D01*
X117648714Y-68948333D01*
X117648714Y-69186428D01*
X117601095Y-69376904D01*
X117553476Y-69472142D01*
X117505857Y-69519761D01*
X117410619Y-69567380D01*
X117315380Y-69567380D01*
X117220142Y-69519761D01*
X117172523Y-69472142D01*
X117124904Y-69376904D01*
X117077285Y-69186428D01*
X117077285Y-68948333D01*
X117124904Y-68757857D01*
X117172523Y-68662619D01*
X117220142Y-68615000D01*
X117315380Y-68567380D01*
X118601095Y-69567380D02*
X118029666Y-69567380D01*
X118315380Y-69567380D02*
X118315380Y-68567380D01*
X118220142Y-68710238D01*
X118124904Y-68805476D01*
X118029666Y-68853095D01*
G04 #@! TO.C,J604*
X121582380Y-78755714D02*
X122296666Y-78755714D01*
X122439523Y-78803333D01*
X122534761Y-78898571D01*
X122582380Y-79041428D01*
X122582380Y-79136666D01*
X121582380Y-77850952D02*
X121582380Y-78041428D01*
X121630000Y-78136666D01*
X121677619Y-78184285D01*
X121820476Y-78279523D01*
X122010952Y-78327142D01*
X122391904Y-78327142D01*
X122487142Y-78279523D01*
X122534761Y-78231904D01*
X122582380Y-78136666D01*
X122582380Y-77946190D01*
X122534761Y-77850952D01*
X122487142Y-77803333D01*
X122391904Y-77755714D01*
X122153809Y-77755714D01*
X122058571Y-77803333D01*
X122010952Y-77850952D01*
X121963333Y-77946190D01*
X121963333Y-78136666D01*
X122010952Y-78231904D01*
X122058571Y-78279523D01*
X122153809Y-78327142D01*
X121582380Y-77136666D02*
X121582380Y-77041428D01*
X121630000Y-76946190D01*
X121677619Y-76898571D01*
X121772857Y-76850952D01*
X121963333Y-76803333D01*
X122201428Y-76803333D01*
X122391904Y-76850952D01*
X122487142Y-76898571D01*
X122534761Y-76946190D01*
X122582380Y-77041428D01*
X122582380Y-77136666D01*
X122534761Y-77231904D01*
X122487142Y-77279523D01*
X122391904Y-77327142D01*
X122201428Y-77374761D01*
X121963333Y-77374761D01*
X121772857Y-77327142D01*
X121677619Y-77279523D01*
X121630000Y-77231904D01*
X121582380Y-77136666D01*
X121915714Y-75946190D02*
X122582380Y-75946190D01*
X121534761Y-76184285D02*
X122249047Y-76422380D01*
X122249047Y-75803333D01*
G04 #@! TO.C,C101*
X110941142Y-76938047D02*
X110988761Y-76985666D01*
X111036380Y-77128523D01*
X111036380Y-77223761D01*
X110988761Y-77366619D01*
X110893523Y-77461857D01*
X110798285Y-77509476D01*
X110607809Y-77557095D01*
X110464952Y-77557095D01*
X110274476Y-77509476D01*
X110179238Y-77461857D01*
X110084000Y-77366619D01*
X110036380Y-77223761D01*
X110036380Y-77128523D01*
X110084000Y-76985666D01*
X110131619Y-76938047D01*
X111036380Y-75985666D02*
X111036380Y-76557095D01*
X111036380Y-76271380D02*
X110036380Y-76271380D01*
X110179238Y-76366619D01*
X110274476Y-76461857D01*
X110322095Y-76557095D01*
X110036380Y-75366619D02*
X110036380Y-75271380D01*
X110084000Y-75176142D01*
X110131619Y-75128523D01*
X110226857Y-75080904D01*
X110417333Y-75033285D01*
X110655428Y-75033285D01*
X110845904Y-75080904D01*
X110941142Y-75128523D01*
X110988761Y-75176142D01*
X111036380Y-75271380D01*
X111036380Y-75366619D01*
X110988761Y-75461857D01*
X110941142Y-75509476D01*
X110845904Y-75557095D01*
X110655428Y-75604714D01*
X110417333Y-75604714D01*
X110226857Y-75557095D01*
X110131619Y-75509476D01*
X110084000Y-75461857D01*
X110036380Y-75366619D01*
X111036380Y-74080904D02*
X111036380Y-74652333D01*
X111036380Y-74366619D02*
X110036380Y-74366619D01*
X110179238Y-74461857D01*
X110274476Y-74557095D01*
X110322095Y-74652333D01*
G04 #@! TO.C,C102*
X114503142Y-80113047D02*
X114550761Y-80160666D01*
X114598380Y-80303523D01*
X114598380Y-80398761D01*
X114550761Y-80541619D01*
X114455523Y-80636857D01*
X114360285Y-80684476D01*
X114169809Y-80732095D01*
X114026952Y-80732095D01*
X113836476Y-80684476D01*
X113741238Y-80636857D01*
X113646000Y-80541619D01*
X113598380Y-80398761D01*
X113598380Y-80303523D01*
X113646000Y-80160666D01*
X113693619Y-80113047D01*
X114598380Y-79160666D02*
X114598380Y-79732095D01*
X114598380Y-79446380D02*
X113598380Y-79446380D01*
X113741238Y-79541619D01*
X113836476Y-79636857D01*
X113884095Y-79732095D01*
X113598380Y-78541619D02*
X113598380Y-78446380D01*
X113646000Y-78351142D01*
X113693619Y-78303523D01*
X113788857Y-78255904D01*
X113979333Y-78208285D01*
X114217428Y-78208285D01*
X114407904Y-78255904D01*
X114503142Y-78303523D01*
X114550761Y-78351142D01*
X114598380Y-78446380D01*
X114598380Y-78541619D01*
X114550761Y-78636857D01*
X114503142Y-78684476D01*
X114407904Y-78732095D01*
X114217428Y-78779714D01*
X113979333Y-78779714D01*
X113788857Y-78732095D01*
X113693619Y-78684476D01*
X113646000Y-78636857D01*
X113598380Y-78541619D01*
X113693619Y-77827333D02*
X113646000Y-77779714D01*
X113598380Y-77684476D01*
X113598380Y-77446380D01*
X113646000Y-77351142D01*
X113693619Y-77303523D01*
X113788857Y-77255904D01*
X113884095Y-77255904D01*
X114026952Y-77303523D01*
X114598380Y-77874952D01*
X114598380Y-77255904D01*
G04 #@! TO.C,C103*
X114503142Y-77065047D02*
X114550761Y-77112666D01*
X114598380Y-77255523D01*
X114598380Y-77350761D01*
X114550761Y-77493619D01*
X114455523Y-77588857D01*
X114360285Y-77636476D01*
X114169809Y-77684095D01*
X114026952Y-77684095D01*
X113836476Y-77636476D01*
X113741238Y-77588857D01*
X113646000Y-77493619D01*
X113598380Y-77350761D01*
X113598380Y-77255523D01*
X113646000Y-77112666D01*
X113693619Y-77065047D01*
X114598380Y-76112666D02*
X114598380Y-76684095D01*
X114598380Y-76398380D02*
X113598380Y-76398380D01*
X113741238Y-76493619D01*
X113836476Y-76588857D01*
X113884095Y-76684095D01*
X113598380Y-75493619D02*
X113598380Y-75398380D01*
X113646000Y-75303142D01*
X113693619Y-75255523D01*
X113788857Y-75207904D01*
X113979333Y-75160285D01*
X114217428Y-75160285D01*
X114407904Y-75207904D01*
X114503142Y-75255523D01*
X114550761Y-75303142D01*
X114598380Y-75398380D01*
X114598380Y-75493619D01*
X114550761Y-75588857D01*
X114503142Y-75636476D01*
X114407904Y-75684095D01*
X114217428Y-75731714D01*
X113979333Y-75731714D01*
X113788857Y-75684095D01*
X113693619Y-75636476D01*
X113646000Y-75588857D01*
X113598380Y-75493619D01*
X113598380Y-74826952D02*
X113598380Y-74207904D01*
X113979333Y-74541238D01*
X113979333Y-74398380D01*
X114026952Y-74303142D01*
X114074571Y-74255523D01*
X114169809Y-74207904D01*
X114407904Y-74207904D01*
X114503142Y-74255523D01*
X114550761Y-74303142D01*
X114598380Y-74398380D01*
X114598380Y-74684095D01*
X114550761Y-74779333D01*
X114503142Y-74826952D01*
G04 #@! TO.C,C301*
X169732142Y-81919047D02*
X169779761Y-81966666D01*
X169827380Y-82109523D01*
X169827380Y-82204761D01*
X169779761Y-82347619D01*
X169684523Y-82442857D01*
X169589285Y-82490476D01*
X169398809Y-82538095D01*
X169255952Y-82538095D01*
X169065476Y-82490476D01*
X168970238Y-82442857D01*
X168875000Y-82347619D01*
X168827380Y-82204761D01*
X168827380Y-82109523D01*
X168875000Y-81966666D01*
X168922619Y-81919047D01*
X168827380Y-81585714D02*
X168827380Y-80966666D01*
X169208333Y-81300000D01*
X169208333Y-81157142D01*
X169255952Y-81061904D01*
X169303571Y-81014285D01*
X169398809Y-80966666D01*
X169636904Y-80966666D01*
X169732142Y-81014285D01*
X169779761Y-81061904D01*
X169827380Y-81157142D01*
X169827380Y-81442857D01*
X169779761Y-81538095D01*
X169732142Y-81585714D01*
X168827380Y-80347619D02*
X168827380Y-80252380D01*
X168875000Y-80157142D01*
X168922619Y-80109523D01*
X169017857Y-80061904D01*
X169208333Y-80014285D01*
X169446428Y-80014285D01*
X169636904Y-80061904D01*
X169732142Y-80109523D01*
X169779761Y-80157142D01*
X169827380Y-80252380D01*
X169827380Y-80347619D01*
X169779761Y-80442857D01*
X169732142Y-80490476D01*
X169636904Y-80538095D01*
X169446428Y-80585714D01*
X169208333Y-80585714D01*
X169017857Y-80538095D01*
X168922619Y-80490476D01*
X168875000Y-80442857D01*
X168827380Y-80347619D01*
X169827380Y-79061904D02*
X169827380Y-79633333D01*
X169827380Y-79347619D02*
X168827380Y-79347619D01*
X168970238Y-79442857D01*
X169065476Y-79538095D01*
X169113095Y-79633333D01*
G04 #@! TO.C,C303*
X168024142Y-75541047D02*
X168071761Y-75588666D01*
X168119380Y-75731523D01*
X168119380Y-75826761D01*
X168071761Y-75969619D01*
X167976523Y-76064857D01*
X167881285Y-76112476D01*
X167690809Y-76160095D01*
X167547952Y-76160095D01*
X167357476Y-76112476D01*
X167262238Y-76064857D01*
X167167000Y-75969619D01*
X167119380Y-75826761D01*
X167119380Y-75731523D01*
X167167000Y-75588666D01*
X167214619Y-75541047D01*
X167119380Y-75207714D02*
X167119380Y-74588666D01*
X167500333Y-74922000D01*
X167500333Y-74779142D01*
X167547952Y-74683904D01*
X167595571Y-74636285D01*
X167690809Y-74588666D01*
X167928904Y-74588666D01*
X168024142Y-74636285D01*
X168071761Y-74683904D01*
X168119380Y-74779142D01*
X168119380Y-75064857D01*
X168071761Y-75160095D01*
X168024142Y-75207714D01*
X167119380Y-73969619D02*
X167119380Y-73874380D01*
X167167000Y-73779142D01*
X167214619Y-73731523D01*
X167309857Y-73683904D01*
X167500333Y-73636285D01*
X167738428Y-73636285D01*
X167928904Y-73683904D01*
X168024142Y-73731523D01*
X168071761Y-73779142D01*
X168119380Y-73874380D01*
X168119380Y-73969619D01*
X168071761Y-74064857D01*
X168024142Y-74112476D01*
X167928904Y-74160095D01*
X167738428Y-74207714D01*
X167500333Y-74207714D01*
X167309857Y-74160095D01*
X167214619Y-74112476D01*
X167167000Y-74064857D01*
X167119380Y-73969619D01*
X167119380Y-73302952D02*
X167119380Y-72683904D01*
X167500333Y-73017238D01*
X167500333Y-72874380D01*
X167547952Y-72779142D01*
X167595571Y-72731523D01*
X167690809Y-72683904D01*
X167928904Y-72683904D01*
X168024142Y-72731523D01*
X168071761Y-72779142D01*
X168119380Y-72874380D01*
X168119380Y-73160095D01*
X168071761Y-73255333D01*
X168024142Y-73302952D01*
G04 #@! TO.C,C304*
X164214142Y-69087047D02*
X164261761Y-69134666D01*
X164309380Y-69277523D01*
X164309380Y-69372761D01*
X164261761Y-69515619D01*
X164166523Y-69610857D01*
X164071285Y-69658476D01*
X163880809Y-69706095D01*
X163737952Y-69706095D01*
X163547476Y-69658476D01*
X163452238Y-69610857D01*
X163357000Y-69515619D01*
X163309380Y-69372761D01*
X163309380Y-69277523D01*
X163357000Y-69134666D01*
X163404619Y-69087047D01*
X163309380Y-68753714D02*
X163309380Y-68134666D01*
X163690333Y-68468000D01*
X163690333Y-68325142D01*
X163737952Y-68229904D01*
X163785571Y-68182285D01*
X163880809Y-68134666D01*
X164118904Y-68134666D01*
X164214142Y-68182285D01*
X164261761Y-68229904D01*
X164309380Y-68325142D01*
X164309380Y-68610857D01*
X164261761Y-68706095D01*
X164214142Y-68753714D01*
X163309380Y-67515619D02*
X163309380Y-67420380D01*
X163357000Y-67325142D01*
X163404619Y-67277523D01*
X163499857Y-67229904D01*
X163690333Y-67182285D01*
X163928428Y-67182285D01*
X164118904Y-67229904D01*
X164214142Y-67277523D01*
X164261761Y-67325142D01*
X164309380Y-67420380D01*
X164309380Y-67515619D01*
X164261761Y-67610857D01*
X164214142Y-67658476D01*
X164118904Y-67706095D01*
X163928428Y-67753714D01*
X163690333Y-67753714D01*
X163499857Y-67706095D01*
X163404619Y-67658476D01*
X163357000Y-67610857D01*
X163309380Y-67515619D01*
X163642714Y-66325142D02*
X164309380Y-66325142D01*
X163261761Y-66563238D02*
X163976047Y-66801333D01*
X163976047Y-66182285D01*
G04 #@! TO.C,C305*
X167008142Y-75541047D02*
X167055761Y-75588666D01*
X167103380Y-75731523D01*
X167103380Y-75826761D01*
X167055761Y-75969619D01*
X166960523Y-76064857D01*
X166865285Y-76112476D01*
X166674809Y-76160095D01*
X166531952Y-76160095D01*
X166341476Y-76112476D01*
X166246238Y-76064857D01*
X166151000Y-75969619D01*
X166103380Y-75826761D01*
X166103380Y-75731523D01*
X166151000Y-75588666D01*
X166198619Y-75541047D01*
X166103380Y-75207714D02*
X166103380Y-74588666D01*
X166484333Y-74922000D01*
X166484333Y-74779142D01*
X166531952Y-74683904D01*
X166579571Y-74636285D01*
X166674809Y-74588666D01*
X166912904Y-74588666D01*
X167008142Y-74636285D01*
X167055761Y-74683904D01*
X167103380Y-74779142D01*
X167103380Y-75064857D01*
X167055761Y-75160095D01*
X167008142Y-75207714D01*
X166103380Y-73969619D02*
X166103380Y-73874380D01*
X166151000Y-73779142D01*
X166198619Y-73731523D01*
X166293857Y-73683904D01*
X166484333Y-73636285D01*
X166722428Y-73636285D01*
X166912904Y-73683904D01*
X167008142Y-73731523D01*
X167055761Y-73779142D01*
X167103380Y-73874380D01*
X167103380Y-73969619D01*
X167055761Y-74064857D01*
X167008142Y-74112476D01*
X166912904Y-74160095D01*
X166722428Y-74207714D01*
X166484333Y-74207714D01*
X166293857Y-74160095D01*
X166198619Y-74112476D01*
X166151000Y-74064857D01*
X166103380Y-73969619D01*
X166103380Y-72731523D02*
X166103380Y-73207714D01*
X166579571Y-73255333D01*
X166531952Y-73207714D01*
X166484333Y-73112476D01*
X166484333Y-72874380D01*
X166531952Y-72779142D01*
X166579571Y-72731523D01*
X166674809Y-72683904D01*
X166912904Y-72683904D01*
X167008142Y-72731523D01*
X167055761Y-72779142D01*
X167103380Y-72874380D01*
X167103380Y-73112476D01*
X167055761Y-73207714D01*
X167008142Y-73255333D01*
G04 #@! TO.C,C306*
X162964952Y-73101142D02*
X162917333Y-73148761D01*
X162774476Y-73196380D01*
X162679238Y-73196380D01*
X162536380Y-73148761D01*
X162441142Y-73053523D01*
X162393523Y-72958285D01*
X162345904Y-72767809D01*
X162345904Y-72624952D01*
X162393523Y-72434476D01*
X162441142Y-72339238D01*
X162536380Y-72244000D01*
X162679238Y-72196380D01*
X162774476Y-72196380D01*
X162917333Y-72244000D01*
X162964952Y-72291619D01*
X163298285Y-72196380D02*
X163917333Y-72196380D01*
X163584000Y-72577333D01*
X163726857Y-72577333D01*
X163822095Y-72624952D01*
X163869714Y-72672571D01*
X163917333Y-72767809D01*
X163917333Y-73005904D01*
X163869714Y-73101142D01*
X163822095Y-73148761D01*
X163726857Y-73196380D01*
X163441142Y-73196380D01*
X163345904Y-73148761D01*
X163298285Y-73101142D01*
X164536380Y-72196380D02*
X164631619Y-72196380D01*
X164726857Y-72244000D01*
X164774476Y-72291619D01*
X164822095Y-72386857D01*
X164869714Y-72577333D01*
X164869714Y-72815428D01*
X164822095Y-73005904D01*
X164774476Y-73101142D01*
X164726857Y-73148761D01*
X164631619Y-73196380D01*
X164536380Y-73196380D01*
X164441142Y-73148761D01*
X164393523Y-73101142D01*
X164345904Y-73005904D01*
X164298285Y-72815428D01*
X164298285Y-72577333D01*
X164345904Y-72386857D01*
X164393523Y-72291619D01*
X164441142Y-72244000D01*
X164536380Y-72196380D01*
X165726857Y-72196380D02*
X165536380Y-72196380D01*
X165441142Y-72244000D01*
X165393523Y-72291619D01*
X165298285Y-72434476D01*
X165250666Y-72624952D01*
X165250666Y-73005904D01*
X165298285Y-73101142D01*
X165345904Y-73148761D01*
X165441142Y-73196380D01*
X165631619Y-73196380D01*
X165726857Y-73148761D01*
X165774476Y-73101142D01*
X165822095Y-73005904D01*
X165822095Y-72767809D01*
X165774476Y-72672571D01*
X165726857Y-72624952D01*
X165631619Y-72577333D01*
X165441142Y-72577333D01*
X165345904Y-72624952D01*
X165298285Y-72672571D01*
X165250666Y-72767809D01*
G04 #@! TO.C,C401*
X119891142Y-72874047D02*
X119938761Y-72921666D01*
X119986380Y-73064523D01*
X119986380Y-73159761D01*
X119938761Y-73302619D01*
X119843523Y-73397857D01*
X119748285Y-73445476D01*
X119557809Y-73493095D01*
X119414952Y-73493095D01*
X119224476Y-73445476D01*
X119129238Y-73397857D01*
X119034000Y-73302619D01*
X118986380Y-73159761D01*
X118986380Y-73064523D01*
X119034000Y-72921666D01*
X119081619Y-72874047D01*
X119319714Y-72016904D02*
X119986380Y-72016904D01*
X118938761Y-72255000D02*
X119653047Y-72493095D01*
X119653047Y-71874047D01*
X118986380Y-71302619D02*
X118986380Y-71207380D01*
X119034000Y-71112142D01*
X119081619Y-71064523D01*
X119176857Y-71016904D01*
X119367333Y-70969285D01*
X119605428Y-70969285D01*
X119795904Y-71016904D01*
X119891142Y-71064523D01*
X119938761Y-71112142D01*
X119986380Y-71207380D01*
X119986380Y-71302619D01*
X119938761Y-71397857D01*
X119891142Y-71445476D01*
X119795904Y-71493095D01*
X119605428Y-71540714D01*
X119367333Y-71540714D01*
X119176857Y-71493095D01*
X119081619Y-71445476D01*
X119034000Y-71397857D01*
X118986380Y-71302619D01*
X119986380Y-70016904D02*
X119986380Y-70588333D01*
X119986380Y-70302619D02*
X118986380Y-70302619D01*
X119129238Y-70397857D01*
X119224476Y-70493095D01*
X119272095Y-70588333D01*
G04 #@! TO.C,C601*
X134242142Y-68706047D02*
X134289761Y-68753666D01*
X134337380Y-68896523D01*
X134337380Y-68991761D01*
X134289761Y-69134619D01*
X134194523Y-69229857D01*
X134099285Y-69277476D01*
X133908809Y-69325095D01*
X133765952Y-69325095D01*
X133575476Y-69277476D01*
X133480238Y-69229857D01*
X133385000Y-69134619D01*
X133337380Y-68991761D01*
X133337380Y-68896523D01*
X133385000Y-68753666D01*
X133432619Y-68706047D01*
X133337380Y-67848904D02*
X133337380Y-68039380D01*
X133385000Y-68134619D01*
X133432619Y-68182238D01*
X133575476Y-68277476D01*
X133765952Y-68325095D01*
X134146904Y-68325095D01*
X134242142Y-68277476D01*
X134289761Y-68229857D01*
X134337380Y-68134619D01*
X134337380Y-67944142D01*
X134289761Y-67848904D01*
X134242142Y-67801285D01*
X134146904Y-67753666D01*
X133908809Y-67753666D01*
X133813571Y-67801285D01*
X133765952Y-67848904D01*
X133718333Y-67944142D01*
X133718333Y-68134619D01*
X133765952Y-68229857D01*
X133813571Y-68277476D01*
X133908809Y-68325095D01*
X133337380Y-67134619D02*
X133337380Y-67039380D01*
X133385000Y-66944142D01*
X133432619Y-66896523D01*
X133527857Y-66848904D01*
X133718333Y-66801285D01*
X133956428Y-66801285D01*
X134146904Y-66848904D01*
X134242142Y-66896523D01*
X134289761Y-66944142D01*
X134337380Y-67039380D01*
X134337380Y-67134619D01*
X134289761Y-67229857D01*
X134242142Y-67277476D01*
X134146904Y-67325095D01*
X133956428Y-67372714D01*
X133718333Y-67372714D01*
X133527857Y-67325095D01*
X133432619Y-67277476D01*
X133385000Y-67229857D01*
X133337380Y-67134619D01*
X134337380Y-65848904D02*
X134337380Y-66420333D01*
X134337380Y-66134619D02*
X133337380Y-66134619D01*
X133480238Y-66229857D01*
X133575476Y-66325095D01*
X133623095Y-66420333D01*
G04 #@! TO.C,C602*
X140993952Y-73282142D02*
X140946333Y-73329761D01*
X140803476Y-73377380D01*
X140708238Y-73377380D01*
X140565380Y-73329761D01*
X140470142Y-73234523D01*
X140422523Y-73139285D01*
X140374904Y-72948809D01*
X140374904Y-72805952D01*
X140422523Y-72615476D01*
X140470142Y-72520238D01*
X140565380Y-72425000D01*
X140708238Y-72377380D01*
X140803476Y-72377380D01*
X140946333Y-72425000D01*
X140993952Y-72472619D01*
X141851095Y-72377380D02*
X141660619Y-72377380D01*
X141565380Y-72425000D01*
X141517761Y-72472619D01*
X141422523Y-72615476D01*
X141374904Y-72805952D01*
X141374904Y-73186904D01*
X141422523Y-73282142D01*
X141470142Y-73329761D01*
X141565380Y-73377380D01*
X141755857Y-73377380D01*
X141851095Y-73329761D01*
X141898714Y-73282142D01*
X141946333Y-73186904D01*
X141946333Y-72948809D01*
X141898714Y-72853571D01*
X141851095Y-72805952D01*
X141755857Y-72758333D01*
X141565380Y-72758333D01*
X141470142Y-72805952D01*
X141422523Y-72853571D01*
X141374904Y-72948809D01*
X142565380Y-72377380D02*
X142660619Y-72377380D01*
X142755857Y-72425000D01*
X142803476Y-72472619D01*
X142851095Y-72567857D01*
X142898714Y-72758333D01*
X142898714Y-72996428D01*
X142851095Y-73186904D01*
X142803476Y-73282142D01*
X142755857Y-73329761D01*
X142660619Y-73377380D01*
X142565380Y-73377380D01*
X142470142Y-73329761D01*
X142422523Y-73282142D01*
X142374904Y-73186904D01*
X142327285Y-72996428D01*
X142327285Y-72758333D01*
X142374904Y-72567857D01*
X142422523Y-72472619D01*
X142470142Y-72425000D01*
X142565380Y-72377380D01*
X143279666Y-72472619D02*
X143327285Y-72425000D01*
X143422523Y-72377380D01*
X143660619Y-72377380D01*
X143755857Y-72425000D01*
X143803476Y-72472619D01*
X143851095Y-72567857D01*
X143851095Y-72663095D01*
X143803476Y-72805952D01*
X143232047Y-73377380D01*
X143851095Y-73377380D01*
G04 #@! TO.C,C603*
X134389952Y-62052142D02*
X134342333Y-62099761D01*
X134199476Y-62147380D01*
X134104238Y-62147380D01*
X133961380Y-62099761D01*
X133866142Y-62004523D01*
X133818523Y-61909285D01*
X133770904Y-61718809D01*
X133770904Y-61575952D01*
X133818523Y-61385476D01*
X133866142Y-61290238D01*
X133961380Y-61195000D01*
X134104238Y-61147380D01*
X134199476Y-61147380D01*
X134342333Y-61195000D01*
X134389952Y-61242619D01*
X135247095Y-61147380D02*
X135056619Y-61147380D01*
X134961380Y-61195000D01*
X134913761Y-61242619D01*
X134818523Y-61385476D01*
X134770904Y-61575952D01*
X134770904Y-61956904D01*
X134818523Y-62052142D01*
X134866142Y-62099761D01*
X134961380Y-62147380D01*
X135151857Y-62147380D01*
X135247095Y-62099761D01*
X135294714Y-62052142D01*
X135342333Y-61956904D01*
X135342333Y-61718809D01*
X135294714Y-61623571D01*
X135247095Y-61575952D01*
X135151857Y-61528333D01*
X134961380Y-61528333D01*
X134866142Y-61575952D01*
X134818523Y-61623571D01*
X134770904Y-61718809D01*
X135961380Y-61147380D02*
X136056619Y-61147380D01*
X136151857Y-61195000D01*
X136199476Y-61242619D01*
X136247095Y-61337857D01*
X136294714Y-61528333D01*
X136294714Y-61766428D01*
X136247095Y-61956904D01*
X136199476Y-62052142D01*
X136151857Y-62099761D01*
X136056619Y-62147380D01*
X135961380Y-62147380D01*
X135866142Y-62099761D01*
X135818523Y-62052142D01*
X135770904Y-61956904D01*
X135723285Y-61766428D01*
X135723285Y-61528333D01*
X135770904Y-61337857D01*
X135818523Y-61242619D01*
X135866142Y-61195000D01*
X135961380Y-61147380D01*
X136628047Y-61147380D02*
X137247095Y-61147380D01*
X136913761Y-61528333D01*
X137056619Y-61528333D01*
X137151857Y-61575952D01*
X137199476Y-61623571D01*
X137247095Y-61718809D01*
X137247095Y-61956904D01*
X137199476Y-62052142D01*
X137151857Y-62099761D01*
X137056619Y-62147380D01*
X136770904Y-62147380D01*
X136675666Y-62099761D01*
X136628047Y-62052142D01*
G04 #@! TO.C,D601*
X143089523Y-71418380D02*
X143089523Y-70418380D01*
X143327619Y-70418380D01*
X143470476Y-70466000D01*
X143565714Y-70561238D01*
X143613333Y-70656476D01*
X143660952Y-70846952D01*
X143660952Y-70989809D01*
X143613333Y-71180285D01*
X143565714Y-71275523D01*
X143470476Y-71370761D01*
X143327619Y-71418380D01*
X143089523Y-71418380D01*
X144518095Y-70418380D02*
X144327619Y-70418380D01*
X144232380Y-70466000D01*
X144184761Y-70513619D01*
X144089523Y-70656476D01*
X144041904Y-70846952D01*
X144041904Y-71227904D01*
X144089523Y-71323142D01*
X144137142Y-71370761D01*
X144232380Y-71418380D01*
X144422857Y-71418380D01*
X144518095Y-71370761D01*
X144565714Y-71323142D01*
X144613333Y-71227904D01*
X144613333Y-70989809D01*
X144565714Y-70894571D01*
X144518095Y-70846952D01*
X144422857Y-70799333D01*
X144232380Y-70799333D01*
X144137142Y-70846952D01*
X144089523Y-70894571D01*
X144041904Y-70989809D01*
X145232380Y-70418380D02*
X145327619Y-70418380D01*
X145422857Y-70466000D01*
X145470476Y-70513619D01*
X145518095Y-70608857D01*
X145565714Y-70799333D01*
X145565714Y-71037428D01*
X145518095Y-71227904D01*
X145470476Y-71323142D01*
X145422857Y-71370761D01*
X145327619Y-71418380D01*
X145232380Y-71418380D01*
X145137142Y-71370761D01*
X145089523Y-71323142D01*
X145041904Y-71227904D01*
X144994285Y-71037428D01*
X144994285Y-70799333D01*
X145041904Y-70608857D01*
X145089523Y-70513619D01*
X145137142Y-70466000D01*
X145232380Y-70418380D01*
X146518095Y-71418380D02*
X145946666Y-71418380D01*
X146232380Y-71418380D02*
X146232380Y-70418380D01*
X146137142Y-70561238D01*
X146041904Y-70656476D01*
X145946666Y-70704095D01*
G04 #@! TO.C,D602*
X143089523Y-72742380D02*
X143089523Y-71742380D01*
X143327619Y-71742380D01*
X143470476Y-71790000D01*
X143565714Y-71885238D01*
X143613333Y-71980476D01*
X143660952Y-72170952D01*
X143660952Y-72313809D01*
X143613333Y-72504285D01*
X143565714Y-72599523D01*
X143470476Y-72694761D01*
X143327619Y-72742380D01*
X143089523Y-72742380D01*
X144518095Y-71742380D02*
X144327619Y-71742380D01*
X144232380Y-71790000D01*
X144184761Y-71837619D01*
X144089523Y-71980476D01*
X144041904Y-72170952D01*
X144041904Y-72551904D01*
X144089523Y-72647142D01*
X144137142Y-72694761D01*
X144232380Y-72742380D01*
X144422857Y-72742380D01*
X144518095Y-72694761D01*
X144565714Y-72647142D01*
X144613333Y-72551904D01*
X144613333Y-72313809D01*
X144565714Y-72218571D01*
X144518095Y-72170952D01*
X144422857Y-72123333D01*
X144232380Y-72123333D01*
X144137142Y-72170952D01*
X144089523Y-72218571D01*
X144041904Y-72313809D01*
X145232380Y-71742380D02*
X145327619Y-71742380D01*
X145422857Y-71790000D01*
X145470476Y-71837619D01*
X145518095Y-71932857D01*
X145565714Y-72123333D01*
X145565714Y-72361428D01*
X145518095Y-72551904D01*
X145470476Y-72647142D01*
X145422857Y-72694761D01*
X145327619Y-72742380D01*
X145232380Y-72742380D01*
X145137142Y-72694761D01*
X145089523Y-72647142D01*
X145041904Y-72551904D01*
X144994285Y-72361428D01*
X144994285Y-72123333D01*
X145041904Y-71932857D01*
X145089523Y-71837619D01*
X145137142Y-71790000D01*
X145232380Y-71742380D01*
X145946666Y-71837619D02*
X145994285Y-71790000D01*
X146089523Y-71742380D01*
X146327619Y-71742380D01*
X146422857Y-71790000D01*
X146470476Y-71837619D01*
X146518095Y-71932857D01*
X146518095Y-72028095D01*
X146470476Y-72170952D01*
X145899047Y-72742380D01*
X146518095Y-72742380D01*
G04 #@! TO.C,J101*
X106410285Y-66972380D02*
X106410285Y-67686666D01*
X106362666Y-67829523D01*
X106267428Y-67924761D01*
X106124571Y-67972380D01*
X106029333Y-67972380D01*
X107410285Y-67972380D02*
X106838857Y-67972380D01*
X107124571Y-67972380D02*
X107124571Y-66972380D01*
X107029333Y-67115238D01*
X106934095Y-67210476D01*
X106838857Y-67258095D01*
X108029333Y-66972380D02*
X108124571Y-66972380D01*
X108219809Y-67020000D01*
X108267428Y-67067619D01*
X108315047Y-67162857D01*
X108362666Y-67353333D01*
X108362666Y-67591428D01*
X108315047Y-67781904D01*
X108267428Y-67877142D01*
X108219809Y-67924761D01*
X108124571Y-67972380D01*
X108029333Y-67972380D01*
X107934095Y-67924761D01*
X107886476Y-67877142D01*
X107838857Y-67781904D01*
X107791238Y-67591428D01*
X107791238Y-67353333D01*
X107838857Y-67162857D01*
X107886476Y-67067619D01*
X107934095Y-67020000D01*
X108029333Y-66972380D01*
X109315047Y-67972380D02*
X108743619Y-67972380D01*
X109029333Y-67972380D02*
X109029333Y-66972380D01*
X108934095Y-67115238D01*
X108838857Y-67210476D01*
X108743619Y-67258095D01*
G04 #@! TO.C,J102*
X116824285Y-81712380D02*
X116824285Y-82426666D01*
X116776666Y-82569523D01*
X116681428Y-82664761D01*
X116538571Y-82712380D01*
X116443333Y-82712380D01*
X117824285Y-82712380D02*
X117252857Y-82712380D01*
X117538571Y-82712380D02*
X117538571Y-81712380D01*
X117443333Y-81855238D01*
X117348095Y-81950476D01*
X117252857Y-81998095D01*
X118443333Y-81712380D02*
X118538571Y-81712380D01*
X118633809Y-81760000D01*
X118681428Y-81807619D01*
X118729047Y-81902857D01*
X118776666Y-82093333D01*
X118776666Y-82331428D01*
X118729047Y-82521904D01*
X118681428Y-82617142D01*
X118633809Y-82664761D01*
X118538571Y-82712380D01*
X118443333Y-82712380D01*
X118348095Y-82664761D01*
X118300476Y-82617142D01*
X118252857Y-82521904D01*
X118205238Y-82331428D01*
X118205238Y-82093333D01*
X118252857Y-81902857D01*
X118300476Y-81807619D01*
X118348095Y-81760000D01*
X118443333Y-81712380D01*
X119157619Y-81807619D02*
X119205238Y-81760000D01*
X119300476Y-81712380D01*
X119538571Y-81712380D01*
X119633809Y-81760000D01*
X119681428Y-81807619D01*
X119729047Y-81902857D01*
X119729047Y-81998095D01*
X119681428Y-82140952D01*
X119110000Y-82712380D01*
X119729047Y-82712380D01*
G04 #@! TO.C,J103*
X116824285Y-77902380D02*
X116824285Y-78616666D01*
X116776666Y-78759523D01*
X116681428Y-78854761D01*
X116538571Y-78902380D01*
X116443333Y-78902380D01*
X117824285Y-78902380D02*
X117252857Y-78902380D01*
X117538571Y-78902380D02*
X117538571Y-77902380D01*
X117443333Y-78045238D01*
X117348095Y-78140476D01*
X117252857Y-78188095D01*
X118443333Y-77902380D02*
X118538571Y-77902380D01*
X118633809Y-77950000D01*
X118681428Y-77997619D01*
X118729047Y-78092857D01*
X118776666Y-78283333D01*
X118776666Y-78521428D01*
X118729047Y-78711904D01*
X118681428Y-78807142D01*
X118633809Y-78854761D01*
X118538571Y-78902380D01*
X118443333Y-78902380D01*
X118348095Y-78854761D01*
X118300476Y-78807142D01*
X118252857Y-78711904D01*
X118205238Y-78521428D01*
X118205238Y-78283333D01*
X118252857Y-78092857D01*
X118300476Y-77997619D01*
X118348095Y-77950000D01*
X118443333Y-77902380D01*
X119110000Y-77902380D02*
X119729047Y-77902380D01*
X119395714Y-78283333D01*
X119538571Y-78283333D01*
X119633809Y-78330952D01*
X119681428Y-78378571D01*
X119729047Y-78473809D01*
X119729047Y-78711904D01*
X119681428Y-78807142D01*
X119633809Y-78854761D01*
X119538571Y-78902380D01*
X119252857Y-78902380D01*
X119157619Y-78854761D01*
X119110000Y-78807142D01*
G04 #@! TO.C,J104*
X135620285Y-56312380D02*
X135620285Y-57026666D01*
X135572666Y-57169523D01*
X135477428Y-57264761D01*
X135334571Y-57312380D01*
X135239333Y-57312380D01*
X136620285Y-57312380D02*
X136048857Y-57312380D01*
X136334571Y-57312380D02*
X136334571Y-56312380D01*
X136239333Y-56455238D01*
X136144095Y-56550476D01*
X136048857Y-56598095D01*
X137239333Y-56312380D02*
X137334571Y-56312380D01*
X137429809Y-56360000D01*
X137477428Y-56407619D01*
X137525047Y-56502857D01*
X137572666Y-56693333D01*
X137572666Y-56931428D01*
X137525047Y-57121904D01*
X137477428Y-57217142D01*
X137429809Y-57264761D01*
X137334571Y-57312380D01*
X137239333Y-57312380D01*
X137144095Y-57264761D01*
X137096476Y-57217142D01*
X137048857Y-57121904D01*
X137001238Y-56931428D01*
X137001238Y-56693333D01*
X137048857Y-56502857D01*
X137096476Y-56407619D01*
X137144095Y-56360000D01*
X137239333Y-56312380D01*
X138429809Y-56645714D02*
X138429809Y-57312380D01*
X138191714Y-56264761D02*
X137953619Y-56979047D01*
X138572666Y-56979047D01*
G04 #@! TO.C,J105*
X141081285Y-82982380D02*
X141081285Y-83696666D01*
X141033666Y-83839523D01*
X140938428Y-83934761D01*
X140795571Y-83982380D01*
X140700333Y-83982380D01*
X142081285Y-83982380D02*
X141509857Y-83982380D01*
X141795571Y-83982380D02*
X141795571Y-82982380D01*
X141700333Y-83125238D01*
X141605095Y-83220476D01*
X141509857Y-83268095D01*
X142700333Y-82982380D02*
X142795571Y-82982380D01*
X142890809Y-83030000D01*
X142938428Y-83077619D01*
X142986047Y-83172857D01*
X143033666Y-83363333D01*
X143033666Y-83601428D01*
X142986047Y-83791904D01*
X142938428Y-83887142D01*
X142890809Y-83934761D01*
X142795571Y-83982380D01*
X142700333Y-83982380D01*
X142605095Y-83934761D01*
X142557476Y-83887142D01*
X142509857Y-83791904D01*
X142462238Y-83601428D01*
X142462238Y-83363333D01*
X142509857Y-83172857D01*
X142557476Y-83077619D01*
X142605095Y-83030000D01*
X142700333Y-82982380D01*
X143938428Y-82982380D02*
X143462238Y-82982380D01*
X143414619Y-83458571D01*
X143462238Y-83410952D01*
X143557476Y-83363333D01*
X143795571Y-83363333D01*
X143890809Y-83410952D01*
X143938428Y-83458571D01*
X143986047Y-83553809D01*
X143986047Y-83791904D01*
X143938428Y-83887142D01*
X143890809Y-83934761D01*
X143795571Y-83982380D01*
X143557476Y-83982380D01*
X143462238Y-83934761D01*
X143414619Y-83887142D01*
G04 #@! TO.C,J106*
X132064285Y-56312380D02*
X132064285Y-57026666D01*
X132016666Y-57169523D01*
X131921428Y-57264761D01*
X131778571Y-57312380D01*
X131683333Y-57312380D01*
X133064285Y-57312380D02*
X132492857Y-57312380D01*
X132778571Y-57312380D02*
X132778571Y-56312380D01*
X132683333Y-56455238D01*
X132588095Y-56550476D01*
X132492857Y-56598095D01*
X133683333Y-56312380D02*
X133778571Y-56312380D01*
X133873809Y-56360000D01*
X133921428Y-56407619D01*
X133969047Y-56502857D01*
X134016666Y-56693333D01*
X134016666Y-56931428D01*
X133969047Y-57121904D01*
X133921428Y-57217142D01*
X133873809Y-57264761D01*
X133778571Y-57312380D01*
X133683333Y-57312380D01*
X133588095Y-57264761D01*
X133540476Y-57217142D01*
X133492857Y-57121904D01*
X133445238Y-56931428D01*
X133445238Y-56693333D01*
X133492857Y-56502857D01*
X133540476Y-56407619D01*
X133588095Y-56360000D01*
X133683333Y-56312380D01*
X134873809Y-56312380D02*
X134683333Y-56312380D01*
X134588095Y-56360000D01*
X134540476Y-56407619D01*
X134445238Y-56550476D01*
X134397619Y-56740952D01*
X134397619Y-57121904D01*
X134445238Y-57217142D01*
X134492857Y-57264761D01*
X134588095Y-57312380D01*
X134778571Y-57312380D01*
X134873809Y-57264761D01*
X134921428Y-57217142D01*
X134969047Y-57121904D01*
X134969047Y-56883809D01*
X134921428Y-56788571D01*
X134873809Y-56740952D01*
X134778571Y-56693333D01*
X134588095Y-56693333D01*
X134492857Y-56740952D01*
X134445238Y-56788571D01*
X134397619Y-56883809D01*
G04 #@! TO.C,J107*
X129524285Y-56312380D02*
X129524285Y-57026666D01*
X129476666Y-57169523D01*
X129381428Y-57264761D01*
X129238571Y-57312380D01*
X129143333Y-57312380D01*
X130524285Y-57312380D02*
X129952857Y-57312380D01*
X130238571Y-57312380D02*
X130238571Y-56312380D01*
X130143333Y-56455238D01*
X130048095Y-56550476D01*
X129952857Y-56598095D01*
X131143333Y-56312380D02*
X131238571Y-56312380D01*
X131333809Y-56360000D01*
X131381428Y-56407619D01*
X131429047Y-56502857D01*
X131476666Y-56693333D01*
X131476666Y-56931428D01*
X131429047Y-57121904D01*
X131381428Y-57217142D01*
X131333809Y-57264761D01*
X131238571Y-57312380D01*
X131143333Y-57312380D01*
X131048095Y-57264761D01*
X131000476Y-57217142D01*
X130952857Y-57121904D01*
X130905238Y-56931428D01*
X130905238Y-56693333D01*
X130952857Y-56502857D01*
X131000476Y-56407619D01*
X131048095Y-56360000D01*
X131143333Y-56312380D01*
X131810000Y-56312380D02*
X132476666Y-56312380D01*
X132048095Y-57312380D01*
G04 #@! TO.C,J108*
X126984285Y-56312380D02*
X126984285Y-57026666D01*
X126936666Y-57169523D01*
X126841428Y-57264761D01*
X126698571Y-57312380D01*
X126603333Y-57312380D01*
X127984285Y-57312380D02*
X127412857Y-57312380D01*
X127698571Y-57312380D02*
X127698571Y-56312380D01*
X127603333Y-56455238D01*
X127508095Y-56550476D01*
X127412857Y-56598095D01*
X128603333Y-56312380D02*
X128698571Y-56312380D01*
X128793809Y-56360000D01*
X128841428Y-56407619D01*
X128889047Y-56502857D01*
X128936666Y-56693333D01*
X128936666Y-56931428D01*
X128889047Y-57121904D01*
X128841428Y-57217142D01*
X128793809Y-57264761D01*
X128698571Y-57312380D01*
X128603333Y-57312380D01*
X128508095Y-57264761D01*
X128460476Y-57217142D01*
X128412857Y-57121904D01*
X128365238Y-56931428D01*
X128365238Y-56693333D01*
X128412857Y-56502857D01*
X128460476Y-56407619D01*
X128508095Y-56360000D01*
X128603333Y-56312380D01*
X129508095Y-56740952D02*
X129412857Y-56693333D01*
X129365238Y-56645714D01*
X129317619Y-56550476D01*
X129317619Y-56502857D01*
X129365238Y-56407619D01*
X129412857Y-56360000D01*
X129508095Y-56312380D01*
X129698571Y-56312380D01*
X129793809Y-56360000D01*
X129841428Y-56407619D01*
X129889047Y-56502857D01*
X129889047Y-56550476D01*
X129841428Y-56645714D01*
X129793809Y-56693333D01*
X129698571Y-56740952D01*
X129508095Y-56740952D01*
X129412857Y-56788571D01*
X129365238Y-56836190D01*
X129317619Y-56931428D01*
X129317619Y-57121904D01*
X129365238Y-57217142D01*
X129412857Y-57264761D01*
X129508095Y-57312380D01*
X129698571Y-57312380D01*
X129793809Y-57264761D01*
X129841428Y-57217142D01*
X129889047Y-57121904D01*
X129889047Y-56931428D01*
X129841428Y-56836190D01*
X129793809Y-56788571D01*
X129698571Y-56740952D01*
G04 #@! TO.C,J109*
X194682380Y-73675714D02*
X195396666Y-73675714D01*
X195539523Y-73723333D01*
X195634761Y-73818571D01*
X195682380Y-73961428D01*
X195682380Y-74056666D01*
X195682380Y-72675714D02*
X195682380Y-73247142D01*
X195682380Y-72961428D02*
X194682380Y-72961428D01*
X194825238Y-73056666D01*
X194920476Y-73151904D01*
X194968095Y-73247142D01*
X194682380Y-72056666D02*
X194682380Y-71961428D01*
X194730000Y-71866190D01*
X194777619Y-71818571D01*
X194872857Y-71770952D01*
X195063333Y-71723333D01*
X195301428Y-71723333D01*
X195491904Y-71770952D01*
X195587142Y-71818571D01*
X195634761Y-71866190D01*
X195682380Y-71961428D01*
X195682380Y-72056666D01*
X195634761Y-72151904D01*
X195587142Y-72199523D01*
X195491904Y-72247142D01*
X195301428Y-72294761D01*
X195063333Y-72294761D01*
X194872857Y-72247142D01*
X194777619Y-72199523D01*
X194730000Y-72151904D01*
X194682380Y-72056666D01*
X195682380Y-71247142D02*
X195682380Y-71056666D01*
X195634761Y-70961428D01*
X195587142Y-70913809D01*
X195444285Y-70818571D01*
X195253809Y-70770952D01*
X194872857Y-70770952D01*
X194777619Y-70818571D01*
X194730000Y-70866190D01*
X194682380Y-70961428D01*
X194682380Y-71151904D01*
X194730000Y-71247142D01*
X194777619Y-71294761D01*
X194872857Y-71342380D01*
X195110952Y-71342380D01*
X195206190Y-71294761D01*
X195253809Y-71247142D01*
X195301428Y-71151904D01*
X195301428Y-70961428D01*
X195253809Y-70866190D01*
X195206190Y-70818571D01*
X195110952Y-70770952D01*
G04 #@! TO.C,J202*
X118983285Y-64440380D02*
X118983285Y-65154666D01*
X118935666Y-65297523D01*
X118840428Y-65392761D01*
X118697571Y-65440380D01*
X118602333Y-65440380D01*
X119411857Y-64535619D02*
X119459476Y-64488000D01*
X119554714Y-64440380D01*
X119792809Y-64440380D01*
X119888047Y-64488000D01*
X119935666Y-64535619D01*
X119983285Y-64630857D01*
X119983285Y-64726095D01*
X119935666Y-64868952D01*
X119364238Y-65440380D01*
X119983285Y-65440380D01*
X120602333Y-64440380D02*
X120697571Y-64440380D01*
X120792809Y-64488000D01*
X120840428Y-64535619D01*
X120888047Y-64630857D01*
X120935666Y-64821333D01*
X120935666Y-65059428D01*
X120888047Y-65249904D01*
X120840428Y-65345142D01*
X120792809Y-65392761D01*
X120697571Y-65440380D01*
X120602333Y-65440380D01*
X120507095Y-65392761D01*
X120459476Y-65345142D01*
X120411857Y-65249904D01*
X120364238Y-65059428D01*
X120364238Y-64821333D01*
X120411857Y-64630857D01*
X120459476Y-64535619D01*
X120507095Y-64488000D01*
X120602333Y-64440380D01*
X121316619Y-64535619D02*
X121364238Y-64488000D01*
X121459476Y-64440380D01*
X121697571Y-64440380D01*
X121792809Y-64488000D01*
X121840428Y-64535619D01*
X121888047Y-64630857D01*
X121888047Y-64726095D01*
X121840428Y-64868952D01*
X121269000Y-65440380D01*
X121888047Y-65440380D01*
G04 #@! TO.C,J203*
X118983285Y-67488380D02*
X118983285Y-68202666D01*
X118935666Y-68345523D01*
X118840428Y-68440761D01*
X118697571Y-68488380D01*
X118602333Y-68488380D01*
X119411857Y-67583619D02*
X119459476Y-67536000D01*
X119554714Y-67488380D01*
X119792809Y-67488380D01*
X119888047Y-67536000D01*
X119935666Y-67583619D01*
X119983285Y-67678857D01*
X119983285Y-67774095D01*
X119935666Y-67916952D01*
X119364238Y-68488380D01*
X119983285Y-68488380D01*
X120602333Y-67488380D02*
X120697571Y-67488380D01*
X120792809Y-67536000D01*
X120840428Y-67583619D01*
X120888047Y-67678857D01*
X120935666Y-67869333D01*
X120935666Y-68107428D01*
X120888047Y-68297904D01*
X120840428Y-68393142D01*
X120792809Y-68440761D01*
X120697571Y-68488380D01*
X120602333Y-68488380D01*
X120507095Y-68440761D01*
X120459476Y-68393142D01*
X120411857Y-68297904D01*
X120364238Y-68107428D01*
X120364238Y-67869333D01*
X120411857Y-67678857D01*
X120459476Y-67583619D01*
X120507095Y-67536000D01*
X120602333Y-67488380D01*
X121269000Y-67488380D02*
X121888047Y-67488380D01*
X121554714Y-67869333D01*
X121697571Y-67869333D01*
X121792809Y-67916952D01*
X121840428Y-67964571D01*
X121888047Y-68059809D01*
X121888047Y-68297904D01*
X121840428Y-68393142D01*
X121792809Y-68440761D01*
X121697571Y-68488380D01*
X121411857Y-68488380D01*
X121316619Y-68440761D01*
X121269000Y-68393142D01*
G04 #@! TO.C,J301*
X180959285Y-60622380D02*
X180959285Y-61336666D01*
X180911666Y-61479523D01*
X180816428Y-61574761D01*
X180673571Y-61622380D01*
X180578333Y-61622380D01*
X181340238Y-60622380D02*
X181959285Y-60622380D01*
X181625952Y-61003333D01*
X181768809Y-61003333D01*
X181864047Y-61050952D01*
X181911666Y-61098571D01*
X181959285Y-61193809D01*
X181959285Y-61431904D01*
X181911666Y-61527142D01*
X181864047Y-61574761D01*
X181768809Y-61622380D01*
X181483095Y-61622380D01*
X181387857Y-61574761D01*
X181340238Y-61527142D01*
X182578333Y-60622380D02*
X182673571Y-60622380D01*
X182768809Y-60670000D01*
X182816428Y-60717619D01*
X182864047Y-60812857D01*
X182911666Y-61003333D01*
X182911666Y-61241428D01*
X182864047Y-61431904D01*
X182816428Y-61527142D01*
X182768809Y-61574761D01*
X182673571Y-61622380D01*
X182578333Y-61622380D01*
X182483095Y-61574761D01*
X182435476Y-61527142D01*
X182387857Y-61431904D01*
X182340238Y-61241428D01*
X182340238Y-61003333D01*
X182387857Y-60812857D01*
X182435476Y-60717619D01*
X182483095Y-60670000D01*
X182578333Y-60622380D01*
X183864047Y-61622380D02*
X183292619Y-61622380D01*
X183578333Y-61622380D02*
X183578333Y-60622380D01*
X183483095Y-60765238D01*
X183387857Y-60860476D01*
X183292619Y-60908095D01*
G04 #@! TO.C,J302*
X180959285Y-66972380D02*
X180959285Y-67686666D01*
X180911666Y-67829523D01*
X180816428Y-67924761D01*
X180673571Y-67972380D01*
X180578333Y-67972380D01*
X181340238Y-66972380D02*
X181959285Y-66972380D01*
X181625952Y-67353333D01*
X181768809Y-67353333D01*
X181864047Y-67400952D01*
X181911666Y-67448571D01*
X181959285Y-67543809D01*
X181959285Y-67781904D01*
X181911666Y-67877142D01*
X181864047Y-67924761D01*
X181768809Y-67972380D01*
X181483095Y-67972380D01*
X181387857Y-67924761D01*
X181340238Y-67877142D01*
X182578333Y-66972380D02*
X182673571Y-66972380D01*
X182768809Y-67020000D01*
X182816428Y-67067619D01*
X182864047Y-67162857D01*
X182911666Y-67353333D01*
X182911666Y-67591428D01*
X182864047Y-67781904D01*
X182816428Y-67877142D01*
X182768809Y-67924761D01*
X182673571Y-67972380D01*
X182578333Y-67972380D01*
X182483095Y-67924761D01*
X182435476Y-67877142D01*
X182387857Y-67781904D01*
X182340238Y-67591428D01*
X182340238Y-67353333D01*
X182387857Y-67162857D01*
X182435476Y-67067619D01*
X182483095Y-67020000D01*
X182578333Y-66972380D01*
X183292619Y-67067619D02*
X183340238Y-67020000D01*
X183435476Y-66972380D01*
X183673571Y-66972380D01*
X183768809Y-67020000D01*
X183816428Y-67067619D01*
X183864047Y-67162857D01*
X183864047Y-67258095D01*
X183816428Y-67400952D01*
X183245000Y-67972380D01*
X183864047Y-67972380D01*
G04 #@! TO.C,J303*
X180959285Y-73322380D02*
X180959285Y-74036666D01*
X180911666Y-74179523D01*
X180816428Y-74274761D01*
X180673571Y-74322380D01*
X180578333Y-74322380D01*
X181340238Y-73322380D02*
X181959285Y-73322380D01*
X181625952Y-73703333D01*
X181768809Y-73703333D01*
X181864047Y-73750952D01*
X181911666Y-73798571D01*
X181959285Y-73893809D01*
X181959285Y-74131904D01*
X181911666Y-74227142D01*
X181864047Y-74274761D01*
X181768809Y-74322380D01*
X181483095Y-74322380D01*
X181387857Y-74274761D01*
X181340238Y-74227142D01*
X182578333Y-73322380D02*
X182673571Y-73322380D01*
X182768809Y-73370000D01*
X182816428Y-73417619D01*
X182864047Y-73512857D01*
X182911666Y-73703333D01*
X182911666Y-73941428D01*
X182864047Y-74131904D01*
X182816428Y-74227142D01*
X182768809Y-74274761D01*
X182673571Y-74322380D01*
X182578333Y-74322380D01*
X182483095Y-74274761D01*
X182435476Y-74227142D01*
X182387857Y-74131904D01*
X182340238Y-73941428D01*
X182340238Y-73703333D01*
X182387857Y-73512857D01*
X182435476Y-73417619D01*
X182483095Y-73370000D01*
X182578333Y-73322380D01*
X183245000Y-73322380D02*
X183864047Y-73322380D01*
X183530714Y-73703333D01*
X183673571Y-73703333D01*
X183768809Y-73750952D01*
X183816428Y-73798571D01*
X183864047Y-73893809D01*
X183864047Y-74131904D01*
X183816428Y-74227142D01*
X183768809Y-74274761D01*
X183673571Y-74322380D01*
X183387857Y-74322380D01*
X183292619Y-74274761D01*
X183245000Y-74227142D01*
G04 #@! TO.C,J501*
X151241285Y-80188380D02*
X151241285Y-80902666D01*
X151193666Y-81045523D01*
X151098428Y-81140761D01*
X150955571Y-81188380D01*
X150860333Y-81188380D01*
X152193666Y-80188380D02*
X151717476Y-80188380D01*
X151669857Y-80664571D01*
X151717476Y-80616952D01*
X151812714Y-80569333D01*
X152050809Y-80569333D01*
X152146047Y-80616952D01*
X152193666Y-80664571D01*
X152241285Y-80759809D01*
X152241285Y-80997904D01*
X152193666Y-81093142D01*
X152146047Y-81140761D01*
X152050809Y-81188380D01*
X151812714Y-81188380D01*
X151717476Y-81140761D01*
X151669857Y-81093142D01*
X152860333Y-80188380D02*
X152955571Y-80188380D01*
X153050809Y-80236000D01*
X153098428Y-80283619D01*
X153146047Y-80378857D01*
X153193666Y-80569333D01*
X153193666Y-80807428D01*
X153146047Y-80997904D01*
X153098428Y-81093142D01*
X153050809Y-81140761D01*
X152955571Y-81188380D01*
X152860333Y-81188380D01*
X152765095Y-81140761D01*
X152717476Y-81093142D01*
X152669857Y-80997904D01*
X152622238Y-80807428D01*
X152622238Y-80569333D01*
X152669857Y-80378857D01*
X152717476Y-80283619D01*
X152765095Y-80236000D01*
X152860333Y-80188380D01*
X154146047Y-81188380D02*
X153574619Y-81188380D01*
X153860333Y-81188380D02*
X153860333Y-80188380D01*
X153765095Y-80331238D01*
X153669857Y-80426476D01*
X153574619Y-80474095D01*
G04 #@! TO.C,J502*
X151241285Y-83109380D02*
X151241285Y-83823666D01*
X151193666Y-83966523D01*
X151098428Y-84061761D01*
X150955571Y-84109380D01*
X150860333Y-84109380D01*
X152193666Y-83109380D02*
X151717476Y-83109380D01*
X151669857Y-83585571D01*
X151717476Y-83537952D01*
X151812714Y-83490333D01*
X152050809Y-83490333D01*
X152146047Y-83537952D01*
X152193666Y-83585571D01*
X152241285Y-83680809D01*
X152241285Y-83918904D01*
X152193666Y-84014142D01*
X152146047Y-84061761D01*
X152050809Y-84109380D01*
X151812714Y-84109380D01*
X151717476Y-84061761D01*
X151669857Y-84014142D01*
X152860333Y-83109380D02*
X152955571Y-83109380D01*
X153050809Y-83157000D01*
X153098428Y-83204619D01*
X153146047Y-83299857D01*
X153193666Y-83490333D01*
X153193666Y-83728428D01*
X153146047Y-83918904D01*
X153098428Y-84014142D01*
X153050809Y-84061761D01*
X152955571Y-84109380D01*
X152860333Y-84109380D01*
X152765095Y-84061761D01*
X152717476Y-84014142D01*
X152669857Y-83918904D01*
X152622238Y-83728428D01*
X152622238Y-83490333D01*
X152669857Y-83299857D01*
X152717476Y-83204619D01*
X152765095Y-83157000D01*
X152860333Y-83109380D01*
X153574619Y-83204619D02*
X153622238Y-83157000D01*
X153717476Y-83109380D01*
X153955571Y-83109380D01*
X154050809Y-83157000D01*
X154098428Y-83204619D01*
X154146047Y-83299857D01*
X154146047Y-83395095D01*
X154098428Y-83537952D01*
X153527000Y-84109380D01*
X154146047Y-84109380D01*
G04 #@! TO.C,J503*
X154162285Y-80188380D02*
X154162285Y-80902666D01*
X154114666Y-81045523D01*
X154019428Y-81140761D01*
X153876571Y-81188380D01*
X153781333Y-81188380D01*
X155114666Y-80188380D02*
X154638476Y-80188380D01*
X154590857Y-80664571D01*
X154638476Y-80616952D01*
X154733714Y-80569333D01*
X154971809Y-80569333D01*
X155067047Y-80616952D01*
X155114666Y-80664571D01*
X155162285Y-80759809D01*
X155162285Y-80997904D01*
X155114666Y-81093142D01*
X155067047Y-81140761D01*
X154971809Y-81188380D01*
X154733714Y-81188380D01*
X154638476Y-81140761D01*
X154590857Y-81093142D01*
X155781333Y-80188380D02*
X155876571Y-80188380D01*
X155971809Y-80236000D01*
X156019428Y-80283619D01*
X156067047Y-80378857D01*
X156114666Y-80569333D01*
X156114666Y-80807428D01*
X156067047Y-80997904D01*
X156019428Y-81093142D01*
X155971809Y-81140761D01*
X155876571Y-81188380D01*
X155781333Y-81188380D01*
X155686095Y-81140761D01*
X155638476Y-81093142D01*
X155590857Y-80997904D01*
X155543238Y-80807428D01*
X155543238Y-80569333D01*
X155590857Y-80378857D01*
X155638476Y-80283619D01*
X155686095Y-80236000D01*
X155781333Y-80188380D01*
X156448000Y-80188380D02*
X157067047Y-80188380D01*
X156733714Y-80569333D01*
X156876571Y-80569333D01*
X156971809Y-80616952D01*
X157019428Y-80664571D01*
X157067047Y-80759809D01*
X157067047Y-80997904D01*
X157019428Y-81093142D01*
X156971809Y-81140761D01*
X156876571Y-81188380D01*
X156590857Y-81188380D01*
X156495619Y-81140761D01*
X156448000Y-81093142D01*
G04 #@! TO.C,J504*
X154162285Y-83109380D02*
X154162285Y-83823666D01*
X154114666Y-83966523D01*
X154019428Y-84061761D01*
X153876571Y-84109380D01*
X153781333Y-84109380D01*
X155114666Y-83109380D02*
X154638476Y-83109380D01*
X154590857Y-83585571D01*
X154638476Y-83537952D01*
X154733714Y-83490333D01*
X154971809Y-83490333D01*
X155067047Y-83537952D01*
X155114666Y-83585571D01*
X155162285Y-83680809D01*
X155162285Y-83918904D01*
X155114666Y-84014142D01*
X155067047Y-84061761D01*
X154971809Y-84109380D01*
X154733714Y-84109380D01*
X154638476Y-84061761D01*
X154590857Y-84014142D01*
X155781333Y-83109380D02*
X155876571Y-83109380D01*
X155971809Y-83157000D01*
X156019428Y-83204619D01*
X156067047Y-83299857D01*
X156114666Y-83490333D01*
X156114666Y-83728428D01*
X156067047Y-83918904D01*
X156019428Y-84014142D01*
X155971809Y-84061761D01*
X155876571Y-84109380D01*
X155781333Y-84109380D01*
X155686095Y-84061761D01*
X155638476Y-84014142D01*
X155590857Y-83918904D01*
X155543238Y-83728428D01*
X155543238Y-83490333D01*
X155590857Y-83299857D01*
X155638476Y-83204619D01*
X155686095Y-83157000D01*
X155781333Y-83109380D01*
X156971809Y-83442714D02*
X156971809Y-84109380D01*
X156733714Y-83061761D02*
X156495619Y-83776047D01*
X157114666Y-83776047D01*
G04 #@! TO.C,J601*
X140632380Y-63896714D02*
X141346666Y-63896714D01*
X141489523Y-63944333D01*
X141584761Y-64039571D01*
X141632380Y-64182428D01*
X141632380Y-64277666D01*
X140632380Y-62991952D02*
X140632380Y-63182428D01*
X140680000Y-63277666D01*
X140727619Y-63325285D01*
X140870476Y-63420523D01*
X141060952Y-63468142D01*
X141441904Y-63468142D01*
X141537142Y-63420523D01*
X141584761Y-63372904D01*
X141632380Y-63277666D01*
X141632380Y-63087190D01*
X141584761Y-62991952D01*
X141537142Y-62944333D01*
X141441904Y-62896714D01*
X141203809Y-62896714D01*
X141108571Y-62944333D01*
X141060952Y-62991952D01*
X141013333Y-63087190D01*
X141013333Y-63277666D01*
X141060952Y-63372904D01*
X141108571Y-63420523D01*
X141203809Y-63468142D01*
X140632380Y-62277666D02*
X140632380Y-62182428D01*
X140680000Y-62087190D01*
X140727619Y-62039571D01*
X140822857Y-61991952D01*
X141013333Y-61944333D01*
X141251428Y-61944333D01*
X141441904Y-61991952D01*
X141537142Y-62039571D01*
X141584761Y-62087190D01*
X141632380Y-62182428D01*
X141632380Y-62277666D01*
X141584761Y-62372904D01*
X141537142Y-62420523D01*
X141441904Y-62468142D01*
X141251428Y-62515761D01*
X141013333Y-62515761D01*
X140822857Y-62468142D01*
X140727619Y-62420523D01*
X140680000Y-62372904D01*
X140632380Y-62277666D01*
X141632380Y-60991952D02*
X141632380Y-61563380D01*
X141632380Y-61277666D02*
X140632380Y-61277666D01*
X140775238Y-61372904D01*
X140870476Y-61468142D01*
X140918095Y-61563380D01*
G04 #@! TO.C,J605*
X128254285Y-74092380D02*
X128254285Y-74806666D01*
X128206666Y-74949523D01*
X128111428Y-75044761D01*
X127968571Y-75092380D01*
X127873333Y-75092380D01*
X129159047Y-74092380D02*
X128968571Y-74092380D01*
X128873333Y-74140000D01*
X128825714Y-74187619D01*
X128730476Y-74330476D01*
X128682857Y-74520952D01*
X128682857Y-74901904D01*
X128730476Y-74997142D01*
X128778095Y-75044761D01*
X128873333Y-75092380D01*
X129063809Y-75092380D01*
X129159047Y-75044761D01*
X129206666Y-74997142D01*
X129254285Y-74901904D01*
X129254285Y-74663809D01*
X129206666Y-74568571D01*
X129159047Y-74520952D01*
X129063809Y-74473333D01*
X128873333Y-74473333D01*
X128778095Y-74520952D01*
X128730476Y-74568571D01*
X128682857Y-74663809D01*
X129873333Y-74092380D02*
X129968571Y-74092380D01*
X130063809Y-74140000D01*
X130111428Y-74187619D01*
X130159047Y-74282857D01*
X130206666Y-74473333D01*
X130206666Y-74711428D01*
X130159047Y-74901904D01*
X130111428Y-74997142D01*
X130063809Y-75044761D01*
X129968571Y-75092380D01*
X129873333Y-75092380D01*
X129778095Y-75044761D01*
X129730476Y-74997142D01*
X129682857Y-74901904D01*
X129635238Y-74711428D01*
X129635238Y-74473333D01*
X129682857Y-74282857D01*
X129730476Y-74187619D01*
X129778095Y-74140000D01*
X129873333Y-74092380D01*
X131111428Y-74092380D02*
X130635238Y-74092380D01*
X130587619Y-74568571D01*
X130635238Y-74520952D01*
X130730476Y-74473333D01*
X130968571Y-74473333D01*
X131063809Y-74520952D01*
X131111428Y-74568571D01*
X131159047Y-74663809D01*
X131159047Y-74901904D01*
X131111428Y-74997142D01*
X131063809Y-75044761D01*
X130968571Y-75092380D01*
X130730476Y-75092380D01*
X130635238Y-75044761D01*
X130587619Y-74997142D01*
G04 #@! TO.C,J606*
X132064285Y-74981380D02*
X132064285Y-75695666D01*
X132016666Y-75838523D01*
X131921428Y-75933761D01*
X131778571Y-75981380D01*
X131683333Y-75981380D01*
X132969047Y-74981380D02*
X132778571Y-74981380D01*
X132683333Y-75029000D01*
X132635714Y-75076619D01*
X132540476Y-75219476D01*
X132492857Y-75409952D01*
X132492857Y-75790904D01*
X132540476Y-75886142D01*
X132588095Y-75933761D01*
X132683333Y-75981380D01*
X132873809Y-75981380D01*
X132969047Y-75933761D01*
X133016666Y-75886142D01*
X133064285Y-75790904D01*
X133064285Y-75552809D01*
X133016666Y-75457571D01*
X132969047Y-75409952D01*
X132873809Y-75362333D01*
X132683333Y-75362333D01*
X132588095Y-75409952D01*
X132540476Y-75457571D01*
X132492857Y-75552809D01*
X133683333Y-74981380D02*
X133778571Y-74981380D01*
X133873809Y-75029000D01*
X133921428Y-75076619D01*
X133969047Y-75171857D01*
X134016666Y-75362333D01*
X134016666Y-75600428D01*
X133969047Y-75790904D01*
X133921428Y-75886142D01*
X133873809Y-75933761D01*
X133778571Y-75981380D01*
X133683333Y-75981380D01*
X133588095Y-75933761D01*
X133540476Y-75886142D01*
X133492857Y-75790904D01*
X133445238Y-75600428D01*
X133445238Y-75362333D01*
X133492857Y-75171857D01*
X133540476Y-75076619D01*
X133588095Y-75029000D01*
X133683333Y-74981380D01*
X134873809Y-74981380D02*
X134683333Y-74981380D01*
X134588095Y-75029000D01*
X134540476Y-75076619D01*
X134445238Y-75219476D01*
X134397619Y-75409952D01*
X134397619Y-75790904D01*
X134445238Y-75886142D01*
X134492857Y-75933761D01*
X134588095Y-75981380D01*
X134778571Y-75981380D01*
X134873809Y-75933761D01*
X134921428Y-75886142D01*
X134969047Y-75790904D01*
X134969047Y-75552809D01*
X134921428Y-75457571D01*
X134873809Y-75409952D01*
X134778571Y-75362333D01*
X134588095Y-75362333D01*
X134492857Y-75409952D01*
X134445238Y-75457571D01*
X134397619Y-75552809D01*
G04 #@! TO.C,J607*
X126984285Y-70282380D02*
X126984285Y-70996666D01*
X126936666Y-71139523D01*
X126841428Y-71234761D01*
X126698571Y-71282380D01*
X126603333Y-71282380D01*
X127889047Y-70282380D02*
X127698571Y-70282380D01*
X127603333Y-70330000D01*
X127555714Y-70377619D01*
X127460476Y-70520476D01*
X127412857Y-70710952D01*
X127412857Y-71091904D01*
X127460476Y-71187142D01*
X127508095Y-71234761D01*
X127603333Y-71282380D01*
X127793809Y-71282380D01*
X127889047Y-71234761D01*
X127936666Y-71187142D01*
X127984285Y-71091904D01*
X127984285Y-70853809D01*
X127936666Y-70758571D01*
X127889047Y-70710952D01*
X127793809Y-70663333D01*
X127603333Y-70663333D01*
X127508095Y-70710952D01*
X127460476Y-70758571D01*
X127412857Y-70853809D01*
X128603333Y-70282380D02*
X128698571Y-70282380D01*
X128793809Y-70330000D01*
X128841428Y-70377619D01*
X128889047Y-70472857D01*
X128936666Y-70663333D01*
X128936666Y-70901428D01*
X128889047Y-71091904D01*
X128841428Y-71187142D01*
X128793809Y-71234761D01*
X128698571Y-71282380D01*
X128603333Y-71282380D01*
X128508095Y-71234761D01*
X128460476Y-71187142D01*
X128412857Y-71091904D01*
X128365238Y-70901428D01*
X128365238Y-70663333D01*
X128412857Y-70472857D01*
X128460476Y-70377619D01*
X128508095Y-70330000D01*
X128603333Y-70282380D01*
X129270000Y-70282380D02*
X129936666Y-70282380D01*
X129508095Y-71282380D01*
G04 #@! TO.C,J608*
X128254285Y-67742380D02*
X128254285Y-68456666D01*
X128206666Y-68599523D01*
X128111428Y-68694761D01*
X127968571Y-68742380D01*
X127873333Y-68742380D01*
X129159047Y-67742380D02*
X128968571Y-67742380D01*
X128873333Y-67790000D01*
X128825714Y-67837619D01*
X128730476Y-67980476D01*
X128682857Y-68170952D01*
X128682857Y-68551904D01*
X128730476Y-68647142D01*
X128778095Y-68694761D01*
X128873333Y-68742380D01*
X129063809Y-68742380D01*
X129159047Y-68694761D01*
X129206666Y-68647142D01*
X129254285Y-68551904D01*
X129254285Y-68313809D01*
X129206666Y-68218571D01*
X129159047Y-68170952D01*
X129063809Y-68123333D01*
X128873333Y-68123333D01*
X128778095Y-68170952D01*
X128730476Y-68218571D01*
X128682857Y-68313809D01*
X129873333Y-67742380D02*
X129968571Y-67742380D01*
X130063809Y-67790000D01*
X130111428Y-67837619D01*
X130159047Y-67932857D01*
X130206666Y-68123333D01*
X130206666Y-68361428D01*
X130159047Y-68551904D01*
X130111428Y-68647142D01*
X130063809Y-68694761D01*
X129968571Y-68742380D01*
X129873333Y-68742380D01*
X129778095Y-68694761D01*
X129730476Y-68647142D01*
X129682857Y-68551904D01*
X129635238Y-68361428D01*
X129635238Y-68123333D01*
X129682857Y-67932857D01*
X129730476Y-67837619D01*
X129778095Y-67790000D01*
X129873333Y-67742380D01*
X130778095Y-68170952D02*
X130682857Y-68123333D01*
X130635238Y-68075714D01*
X130587619Y-67980476D01*
X130587619Y-67932857D01*
X130635238Y-67837619D01*
X130682857Y-67790000D01*
X130778095Y-67742380D01*
X130968571Y-67742380D01*
X131063809Y-67790000D01*
X131111428Y-67837619D01*
X131159047Y-67932857D01*
X131159047Y-67980476D01*
X131111428Y-68075714D01*
X131063809Y-68123333D01*
X130968571Y-68170952D01*
X130778095Y-68170952D01*
X130682857Y-68218571D01*
X130635238Y-68266190D01*
X130587619Y-68361428D01*
X130587619Y-68551904D01*
X130635238Y-68647142D01*
X130682857Y-68694761D01*
X130778095Y-68742380D01*
X130968571Y-68742380D01*
X131063809Y-68694761D01*
X131111428Y-68647142D01*
X131159047Y-68551904D01*
X131159047Y-68361428D01*
X131111428Y-68266190D01*
X131063809Y-68218571D01*
X130968571Y-68170952D01*
G04 #@! TO.C,J609*
X125714285Y-67742380D02*
X125714285Y-68456666D01*
X125666666Y-68599523D01*
X125571428Y-68694761D01*
X125428571Y-68742380D01*
X125333333Y-68742380D01*
X126619047Y-67742380D02*
X126428571Y-67742380D01*
X126333333Y-67790000D01*
X126285714Y-67837619D01*
X126190476Y-67980476D01*
X126142857Y-68170952D01*
X126142857Y-68551904D01*
X126190476Y-68647142D01*
X126238095Y-68694761D01*
X126333333Y-68742380D01*
X126523809Y-68742380D01*
X126619047Y-68694761D01*
X126666666Y-68647142D01*
X126714285Y-68551904D01*
X126714285Y-68313809D01*
X126666666Y-68218571D01*
X126619047Y-68170952D01*
X126523809Y-68123333D01*
X126333333Y-68123333D01*
X126238095Y-68170952D01*
X126190476Y-68218571D01*
X126142857Y-68313809D01*
X127333333Y-67742380D02*
X127428571Y-67742380D01*
X127523809Y-67790000D01*
X127571428Y-67837619D01*
X127619047Y-67932857D01*
X127666666Y-68123333D01*
X127666666Y-68361428D01*
X127619047Y-68551904D01*
X127571428Y-68647142D01*
X127523809Y-68694761D01*
X127428571Y-68742380D01*
X127333333Y-68742380D01*
X127238095Y-68694761D01*
X127190476Y-68647142D01*
X127142857Y-68551904D01*
X127095238Y-68361428D01*
X127095238Y-68123333D01*
X127142857Y-67932857D01*
X127190476Y-67837619D01*
X127238095Y-67790000D01*
X127333333Y-67742380D01*
X128142857Y-68742380D02*
X128333333Y-68742380D01*
X128428571Y-68694761D01*
X128476190Y-68647142D01*
X128571428Y-68504285D01*
X128619047Y-68313809D01*
X128619047Y-67932857D01*
X128571428Y-67837619D01*
X128523809Y-67790000D01*
X128428571Y-67742380D01*
X128238095Y-67742380D01*
X128142857Y-67790000D01*
X128095238Y-67837619D01*
X128047619Y-67932857D01*
X128047619Y-68170952D01*
X128095238Y-68266190D01*
X128142857Y-68313809D01*
X128238095Y-68361428D01*
X128428571Y-68361428D01*
X128523809Y-68313809D01*
X128571428Y-68266190D01*
X128619047Y-68170952D01*
G04 #@! TO.C,JP301*
X177269285Y-61152380D02*
X177269285Y-61866666D01*
X177221666Y-62009523D01*
X177126428Y-62104761D01*
X176983571Y-62152380D01*
X176888333Y-62152380D01*
X177745476Y-62152380D02*
X177745476Y-61152380D01*
X178126428Y-61152380D01*
X178221666Y-61200000D01*
X178269285Y-61247619D01*
X178316904Y-61342857D01*
X178316904Y-61485714D01*
X178269285Y-61580952D01*
X178221666Y-61628571D01*
X178126428Y-61676190D01*
X177745476Y-61676190D01*
X178650238Y-61152380D02*
X179269285Y-61152380D01*
X178935952Y-61533333D01*
X179078809Y-61533333D01*
X179174047Y-61580952D01*
X179221666Y-61628571D01*
X179269285Y-61723809D01*
X179269285Y-61961904D01*
X179221666Y-62057142D01*
X179174047Y-62104761D01*
X179078809Y-62152380D01*
X178793095Y-62152380D01*
X178697857Y-62104761D01*
X178650238Y-62057142D01*
X179888333Y-61152380D02*
X179983571Y-61152380D01*
X180078809Y-61200000D01*
X180126428Y-61247619D01*
X180174047Y-61342857D01*
X180221666Y-61533333D01*
X180221666Y-61771428D01*
X180174047Y-61961904D01*
X180126428Y-62057142D01*
X180078809Y-62104761D01*
X179983571Y-62152380D01*
X179888333Y-62152380D01*
X179793095Y-62104761D01*
X179745476Y-62057142D01*
X179697857Y-61961904D01*
X179650238Y-61771428D01*
X179650238Y-61533333D01*
X179697857Y-61342857D01*
X179745476Y-61247619D01*
X179793095Y-61200000D01*
X179888333Y-61152380D01*
X181174047Y-62152380D02*
X180602619Y-62152380D01*
X180888333Y-62152380D02*
X180888333Y-61152380D01*
X180793095Y-61295238D01*
X180697857Y-61390476D01*
X180602619Y-61438095D01*
G04 #@! TO.C,JP302*
X177269285Y-67502380D02*
X177269285Y-68216666D01*
X177221666Y-68359523D01*
X177126428Y-68454761D01*
X176983571Y-68502380D01*
X176888333Y-68502380D01*
X177745476Y-68502380D02*
X177745476Y-67502380D01*
X178126428Y-67502380D01*
X178221666Y-67550000D01*
X178269285Y-67597619D01*
X178316904Y-67692857D01*
X178316904Y-67835714D01*
X178269285Y-67930952D01*
X178221666Y-67978571D01*
X178126428Y-68026190D01*
X177745476Y-68026190D01*
X178650238Y-67502380D02*
X179269285Y-67502380D01*
X178935952Y-67883333D01*
X179078809Y-67883333D01*
X179174047Y-67930952D01*
X179221666Y-67978571D01*
X179269285Y-68073809D01*
X179269285Y-68311904D01*
X179221666Y-68407142D01*
X179174047Y-68454761D01*
X179078809Y-68502380D01*
X178793095Y-68502380D01*
X178697857Y-68454761D01*
X178650238Y-68407142D01*
X179888333Y-67502380D02*
X179983571Y-67502380D01*
X180078809Y-67550000D01*
X180126428Y-67597619D01*
X180174047Y-67692857D01*
X180221666Y-67883333D01*
X180221666Y-68121428D01*
X180174047Y-68311904D01*
X180126428Y-68407142D01*
X180078809Y-68454761D01*
X179983571Y-68502380D01*
X179888333Y-68502380D01*
X179793095Y-68454761D01*
X179745476Y-68407142D01*
X179697857Y-68311904D01*
X179650238Y-68121428D01*
X179650238Y-67883333D01*
X179697857Y-67692857D01*
X179745476Y-67597619D01*
X179793095Y-67550000D01*
X179888333Y-67502380D01*
X180602619Y-67597619D02*
X180650238Y-67550000D01*
X180745476Y-67502380D01*
X180983571Y-67502380D01*
X181078809Y-67550000D01*
X181126428Y-67597619D01*
X181174047Y-67692857D01*
X181174047Y-67788095D01*
X181126428Y-67930952D01*
X180555000Y-68502380D01*
X181174047Y-68502380D01*
G04 #@! TO.C,JP303*
X177269285Y-73852380D02*
X177269285Y-74566666D01*
X177221666Y-74709523D01*
X177126428Y-74804761D01*
X176983571Y-74852380D01*
X176888333Y-74852380D01*
X177745476Y-74852380D02*
X177745476Y-73852380D01*
X178126428Y-73852380D01*
X178221666Y-73900000D01*
X178269285Y-73947619D01*
X178316904Y-74042857D01*
X178316904Y-74185714D01*
X178269285Y-74280952D01*
X178221666Y-74328571D01*
X178126428Y-74376190D01*
X177745476Y-74376190D01*
X178650238Y-73852380D02*
X179269285Y-73852380D01*
X178935952Y-74233333D01*
X179078809Y-74233333D01*
X179174047Y-74280952D01*
X179221666Y-74328571D01*
X179269285Y-74423809D01*
X179269285Y-74661904D01*
X179221666Y-74757142D01*
X179174047Y-74804761D01*
X179078809Y-74852380D01*
X178793095Y-74852380D01*
X178697857Y-74804761D01*
X178650238Y-74757142D01*
X179888333Y-73852380D02*
X179983571Y-73852380D01*
X180078809Y-73900000D01*
X180126428Y-73947619D01*
X180174047Y-74042857D01*
X180221666Y-74233333D01*
X180221666Y-74471428D01*
X180174047Y-74661904D01*
X180126428Y-74757142D01*
X180078809Y-74804761D01*
X179983571Y-74852380D01*
X179888333Y-74852380D01*
X179793095Y-74804761D01*
X179745476Y-74757142D01*
X179697857Y-74661904D01*
X179650238Y-74471428D01*
X179650238Y-74233333D01*
X179697857Y-74042857D01*
X179745476Y-73947619D01*
X179793095Y-73900000D01*
X179888333Y-73852380D01*
X180555000Y-73852380D02*
X181174047Y-73852380D01*
X180840714Y-74233333D01*
X180983571Y-74233333D01*
X181078809Y-74280952D01*
X181126428Y-74328571D01*
X181174047Y-74423809D01*
X181174047Y-74661904D01*
X181126428Y-74757142D01*
X181078809Y-74804761D01*
X180983571Y-74852380D01*
X180697857Y-74852380D01*
X180602619Y-74804761D01*
X180555000Y-74757142D01*
G04 #@! TO.C,Q301*
X187547380Y-66714619D02*
X187452142Y-66667000D01*
X187356904Y-66571761D01*
X187214047Y-66428904D01*
X187118809Y-66381285D01*
X187023571Y-66381285D01*
X187071190Y-66619380D02*
X186975952Y-66571761D01*
X186880714Y-66476523D01*
X186833095Y-66286047D01*
X186833095Y-65952714D01*
X186880714Y-65762238D01*
X186975952Y-65667000D01*
X187071190Y-65619380D01*
X187261666Y-65619380D01*
X187356904Y-65667000D01*
X187452142Y-65762238D01*
X187499761Y-65952714D01*
X187499761Y-66286047D01*
X187452142Y-66476523D01*
X187356904Y-66571761D01*
X187261666Y-66619380D01*
X187071190Y-66619380D01*
X187833095Y-65619380D02*
X188452142Y-65619380D01*
X188118809Y-66000333D01*
X188261666Y-66000333D01*
X188356904Y-66047952D01*
X188404523Y-66095571D01*
X188452142Y-66190809D01*
X188452142Y-66428904D01*
X188404523Y-66524142D01*
X188356904Y-66571761D01*
X188261666Y-66619380D01*
X187975952Y-66619380D01*
X187880714Y-66571761D01*
X187833095Y-66524142D01*
X189071190Y-65619380D02*
X189166428Y-65619380D01*
X189261666Y-65667000D01*
X189309285Y-65714619D01*
X189356904Y-65809857D01*
X189404523Y-66000333D01*
X189404523Y-66238428D01*
X189356904Y-66428904D01*
X189309285Y-66524142D01*
X189261666Y-66571761D01*
X189166428Y-66619380D01*
X189071190Y-66619380D01*
X188975952Y-66571761D01*
X188928333Y-66524142D01*
X188880714Y-66428904D01*
X188833095Y-66238428D01*
X188833095Y-66000333D01*
X188880714Y-65809857D01*
X188928333Y-65714619D01*
X188975952Y-65667000D01*
X189071190Y-65619380D01*
X190356904Y-66619380D02*
X189785476Y-66619380D01*
X190071190Y-66619380D02*
X190071190Y-65619380D01*
X189975952Y-65762238D01*
X189880714Y-65857476D01*
X189785476Y-65905095D01*
G04 #@! TO.C,Q302*
X187547380Y-73064619D02*
X187452142Y-73017000D01*
X187356904Y-72921761D01*
X187214047Y-72778904D01*
X187118809Y-72731285D01*
X187023571Y-72731285D01*
X187071190Y-72969380D02*
X186975952Y-72921761D01*
X186880714Y-72826523D01*
X186833095Y-72636047D01*
X186833095Y-72302714D01*
X186880714Y-72112238D01*
X186975952Y-72017000D01*
X187071190Y-71969380D01*
X187261666Y-71969380D01*
X187356904Y-72017000D01*
X187452142Y-72112238D01*
X187499761Y-72302714D01*
X187499761Y-72636047D01*
X187452142Y-72826523D01*
X187356904Y-72921761D01*
X187261666Y-72969380D01*
X187071190Y-72969380D01*
X187833095Y-71969380D02*
X188452142Y-71969380D01*
X188118809Y-72350333D01*
X188261666Y-72350333D01*
X188356904Y-72397952D01*
X188404523Y-72445571D01*
X188452142Y-72540809D01*
X188452142Y-72778904D01*
X188404523Y-72874142D01*
X188356904Y-72921761D01*
X188261666Y-72969380D01*
X187975952Y-72969380D01*
X187880714Y-72921761D01*
X187833095Y-72874142D01*
X189071190Y-71969380D02*
X189166428Y-71969380D01*
X189261666Y-72017000D01*
X189309285Y-72064619D01*
X189356904Y-72159857D01*
X189404523Y-72350333D01*
X189404523Y-72588428D01*
X189356904Y-72778904D01*
X189309285Y-72874142D01*
X189261666Y-72921761D01*
X189166428Y-72969380D01*
X189071190Y-72969380D01*
X188975952Y-72921761D01*
X188928333Y-72874142D01*
X188880714Y-72778904D01*
X188833095Y-72588428D01*
X188833095Y-72350333D01*
X188880714Y-72159857D01*
X188928333Y-72064619D01*
X188975952Y-72017000D01*
X189071190Y-71969380D01*
X189785476Y-72064619D02*
X189833095Y-72017000D01*
X189928333Y-71969380D01*
X190166428Y-71969380D01*
X190261666Y-72017000D01*
X190309285Y-72064619D01*
X190356904Y-72159857D01*
X190356904Y-72255095D01*
X190309285Y-72397952D01*
X189737857Y-72969380D01*
X190356904Y-72969380D01*
G04 #@! TO.C,Q303*
X187547380Y-79414619D02*
X187452142Y-79367000D01*
X187356904Y-79271761D01*
X187214047Y-79128904D01*
X187118809Y-79081285D01*
X187023571Y-79081285D01*
X187071190Y-79319380D02*
X186975952Y-79271761D01*
X186880714Y-79176523D01*
X186833095Y-78986047D01*
X186833095Y-78652714D01*
X186880714Y-78462238D01*
X186975952Y-78367000D01*
X187071190Y-78319380D01*
X187261666Y-78319380D01*
X187356904Y-78367000D01*
X187452142Y-78462238D01*
X187499761Y-78652714D01*
X187499761Y-78986047D01*
X187452142Y-79176523D01*
X187356904Y-79271761D01*
X187261666Y-79319380D01*
X187071190Y-79319380D01*
X187833095Y-78319380D02*
X188452142Y-78319380D01*
X188118809Y-78700333D01*
X188261666Y-78700333D01*
X188356904Y-78747952D01*
X188404523Y-78795571D01*
X188452142Y-78890809D01*
X188452142Y-79128904D01*
X188404523Y-79224142D01*
X188356904Y-79271761D01*
X188261666Y-79319380D01*
X187975952Y-79319380D01*
X187880714Y-79271761D01*
X187833095Y-79224142D01*
X189071190Y-78319380D02*
X189166428Y-78319380D01*
X189261666Y-78367000D01*
X189309285Y-78414619D01*
X189356904Y-78509857D01*
X189404523Y-78700333D01*
X189404523Y-78938428D01*
X189356904Y-79128904D01*
X189309285Y-79224142D01*
X189261666Y-79271761D01*
X189166428Y-79319380D01*
X189071190Y-79319380D01*
X188975952Y-79271761D01*
X188928333Y-79224142D01*
X188880714Y-79128904D01*
X188833095Y-78938428D01*
X188833095Y-78700333D01*
X188880714Y-78509857D01*
X188928333Y-78414619D01*
X188975952Y-78367000D01*
X189071190Y-78319380D01*
X189737857Y-78319380D02*
X190356904Y-78319380D01*
X190023571Y-78700333D01*
X190166428Y-78700333D01*
X190261666Y-78747952D01*
X190309285Y-78795571D01*
X190356904Y-78890809D01*
X190356904Y-79128904D01*
X190309285Y-79224142D01*
X190261666Y-79271761D01*
X190166428Y-79319380D01*
X189880714Y-79319380D01*
X189785476Y-79271761D01*
X189737857Y-79224142D01*
G04 #@! TO.C,R101*
X143660952Y-80562380D02*
X143327619Y-80086190D01*
X143089523Y-80562380D02*
X143089523Y-79562380D01*
X143470476Y-79562380D01*
X143565714Y-79610000D01*
X143613333Y-79657619D01*
X143660952Y-79752857D01*
X143660952Y-79895714D01*
X143613333Y-79990952D01*
X143565714Y-80038571D01*
X143470476Y-80086190D01*
X143089523Y-80086190D01*
X144613333Y-80562380D02*
X144041904Y-80562380D01*
X144327619Y-80562380D02*
X144327619Y-79562380D01*
X144232380Y-79705238D01*
X144137142Y-79800476D01*
X144041904Y-79848095D01*
X145232380Y-79562380D02*
X145327619Y-79562380D01*
X145422857Y-79610000D01*
X145470476Y-79657619D01*
X145518095Y-79752857D01*
X145565714Y-79943333D01*
X145565714Y-80181428D01*
X145518095Y-80371904D01*
X145470476Y-80467142D01*
X145422857Y-80514761D01*
X145327619Y-80562380D01*
X145232380Y-80562380D01*
X145137142Y-80514761D01*
X145089523Y-80467142D01*
X145041904Y-80371904D01*
X144994285Y-80181428D01*
X144994285Y-79943333D01*
X145041904Y-79752857D01*
X145089523Y-79657619D01*
X145137142Y-79610000D01*
X145232380Y-79562380D01*
X146518095Y-80562380D02*
X145946666Y-80562380D01*
X146232380Y-80562380D02*
X146232380Y-79562380D01*
X146137142Y-79705238D01*
X146041904Y-79800476D01*
X145946666Y-79848095D01*
G04 #@! TO.C,R102*
X141449380Y-77319047D02*
X140973190Y-77652380D01*
X141449380Y-77890476D02*
X140449380Y-77890476D01*
X140449380Y-77509523D01*
X140497000Y-77414285D01*
X140544619Y-77366666D01*
X140639857Y-77319047D01*
X140782714Y-77319047D01*
X140877952Y-77366666D01*
X140925571Y-77414285D01*
X140973190Y-77509523D01*
X140973190Y-77890476D01*
X141449380Y-76366666D02*
X141449380Y-76938095D01*
X141449380Y-76652380D02*
X140449380Y-76652380D01*
X140592238Y-76747619D01*
X140687476Y-76842857D01*
X140735095Y-76938095D01*
X140449380Y-75747619D02*
X140449380Y-75652380D01*
X140497000Y-75557142D01*
X140544619Y-75509523D01*
X140639857Y-75461904D01*
X140830333Y-75414285D01*
X141068428Y-75414285D01*
X141258904Y-75461904D01*
X141354142Y-75509523D01*
X141401761Y-75557142D01*
X141449380Y-75652380D01*
X141449380Y-75747619D01*
X141401761Y-75842857D01*
X141354142Y-75890476D01*
X141258904Y-75938095D01*
X141068428Y-75985714D01*
X140830333Y-75985714D01*
X140639857Y-75938095D01*
X140544619Y-75890476D01*
X140497000Y-75842857D01*
X140449380Y-75747619D01*
X140544619Y-75033333D02*
X140497000Y-74985714D01*
X140449380Y-74890476D01*
X140449380Y-74652380D01*
X140497000Y-74557142D01*
X140544619Y-74509523D01*
X140639857Y-74461904D01*
X140735095Y-74461904D01*
X140877952Y-74509523D01*
X141449380Y-75080952D01*
X141449380Y-74461904D01*
G04 #@! TO.C,R103*
X140433380Y-77319047D02*
X139957190Y-77652380D01*
X140433380Y-77890476D02*
X139433380Y-77890476D01*
X139433380Y-77509523D01*
X139481000Y-77414285D01*
X139528619Y-77366666D01*
X139623857Y-77319047D01*
X139766714Y-77319047D01*
X139861952Y-77366666D01*
X139909571Y-77414285D01*
X139957190Y-77509523D01*
X139957190Y-77890476D01*
X140433380Y-76366666D02*
X140433380Y-76938095D01*
X140433380Y-76652380D02*
X139433380Y-76652380D01*
X139576238Y-76747619D01*
X139671476Y-76842857D01*
X139719095Y-76938095D01*
X139433380Y-75747619D02*
X139433380Y-75652380D01*
X139481000Y-75557142D01*
X139528619Y-75509523D01*
X139623857Y-75461904D01*
X139814333Y-75414285D01*
X140052428Y-75414285D01*
X140242904Y-75461904D01*
X140338142Y-75509523D01*
X140385761Y-75557142D01*
X140433380Y-75652380D01*
X140433380Y-75747619D01*
X140385761Y-75842857D01*
X140338142Y-75890476D01*
X140242904Y-75938095D01*
X140052428Y-75985714D01*
X139814333Y-75985714D01*
X139623857Y-75938095D01*
X139528619Y-75890476D01*
X139481000Y-75842857D01*
X139433380Y-75747619D01*
X139433380Y-75080952D02*
X139433380Y-74461904D01*
X139814333Y-74795238D01*
X139814333Y-74652380D01*
X139861952Y-74557142D01*
X139909571Y-74509523D01*
X140004809Y-74461904D01*
X140242904Y-74461904D01*
X140338142Y-74509523D01*
X140385761Y-74557142D01*
X140433380Y-74652380D01*
X140433380Y-74938095D01*
X140385761Y-75033333D01*
X140338142Y-75080952D01*
G04 #@! TO.C,R104*
X139417380Y-77319047D02*
X138941190Y-77652380D01*
X139417380Y-77890476D02*
X138417380Y-77890476D01*
X138417380Y-77509523D01*
X138465000Y-77414285D01*
X138512619Y-77366666D01*
X138607857Y-77319047D01*
X138750714Y-77319047D01*
X138845952Y-77366666D01*
X138893571Y-77414285D01*
X138941190Y-77509523D01*
X138941190Y-77890476D01*
X139417380Y-76366666D02*
X139417380Y-76938095D01*
X139417380Y-76652380D02*
X138417380Y-76652380D01*
X138560238Y-76747619D01*
X138655476Y-76842857D01*
X138703095Y-76938095D01*
X138417380Y-75747619D02*
X138417380Y-75652380D01*
X138465000Y-75557142D01*
X138512619Y-75509523D01*
X138607857Y-75461904D01*
X138798333Y-75414285D01*
X139036428Y-75414285D01*
X139226904Y-75461904D01*
X139322142Y-75509523D01*
X139369761Y-75557142D01*
X139417380Y-75652380D01*
X139417380Y-75747619D01*
X139369761Y-75842857D01*
X139322142Y-75890476D01*
X139226904Y-75938095D01*
X139036428Y-75985714D01*
X138798333Y-75985714D01*
X138607857Y-75938095D01*
X138512619Y-75890476D01*
X138465000Y-75842857D01*
X138417380Y-75747619D01*
X138750714Y-74557142D02*
X139417380Y-74557142D01*
X138369761Y-74795238D02*
X139084047Y-75033333D01*
X139084047Y-74414285D01*
G04 #@! TO.C,R105*
X143660952Y-78838380D02*
X143327619Y-78362190D01*
X143089523Y-78838380D02*
X143089523Y-77838380D01*
X143470476Y-77838380D01*
X143565714Y-77886000D01*
X143613333Y-77933619D01*
X143660952Y-78028857D01*
X143660952Y-78171714D01*
X143613333Y-78266952D01*
X143565714Y-78314571D01*
X143470476Y-78362190D01*
X143089523Y-78362190D01*
X144613333Y-78838380D02*
X144041904Y-78838380D01*
X144327619Y-78838380D02*
X144327619Y-77838380D01*
X144232380Y-77981238D01*
X144137142Y-78076476D01*
X144041904Y-78124095D01*
X145232380Y-77838380D02*
X145327619Y-77838380D01*
X145422857Y-77886000D01*
X145470476Y-77933619D01*
X145518095Y-78028857D01*
X145565714Y-78219333D01*
X145565714Y-78457428D01*
X145518095Y-78647904D01*
X145470476Y-78743142D01*
X145422857Y-78790761D01*
X145327619Y-78838380D01*
X145232380Y-78838380D01*
X145137142Y-78790761D01*
X145089523Y-78743142D01*
X145041904Y-78647904D01*
X144994285Y-78457428D01*
X144994285Y-78219333D01*
X145041904Y-78028857D01*
X145089523Y-77933619D01*
X145137142Y-77886000D01*
X145232380Y-77838380D01*
X146470476Y-77838380D02*
X145994285Y-77838380D01*
X145946666Y-78314571D01*
X145994285Y-78266952D01*
X146089523Y-78219333D01*
X146327619Y-78219333D01*
X146422857Y-78266952D01*
X146470476Y-78314571D01*
X146518095Y-78409809D01*
X146518095Y-78647904D01*
X146470476Y-78743142D01*
X146422857Y-78790761D01*
X146327619Y-78838380D01*
X146089523Y-78838380D01*
X145994285Y-78790761D01*
X145946666Y-78743142D01*
G04 #@! TO.C,R106*
X143660952Y-77822380D02*
X143327619Y-77346190D01*
X143089523Y-77822380D02*
X143089523Y-76822380D01*
X143470476Y-76822380D01*
X143565714Y-76870000D01*
X143613333Y-76917619D01*
X143660952Y-77012857D01*
X143660952Y-77155714D01*
X143613333Y-77250952D01*
X143565714Y-77298571D01*
X143470476Y-77346190D01*
X143089523Y-77346190D01*
X144613333Y-77822380D02*
X144041904Y-77822380D01*
X144327619Y-77822380D02*
X144327619Y-76822380D01*
X144232380Y-76965238D01*
X144137142Y-77060476D01*
X144041904Y-77108095D01*
X145232380Y-76822380D02*
X145327619Y-76822380D01*
X145422857Y-76870000D01*
X145470476Y-76917619D01*
X145518095Y-77012857D01*
X145565714Y-77203333D01*
X145565714Y-77441428D01*
X145518095Y-77631904D01*
X145470476Y-77727142D01*
X145422857Y-77774761D01*
X145327619Y-77822380D01*
X145232380Y-77822380D01*
X145137142Y-77774761D01*
X145089523Y-77727142D01*
X145041904Y-77631904D01*
X144994285Y-77441428D01*
X144994285Y-77203333D01*
X145041904Y-77012857D01*
X145089523Y-76917619D01*
X145137142Y-76870000D01*
X145232380Y-76822380D01*
X146422857Y-76822380D02*
X146232380Y-76822380D01*
X146137142Y-76870000D01*
X146089523Y-76917619D01*
X145994285Y-77060476D01*
X145946666Y-77250952D01*
X145946666Y-77631904D01*
X145994285Y-77727142D01*
X146041904Y-77774761D01*
X146137142Y-77822380D01*
X146327619Y-77822380D01*
X146422857Y-77774761D01*
X146470476Y-77727142D01*
X146518095Y-77631904D01*
X146518095Y-77393809D01*
X146470476Y-77298571D01*
X146422857Y-77250952D01*
X146327619Y-77203333D01*
X146137142Y-77203333D01*
X146041904Y-77250952D01*
X145994285Y-77298571D01*
X145946666Y-77393809D01*
G04 #@! TO.C,R107*
X143660952Y-76806380D02*
X143327619Y-76330190D01*
X143089523Y-76806380D02*
X143089523Y-75806380D01*
X143470476Y-75806380D01*
X143565714Y-75854000D01*
X143613333Y-75901619D01*
X143660952Y-75996857D01*
X143660952Y-76139714D01*
X143613333Y-76234952D01*
X143565714Y-76282571D01*
X143470476Y-76330190D01*
X143089523Y-76330190D01*
X144613333Y-76806380D02*
X144041904Y-76806380D01*
X144327619Y-76806380D02*
X144327619Y-75806380D01*
X144232380Y-75949238D01*
X144137142Y-76044476D01*
X144041904Y-76092095D01*
X145232380Y-75806380D02*
X145327619Y-75806380D01*
X145422857Y-75854000D01*
X145470476Y-75901619D01*
X145518095Y-75996857D01*
X145565714Y-76187333D01*
X145565714Y-76425428D01*
X145518095Y-76615904D01*
X145470476Y-76711142D01*
X145422857Y-76758761D01*
X145327619Y-76806380D01*
X145232380Y-76806380D01*
X145137142Y-76758761D01*
X145089523Y-76711142D01*
X145041904Y-76615904D01*
X144994285Y-76425428D01*
X144994285Y-76187333D01*
X145041904Y-75996857D01*
X145089523Y-75901619D01*
X145137142Y-75854000D01*
X145232380Y-75806380D01*
X145899047Y-75806380D02*
X146565714Y-75806380D01*
X146137142Y-76806380D01*
G04 #@! TO.C,R301*
X165781952Y-62147380D02*
X165448619Y-61671190D01*
X165210523Y-62147380D02*
X165210523Y-61147380D01*
X165591476Y-61147380D01*
X165686714Y-61195000D01*
X165734333Y-61242619D01*
X165781952Y-61337857D01*
X165781952Y-61480714D01*
X165734333Y-61575952D01*
X165686714Y-61623571D01*
X165591476Y-61671190D01*
X165210523Y-61671190D01*
X166115285Y-61147380D02*
X166734333Y-61147380D01*
X166401000Y-61528333D01*
X166543857Y-61528333D01*
X166639095Y-61575952D01*
X166686714Y-61623571D01*
X166734333Y-61718809D01*
X166734333Y-61956904D01*
X166686714Y-62052142D01*
X166639095Y-62099761D01*
X166543857Y-62147380D01*
X166258142Y-62147380D01*
X166162904Y-62099761D01*
X166115285Y-62052142D01*
X167353380Y-61147380D02*
X167448619Y-61147380D01*
X167543857Y-61195000D01*
X167591476Y-61242619D01*
X167639095Y-61337857D01*
X167686714Y-61528333D01*
X167686714Y-61766428D01*
X167639095Y-61956904D01*
X167591476Y-62052142D01*
X167543857Y-62099761D01*
X167448619Y-62147380D01*
X167353380Y-62147380D01*
X167258142Y-62099761D01*
X167210523Y-62052142D01*
X167162904Y-61956904D01*
X167115285Y-61766428D01*
X167115285Y-61528333D01*
X167162904Y-61337857D01*
X167210523Y-61242619D01*
X167258142Y-61195000D01*
X167353380Y-61147380D01*
X168639095Y-62147380D02*
X168067666Y-62147380D01*
X168353380Y-62147380D02*
X168353380Y-61147380D01*
X168258142Y-61290238D01*
X168162904Y-61385476D01*
X168067666Y-61433095D01*
G04 #@! TO.C,R302*
X186887380Y-65889047D02*
X186411190Y-66222380D01*
X186887380Y-66460476D02*
X185887380Y-66460476D01*
X185887380Y-66079523D01*
X185935000Y-65984285D01*
X185982619Y-65936666D01*
X186077857Y-65889047D01*
X186220714Y-65889047D01*
X186315952Y-65936666D01*
X186363571Y-65984285D01*
X186411190Y-66079523D01*
X186411190Y-66460476D01*
X185887380Y-65555714D02*
X185887380Y-64936666D01*
X186268333Y-65270000D01*
X186268333Y-65127142D01*
X186315952Y-65031904D01*
X186363571Y-64984285D01*
X186458809Y-64936666D01*
X186696904Y-64936666D01*
X186792142Y-64984285D01*
X186839761Y-65031904D01*
X186887380Y-65127142D01*
X186887380Y-65412857D01*
X186839761Y-65508095D01*
X186792142Y-65555714D01*
X185887380Y-64317619D02*
X185887380Y-64222380D01*
X185935000Y-64127142D01*
X185982619Y-64079523D01*
X186077857Y-64031904D01*
X186268333Y-63984285D01*
X186506428Y-63984285D01*
X186696904Y-64031904D01*
X186792142Y-64079523D01*
X186839761Y-64127142D01*
X186887380Y-64222380D01*
X186887380Y-64317619D01*
X186839761Y-64412857D01*
X186792142Y-64460476D01*
X186696904Y-64508095D01*
X186506428Y-64555714D01*
X186268333Y-64555714D01*
X186077857Y-64508095D01*
X185982619Y-64460476D01*
X185935000Y-64412857D01*
X185887380Y-64317619D01*
X185982619Y-63603333D02*
X185935000Y-63555714D01*
X185887380Y-63460476D01*
X185887380Y-63222380D01*
X185935000Y-63127142D01*
X185982619Y-63079523D01*
X186077857Y-63031904D01*
X186173095Y-63031904D01*
X186315952Y-63079523D01*
X186887380Y-63650952D01*
X186887380Y-63031904D01*
G04 #@! TO.C,R303*
X186887380Y-72239047D02*
X186411190Y-72572380D01*
X186887380Y-72810476D02*
X185887380Y-72810476D01*
X185887380Y-72429523D01*
X185935000Y-72334285D01*
X185982619Y-72286666D01*
X186077857Y-72239047D01*
X186220714Y-72239047D01*
X186315952Y-72286666D01*
X186363571Y-72334285D01*
X186411190Y-72429523D01*
X186411190Y-72810476D01*
X185887380Y-71905714D02*
X185887380Y-71286666D01*
X186268333Y-71620000D01*
X186268333Y-71477142D01*
X186315952Y-71381904D01*
X186363571Y-71334285D01*
X186458809Y-71286666D01*
X186696904Y-71286666D01*
X186792142Y-71334285D01*
X186839761Y-71381904D01*
X186887380Y-71477142D01*
X186887380Y-71762857D01*
X186839761Y-71858095D01*
X186792142Y-71905714D01*
X185887380Y-70667619D02*
X185887380Y-70572380D01*
X185935000Y-70477142D01*
X185982619Y-70429523D01*
X186077857Y-70381904D01*
X186268333Y-70334285D01*
X186506428Y-70334285D01*
X186696904Y-70381904D01*
X186792142Y-70429523D01*
X186839761Y-70477142D01*
X186887380Y-70572380D01*
X186887380Y-70667619D01*
X186839761Y-70762857D01*
X186792142Y-70810476D01*
X186696904Y-70858095D01*
X186506428Y-70905714D01*
X186268333Y-70905714D01*
X186077857Y-70858095D01*
X185982619Y-70810476D01*
X185935000Y-70762857D01*
X185887380Y-70667619D01*
X185887380Y-70000952D02*
X185887380Y-69381904D01*
X186268333Y-69715238D01*
X186268333Y-69572380D01*
X186315952Y-69477142D01*
X186363571Y-69429523D01*
X186458809Y-69381904D01*
X186696904Y-69381904D01*
X186792142Y-69429523D01*
X186839761Y-69477142D01*
X186887380Y-69572380D01*
X186887380Y-69858095D01*
X186839761Y-69953333D01*
X186792142Y-70000952D01*
G04 #@! TO.C,R304*
X186887380Y-78589047D02*
X186411190Y-78922380D01*
X186887380Y-79160476D02*
X185887380Y-79160476D01*
X185887380Y-78779523D01*
X185935000Y-78684285D01*
X185982619Y-78636666D01*
X186077857Y-78589047D01*
X186220714Y-78589047D01*
X186315952Y-78636666D01*
X186363571Y-78684285D01*
X186411190Y-78779523D01*
X186411190Y-79160476D01*
X185887380Y-78255714D02*
X185887380Y-77636666D01*
X186268333Y-77970000D01*
X186268333Y-77827142D01*
X186315952Y-77731904D01*
X186363571Y-77684285D01*
X186458809Y-77636666D01*
X186696904Y-77636666D01*
X186792142Y-77684285D01*
X186839761Y-77731904D01*
X186887380Y-77827142D01*
X186887380Y-78112857D01*
X186839761Y-78208095D01*
X186792142Y-78255714D01*
X185887380Y-77017619D02*
X185887380Y-76922380D01*
X185935000Y-76827142D01*
X185982619Y-76779523D01*
X186077857Y-76731904D01*
X186268333Y-76684285D01*
X186506428Y-76684285D01*
X186696904Y-76731904D01*
X186792142Y-76779523D01*
X186839761Y-76827142D01*
X186887380Y-76922380D01*
X186887380Y-77017619D01*
X186839761Y-77112857D01*
X186792142Y-77160476D01*
X186696904Y-77208095D01*
X186506428Y-77255714D01*
X186268333Y-77255714D01*
X186077857Y-77208095D01*
X185982619Y-77160476D01*
X185935000Y-77112857D01*
X185887380Y-77017619D01*
X186220714Y-75827142D02*
X186887380Y-75827142D01*
X185839761Y-76065238D02*
X186554047Y-76303333D01*
X186554047Y-75684285D01*
G04 #@! TO.C,R501*
X143660952Y-81886380D02*
X143327619Y-81410190D01*
X143089523Y-81886380D02*
X143089523Y-80886380D01*
X143470476Y-80886380D01*
X143565714Y-80934000D01*
X143613333Y-80981619D01*
X143660952Y-81076857D01*
X143660952Y-81219714D01*
X143613333Y-81314952D01*
X143565714Y-81362571D01*
X143470476Y-81410190D01*
X143089523Y-81410190D01*
X144565714Y-80886380D02*
X144089523Y-80886380D01*
X144041904Y-81362571D01*
X144089523Y-81314952D01*
X144184761Y-81267333D01*
X144422857Y-81267333D01*
X144518095Y-81314952D01*
X144565714Y-81362571D01*
X144613333Y-81457809D01*
X144613333Y-81695904D01*
X144565714Y-81791142D01*
X144518095Y-81838761D01*
X144422857Y-81886380D01*
X144184761Y-81886380D01*
X144089523Y-81838761D01*
X144041904Y-81791142D01*
X145232380Y-80886380D02*
X145327619Y-80886380D01*
X145422857Y-80934000D01*
X145470476Y-80981619D01*
X145518095Y-81076857D01*
X145565714Y-81267333D01*
X145565714Y-81505428D01*
X145518095Y-81695904D01*
X145470476Y-81791142D01*
X145422857Y-81838761D01*
X145327619Y-81886380D01*
X145232380Y-81886380D01*
X145137142Y-81838761D01*
X145089523Y-81791142D01*
X145041904Y-81695904D01*
X144994285Y-81505428D01*
X144994285Y-81267333D01*
X145041904Y-81076857D01*
X145089523Y-80981619D01*
X145137142Y-80934000D01*
X145232380Y-80886380D01*
X146518095Y-81886380D02*
X145946666Y-81886380D01*
X146232380Y-81886380D02*
X146232380Y-80886380D01*
X146137142Y-81029238D01*
X146041904Y-81124476D01*
X145946666Y-81172095D01*
G04 #@! TO.C,R502*
X143660952Y-80870380D02*
X143327619Y-80394190D01*
X143089523Y-80870380D02*
X143089523Y-79870380D01*
X143470476Y-79870380D01*
X143565714Y-79918000D01*
X143613333Y-79965619D01*
X143660952Y-80060857D01*
X143660952Y-80203714D01*
X143613333Y-80298952D01*
X143565714Y-80346571D01*
X143470476Y-80394190D01*
X143089523Y-80394190D01*
X144565714Y-79870380D02*
X144089523Y-79870380D01*
X144041904Y-80346571D01*
X144089523Y-80298952D01*
X144184761Y-80251333D01*
X144422857Y-80251333D01*
X144518095Y-80298952D01*
X144565714Y-80346571D01*
X144613333Y-80441809D01*
X144613333Y-80679904D01*
X144565714Y-80775142D01*
X144518095Y-80822761D01*
X144422857Y-80870380D01*
X144184761Y-80870380D01*
X144089523Y-80822761D01*
X144041904Y-80775142D01*
X145232380Y-79870380D02*
X145327619Y-79870380D01*
X145422857Y-79918000D01*
X145470476Y-79965619D01*
X145518095Y-80060857D01*
X145565714Y-80251333D01*
X145565714Y-80489428D01*
X145518095Y-80679904D01*
X145470476Y-80775142D01*
X145422857Y-80822761D01*
X145327619Y-80870380D01*
X145232380Y-80870380D01*
X145137142Y-80822761D01*
X145089523Y-80775142D01*
X145041904Y-80679904D01*
X144994285Y-80489428D01*
X144994285Y-80251333D01*
X145041904Y-80060857D01*
X145089523Y-79965619D01*
X145137142Y-79918000D01*
X145232380Y-79870380D01*
X145946666Y-79965619D02*
X145994285Y-79918000D01*
X146089523Y-79870380D01*
X146327619Y-79870380D01*
X146422857Y-79918000D01*
X146470476Y-79965619D01*
X146518095Y-80060857D01*
X146518095Y-80156095D01*
X146470476Y-80298952D01*
X145899047Y-80870380D01*
X146518095Y-80870380D01*
G04 #@! TO.C,R601*
X143660952Y-74774380D02*
X143327619Y-74298190D01*
X143089523Y-74774380D02*
X143089523Y-73774380D01*
X143470476Y-73774380D01*
X143565714Y-73822000D01*
X143613333Y-73869619D01*
X143660952Y-73964857D01*
X143660952Y-74107714D01*
X143613333Y-74202952D01*
X143565714Y-74250571D01*
X143470476Y-74298190D01*
X143089523Y-74298190D01*
X144518095Y-73774380D02*
X144327619Y-73774380D01*
X144232380Y-73822000D01*
X144184761Y-73869619D01*
X144089523Y-74012476D01*
X144041904Y-74202952D01*
X144041904Y-74583904D01*
X144089523Y-74679142D01*
X144137142Y-74726761D01*
X144232380Y-74774380D01*
X144422857Y-74774380D01*
X144518095Y-74726761D01*
X144565714Y-74679142D01*
X144613333Y-74583904D01*
X144613333Y-74345809D01*
X144565714Y-74250571D01*
X144518095Y-74202952D01*
X144422857Y-74155333D01*
X144232380Y-74155333D01*
X144137142Y-74202952D01*
X144089523Y-74250571D01*
X144041904Y-74345809D01*
X145232380Y-73774380D02*
X145327619Y-73774380D01*
X145422857Y-73822000D01*
X145470476Y-73869619D01*
X145518095Y-73964857D01*
X145565714Y-74155333D01*
X145565714Y-74393428D01*
X145518095Y-74583904D01*
X145470476Y-74679142D01*
X145422857Y-74726761D01*
X145327619Y-74774380D01*
X145232380Y-74774380D01*
X145137142Y-74726761D01*
X145089523Y-74679142D01*
X145041904Y-74583904D01*
X144994285Y-74393428D01*
X144994285Y-74155333D01*
X145041904Y-73964857D01*
X145089523Y-73869619D01*
X145137142Y-73822000D01*
X145232380Y-73774380D01*
X146518095Y-74774380D02*
X145946666Y-74774380D01*
X146232380Y-74774380D02*
X146232380Y-73774380D01*
X146137142Y-73917238D01*
X146041904Y-74012476D01*
X145946666Y-74060095D01*
G04 #@! TO.C,R602*
X143660952Y-73450380D02*
X143327619Y-72974190D01*
X143089523Y-73450380D02*
X143089523Y-72450380D01*
X143470476Y-72450380D01*
X143565714Y-72498000D01*
X143613333Y-72545619D01*
X143660952Y-72640857D01*
X143660952Y-72783714D01*
X143613333Y-72878952D01*
X143565714Y-72926571D01*
X143470476Y-72974190D01*
X143089523Y-72974190D01*
X144518095Y-72450380D02*
X144327619Y-72450380D01*
X144232380Y-72498000D01*
X144184761Y-72545619D01*
X144089523Y-72688476D01*
X144041904Y-72878952D01*
X144041904Y-73259904D01*
X144089523Y-73355142D01*
X144137142Y-73402761D01*
X144232380Y-73450380D01*
X144422857Y-73450380D01*
X144518095Y-73402761D01*
X144565714Y-73355142D01*
X144613333Y-73259904D01*
X144613333Y-73021809D01*
X144565714Y-72926571D01*
X144518095Y-72878952D01*
X144422857Y-72831333D01*
X144232380Y-72831333D01*
X144137142Y-72878952D01*
X144089523Y-72926571D01*
X144041904Y-73021809D01*
X145232380Y-72450380D02*
X145327619Y-72450380D01*
X145422857Y-72498000D01*
X145470476Y-72545619D01*
X145518095Y-72640857D01*
X145565714Y-72831333D01*
X145565714Y-73069428D01*
X145518095Y-73259904D01*
X145470476Y-73355142D01*
X145422857Y-73402761D01*
X145327619Y-73450380D01*
X145232380Y-73450380D01*
X145137142Y-73402761D01*
X145089523Y-73355142D01*
X145041904Y-73259904D01*
X144994285Y-73069428D01*
X144994285Y-72831333D01*
X145041904Y-72640857D01*
X145089523Y-72545619D01*
X145137142Y-72498000D01*
X145232380Y-72450380D01*
X145946666Y-72545619D02*
X145994285Y-72498000D01*
X146089523Y-72450380D01*
X146327619Y-72450380D01*
X146422857Y-72498000D01*
X146470476Y-72545619D01*
X146518095Y-72640857D01*
X146518095Y-72736095D01*
X146470476Y-72878952D01*
X145899047Y-73450380D01*
X146518095Y-73450380D01*
G04 #@! TO.C,R603*
X143660952Y-77514380D02*
X143327619Y-77038190D01*
X143089523Y-77514380D02*
X143089523Y-76514380D01*
X143470476Y-76514380D01*
X143565714Y-76562000D01*
X143613333Y-76609619D01*
X143660952Y-76704857D01*
X143660952Y-76847714D01*
X143613333Y-76942952D01*
X143565714Y-76990571D01*
X143470476Y-77038190D01*
X143089523Y-77038190D01*
X144518095Y-76514380D02*
X144327619Y-76514380D01*
X144232380Y-76562000D01*
X144184761Y-76609619D01*
X144089523Y-76752476D01*
X144041904Y-76942952D01*
X144041904Y-77323904D01*
X144089523Y-77419142D01*
X144137142Y-77466761D01*
X144232380Y-77514380D01*
X144422857Y-77514380D01*
X144518095Y-77466761D01*
X144565714Y-77419142D01*
X144613333Y-77323904D01*
X144613333Y-77085809D01*
X144565714Y-76990571D01*
X144518095Y-76942952D01*
X144422857Y-76895333D01*
X144232380Y-76895333D01*
X144137142Y-76942952D01*
X144089523Y-76990571D01*
X144041904Y-77085809D01*
X145232380Y-76514380D02*
X145327619Y-76514380D01*
X145422857Y-76562000D01*
X145470476Y-76609619D01*
X145518095Y-76704857D01*
X145565714Y-76895333D01*
X145565714Y-77133428D01*
X145518095Y-77323904D01*
X145470476Y-77419142D01*
X145422857Y-77466761D01*
X145327619Y-77514380D01*
X145232380Y-77514380D01*
X145137142Y-77466761D01*
X145089523Y-77419142D01*
X145041904Y-77323904D01*
X144994285Y-77133428D01*
X144994285Y-76895333D01*
X145041904Y-76704857D01*
X145089523Y-76609619D01*
X145137142Y-76562000D01*
X145232380Y-76514380D01*
X145899047Y-76514380D02*
X146518095Y-76514380D01*
X146184761Y-76895333D01*
X146327619Y-76895333D01*
X146422857Y-76942952D01*
X146470476Y-76990571D01*
X146518095Y-77085809D01*
X146518095Y-77323904D01*
X146470476Y-77419142D01*
X146422857Y-77466761D01*
X146327619Y-77514380D01*
X146041904Y-77514380D01*
X145946666Y-77466761D01*
X145899047Y-77419142D01*
G04 #@! TO.C,R604*
X136061380Y-74017047D02*
X135585190Y-74350380D01*
X136061380Y-74588476D02*
X135061380Y-74588476D01*
X135061380Y-74207523D01*
X135109000Y-74112285D01*
X135156619Y-74064666D01*
X135251857Y-74017047D01*
X135394714Y-74017047D01*
X135489952Y-74064666D01*
X135537571Y-74112285D01*
X135585190Y-74207523D01*
X135585190Y-74588476D01*
X135061380Y-73159904D02*
X135061380Y-73350380D01*
X135109000Y-73445619D01*
X135156619Y-73493238D01*
X135299476Y-73588476D01*
X135489952Y-73636095D01*
X135870904Y-73636095D01*
X135966142Y-73588476D01*
X136013761Y-73540857D01*
X136061380Y-73445619D01*
X136061380Y-73255142D01*
X136013761Y-73159904D01*
X135966142Y-73112285D01*
X135870904Y-73064666D01*
X135632809Y-73064666D01*
X135537571Y-73112285D01*
X135489952Y-73159904D01*
X135442333Y-73255142D01*
X135442333Y-73445619D01*
X135489952Y-73540857D01*
X135537571Y-73588476D01*
X135632809Y-73636095D01*
X135061380Y-72445619D02*
X135061380Y-72350380D01*
X135109000Y-72255142D01*
X135156619Y-72207523D01*
X135251857Y-72159904D01*
X135442333Y-72112285D01*
X135680428Y-72112285D01*
X135870904Y-72159904D01*
X135966142Y-72207523D01*
X136013761Y-72255142D01*
X136061380Y-72350380D01*
X136061380Y-72445619D01*
X136013761Y-72540857D01*
X135966142Y-72588476D01*
X135870904Y-72636095D01*
X135680428Y-72683714D01*
X135442333Y-72683714D01*
X135251857Y-72636095D01*
X135156619Y-72588476D01*
X135109000Y-72540857D01*
X135061380Y-72445619D01*
X135394714Y-71255142D02*
X136061380Y-71255142D01*
X135013761Y-71493238D02*
X135728047Y-71731333D01*
X135728047Y-71112285D01*
G04 #@! TO.C,R605*
X133702380Y-72239047D02*
X133226190Y-72572380D01*
X133702380Y-72810476D02*
X132702380Y-72810476D01*
X132702380Y-72429523D01*
X132750000Y-72334285D01*
X132797619Y-72286666D01*
X132892857Y-72239047D01*
X133035714Y-72239047D01*
X133130952Y-72286666D01*
X133178571Y-72334285D01*
X133226190Y-72429523D01*
X133226190Y-72810476D01*
X132702380Y-71381904D02*
X132702380Y-71572380D01*
X132750000Y-71667619D01*
X132797619Y-71715238D01*
X132940476Y-71810476D01*
X133130952Y-71858095D01*
X133511904Y-71858095D01*
X133607142Y-71810476D01*
X133654761Y-71762857D01*
X133702380Y-71667619D01*
X133702380Y-71477142D01*
X133654761Y-71381904D01*
X133607142Y-71334285D01*
X133511904Y-71286666D01*
X133273809Y-71286666D01*
X133178571Y-71334285D01*
X133130952Y-71381904D01*
X133083333Y-71477142D01*
X133083333Y-71667619D01*
X133130952Y-71762857D01*
X133178571Y-71810476D01*
X133273809Y-71858095D01*
X132702380Y-70667619D02*
X132702380Y-70572380D01*
X132750000Y-70477142D01*
X132797619Y-70429523D01*
X132892857Y-70381904D01*
X133083333Y-70334285D01*
X133321428Y-70334285D01*
X133511904Y-70381904D01*
X133607142Y-70429523D01*
X133654761Y-70477142D01*
X133702380Y-70572380D01*
X133702380Y-70667619D01*
X133654761Y-70762857D01*
X133607142Y-70810476D01*
X133511904Y-70858095D01*
X133321428Y-70905714D01*
X133083333Y-70905714D01*
X132892857Y-70858095D01*
X132797619Y-70810476D01*
X132750000Y-70762857D01*
X132702380Y-70667619D01*
X132702380Y-69429523D02*
X132702380Y-69905714D01*
X133178571Y-69953333D01*
X133130952Y-69905714D01*
X133083333Y-69810476D01*
X133083333Y-69572380D01*
X133130952Y-69477142D01*
X133178571Y-69429523D01*
X133273809Y-69381904D01*
X133511904Y-69381904D01*
X133607142Y-69429523D01*
X133654761Y-69477142D01*
X133702380Y-69572380D01*
X133702380Y-69810476D01*
X133654761Y-69905714D01*
X133607142Y-69953333D01*
G04 #@! TO.C,R606*
X130175952Y-71472380D02*
X129842619Y-70996190D01*
X129604523Y-71472380D02*
X129604523Y-70472380D01*
X129985476Y-70472380D01*
X130080714Y-70520000D01*
X130128333Y-70567619D01*
X130175952Y-70662857D01*
X130175952Y-70805714D01*
X130128333Y-70900952D01*
X130080714Y-70948571D01*
X129985476Y-70996190D01*
X129604523Y-70996190D01*
X131033095Y-70472380D02*
X130842619Y-70472380D01*
X130747380Y-70520000D01*
X130699761Y-70567619D01*
X130604523Y-70710476D01*
X130556904Y-70900952D01*
X130556904Y-71281904D01*
X130604523Y-71377142D01*
X130652142Y-71424761D01*
X130747380Y-71472380D01*
X130937857Y-71472380D01*
X131033095Y-71424761D01*
X131080714Y-71377142D01*
X131128333Y-71281904D01*
X131128333Y-71043809D01*
X131080714Y-70948571D01*
X131033095Y-70900952D01*
X130937857Y-70853333D01*
X130747380Y-70853333D01*
X130652142Y-70900952D01*
X130604523Y-70948571D01*
X130556904Y-71043809D01*
X131747380Y-70472380D02*
X131842619Y-70472380D01*
X131937857Y-70520000D01*
X131985476Y-70567619D01*
X132033095Y-70662857D01*
X132080714Y-70853333D01*
X132080714Y-71091428D01*
X132033095Y-71281904D01*
X131985476Y-71377142D01*
X131937857Y-71424761D01*
X131842619Y-71472380D01*
X131747380Y-71472380D01*
X131652142Y-71424761D01*
X131604523Y-71377142D01*
X131556904Y-71281904D01*
X131509285Y-71091428D01*
X131509285Y-70853333D01*
X131556904Y-70662857D01*
X131604523Y-70567619D01*
X131652142Y-70520000D01*
X131747380Y-70472380D01*
X132937857Y-70472380D02*
X132747380Y-70472380D01*
X132652142Y-70520000D01*
X132604523Y-70567619D01*
X132509285Y-70710476D01*
X132461666Y-70900952D01*
X132461666Y-71281904D01*
X132509285Y-71377142D01*
X132556904Y-71424761D01*
X132652142Y-71472380D01*
X132842619Y-71472380D01*
X132937857Y-71424761D01*
X132985476Y-71377142D01*
X133033095Y-71281904D01*
X133033095Y-71043809D01*
X132985476Y-70948571D01*
X132937857Y-70900952D01*
X132842619Y-70853333D01*
X132652142Y-70853333D01*
X132556904Y-70900952D01*
X132509285Y-70948571D01*
X132461666Y-71043809D01*
G04 #@! TO.C,R607*
X130175952Y-70202380D02*
X129842619Y-69726190D01*
X129604523Y-70202380D02*
X129604523Y-69202380D01*
X129985476Y-69202380D01*
X130080714Y-69250000D01*
X130128333Y-69297619D01*
X130175952Y-69392857D01*
X130175952Y-69535714D01*
X130128333Y-69630952D01*
X130080714Y-69678571D01*
X129985476Y-69726190D01*
X129604523Y-69726190D01*
X131033095Y-69202380D02*
X130842619Y-69202380D01*
X130747380Y-69250000D01*
X130699761Y-69297619D01*
X130604523Y-69440476D01*
X130556904Y-69630952D01*
X130556904Y-70011904D01*
X130604523Y-70107142D01*
X130652142Y-70154761D01*
X130747380Y-70202380D01*
X130937857Y-70202380D01*
X131033095Y-70154761D01*
X131080714Y-70107142D01*
X131128333Y-70011904D01*
X131128333Y-69773809D01*
X131080714Y-69678571D01*
X131033095Y-69630952D01*
X130937857Y-69583333D01*
X130747380Y-69583333D01*
X130652142Y-69630952D01*
X130604523Y-69678571D01*
X130556904Y-69773809D01*
X131747380Y-69202380D02*
X131842619Y-69202380D01*
X131937857Y-69250000D01*
X131985476Y-69297619D01*
X132033095Y-69392857D01*
X132080714Y-69583333D01*
X132080714Y-69821428D01*
X132033095Y-70011904D01*
X131985476Y-70107142D01*
X131937857Y-70154761D01*
X131842619Y-70202380D01*
X131747380Y-70202380D01*
X131652142Y-70154761D01*
X131604523Y-70107142D01*
X131556904Y-70011904D01*
X131509285Y-69821428D01*
X131509285Y-69583333D01*
X131556904Y-69392857D01*
X131604523Y-69297619D01*
X131652142Y-69250000D01*
X131747380Y-69202380D01*
X132414047Y-69202380D02*
X133080714Y-69202380D01*
X132652142Y-70202380D01*
G04 #@! TO.C,R608*
X132632380Y-72239047D02*
X132156190Y-72572380D01*
X132632380Y-72810476D02*
X131632380Y-72810476D01*
X131632380Y-72429523D01*
X131680000Y-72334285D01*
X131727619Y-72286666D01*
X131822857Y-72239047D01*
X131965714Y-72239047D01*
X132060952Y-72286666D01*
X132108571Y-72334285D01*
X132156190Y-72429523D01*
X132156190Y-72810476D01*
X131632380Y-71381904D02*
X131632380Y-71572380D01*
X131680000Y-71667619D01*
X131727619Y-71715238D01*
X131870476Y-71810476D01*
X132060952Y-71858095D01*
X132441904Y-71858095D01*
X132537142Y-71810476D01*
X132584761Y-71762857D01*
X132632380Y-71667619D01*
X132632380Y-71477142D01*
X132584761Y-71381904D01*
X132537142Y-71334285D01*
X132441904Y-71286666D01*
X132203809Y-71286666D01*
X132108571Y-71334285D01*
X132060952Y-71381904D01*
X132013333Y-71477142D01*
X132013333Y-71667619D01*
X132060952Y-71762857D01*
X132108571Y-71810476D01*
X132203809Y-71858095D01*
X131632380Y-70667619D02*
X131632380Y-70572380D01*
X131680000Y-70477142D01*
X131727619Y-70429523D01*
X131822857Y-70381904D01*
X132013333Y-70334285D01*
X132251428Y-70334285D01*
X132441904Y-70381904D01*
X132537142Y-70429523D01*
X132584761Y-70477142D01*
X132632380Y-70572380D01*
X132632380Y-70667619D01*
X132584761Y-70762857D01*
X132537142Y-70810476D01*
X132441904Y-70858095D01*
X132251428Y-70905714D01*
X132013333Y-70905714D01*
X131822857Y-70858095D01*
X131727619Y-70810476D01*
X131680000Y-70762857D01*
X131632380Y-70667619D01*
X132060952Y-69762857D02*
X132013333Y-69858095D01*
X131965714Y-69905714D01*
X131870476Y-69953333D01*
X131822857Y-69953333D01*
X131727619Y-69905714D01*
X131680000Y-69858095D01*
X131632380Y-69762857D01*
X131632380Y-69572380D01*
X131680000Y-69477142D01*
X131727619Y-69429523D01*
X131822857Y-69381904D01*
X131870476Y-69381904D01*
X131965714Y-69429523D01*
X132013333Y-69477142D01*
X132060952Y-69572380D01*
X132060952Y-69762857D01*
X132108571Y-69858095D01*
X132156190Y-69905714D01*
X132251428Y-69953333D01*
X132441904Y-69953333D01*
X132537142Y-69905714D01*
X132584761Y-69858095D01*
X132632380Y-69762857D01*
X132632380Y-69572380D01*
X132584761Y-69477142D01*
X132537142Y-69429523D01*
X132441904Y-69381904D01*
X132251428Y-69381904D01*
X132156190Y-69429523D01*
X132108571Y-69477142D01*
X132060952Y-69572380D01*
G04 #@! TO.C,TP303*
X155900714Y-67869380D02*
X156472142Y-67869380D01*
X156186428Y-68869380D02*
X156186428Y-67869380D01*
X156805476Y-68869380D02*
X156805476Y-67869380D01*
X157186428Y-67869380D01*
X157281666Y-67917000D01*
X157329285Y-67964619D01*
X157376904Y-68059857D01*
X157376904Y-68202714D01*
X157329285Y-68297952D01*
X157281666Y-68345571D01*
X157186428Y-68393190D01*
X156805476Y-68393190D01*
X157710238Y-67869380D02*
X158329285Y-67869380D01*
X157995952Y-68250333D01*
X158138809Y-68250333D01*
X158234047Y-68297952D01*
X158281666Y-68345571D01*
X158329285Y-68440809D01*
X158329285Y-68678904D01*
X158281666Y-68774142D01*
X158234047Y-68821761D01*
X158138809Y-68869380D01*
X157853095Y-68869380D01*
X157757857Y-68821761D01*
X157710238Y-68774142D01*
X158948333Y-67869380D02*
X159043571Y-67869380D01*
X159138809Y-67917000D01*
X159186428Y-67964619D01*
X159234047Y-68059857D01*
X159281666Y-68250333D01*
X159281666Y-68488428D01*
X159234047Y-68678904D01*
X159186428Y-68774142D01*
X159138809Y-68821761D01*
X159043571Y-68869380D01*
X158948333Y-68869380D01*
X158853095Y-68821761D01*
X158805476Y-68774142D01*
X158757857Y-68678904D01*
X158710238Y-68488428D01*
X158710238Y-68250333D01*
X158757857Y-68059857D01*
X158805476Y-67964619D01*
X158853095Y-67917000D01*
X158948333Y-67869380D01*
X159615000Y-67869380D02*
X160234047Y-67869380D01*
X159900714Y-68250333D01*
X160043571Y-68250333D01*
X160138809Y-68297952D01*
X160186428Y-68345571D01*
X160234047Y-68440809D01*
X160234047Y-68678904D01*
X160186428Y-68774142D01*
X160138809Y-68821761D01*
X160043571Y-68869380D01*
X159757857Y-68869380D01*
X159662619Y-68821761D01*
X159615000Y-68774142D01*
G04 #@! TO.C,TP304*
X153233714Y-69393380D02*
X153805142Y-69393380D01*
X153519428Y-70393380D02*
X153519428Y-69393380D01*
X154138476Y-70393380D02*
X154138476Y-69393380D01*
X154519428Y-69393380D01*
X154614666Y-69441000D01*
X154662285Y-69488619D01*
X154709904Y-69583857D01*
X154709904Y-69726714D01*
X154662285Y-69821952D01*
X154614666Y-69869571D01*
X154519428Y-69917190D01*
X154138476Y-69917190D01*
X155043238Y-69393380D02*
X155662285Y-69393380D01*
X155328952Y-69774333D01*
X155471809Y-69774333D01*
X155567047Y-69821952D01*
X155614666Y-69869571D01*
X155662285Y-69964809D01*
X155662285Y-70202904D01*
X155614666Y-70298142D01*
X155567047Y-70345761D01*
X155471809Y-70393380D01*
X155186095Y-70393380D01*
X155090857Y-70345761D01*
X155043238Y-70298142D01*
X156281333Y-69393380D02*
X156376571Y-69393380D01*
X156471809Y-69441000D01*
X156519428Y-69488619D01*
X156567047Y-69583857D01*
X156614666Y-69774333D01*
X156614666Y-70012428D01*
X156567047Y-70202904D01*
X156519428Y-70298142D01*
X156471809Y-70345761D01*
X156376571Y-70393380D01*
X156281333Y-70393380D01*
X156186095Y-70345761D01*
X156138476Y-70298142D01*
X156090857Y-70202904D01*
X156043238Y-70012428D01*
X156043238Y-69774333D01*
X156090857Y-69583857D01*
X156138476Y-69488619D01*
X156186095Y-69441000D01*
X156281333Y-69393380D01*
X157471809Y-69726714D02*
X157471809Y-70393380D01*
X157233714Y-69345761D02*
X156995619Y-70060047D01*
X157614666Y-70060047D01*
G04 #@! TO.C,TP305*
X155900714Y-70917380D02*
X156472142Y-70917380D01*
X156186428Y-71917380D02*
X156186428Y-70917380D01*
X156805476Y-71917380D02*
X156805476Y-70917380D01*
X157186428Y-70917380D01*
X157281666Y-70965000D01*
X157329285Y-71012619D01*
X157376904Y-71107857D01*
X157376904Y-71250714D01*
X157329285Y-71345952D01*
X157281666Y-71393571D01*
X157186428Y-71441190D01*
X156805476Y-71441190D01*
X157710238Y-70917380D02*
X158329285Y-70917380D01*
X157995952Y-71298333D01*
X158138809Y-71298333D01*
X158234047Y-71345952D01*
X158281666Y-71393571D01*
X158329285Y-71488809D01*
X158329285Y-71726904D01*
X158281666Y-71822142D01*
X158234047Y-71869761D01*
X158138809Y-71917380D01*
X157853095Y-71917380D01*
X157757857Y-71869761D01*
X157710238Y-71822142D01*
X158948333Y-70917380D02*
X159043571Y-70917380D01*
X159138809Y-70965000D01*
X159186428Y-71012619D01*
X159234047Y-71107857D01*
X159281666Y-71298333D01*
X159281666Y-71536428D01*
X159234047Y-71726904D01*
X159186428Y-71822142D01*
X159138809Y-71869761D01*
X159043571Y-71917380D01*
X158948333Y-71917380D01*
X158853095Y-71869761D01*
X158805476Y-71822142D01*
X158757857Y-71726904D01*
X158710238Y-71536428D01*
X158710238Y-71298333D01*
X158757857Y-71107857D01*
X158805476Y-71012619D01*
X158853095Y-70965000D01*
X158948333Y-70917380D01*
X160186428Y-70917380D02*
X159710238Y-70917380D01*
X159662619Y-71393571D01*
X159710238Y-71345952D01*
X159805476Y-71298333D01*
X160043571Y-71298333D01*
X160138809Y-71345952D01*
X160186428Y-71393571D01*
X160234047Y-71488809D01*
X160234047Y-71726904D01*
X160186428Y-71822142D01*
X160138809Y-71869761D01*
X160043571Y-71917380D01*
X159805476Y-71917380D01*
X159710238Y-71869761D01*
X159662619Y-71822142D01*
G04 #@! TO.C,TP306*
X153233714Y-72441380D02*
X153805142Y-72441380D01*
X153519428Y-73441380D02*
X153519428Y-72441380D01*
X154138476Y-73441380D02*
X154138476Y-72441380D01*
X154519428Y-72441380D01*
X154614666Y-72489000D01*
X154662285Y-72536619D01*
X154709904Y-72631857D01*
X154709904Y-72774714D01*
X154662285Y-72869952D01*
X154614666Y-72917571D01*
X154519428Y-72965190D01*
X154138476Y-72965190D01*
X155043238Y-72441380D02*
X155662285Y-72441380D01*
X155328952Y-72822333D01*
X155471809Y-72822333D01*
X155567047Y-72869952D01*
X155614666Y-72917571D01*
X155662285Y-73012809D01*
X155662285Y-73250904D01*
X155614666Y-73346142D01*
X155567047Y-73393761D01*
X155471809Y-73441380D01*
X155186095Y-73441380D01*
X155090857Y-73393761D01*
X155043238Y-73346142D01*
X156281333Y-72441380D02*
X156376571Y-72441380D01*
X156471809Y-72489000D01*
X156519428Y-72536619D01*
X156567047Y-72631857D01*
X156614666Y-72822333D01*
X156614666Y-73060428D01*
X156567047Y-73250904D01*
X156519428Y-73346142D01*
X156471809Y-73393761D01*
X156376571Y-73441380D01*
X156281333Y-73441380D01*
X156186095Y-73393761D01*
X156138476Y-73346142D01*
X156090857Y-73250904D01*
X156043238Y-73060428D01*
X156043238Y-72822333D01*
X156090857Y-72631857D01*
X156138476Y-72536619D01*
X156186095Y-72489000D01*
X156281333Y-72441380D01*
X157471809Y-72441380D02*
X157281333Y-72441380D01*
X157186095Y-72489000D01*
X157138476Y-72536619D01*
X157043238Y-72679476D01*
X156995619Y-72869952D01*
X156995619Y-73250904D01*
X157043238Y-73346142D01*
X157090857Y-73393761D01*
X157186095Y-73441380D01*
X157376571Y-73441380D01*
X157471809Y-73393761D01*
X157519428Y-73346142D01*
X157567047Y-73250904D01*
X157567047Y-73012809D01*
X157519428Y-72917571D01*
X157471809Y-72869952D01*
X157376571Y-72822333D01*
X157186095Y-72822333D01*
X157090857Y-72869952D01*
X157043238Y-72917571D01*
X156995619Y-73012809D01*
G04 #@! TO.C,TP307*
X155900714Y-73965380D02*
X156472142Y-73965380D01*
X156186428Y-74965380D02*
X156186428Y-73965380D01*
X156805476Y-74965380D02*
X156805476Y-73965380D01*
X157186428Y-73965380D01*
X157281666Y-74013000D01*
X157329285Y-74060619D01*
X157376904Y-74155857D01*
X157376904Y-74298714D01*
X157329285Y-74393952D01*
X157281666Y-74441571D01*
X157186428Y-74489190D01*
X156805476Y-74489190D01*
X157710238Y-73965380D02*
X158329285Y-73965380D01*
X157995952Y-74346333D01*
X158138809Y-74346333D01*
X158234047Y-74393952D01*
X158281666Y-74441571D01*
X158329285Y-74536809D01*
X158329285Y-74774904D01*
X158281666Y-74870142D01*
X158234047Y-74917761D01*
X158138809Y-74965380D01*
X157853095Y-74965380D01*
X157757857Y-74917761D01*
X157710238Y-74870142D01*
X158948333Y-73965380D02*
X159043571Y-73965380D01*
X159138809Y-74013000D01*
X159186428Y-74060619D01*
X159234047Y-74155857D01*
X159281666Y-74346333D01*
X159281666Y-74584428D01*
X159234047Y-74774904D01*
X159186428Y-74870142D01*
X159138809Y-74917761D01*
X159043571Y-74965380D01*
X158948333Y-74965380D01*
X158853095Y-74917761D01*
X158805476Y-74870142D01*
X158757857Y-74774904D01*
X158710238Y-74584428D01*
X158710238Y-74346333D01*
X158757857Y-74155857D01*
X158805476Y-74060619D01*
X158853095Y-74013000D01*
X158948333Y-73965380D01*
X159615000Y-73965380D02*
X160281666Y-73965380D01*
X159853095Y-74965380D01*
G04 #@! TO.C,TP308*
X153233714Y-75489380D02*
X153805142Y-75489380D01*
X153519428Y-76489380D02*
X153519428Y-75489380D01*
X154138476Y-76489380D02*
X154138476Y-75489380D01*
X154519428Y-75489380D01*
X154614666Y-75537000D01*
X154662285Y-75584619D01*
X154709904Y-75679857D01*
X154709904Y-75822714D01*
X154662285Y-75917952D01*
X154614666Y-75965571D01*
X154519428Y-76013190D01*
X154138476Y-76013190D01*
X155043238Y-75489380D02*
X155662285Y-75489380D01*
X155328952Y-75870333D01*
X155471809Y-75870333D01*
X155567047Y-75917952D01*
X155614666Y-75965571D01*
X155662285Y-76060809D01*
X155662285Y-76298904D01*
X155614666Y-76394142D01*
X155567047Y-76441761D01*
X155471809Y-76489380D01*
X155186095Y-76489380D01*
X155090857Y-76441761D01*
X155043238Y-76394142D01*
X156281333Y-75489380D02*
X156376571Y-75489380D01*
X156471809Y-75537000D01*
X156519428Y-75584619D01*
X156567047Y-75679857D01*
X156614666Y-75870333D01*
X156614666Y-76108428D01*
X156567047Y-76298904D01*
X156519428Y-76394142D01*
X156471809Y-76441761D01*
X156376571Y-76489380D01*
X156281333Y-76489380D01*
X156186095Y-76441761D01*
X156138476Y-76394142D01*
X156090857Y-76298904D01*
X156043238Y-76108428D01*
X156043238Y-75870333D01*
X156090857Y-75679857D01*
X156138476Y-75584619D01*
X156186095Y-75537000D01*
X156281333Y-75489380D01*
X157186095Y-75917952D02*
X157090857Y-75870333D01*
X157043238Y-75822714D01*
X156995619Y-75727476D01*
X156995619Y-75679857D01*
X157043238Y-75584619D01*
X157090857Y-75537000D01*
X157186095Y-75489380D01*
X157376571Y-75489380D01*
X157471809Y-75537000D01*
X157519428Y-75584619D01*
X157567047Y-75679857D01*
X157567047Y-75727476D01*
X157519428Y-75822714D01*
X157471809Y-75870333D01*
X157376571Y-75917952D01*
X157186095Y-75917952D01*
X157090857Y-75965571D01*
X157043238Y-76013190D01*
X156995619Y-76108428D01*
X156995619Y-76298904D01*
X157043238Y-76394142D01*
X157090857Y-76441761D01*
X157186095Y-76489380D01*
X157376571Y-76489380D01*
X157471809Y-76441761D01*
X157519428Y-76394142D01*
X157567047Y-76298904D01*
X157567047Y-76108428D01*
X157519428Y-76013190D01*
X157471809Y-75965571D01*
X157376571Y-75917952D01*
G04 #@! TO.C,TP309*
X155900714Y-57455380D02*
X156472142Y-57455380D01*
X156186428Y-58455380D02*
X156186428Y-57455380D01*
X156805476Y-58455380D02*
X156805476Y-57455380D01*
X157186428Y-57455380D01*
X157281666Y-57503000D01*
X157329285Y-57550619D01*
X157376904Y-57645857D01*
X157376904Y-57788714D01*
X157329285Y-57883952D01*
X157281666Y-57931571D01*
X157186428Y-57979190D01*
X156805476Y-57979190D01*
X157710238Y-57455380D02*
X158329285Y-57455380D01*
X157995952Y-57836333D01*
X158138809Y-57836333D01*
X158234047Y-57883952D01*
X158281666Y-57931571D01*
X158329285Y-58026809D01*
X158329285Y-58264904D01*
X158281666Y-58360142D01*
X158234047Y-58407761D01*
X158138809Y-58455380D01*
X157853095Y-58455380D01*
X157757857Y-58407761D01*
X157710238Y-58360142D01*
X158948333Y-57455380D02*
X159043571Y-57455380D01*
X159138809Y-57503000D01*
X159186428Y-57550619D01*
X159234047Y-57645857D01*
X159281666Y-57836333D01*
X159281666Y-58074428D01*
X159234047Y-58264904D01*
X159186428Y-58360142D01*
X159138809Y-58407761D01*
X159043571Y-58455380D01*
X158948333Y-58455380D01*
X158853095Y-58407761D01*
X158805476Y-58360142D01*
X158757857Y-58264904D01*
X158710238Y-58074428D01*
X158710238Y-57836333D01*
X158757857Y-57645857D01*
X158805476Y-57550619D01*
X158853095Y-57503000D01*
X158948333Y-57455380D01*
X159757857Y-58455380D02*
X159948333Y-58455380D01*
X160043571Y-58407761D01*
X160091190Y-58360142D01*
X160186428Y-58217285D01*
X160234047Y-58026809D01*
X160234047Y-57645857D01*
X160186428Y-57550619D01*
X160138809Y-57503000D01*
X160043571Y-57455380D01*
X159853095Y-57455380D01*
X159757857Y-57503000D01*
X159710238Y-57550619D01*
X159662619Y-57645857D01*
X159662619Y-57883952D01*
X159710238Y-57979190D01*
X159757857Y-58026809D01*
X159853095Y-58074428D01*
X160043571Y-58074428D01*
X160138809Y-58026809D01*
X160186428Y-57979190D01*
X160234047Y-57883952D01*
G04 #@! TO.C,TP310*
X159075714Y-57455380D02*
X159647142Y-57455380D01*
X159361428Y-58455380D02*
X159361428Y-57455380D01*
X159980476Y-58455380D02*
X159980476Y-57455380D01*
X160361428Y-57455380D01*
X160456666Y-57503000D01*
X160504285Y-57550619D01*
X160551904Y-57645857D01*
X160551904Y-57788714D01*
X160504285Y-57883952D01*
X160456666Y-57931571D01*
X160361428Y-57979190D01*
X159980476Y-57979190D01*
X160885238Y-57455380D02*
X161504285Y-57455380D01*
X161170952Y-57836333D01*
X161313809Y-57836333D01*
X161409047Y-57883952D01*
X161456666Y-57931571D01*
X161504285Y-58026809D01*
X161504285Y-58264904D01*
X161456666Y-58360142D01*
X161409047Y-58407761D01*
X161313809Y-58455380D01*
X161028095Y-58455380D01*
X160932857Y-58407761D01*
X160885238Y-58360142D01*
X162456666Y-58455380D02*
X161885238Y-58455380D01*
X162170952Y-58455380D02*
X162170952Y-57455380D01*
X162075714Y-57598238D01*
X161980476Y-57693476D01*
X161885238Y-57741095D01*
X163075714Y-57455380D02*
X163170952Y-57455380D01*
X163266190Y-57503000D01*
X163313809Y-57550619D01*
X163361428Y-57645857D01*
X163409047Y-57836333D01*
X163409047Y-58074428D01*
X163361428Y-58264904D01*
X163313809Y-58360142D01*
X163266190Y-58407761D01*
X163170952Y-58455380D01*
X163075714Y-58455380D01*
X162980476Y-58407761D01*
X162932857Y-58360142D01*
X162885238Y-58264904D01*
X162837619Y-58074428D01*
X162837619Y-57836333D01*
X162885238Y-57645857D01*
X162932857Y-57550619D01*
X162980476Y-57503000D01*
X163075714Y-57455380D01*
G04 #@! TO.C,TP311*
X152725714Y-57455380D02*
X153297142Y-57455380D01*
X153011428Y-58455380D02*
X153011428Y-57455380D01*
X153630476Y-58455380D02*
X153630476Y-57455380D01*
X154011428Y-57455380D01*
X154106666Y-57503000D01*
X154154285Y-57550619D01*
X154201904Y-57645857D01*
X154201904Y-57788714D01*
X154154285Y-57883952D01*
X154106666Y-57931571D01*
X154011428Y-57979190D01*
X153630476Y-57979190D01*
X154535238Y-57455380D02*
X155154285Y-57455380D01*
X154820952Y-57836333D01*
X154963809Y-57836333D01*
X155059047Y-57883952D01*
X155106666Y-57931571D01*
X155154285Y-58026809D01*
X155154285Y-58264904D01*
X155106666Y-58360142D01*
X155059047Y-58407761D01*
X154963809Y-58455380D01*
X154678095Y-58455380D01*
X154582857Y-58407761D01*
X154535238Y-58360142D01*
X156106666Y-58455380D02*
X155535238Y-58455380D01*
X155820952Y-58455380D02*
X155820952Y-57455380D01*
X155725714Y-57598238D01*
X155630476Y-57693476D01*
X155535238Y-57741095D01*
X157059047Y-58455380D02*
X156487619Y-58455380D01*
X156773333Y-58455380D02*
X156773333Y-57455380D01*
X156678095Y-57598238D01*
X156582857Y-57693476D01*
X156487619Y-57741095D01*
G04 #@! TO.C,TP312*
X151455714Y-63424380D02*
X152027142Y-63424380D01*
X151741428Y-64424380D02*
X151741428Y-63424380D01*
X152360476Y-64424380D02*
X152360476Y-63424380D01*
X152741428Y-63424380D01*
X152836666Y-63472000D01*
X152884285Y-63519619D01*
X152931904Y-63614857D01*
X152931904Y-63757714D01*
X152884285Y-63852952D01*
X152836666Y-63900571D01*
X152741428Y-63948190D01*
X152360476Y-63948190D01*
X153265238Y-63424380D02*
X153884285Y-63424380D01*
X153550952Y-63805333D01*
X153693809Y-63805333D01*
X153789047Y-63852952D01*
X153836666Y-63900571D01*
X153884285Y-63995809D01*
X153884285Y-64233904D01*
X153836666Y-64329142D01*
X153789047Y-64376761D01*
X153693809Y-64424380D01*
X153408095Y-64424380D01*
X153312857Y-64376761D01*
X153265238Y-64329142D01*
X154836666Y-64424380D02*
X154265238Y-64424380D01*
X154550952Y-64424380D02*
X154550952Y-63424380D01*
X154455714Y-63567238D01*
X154360476Y-63662476D01*
X154265238Y-63710095D01*
X155217619Y-63519619D02*
X155265238Y-63472000D01*
X155360476Y-63424380D01*
X155598571Y-63424380D01*
X155693809Y-63472000D01*
X155741428Y-63519619D01*
X155789047Y-63614857D01*
X155789047Y-63710095D01*
X155741428Y-63852952D01*
X155170000Y-64424380D01*
X155789047Y-64424380D01*
G04 #@! TO.C,TP313*
X124785714Y-72822380D02*
X125357142Y-72822380D01*
X125071428Y-73822380D02*
X125071428Y-72822380D01*
X125690476Y-73822380D02*
X125690476Y-72822380D01*
X126071428Y-72822380D01*
X126166666Y-72870000D01*
X126214285Y-72917619D01*
X126261904Y-73012857D01*
X126261904Y-73155714D01*
X126214285Y-73250952D01*
X126166666Y-73298571D01*
X126071428Y-73346190D01*
X125690476Y-73346190D01*
X126595238Y-72822380D02*
X127214285Y-72822380D01*
X126880952Y-73203333D01*
X127023809Y-73203333D01*
X127119047Y-73250952D01*
X127166666Y-73298571D01*
X127214285Y-73393809D01*
X127214285Y-73631904D01*
X127166666Y-73727142D01*
X127119047Y-73774761D01*
X127023809Y-73822380D01*
X126738095Y-73822380D01*
X126642857Y-73774761D01*
X126595238Y-73727142D01*
X128166666Y-73822380D02*
X127595238Y-73822380D01*
X127880952Y-73822380D02*
X127880952Y-72822380D01*
X127785714Y-72965238D01*
X127690476Y-73060476D01*
X127595238Y-73108095D01*
X128500000Y-72822380D02*
X129119047Y-72822380D01*
X128785714Y-73203333D01*
X128928571Y-73203333D01*
X129023809Y-73250952D01*
X129071428Y-73298571D01*
X129119047Y-73393809D01*
X129119047Y-73631904D01*
X129071428Y-73727142D01*
X129023809Y-73774761D01*
X128928571Y-73822380D01*
X128642857Y-73822380D01*
X128547619Y-73774761D01*
X128500000Y-73727142D01*
G04 #@! TO.C,TP314*
X131135714Y-81712380D02*
X131707142Y-81712380D01*
X131421428Y-82712380D02*
X131421428Y-81712380D01*
X132040476Y-82712380D02*
X132040476Y-81712380D01*
X132421428Y-81712380D01*
X132516666Y-81760000D01*
X132564285Y-81807619D01*
X132611904Y-81902857D01*
X132611904Y-82045714D01*
X132564285Y-82140952D01*
X132516666Y-82188571D01*
X132421428Y-82236190D01*
X132040476Y-82236190D01*
X132945238Y-81712380D02*
X133564285Y-81712380D01*
X133230952Y-82093333D01*
X133373809Y-82093333D01*
X133469047Y-82140952D01*
X133516666Y-82188571D01*
X133564285Y-82283809D01*
X133564285Y-82521904D01*
X133516666Y-82617142D01*
X133469047Y-82664761D01*
X133373809Y-82712380D01*
X133088095Y-82712380D01*
X132992857Y-82664761D01*
X132945238Y-82617142D01*
X134516666Y-82712380D02*
X133945238Y-82712380D01*
X134230952Y-82712380D02*
X134230952Y-81712380D01*
X134135714Y-81855238D01*
X134040476Y-81950476D01*
X133945238Y-81998095D01*
X135373809Y-82045714D02*
X135373809Y-82712380D01*
X135135714Y-81664761D02*
X134897619Y-82379047D01*
X135516666Y-82379047D01*
G04 #@! TO.C,TP315*
X131135714Y-79172380D02*
X131707142Y-79172380D01*
X131421428Y-80172380D02*
X131421428Y-79172380D01*
X132040476Y-80172380D02*
X132040476Y-79172380D01*
X132421428Y-79172380D01*
X132516666Y-79220000D01*
X132564285Y-79267619D01*
X132611904Y-79362857D01*
X132611904Y-79505714D01*
X132564285Y-79600952D01*
X132516666Y-79648571D01*
X132421428Y-79696190D01*
X132040476Y-79696190D01*
X132945238Y-79172380D02*
X133564285Y-79172380D01*
X133230952Y-79553333D01*
X133373809Y-79553333D01*
X133469047Y-79600952D01*
X133516666Y-79648571D01*
X133564285Y-79743809D01*
X133564285Y-79981904D01*
X133516666Y-80077142D01*
X133469047Y-80124761D01*
X133373809Y-80172380D01*
X133088095Y-80172380D01*
X132992857Y-80124761D01*
X132945238Y-80077142D01*
X134516666Y-80172380D02*
X133945238Y-80172380D01*
X134230952Y-80172380D02*
X134230952Y-79172380D01*
X134135714Y-79315238D01*
X134040476Y-79410476D01*
X133945238Y-79458095D01*
X135421428Y-79172380D02*
X134945238Y-79172380D01*
X134897619Y-79648571D01*
X134945238Y-79600952D01*
X135040476Y-79553333D01*
X135278571Y-79553333D01*
X135373809Y-79600952D01*
X135421428Y-79648571D01*
X135469047Y-79743809D01*
X135469047Y-79981904D01*
X135421428Y-80077142D01*
X135373809Y-80124761D01*
X135278571Y-80172380D01*
X135040476Y-80172380D01*
X134945238Y-80124761D01*
X134897619Y-80077142D01*
G04 #@! TO.C,TP316*
X166695714Y-78283380D02*
X167267142Y-78283380D01*
X166981428Y-79283380D02*
X166981428Y-78283380D01*
X167600476Y-79283380D02*
X167600476Y-78283380D01*
X167981428Y-78283380D01*
X168076666Y-78331000D01*
X168124285Y-78378619D01*
X168171904Y-78473857D01*
X168171904Y-78616714D01*
X168124285Y-78711952D01*
X168076666Y-78759571D01*
X167981428Y-78807190D01*
X167600476Y-78807190D01*
X168505238Y-78283380D02*
X169124285Y-78283380D01*
X168790952Y-78664333D01*
X168933809Y-78664333D01*
X169029047Y-78711952D01*
X169076666Y-78759571D01*
X169124285Y-78854809D01*
X169124285Y-79092904D01*
X169076666Y-79188142D01*
X169029047Y-79235761D01*
X168933809Y-79283380D01*
X168648095Y-79283380D01*
X168552857Y-79235761D01*
X168505238Y-79188142D01*
X170076666Y-79283380D02*
X169505238Y-79283380D01*
X169790952Y-79283380D02*
X169790952Y-78283380D01*
X169695714Y-78426238D01*
X169600476Y-78521476D01*
X169505238Y-78569095D01*
X170933809Y-78283380D02*
X170743333Y-78283380D01*
X170648095Y-78331000D01*
X170600476Y-78378619D01*
X170505238Y-78521476D01*
X170457619Y-78711952D01*
X170457619Y-79092904D01*
X170505238Y-79188142D01*
X170552857Y-79235761D01*
X170648095Y-79283380D01*
X170838571Y-79283380D01*
X170933809Y-79235761D01*
X170981428Y-79188142D01*
X171029047Y-79092904D01*
X171029047Y-78854809D01*
X170981428Y-78759571D01*
X170933809Y-78711952D01*
X170838571Y-78664333D01*
X170648095Y-78664333D01*
X170552857Y-78711952D01*
X170505238Y-78759571D01*
X170457619Y-78854809D01*
G04 #@! TO.C,TP317*
X169870714Y-76632380D02*
X170442142Y-76632380D01*
X170156428Y-77632380D02*
X170156428Y-76632380D01*
X170775476Y-77632380D02*
X170775476Y-76632380D01*
X171156428Y-76632380D01*
X171251666Y-76680000D01*
X171299285Y-76727619D01*
X171346904Y-76822857D01*
X171346904Y-76965714D01*
X171299285Y-77060952D01*
X171251666Y-77108571D01*
X171156428Y-77156190D01*
X170775476Y-77156190D01*
X171680238Y-76632380D02*
X172299285Y-76632380D01*
X171965952Y-77013333D01*
X172108809Y-77013333D01*
X172204047Y-77060952D01*
X172251666Y-77108571D01*
X172299285Y-77203809D01*
X172299285Y-77441904D01*
X172251666Y-77537142D01*
X172204047Y-77584761D01*
X172108809Y-77632380D01*
X171823095Y-77632380D01*
X171727857Y-77584761D01*
X171680238Y-77537142D01*
X173251666Y-77632380D02*
X172680238Y-77632380D01*
X172965952Y-77632380D02*
X172965952Y-76632380D01*
X172870714Y-76775238D01*
X172775476Y-76870476D01*
X172680238Y-76918095D01*
X173585000Y-76632380D02*
X174251666Y-76632380D01*
X173823095Y-77632380D01*
G04 #@! TO.C,TP318*
X173045714Y-68377380D02*
X173617142Y-68377380D01*
X173331428Y-69377380D02*
X173331428Y-68377380D01*
X173950476Y-69377380D02*
X173950476Y-68377380D01*
X174331428Y-68377380D01*
X174426666Y-68425000D01*
X174474285Y-68472619D01*
X174521904Y-68567857D01*
X174521904Y-68710714D01*
X174474285Y-68805952D01*
X174426666Y-68853571D01*
X174331428Y-68901190D01*
X173950476Y-68901190D01*
X174855238Y-68377380D02*
X175474285Y-68377380D01*
X175140952Y-68758333D01*
X175283809Y-68758333D01*
X175379047Y-68805952D01*
X175426666Y-68853571D01*
X175474285Y-68948809D01*
X175474285Y-69186904D01*
X175426666Y-69282142D01*
X175379047Y-69329761D01*
X175283809Y-69377380D01*
X174998095Y-69377380D01*
X174902857Y-69329761D01*
X174855238Y-69282142D01*
X176426666Y-69377380D02*
X175855238Y-69377380D01*
X176140952Y-69377380D02*
X176140952Y-68377380D01*
X176045714Y-68520238D01*
X175950476Y-68615476D01*
X175855238Y-68663095D01*
X176998095Y-68805952D02*
X176902857Y-68758333D01*
X176855238Y-68710714D01*
X176807619Y-68615476D01*
X176807619Y-68567857D01*
X176855238Y-68472619D01*
X176902857Y-68425000D01*
X176998095Y-68377380D01*
X177188571Y-68377380D01*
X177283809Y-68425000D01*
X177331428Y-68472619D01*
X177379047Y-68567857D01*
X177379047Y-68615476D01*
X177331428Y-68710714D01*
X177283809Y-68758333D01*
X177188571Y-68805952D01*
X176998095Y-68805952D01*
X176902857Y-68853571D01*
X176855238Y-68901190D01*
X176807619Y-68996428D01*
X176807619Y-69186904D01*
X176855238Y-69282142D01*
X176902857Y-69329761D01*
X176998095Y-69377380D01*
X177188571Y-69377380D01*
X177283809Y-69329761D01*
X177331428Y-69282142D01*
X177379047Y-69186904D01*
X177379047Y-68996428D01*
X177331428Y-68901190D01*
X177283809Y-68853571D01*
X177188571Y-68805952D01*
G04 #@! TO.C,TP319*
X184348714Y-60122380D02*
X184920142Y-60122380D01*
X184634428Y-61122380D02*
X184634428Y-60122380D01*
X185253476Y-61122380D02*
X185253476Y-60122380D01*
X185634428Y-60122380D01*
X185729666Y-60170000D01*
X185777285Y-60217619D01*
X185824904Y-60312857D01*
X185824904Y-60455714D01*
X185777285Y-60550952D01*
X185729666Y-60598571D01*
X185634428Y-60646190D01*
X185253476Y-60646190D01*
X186158238Y-60122380D02*
X186777285Y-60122380D01*
X186443952Y-60503333D01*
X186586809Y-60503333D01*
X186682047Y-60550952D01*
X186729666Y-60598571D01*
X186777285Y-60693809D01*
X186777285Y-60931904D01*
X186729666Y-61027142D01*
X186682047Y-61074761D01*
X186586809Y-61122380D01*
X186301095Y-61122380D01*
X186205857Y-61074761D01*
X186158238Y-61027142D01*
X187729666Y-61122380D02*
X187158238Y-61122380D01*
X187443952Y-61122380D02*
X187443952Y-60122380D01*
X187348714Y-60265238D01*
X187253476Y-60360476D01*
X187158238Y-60408095D01*
X188205857Y-61122380D02*
X188396333Y-61122380D01*
X188491571Y-61074761D01*
X188539190Y-61027142D01*
X188634428Y-60884285D01*
X188682047Y-60693809D01*
X188682047Y-60312857D01*
X188634428Y-60217619D01*
X188586809Y-60170000D01*
X188491571Y-60122380D01*
X188301095Y-60122380D01*
X188205857Y-60170000D01*
X188158238Y-60217619D01*
X188110619Y-60312857D01*
X188110619Y-60550952D01*
X188158238Y-60646190D01*
X188205857Y-60693809D01*
X188301095Y-60741428D01*
X188491571Y-60741428D01*
X188586809Y-60693809D01*
X188634428Y-60646190D01*
X188682047Y-60550952D01*
G04 #@! TO.C,TP320*
X171140714Y-71552380D02*
X171712142Y-71552380D01*
X171426428Y-72552380D02*
X171426428Y-71552380D01*
X172045476Y-72552380D02*
X172045476Y-71552380D01*
X172426428Y-71552380D01*
X172521666Y-71600000D01*
X172569285Y-71647619D01*
X172616904Y-71742857D01*
X172616904Y-71885714D01*
X172569285Y-71980952D01*
X172521666Y-72028571D01*
X172426428Y-72076190D01*
X172045476Y-72076190D01*
X172950238Y-71552380D02*
X173569285Y-71552380D01*
X173235952Y-71933333D01*
X173378809Y-71933333D01*
X173474047Y-71980952D01*
X173521666Y-72028571D01*
X173569285Y-72123809D01*
X173569285Y-72361904D01*
X173521666Y-72457142D01*
X173474047Y-72504761D01*
X173378809Y-72552380D01*
X173093095Y-72552380D01*
X172997857Y-72504761D01*
X172950238Y-72457142D01*
X173950238Y-71647619D02*
X173997857Y-71600000D01*
X174093095Y-71552380D01*
X174331190Y-71552380D01*
X174426428Y-71600000D01*
X174474047Y-71647619D01*
X174521666Y-71742857D01*
X174521666Y-71838095D01*
X174474047Y-71980952D01*
X173902619Y-72552380D01*
X174521666Y-72552380D01*
X175140714Y-71552380D02*
X175235952Y-71552380D01*
X175331190Y-71600000D01*
X175378809Y-71647619D01*
X175426428Y-71742857D01*
X175474047Y-71933333D01*
X175474047Y-72171428D01*
X175426428Y-72361904D01*
X175378809Y-72457142D01*
X175331190Y-72504761D01*
X175235952Y-72552380D01*
X175140714Y-72552380D01*
X175045476Y-72504761D01*
X174997857Y-72457142D01*
X174950238Y-72361904D01*
X174902619Y-72171428D01*
X174902619Y-71933333D01*
X174950238Y-71742857D01*
X174997857Y-71647619D01*
X175045476Y-71600000D01*
X175140714Y-71552380D01*
G04 #@! TO.C,TP321*
X173807714Y-72949380D02*
X174379142Y-72949380D01*
X174093428Y-73949380D02*
X174093428Y-72949380D01*
X174712476Y-73949380D02*
X174712476Y-72949380D01*
X175093428Y-72949380D01*
X175188666Y-72997000D01*
X175236285Y-73044619D01*
X175283904Y-73139857D01*
X175283904Y-73282714D01*
X175236285Y-73377952D01*
X175188666Y-73425571D01*
X175093428Y-73473190D01*
X174712476Y-73473190D01*
X175617238Y-72949380D02*
X176236285Y-72949380D01*
X175902952Y-73330333D01*
X176045809Y-73330333D01*
X176141047Y-73377952D01*
X176188666Y-73425571D01*
X176236285Y-73520809D01*
X176236285Y-73758904D01*
X176188666Y-73854142D01*
X176141047Y-73901761D01*
X176045809Y-73949380D01*
X175760095Y-73949380D01*
X175664857Y-73901761D01*
X175617238Y-73854142D01*
X176617238Y-73044619D02*
X176664857Y-72997000D01*
X176760095Y-72949380D01*
X176998190Y-72949380D01*
X177093428Y-72997000D01*
X177141047Y-73044619D01*
X177188666Y-73139857D01*
X177188666Y-73235095D01*
X177141047Y-73377952D01*
X176569619Y-73949380D01*
X177188666Y-73949380D01*
X178141047Y-73949380D02*
X177569619Y-73949380D01*
X177855333Y-73949380D02*
X177855333Y-72949380D01*
X177760095Y-73092238D01*
X177664857Y-73187476D01*
X177569619Y-73235095D01*
G04 #@! TO.C,TP322*
X192095714Y-70282380D02*
X192667142Y-70282380D01*
X192381428Y-71282380D02*
X192381428Y-70282380D01*
X193000476Y-71282380D02*
X193000476Y-70282380D01*
X193381428Y-70282380D01*
X193476666Y-70330000D01*
X193524285Y-70377619D01*
X193571904Y-70472857D01*
X193571904Y-70615714D01*
X193524285Y-70710952D01*
X193476666Y-70758571D01*
X193381428Y-70806190D01*
X193000476Y-70806190D01*
X193905238Y-70282380D02*
X194524285Y-70282380D01*
X194190952Y-70663333D01*
X194333809Y-70663333D01*
X194429047Y-70710952D01*
X194476666Y-70758571D01*
X194524285Y-70853809D01*
X194524285Y-71091904D01*
X194476666Y-71187142D01*
X194429047Y-71234761D01*
X194333809Y-71282380D01*
X194048095Y-71282380D01*
X193952857Y-71234761D01*
X193905238Y-71187142D01*
X194905238Y-70377619D02*
X194952857Y-70330000D01*
X195048095Y-70282380D01*
X195286190Y-70282380D01*
X195381428Y-70330000D01*
X195429047Y-70377619D01*
X195476666Y-70472857D01*
X195476666Y-70568095D01*
X195429047Y-70710952D01*
X194857619Y-71282380D01*
X195476666Y-71282380D01*
X195857619Y-70377619D02*
X195905238Y-70330000D01*
X196000476Y-70282380D01*
X196238571Y-70282380D01*
X196333809Y-70330000D01*
X196381428Y-70377619D01*
X196429047Y-70472857D01*
X196429047Y-70568095D01*
X196381428Y-70710952D01*
X195810000Y-71282380D01*
X196429047Y-71282380D01*
G04 #@! TO.C,TP323*
X192095714Y-74092380D02*
X192667142Y-74092380D01*
X192381428Y-75092380D02*
X192381428Y-74092380D01*
X193000476Y-75092380D02*
X193000476Y-74092380D01*
X193381428Y-74092380D01*
X193476666Y-74140000D01*
X193524285Y-74187619D01*
X193571904Y-74282857D01*
X193571904Y-74425714D01*
X193524285Y-74520952D01*
X193476666Y-74568571D01*
X193381428Y-74616190D01*
X193000476Y-74616190D01*
X193905238Y-74092380D02*
X194524285Y-74092380D01*
X194190952Y-74473333D01*
X194333809Y-74473333D01*
X194429047Y-74520952D01*
X194476666Y-74568571D01*
X194524285Y-74663809D01*
X194524285Y-74901904D01*
X194476666Y-74997142D01*
X194429047Y-75044761D01*
X194333809Y-75092380D01*
X194048095Y-75092380D01*
X193952857Y-75044761D01*
X193905238Y-74997142D01*
X194905238Y-74187619D02*
X194952857Y-74140000D01*
X195048095Y-74092380D01*
X195286190Y-74092380D01*
X195381428Y-74140000D01*
X195429047Y-74187619D01*
X195476666Y-74282857D01*
X195476666Y-74378095D01*
X195429047Y-74520952D01*
X194857619Y-75092380D01*
X195476666Y-75092380D01*
X195810000Y-74092380D02*
X196429047Y-74092380D01*
X196095714Y-74473333D01*
X196238571Y-74473333D01*
X196333809Y-74520952D01*
X196381428Y-74568571D01*
X196429047Y-74663809D01*
X196429047Y-74901904D01*
X196381428Y-74997142D01*
X196333809Y-75044761D01*
X196238571Y-75092380D01*
X195952857Y-75092380D01*
X195857619Y-75044761D01*
X195810000Y-74997142D01*
G04 #@! TO.C,TP324*
X192095714Y-77902380D02*
X192667142Y-77902380D01*
X192381428Y-78902380D02*
X192381428Y-77902380D01*
X193000476Y-78902380D02*
X193000476Y-77902380D01*
X193381428Y-77902380D01*
X193476666Y-77950000D01*
X193524285Y-77997619D01*
X193571904Y-78092857D01*
X193571904Y-78235714D01*
X193524285Y-78330952D01*
X193476666Y-78378571D01*
X193381428Y-78426190D01*
X193000476Y-78426190D01*
X193905238Y-77902380D02*
X194524285Y-77902380D01*
X194190952Y-78283333D01*
X194333809Y-78283333D01*
X194429047Y-78330952D01*
X194476666Y-78378571D01*
X194524285Y-78473809D01*
X194524285Y-78711904D01*
X194476666Y-78807142D01*
X194429047Y-78854761D01*
X194333809Y-78902380D01*
X194048095Y-78902380D01*
X193952857Y-78854761D01*
X193905238Y-78807142D01*
X194905238Y-77997619D02*
X194952857Y-77950000D01*
X195048095Y-77902380D01*
X195286190Y-77902380D01*
X195381428Y-77950000D01*
X195429047Y-77997619D01*
X195476666Y-78092857D01*
X195476666Y-78188095D01*
X195429047Y-78330952D01*
X194857619Y-78902380D01*
X195476666Y-78902380D01*
X196333809Y-78235714D02*
X196333809Y-78902380D01*
X196095714Y-77854761D02*
X195857619Y-78569047D01*
X196476666Y-78569047D01*
G04 #@! TO.C,U101*
X111671380Y-80708285D02*
X112480904Y-80708285D01*
X112576142Y-80660666D01*
X112623761Y-80613047D01*
X112671380Y-80517809D01*
X112671380Y-80327333D01*
X112623761Y-80232095D01*
X112576142Y-80184476D01*
X112480904Y-80136857D01*
X111671380Y-80136857D01*
X112671380Y-79136857D02*
X112671380Y-79708285D01*
X112671380Y-79422571D02*
X111671380Y-79422571D01*
X111814238Y-79517809D01*
X111909476Y-79613047D01*
X111957095Y-79708285D01*
X111671380Y-78517809D02*
X111671380Y-78422571D01*
X111719000Y-78327333D01*
X111766619Y-78279714D01*
X111861857Y-78232095D01*
X112052333Y-78184476D01*
X112290428Y-78184476D01*
X112480904Y-78232095D01*
X112576142Y-78279714D01*
X112623761Y-78327333D01*
X112671380Y-78422571D01*
X112671380Y-78517809D01*
X112623761Y-78613047D01*
X112576142Y-78660666D01*
X112480904Y-78708285D01*
X112290428Y-78755904D01*
X112052333Y-78755904D01*
X111861857Y-78708285D01*
X111766619Y-78660666D01*
X111719000Y-78613047D01*
X111671380Y-78517809D01*
X112671380Y-77232095D02*
X112671380Y-77803523D01*
X112671380Y-77517809D02*
X111671380Y-77517809D01*
X111814238Y-77613047D01*
X111909476Y-77708285D01*
X111957095Y-77803523D01*
G04 #@! TO.C,U102*
X111671380Y-77660285D02*
X112480904Y-77660285D01*
X112576142Y-77612666D01*
X112623761Y-77565047D01*
X112671380Y-77469809D01*
X112671380Y-77279333D01*
X112623761Y-77184095D01*
X112576142Y-77136476D01*
X112480904Y-77088857D01*
X111671380Y-77088857D01*
X112671380Y-76088857D02*
X112671380Y-76660285D01*
X112671380Y-76374571D02*
X111671380Y-76374571D01*
X111814238Y-76469809D01*
X111909476Y-76565047D01*
X111957095Y-76660285D01*
X111671380Y-75469809D02*
X111671380Y-75374571D01*
X111719000Y-75279333D01*
X111766619Y-75231714D01*
X111861857Y-75184095D01*
X112052333Y-75136476D01*
X112290428Y-75136476D01*
X112480904Y-75184095D01*
X112576142Y-75231714D01*
X112623761Y-75279333D01*
X112671380Y-75374571D01*
X112671380Y-75469809D01*
X112623761Y-75565047D01*
X112576142Y-75612666D01*
X112480904Y-75660285D01*
X112290428Y-75707904D01*
X112052333Y-75707904D01*
X111861857Y-75660285D01*
X111766619Y-75612666D01*
X111719000Y-75565047D01*
X111671380Y-75469809D01*
X111766619Y-74755523D02*
X111719000Y-74707904D01*
X111671380Y-74612666D01*
X111671380Y-74374571D01*
X111719000Y-74279333D01*
X111766619Y-74231714D01*
X111861857Y-74184095D01*
X111957095Y-74184095D01*
X112099952Y-74231714D01*
X112671380Y-74803142D01*
X112671380Y-74184095D01*
G04 #@! TO.C,U301*
X162207380Y-71564285D02*
X163016904Y-71564285D01*
X163112142Y-71516666D01*
X163159761Y-71469047D01*
X163207380Y-71373809D01*
X163207380Y-71183333D01*
X163159761Y-71088095D01*
X163112142Y-71040476D01*
X163016904Y-70992857D01*
X162207380Y-70992857D01*
X162207380Y-70611904D02*
X162207380Y-69992857D01*
X162588333Y-70326190D01*
X162588333Y-70183333D01*
X162635952Y-70088095D01*
X162683571Y-70040476D01*
X162778809Y-69992857D01*
X163016904Y-69992857D01*
X163112142Y-70040476D01*
X163159761Y-70088095D01*
X163207380Y-70183333D01*
X163207380Y-70469047D01*
X163159761Y-70564285D01*
X163112142Y-70611904D01*
X162207380Y-69373809D02*
X162207380Y-69278571D01*
X162255000Y-69183333D01*
X162302619Y-69135714D01*
X162397857Y-69088095D01*
X162588333Y-69040476D01*
X162826428Y-69040476D01*
X163016904Y-69088095D01*
X163112142Y-69135714D01*
X163159761Y-69183333D01*
X163207380Y-69278571D01*
X163207380Y-69373809D01*
X163159761Y-69469047D01*
X163112142Y-69516666D01*
X163016904Y-69564285D01*
X162826428Y-69611904D01*
X162588333Y-69611904D01*
X162397857Y-69564285D01*
X162302619Y-69516666D01*
X162255000Y-69469047D01*
X162207380Y-69373809D01*
X163207380Y-68088095D02*
X163207380Y-68659523D01*
X163207380Y-68373809D02*
X162207380Y-68373809D01*
X162350238Y-68469047D01*
X162445476Y-68564285D01*
X162493095Y-68659523D01*
G04 #@! TO.C,U401*
X114109714Y-73707380D02*
X114109714Y-74516904D01*
X114157333Y-74612142D01*
X114204952Y-74659761D01*
X114300190Y-74707380D01*
X114490666Y-74707380D01*
X114585904Y-74659761D01*
X114633523Y-74612142D01*
X114681142Y-74516904D01*
X114681142Y-73707380D01*
X115585904Y-74040714D02*
X115585904Y-74707380D01*
X115347809Y-73659761D02*
X115109714Y-74374047D01*
X115728761Y-74374047D01*
X116300190Y-73707380D02*
X116395428Y-73707380D01*
X116490666Y-73755000D01*
X116538285Y-73802619D01*
X116585904Y-73897857D01*
X116633523Y-74088333D01*
X116633523Y-74326428D01*
X116585904Y-74516904D01*
X116538285Y-74612142D01*
X116490666Y-74659761D01*
X116395428Y-74707380D01*
X116300190Y-74707380D01*
X116204952Y-74659761D01*
X116157333Y-74612142D01*
X116109714Y-74516904D01*
X116062095Y-74326428D01*
X116062095Y-74088333D01*
X116109714Y-73897857D01*
X116157333Y-73802619D01*
X116204952Y-73755000D01*
X116300190Y-73707380D01*
X117585904Y-74707380D02*
X117014476Y-74707380D01*
X117300190Y-74707380D02*
X117300190Y-73707380D01*
X117204952Y-73850238D01*
X117109714Y-73945476D01*
X117014476Y-73993095D01*
G04 #@! TO.C,U501*
X150709380Y-84518285D02*
X151518904Y-84518285D01*
X151614142Y-84470666D01*
X151661761Y-84423047D01*
X151709380Y-84327809D01*
X151709380Y-84137333D01*
X151661761Y-84042095D01*
X151614142Y-83994476D01*
X151518904Y-83946857D01*
X150709380Y-83946857D01*
X150709380Y-82994476D02*
X150709380Y-83470666D01*
X151185571Y-83518285D01*
X151137952Y-83470666D01*
X151090333Y-83375428D01*
X151090333Y-83137333D01*
X151137952Y-83042095D01*
X151185571Y-82994476D01*
X151280809Y-82946857D01*
X151518904Y-82946857D01*
X151614142Y-82994476D01*
X151661761Y-83042095D01*
X151709380Y-83137333D01*
X151709380Y-83375428D01*
X151661761Y-83470666D01*
X151614142Y-83518285D01*
X150709380Y-82327809D02*
X150709380Y-82232571D01*
X150757000Y-82137333D01*
X150804619Y-82089714D01*
X150899857Y-82042095D01*
X151090333Y-81994476D01*
X151328428Y-81994476D01*
X151518904Y-82042095D01*
X151614142Y-82089714D01*
X151661761Y-82137333D01*
X151709380Y-82232571D01*
X151709380Y-82327809D01*
X151661761Y-82423047D01*
X151614142Y-82470666D01*
X151518904Y-82518285D01*
X151328428Y-82565904D01*
X151090333Y-82565904D01*
X150899857Y-82518285D01*
X150804619Y-82470666D01*
X150757000Y-82423047D01*
X150709380Y-82327809D01*
X151709380Y-81042095D02*
X151709380Y-81613523D01*
X151709380Y-81327809D02*
X150709380Y-81327809D01*
X150852238Y-81423047D01*
X150947476Y-81518285D01*
X150995095Y-81613523D01*
G04 #@! TO.C,U601*
X136715714Y-62112380D02*
X136715714Y-62921904D01*
X136763333Y-63017142D01*
X136810952Y-63064761D01*
X136906190Y-63112380D01*
X137096666Y-63112380D01*
X137191904Y-63064761D01*
X137239523Y-63017142D01*
X137287142Y-62921904D01*
X137287142Y-62112380D01*
X138191904Y-62112380D02*
X138001428Y-62112380D01*
X137906190Y-62160000D01*
X137858571Y-62207619D01*
X137763333Y-62350476D01*
X137715714Y-62540952D01*
X137715714Y-62921904D01*
X137763333Y-63017142D01*
X137810952Y-63064761D01*
X137906190Y-63112380D01*
X138096666Y-63112380D01*
X138191904Y-63064761D01*
X138239523Y-63017142D01*
X138287142Y-62921904D01*
X138287142Y-62683809D01*
X138239523Y-62588571D01*
X138191904Y-62540952D01*
X138096666Y-62493333D01*
X137906190Y-62493333D01*
X137810952Y-62540952D01*
X137763333Y-62588571D01*
X137715714Y-62683809D01*
X138906190Y-62112380D02*
X139001428Y-62112380D01*
X139096666Y-62160000D01*
X139144285Y-62207619D01*
X139191904Y-62302857D01*
X139239523Y-62493333D01*
X139239523Y-62731428D01*
X139191904Y-62921904D01*
X139144285Y-63017142D01*
X139096666Y-63064761D01*
X139001428Y-63112380D01*
X138906190Y-63112380D01*
X138810952Y-63064761D01*
X138763333Y-63017142D01*
X138715714Y-62921904D01*
X138668095Y-62731428D01*
X138668095Y-62493333D01*
X138715714Y-62302857D01*
X138763333Y-62207619D01*
X138810952Y-62160000D01*
X138906190Y-62112380D01*
X140191904Y-63112380D02*
X139620476Y-63112380D01*
X139906190Y-63112380D02*
X139906190Y-62112380D01*
X139810952Y-62255238D01*
X139715714Y-62350476D01*
X139620476Y-62398095D01*
G04 #@! TO.C,J110*
X138227381Y-60975714D02*
X138941667Y-60975714D01*
X139084524Y-61023333D01*
X139179762Y-61118571D01*
X139227381Y-61261428D01*
X139227381Y-61356666D01*
X139227381Y-59975714D02*
X139227381Y-60547142D01*
X139227381Y-60261428D02*
X138227381Y-60261428D01*
X138370239Y-60356666D01*
X138465477Y-60451904D01*
X138513096Y-60547142D01*
X139227381Y-59023333D02*
X139227381Y-59594761D01*
X139227381Y-59309047D02*
X138227381Y-59309047D01*
X138370239Y-59404285D01*
X138465477Y-59499523D01*
X138513096Y-59594761D01*
X138227381Y-58404285D02*
X138227381Y-58309047D01*
X138275001Y-58213809D01*
X138322620Y-58166190D01*
X138417858Y-58118571D01*
X138608334Y-58070952D01*
X138846429Y-58070952D01*
X139036905Y-58118571D01*
X139132143Y-58166190D01*
X139179762Y-58213809D01*
X139227381Y-58309047D01*
X139227381Y-58404285D01*
X139179762Y-58499523D01*
X139132143Y-58547142D01*
X139036905Y-58594761D01*
X138846429Y-58642380D01*
X138608334Y-58642380D01*
X138417858Y-58594761D01*
X138322620Y-58547142D01*
X138275001Y-58499523D01*
X138227381Y-58404285D01*
G04 #@! TO.C,J204*
X124083380Y-60213714D02*
X124797666Y-60213714D01*
X124940523Y-60261333D01*
X125035761Y-60356571D01*
X125083380Y-60499428D01*
X125083380Y-60594666D01*
X124178619Y-59785142D02*
X124131000Y-59737523D01*
X124083380Y-59642285D01*
X124083380Y-59404190D01*
X124131000Y-59308952D01*
X124178619Y-59261333D01*
X124273857Y-59213714D01*
X124369095Y-59213714D01*
X124511952Y-59261333D01*
X125083380Y-59832761D01*
X125083380Y-59213714D01*
X124083380Y-58594666D02*
X124083380Y-58499428D01*
X124131000Y-58404190D01*
X124178619Y-58356571D01*
X124273857Y-58308952D01*
X124464333Y-58261333D01*
X124702428Y-58261333D01*
X124892904Y-58308952D01*
X124988142Y-58356571D01*
X125035761Y-58404190D01*
X125083380Y-58499428D01*
X125083380Y-58594666D01*
X125035761Y-58689904D01*
X124988142Y-58737523D01*
X124892904Y-58785142D01*
X124702428Y-58832761D01*
X124464333Y-58832761D01*
X124273857Y-58785142D01*
X124178619Y-58737523D01*
X124131000Y-58689904D01*
X124083380Y-58594666D01*
X124416714Y-57404190D02*
X125083380Y-57404190D01*
X124035761Y-57642285D02*
X124750047Y-57880380D01*
X124750047Y-57261333D01*
G04 #@! TO.C,R203*
X110259952Y-56867380D02*
X109926619Y-56391190D01*
X109688523Y-56867380D02*
X109688523Y-55867380D01*
X110069476Y-55867380D01*
X110164714Y-55915000D01*
X110212333Y-55962619D01*
X110259952Y-56057857D01*
X110259952Y-56200714D01*
X110212333Y-56295952D01*
X110164714Y-56343571D01*
X110069476Y-56391190D01*
X109688523Y-56391190D01*
X110640904Y-55962619D02*
X110688523Y-55915000D01*
X110783761Y-55867380D01*
X111021857Y-55867380D01*
X111117095Y-55915000D01*
X111164714Y-55962619D01*
X111212333Y-56057857D01*
X111212333Y-56153095D01*
X111164714Y-56295952D01*
X110593285Y-56867380D01*
X111212333Y-56867380D01*
X111831380Y-55867380D02*
X111926619Y-55867380D01*
X112021857Y-55915000D01*
X112069476Y-55962619D01*
X112117095Y-56057857D01*
X112164714Y-56248333D01*
X112164714Y-56486428D01*
X112117095Y-56676904D01*
X112069476Y-56772142D01*
X112021857Y-56819761D01*
X111926619Y-56867380D01*
X111831380Y-56867380D01*
X111736142Y-56819761D01*
X111688523Y-56772142D01*
X111640904Y-56676904D01*
X111593285Y-56486428D01*
X111593285Y-56248333D01*
X111640904Y-56057857D01*
X111688523Y-55962619D01*
X111736142Y-55915000D01*
X111831380Y-55867380D01*
X112498047Y-55867380D02*
X113117095Y-55867380D01*
X112783761Y-56248333D01*
X112926619Y-56248333D01*
X113021857Y-56295952D01*
X113069476Y-56343571D01*
X113117095Y-56438809D01*
X113117095Y-56676904D01*
X113069476Y-56772142D01*
X113021857Y-56819761D01*
X112926619Y-56867380D01*
X112640904Y-56867380D01*
X112545666Y-56819761D01*
X112498047Y-56772142D01*
G04 #@! TO.C,R204*
X112799952Y-54527380D02*
X112466619Y-54051190D01*
X112228523Y-54527380D02*
X112228523Y-53527380D01*
X112609476Y-53527380D01*
X112704714Y-53575000D01*
X112752333Y-53622619D01*
X112799952Y-53717857D01*
X112799952Y-53860714D01*
X112752333Y-53955952D01*
X112704714Y-54003571D01*
X112609476Y-54051190D01*
X112228523Y-54051190D01*
X113180904Y-53622619D02*
X113228523Y-53575000D01*
X113323761Y-53527380D01*
X113561857Y-53527380D01*
X113657095Y-53575000D01*
X113704714Y-53622619D01*
X113752333Y-53717857D01*
X113752333Y-53813095D01*
X113704714Y-53955952D01*
X113133285Y-54527380D01*
X113752333Y-54527380D01*
X114371380Y-53527380D02*
X114466619Y-53527380D01*
X114561857Y-53575000D01*
X114609476Y-53622619D01*
X114657095Y-53717857D01*
X114704714Y-53908333D01*
X114704714Y-54146428D01*
X114657095Y-54336904D01*
X114609476Y-54432142D01*
X114561857Y-54479761D01*
X114466619Y-54527380D01*
X114371380Y-54527380D01*
X114276142Y-54479761D01*
X114228523Y-54432142D01*
X114180904Y-54336904D01*
X114133285Y-54146428D01*
X114133285Y-53908333D01*
X114180904Y-53717857D01*
X114228523Y-53622619D01*
X114276142Y-53575000D01*
X114371380Y-53527380D01*
X115561857Y-53860714D02*
X115561857Y-54527380D01*
X115323761Y-53479761D02*
X115085666Y-54194047D01*
X115704714Y-54194047D01*
G04 #@! TO.C,R205*
X117879952Y-54527380D02*
X117546619Y-54051190D01*
X117308523Y-54527380D02*
X117308523Y-53527380D01*
X117689476Y-53527380D01*
X117784714Y-53575000D01*
X117832333Y-53622619D01*
X117879952Y-53717857D01*
X117879952Y-53860714D01*
X117832333Y-53955952D01*
X117784714Y-54003571D01*
X117689476Y-54051190D01*
X117308523Y-54051190D01*
X118260904Y-53622619D02*
X118308523Y-53575000D01*
X118403761Y-53527380D01*
X118641857Y-53527380D01*
X118737095Y-53575000D01*
X118784714Y-53622619D01*
X118832333Y-53717857D01*
X118832333Y-53813095D01*
X118784714Y-53955952D01*
X118213285Y-54527380D01*
X118832333Y-54527380D01*
X119451380Y-53527380D02*
X119546619Y-53527380D01*
X119641857Y-53575000D01*
X119689476Y-53622619D01*
X119737095Y-53717857D01*
X119784714Y-53908333D01*
X119784714Y-54146428D01*
X119737095Y-54336904D01*
X119689476Y-54432142D01*
X119641857Y-54479761D01*
X119546619Y-54527380D01*
X119451380Y-54527380D01*
X119356142Y-54479761D01*
X119308523Y-54432142D01*
X119260904Y-54336904D01*
X119213285Y-54146428D01*
X119213285Y-53908333D01*
X119260904Y-53717857D01*
X119308523Y-53622619D01*
X119356142Y-53575000D01*
X119451380Y-53527380D01*
X120689476Y-53527380D02*
X120213285Y-53527380D01*
X120165666Y-54003571D01*
X120213285Y-53955952D01*
X120308523Y-53908333D01*
X120546619Y-53908333D01*
X120641857Y-53955952D01*
X120689476Y-54003571D01*
X120737095Y-54098809D01*
X120737095Y-54336904D01*
X120689476Y-54432142D01*
X120641857Y-54479761D01*
X120546619Y-54527380D01*
X120308523Y-54527380D01*
X120213285Y-54479761D01*
X120165666Y-54432142D01*
G04 #@! TO.C,R206*
X120419952Y-56867380D02*
X120086619Y-56391190D01*
X119848523Y-56867380D02*
X119848523Y-55867380D01*
X120229476Y-55867380D01*
X120324714Y-55915000D01*
X120372333Y-55962619D01*
X120419952Y-56057857D01*
X120419952Y-56200714D01*
X120372333Y-56295952D01*
X120324714Y-56343571D01*
X120229476Y-56391190D01*
X119848523Y-56391190D01*
X120800904Y-55962619D02*
X120848523Y-55915000D01*
X120943761Y-55867380D01*
X121181857Y-55867380D01*
X121277095Y-55915000D01*
X121324714Y-55962619D01*
X121372333Y-56057857D01*
X121372333Y-56153095D01*
X121324714Y-56295952D01*
X120753285Y-56867380D01*
X121372333Y-56867380D01*
X121991380Y-55867380D02*
X122086619Y-55867380D01*
X122181857Y-55915000D01*
X122229476Y-55962619D01*
X122277095Y-56057857D01*
X122324714Y-56248333D01*
X122324714Y-56486428D01*
X122277095Y-56676904D01*
X122229476Y-56772142D01*
X122181857Y-56819761D01*
X122086619Y-56867380D01*
X121991380Y-56867380D01*
X121896142Y-56819761D01*
X121848523Y-56772142D01*
X121800904Y-56676904D01*
X121753285Y-56486428D01*
X121753285Y-56248333D01*
X121800904Y-56057857D01*
X121848523Y-55962619D01*
X121896142Y-55915000D01*
X121991380Y-55867380D01*
X123181857Y-55867380D02*
X122991380Y-55867380D01*
X122896142Y-55915000D01*
X122848523Y-55962619D01*
X122753285Y-56105476D01*
X122705666Y-56295952D01*
X122705666Y-56676904D01*
X122753285Y-56772142D01*
X122800904Y-56819761D01*
X122896142Y-56867380D01*
X123086619Y-56867380D01*
X123181857Y-56819761D01*
X123229476Y-56772142D01*
X123277095Y-56676904D01*
X123277095Y-56438809D01*
X123229476Y-56343571D01*
X123181857Y-56295952D01*
X123086619Y-56248333D01*
X122896142Y-56248333D01*
X122800904Y-56295952D01*
X122753285Y-56343571D01*
X122705666Y-56438809D01*
G04 #@! TO.C,U202*
X112458714Y-67595380D02*
X112458714Y-68404904D01*
X112506333Y-68500142D01*
X112553952Y-68547761D01*
X112649190Y-68595380D01*
X112839666Y-68595380D01*
X112934904Y-68547761D01*
X112982523Y-68500142D01*
X113030142Y-68404904D01*
X113030142Y-67595380D01*
X113458714Y-67690619D02*
X113506333Y-67643000D01*
X113601571Y-67595380D01*
X113839666Y-67595380D01*
X113934904Y-67643000D01*
X113982523Y-67690619D01*
X114030142Y-67785857D01*
X114030142Y-67881095D01*
X113982523Y-68023952D01*
X113411095Y-68595380D01*
X114030142Y-68595380D01*
X114649190Y-67595380D02*
X114744428Y-67595380D01*
X114839666Y-67643000D01*
X114887285Y-67690619D01*
X114934904Y-67785857D01*
X114982523Y-67976333D01*
X114982523Y-68214428D01*
X114934904Y-68404904D01*
X114887285Y-68500142D01*
X114839666Y-68547761D01*
X114744428Y-68595380D01*
X114649190Y-68595380D01*
X114553952Y-68547761D01*
X114506333Y-68500142D01*
X114458714Y-68404904D01*
X114411095Y-68214428D01*
X114411095Y-67976333D01*
X114458714Y-67785857D01*
X114506333Y-67690619D01*
X114553952Y-67643000D01*
X114649190Y-67595380D01*
X115363476Y-67690619D02*
X115411095Y-67643000D01*
X115506333Y-67595380D01*
X115744428Y-67595380D01*
X115839666Y-67643000D01*
X115887285Y-67690619D01*
X115934904Y-67785857D01*
X115934904Y-67881095D01*
X115887285Y-68023952D01*
X115315857Y-68595380D01*
X115934904Y-68595380D01*
G04 #@! TO.C,TP301*
X164790714Y-84252380D02*
X165362142Y-84252380D01*
X165076428Y-85252380D02*
X165076428Y-84252380D01*
X165695476Y-85252380D02*
X165695476Y-84252380D01*
X166076428Y-84252380D01*
X166171666Y-84300000D01*
X166219285Y-84347619D01*
X166266904Y-84442857D01*
X166266904Y-84585714D01*
X166219285Y-84680952D01*
X166171666Y-84728571D01*
X166076428Y-84776190D01*
X165695476Y-84776190D01*
X166600238Y-84252380D02*
X167219285Y-84252380D01*
X166885952Y-84633333D01*
X167028809Y-84633333D01*
X167124047Y-84680952D01*
X167171666Y-84728571D01*
X167219285Y-84823809D01*
X167219285Y-85061904D01*
X167171666Y-85157142D01*
X167124047Y-85204761D01*
X167028809Y-85252380D01*
X166743095Y-85252380D01*
X166647857Y-85204761D01*
X166600238Y-85157142D01*
X167838333Y-84252380D02*
X167933571Y-84252380D01*
X168028809Y-84300000D01*
X168076428Y-84347619D01*
X168124047Y-84442857D01*
X168171666Y-84633333D01*
X168171666Y-84871428D01*
X168124047Y-85061904D01*
X168076428Y-85157142D01*
X168028809Y-85204761D01*
X167933571Y-85252380D01*
X167838333Y-85252380D01*
X167743095Y-85204761D01*
X167695476Y-85157142D01*
X167647857Y-85061904D01*
X167600238Y-84871428D01*
X167600238Y-84633333D01*
X167647857Y-84442857D01*
X167695476Y-84347619D01*
X167743095Y-84300000D01*
X167838333Y-84252380D01*
X169124047Y-85252380D02*
X168552619Y-85252380D01*
X168838333Y-85252380D02*
X168838333Y-84252380D01*
X168743095Y-84395238D01*
X168647857Y-84490476D01*
X168552619Y-84538095D01*
G04 #@! TO.C,TP302*
X164790714Y-80442380D02*
X165362142Y-80442380D01*
X165076428Y-81442380D02*
X165076428Y-80442380D01*
X165695476Y-81442380D02*
X165695476Y-80442380D01*
X166076428Y-80442380D01*
X166171666Y-80490000D01*
X166219285Y-80537619D01*
X166266904Y-80632857D01*
X166266904Y-80775714D01*
X166219285Y-80870952D01*
X166171666Y-80918571D01*
X166076428Y-80966190D01*
X165695476Y-80966190D01*
X166600238Y-80442380D02*
X167219285Y-80442380D01*
X166885952Y-80823333D01*
X167028809Y-80823333D01*
X167124047Y-80870952D01*
X167171666Y-80918571D01*
X167219285Y-81013809D01*
X167219285Y-81251904D01*
X167171666Y-81347142D01*
X167124047Y-81394761D01*
X167028809Y-81442380D01*
X166743095Y-81442380D01*
X166647857Y-81394761D01*
X166600238Y-81347142D01*
X167838333Y-80442380D02*
X167933571Y-80442380D01*
X168028809Y-80490000D01*
X168076428Y-80537619D01*
X168124047Y-80632857D01*
X168171666Y-80823333D01*
X168171666Y-81061428D01*
X168124047Y-81251904D01*
X168076428Y-81347142D01*
X168028809Y-81394761D01*
X167933571Y-81442380D01*
X167838333Y-81442380D01*
X167743095Y-81394761D01*
X167695476Y-81347142D01*
X167647857Y-81251904D01*
X167600238Y-81061428D01*
X167600238Y-80823333D01*
X167647857Y-80632857D01*
X167695476Y-80537619D01*
X167743095Y-80490000D01*
X167838333Y-80442380D01*
X168552619Y-80537619D02*
X168600238Y-80490000D01*
X168695476Y-80442380D01*
X168933571Y-80442380D01*
X169028809Y-80490000D01*
X169076428Y-80537619D01*
X169124047Y-80632857D01*
X169124047Y-80728095D01*
X169076428Y-80870952D01*
X168505000Y-81442380D01*
X169124047Y-81442380D01*
G04 #@! TO.C,J111*
X167497285Y-61392380D02*
X167497285Y-62106666D01*
X167449666Y-62249523D01*
X167354428Y-62344761D01*
X167211571Y-62392380D01*
X167116333Y-62392380D01*
X168497285Y-62392380D02*
X167925857Y-62392380D01*
X168211571Y-62392380D02*
X168211571Y-61392380D01*
X168116333Y-61535238D01*
X168021095Y-61630476D01*
X167925857Y-61678095D01*
X169449666Y-62392380D02*
X168878238Y-62392380D01*
X169163952Y-62392380D02*
X169163952Y-61392380D01*
X169068714Y-61535238D01*
X168973476Y-61630476D01*
X168878238Y-61678095D01*
X170402047Y-62392380D02*
X169830619Y-62392380D01*
X170116333Y-62392380D02*
X170116333Y-61392380D01*
X170021095Y-61535238D01*
X169925857Y-61630476D01*
X169830619Y-61678095D01*
G04 #@! TO.C,R108*
X166520952Y-66265380D02*
X166187619Y-65789190D01*
X165949523Y-66265380D02*
X165949523Y-65265380D01*
X166330476Y-65265380D01*
X166425714Y-65313000D01*
X166473333Y-65360619D01*
X166520952Y-65455857D01*
X166520952Y-65598714D01*
X166473333Y-65693952D01*
X166425714Y-65741571D01*
X166330476Y-65789190D01*
X165949523Y-65789190D01*
X167473333Y-66265380D02*
X166901904Y-66265380D01*
X167187619Y-66265380D02*
X167187619Y-65265380D01*
X167092380Y-65408238D01*
X166997142Y-65503476D01*
X166901904Y-65551095D01*
X168092380Y-65265380D02*
X168187619Y-65265380D01*
X168282857Y-65313000D01*
X168330476Y-65360619D01*
X168378095Y-65455857D01*
X168425714Y-65646333D01*
X168425714Y-65884428D01*
X168378095Y-66074904D01*
X168330476Y-66170142D01*
X168282857Y-66217761D01*
X168187619Y-66265380D01*
X168092380Y-66265380D01*
X167997142Y-66217761D01*
X167949523Y-66170142D01*
X167901904Y-66074904D01*
X167854285Y-65884428D01*
X167854285Y-65646333D01*
X167901904Y-65455857D01*
X167949523Y-65360619D01*
X167997142Y-65313000D01*
X168092380Y-65265380D01*
X168997142Y-65693952D02*
X168901904Y-65646333D01*
X168854285Y-65598714D01*
X168806666Y-65503476D01*
X168806666Y-65455857D01*
X168854285Y-65360619D01*
X168901904Y-65313000D01*
X168997142Y-65265380D01*
X169187619Y-65265380D01*
X169282857Y-65313000D01*
X169330476Y-65360619D01*
X169378095Y-65455857D01*
X169378095Y-65503476D01*
X169330476Y-65598714D01*
X169282857Y-65646333D01*
X169187619Y-65693952D01*
X168997142Y-65693952D01*
X168901904Y-65741571D01*
X168854285Y-65789190D01*
X168806666Y-65884428D01*
X168806666Y-66074904D01*
X168854285Y-66170142D01*
X168901904Y-66217761D01*
X168997142Y-66265380D01*
X169187619Y-66265380D01*
X169282857Y-66217761D01*
X169330476Y-66170142D01*
X169378095Y-66074904D01*
X169378095Y-65884428D01*
X169330476Y-65789190D01*
X169282857Y-65741571D01*
X169187619Y-65693952D01*
G04 #@! TO.C,C202*
X105994142Y-68175047D02*
X106041761Y-68222666D01*
X106089380Y-68365523D01*
X106089380Y-68460761D01*
X106041761Y-68603619D01*
X105946523Y-68698857D01*
X105851285Y-68746476D01*
X105660809Y-68794095D01*
X105517952Y-68794095D01*
X105327476Y-68746476D01*
X105232238Y-68698857D01*
X105137000Y-68603619D01*
X105089380Y-68460761D01*
X105089380Y-68365523D01*
X105137000Y-68222666D01*
X105184619Y-68175047D01*
X105184619Y-67794095D02*
X105137000Y-67746476D01*
X105089380Y-67651238D01*
X105089380Y-67413142D01*
X105137000Y-67317904D01*
X105184619Y-67270285D01*
X105279857Y-67222666D01*
X105375095Y-67222666D01*
X105517952Y-67270285D01*
X106089380Y-67841714D01*
X106089380Y-67222666D01*
X105089380Y-66603619D02*
X105089380Y-66508380D01*
X105137000Y-66413142D01*
X105184619Y-66365523D01*
X105279857Y-66317904D01*
X105470333Y-66270285D01*
X105708428Y-66270285D01*
X105898904Y-66317904D01*
X105994142Y-66365523D01*
X106041761Y-66413142D01*
X106089380Y-66508380D01*
X106089380Y-66603619D01*
X106041761Y-66698857D01*
X105994142Y-66746476D01*
X105898904Y-66794095D01*
X105708428Y-66841714D01*
X105470333Y-66841714D01*
X105279857Y-66794095D01*
X105184619Y-66746476D01*
X105137000Y-66698857D01*
X105089380Y-66603619D01*
X105184619Y-65889333D02*
X105137000Y-65841714D01*
X105089380Y-65746476D01*
X105089380Y-65508380D01*
X105137000Y-65413142D01*
X105184619Y-65365523D01*
X105279857Y-65317904D01*
X105375095Y-65317904D01*
X105517952Y-65365523D01*
X106089380Y-65936952D01*
X106089380Y-65317904D01*
G04 #@! TO.C,C203*
X108026142Y-68175047D02*
X108073761Y-68222666D01*
X108121380Y-68365523D01*
X108121380Y-68460761D01*
X108073761Y-68603619D01*
X107978523Y-68698857D01*
X107883285Y-68746476D01*
X107692809Y-68794095D01*
X107549952Y-68794095D01*
X107359476Y-68746476D01*
X107264238Y-68698857D01*
X107169000Y-68603619D01*
X107121380Y-68460761D01*
X107121380Y-68365523D01*
X107169000Y-68222666D01*
X107216619Y-68175047D01*
X107216619Y-67794095D02*
X107169000Y-67746476D01*
X107121380Y-67651238D01*
X107121380Y-67413142D01*
X107169000Y-67317904D01*
X107216619Y-67270285D01*
X107311857Y-67222666D01*
X107407095Y-67222666D01*
X107549952Y-67270285D01*
X108121380Y-67841714D01*
X108121380Y-67222666D01*
X107121380Y-66603619D02*
X107121380Y-66508380D01*
X107169000Y-66413142D01*
X107216619Y-66365523D01*
X107311857Y-66317904D01*
X107502333Y-66270285D01*
X107740428Y-66270285D01*
X107930904Y-66317904D01*
X108026142Y-66365523D01*
X108073761Y-66413142D01*
X108121380Y-66508380D01*
X108121380Y-66603619D01*
X108073761Y-66698857D01*
X108026142Y-66746476D01*
X107930904Y-66794095D01*
X107740428Y-66841714D01*
X107502333Y-66841714D01*
X107311857Y-66794095D01*
X107216619Y-66746476D01*
X107169000Y-66698857D01*
X107121380Y-66603619D01*
X107121380Y-65936952D02*
X107121380Y-65317904D01*
X107502333Y-65651238D01*
X107502333Y-65508380D01*
X107549952Y-65413142D01*
X107597571Y-65365523D01*
X107692809Y-65317904D01*
X107930904Y-65317904D01*
X108026142Y-65365523D01*
X108073761Y-65413142D01*
X108121380Y-65508380D01*
X108121380Y-65794095D01*
X108073761Y-65889333D01*
X108026142Y-65936952D01*
G04 #@! TO.C,C204*
X107010142Y-68175047D02*
X107057761Y-68222666D01*
X107105380Y-68365523D01*
X107105380Y-68460761D01*
X107057761Y-68603619D01*
X106962523Y-68698857D01*
X106867285Y-68746476D01*
X106676809Y-68794095D01*
X106533952Y-68794095D01*
X106343476Y-68746476D01*
X106248238Y-68698857D01*
X106153000Y-68603619D01*
X106105380Y-68460761D01*
X106105380Y-68365523D01*
X106153000Y-68222666D01*
X106200619Y-68175047D01*
X106200619Y-67794095D02*
X106153000Y-67746476D01*
X106105380Y-67651238D01*
X106105380Y-67413142D01*
X106153000Y-67317904D01*
X106200619Y-67270285D01*
X106295857Y-67222666D01*
X106391095Y-67222666D01*
X106533952Y-67270285D01*
X107105380Y-67841714D01*
X107105380Y-67222666D01*
X106105380Y-66603619D02*
X106105380Y-66508380D01*
X106153000Y-66413142D01*
X106200619Y-66365523D01*
X106295857Y-66317904D01*
X106486333Y-66270285D01*
X106724428Y-66270285D01*
X106914904Y-66317904D01*
X107010142Y-66365523D01*
X107057761Y-66413142D01*
X107105380Y-66508380D01*
X107105380Y-66603619D01*
X107057761Y-66698857D01*
X107010142Y-66746476D01*
X106914904Y-66794095D01*
X106724428Y-66841714D01*
X106486333Y-66841714D01*
X106295857Y-66794095D01*
X106200619Y-66746476D01*
X106153000Y-66698857D01*
X106105380Y-66603619D01*
X106438714Y-65413142D02*
X107105380Y-65413142D01*
X106057761Y-65651238D02*
X106772047Y-65889333D01*
X106772047Y-65270285D01*
G04 #@! TO.C,C205*
X109042142Y-68175047D02*
X109089761Y-68222666D01*
X109137380Y-68365523D01*
X109137380Y-68460761D01*
X109089761Y-68603619D01*
X108994523Y-68698857D01*
X108899285Y-68746476D01*
X108708809Y-68794095D01*
X108565952Y-68794095D01*
X108375476Y-68746476D01*
X108280238Y-68698857D01*
X108185000Y-68603619D01*
X108137380Y-68460761D01*
X108137380Y-68365523D01*
X108185000Y-68222666D01*
X108232619Y-68175047D01*
X108232619Y-67794095D02*
X108185000Y-67746476D01*
X108137380Y-67651238D01*
X108137380Y-67413142D01*
X108185000Y-67317904D01*
X108232619Y-67270285D01*
X108327857Y-67222666D01*
X108423095Y-67222666D01*
X108565952Y-67270285D01*
X109137380Y-67841714D01*
X109137380Y-67222666D01*
X108137380Y-66603619D02*
X108137380Y-66508380D01*
X108185000Y-66413142D01*
X108232619Y-66365523D01*
X108327857Y-66317904D01*
X108518333Y-66270285D01*
X108756428Y-66270285D01*
X108946904Y-66317904D01*
X109042142Y-66365523D01*
X109089761Y-66413142D01*
X109137380Y-66508380D01*
X109137380Y-66603619D01*
X109089761Y-66698857D01*
X109042142Y-66746476D01*
X108946904Y-66794095D01*
X108756428Y-66841714D01*
X108518333Y-66841714D01*
X108327857Y-66794095D01*
X108232619Y-66746476D01*
X108185000Y-66698857D01*
X108137380Y-66603619D01*
X108137380Y-65365523D02*
X108137380Y-65841714D01*
X108613571Y-65889333D01*
X108565952Y-65841714D01*
X108518333Y-65746476D01*
X108518333Y-65508380D01*
X108565952Y-65413142D01*
X108613571Y-65365523D01*
X108708809Y-65317904D01*
X108946904Y-65317904D01*
X109042142Y-65365523D01*
X109089761Y-65413142D01*
X109137380Y-65508380D01*
X109137380Y-65746476D01*
X109089761Y-65841714D01*
X109042142Y-65889333D01*
G04 #@! TO.C,RN201*
X105164142Y-59634380D02*
X104830809Y-59158190D01*
X104592714Y-59634380D02*
X104592714Y-58634380D01*
X104973666Y-58634380D01*
X105068904Y-58682000D01*
X105116523Y-58729619D01*
X105164142Y-58824857D01*
X105164142Y-58967714D01*
X105116523Y-59062952D01*
X105068904Y-59110571D01*
X104973666Y-59158190D01*
X104592714Y-59158190D01*
X105592714Y-59634380D02*
X105592714Y-58634380D01*
X106164142Y-59634380D01*
X106164142Y-58634380D01*
X106592714Y-58729619D02*
X106640333Y-58682000D01*
X106735571Y-58634380D01*
X106973666Y-58634380D01*
X107068904Y-58682000D01*
X107116523Y-58729619D01*
X107164142Y-58824857D01*
X107164142Y-58920095D01*
X107116523Y-59062952D01*
X106545095Y-59634380D01*
X107164142Y-59634380D01*
X107783190Y-58634380D02*
X107878428Y-58634380D01*
X107973666Y-58682000D01*
X108021285Y-58729619D01*
X108068904Y-58824857D01*
X108116523Y-59015333D01*
X108116523Y-59253428D01*
X108068904Y-59443904D01*
X108021285Y-59539142D01*
X107973666Y-59586761D01*
X107878428Y-59634380D01*
X107783190Y-59634380D01*
X107687952Y-59586761D01*
X107640333Y-59539142D01*
X107592714Y-59443904D01*
X107545095Y-59253428D01*
X107545095Y-59015333D01*
X107592714Y-58824857D01*
X107640333Y-58729619D01*
X107687952Y-58682000D01*
X107783190Y-58634380D01*
X109068904Y-59634380D02*
X108497476Y-59634380D01*
X108783190Y-59634380D02*
X108783190Y-58634380D01*
X108687952Y-58777238D01*
X108592714Y-58872476D01*
X108497476Y-58920095D01*
G04 #@! TO.C,RN202*
X105164142Y-63054880D02*
X104830809Y-62578690D01*
X104592714Y-63054880D02*
X104592714Y-62054880D01*
X104973666Y-62054880D01*
X105068904Y-62102500D01*
X105116523Y-62150119D01*
X105164142Y-62245357D01*
X105164142Y-62388214D01*
X105116523Y-62483452D01*
X105068904Y-62531071D01*
X104973666Y-62578690D01*
X104592714Y-62578690D01*
X105592714Y-63054880D02*
X105592714Y-62054880D01*
X106164142Y-63054880D01*
X106164142Y-62054880D01*
X106592714Y-62150119D02*
X106640333Y-62102500D01*
X106735571Y-62054880D01*
X106973666Y-62054880D01*
X107068904Y-62102500D01*
X107116523Y-62150119D01*
X107164142Y-62245357D01*
X107164142Y-62340595D01*
X107116523Y-62483452D01*
X106545095Y-63054880D01*
X107164142Y-63054880D01*
X107783190Y-62054880D02*
X107878428Y-62054880D01*
X107973666Y-62102500D01*
X108021285Y-62150119D01*
X108068904Y-62245357D01*
X108116523Y-62435833D01*
X108116523Y-62673928D01*
X108068904Y-62864404D01*
X108021285Y-62959642D01*
X107973666Y-63007261D01*
X107878428Y-63054880D01*
X107783190Y-63054880D01*
X107687952Y-63007261D01*
X107640333Y-62959642D01*
X107592714Y-62864404D01*
X107545095Y-62673928D01*
X107545095Y-62435833D01*
X107592714Y-62245357D01*
X107640333Y-62150119D01*
X107687952Y-62102500D01*
X107783190Y-62054880D01*
X108497476Y-62150119D02*
X108545095Y-62102500D01*
X108640333Y-62054880D01*
X108878428Y-62054880D01*
X108973666Y-62102500D01*
X109021285Y-62150119D01*
X109068904Y-62245357D01*
X109068904Y-62340595D01*
X109021285Y-62483452D01*
X108449857Y-63054880D01*
X109068904Y-63054880D01*
G04 #@! TO.C,C501*
X148847142Y-83923047D02*
X148894761Y-83970666D01*
X148942380Y-84113523D01*
X148942380Y-84208761D01*
X148894761Y-84351619D01*
X148799523Y-84446857D01*
X148704285Y-84494476D01*
X148513809Y-84542095D01*
X148370952Y-84542095D01*
X148180476Y-84494476D01*
X148085238Y-84446857D01*
X147990000Y-84351619D01*
X147942380Y-84208761D01*
X147942380Y-84113523D01*
X147990000Y-83970666D01*
X148037619Y-83923047D01*
X147942380Y-83018285D02*
X147942380Y-83494476D01*
X148418571Y-83542095D01*
X148370952Y-83494476D01*
X148323333Y-83399238D01*
X148323333Y-83161142D01*
X148370952Y-83065904D01*
X148418571Y-83018285D01*
X148513809Y-82970666D01*
X148751904Y-82970666D01*
X148847142Y-83018285D01*
X148894761Y-83065904D01*
X148942380Y-83161142D01*
X148942380Y-83399238D01*
X148894761Y-83494476D01*
X148847142Y-83542095D01*
X147942380Y-82351619D02*
X147942380Y-82256380D01*
X147990000Y-82161142D01*
X148037619Y-82113523D01*
X148132857Y-82065904D01*
X148323333Y-82018285D01*
X148561428Y-82018285D01*
X148751904Y-82065904D01*
X148847142Y-82113523D01*
X148894761Y-82161142D01*
X148942380Y-82256380D01*
X148942380Y-82351619D01*
X148894761Y-82446857D01*
X148847142Y-82494476D01*
X148751904Y-82542095D01*
X148561428Y-82589714D01*
X148323333Y-82589714D01*
X148132857Y-82542095D01*
X148037619Y-82494476D01*
X147990000Y-82446857D01*
X147942380Y-82351619D01*
X148942380Y-81065904D02*
X148942380Y-81637333D01*
X148942380Y-81351619D02*
X147942380Y-81351619D01*
X148085238Y-81446857D01*
X148180476Y-81542095D01*
X148228095Y-81637333D01*
G04 #@! TO.C,REF\002A\002A*
X198666666Y-51652380D02*
X198333333Y-51176190D01*
X198095238Y-51652380D02*
X198095238Y-50652380D01*
X198476190Y-50652380D01*
X198571428Y-50700000D01*
X198619047Y-50747619D01*
X198666666Y-50842857D01*
X198666666Y-50985714D01*
X198619047Y-51080952D01*
X198571428Y-51128571D01*
X198476190Y-51176190D01*
X198095238Y-51176190D01*
X199095238Y-51128571D02*
X199428571Y-51128571D01*
X199571428Y-51652380D02*
X199095238Y-51652380D01*
X199095238Y-50652380D01*
X199571428Y-50652380D01*
X200333333Y-51128571D02*
X200000000Y-51128571D01*
X200000000Y-51652380D02*
X200000000Y-50652380D01*
X200476190Y-50652380D01*
X201000000Y-50652380D02*
X201000000Y-50890476D01*
X200761904Y-50795238D02*
X201000000Y-50890476D01*
X201238095Y-50795238D01*
X200857142Y-51080952D02*
X201000000Y-50890476D01*
X201142857Y-51080952D01*
X201761904Y-50652380D02*
X201761904Y-50890476D01*
X201523809Y-50795238D02*
X201761904Y-50890476D01*
X202000000Y-50795238D01*
X201619047Y-51080952D02*
X201761904Y-50890476D01*
X201904761Y-51080952D01*
G04 #@! TD*
M02*
