G04 #@! TF.FileFunction,Legend,Bot*
%FSLAX46Y46*%
G04 Gerber Fmt 4.6, Leading zero omitted, Abs format (unit mm)*
G04 Created by KiCad (PCBNEW 4.0.6) date Wed Feb  7 00:12:24 2018*
%MOMM*%
%LPD*%
G01*
G04 APERTURE LIST*
%ADD10C,0.100000*%
%ADD11C,0.125000*%
%ADD12C,0.300000*%
%ADD13C,0.120000*%
%ADD14C,0.150000*%
G04 APERTURE END LIST*
D10*
D11*
X166014286Y-89489286D02*
X165514286Y-89489286D01*
X165657143Y-89489286D02*
X165585714Y-89525001D01*
X165550000Y-89560715D01*
X165514286Y-89632144D01*
X165514286Y-89703572D01*
X166014286Y-90060715D02*
X165978571Y-89989287D01*
X165907143Y-89953572D01*
X165264286Y-89953572D01*
X165978571Y-90632144D02*
X166014286Y-90560715D01*
X166014286Y-90417858D01*
X165978571Y-90346429D01*
X165907143Y-90310715D01*
X165621429Y-90310715D01*
X165550000Y-90346429D01*
X165514286Y-90417858D01*
X165514286Y-90560715D01*
X165550000Y-90632144D01*
X165621429Y-90667858D01*
X165692857Y-90667858D01*
X165764286Y-90310715D01*
X166014286Y-90989286D02*
X165264286Y-90989286D01*
X166014286Y-91310715D02*
X165621429Y-91310715D01*
X165550000Y-91275001D01*
X165514286Y-91203572D01*
X165514286Y-91096429D01*
X165550000Y-91025001D01*
X165585714Y-90989286D01*
X166585714Y-89114285D02*
X166550000Y-89149999D01*
X166514286Y-89221428D01*
X166514286Y-89399999D01*
X166550000Y-89471428D01*
X166585714Y-89507142D01*
X166657143Y-89542857D01*
X166728571Y-89542857D01*
X166835714Y-89507142D01*
X167264286Y-89078571D01*
X167264286Y-89542857D01*
X166514286Y-90007143D02*
X166514286Y-90078571D01*
X166550000Y-90150000D01*
X166585714Y-90185714D01*
X166657143Y-90221428D01*
X166800000Y-90257143D01*
X166978571Y-90257143D01*
X167121429Y-90221428D01*
X167192857Y-90185714D01*
X167228571Y-90150000D01*
X167264286Y-90078571D01*
X167264286Y-90007143D01*
X167228571Y-89935714D01*
X167192857Y-89900000D01*
X167121429Y-89864285D01*
X166978571Y-89828571D01*
X166800000Y-89828571D01*
X166657143Y-89864285D01*
X166585714Y-89900000D01*
X166550000Y-89935714D01*
X166514286Y-90007143D01*
X167264286Y-90971429D02*
X167264286Y-90542857D01*
X167264286Y-90757143D02*
X166514286Y-90757143D01*
X166621429Y-90685714D01*
X166692857Y-90614286D01*
X166728571Y-90542857D01*
X166835714Y-91400000D02*
X166800000Y-91328572D01*
X166764286Y-91292857D01*
X166692857Y-91257143D01*
X166657143Y-91257143D01*
X166585714Y-91292857D01*
X166550000Y-91328572D01*
X166514286Y-91400000D01*
X166514286Y-91542857D01*
X166550000Y-91614286D01*
X166585714Y-91650000D01*
X166657143Y-91685715D01*
X166692857Y-91685715D01*
X166764286Y-91650000D01*
X166800000Y-91614286D01*
X166835714Y-91542857D01*
X166835714Y-91400000D01*
X166871429Y-91328572D01*
X166907143Y-91292857D01*
X166978571Y-91257143D01*
X167121429Y-91257143D01*
X167192857Y-91292857D01*
X167228571Y-91328572D01*
X167264286Y-91400000D01*
X167264286Y-91542857D01*
X167228571Y-91614286D01*
X167192857Y-91650000D01*
X167121429Y-91685715D01*
X166978571Y-91685715D01*
X166907143Y-91650000D01*
X166871429Y-91614286D01*
X166835714Y-91542857D01*
X160094352Y-84105520D02*
X160624682Y-83575190D01*
X160624682Y-84080267D02*
X160700444Y-84055014D01*
X160776206Y-84080267D01*
X160372144Y-83827728D02*
X160447906Y-83802476D01*
X160523667Y-83827728D01*
X160624682Y-83928744D01*
X160649936Y-84004506D01*
X160624682Y-84080267D01*
X160346891Y-84358059D01*
X161003489Y-84307551D02*
X160473159Y-84837881D01*
X161028743Y-84635850D01*
X160826713Y-85191434D01*
X161357043Y-84661104D01*
X161685343Y-84989404D02*
X161609581Y-84964151D01*
X161559073Y-84964150D01*
X161483312Y-84989404D01*
X161331789Y-85140927D01*
X161306535Y-85216688D01*
X161306536Y-85267196D01*
X161331789Y-85342957D01*
X161407551Y-85418719D01*
X161483312Y-85443973D01*
X161533820Y-85443973D01*
X161609581Y-85418719D01*
X161761104Y-85267196D01*
X161786358Y-85191435D01*
X161786358Y-85140928D01*
X161761104Y-85065165D01*
X161685343Y-84989404D01*
X161660089Y-85671257D02*
X161862119Y-85873287D01*
X161559073Y-85923794D02*
X162013642Y-85469226D01*
X162089403Y-85443973D01*
X162165165Y-85469226D01*
X162215673Y-85519734D01*
X162468210Y-85772271D02*
X162392449Y-85747018D01*
X162341941Y-85747018D01*
X162266180Y-85772271D01*
X162114657Y-85923794D01*
X162089403Y-85999556D01*
X162089403Y-86050064D01*
X162114657Y-86125825D01*
X162190418Y-86201586D01*
X162266180Y-86226841D01*
X162316687Y-86226841D01*
X162392449Y-86201586D01*
X162543972Y-86050063D01*
X162569225Y-85974302D01*
X162569225Y-85923795D01*
X162543972Y-85848033D01*
X162468210Y-85772271D01*
X162872271Y-86176332D02*
X162518717Y-86529885D01*
X162619733Y-86428870D02*
X162594479Y-86504632D01*
X162594479Y-86555140D01*
X162619733Y-86630901D01*
X162670241Y-86681408D01*
X161862118Y-83398413D02*
X161508565Y-83751967D01*
X161609580Y-83650952D02*
X161584326Y-83726714D01*
X161584326Y-83777221D01*
X161609581Y-83852983D01*
X161660088Y-83903490D01*
X162367195Y-83953998D02*
X162341941Y-83878236D01*
X162240926Y-83777221D01*
X162165164Y-83751967D01*
X162089403Y-83777221D01*
X161887372Y-83979251D01*
X161862118Y-84055013D01*
X161887372Y-84130774D01*
X161988388Y-84231790D01*
X162064149Y-84257044D01*
X162139911Y-84231790D01*
X162190418Y-84181282D01*
X161988388Y-83878236D01*
X162240926Y-84484328D02*
X162720748Y-84257043D01*
X162493464Y-84736866D01*
X163326840Y-84863135D02*
X163023794Y-84560089D01*
X163175317Y-84711612D02*
X162644987Y-85241942D01*
X162670241Y-85115673D01*
X162670241Y-85014659D01*
X162644986Y-84938897D01*
D10*
X157673212Y-82317653D02*
X157942585Y-82587027D01*
X157956054Y-82304184D02*
X157659743Y-82600495D01*
X158038550Y-83164497D02*
X157870192Y-82996139D01*
X158038550Y-82794108D01*
X158036867Y-82829464D01*
X158052019Y-82881655D01*
X158136198Y-82965834D01*
X158188389Y-82980986D01*
X158223744Y-82979303D01*
X158277619Y-82959100D01*
X158370217Y-82866502D01*
X158390420Y-82812628D01*
X158392103Y-82777272D01*
X158376951Y-82725081D01*
X158292772Y-82640902D01*
X158240581Y-82625750D01*
X158205225Y-82627433D01*
X158156401Y-83282348D02*
X158663161Y-83011291D01*
X158392103Y-83518050D01*
X151842856Y-88839286D02*
X151461904Y-88839286D01*
X151652380Y-89048810D02*
X151652380Y-88629762D01*
X151271427Y-88498810D02*
X150938094Y-88498810D01*
X151152380Y-89048810D01*
X150819047Y-88498810D02*
X150652380Y-89048810D01*
X150485714Y-88498810D01*
X159200000Y-87900000D02*
X159200000Y-88100000D01*
X159000000Y-87800000D02*
X159000000Y-88200000D01*
X158800000Y-87600000D02*
X158800000Y-88400000D01*
X158600000Y-88000000D02*
X158800000Y-88000000D01*
D11*
X159150000Y-89750000D02*
X159116667Y-89650000D01*
X159083333Y-89616667D01*
X159016667Y-89583333D01*
X158916667Y-89583333D01*
X158850000Y-89616667D01*
X158816667Y-89650000D01*
X158783333Y-89716667D01*
X158783333Y-89983333D01*
X159483333Y-89983333D01*
X159483333Y-89750000D01*
X159450000Y-89683333D01*
X159416667Y-89650000D01*
X159350000Y-89616667D01*
X159283333Y-89616667D01*
X159216667Y-89650000D01*
X159183333Y-89683333D01*
X159150000Y-89750000D01*
X159150000Y-89983333D01*
X158883333Y-91066667D02*
X158883333Y-90733333D01*
X158683333Y-91133333D02*
X159383333Y-90900000D01*
X158683333Y-90666667D01*
D10*
X163107142Y-94748810D02*
X163107142Y-94198810D01*
X162988095Y-94198810D01*
X162916666Y-94225000D01*
X162869047Y-94277381D01*
X162845238Y-94329762D01*
X162821428Y-94434524D01*
X162821428Y-94513095D01*
X162845238Y-94617857D01*
X162869047Y-94670238D01*
X162916666Y-94722619D01*
X162988095Y-94748810D01*
X163107142Y-94748810D01*
X162607142Y-94460714D02*
X162440476Y-94460714D01*
X162369047Y-94748810D02*
X162607142Y-94748810D01*
X162607142Y-94198810D01*
X162369047Y-94198810D01*
X161869047Y-94696429D02*
X161892857Y-94722619D01*
X161964285Y-94748810D01*
X162011904Y-94748810D01*
X162083333Y-94722619D01*
X162130952Y-94670238D01*
X162154761Y-94617857D01*
X162178571Y-94513095D01*
X162178571Y-94434524D01*
X162154761Y-94329762D01*
X162130952Y-94277381D01*
X162083333Y-94225000D01*
X162011904Y-94198810D01*
X161964285Y-94198810D01*
X161892857Y-94225000D01*
X161869047Y-94251190D01*
X164948810Y-95088096D02*
X164398810Y-95088096D01*
X164948810Y-95326191D02*
X164398810Y-95326191D01*
X164948810Y-95611905D01*
X164398810Y-95611905D01*
X164896429Y-96135715D02*
X164922619Y-96111905D01*
X164948810Y-96040477D01*
X164948810Y-95992858D01*
X164922619Y-95921429D01*
X164870238Y-95873810D01*
X164817857Y-95850001D01*
X164713095Y-95826191D01*
X164634524Y-95826191D01*
X164529762Y-95850001D01*
X164477381Y-95873810D01*
X164425000Y-95921429D01*
X164398810Y-95992858D01*
X164398810Y-96040477D01*
X164425000Y-96111905D01*
X164451190Y-96135715D01*
X160728571Y-99385714D02*
X161328571Y-99385714D01*
X161271429Y-99128571D02*
X161300000Y-99100000D01*
X161328571Y-99042857D01*
X161328571Y-98900000D01*
X161300000Y-98842857D01*
X161271429Y-98814286D01*
X161214286Y-98785714D01*
X161157143Y-98785714D01*
X161071429Y-98814286D01*
X160728571Y-99157143D01*
X160728571Y-98785714D01*
X160785714Y-98185714D02*
X160757143Y-98214285D01*
X160728571Y-98299999D01*
X160728571Y-98357142D01*
X160757143Y-98442857D01*
X160814286Y-98499999D01*
X160871429Y-98528571D01*
X160985714Y-98557142D01*
X161071429Y-98557142D01*
X161185714Y-98528571D01*
X161242857Y-98499999D01*
X161300000Y-98442857D01*
X161328571Y-98357142D01*
X161328571Y-98299999D01*
X161300000Y-98214285D01*
X161271429Y-98185714D01*
X161500000Y-97900000D02*
X161500000Y-99900000D01*
X156500000Y-97900000D02*
X161500000Y-97900000D01*
X156500000Y-98400000D02*
X156500000Y-97900000D01*
X156500000Y-98400000D02*
X156500000Y-99300000D01*
D11*
X160350000Y-98733334D02*
X160350000Y-99266667D01*
X160616667Y-99000000D02*
X160083333Y-99000000D01*
D10*
X157397402Y-99475152D02*
X157197402Y-99475152D01*
X157497402Y-99275152D02*
X157097402Y-99275152D01*
X157697402Y-99075152D02*
X156897402Y-99075152D01*
X157297402Y-98875152D02*
X157297402Y-99075152D01*
X154200000Y-92200000D02*
X154400000Y-92200000D01*
X154800000Y-92100000D02*
X154800000Y-92300000D01*
X154600000Y-92000000D02*
X154600000Y-92400000D01*
X154400000Y-91800000D02*
X154400000Y-92600000D01*
X159688094Y-99648810D02*
X159688094Y-99098810D01*
X159569047Y-99098810D01*
X159497618Y-99125000D01*
X159449999Y-99177381D01*
X159426190Y-99229762D01*
X159402380Y-99334524D01*
X159402380Y-99413095D01*
X159426190Y-99517857D01*
X159449999Y-99570238D01*
X159497618Y-99622619D01*
X159569047Y-99648810D01*
X159688094Y-99648810D01*
X159211904Y-99491667D02*
X158973809Y-99491667D01*
X159259523Y-99648810D02*
X159092856Y-99098810D01*
X158926190Y-99648810D01*
X158092857Y-99596429D02*
X158116667Y-99622619D01*
X158188095Y-99648810D01*
X158235714Y-99648810D01*
X158307143Y-99622619D01*
X158354762Y-99570238D01*
X158378571Y-99517857D01*
X158402381Y-99413095D01*
X158402381Y-99334524D01*
X158378571Y-99229762D01*
X158354762Y-99177381D01*
X158307143Y-99125000D01*
X158235714Y-99098810D01*
X158188095Y-99098810D01*
X158116667Y-99125000D01*
X158092857Y-99151190D01*
X157640476Y-99648810D02*
X157878571Y-99648810D01*
X157878571Y-99098810D01*
D11*
X155016667Y-91950000D02*
X155716667Y-92116667D01*
X155216667Y-92250000D01*
X155716667Y-92383333D01*
X155016667Y-92550000D01*
X155064667Y-90470067D02*
X155764667Y-90703400D01*
X155064667Y-90936733D01*
X153816667Y-88900001D02*
X154383333Y-88900001D01*
X154450000Y-88933334D01*
X154483333Y-88966667D01*
X154516667Y-89033334D01*
X154516667Y-89166667D01*
X154483333Y-89233334D01*
X154450000Y-89266667D01*
X154383333Y-89300001D01*
X153816667Y-89300001D01*
X153415200Y-88868314D02*
X153415200Y-89325457D01*
X153681867Y-89096886D02*
X153148533Y-89096886D01*
X152981867Y-89554028D02*
X152981867Y-89925457D01*
X153248533Y-89725457D01*
X153248533Y-89811171D01*
X153281867Y-89868314D01*
X153315200Y-89896885D01*
X153381867Y-89925457D01*
X153548533Y-89925457D01*
X153615200Y-89896885D01*
X153648533Y-89868314D01*
X153681867Y-89811171D01*
X153681867Y-89639743D01*
X153648533Y-89582600D01*
X153615200Y-89554028D01*
D10*
X156000000Y-88750000D02*
X152000000Y-88750000D01*
X156000000Y-92750000D02*
X156000000Y-88750000D01*
X154000000Y-92750000D02*
X156000000Y-92750000D01*
X152000000Y-92750000D02*
X152750000Y-92750000D01*
X152000000Y-88750000D02*
X152000000Y-92750000D01*
D11*
X152816667Y-89616667D02*
X152116667Y-89616667D01*
X152450000Y-89616667D02*
X152450000Y-90016667D01*
X152816667Y-90016667D02*
X152116667Y-90016667D01*
X152816667Y-90650000D02*
X152450000Y-90650000D01*
X152383333Y-90616666D01*
X152350000Y-90550000D01*
X152350000Y-90416666D01*
X152383333Y-90350000D01*
X152783333Y-90650000D02*
X152816667Y-90583333D01*
X152816667Y-90416666D01*
X152783333Y-90350000D01*
X152716667Y-90316666D01*
X152650000Y-90316666D01*
X152583333Y-90350000D01*
X152550000Y-90416666D01*
X152550000Y-90583333D01*
X152516667Y-90650000D01*
X152816667Y-91083333D02*
X152783333Y-91016666D01*
X152716667Y-90983333D01*
X152116667Y-90983333D01*
X152816667Y-91450000D02*
X152783333Y-91383333D01*
X152716667Y-91350000D01*
X152116667Y-91350000D01*
D12*
X166071429Y-86571429D02*
X166071429Y-85357143D01*
X166142857Y-85214286D01*
X166214286Y-85142857D01*
X166357143Y-85071429D01*
X166642857Y-85071429D01*
X166785715Y-85142857D01*
X166857143Y-85214286D01*
X166928572Y-85357143D01*
X166928572Y-86571429D01*
X162000000Y-82821429D02*
X162500000Y-81321429D01*
X163000000Y-82821429D01*
X158607143Y-82071429D02*
X158964286Y-80571429D01*
X159250000Y-81642857D01*
X159535714Y-80571429D01*
X159892857Y-82071429D01*
D10*
X164000000Y-90000000D02*
G75*
G03X164000000Y-90000000I-4000000J0D01*
G01*
D13*
X152927000Y-88230000D02*
X153627000Y-88230000D01*
X153627000Y-87030000D02*
X152927000Y-87030000D01*
X155794000Y-88361000D02*
X155794000Y-87661000D01*
X154594000Y-87661000D02*
X154594000Y-88361000D01*
X164938000Y-90786000D02*
X164938000Y-90086000D01*
X163738000Y-90086000D02*
X163738000Y-90786000D01*
X153578000Y-84752000D02*
X153578000Y-85452000D01*
X154778000Y-85452000D02*
X154778000Y-84752000D01*
X158588000Y-96350000D02*
X158588000Y-95650000D01*
X157388000Y-95650000D02*
X157388000Y-96350000D01*
X161234500Y-94099000D02*
X161234500Y-93099000D01*
X161234500Y-93099000D02*
X163334500Y-93099000D01*
X161234500Y-94099000D02*
X163334500Y-94099000D01*
X161679000Y-96004000D02*
X161679000Y-95004000D01*
X161679000Y-95004000D02*
X163779000Y-95004000D01*
X161679000Y-96004000D02*
X163779000Y-96004000D01*
X165399000Y-93591000D02*
X165399000Y-92591000D01*
X164039000Y-92591000D02*
X164039000Y-93591000D01*
X166796000Y-93591000D02*
X166796000Y-92591000D01*
X165436000Y-92591000D02*
X165436000Y-93591000D01*
X163453000Y-96221000D02*
X162453000Y-96221000D01*
X162453000Y-97581000D02*
X163453000Y-97581000D01*
X153969000Y-93250000D02*
X153969000Y-92250000D01*
X152609000Y-92250000D02*
X152609000Y-93250000D01*
D14*
X162300000Y-92800000D02*
X162300000Y-92700000D01*
X162325000Y-87275000D02*
X162325000Y-87300000D01*
X157675000Y-87275000D02*
X157675000Y-87300000D01*
X156600000Y-92800000D02*
X162300000Y-92800000D01*
X157675000Y-87275000D02*
X162325000Y-87275000D01*
D13*
X156221000Y-97368000D02*
X154421000Y-97368000D01*
X154421000Y-94148000D02*
X156871000Y-94148000D01*
X152128911Y-87439361D02*
G75*
G02X152128000Y-83561005I779089J1939361D01*
G01*
X153687089Y-87439361D02*
G75*
G03X153688000Y-83561005I-779089J1939361D01*
G01*
X153687089Y-87439361D02*
G75*
G02X152128000Y-87438995I-779089J1939361D01*
G01*
X150858000Y-85500000D02*
X154958000Y-85500000D01*
X150858000Y-85540000D02*
X154958000Y-85540000D01*
X150859000Y-85580000D02*
X154957000Y-85580000D01*
X150861000Y-85620000D02*
X154955000Y-85620000D01*
X150864000Y-85660000D02*
X154952000Y-85660000D01*
X150867000Y-85700000D02*
X154949000Y-85700000D01*
X150871000Y-85740000D02*
X152128000Y-85740000D01*
X153688000Y-85740000D02*
X154945000Y-85740000D01*
X150876000Y-85780000D02*
X152128000Y-85780000D01*
X153688000Y-85780000D02*
X154940000Y-85780000D01*
X150882000Y-85820000D02*
X152128000Y-85820000D01*
X153688000Y-85820000D02*
X154934000Y-85820000D01*
X150889000Y-85860000D02*
X152128000Y-85860000D01*
X153688000Y-85860000D02*
X154927000Y-85860000D01*
X150896000Y-85900000D02*
X152128000Y-85900000D01*
X153688000Y-85900000D02*
X154920000Y-85900000D01*
X150904000Y-85940000D02*
X152128000Y-85940000D01*
X153688000Y-85940000D02*
X154912000Y-85940000D01*
X150913000Y-85980000D02*
X152128000Y-85980000D01*
X153688000Y-85980000D02*
X154903000Y-85980000D01*
X150923000Y-86020000D02*
X152128000Y-86020000D01*
X153688000Y-86020000D02*
X154893000Y-86020000D01*
X150934000Y-86060000D02*
X152128000Y-86060000D01*
X153688000Y-86060000D02*
X154882000Y-86060000D01*
X150945000Y-86100000D02*
X152128000Y-86100000D01*
X153688000Y-86100000D02*
X154871000Y-86100000D01*
X150958000Y-86140000D02*
X152128000Y-86140000D01*
X153688000Y-86140000D02*
X154858000Y-86140000D01*
X150971000Y-86180000D02*
X152128000Y-86180000D01*
X153688000Y-86180000D02*
X154845000Y-86180000D01*
X150985000Y-86221000D02*
X152128000Y-86221000D01*
X153688000Y-86221000D02*
X154831000Y-86221000D01*
X151001000Y-86261000D02*
X152128000Y-86261000D01*
X153688000Y-86261000D02*
X154815000Y-86261000D01*
X151017000Y-86301000D02*
X152128000Y-86301000D01*
X153688000Y-86301000D02*
X154799000Y-86301000D01*
X151034000Y-86341000D02*
X152128000Y-86341000D01*
X153688000Y-86341000D02*
X154782000Y-86341000D01*
X151052000Y-86381000D02*
X152128000Y-86381000D01*
X153688000Y-86381000D02*
X154764000Y-86381000D01*
X151071000Y-86421000D02*
X152128000Y-86421000D01*
X153688000Y-86421000D02*
X154745000Y-86421000D01*
X151091000Y-86461000D02*
X152128000Y-86461000D01*
X153688000Y-86461000D02*
X154725000Y-86461000D01*
X151112000Y-86501000D02*
X152128000Y-86501000D01*
X153688000Y-86501000D02*
X154704000Y-86501000D01*
X151135000Y-86541000D02*
X152128000Y-86541000D01*
X153688000Y-86541000D02*
X154681000Y-86541000D01*
X151158000Y-86581000D02*
X152128000Y-86581000D01*
X153688000Y-86581000D02*
X154658000Y-86581000D01*
X151183000Y-86621000D02*
X152128000Y-86621000D01*
X153688000Y-86621000D02*
X154633000Y-86621000D01*
X151209000Y-86661000D02*
X152128000Y-86661000D01*
X153688000Y-86661000D02*
X154607000Y-86661000D01*
X151236000Y-86701000D02*
X152128000Y-86701000D01*
X153688000Y-86701000D02*
X154580000Y-86701000D01*
X151265000Y-86741000D02*
X152128000Y-86741000D01*
X153688000Y-86741000D02*
X154551000Y-86741000D01*
X151295000Y-86781000D02*
X152128000Y-86781000D01*
X153688000Y-86781000D02*
X154521000Y-86781000D01*
X151327000Y-86821000D02*
X152128000Y-86821000D01*
X153688000Y-86821000D02*
X154489000Y-86821000D01*
X151361000Y-86861000D02*
X152128000Y-86861000D01*
X153688000Y-86861000D02*
X154455000Y-86861000D01*
X151396000Y-86901000D02*
X152128000Y-86901000D01*
X153688000Y-86901000D02*
X154420000Y-86901000D01*
X151433000Y-86941000D02*
X152128000Y-86941000D01*
X153688000Y-86941000D02*
X154383000Y-86941000D01*
X151472000Y-86981000D02*
X152128000Y-86981000D01*
X153688000Y-86981000D02*
X154344000Y-86981000D01*
X151513000Y-87021000D02*
X152128000Y-87021000D01*
X153688000Y-87021000D02*
X154303000Y-87021000D01*
X151557000Y-87061000D02*
X152128000Y-87061000D01*
X153688000Y-87061000D02*
X154259000Y-87061000D01*
X151603000Y-87101000D02*
X152128000Y-87101000D01*
X153688000Y-87101000D02*
X154213000Y-87101000D01*
X151652000Y-87141000D02*
X152128000Y-87141000D01*
X153688000Y-87141000D02*
X154164000Y-87141000D01*
X151704000Y-87181000D02*
X152128000Y-87181000D01*
X153688000Y-87181000D02*
X154112000Y-87181000D01*
X151760000Y-87221000D02*
X152128000Y-87221000D01*
X153688000Y-87221000D02*
X154056000Y-87221000D01*
X151820000Y-87261000D02*
X152128000Y-87261000D01*
X153688000Y-87261000D02*
X153996000Y-87261000D01*
X151885000Y-87301000D02*
X153931000Y-87301000D01*
X151956000Y-87341000D02*
X153860000Y-87341000D01*
X152034000Y-87381000D02*
X153782000Y-87381000D01*
X152122000Y-87421000D02*
X153694000Y-87421000D01*
X152222000Y-87461000D02*
X153594000Y-87461000D01*
X152341000Y-87501000D02*
X153475000Y-87501000D01*
X152493000Y-87541000D02*
X153323000Y-87541000D01*
X152743000Y-87581000D02*
X153073000Y-87581000D01*
X152908000Y-82800000D02*
X152908000Y-83700000D01*
X152458000Y-83250000D02*
X153358000Y-83250000D01*
D10*
X158639000Y-94704000D02*
X158839000Y-94504000D01*
X158839000Y-94604000D02*
X158739000Y-94704000D01*
X158839000Y-94404000D02*
X158539000Y-94704000D01*
X159839000Y-95304000D02*
X159439000Y-95304000D01*
X159439000Y-95304000D02*
X159439000Y-95704000D01*
X158639000Y-96304000D02*
X160639000Y-96304000D01*
X158839000Y-94404000D02*
X158839000Y-96504000D01*
X160439000Y-94504000D02*
X160439000Y-96504000D01*
X158539000Y-94704000D02*
X160639000Y-94704000D01*
X159839000Y-95704000D02*
X159439000Y-95704000D01*
X159839000Y-95304000D02*
X159839000Y-95704000D01*
D13*
X156175000Y-85452000D02*
X156175000Y-84752000D01*
X154975000Y-84752000D02*
X154975000Y-85452000D01*
X156560000Y-82585000D02*
X155860000Y-82585000D01*
X155860000Y-83785000D02*
X156560000Y-83785000D01*
D14*
X157667000Y-83711000D02*
X158817000Y-83711000D01*
X156892000Y-85961000D02*
X158817000Y-85961000D01*
M02*
