G04 #@! TF.FileFunction,Paste,Bot*
%FSLAX46Y46*%
G04 Gerber Fmt 4.6, Leading zero omitted, Abs format (unit mm)*
G04 Created by KiCad (PCBNEW 4.0.6) date Sat Feb 10 04:57:08 2018*
%MOMM*%
%LPD*%
G01*
G04 APERTURE LIST*
%ADD10C,0.100000*%
%ADD11R,0.800000X0.750000*%
%ADD12R,0.750000X0.800000*%
%ADD13R,0.800000X0.800000*%
%ADD14R,0.900000X0.500000*%
%ADD15R,0.500000X0.900000*%
%ADD16R,1.000000X0.400000*%
%ADD17R,1.060000X0.400000*%
%ADD18C,0.225000*%
%ADD19R,0.700000X0.250000*%
%ADD20R,0.366000X0.426000*%
G04 APERTURE END LIST*
D10*
D11*
X152527000Y-87630000D03*
X154027000Y-87630000D03*
D12*
X155194000Y-88761000D03*
X155194000Y-87261000D03*
X164338000Y-91186000D03*
X164338000Y-89686000D03*
X154178000Y-84352000D03*
X154178000Y-85852000D03*
X157988000Y-96750000D03*
X157988000Y-95250000D03*
D13*
X163334500Y-93599000D03*
X161734500Y-93599000D03*
X163779000Y-95504000D03*
X162179000Y-95504000D03*
D14*
X164719000Y-92341000D03*
X164719000Y-93841000D03*
X166116000Y-92341000D03*
X166116000Y-93841000D03*
D15*
X162203000Y-96901000D03*
X163703000Y-96901000D03*
D14*
X153289000Y-92000000D03*
X153289000Y-93500000D03*
D16*
X157100000Y-92275000D03*
X157100000Y-91625000D03*
X157100000Y-90975000D03*
X157100000Y-90325000D03*
X157100000Y-89675000D03*
X157100000Y-89025000D03*
X157100000Y-88375000D03*
X157100000Y-87725000D03*
X162900000Y-87725000D03*
X162900000Y-88375000D03*
X162900000Y-89025000D03*
X162900000Y-89675000D03*
X162900000Y-90325000D03*
X162900000Y-90975000D03*
X162900000Y-91625000D03*
X162900000Y-92275000D03*
D17*
X156421000Y-94778000D03*
X156421000Y-95428000D03*
X156421000Y-96088000D03*
X156421000Y-96738000D03*
X154221000Y-96738000D03*
X154221000Y-96088000D03*
X154221000Y-95428000D03*
X154221000Y-94778000D03*
D18*
X160139000Y-96004000D03*
X160139000Y-95504000D03*
X160139000Y-95004000D03*
X159639000Y-95004000D03*
X159139000Y-95004000D03*
X159139000Y-95504000D03*
X159139000Y-96004000D03*
X159639000Y-96004000D03*
D12*
X155575000Y-85852000D03*
X155575000Y-84352000D03*
D11*
X156960000Y-83185000D03*
X155460000Y-83185000D03*
D19*
X157317000Y-85336000D03*
X157317000Y-84836000D03*
X157317000Y-84336000D03*
X159167000Y-84336000D03*
X159167000Y-84836000D03*
X159167000Y-85336000D03*
D20*
X158242000Y-84481000D03*
X158242000Y-85191000D03*
M02*
