G04 #@! TF.FileFunction,Paste,Top*
%FSLAX46Y46*%
G04 Gerber Fmt 4.6, Leading zero omitted, Abs format (unit mm)*
G04 Created by KiCad (PCBNEW 4.0.6) date Sat Feb 10 04:57:08 2018*
%MOMM*%
%LPD*%
G01*
G04 APERTURE LIST*
%ADD10C,0.100000*%
%ADD11R,0.500000X0.600000*%
%ADD12R,0.750000X0.800000*%
%ADD13R,0.800000X0.750000*%
%ADD14R,0.800000X0.800000*%
%ADD15R,0.250000X0.700000*%
%ADD16R,0.426000X0.366000*%
%ADD17R,0.300000X0.500000*%
%ADD18R,0.500000X0.300000*%
%ADD19R,0.690000X0.690000*%
%ADD20R,0.700000X0.250000*%
%ADD21R,0.772500X0.772500*%
%ADD22R,0.790000X0.420000*%
%ADD23R,1.200000X0.800000*%
%ADD24R,0.420000X0.790000*%
%ADD25R,0.800000X1.200000*%
%ADD26R,1.300000X0.700000*%
%ADD27R,0.700000X1.300000*%
G04 APERTURE END LIST*
D10*
D11*
X152400000Y-92845800D03*
X152400000Y-93945800D03*
D12*
X161036000Y-90678000D03*
X161036000Y-89178000D03*
D13*
X164985000Y-96520000D03*
X166485000Y-96520000D03*
X162203000Y-96266000D03*
X163703000Y-96266000D03*
D12*
X152527000Y-89396000D03*
X152527000Y-87896000D03*
D13*
X159246000Y-98425000D03*
X157746000Y-98425000D03*
D14*
X161100000Y-97400000D03*
X162700000Y-97400000D03*
X162179000Y-98806000D03*
X160579000Y-98806000D03*
D15*
X154440000Y-88718000D03*
X154940000Y-88718000D03*
X155440000Y-88718000D03*
X155440000Y-86868000D03*
X154940000Y-86868000D03*
X154440000Y-86868000D03*
D16*
X155295000Y-87793000D03*
X154585000Y-87793000D03*
D17*
X162771000Y-95015000D03*
X163271000Y-95015000D03*
X163771000Y-95015000D03*
X164271000Y-95015000D03*
X164771000Y-95015000D03*
X165271000Y-95015000D03*
X165771000Y-95015000D03*
X166271000Y-95015000D03*
X166771000Y-95015000D03*
X167271000Y-95015000D03*
D18*
X168021000Y-94265000D03*
X168021000Y-93765000D03*
X168021000Y-93265000D03*
X168021000Y-92765000D03*
X168021000Y-92265000D03*
X168021000Y-91765000D03*
X168021000Y-91265000D03*
X168021000Y-90765000D03*
X168021000Y-90265000D03*
X168021000Y-89765000D03*
D17*
X167271000Y-89015000D03*
X166771000Y-89015000D03*
X166271000Y-89015000D03*
X165771000Y-89015000D03*
X165271000Y-89015000D03*
X164771000Y-89015000D03*
X164271000Y-89015000D03*
X163771000Y-89015000D03*
X163271000Y-89015000D03*
X162771000Y-89015000D03*
D18*
X162021000Y-89765000D03*
X162021000Y-90265000D03*
X162021000Y-90765000D03*
X162021000Y-91265000D03*
X162021000Y-91765000D03*
X162021000Y-92265000D03*
X162021000Y-92765000D03*
X162021000Y-93265000D03*
X162021000Y-93765000D03*
X162021000Y-94265000D03*
D19*
X166746000Y-90290000D03*
X165596000Y-90290000D03*
X164446000Y-90290000D03*
X163296000Y-90290000D03*
X166746000Y-91440000D03*
X165596000Y-91440000D03*
X164446000Y-91440000D03*
X163296000Y-91440000D03*
X166746000Y-92590000D03*
X165596000Y-92590000D03*
X164446000Y-92590000D03*
X163296000Y-92590000D03*
X166746000Y-93740000D03*
X165596000Y-93740000D03*
X164446000Y-93740000D03*
X163296000Y-93740000D03*
D20*
X153182250Y-90586250D03*
X153182250Y-91086250D03*
X153182250Y-91586250D03*
X153182250Y-92086250D03*
X153182250Y-92586250D03*
X153182250Y-93086250D03*
X153182250Y-93586250D03*
X153182250Y-94086250D03*
X153182250Y-94586250D03*
X153182250Y-95086250D03*
X153182250Y-95586250D03*
X153182250Y-96086250D03*
D15*
X153832250Y-96736250D03*
X154332250Y-96736250D03*
X154832250Y-96736250D03*
X155332250Y-96736250D03*
X155832250Y-96736250D03*
X156332250Y-96736250D03*
X156832250Y-96736250D03*
X157332250Y-96736250D03*
X157832250Y-96736250D03*
X158332250Y-96736250D03*
X158832250Y-96736250D03*
X159332250Y-96736250D03*
D20*
X159982250Y-96086250D03*
X159982250Y-95586250D03*
X159982250Y-95086250D03*
X159982250Y-94586250D03*
X159982250Y-94086250D03*
X159982250Y-93586250D03*
X159982250Y-93086250D03*
X159982250Y-92586250D03*
X159982250Y-92086250D03*
X159982250Y-91586250D03*
X159982250Y-91086250D03*
X159982250Y-90586250D03*
D15*
X159332250Y-89936250D03*
X158832250Y-89936250D03*
X158332250Y-89936250D03*
X157832250Y-89936250D03*
X157332250Y-89936250D03*
X156832250Y-89936250D03*
X156332250Y-89936250D03*
X155832250Y-89936250D03*
X155332250Y-89936250D03*
X154832250Y-89936250D03*
X154332250Y-89936250D03*
X153832250Y-89936250D03*
D21*
X158513500Y-95267500D03*
X158513500Y-93980000D03*
X158513500Y-92692500D03*
X158513500Y-91405000D03*
X157226000Y-95267500D03*
X157226000Y-93980000D03*
X157226000Y-92692500D03*
X157226000Y-91405000D03*
X155938500Y-95267500D03*
X155938500Y-93980000D03*
X155938500Y-92692500D03*
X155938500Y-91405000D03*
X154651000Y-95267500D03*
X154651000Y-93980000D03*
X154651000Y-92692500D03*
X154651000Y-91405000D03*
D22*
X166809000Y-85542000D03*
X166809000Y-84892000D03*
X166809000Y-86192000D03*
X163899000Y-86842000D03*
X166809000Y-86842000D03*
X163899000Y-86192000D03*
X163899000Y-85542000D03*
X163899000Y-84892000D03*
X166809000Y-84242000D03*
X163899000Y-83592000D03*
X163899000Y-84242000D03*
X166809000Y-83592000D03*
D23*
X165354000Y-83417000D03*
X165354000Y-84417000D03*
X165354000Y-86017000D03*
X165354000Y-87017000D03*
D22*
X162491000Y-83116500D03*
X162491000Y-82466500D03*
X162491000Y-83766500D03*
X159581000Y-84416500D03*
X162491000Y-84416500D03*
X159581000Y-83766500D03*
X159581000Y-83116500D03*
X159581000Y-82466500D03*
X162491000Y-81816500D03*
X159581000Y-81166500D03*
X159581000Y-81816500D03*
X162491000Y-81166500D03*
D23*
X161036000Y-80991500D03*
X161036000Y-81991500D03*
X161036000Y-83591500D03*
X161036000Y-84591500D03*
D24*
X156337000Y-82688000D03*
X155687000Y-82688000D03*
X156987000Y-82688000D03*
X157637000Y-85598000D03*
X157637000Y-82688000D03*
X156987000Y-85598000D03*
X156337000Y-85598000D03*
X155687000Y-85598000D03*
X155037000Y-82688000D03*
X154387000Y-85598000D03*
X155037000Y-85598000D03*
X154387000Y-82688000D03*
D25*
X154212000Y-84143000D03*
X155212000Y-84143000D03*
X156812000Y-84143000D03*
X157812000Y-84143000D03*
D26*
X160401000Y-85730000D03*
X160401000Y-87630000D03*
X162179000Y-85730000D03*
X162179000Y-87630000D03*
D27*
X159126000Y-87000000D03*
X157226000Y-87000000D03*
D10*
G36*
X165019429Y-97144240D02*
X165394429Y-97793760D01*
X164701609Y-98193760D01*
X164326609Y-97544240D01*
X165019429Y-97144240D01*
X165019429Y-97144240D01*
G37*
G36*
X163720391Y-97894240D02*
X164095391Y-98543760D01*
X163402571Y-98943760D01*
X163027571Y-98294240D01*
X163720391Y-97894240D01*
X163720391Y-97894240D01*
G37*
M02*
