M48
;DRILL file {KiCad 4.0.6} date Tue Feb  6 04:04:01 2018
;FORMAT={-:-/ absolute / inch / decimal}
FMAT,2
INCH,TZ
T1C0.008
T2C0.010
T3C0.024
T4C0.031
T5C0.039
%
G90
G05
M72
T1
X5.929Y-3.694
X5.93Y-3.385
X5.93Y-3.593
X5.95Y-3.385
X5.965Y-3.69
X5.97Y-3.385
X5.99Y-3.33
X5.99Y-3.355
X5.99Y-3.375
X5.9914Y-3.7528
X6.0016Y-3.6285
X6.0038Y-3.7338
X6.02Y-3.295
X6.02Y-3.36
X6.035Y-3.37
X6.037Y-3.8016
X6.04Y-3.29
X6.04Y-3.525
X6.0551Y-3.7045
X6.06Y-3.255
X6.06Y-3.35
X6.0718Y-3.8332
X6.075Y-3.435
X6.08Y-3.35
X6.086Y-3.4564
X6.0866Y-3.6006
X6.0939Y-3.5595
X6.1122Y-3.2283
X6.114Y-3.4564
X6.115Y-3.8324
X6.1163Y-3.5564
X6.1176Y-3.3989
X6.1297Y-3.4849
X6.1319Y-3.2185
X6.14Y-3.41
X6.1442Y-3.4294
X6.15Y-3.865
X6.1516Y-3.2087
X6.1517Y-3.5144
X6.1522Y-3.4914
X6.155Y-3.39
X6.1561Y-3.8302
X6.175Y-3.415
X6.18Y-3.875
X6.19Y-3.7507
X6.1904Y-3.8401
X6.215Y-3.845
X6.2185Y-3.5139
X6.2185Y-3.423
X6.225Y-3.465
X6.2309Y-3.495
X6.2393Y-3.7408
X6.241Y-3.8371
X6.2422Y-3.2428
X6.2456Y-3.5135
X6.2544Y-3.5583
X6.2598Y-3.1791
X6.26Y-3.21
X6.26Y-3.235
X6.2606Y-3.2683
X6.2648Y-3.8357
X6.265Y-3.595
X6.278Y-3.922
X6.2795Y-3.1693
X6.2798Y-3.685
X6.2802Y-3.6434
X6.2883Y-3.8192
X6.295Y-3.905
X6.2975Y-3.5506
X6.2992Y-3.1791
X6.305Y-3.21
X6.305Y-3.235
X6.305Y-3.375
X6.31Y-3.41
X6.3126Y-3.6251
X6.325Y-3.485
X6.33Y-3.75
X6.3324Y-3.6524
X6.335Y-3.6859
X6.34Y-3.209
X6.349Y-3.6325
X6.3493Y-3.6099
X6.353Y-3.912
X6.355Y-3.5405
X6.36Y-3.72
X6.3685Y-3.5144
X6.372Y-3.8189
X6.3799Y-3.48
X6.3823Y-3.35
X6.385Y-3.865
X6.395Y-3.175
X6.415Y-3.88
X6.42Y-3.28
X6.4239Y-3.3541
X6.435Y-3.3
X6.435Y-3.33
X6.4469Y-3.5547
X6.4503Y-3.4783
X6.465Y-3.87
X6.468Y-3.2707
X6.4686Y-3.823
X6.47Y-3.4657
X6.4726Y-3.3324
X6.4883Y-3.4861
X6.4988Y-3.528
X6.505Y-3.4707
X6.5059Y-3.248
X6.5063Y-3.7587
X6.51Y-3.3045
X6.523Y-3.4856
X6.5256Y-3.248
X6.5299Y-3.3276
X6.5302Y-3.7648
X6.54Y-3.465
X6.545Y-3.27
X6.5455Y-3.488
X6.549Y-3.6709
X6.55Y-3.82
X6.5644Y-3.4756
X6.57Y-3.275
X6.5833Y-3.7644
X6.585Y-3.485
X6.585Y-3.56
X6.59Y-3.34
X6.5946Y-3.7388
X6.595Y-3.32
X6.6012Y-3.5346
X6.605Y-3.6128
X6.61Y-3.3332
X6.6272Y-3.5931
X6.6328Y-3.508
X6.6399Y-3.7002
X6.6399Y-3.5602
X6.6436Y-3.6768
X6.645Y-3.425
X6.6575Y-3.6589
X6.6651Y-3.4549
X6.67Y-3.63
T2
X6.155Y-3.415
X6.205Y-3.415
X6.23Y-3.415
X6.4272Y-3.8287
X6.63Y-3.725
T3
X6.02Y-3.3268
X6.02Y-3.4055
T4
X6.2Y-3.2
X6.4469Y-3.2283
X6.615Y-3.38
T5
X5.9449Y-3.3433
X5.9449Y-3.4433
X5.9449Y-3.5433
X5.9449Y-3.6433
X5.9449Y-3.7433
T0
M30
