G04 #@! TF.FileFunction,Copper,L4,Bot,Signal*
%FSLAX46Y46*%
G04 Gerber Fmt 4.6, Leading zero omitted, Abs format (unit mm)*
G04 Created by KiCad (PCBNEW 4.0.6) date Sat Feb 10 04:57:08 2018*
%MOMM*%
%LPD*%
G01*
G04 APERTURE LIST*
%ADD10C,0.100000*%
%ADD11C,1.700000*%
%ADD12O,1.700000X1.700000*%
%ADD13O,1.300000X1.700000*%
%ADD14R,0.800000X0.750000*%
%ADD15R,0.750000X0.800000*%
%ADD16R,0.800000X0.800000*%
%ADD17R,0.900000X0.500000*%
%ADD18R,0.500000X0.900000*%
%ADD19R,1.000000X0.400000*%
%ADD20R,1.060000X0.400000*%
%ADD21R,1.200000X1.200000*%
%ADD22C,1.200000*%
%ADD23C,0.350000*%
%ADD24C,1.500000*%
%ADD25C,0.750000*%
%ADD26R,0.700000X0.250000*%
%ADD27R,0.610000X0.710000*%
%ADD28C,0.450000*%
%ADD29C,0.550000*%
%ADD30C,0.600000*%
%ADD31C,0.150000*%
%ADD32C,0.300000*%
%ADD33C,0.125000*%
%ADD34C,0.200000*%
%ADD35C,0.250000*%
G04 APERTURE END LIST*
D10*
D11*
X151000000Y-84920000D03*
D12*
X151000000Y-87460000D03*
X151000000Y-90000000D03*
D13*
X151000000Y-92540000D03*
D12*
X151000000Y-95080000D03*
D14*
X152527000Y-87630000D03*
X154027000Y-87630000D03*
D15*
X155194000Y-88761000D03*
X155194000Y-87261000D03*
X164338000Y-91186000D03*
X164338000Y-89686000D03*
X154178000Y-84352000D03*
X154178000Y-85852000D03*
X157988000Y-96750000D03*
X157988000Y-95250000D03*
D16*
X163334500Y-93599000D03*
X161734500Y-93599000D03*
X163779000Y-95504000D03*
X162179000Y-95504000D03*
D17*
X164719000Y-92341000D03*
X164719000Y-93841000D03*
X166116000Y-92341000D03*
X166116000Y-93841000D03*
D18*
X162203000Y-96901000D03*
X163703000Y-96901000D03*
D17*
X153289000Y-92000000D03*
X153289000Y-93500000D03*
D19*
X157100000Y-92275000D03*
X157100000Y-91625000D03*
X157100000Y-90975000D03*
X157100000Y-90325000D03*
X157100000Y-89675000D03*
X157100000Y-89025000D03*
X157100000Y-88375000D03*
X157100000Y-87725000D03*
X162900000Y-87725000D03*
X162900000Y-88375000D03*
X162900000Y-89025000D03*
X162900000Y-89675000D03*
X162900000Y-90325000D03*
X162900000Y-90975000D03*
X162900000Y-91625000D03*
X162900000Y-92275000D03*
D20*
X156421000Y-94778000D03*
X156421000Y-95428000D03*
X156421000Y-96088000D03*
X156421000Y-96738000D03*
X154221000Y-96738000D03*
X154221000Y-96088000D03*
X154221000Y-95428000D03*
X154221000Y-94778000D03*
D21*
X152908000Y-84500000D03*
D22*
X152908000Y-86500000D03*
D23*
X160139000Y-96004000D03*
X160139000Y-95504000D03*
X160139000Y-95004000D03*
X159639000Y-95004000D03*
X159139000Y-95004000D03*
X159139000Y-95504000D03*
X159139000Y-96004000D03*
X159639000Y-96012000D03*
D24*
X168021000Y-85852000D03*
X163750000Y-82000000D03*
X157480000Y-81280000D03*
D25*
X154178000Y-89916000D03*
X155448000Y-89916000D03*
X155384500Y-91440000D03*
X158242000Y-90932000D03*
X158242000Y-89916000D03*
X152019000Y-88265000D03*
X158115000Y-88011000D03*
X157988000Y-98425000D03*
X159004000Y-98425000D03*
X160020000Y-98425000D03*
X156972000Y-98425000D03*
D15*
X155575000Y-85852000D03*
X155575000Y-84352000D03*
D14*
X156960000Y-83185000D03*
X155460000Y-83185000D03*
D26*
X157317000Y-85336000D03*
X157317000Y-84836000D03*
X157317000Y-84336000D03*
X159167000Y-84336000D03*
X159167000Y-84836000D03*
X159167000Y-85336000D03*
D27*
X158242000Y-84481000D03*
X158242000Y-85191000D03*
D25*
X157607000Y-83439000D03*
X153250000Y-90500000D03*
X154178000Y-91313000D03*
D28*
X155386493Y-86331097D03*
X159129520Y-91307079D03*
X159156400Y-99491800D03*
X161649050Y-94382950D03*
X162941000Y-98552000D03*
X161366200Y-99364800D03*
X153798493Y-94094909D03*
X150622000Y-91262200D03*
X164303002Y-97104200D03*
X167259000Y-90424000D03*
X164210996Y-98298000D03*
X157949393Y-86944519D03*
D29*
X158242000Y-86741000D03*
D28*
X165070147Y-89611288D03*
X167501989Y-94964873D03*
X154305000Y-87249000D03*
X155295000Y-87793000D03*
X156062691Y-87106432D03*
X156845000Y-86741028D03*
D29*
X156337000Y-86741000D03*
D28*
X155956000Y-86614000D03*
D29*
X157607000Y-86741000D03*
D28*
X158115000Y-88011000D03*
X166345210Y-93240998D03*
X163750002Y-90290000D03*
X160655000Y-88519000D03*
X154600510Y-91455490D03*
X158477508Y-95015959D03*
X156972000Y-98425000D03*
X157226000Y-95267500D03*
X154585000Y-87793000D03*
D30*
X163398200Y-84556600D03*
D28*
X163474406Y-83921600D03*
X164465000Y-83185000D03*
D30*
X165100000Y-82676990D03*
X165862000Y-82550000D03*
D28*
X151130000Y-86106000D03*
X150495000Y-85979042D03*
D30*
X151765000Y-86106000D03*
X159004000Y-82169000D03*
X159004000Y-80899000D03*
X159512000Y-80645000D03*
X160020000Y-80645000D03*
D28*
X152527000Y-85344000D03*
X152019000Y-84963000D03*
D30*
X152019000Y-85471000D03*
X152019000Y-84328000D03*
X153289000Y-85217000D03*
X153924000Y-85026998D03*
D28*
X158551564Y-82367436D03*
X154432000Y-85089980D03*
X169292422Y-87755586D03*
X166370000Y-97028000D03*
X165859100Y-84521400D03*
X153416000Y-83566000D03*
X152908000Y-83693000D03*
X160147000Y-81534000D03*
X159004000Y-81534000D03*
X160147000Y-82169000D03*
X161036000Y-81509000D03*
X166243000Y-83058016D03*
X165354000Y-83934500D03*
X159828998Y-98425000D03*
X151612600Y-93954600D03*
X153416024Y-89535000D03*
X165683278Y-88533226D03*
X155693609Y-88517121D03*
X159721990Y-97008041D03*
X159955973Y-90185956D03*
D29*
X163250000Y-97250000D03*
D28*
X159889162Y-99138108D03*
X153340998Y-96561252D03*
X168783000Y-86995000D03*
X167386000Y-84836000D03*
X167894000Y-84664340D03*
X167513000Y-84328000D03*
X165867164Y-95625928D03*
X169099941Y-92935038D03*
X163068000Y-83312000D03*
D30*
X155829000Y-81788000D03*
X156250000Y-81500000D03*
D28*
X155250000Y-82000000D03*
X168330589Y-91264063D03*
X152492054Y-94840820D03*
X152180324Y-95324000D03*
X157861000Y-97663000D03*
X159126777Y-97426875D03*
X158520161Y-97462743D03*
X168622357Y-90429594D03*
X156337000Y-86106000D03*
X160147000Y-85725000D03*
X168473180Y-89103267D03*
X167766239Y-91765003D03*
X153924000Y-82677000D03*
X168748246Y-93389955D03*
X159020298Y-83015173D03*
X162110865Y-85091164D03*
X168652847Y-93986306D03*
X169418000Y-92201986D03*
X162433000Y-80645000D03*
X167214990Y-95615884D03*
X163166392Y-85194311D03*
D29*
X168402000Y-94615000D03*
D28*
X167671001Y-89779588D03*
X160274000Y-86614000D03*
X166116000Y-88011000D03*
X166878000Y-83185000D03*
X165260524Y-95470476D03*
X161850050Y-97000000D03*
X152440574Y-92164935D03*
X167259000Y-88518988D03*
X156364944Y-97288001D03*
X155346324Y-97306576D03*
X166736250Y-88279469D03*
X166255045Y-88594222D03*
X154224528Y-97362472D03*
X157236342Y-97539447D03*
X165227000Y-88157010D03*
X157948890Y-89252877D03*
X164801990Y-88545701D03*
X164338000Y-88030010D03*
X158265743Y-88773038D03*
X158638706Y-89243022D03*
X163837400Y-88347990D03*
X158862089Y-90381783D03*
X162049998Y-88392011D03*
X161761014Y-89265142D03*
X156210000Y-98171000D03*
X161417212Y-89927965D03*
X156252368Y-89265667D03*
X160909000Y-93620612D03*
X161271148Y-91691593D03*
X161265807Y-92266580D03*
X160782000Y-95250000D03*
X160842600Y-92770600D03*
X159507252Y-93599000D03*
X160340393Y-92077917D03*
X159517572Y-92541931D03*
X154784169Y-90411248D03*
X155353644Y-90331644D03*
X156266827Y-88682228D03*
D31*
X158216600Y-83489800D02*
X159054800Y-84328000D01*
X159054800Y-84328000D02*
X159159000Y-84328000D01*
X159159000Y-84328000D02*
X159167000Y-84336000D01*
D10*
X158157001Y-83430201D02*
X158216600Y-83489800D01*
X158157001Y-83354001D02*
X158157001Y-83430201D01*
D31*
X156066000Y-85336000D02*
X156260800Y-85141200D01*
X156260800Y-85141200D02*
X156260800Y-83007200D01*
X156260800Y-83007200D02*
X156260800Y-82829400D01*
D10*
X156260800Y-82753200D02*
X156260800Y-82829400D01*
X158157001Y-83354001D02*
X158157001Y-83174999D01*
X158157001Y-83174999D02*
X157871001Y-82888999D01*
X156464000Y-82550000D02*
X156260800Y-82753200D01*
X157871001Y-82888999D02*
X157818999Y-82888999D01*
X157818999Y-82888999D02*
X157480000Y-82550000D01*
X157480000Y-82550000D02*
X156464000Y-82550000D01*
D31*
X155386493Y-86331097D02*
X155386493Y-86040507D01*
X155386493Y-86040507D02*
X155575000Y-85852000D01*
X152019000Y-88265000D02*
X152019000Y-88138000D01*
X152019000Y-88138000D02*
X152527000Y-87630000D01*
X151000000Y-87460000D02*
X151214000Y-87460000D01*
X151214000Y-87460000D02*
X152019000Y-88265000D01*
X155575000Y-85852000D02*
X155575000Y-85827000D01*
X156066000Y-85336000D02*
X157317000Y-85336000D01*
X155575000Y-85827000D02*
X156066000Y-85336000D01*
D32*
X151000000Y-87460000D02*
X152648000Y-87460000D01*
X154178000Y-85852000D02*
X154381200Y-85852000D01*
X154381200Y-85852000D02*
X155575000Y-84658200D01*
X155575000Y-84658200D02*
X155575000Y-84352000D01*
X155460000Y-83185000D02*
X155460000Y-84237000D01*
X155460000Y-84237000D02*
X155575000Y-84352000D01*
D31*
X159385000Y-91051599D02*
X159129520Y-91307079D01*
X159385000Y-89027000D02*
X159385000Y-91051599D01*
X158743999Y-88385999D02*
X159385000Y-89027000D01*
X158489999Y-88385999D02*
X158743999Y-88385999D01*
X158115000Y-88011000D02*
X158489999Y-88385999D01*
X158242000Y-85191000D02*
X158242000Y-86741000D01*
X154600510Y-91455490D02*
X154320490Y-91455490D01*
X154320490Y-91455490D02*
X154178000Y-91313000D01*
X164338000Y-89686000D02*
X164995435Y-89686000D01*
X164995435Y-89686000D02*
X165070147Y-89611288D01*
X158242000Y-84481000D02*
X158242000Y-85191000D01*
X159167000Y-85336000D02*
X158387000Y-85336000D01*
X158387000Y-85336000D02*
X158242000Y-85191000D01*
X154178000Y-85852000D02*
X154178000Y-85877000D01*
X154178000Y-85877000D02*
X155194000Y-86893000D01*
X155194000Y-86893000D02*
X155194000Y-87261000D01*
X153924000Y-87146000D02*
X153924000Y-86106000D01*
X153924000Y-86106000D02*
X154178000Y-85852000D01*
D33*
X157100000Y-87725000D02*
X157829000Y-87725000D01*
X157829000Y-87725000D02*
X158115000Y-88011000D01*
X157100000Y-88375000D02*
X157751000Y-88375000D01*
X157751000Y-88375000D02*
X158115000Y-88011000D01*
X164338000Y-89686000D02*
X164338000Y-89702002D01*
X164338000Y-89702002D02*
X163750002Y-90290000D01*
D31*
X159139000Y-95004000D02*
X158489467Y-95004000D01*
X158252509Y-95240958D02*
X158477508Y-95015959D01*
X158243467Y-95250000D02*
X158252509Y-95240958D01*
X158489467Y-95004000D02*
X158477508Y-95015959D01*
X157988000Y-95250000D02*
X158243467Y-95250000D01*
X159139000Y-95504000D02*
X159139000Y-95004000D01*
X159639000Y-95004000D02*
X159139000Y-95004000D01*
X160139000Y-95004000D02*
X159639000Y-95004000D01*
X156421000Y-95428000D02*
X157065500Y-95428000D01*
X157065500Y-95428000D02*
X157226000Y-95267500D01*
X157988000Y-95250000D02*
X157243500Y-95250000D01*
X157243500Y-95250000D02*
X157226000Y-95267500D01*
X153924000Y-87261000D02*
X153924000Y-86881000D01*
X153924000Y-87261000D02*
X153669000Y-87261000D01*
X153669000Y-87261000D02*
X152908000Y-86500000D01*
X155194000Y-87261000D02*
X155117000Y-87261000D01*
X155117000Y-87261000D02*
X154585000Y-87793000D01*
X153924000Y-87261000D02*
X154053000Y-87261000D01*
X154053000Y-87261000D02*
X154585000Y-87793000D01*
X163398200Y-83997806D02*
X163398200Y-84556600D01*
X163474406Y-83921600D02*
X163398200Y-83997806D01*
X165226990Y-82550000D02*
X165100000Y-82676990D01*
X165862000Y-82550000D02*
X165226990Y-82550000D01*
X160020000Y-80645000D02*
X159512000Y-80645000D01*
X153924000Y-85026998D02*
X153479002Y-85026998D01*
X153479002Y-85026998D02*
X153289000Y-85217000D01*
X153924000Y-85090000D02*
X153924000Y-85026998D01*
X153924000Y-85026998D02*
X154431980Y-85090000D01*
X154431980Y-85090000D02*
X154432000Y-85089980D01*
D34*
X164719000Y-92341000D02*
X166116000Y-92341000D01*
D35*
X163899000Y-92026000D02*
X163899000Y-92209000D01*
X163899000Y-92209000D02*
X164019000Y-92329000D01*
X164019000Y-92329000D02*
X164719000Y-92329000D01*
X164719000Y-92329000D02*
X164731000Y-92341000D01*
D31*
X155693609Y-88517121D02*
X156399999Y-87810731D01*
X156399999Y-87810731D02*
X156399999Y-87364999D01*
X156399999Y-87364999D02*
X156439999Y-87324999D01*
X156439999Y-87324999D02*
X157727999Y-87324999D01*
X157727999Y-87324999D02*
X157779000Y-87376000D01*
X157779000Y-87376000D02*
X158115000Y-87376000D01*
X158115000Y-87376000D02*
X158166001Y-87324999D01*
X158166001Y-87324999D02*
X158952999Y-87324999D01*
X153250000Y-90500000D02*
X153416000Y-90334000D01*
X153416000Y-90334000D02*
X153416000Y-89535024D01*
X153416000Y-89535024D02*
X153416024Y-89535000D01*
X153416024Y-89535000D02*
X153670024Y-89281000D01*
X153670024Y-89281000D02*
X154674000Y-89281000D01*
X154674000Y-89281000D02*
X155194000Y-88761000D01*
D35*
X159955973Y-90185956D02*
X159955973Y-88327973D01*
X159955973Y-88327973D02*
X158952999Y-87324999D01*
D31*
X165710000Y-89789000D02*
X165778171Y-89720829D01*
X165778171Y-89720829D02*
X165778171Y-88628119D01*
X165778171Y-88628119D02*
X165683278Y-88533226D01*
X155194000Y-88761000D02*
X155194000Y-88773000D01*
X155468610Y-88742120D02*
X155693609Y-88517121D01*
X155449730Y-88761000D02*
X155468610Y-88742120D01*
X155194000Y-88761000D02*
X155449730Y-88761000D01*
D35*
X162900000Y-91625000D02*
X162491000Y-91625000D01*
X162491000Y-91625000D02*
X161671000Y-90805000D01*
X161671000Y-90805000D02*
X160575017Y-90805000D01*
X160575017Y-90805000D02*
X159955973Y-90185956D01*
X159463949Y-96750000D02*
X159496991Y-96783042D01*
X159496991Y-96783042D02*
X159721990Y-97008041D01*
X158393000Y-96750000D02*
X159463949Y-96750000D01*
X157988000Y-96750000D02*
X157326000Y-96088000D01*
X157326000Y-96088000D02*
X156421000Y-96088000D01*
X157988000Y-96750000D02*
X158393000Y-96750000D01*
X158393000Y-96750000D02*
X159139000Y-96004000D01*
X164338000Y-91186000D02*
X164338000Y-91161000D01*
X164338000Y-91161000D02*
X165710000Y-89789000D01*
X162900000Y-92275000D02*
X163650000Y-92275000D01*
X163650000Y-92275000D02*
X163899000Y-92026000D01*
X163899000Y-92026000D02*
X163899000Y-91625000D01*
X164338000Y-91186000D02*
X163899000Y-91625000D01*
X163899000Y-91625000D02*
X162900000Y-91625000D01*
D33*
X164719000Y-93841000D02*
X163576500Y-93841000D01*
X163576500Y-93841000D02*
X163334500Y-93599000D01*
D31*
X157100000Y-91625000D02*
X157944400Y-91625000D01*
X157944400Y-91625000D02*
X158089600Y-91770200D01*
X158089600Y-91770200D02*
X159512000Y-91770200D01*
X159512000Y-91770200D02*
X160020000Y-91262200D01*
X160020000Y-91262200D02*
X161518600Y-91262200D01*
X161518600Y-91262200D02*
X161734500Y-91478100D01*
X161734500Y-91478100D02*
X161734500Y-93599000D01*
D10*
X157400000Y-91625000D02*
X157100000Y-91625000D01*
D31*
X163779000Y-95504000D02*
X164253000Y-95504000D01*
X164253000Y-95504000D02*
X165916000Y-93841000D01*
X165916000Y-93841000D02*
X166116000Y-93841000D01*
X157100000Y-92275000D02*
X157838800Y-92275000D01*
X157838800Y-92275000D02*
X158068589Y-92045211D01*
X158068589Y-92045211D02*
X159744989Y-92045211D01*
X159744989Y-92045211D02*
X160147000Y-91643200D01*
X160147000Y-91643200D02*
X160528000Y-91643200D01*
X160528000Y-91643200D02*
X160782000Y-91897200D01*
X160782000Y-91897200D02*
X160782000Y-92252800D01*
X160782000Y-92252800D02*
X160705800Y-92329000D01*
D10*
X160705800Y-92329000D02*
X160680400Y-92329000D01*
X160680400Y-92329000D02*
X160502600Y-92506800D01*
X160502600Y-92506800D02*
X160477200Y-92506800D01*
D31*
X160350200Y-92633800D02*
X160477200Y-92506800D01*
X160350200Y-92710000D02*
X160350200Y-92633800D01*
X160350200Y-93726000D02*
X162128200Y-95504000D01*
X162128200Y-95504000D02*
X162179000Y-95504000D01*
X160350200Y-92710000D02*
X160350200Y-93726000D01*
D10*
X162179000Y-95504000D02*
X162179000Y-95478600D01*
D33*
X163703000Y-96901000D02*
X163599000Y-96901000D01*
X163599000Y-96901000D02*
X163250000Y-97250000D01*
X155829000Y-97536000D02*
X155778200Y-97586800D01*
D31*
X155778200Y-97739200D02*
X155778200Y-97586800D01*
X155778200Y-97739200D02*
X155778200Y-98374200D01*
X155778200Y-98374200D02*
X156108400Y-98704400D01*
X156108400Y-98704400D02*
X156387800Y-98704400D01*
X159889162Y-99132362D02*
X159889162Y-99138108D01*
X156387800Y-98704400D02*
X156683401Y-99000001D01*
X156683401Y-99000001D02*
X159756801Y-99000001D01*
X159756801Y-99000001D02*
X159889162Y-99132362D01*
D33*
X155244800Y-96012000D02*
X155321000Y-96088200D01*
X155321000Y-96647000D02*
X155829000Y-97155000D01*
X155321000Y-96088200D02*
X155321000Y-96647000D01*
X155829000Y-97155000D02*
X155829000Y-97536000D01*
D31*
X155143200Y-95910400D02*
X155244800Y-96012000D01*
X155143200Y-94610198D02*
X155143200Y-95910400D01*
X153289000Y-93500000D02*
X154033002Y-93500000D01*
X154033002Y-93500000D02*
X155143200Y-94610198D01*
X154221000Y-95428000D02*
X153541000Y-95428000D01*
X153541000Y-95428000D02*
X153340998Y-95628002D01*
X153340998Y-95628002D02*
X153340998Y-96243054D01*
X153340998Y-96243054D02*
X153340998Y-96561252D01*
X151993600Y-95758000D02*
X151315600Y-95080000D01*
X151315600Y-95080000D02*
X151000000Y-95080000D01*
X152146000Y-95758000D02*
X151993600Y-95758000D01*
X152915997Y-96527997D02*
X152146000Y-95758000D01*
X152915997Y-96765253D02*
X152915997Y-96527997D01*
X154051000Y-97790000D02*
X153247253Y-96986253D01*
X153247253Y-96986253D02*
X153136997Y-96986253D01*
X153136997Y-96986253D02*
X152915997Y-96765253D01*
X154584400Y-97790000D02*
X154051000Y-97790000D01*
X154894002Y-97480398D02*
X154584400Y-97790000D01*
X154894002Y-97155000D02*
X154894002Y-97480398D01*
X154965400Y-96152400D02*
X154965400Y-97083602D01*
X154965400Y-97083602D02*
X154894002Y-97155000D01*
X154221000Y-96088000D02*
X154901000Y-96088000D01*
X154901000Y-96088000D02*
X154965400Y-96152400D01*
X151341000Y-95080000D02*
X151000000Y-95080000D01*
X167513000Y-84328000D02*
X167513000Y-84709000D01*
X167513000Y-84709000D02*
X167386000Y-84836000D01*
X168021000Y-85852000D02*
X168021000Y-84791340D01*
X168021000Y-84791340D02*
X167557660Y-84328000D01*
X167557660Y-84328000D02*
X167513000Y-84328000D01*
D10*
X165863424Y-85344000D02*
X167741190Y-87221766D01*
X169192989Y-91727799D02*
X169017998Y-91902790D01*
X169472389Y-90025844D02*
X169472389Y-90813399D01*
X169348474Y-89901929D02*
X169472389Y-90025844D01*
X169348474Y-88739201D02*
X169348474Y-89901929D01*
X167741190Y-87221766D02*
X167831039Y-87221766D01*
X165760400Y-85344000D02*
X165863424Y-85344000D01*
X169017998Y-91902790D02*
X169017998Y-92853095D01*
X169472389Y-90813399D02*
X169192989Y-91092798D01*
X169017998Y-92853095D02*
X169099941Y-92935038D01*
X169192989Y-91092798D02*
X169192989Y-91727799D01*
X167831039Y-87221766D02*
X169348474Y-88739201D01*
D31*
X165608000Y-85344000D02*
X165760400Y-85344000D01*
X163576000Y-83312000D02*
X165608000Y-85344000D01*
X163386198Y-83312000D02*
X163576000Y-83312000D01*
X163068000Y-83312000D02*
X163386198Y-83312000D01*
D10*
X157480000Y-81861572D02*
X158607023Y-82988595D01*
X167550393Y-87896799D02*
X167420014Y-87896799D01*
X167992011Y-89187798D02*
X167992011Y-88338417D01*
X165756215Y-86233000D02*
X165633400Y-86233000D01*
X167420014Y-87896799D02*
X165756215Y-86233000D01*
X167992011Y-88338417D02*
X167550393Y-87896799D01*
X168373011Y-89568798D02*
X167992011Y-89187798D01*
X168373011Y-90086938D02*
X168373011Y-89568798D01*
X168222356Y-91155830D02*
X168222356Y-90237593D01*
X168330589Y-91264063D02*
X168222356Y-91155830D01*
X168222356Y-90237593D02*
X168373011Y-90086938D01*
X157480000Y-81280000D02*
X157480000Y-81861572D01*
X159820789Y-83442989D02*
X159867600Y-83489800D01*
X158607023Y-82988595D02*
X158607023Y-83167599D01*
X158607023Y-83167599D02*
X158882413Y-83442989D01*
X158882413Y-83442989D02*
X159820789Y-83442989D01*
D31*
X159867600Y-83489800D02*
X162610800Y-86233000D01*
X162610800Y-86233000D02*
X165633400Y-86233000D01*
X157480000Y-81280000D02*
X156470000Y-81280000D01*
X156470000Y-81280000D02*
X156250000Y-81500000D01*
X156700400Y-90975000D02*
X156387800Y-91287600D01*
X156387800Y-91287600D02*
X156387800Y-91694000D01*
X157100000Y-90975000D02*
X156700400Y-90975000D01*
X152492054Y-94840820D02*
X152492054Y-93258942D01*
X152492054Y-93258942D02*
X152761596Y-92989400D01*
X152761596Y-92989400D02*
X155092400Y-92989400D01*
X155092400Y-92989400D02*
X156387800Y-91694000D01*
X157100000Y-90975000D02*
X158199000Y-90975000D01*
D10*
X158199000Y-90975000D02*
X158242000Y-90932000D01*
D31*
X157100000Y-90325000D02*
X156740800Y-90325000D01*
X156740800Y-90325000D02*
X156112789Y-90953011D01*
X152050001Y-95193677D02*
X152180324Y-95324000D01*
X156112789Y-90953011D02*
X156112789Y-91562713D01*
X152050001Y-93290073D02*
X152050001Y-95193677D01*
X156112789Y-91562713D02*
X154986512Y-92688990D01*
X154986512Y-92688990D02*
X152651084Y-92688990D01*
X152651084Y-92688990D02*
X152050001Y-93290073D01*
X157100000Y-90325000D02*
X157833000Y-90325000D01*
X157833000Y-90325000D02*
X158242000Y-89916000D01*
X159925991Y-97433042D02*
X160146991Y-97212042D01*
X159639000Y-96259487D02*
X159639000Y-96012000D01*
X160146991Y-96767478D02*
X159639000Y-96259487D01*
X159517989Y-97433042D02*
X159925991Y-97433042D01*
X160146991Y-97212042D02*
X160146991Y-96767478D01*
X159511822Y-97426875D02*
X159517989Y-97433042D01*
X159126777Y-97426875D02*
X159511822Y-97426875D01*
X157988000Y-98425000D02*
X157988000Y-97790000D01*
X157988000Y-97790000D02*
X157861000Y-97663000D01*
X158909294Y-97851876D02*
X158961206Y-97851876D01*
X158961206Y-97851876D02*
X159004000Y-97894670D01*
X159004000Y-97894670D02*
X159004000Y-98425000D01*
X160139000Y-96004000D02*
X160528000Y-96393000D01*
X158745160Y-97687742D02*
X158520161Y-97462743D01*
X158909294Y-97851876D02*
X158745160Y-97687742D01*
X159958124Y-97851876D02*
X158909294Y-97851876D01*
X160528000Y-97282000D02*
X159958124Y-97851876D01*
X160528000Y-96393000D02*
X160528000Y-97282000D01*
X165658800Y-86508010D02*
X162496888Y-86508010D01*
X162496888Y-86508010D02*
X159681878Y-83693000D01*
X159681878Y-83693000D02*
X158814212Y-83693000D01*
X156032200Y-82524600D02*
X155981400Y-82575400D01*
X155981400Y-82575400D02*
X154025600Y-82575400D01*
X154025600Y-82575400D02*
X153924000Y-82677000D01*
D10*
X156032200Y-82524600D02*
X156231811Y-82324989D01*
X156231811Y-82324989D02*
X157625204Y-82324989D01*
X157625204Y-82324989D02*
X158382012Y-83081797D01*
X158382012Y-83260800D02*
X158814212Y-83693000D01*
X158382012Y-83081797D02*
X158382012Y-83260800D01*
X167894000Y-91637242D02*
X167894000Y-91072413D01*
X167997345Y-90144391D02*
X168148000Y-89993737D01*
X165713012Y-86508010D02*
X165658800Y-86508010D01*
X167894000Y-91072413D02*
X167997345Y-90969068D01*
X167997345Y-90969068D02*
X167997345Y-90144391D01*
X167457191Y-88121810D02*
X167326812Y-88121810D01*
X168148000Y-89993737D02*
X168148000Y-89662000D01*
X167766239Y-91765003D02*
X167894000Y-91637242D01*
X167326812Y-88121810D02*
X165713012Y-86508010D01*
X167767000Y-88431619D02*
X167457191Y-88121810D01*
X168148000Y-89662000D02*
X167767000Y-89281000D01*
X167767000Y-89281000D02*
X167767000Y-88431619D01*
X153924000Y-82677000D02*
X154051000Y-82550000D01*
D31*
X159020298Y-83015173D02*
X159850173Y-83015173D01*
X159850173Y-83015173D02*
X161493200Y-84658200D01*
X161493200Y-84658200D02*
X162280600Y-84658200D01*
X162280600Y-84658200D02*
X162560000Y-84937600D01*
X162560000Y-84937600D02*
X162560000Y-85342575D01*
X162560000Y-85342575D02*
X162877393Y-85659968D01*
X162877393Y-85659968D02*
X165673032Y-85659968D01*
X168748246Y-93389955D02*
X168656000Y-93297709D01*
X168656000Y-93297709D02*
X168656000Y-92169739D01*
D10*
X168656000Y-92169739D02*
X168699939Y-92125800D01*
X168699939Y-92125800D02*
X168699939Y-91902636D01*
X167606418Y-87446777D02*
X165844608Y-85684967D01*
X165698031Y-85684967D02*
X165673032Y-85659968D01*
X169123463Y-88832403D02*
X167737837Y-87446777D01*
X168699939Y-91902636D02*
X168967978Y-91634597D01*
X168967978Y-91634597D02*
X168967978Y-90999596D01*
X169247378Y-90720197D02*
X169247378Y-90119046D01*
X168967978Y-90999596D02*
X169247378Y-90720197D01*
X169247378Y-90119046D02*
X169123463Y-89995131D01*
X169123463Y-89995131D02*
X169123463Y-88832403D01*
X167737837Y-87446777D02*
X167606418Y-87446777D01*
X165844608Y-85684967D02*
X165698031Y-85684967D01*
D31*
X168275000Y-92009362D02*
X168275000Y-93608459D01*
X168275000Y-93608459D02*
X168652847Y-93986306D01*
D10*
X169022367Y-90212248D02*
X168898452Y-90088333D01*
X168898452Y-88925605D02*
X167644635Y-87671788D01*
X167513216Y-87671788D02*
X165776406Y-85934978D01*
X167644635Y-87671788D02*
X167513216Y-87671788D01*
X168898452Y-90088333D02*
X168898452Y-88925605D01*
X169022367Y-90626995D02*
X169022367Y-90212248D01*
X168742968Y-90906393D02*
X169022367Y-90626995D01*
X168742967Y-91541395D02*
X168742968Y-90906393D01*
X168275000Y-92009362D02*
X168742967Y-91541395D01*
X165776406Y-85934978D02*
X165684200Y-85934978D01*
D31*
X162763481Y-85934978D02*
X165684200Y-85934978D01*
X162110865Y-85091164D02*
X162110865Y-85282362D01*
X162110865Y-85282362D02*
X162763481Y-85934978D01*
D10*
X169573485Y-89808727D02*
X169573485Y-88646000D01*
X167834392Y-86996755D02*
X165902237Y-85064600D01*
X169418000Y-92201986D02*
X169418000Y-91194758D01*
X169418000Y-91194758D02*
X169697400Y-90915358D01*
X169697400Y-90915358D02*
X169697400Y-89932642D01*
X169697400Y-89932642D02*
X169573485Y-89808727D01*
X169573485Y-88646000D02*
X167924241Y-86996755D01*
X167924241Y-86996755D02*
X167834392Y-86996755D01*
X165902237Y-85064600D02*
X165862000Y-85064600D01*
D31*
X165735000Y-85064600D02*
X165862000Y-85064600D01*
X163620401Y-82950001D02*
X165735000Y-85064600D01*
X162433000Y-80645000D02*
X162433000Y-82089002D01*
X162433000Y-82089002D02*
X163293999Y-82950001D01*
X163293999Y-82950001D02*
X163620401Y-82950001D01*
X167589200Y-91059000D02*
X167589200Y-91313040D01*
X167589200Y-91313040D02*
X167341238Y-91561002D01*
X167341238Y-91561002D02*
X167341238Y-93554238D01*
X167341238Y-93554238D02*
X168402000Y-94615000D01*
D10*
X167741600Y-90906600D02*
X167589200Y-91059000D01*
D31*
X167671001Y-89779588D02*
X167671001Y-90097786D01*
X165709600Y-87604600D02*
X166116000Y-88011000D01*
X163651999Y-87324999D02*
X163931600Y-87604600D01*
X163931600Y-87604600D02*
X165709600Y-87604600D01*
X163560001Y-87324999D02*
X163651999Y-87324999D01*
X160274000Y-86614000D02*
X160985200Y-87325200D01*
X160985200Y-87325200D02*
X162239798Y-87325200D01*
X162239798Y-87325200D02*
X162239999Y-87324999D01*
X162239999Y-87324999D02*
X163560001Y-87324999D01*
D10*
X167671001Y-90097786D02*
X167741600Y-90168385D01*
X167741600Y-90168385D02*
X167741600Y-90906600D01*
D31*
X162203000Y-96901000D02*
X161949050Y-96901000D01*
X161949050Y-96901000D02*
X161850050Y-97000000D01*
X152605509Y-92000000D02*
X152440574Y-92164935D01*
X153289000Y-92000000D02*
X152605509Y-92000000D01*
X156605800Y-94778000D02*
X157894780Y-93489020D01*
X160075190Y-92343120D02*
X160340393Y-92077917D01*
X160075190Y-92618430D02*
X160075190Y-92343120D01*
X159725381Y-92968239D02*
X160075190Y-92618430D01*
X159509011Y-92968239D02*
X159725381Y-92968239D01*
X158988230Y-93489020D02*
X159509011Y-92968239D01*
X157894780Y-93489020D02*
X158988230Y-93489020D01*
X156421000Y-94778000D02*
X156605800Y-94778000D01*
X156421000Y-96738000D02*
X155783246Y-96738000D01*
X155783246Y-96738000D02*
X155583511Y-96538265D01*
X155583511Y-96538265D02*
X155583511Y-94525487D01*
X155583511Y-94525487D02*
X155824198Y-94284800D01*
X155824198Y-94284800D02*
X156514800Y-94284800D01*
X156514800Y-94284800D02*
X157607000Y-93192600D01*
X157607000Y-93192600D02*
X158866903Y-93192600D01*
X158866903Y-93192600D02*
X159517572Y-92541931D01*
D10*
X154784169Y-90411248D02*
X154673248Y-90411248D01*
X154673248Y-90411248D02*
X154178000Y-89916000D01*
X155353644Y-90013446D02*
X155353644Y-90331644D01*
X155353644Y-90010356D02*
X155353644Y-90013446D01*
X155448000Y-89916000D02*
X155353644Y-90010356D01*
X155384500Y-91440000D02*
X155448000Y-91376500D01*
X155448000Y-91376500D02*
X155448000Y-91186000D01*
X156013499Y-90620501D02*
X156013499Y-89592499D01*
X155448000Y-91186000D02*
X156013499Y-90620501D01*
X156013499Y-89592499D02*
X155765500Y-89344500D01*
X155765500Y-89344500D02*
X155765500Y-89183555D01*
X155765500Y-89183555D02*
X156266827Y-88682228D01*
X157607000Y-83439000D02*
X157214000Y-83439000D01*
X157214000Y-83439000D02*
X156960000Y-83185000D01*
D31*
X156960000Y-83185000D02*
X156960000Y-83979000D01*
X156960000Y-83979000D02*
X157317000Y-84336000D01*
G36*
X154524324Y-83335189D02*
X154554271Y-83380010D01*
X154566707Y-83395164D01*
X154604836Y-83433293D01*
X154619990Y-83445729D01*
X154664811Y-83475676D01*
X154682100Y-83484917D01*
X154731897Y-83505545D01*
X154750656Y-83511236D01*
X154783670Y-83517802D01*
X154783670Y-83560000D01*
X154787162Y-83603793D01*
X154810164Y-83678070D01*
X154852949Y-83742998D01*
X154912128Y-83793436D01*
X154961377Y-83815636D01*
X154934610Y-83875016D01*
X154923670Y-83952000D01*
X154923670Y-84708490D01*
X154456490Y-85175670D01*
X153803000Y-85175670D01*
X153759207Y-85179162D01*
X153684930Y-85202164D01*
X153620002Y-85244949D01*
X153569564Y-85304128D01*
X153537610Y-85375016D01*
X153526670Y-85452000D01*
X153526670Y-85881171D01*
X153468445Y-85822539D01*
X153326185Y-85726583D01*
X153167997Y-85660087D01*
X152999905Y-85625583D01*
X152828313Y-85624385D01*
X152659756Y-85656539D01*
X152500654Y-85720820D01*
X152357069Y-85814780D01*
X152234468Y-85934839D01*
X152137521Y-86076426D01*
X152069922Y-86234146D01*
X152045664Y-86348270D01*
X151978859Y-86415075D01*
X151972266Y-86420486D01*
X151968008Y-86422762D01*
X151963386Y-86424164D01*
X151954895Y-86425000D01*
X151445561Y-86425000D01*
X151239344Y-86359584D01*
X151021150Y-86335110D01*
X151005443Y-86335000D01*
X150994557Y-86335000D01*
X150776043Y-86356425D01*
X150565853Y-86419886D01*
X150556235Y-86425000D01*
X150325000Y-86425000D01*
X150325000Y-84765897D01*
X150334624Y-84667750D01*
X150358508Y-84588641D01*
X150397307Y-84515671D01*
X150449539Y-84451629D01*
X150513215Y-84398951D01*
X150585908Y-84359646D01*
X150664859Y-84335207D01*
X150761965Y-84325000D01*
X151633400Y-84325000D01*
X151640057Y-84324347D01*
X151646729Y-84324726D01*
X151651262Y-84324509D01*
X151733563Y-84319979D01*
X151755842Y-84316549D01*
X151778271Y-84314390D01*
X151782718Y-84313485D01*
X151925946Y-84283302D01*
X151954013Y-84274452D01*
X151982252Y-84265980D01*
X151986439Y-84264229D01*
X152121077Y-84206801D01*
X152146910Y-84192658D01*
X152172945Y-84178873D01*
X152176711Y-84176342D01*
X152176710Y-84176342D01*
X152176713Y-84176341D01*
X152176715Y-84176339D01*
X152297631Y-84093857D01*
X152320241Y-84074952D01*
X152343090Y-84056383D01*
X152346294Y-84053169D01*
X152448889Y-83948767D01*
X152449826Y-83947606D01*
X153061747Y-83325000D01*
X154518878Y-83325000D01*
X154524324Y-83335189D01*
X154524324Y-83335189D01*
G37*
X154524324Y-83335189D02*
X154554271Y-83380010D01*
X154566707Y-83395164D01*
X154604836Y-83433293D01*
X154619990Y-83445729D01*
X154664811Y-83475676D01*
X154682100Y-83484917D01*
X154731897Y-83505545D01*
X154750656Y-83511236D01*
X154783670Y-83517802D01*
X154783670Y-83560000D01*
X154787162Y-83603793D01*
X154810164Y-83678070D01*
X154852949Y-83742998D01*
X154912128Y-83793436D01*
X154961377Y-83815636D01*
X154934610Y-83875016D01*
X154923670Y-83952000D01*
X154923670Y-84708490D01*
X154456490Y-85175670D01*
X153803000Y-85175670D01*
X153759207Y-85179162D01*
X153684930Y-85202164D01*
X153620002Y-85244949D01*
X153569564Y-85304128D01*
X153537610Y-85375016D01*
X153526670Y-85452000D01*
X153526670Y-85881171D01*
X153468445Y-85822539D01*
X153326185Y-85726583D01*
X153167997Y-85660087D01*
X152999905Y-85625583D01*
X152828313Y-85624385D01*
X152659756Y-85656539D01*
X152500654Y-85720820D01*
X152357069Y-85814780D01*
X152234468Y-85934839D01*
X152137521Y-86076426D01*
X152069922Y-86234146D01*
X152045664Y-86348270D01*
X151978859Y-86415075D01*
X151972266Y-86420486D01*
X151968008Y-86422762D01*
X151963386Y-86424164D01*
X151954895Y-86425000D01*
X151445561Y-86425000D01*
X151239344Y-86359584D01*
X151021150Y-86335110D01*
X151005443Y-86335000D01*
X150994557Y-86335000D01*
X150776043Y-86356425D01*
X150565853Y-86419886D01*
X150556235Y-86425000D01*
X150325000Y-86425000D01*
X150325000Y-84765897D01*
X150334624Y-84667750D01*
X150358508Y-84588641D01*
X150397307Y-84515671D01*
X150449539Y-84451629D01*
X150513215Y-84398951D01*
X150585908Y-84359646D01*
X150664859Y-84335207D01*
X150761965Y-84325000D01*
X151633400Y-84325000D01*
X151640057Y-84324347D01*
X151646729Y-84324726D01*
X151651262Y-84324509D01*
X151733563Y-84319979D01*
X151755842Y-84316549D01*
X151778271Y-84314390D01*
X151782718Y-84313485D01*
X151925946Y-84283302D01*
X151954013Y-84274452D01*
X151982252Y-84265980D01*
X151986439Y-84264229D01*
X152121077Y-84206801D01*
X152146910Y-84192658D01*
X152172945Y-84178873D01*
X152176711Y-84176342D01*
X152176710Y-84176342D01*
X152176713Y-84176341D01*
X152176715Y-84176339D01*
X152297631Y-84093857D01*
X152320241Y-84074952D01*
X152343090Y-84056383D01*
X152346294Y-84053169D01*
X152448889Y-83948767D01*
X152449826Y-83947606D01*
X153061747Y-83325000D01*
X154518878Y-83325000D01*
X154524324Y-83335189D01*
G36*
X166856826Y-88725677D02*
X166904632Y-88799857D01*
X166965935Y-88863338D01*
X167038401Y-88913703D01*
X167119270Y-88949034D01*
X167205460Y-88967984D01*
X167293691Y-88969832D01*
X167380599Y-88954508D01*
X167462876Y-88922595D01*
X167492000Y-88904112D01*
X167492000Y-89281000D01*
X167494481Y-89306305D01*
X167496693Y-89331586D01*
X167497096Y-89332972D01*
X167497237Y-89334414D01*
X167504593Y-89358777D01*
X167505290Y-89361178D01*
X167461509Y-89378867D01*
X167387665Y-89427189D01*
X167324613Y-89488934D01*
X167274755Y-89561750D01*
X167239990Y-89642863D01*
X167221642Y-89729184D01*
X167220410Y-89817425D01*
X167236341Y-89904225D01*
X167268827Y-89986277D01*
X167316633Y-90060457D01*
X167373071Y-90118900D01*
X167376714Y-90156056D01*
X167393637Y-90212107D01*
X167421125Y-90263803D01*
X167458130Y-90309176D01*
X167466600Y-90316183D01*
X167466600Y-90786187D01*
X167424931Y-90807971D01*
X167379301Y-90844658D01*
X167341666Y-90889510D01*
X167313459Y-90940817D01*
X167295756Y-90996626D01*
X167289229Y-91054811D01*
X167289200Y-91059000D01*
X167289200Y-91188776D01*
X167129106Y-91348870D01*
X167111520Y-91370279D01*
X167093704Y-91391512D01*
X167092944Y-91392894D01*
X167091943Y-91394113D01*
X167078860Y-91418513D01*
X167065497Y-91442819D01*
X167065019Y-91444325D01*
X167064275Y-91445713D01*
X167056182Y-91472183D01*
X167047794Y-91498628D01*
X167047618Y-91500197D01*
X167047157Y-91501705D01*
X167044360Y-91529243D01*
X167041267Y-91556813D01*
X167041246Y-91559900D01*
X167041240Y-91559955D01*
X167041245Y-91560007D01*
X167041238Y-91561002D01*
X167041238Y-93554238D01*
X167043945Y-93581850D01*
X167046358Y-93609423D01*
X167046797Y-93610933D01*
X167046951Y-93612508D01*
X167054975Y-93639083D01*
X167062692Y-93665648D01*
X167063418Y-93667048D01*
X167063874Y-93668559D01*
X167076885Y-93693029D01*
X167089637Y-93717629D01*
X167090621Y-93718862D01*
X167091362Y-93720255D01*
X167108855Y-93741704D01*
X167126164Y-93763387D01*
X167128333Y-93765586D01*
X167128367Y-93765628D01*
X167128406Y-93765660D01*
X167129106Y-93766370D01*
X167906046Y-94543310D01*
X167902712Y-94558996D01*
X167901343Y-94657041D01*
X167919044Y-94753485D01*
X167955140Y-94844655D01*
X168008258Y-94927076D01*
X168076372Y-94997611D01*
X168156890Y-95053573D01*
X168233457Y-95087024D01*
X167651475Y-96000408D01*
X166800281Y-96891005D01*
X166769249Y-96815716D01*
X166720412Y-96742211D01*
X166658228Y-96679592D01*
X166585066Y-96630243D01*
X166503712Y-96596045D01*
X166417265Y-96578300D01*
X166329018Y-96577684D01*
X166242332Y-96594220D01*
X166160508Y-96627279D01*
X166086664Y-96675601D01*
X166023612Y-96737346D01*
X165973754Y-96810162D01*
X165938989Y-96891275D01*
X165920641Y-96977596D01*
X165919409Y-97065837D01*
X165935340Y-97152637D01*
X165967826Y-97234689D01*
X166015632Y-97308869D01*
X166076935Y-97372350D01*
X166149401Y-97422715D01*
X166222866Y-97454811D01*
X164787560Y-98463405D01*
X163052495Y-99232132D01*
X161201167Y-99649206D01*
X159304084Y-99698746D01*
X157433508Y-99378864D01*
X157227030Y-99300001D01*
X159469252Y-99300001D01*
X159486988Y-99344797D01*
X159534794Y-99418977D01*
X159596097Y-99482458D01*
X159668563Y-99532823D01*
X159749432Y-99568154D01*
X159835622Y-99587104D01*
X159923853Y-99588952D01*
X160010761Y-99573628D01*
X160093038Y-99541715D01*
X160167550Y-99494428D01*
X160231458Y-99433570D01*
X160282328Y-99361457D01*
X160318222Y-99280837D01*
X160337773Y-99194781D01*
X160339181Y-99093983D01*
X160322040Y-99007414D01*
X160301313Y-98957128D01*
X160391184Y-98900094D01*
X160476395Y-98818949D01*
X160544221Y-98722799D01*
X160592080Y-98615306D01*
X160618149Y-98500564D01*
X160620026Y-98366167D01*
X160597171Y-98250742D01*
X160552332Y-98141954D01*
X160487216Y-98043948D01*
X160404305Y-97960455D01*
X160326374Y-97907890D01*
X160740132Y-97494132D01*
X160757718Y-97472723D01*
X160775534Y-97451490D01*
X160776294Y-97450108D01*
X160777295Y-97448889D01*
X160790378Y-97424489D01*
X160803741Y-97400183D01*
X160804219Y-97398677D01*
X160804963Y-97397289D01*
X160813060Y-97370806D01*
X160821444Y-97344374D01*
X160821620Y-97342806D01*
X160822081Y-97341298D01*
X160824879Y-97313754D01*
X160827971Y-97286189D01*
X160827992Y-97283102D01*
X160827998Y-97283047D01*
X160827993Y-97282995D01*
X160828000Y-97282000D01*
X160828000Y-97037837D01*
X161399459Y-97037837D01*
X161415390Y-97124637D01*
X161447876Y-97206689D01*
X161495682Y-97280869D01*
X161556985Y-97344350D01*
X161629451Y-97394715D01*
X161710320Y-97430046D01*
X161745551Y-97437792D01*
X161748589Y-97447602D01*
X161783595Y-97500725D01*
X161832014Y-97541993D01*
X161890013Y-97568137D01*
X161953000Y-97577088D01*
X162453000Y-97577088D01*
X162488830Y-97574231D01*
X162549602Y-97555411D01*
X162602725Y-97520405D01*
X162643993Y-97471986D01*
X162670137Y-97413987D01*
X162679088Y-97351000D01*
X162679088Y-97292041D01*
X162749343Y-97292041D01*
X162767044Y-97388485D01*
X162803140Y-97479655D01*
X162856258Y-97562076D01*
X162924372Y-97632611D01*
X163004890Y-97688573D01*
X163094744Y-97727829D01*
X163190512Y-97748885D01*
X163288545Y-97750938D01*
X163385110Y-97733911D01*
X163476529Y-97698452D01*
X163559320Y-97645912D01*
X163630329Y-97578291D01*
X163631178Y-97577088D01*
X163953000Y-97577088D01*
X163988830Y-97574231D01*
X164049602Y-97555411D01*
X164102725Y-97520405D01*
X164143993Y-97471986D01*
X164170137Y-97413987D01*
X164179088Y-97351000D01*
X164179088Y-96451000D01*
X164176231Y-96415170D01*
X164157411Y-96354398D01*
X164122405Y-96301275D01*
X164073986Y-96260007D01*
X164015987Y-96233863D01*
X163953000Y-96224912D01*
X163453000Y-96224912D01*
X163417170Y-96227769D01*
X163356398Y-96246589D01*
X163303275Y-96281595D01*
X163262007Y-96330014D01*
X163235863Y-96388013D01*
X163226912Y-96451000D01*
X163226912Y-96749806D01*
X163204464Y-96749649D01*
X163108146Y-96768022D01*
X163017231Y-96804754D01*
X162935182Y-96858446D01*
X162865125Y-96927051D01*
X162809727Y-97007958D01*
X162771099Y-97098084D01*
X162750712Y-97193996D01*
X162749343Y-97292041D01*
X162679088Y-97292041D01*
X162679088Y-96451000D01*
X162676231Y-96415170D01*
X162657411Y-96354398D01*
X162622405Y-96301275D01*
X162573986Y-96260007D01*
X162515987Y-96233863D01*
X162453000Y-96224912D01*
X161953000Y-96224912D01*
X161917170Y-96227769D01*
X161856398Y-96246589D01*
X161803275Y-96281595D01*
X161762007Y-96330014D01*
X161735863Y-96388013D01*
X161726912Y-96451000D01*
X161726912Y-96565356D01*
X161722382Y-96566220D01*
X161640558Y-96599279D01*
X161566714Y-96647601D01*
X161503662Y-96709346D01*
X161453804Y-96782162D01*
X161419039Y-96863275D01*
X161400691Y-96949596D01*
X161399459Y-97037837D01*
X160828000Y-97037837D01*
X160828000Y-96393000D01*
X160825293Y-96365388D01*
X160822880Y-96337815D01*
X160822441Y-96336305D01*
X160822287Y-96334730D01*
X160814263Y-96308155D01*
X160806546Y-96281590D01*
X160805820Y-96280190D01*
X160805364Y-96278679D01*
X160792353Y-96254209D01*
X160779601Y-96229609D01*
X160778617Y-96228376D01*
X160777876Y-96226983D01*
X160760386Y-96205538D01*
X160743074Y-96183850D01*
X160740904Y-96181651D01*
X160740871Y-96181610D01*
X160740833Y-96181579D01*
X160740132Y-96180868D01*
X160538811Y-95979547D01*
X160539017Y-95964778D01*
X160523780Y-95887828D01*
X160493888Y-95815303D01*
X160452681Y-95753282D01*
X160488480Y-95702533D01*
X160520386Y-95630870D01*
X160523263Y-95618208D01*
X160561401Y-95644715D01*
X160642270Y-95680046D01*
X160728460Y-95698996D01*
X160816691Y-95700844D01*
X160903599Y-95685520D01*
X160985876Y-95653607D01*
X161060388Y-95606320D01*
X161124296Y-95545462D01*
X161175166Y-95473349D01*
X161211060Y-95392729D01*
X161230611Y-95306673D01*
X161232019Y-95205875D01*
X161214878Y-95119306D01*
X161181249Y-95037716D01*
X161132412Y-94964211D01*
X161070228Y-94901592D01*
X160997066Y-94852243D01*
X160915712Y-94818045D01*
X160829265Y-94800300D01*
X160741018Y-94799684D01*
X160654332Y-94816220D01*
X160572508Y-94849279D01*
X160498664Y-94897601D01*
X160435612Y-94959346D01*
X160385754Y-95032162D01*
X160350989Y-95113275D01*
X160341470Y-95158060D01*
X160330170Y-95150438D01*
X160257855Y-95120040D01*
X160181014Y-95104267D01*
X160102572Y-95103719D01*
X160025517Y-95118418D01*
X159952785Y-95147804D01*
X159887146Y-95190757D01*
X159831100Y-95245641D01*
X159786782Y-95310366D01*
X159755879Y-95382467D01*
X159739570Y-95459197D01*
X159738475Y-95537633D01*
X159752635Y-95614788D01*
X159757887Y-95628053D01*
X159757855Y-95628040D01*
X159681014Y-95612267D01*
X159602572Y-95611719D01*
X159525517Y-95626418D01*
X159452785Y-95655804D01*
X159394586Y-95693888D01*
X159330170Y-95650438D01*
X159257855Y-95620040D01*
X159181014Y-95604267D01*
X159102572Y-95603719D01*
X159025517Y-95618418D01*
X158952785Y-95647804D01*
X158887146Y-95690757D01*
X158831100Y-95745641D01*
X158786782Y-95810366D01*
X158755879Y-95882467D01*
X158753266Y-95894759D01*
X158486703Y-96161323D01*
X158483986Y-96159007D01*
X158425987Y-96132863D01*
X158363000Y-96123912D01*
X157856886Y-96123912D01*
X157573487Y-95840513D01*
X157548533Y-95820016D01*
X157523738Y-95799210D01*
X157522122Y-95798322D01*
X157520703Y-95797156D01*
X157492228Y-95781887D01*
X157463880Y-95766303D01*
X157462127Y-95765747D01*
X157460503Y-95764876D01*
X157429572Y-95755420D01*
X157398769Y-95745648D01*
X157396939Y-95745443D01*
X157395180Y-95744905D01*
X157363026Y-95741639D01*
X157330887Y-95738034D01*
X157327291Y-95738009D01*
X157327222Y-95738002D01*
X157327158Y-95738008D01*
X157326000Y-95738000D01*
X157120082Y-95738000D01*
X157071986Y-95697007D01*
X157013987Y-95670863D01*
X156951000Y-95661912D01*
X155891000Y-95661912D01*
X155883511Y-95662509D01*
X155883511Y-95203024D01*
X155891000Y-95204088D01*
X156951000Y-95204088D01*
X156986830Y-95201231D01*
X157047602Y-95182411D01*
X157100725Y-95147405D01*
X157141993Y-95098986D01*
X157168137Y-95040987D01*
X157177088Y-94978000D01*
X157177088Y-94630976D01*
X158019044Y-93789020D01*
X158988230Y-93789020D01*
X159015842Y-93786313D01*
X159043415Y-93783900D01*
X159044925Y-93783461D01*
X159046500Y-93783307D01*
X159073075Y-93775283D01*
X159090980Y-93770082D01*
X159105078Y-93805689D01*
X159152884Y-93879869D01*
X159214187Y-93943350D01*
X159286653Y-93993715D01*
X159367522Y-94029046D01*
X159453712Y-94047996D01*
X159541943Y-94049844D01*
X159628851Y-94034520D01*
X159711128Y-94002607D01*
X159785640Y-93955320D01*
X159849548Y-93894462D01*
X159900418Y-93822349D01*
X159936312Y-93741729D01*
X159955863Y-93655673D01*
X159957271Y-93554875D01*
X159940130Y-93468306D01*
X159906501Y-93386716D01*
X159857664Y-93313211D01*
X159801869Y-93257026D01*
X159810226Y-93254502D01*
X159836791Y-93246785D01*
X159838191Y-93246059D01*
X159839702Y-93245603D01*
X159864172Y-93232592D01*
X159888772Y-93219840D01*
X159890005Y-93218856D01*
X159891398Y-93218115D01*
X159912847Y-93200622D01*
X159934530Y-93183313D01*
X159936729Y-93181144D01*
X159936771Y-93181110D01*
X159936803Y-93181071D01*
X159937513Y-93180371D01*
X160050200Y-93067684D01*
X160050200Y-93726000D01*
X160052907Y-93753612D01*
X160055320Y-93781185D01*
X160055759Y-93782695D01*
X160055913Y-93784270D01*
X160063937Y-93810845D01*
X160071654Y-93837410D01*
X160072380Y-93838810D01*
X160072836Y-93840321D01*
X160085847Y-93864791D01*
X160098599Y-93889391D01*
X160099583Y-93890624D01*
X160100324Y-93892017D01*
X160117817Y-93913466D01*
X160135126Y-93935149D01*
X160137295Y-93937348D01*
X160137329Y-93937390D01*
X160137368Y-93937422D01*
X160138068Y-93938132D01*
X161552912Y-95352976D01*
X161552912Y-95904000D01*
X161555769Y-95939830D01*
X161574589Y-96000602D01*
X161609595Y-96053725D01*
X161658014Y-96094993D01*
X161716013Y-96121137D01*
X161779000Y-96130088D01*
X162579000Y-96130088D01*
X162614830Y-96127231D01*
X162675602Y-96108411D01*
X162728725Y-96073405D01*
X162769993Y-96024986D01*
X162796137Y-95966987D01*
X162805088Y-95904000D01*
X162805088Y-95104000D01*
X162802231Y-95068170D01*
X162783411Y-95007398D01*
X162748405Y-94954275D01*
X162699986Y-94913007D01*
X162641987Y-94886863D01*
X162579000Y-94877912D01*
X161926376Y-94877912D01*
X161258928Y-94210464D01*
X161271513Y-94216137D01*
X161334500Y-94225088D01*
X162134500Y-94225088D01*
X162170330Y-94222231D01*
X162231102Y-94203411D01*
X162284225Y-94168405D01*
X162325493Y-94119986D01*
X162351637Y-94061987D01*
X162360588Y-93999000D01*
X162360588Y-93199000D01*
X162708412Y-93199000D01*
X162708412Y-93999000D01*
X162711269Y-94034830D01*
X162730089Y-94095602D01*
X162765095Y-94148725D01*
X162813514Y-94189993D01*
X162871513Y-94216137D01*
X162934500Y-94225088D01*
X163734500Y-94225088D01*
X163770330Y-94222231D01*
X163831102Y-94203411D01*
X163884225Y-94168405D01*
X163918236Y-94128500D01*
X164046286Y-94128500D01*
X164064589Y-94187602D01*
X164099595Y-94240725D01*
X164148014Y-94281993D01*
X164206013Y-94308137D01*
X164269000Y-94317088D01*
X165015648Y-94317088D01*
X164360344Y-94972392D01*
X164348405Y-94954275D01*
X164299986Y-94913007D01*
X164241987Y-94886863D01*
X164179000Y-94877912D01*
X163379000Y-94877912D01*
X163343170Y-94880769D01*
X163282398Y-94899589D01*
X163229275Y-94934595D01*
X163188007Y-94983014D01*
X163161863Y-95041013D01*
X163152912Y-95104000D01*
X163152912Y-95904000D01*
X163155769Y-95939830D01*
X163174589Y-96000602D01*
X163209595Y-96053725D01*
X163258014Y-96094993D01*
X163316013Y-96121137D01*
X163379000Y-96130088D01*
X164179000Y-96130088D01*
X164214830Y-96127231D01*
X164275602Y-96108411D01*
X164328725Y-96073405D01*
X164369993Y-96024986D01*
X164396137Y-95966987D01*
X164405088Y-95904000D01*
X164405088Y-95761460D01*
X164416391Y-95755601D01*
X164417624Y-95754617D01*
X164419017Y-95753876D01*
X164440466Y-95736383D01*
X164462149Y-95719074D01*
X164464348Y-95716905D01*
X164464390Y-95716871D01*
X164464422Y-95716832D01*
X164465132Y-95716132D01*
X164824654Y-95356610D01*
X164811165Y-95420072D01*
X164809933Y-95508313D01*
X164825864Y-95595113D01*
X164858350Y-95677165D01*
X164906156Y-95751345D01*
X164967459Y-95814826D01*
X165039925Y-95865191D01*
X165120794Y-95900522D01*
X165206984Y-95919472D01*
X165295215Y-95921320D01*
X165382123Y-95905996D01*
X165464400Y-95874083D01*
X165483785Y-95861781D01*
X165512796Y-95906797D01*
X165574099Y-95970278D01*
X165646565Y-96020643D01*
X165727434Y-96055974D01*
X165813624Y-96074924D01*
X165901855Y-96076772D01*
X165988763Y-96061448D01*
X166071040Y-96029535D01*
X166145552Y-95982248D01*
X166209460Y-95921390D01*
X166260330Y-95849277D01*
X166296224Y-95768657D01*
X166315775Y-95682601D01*
X166316178Y-95653721D01*
X166764399Y-95653721D01*
X166780330Y-95740521D01*
X166812816Y-95822573D01*
X166860622Y-95896753D01*
X166921925Y-95960234D01*
X166994391Y-96010599D01*
X167075260Y-96045930D01*
X167161450Y-96064880D01*
X167249681Y-96066728D01*
X167336589Y-96051404D01*
X167418866Y-96019491D01*
X167493378Y-95972204D01*
X167557286Y-95911346D01*
X167608156Y-95839233D01*
X167644050Y-95758613D01*
X167663601Y-95672557D01*
X167665009Y-95571759D01*
X167647868Y-95485190D01*
X167614239Y-95403600D01*
X167565402Y-95330095D01*
X167503218Y-95267476D01*
X167430056Y-95218127D01*
X167348702Y-95183929D01*
X167262255Y-95166184D01*
X167174008Y-95165568D01*
X167087322Y-95182104D01*
X167005498Y-95215163D01*
X166931654Y-95263485D01*
X166868602Y-95325230D01*
X166818744Y-95398046D01*
X166783979Y-95479159D01*
X166765631Y-95565480D01*
X166764399Y-95653721D01*
X166316178Y-95653721D01*
X166317183Y-95581803D01*
X166300042Y-95495234D01*
X166266413Y-95413644D01*
X166217576Y-95340139D01*
X166155392Y-95277520D01*
X166082230Y-95228171D01*
X166000876Y-95193973D01*
X165914429Y-95176228D01*
X165826182Y-95175612D01*
X165739496Y-95192148D01*
X165657672Y-95225207D01*
X165643862Y-95234244D01*
X165610936Y-95184687D01*
X165548752Y-95122068D01*
X165475590Y-95072719D01*
X165394236Y-95038521D01*
X165307789Y-95020776D01*
X165219542Y-95020160D01*
X165147329Y-95033935D01*
X165864176Y-94317088D01*
X166566000Y-94317088D01*
X166601830Y-94314231D01*
X166662602Y-94295411D01*
X166715725Y-94260405D01*
X166756993Y-94211986D01*
X166783137Y-94153987D01*
X166792088Y-94091000D01*
X166792088Y-93591000D01*
X166789231Y-93555170D01*
X166770411Y-93494398D01*
X166735405Y-93441275D01*
X166686986Y-93400007D01*
X166628987Y-93373863D01*
X166566000Y-93364912D01*
X165666000Y-93364912D01*
X165630170Y-93367769D01*
X165569398Y-93386589D01*
X165516275Y-93421595D01*
X165475007Y-93470014D01*
X165448863Y-93528013D01*
X165439912Y-93591000D01*
X165439912Y-93892824D01*
X165395088Y-93937648D01*
X165395088Y-93591000D01*
X165392231Y-93555170D01*
X165373411Y-93494398D01*
X165338405Y-93441275D01*
X165289986Y-93400007D01*
X165231987Y-93373863D01*
X165169000Y-93364912D01*
X164269000Y-93364912D01*
X164233170Y-93367769D01*
X164172398Y-93386589D01*
X164119275Y-93421595D01*
X164078007Y-93470014D01*
X164051863Y-93528013D01*
X164048241Y-93553500D01*
X163960588Y-93553500D01*
X163960588Y-93199000D01*
X163957731Y-93163170D01*
X163938911Y-93102398D01*
X163903905Y-93049275D01*
X163855486Y-93008007D01*
X163797487Y-92981863D01*
X163734500Y-92972912D01*
X162934500Y-92972912D01*
X162898670Y-92975769D01*
X162837898Y-92994589D01*
X162784775Y-93029595D01*
X162743507Y-93078014D01*
X162717363Y-93136013D01*
X162708412Y-93199000D01*
X162360588Y-93199000D01*
X162357731Y-93163170D01*
X162338911Y-93102398D01*
X162303905Y-93049275D01*
X162255486Y-93008007D01*
X162197487Y-92981863D01*
X162134500Y-92972912D01*
X162034500Y-92972912D01*
X162034500Y-91663474D01*
X162173912Y-91802886D01*
X162173912Y-91825000D01*
X162176769Y-91860830D01*
X162195589Y-91921602D01*
X162213485Y-91948760D01*
X162209007Y-91954014D01*
X162182863Y-92012013D01*
X162173912Y-92075000D01*
X162173912Y-92475000D01*
X162176769Y-92510830D01*
X162195589Y-92571602D01*
X162230595Y-92624725D01*
X162279014Y-92665993D01*
X162337013Y-92692137D01*
X162400000Y-92701088D01*
X163400000Y-92701088D01*
X163435830Y-92698231D01*
X163496602Y-92679411D01*
X163549725Y-92644405D01*
X163566264Y-92625000D01*
X163650000Y-92625000D01*
X163682216Y-92621841D01*
X163714383Y-92619027D01*
X163716150Y-92618514D01*
X163717982Y-92618334D01*
X163748945Y-92608986D01*
X163779978Y-92599970D01*
X163781611Y-92599124D01*
X163783375Y-92598591D01*
X163792509Y-92593734D01*
X163796524Y-92597032D01*
X163821262Y-92617790D01*
X163822874Y-92618676D01*
X163824297Y-92619845D01*
X163852811Y-92635134D01*
X163881120Y-92650697D01*
X163882872Y-92651253D01*
X163884497Y-92652124D01*
X163915428Y-92661580D01*
X163946231Y-92671352D01*
X163948061Y-92671557D01*
X163949820Y-92672095D01*
X163981974Y-92675361D01*
X164014113Y-92678966D01*
X164017709Y-92678991D01*
X164017778Y-92678998D01*
X164017842Y-92678992D01*
X164019000Y-92679000D01*
X164061925Y-92679000D01*
X164064589Y-92687602D01*
X164099595Y-92740725D01*
X164148014Y-92781993D01*
X164206013Y-92808137D01*
X164269000Y-92817088D01*
X165169000Y-92817088D01*
X165204830Y-92814231D01*
X165265602Y-92795411D01*
X165318725Y-92760405D01*
X165359993Y-92711986D01*
X165380722Y-92666000D01*
X165454899Y-92666000D01*
X165461589Y-92687602D01*
X165496595Y-92740725D01*
X165545014Y-92781993D01*
X165603013Y-92808137D01*
X165666000Y-92817088D01*
X166566000Y-92817088D01*
X166601830Y-92814231D01*
X166662602Y-92795411D01*
X166715725Y-92760405D01*
X166756993Y-92711986D01*
X166783137Y-92653987D01*
X166792088Y-92591000D01*
X166792088Y-92091000D01*
X166789231Y-92055170D01*
X166770411Y-91994398D01*
X166735405Y-91941275D01*
X166686986Y-91900007D01*
X166628987Y-91873863D01*
X166566000Y-91864912D01*
X165666000Y-91864912D01*
X165630170Y-91867769D01*
X165569398Y-91886589D01*
X165516275Y-91921595D01*
X165475007Y-91970014D01*
X165454278Y-92016000D01*
X165380101Y-92016000D01*
X165373411Y-91994398D01*
X165338405Y-91941275D01*
X165289986Y-91900007D01*
X165231987Y-91873863D01*
X165169000Y-91864912D01*
X164269000Y-91864912D01*
X164249000Y-91866507D01*
X164249000Y-91812088D01*
X164713000Y-91812088D01*
X164748830Y-91809231D01*
X164809602Y-91790411D01*
X164862725Y-91755405D01*
X164903993Y-91706986D01*
X164930137Y-91648987D01*
X164939088Y-91586000D01*
X164939088Y-91054886D01*
X165957487Y-90036487D01*
X166000844Y-89983703D01*
X166033124Y-89923503D01*
X166053095Y-89858180D01*
X166055437Y-89835129D01*
X166063231Y-89809635D01*
X166071615Y-89783203D01*
X166071791Y-89781635D01*
X166072252Y-89780127D01*
X166075050Y-89752583D01*
X166078142Y-89725018D01*
X166078163Y-89721931D01*
X166078169Y-89721876D01*
X166078164Y-89721824D01*
X166078171Y-89720829D01*
X166078171Y-89008040D01*
X166115315Y-89024268D01*
X166201505Y-89043218D01*
X166289736Y-89045066D01*
X166376644Y-89029742D01*
X166458921Y-88997829D01*
X166533433Y-88950542D01*
X166597341Y-88889684D01*
X166648211Y-88817571D01*
X166684105Y-88736951D01*
X166686017Y-88728534D01*
X166770941Y-88730313D01*
X166852937Y-88715855D01*
X166856826Y-88725677D01*
X166856826Y-88725677D01*
G37*
X166856826Y-88725677D02*
X166904632Y-88799857D01*
X166965935Y-88863338D01*
X167038401Y-88913703D01*
X167119270Y-88949034D01*
X167205460Y-88967984D01*
X167293691Y-88969832D01*
X167380599Y-88954508D01*
X167462876Y-88922595D01*
X167492000Y-88904112D01*
X167492000Y-89281000D01*
X167494481Y-89306305D01*
X167496693Y-89331586D01*
X167497096Y-89332972D01*
X167497237Y-89334414D01*
X167504593Y-89358777D01*
X167505290Y-89361178D01*
X167461509Y-89378867D01*
X167387665Y-89427189D01*
X167324613Y-89488934D01*
X167274755Y-89561750D01*
X167239990Y-89642863D01*
X167221642Y-89729184D01*
X167220410Y-89817425D01*
X167236341Y-89904225D01*
X167268827Y-89986277D01*
X167316633Y-90060457D01*
X167373071Y-90118900D01*
X167376714Y-90156056D01*
X167393637Y-90212107D01*
X167421125Y-90263803D01*
X167458130Y-90309176D01*
X167466600Y-90316183D01*
X167466600Y-90786187D01*
X167424931Y-90807971D01*
X167379301Y-90844658D01*
X167341666Y-90889510D01*
X167313459Y-90940817D01*
X167295756Y-90996626D01*
X167289229Y-91054811D01*
X167289200Y-91059000D01*
X167289200Y-91188776D01*
X167129106Y-91348870D01*
X167111520Y-91370279D01*
X167093704Y-91391512D01*
X167092944Y-91392894D01*
X167091943Y-91394113D01*
X167078860Y-91418513D01*
X167065497Y-91442819D01*
X167065019Y-91444325D01*
X167064275Y-91445713D01*
X167056182Y-91472183D01*
X167047794Y-91498628D01*
X167047618Y-91500197D01*
X167047157Y-91501705D01*
X167044360Y-91529243D01*
X167041267Y-91556813D01*
X167041246Y-91559900D01*
X167041240Y-91559955D01*
X167041245Y-91560007D01*
X167041238Y-91561002D01*
X167041238Y-93554238D01*
X167043945Y-93581850D01*
X167046358Y-93609423D01*
X167046797Y-93610933D01*
X167046951Y-93612508D01*
X167054975Y-93639083D01*
X167062692Y-93665648D01*
X167063418Y-93667048D01*
X167063874Y-93668559D01*
X167076885Y-93693029D01*
X167089637Y-93717629D01*
X167090621Y-93718862D01*
X167091362Y-93720255D01*
X167108855Y-93741704D01*
X167126164Y-93763387D01*
X167128333Y-93765586D01*
X167128367Y-93765628D01*
X167128406Y-93765660D01*
X167129106Y-93766370D01*
X167906046Y-94543310D01*
X167902712Y-94558996D01*
X167901343Y-94657041D01*
X167919044Y-94753485D01*
X167955140Y-94844655D01*
X168008258Y-94927076D01*
X168076372Y-94997611D01*
X168156890Y-95053573D01*
X168233457Y-95087024D01*
X167651475Y-96000408D01*
X166800281Y-96891005D01*
X166769249Y-96815716D01*
X166720412Y-96742211D01*
X166658228Y-96679592D01*
X166585066Y-96630243D01*
X166503712Y-96596045D01*
X166417265Y-96578300D01*
X166329018Y-96577684D01*
X166242332Y-96594220D01*
X166160508Y-96627279D01*
X166086664Y-96675601D01*
X166023612Y-96737346D01*
X165973754Y-96810162D01*
X165938989Y-96891275D01*
X165920641Y-96977596D01*
X165919409Y-97065837D01*
X165935340Y-97152637D01*
X165967826Y-97234689D01*
X166015632Y-97308869D01*
X166076935Y-97372350D01*
X166149401Y-97422715D01*
X166222866Y-97454811D01*
X164787560Y-98463405D01*
X163052495Y-99232132D01*
X161201167Y-99649206D01*
X159304084Y-99698746D01*
X157433508Y-99378864D01*
X157227030Y-99300001D01*
X159469252Y-99300001D01*
X159486988Y-99344797D01*
X159534794Y-99418977D01*
X159596097Y-99482458D01*
X159668563Y-99532823D01*
X159749432Y-99568154D01*
X159835622Y-99587104D01*
X159923853Y-99588952D01*
X160010761Y-99573628D01*
X160093038Y-99541715D01*
X160167550Y-99494428D01*
X160231458Y-99433570D01*
X160282328Y-99361457D01*
X160318222Y-99280837D01*
X160337773Y-99194781D01*
X160339181Y-99093983D01*
X160322040Y-99007414D01*
X160301313Y-98957128D01*
X160391184Y-98900094D01*
X160476395Y-98818949D01*
X160544221Y-98722799D01*
X160592080Y-98615306D01*
X160618149Y-98500564D01*
X160620026Y-98366167D01*
X160597171Y-98250742D01*
X160552332Y-98141954D01*
X160487216Y-98043948D01*
X160404305Y-97960455D01*
X160326374Y-97907890D01*
X160740132Y-97494132D01*
X160757718Y-97472723D01*
X160775534Y-97451490D01*
X160776294Y-97450108D01*
X160777295Y-97448889D01*
X160790378Y-97424489D01*
X160803741Y-97400183D01*
X160804219Y-97398677D01*
X160804963Y-97397289D01*
X160813060Y-97370806D01*
X160821444Y-97344374D01*
X160821620Y-97342806D01*
X160822081Y-97341298D01*
X160824879Y-97313754D01*
X160827971Y-97286189D01*
X160827992Y-97283102D01*
X160827998Y-97283047D01*
X160827993Y-97282995D01*
X160828000Y-97282000D01*
X160828000Y-97037837D01*
X161399459Y-97037837D01*
X161415390Y-97124637D01*
X161447876Y-97206689D01*
X161495682Y-97280869D01*
X161556985Y-97344350D01*
X161629451Y-97394715D01*
X161710320Y-97430046D01*
X161745551Y-97437792D01*
X161748589Y-97447602D01*
X161783595Y-97500725D01*
X161832014Y-97541993D01*
X161890013Y-97568137D01*
X161953000Y-97577088D01*
X162453000Y-97577088D01*
X162488830Y-97574231D01*
X162549602Y-97555411D01*
X162602725Y-97520405D01*
X162643993Y-97471986D01*
X162670137Y-97413987D01*
X162679088Y-97351000D01*
X162679088Y-97292041D01*
X162749343Y-97292041D01*
X162767044Y-97388485D01*
X162803140Y-97479655D01*
X162856258Y-97562076D01*
X162924372Y-97632611D01*
X163004890Y-97688573D01*
X163094744Y-97727829D01*
X163190512Y-97748885D01*
X163288545Y-97750938D01*
X163385110Y-97733911D01*
X163476529Y-97698452D01*
X163559320Y-97645912D01*
X163630329Y-97578291D01*
X163631178Y-97577088D01*
X163953000Y-97577088D01*
X163988830Y-97574231D01*
X164049602Y-97555411D01*
X164102725Y-97520405D01*
X164143993Y-97471986D01*
X164170137Y-97413987D01*
X164179088Y-97351000D01*
X164179088Y-96451000D01*
X164176231Y-96415170D01*
X164157411Y-96354398D01*
X164122405Y-96301275D01*
X164073986Y-96260007D01*
X164015987Y-96233863D01*
X163953000Y-96224912D01*
X163453000Y-96224912D01*
X163417170Y-96227769D01*
X163356398Y-96246589D01*
X163303275Y-96281595D01*
X163262007Y-96330014D01*
X163235863Y-96388013D01*
X163226912Y-96451000D01*
X163226912Y-96749806D01*
X163204464Y-96749649D01*
X163108146Y-96768022D01*
X163017231Y-96804754D01*
X162935182Y-96858446D01*
X162865125Y-96927051D01*
X162809727Y-97007958D01*
X162771099Y-97098084D01*
X162750712Y-97193996D01*
X162749343Y-97292041D01*
X162679088Y-97292041D01*
X162679088Y-96451000D01*
X162676231Y-96415170D01*
X162657411Y-96354398D01*
X162622405Y-96301275D01*
X162573986Y-96260007D01*
X162515987Y-96233863D01*
X162453000Y-96224912D01*
X161953000Y-96224912D01*
X161917170Y-96227769D01*
X161856398Y-96246589D01*
X161803275Y-96281595D01*
X161762007Y-96330014D01*
X161735863Y-96388013D01*
X161726912Y-96451000D01*
X161726912Y-96565356D01*
X161722382Y-96566220D01*
X161640558Y-96599279D01*
X161566714Y-96647601D01*
X161503662Y-96709346D01*
X161453804Y-96782162D01*
X161419039Y-96863275D01*
X161400691Y-96949596D01*
X161399459Y-97037837D01*
X160828000Y-97037837D01*
X160828000Y-96393000D01*
X160825293Y-96365388D01*
X160822880Y-96337815D01*
X160822441Y-96336305D01*
X160822287Y-96334730D01*
X160814263Y-96308155D01*
X160806546Y-96281590D01*
X160805820Y-96280190D01*
X160805364Y-96278679D01*
X160792353Y-96254209D01*
X160779601Y-96229609D01*
X160778617Y-96228376D01*
X160777876Y-96226983D01*
X160760386Y-96205538D01*
X160743074Y-96183850D01*
X160740904Y-96181651D01*
X160740871Y-96181610D01*
X160740833Y-96181579D01*
X160740132Y-96180868D01*
X160538811Y-95979547D01*
X160539017Y-95964778D01*
X160523780Y-95887828D01*
X160493888Y-95815303D01*
X160452681Y-95753282D01*
X160488480Y-95702533D01*
X160520386Y-95630870D01*
X160523263Y-95618208D01*
X160561401Y-95644715D01*
X160642270Y-95680046D01*
X160728460Y-95698996D01*
X160816691Y-95700844D01*
X160903599Y-95685520D01*
X160985876Y-95653607D01*
X161060388Y-95606320D01*
X161124296Y-95545462D01*
X161175166Y-95473349D01*
X161211060Y-95392729D01*
X161230611Y-95306673D01*
X161232019Y-95205875D01*
X161214878Y-95119306D01*
X161181249Y-95037716D01*
X161132412Y-94964211D01*
X161070228Y-94901592D01*
X160997066Y-94852243D01*
X160915712Y-94818045D01*
X160829265Y-94800300D01*
X160741018Y-94799684D01*
X160654332Y-94816220D01*
X160572508Y-94849279D01*
X160498664Y-94897601D01*
X160435612Y-94959346D01*
X160385754Y-95032162D01*
X160350989Y-95113275D01*
X160341470Y-95158060D01*
X160330170Y-95150438D01*
X160257855Y-95120040D01*
X160181014Y-95104267D01*
X160102572Y-95103719D01*
X160025517Y-95118418D01*
X159952785Y-95147804D01*
X159887146Y-95190757D01*
X159831100Y-95245641D01*
X159786782Y-95310366D01*
X159755879Y-95382467D01*
X159739570Y-95459197D01*
X159738475Y-95537633D01*
X159752635Y-95614788D01*
X159757887Y-95628053D01*
X159757855Y-95628040D01*
X159681014Y-95612267D01*
X159602572Y-95611719D01*
X159525517Y-95626418D01*
X159452785Y-95655804D01*
X159394586Y-95693888D01*
X159330170Y-95650438D01*
X159257855Y-95620040D01*
X159181014Y-95604267D01*
X159102572Y-95603719D01*
X159025517Y-95618418D01*
X158952785Y-95647804D01*
X158887146Y-95690757D01*
X158831100Y-95745641D01*
X158786782Y-95810366D01*
X158755879Y-95882467D01*
X158753266Y-95894759D01*
X158486703Y-96161323D01*
X158483986Y-96159007D01*
X158425987Y-96132863D01*
X158363000Y-96123912D01*
X157856886Y-96123912D01*
X157573487Y-95840513D01*
X157548533Y-95820016D01*
X157523738Y-95799210D01*
X157522122Y-95798322D01*
X157520703Y-95797156D01*
X157492228Y-95781887D01*
X157463880Y-95766303D01*
X157462127Y-95765747D01*
X157460503Y-95764876D01*
X157429572Y-95755420D01*
X157398769Y-95745648D01*
X157396939Y-95745443D01*
X157395180Y-95744905D01*
X157363026Y-95741639D01*
X157330887Y-95738034D01*
X157327291Y-95738009D01*
X157327222Y-95738002D01*
X157327158Y-95738008D01*
X157326000Y-95738000D01*
X157120082Y-95738000D01*
X157071986Y-95697007D01*
X157013987Y-95670863D01*
X156951000Y-95661912D01*
X155891000Y-95661912D01*
X155883511Y-95662509D01*
X155883511Y-95203024D01*
X155891000Y-95204088D01*
X156951000Y-95204088D01*
X156986830Y-95201231D01*
X157047602Y-95182411D01*
X157100725Y-95147405D01*
X157141993Y-95098986D01*
X157168137Y-95040987D01*
X157177088Y-94978000D01*
X157177088Y-94630976D01*
X158019044Y-93789020D01*
X158988230Y-93789020D01*
X159015842Y-93786313D01*
X159043415Y-93783900D01*
X159044925Y-93783461D01*
X159046500Y-93783307D01*
X159073075Y-93775283D01*
X159090980Y-93770082D01*
X159105078Y-93805689D01*
X159152884Y-93879869D01*
X159214187Y-93943350D01*
X159286653Y-93993715D01*
X159367522Y-94029046D01*
X159453712Y-94047996D01*
X159541943Y-94049844D01*
X159628851Y-94034520D01*
X159711128Y-94002607D01*
X159785640Y-93955320D01*
X159849548Y-93894462D01*
X159900418Y-93822349D01*
X159936312Y-93741729D01*
X159955863Y-93655673D01*
X159957271Y-93554875D01*
X159940130Y-93468306D01*
X159906501Y-93386716D01*
X159857664Y-93313211D01*
X159801869Y-93257026D01*
X159810226Y-93254502D01*
X159836791Y-93246785D01*
X159838191Y-93246059D01*
X159839702Y-93245603D01*
X159864172Y-93232592D01*
X159888772Y-93219840D01*
X159890005Y-93218856D01*
X159891398Y-93218115D01*
X159912847Y-93200622D01*
X159934530Y-93183313D01*
X159936729Y-93181144D01*
X159936771Y-93181110D01*
X159936803Y-93181071D01*
X159937513Y-93180371D01*
X160050200Y-93067684D01*
X160050200Y-93726000D01*
X160052907Y-93753612D01*
X160055320Y-93781185D01*
X160055759Y-93782695D01*
X160055913Y-93784270D01*
X160063937Y-93810845D01*
X160071654Y-93837410D01*
X160072380Y-93838810D01*
X160072836Y-93840321D01*
X160085847Y-93864791D01*
X160098599Y-93889391D01*
X160099583Y-93890624D01*
X160100324Y-93892017D01*
X160117817Y-93913466D01*
X160135126Y-93935149D01*
X160137295Y-93937348D01*
X160137329Y-93937390D01*
X160137368Y-93937422D01*
X160138068Y-93938132D01*
X161552912Y-95352976D01*
X161552912Y-95904000D01*
X161555769Y-95939830D01*
X161574589Y-96000602D01*
X161609595Y-96053725D01*
X161658014Y-96094993D01*
X161716013Y-96121137D01*
X161779000Y-96130088D01*
X162579000Y-96130088D01*
X162614830Y-96127231D01*
X162675602Y-96108411D01*
X162728725Y-96073405D01*
X162769993Y-96024986D01*
X162796137Y-95966987D01*
X162805088Y-95904000D01*
X162805088Y-95104000D01*
X162802231Y-95068170D01*
X162783411Y-95007398D01*
X162748405Y-94954275D01*
X162699986Y-94913007D01*
X162641987Y-94886863D01*
X162579000Y-94877912D01*
X161926376Y-94877912D01*
X161258928Y-94210464D01*
X161271513Y-94216137D01*
X161334500Y-94225088D01*
X162134500Y-94225088D01*
X162170330Y-94222231D01*
X162231102Y-94203411D01*
X162284225Y-94168405D01*
X162325493Y-94119986D01*
X162351637Y-94061987D01*
X162360588Y-93999000D01*
X162360588Y-93199000D01*
X162708412Y-93199000D01*
X162708412Y-93999000D01*
X162711269Y-94034830D01*
X162730089Y-94095602D01*
X162765095Y-94148725D01*
X162813514Y-94189993D01*
X162871513Y-94216137D01*
X162934500Y-94225088D01*
X163734500Y-94225088D01*
X163770330Y-94222231D01*
X163831102Y-94203411D01*
X163884225Y-94168405D01*
X163918236Y-94128500D01*
X164046286Y-94128500D01*
X164064589Y-94187602D01*
X164099595Y-94240725D01*
X164148014Y-94281993D01*
X164206013Y-94308137D01*
X164269000Y-94317088D01*
X165015648Y-94317088D01*
X164360344Y-94972392D01*
X164348405Y-94954275D01*
X164299986Y-94913007D01*
X164241987Y-94886863D01*
X164179000Y-94877912D01*
X163379000Y-94877912D01*
X163343170Y-94880769D01*
X163282398Y-94899589D01*
X163229275Y-94934595D01*
X163188007Y-94983014D01*
X163161863Y-95041013D01*
X163152912Y-95104000D01*
X163152912Y-95904000D01*
X163155769Y-95939830D01*
X163174589Y-96000602D01*
X163209595Y-96053725D01*
X163258014Y-96094993D01*
X163316013Y-96121137D01*
X163379000Y-96130088D01*
X164179000Y-96130088D01*
X164214830Y-96127231D01*
X164275602Y-96108411D01*
X164328725Y-96073405D01*
X164369993Y-96024986D01*
X164396137Y-95966987D01*
X164405088Y-95904000D01*
X164405088Y-95761460D01*
X164416391Y-95755601D01*
X164417624Y-95754617D01*
X164419017Y-95753876D01*
X164440466Y-95736383D01*
X164462149Y-95719074D01*
X164464348Y-95716905D01*
X164464390Y-95716871D01*
X164464422Y-95716832D01*
X164465132Y-95716132D01*
X164824654Y-95356610D01*
X164811165Y-95420072D01*
X164809933Y-95508313D01*
X164825864Y-95595113D01*
X164858350Y-95677165D01*
X164906156Y-95751345D01*
X164967459Y-95814826D01*
X165039925Y-95865191D01*
X165120794Y-95900522D01*
X165206984Y-95919472D01*
X165295215Y-95921320D01*
X165382123Y-95905996D01*
X165464400Y-95874083D01*
X165483785Y-95861781D01*
X165512796Y-95906797D01*
X165574099Y-95970278D01*
X165646565Y-96020643D01*
X165727434Y-96055974D01*
X165813624Y-96074924D01*
X165901855Y-96076772D01*
X165988763Y-96061448D01*
X166071040Y-96029535D01*
X166145552Y-95982248D01*
X166209460Y-95921390D01*
X166260330Y-95849277D01*
X166296224Y-95768657D01*
X166315775Y-95682601D01*
X166316178Y-95653721D01*
X166764399Y-95653721D01*
X166780330Y-95740521D01*
X166812816Y-95822573D01*
X166860622Y-95896753D01*
X166921925Y-95960234D01*
X166994391Y-96010599D01*
X167075260Y-96045930D01*
X167161450Y-96064880D01*
X167249681Y-96066728D01*
X167336589Y-96051404D01*
X167418866Y-96019491D01*
X167493378Y-95972204D01*
X167557286Y-95911346D01*
X167608156Y-95839233D01*
X167644050Y-95758613D01*
X167663601Y-95672557D01*
X167665009Y-95571759D01*
X167647868Y-95485190D01*
X167614239Y-95403600D01*
X167565402Y-95330095D01*
X167503218Y-95267476D01*
X167430056Y-95218127D01*
X167348702Y-95183929D01*
X167262255Y-95166184D01*
X167174008Y-95165568D01*
X167087322Y-95182104D01*
X167005498Y-95215163D01*
X166931654Y-95263485D01*
X166868602Y-95325230D01*
X166818744Y-95398046D01*
X166783979Y-95479159D01*
X166765631Y-95565480D01*
X166764399Y-95653721D01*
X166316178Y-95653721D01*
X166317183Y-95581803D01*
X166300042Y-95495234D01*
X166266413Y-95413644D01*
X166217576Y-95340139D01*
X166155392Y-95277520D01*
X166082230Y-95228171D01*
X166000876Y-95193973D01*
X165914429Y-95176228D01*
X165826182Y-95175612D01*
X165739496Y-95192148D01*
X165657672Y-95225207D01*
X165643862Y-95234244D01*
X165610936Y-95184687D01*
X165548752Y-95122068D01*
X165475590Y-95072719D01*
X165394236Y-95038521D01*
X165307789Y-95020776D01*
X165219542Y-95020160D01*
X165147329Y-95033935D01*
X165864176Y-94317088D01*
X166566000Y-94317088D01*
X166601830Y-94314231D01*
X166662602Y-94295411D01*
X166715725Y-94260405D01*
X166756993Y-94211986D01*
X166783137Y-94153987D01*
X166792088Y-94091000D01*
X166792088Y-93591000D01*
X166789231Y-93555170D01*
X166770411Y-93494398D01*
X166735405Y-93441275D01*
X166686986Y-93400007D01*
X166628987Y-93373863D01*
X166566000Y-93364912D01*
X165666000Y-93364912D01*
X165630170Y-93367769D01*
X165569398Y-93386589D01*
X165516275Y-93421595D01*
X165475007Y-93470014D01*
X165448863Y-93528013D01*
X165439912Y-93591000D01*
X165439912Y-93892824D01*
X165395088Y-93937648D01*
X165395088Y-93591000D01*
X165392231Y-93555170D01*
X165373411Y-93494398D01*
X165338405Y-93441275D01*
X165289986Y-93400007D01*
X165231987Y-93373863D01*
X165169000Y-93364912D01*
X164269000Y-93364912D01*
X164233170Y-93367769D01*
X164172398Y-93386589D01*
X164119275Y-93421595D01*
X164078007Y-93470014D01*
X164051863Y-93528013D01*
X164048241Y-93553500D01*
X163960588Y-93553500D01*
X163960588Y-93199000D01*
X163957731Y-93163170D01*
X163938911Y-93102398D01*
X163903905Y-93049275D01*
X163855486Y-93008007D01*
X163797487Y-92981863D01*
X163734500Y-92972912D01*
X162934500Y-92972912D01*
X162898670Y-92975769D01*
X162837898Y-92994589D01*
X162784775Y-93029595D01*
X162743507Y-93078014D01*
X162717363Y-93136013D01*
X162708412Y-93199000D01*
X162360588Y-93199000D01*
X162357731Y-93163170D01*
X162338911Y-93102398D01*
X162303905Y-93049275D01*
X162255486Y-93008007D01*
X162197487Y-92981863D01*
X162134500Y-92972912D01*
X162034500Y-92972912D01*
X162034500Y-91663474D01*
X162173912Y-91802886D01*
X162173912Y-91825000D01*
X162176769Y-91860830D01*
X162195589Y-91921602D01*
X162213485Y-91948760D01*
X162209007Y-91954014D01*
X162182863Y-92012013D01*
X162173912Y-92075000D01*
X162173912Y-92475000D01*
X162176769Y-92510830D01*
X162195589Y-92571602D01*
X162230595Y-92624725D01*
X162279014Y-92665993D01*
X162337013Y-92692137D01*
X162400000Y-92701088D01*
X163400000Y-92701088D01*
X163435830Y-92698231D01*
X163496602Y-92679411D01*
X163549725Y-92644405D01*
X163566264Y-92625000D01*
X163650000Y-92625000D01*
X163682216Y-92621841D01*
X163714383Y-92619027D01*
X163716150Y-92618514D01*
X163717982Y-92618334D01*
X163748945Y-92608986D01*
X163779978Y-92599970D01*
X163781611Y-92599124D01*
X163783375Y-92598591D01*
X163792509Y-92593734D01*
X163796524Y-92597032D01*
X163821262Y-92617790D01*
X163822874Y-92618676D01*
X163824297Y-92619845D01*
X163852811Y-92635134D01*
X163881120Y-92650697D01*
X163882872Y-92651253D01*
X163884497Y-92652124D01*
X163915428Y-92661580D01*
X163946231Y-92671352D01*
X163948061Y-92671557D01*
X163949820Y-92672095D01*
X163981974Y-92675361D01*
X164014113Y-92678966D01*
X164017709Y-92678991D01*
X164017778Y-92678998D01*
X164017842Y-92678992D01*
X164019000Y-92679000D01*
X164061925Y-92679000D01*
X164064589Y-92687602D01*
X164099595Y-92740725D01*
X164148014Y-92781993D01*
X164206013Y-92808137D01*
X164269000Y-92817088D01*
X165169000Y-92817088D01*
X165204830Y-92814231D01*
X165265602Y-92795411D01*
X165318725Y-92760405D01*
X165359993Y-92711986D01*
X165380722Y-92666000D01*
X165454899Y-92666000D01*
X165461589Y-92687602D01*
X165496595Y-92740725D01*
X165545014Y-92781993D01*
X165603013Y-92808137D01*
X165666000Y-92817088D01*
X166566000Y-92817088D01*
X166601830Y-92814231D01*
X166662602Y-92795411D01*
X166715725Y-92760405D01*
X166756993Y-92711986D01*
X166783137Y-92653987D01*
X166792088Y-92591000D01*
X166792088Y-92091000D01*
X166789231Y-92055170D01*
X166770411Y-91994398D01*
X166735405Y-91941275D01*
X166686986Y-91900007D01*
X166628987Y-91873863D01*
X166566000Y-91864912D01*
X165666000Y-91864912D01*
X165630170Y-91867769D01*
X165569398Y-91886589D01*
X165516275Y-91921595D01*
X165475007Y-91970014D01*
X165454278Y-92016000D01*
X165380101Y-92016000D01*
X165373411Y-91994398D01*
X165338405Y-91941275D01*
X165289986Y-91900007D01*
X165231987Y-91873863D01*
X165169000Y-91864912D01*
X164269000Y-91864912D01*
X164249000Y-91866507D01*
X164249000Y-91812088D01*
X164713000Y-91812088D01*
X164748830Y-91809231D01*
X164809602Y-91790411D01*
X164862725Y-91755405D01*
X164903993Y-91706986D01*
X164930137Y-91648987D01*
X164939088Y-91586000D01*
X164939088Y-91054886D01*
X165957487Y-90036487D01*
X166000844Y-89983703D01*
X166033124Y-89923503D01*
X166053095Y-89858180D01*
X166055437Y-89835129D01*
X166063231Y-89809635D01*
X166071615Y-89783203D01*
X166071791Y-89781635D01*
X166072252Y-89780127D01*
X166075050Y-89752583D01*
X166078142Y-89725018D01*
X166078163Y-89721931D01*
X166078169Y-89721876D01*
X166078164Y-89721824D01*
X166078171Y-89720829D01*
X166078171Y-89008040D01*
X166115315Y-89024268D01*
X166201505Y-89043218D01*
X166289736Y-89045066D01*
X166376644Y-89029742D01*
X166458921Y-88997829D01*
X166533433Y-88950542D01*
X166597341Y-88889684D01*
X166648211Y-88817571D01*
X166684105Y-88736951D01*
X166686017Y-88728534D01*
X166770941Y-88730313D01*
X166852937Y-88715855D01*
X166856826Y-88725677D01*
G36*
X156953006Y-97187048D02*
X156889954Y-97248793D01*
X156840096Y-97321609D01*
X156805331Y-97402722D01*
X156786983Y-97489043D01*
X156785751Y-97577284D01*
X156801682Y-97664084D01*
X156834168Y-97746136D01*
X156881974Y-97820316D01*
X156943277Y-97883797D01*
X157015743Y-97934162D01*
X157096612Y-97969493D01*
X157182802Y-97988443D01*
X157271033Y-97990291D01*
X157357941Y-97974967D01*
X157440218Y-97943054D01*
X157486981Y-97913377D01*
X157506632Y-97943869D01*
X157562571Y-98001795D01*
X157526150Y-98037461D01*
X157459672Y-98134549D01*
X157413318Y-98242700D01*
X157388854Y-98357795D01*
X157387211Y-98475450D01*
X157408452Y-98591183D01*
X157451536Y-98700001D01*
X156807665Y-98700001D01*
X156599932Y-98492268D01*
X156578523Y-98474682D01*
X156558405Y-98457802D01*
X156603166Y-98394349D01*
X156639060Y-98313729D01*
X156658611Y-98227673D01*
X156660019Y-98126875D01*
X156642878Y-98040306D01*
X156609249Y-97958716D01*
X156560412Y-97885211D01*
X156498228Y-97822592D01*
X156425066Y-97773243D01*
X156343712Y-97739045D01*
X156336272Y-97737518D01*
X156399635Y-97738845D01*
X156486543Y-97723521D01*
X156568820Y-97691608D01*
X156643332Y-97644321D01*
X156707240Y-97583463D01*
X156758110Y-97511350D01*
X156794004Y-97430730D01*
X156813555Y-97344674D01*
X156814963Y-97243876D01*
X156799165Y-97164088D01*
X156951000Y-97164088D01*
X156986830Y-97161231D01*
X156997516Y-97157922D01*
X156953006Y-97187048D01*
X156953006Y-97187048D01*
G37*
X156953006Y-97187048D02*
X156889954Y-97248793D01*
X156840096Y-97321609D01*
X156805331Y-97402722D01*
X156786983Y-97489043D01*
X156785751Y-97577284D01*
X156801682Y-97664084D01*
X156834168Y-97746136D01*
X156881974Y-97820316D01*
X156943277Y-97883797D01*
X157015743Y-97934162D01*
X157096612Y-97969493D01*
X157182802Y-97988443D01*
X157271033Y-97990291D01*
X157357941Y-97974967D01*
X157440218Y-97943054D01*
X157486981Y-97913377D01*
X157506632Y-97943869D01*
X157562571Y-98001795D01*
X157526150Y-98037461D01*
X157459672Y-98134549D01*
X157413318Y-98242700D01*
X157388854Y-98357795D01*
X157387211Y-98475450D01*
X157408452Y-98591183D01*
X157451536Y-98700001D01*
X156807665Y-98700001D01*
X156599932Y-98492268D01*
X156578523Y-98474682D01*
X156558405Y-98457802D01*
X156603166Y-98394349D01*
X156639060Y-98313729D01*
X156658611Y-98227673D01*
X156660019Y-98126875D01*
X156642878Y-98040306D01*
X156609249Y-97958716D01*
X156560412Y-97885211D01*
X156498228Y-97822592D01*
X156425066Y-97773243D01*
X156343712Y-97739045D01*
X156336272Y-97737518D01*
X156399635Y-97738845D01*
X156486543Y-97723521D01*
X156568820Y-97691608D01*
X156643332Y-97644321D01*
X156707240Y-97583463D01*
X156758110Y-97511350D01*
X156794004Y-97430730D01*
X156813555Y-97344674D01*
X156814963Y-97243876D01*
X156799165Y-97164088D01*
X156951000Y-97164088D01*
X156986830Y-97161231D01*
X156997516Y-97157922D01*
X156953006Y-97187048D01*
G36*
X154460650Y-94351912D02*
X153691000Y-94351912D01*
X153655170Y-94354769D01*
X153594398Y-94373589D01*
X153541275Y-94408595D01*
X153500007Y-94457014D01*
X153473863Y-94515013D01*
X153464912Y-94578000D01*
X153464912Y-94978000D01*
X153467769Y-95013830D01*
X153486589Y-95074602D01*
X153504485Y-95101760D01*
X153500007Y-95107014D01*
X153488339Y-95132898D01*
X153485815Y-95133119D01*
X153484300Y-95133559D01*
X153482730Y-95133713D01*
X153456242Y-95141710D01*
X153429590Y-95149453D01*
X153428185Y-95150181D01*
X153426679Y-95150636D01*
X153402284Y-95163607D01*
X153377609Y-95176398D01*
X153376372Y-95177385D01*
X153374983Y-95178124D01*
X153353562Y-95195595D01*
X153331851Y-95212926D01*
X153329652Y-95215095D01*
X153329610Y-95215129D01*
X153329578Y-95215168D01*
X153328868Y-95215868D01*
X153128866Y-95415870D01*
X153111280Y-95437279D01*
X153093464Y-95458512D01*
X153092704Y-95459894D01*
X153091703Y-95461113D01*
X153078620Y-95485513D01*
X153065257Y-95509819D01*
X153064779Y-95511325D01*
X153064035Y-95512713D01*
X153055942Y-95539183D01*
X153047554Y-95565628D01*
X153047378Y-95567197D01*
X153046917Y-95568705D01*
X153044120Y-95596243D01*
X153041027Y-95623813D01*
X153041006Y-95626900D01*
X153041000Y-95626955D01*
X153041005Y-95627007D01*
X153040998Y-95628002D01*
X153040998Y-96225172D01*
X153039198Y-96226934D01*
X152476062Y-95663798D01*
X152522620Y-95619462D01*
X152573490Y-95547349D01*
X152609384Y-95466729D01*
X152628935Y-95380673D01*
X152630343Y-95279875D01*
X152628503Y-95270580D01*
X152695930Y-95244427D01*
X152770442Y-95197140D01*
X152834350Y-95136282D01*
X152885220Y-95064169D01*
X152921114Y-94983549D01*
X152940665Y-94897493D01*
X152942073Y-94796695D01*
X152924932Y-94710126D01*
X152891303Y-94628536D01*
X152842466Y-94555031D01*
X152792054Y-94504266D01*
X152792054Y-93969417D01*
X152839000Y-93976088D01*
X153739000Y-93976088D01*
X153774830Y-93973231D01*
X153835602Y-93954411D01*
X153888725Y-93919405D01*
X153929993Y-93870986D01*
X153945445Y-93836707D01*
X154460650Y-94351912D01*
X154460650Y-94351912D01*
G37*
X154460650Y-94351912D02*
X153691000Y-94351912D01*
X153655170Y-94354769D01*
X153594398Y-94373589D01*
X153541275Y-94408595D01*
X153500007Y-94457014D01*
X153473863Y-94515013D01*
X153464912Y-94578000D01*
X153464912Y-94978000D01*
X153467769Y-95013830D01*
X153486589Y-95074602D01*
X153504485Y-95101760D01*
X153500007Y-95107014D01*
X153488339Y-95132898D01*
X153485815Y-95133119D01*
X153484300Y-95133559D01*
X153482730Y-95133713D01*
X153456242Y-95141710D01*
X153429590Y-95149453D01*
X153428185Y-95150181D01*
X153426679Y-95150636D01*
X153402284Y-95163607D01*
X153377609Y-95176398D01*
X153376372Y-95177385D01*
X153374983Y-95178124D01*
X153353562Y-95195595D01*
X153331851Y-95212926D01*
X153329652Y-95215095D01*
X153329610Y-95215129D01*
X153329578Y-95215168D01*
X153328868Y-95215868D01*
X153128866Y-95415870D01*
X153111280Y-95437279D01*
X153093464Y-95458512D01*
X153092704Y-95459894D01*
X153091703Y-95461113D01*
X153078620Y-95485513D01*
X153065257Y-95509819D01*
X153064779Y-95511325D01*
X153064035Y-95512713D01*
X153055942Y-95539183D01*
X153047554Y-95565628D01*
X153047378Y-95567197D01*
X153046917Y-95568705D01*
X153044120Y-95596243D01*
X153041027Y-95623813D01*
X153041006Y-95626900D01*
X153041000Y-95626955D01*
X153041005Y-95627007D01*
X153040998Y-95628002D01*
X153040998Y-96225172D01*
X153039198Y-96226934D01*
X152476062Y-95663798D01*
X152522620Y-95619462D01*
X152573490Y-95547349D01*
X152609384Y-95466729D01*
X152628935Y-95380673D01*
X152630343Y-95279875D01*
X152628503Y-95270580D01*
X152695930Y-95244427D01*
X152770442Y-95197140D01*
X152834350Y-95136282D01*
X152885220Y-95064169D01*
X152921114Y-94983549D01*
X152940665Y-94897493D01*
X152942073Y-94796695D01*
X152924932Y-94710126D01*
X152891303Y-94628536D01*
X152842466Y-94555031D01*
X152792054Y-94504266D01*
X152792054Y-93969417D01*
X152839000Y-93976088D01*
X153739000Y-93976088D01*
X153774830Y-93973231D01*
X153835602Y-93954411D01*
X153888725Y-93919405D01*
X153929993Y-93870986D01*
X153945445Y-93836707D01*
X154460650Y-94351912D01*
G36*
X158590912Y-84288376D02*
X158590912Y-84461000D01*
X158593769Y-84496830D01*
X158612589Y-84557602D01*
X158630485Y-84584760D01*
X158626007Y-84590014D01*
X158599863Y-84648013D01*
X158590912Y-84711000D01*
X158590912Y-84961000D01*
X158593769Y-84996830D01*
X158612589Y-85057602D01*
X158647595Y-85110725D01*
X158696014Y-85151993D01*
X158754013Y-85178137D01*
X158817000Y-85187088D01*
X159517000Y-85187088D01*
X159552830Y-85184231D01*
X159613602Y-85165411D01*
X159666725Y-85130405D01*
X159707993Y-85081986D01*
X159734137Y-85023987D01*
X159743088Y-84961000D01*
X159743088Y-84711000D01*
X159740231Y-84675170D01*
X159721411Y-84614398D01*
X159703515Y-84587240D01*
X159707993Y-84581986D01*
X159734137Y-84523987D01*
X159743088Y-84461000D01*
X159743088Y-84211000D01*
X159740270Y-84175656D01*
X162284756Y-86720142D01*
X162306165Y-86737728D01*
X162327398Y-86755544D01*
X162328780Y-86756304D01*
X162329999Y-86757305D01*
X162354399Y-86770388D01*
X162378705Y-86783751D01*
X162380211Y-86784229D01*
X162381599Y-86784973D01*
X162408069Y-86793066D01*
X162434514Y-86801454D01*
X162436083Y-86801630D01*
X162437591Y-86802091D01*
X162465129Y-86804888D01*
X162492699Y-86807981D01*
X162495786Y-86808002D01*
X162495841Y-86808008D01*
X162495893Y-86808003D01*
X162496888Y-86808010D01*
X165624104Y-86808010D01*
X166653260Y-87837166D01*
X166608582Y-87845689D01*
X166545170Y-87871309D01*
X166515249Y-87798716D01*
X166466412Y-87725211D01*
X166404228Y-87662592D01*
X166331066Y-87613243D01*
X166249712Y-87579045D01*
X166163265Y-87561300D01*
X166090053Y-87560789D01*
X165921732Y-87392468D01*
X165900323Y-87374882D01*
X165879090Y-87357066D01*
X165877708Y-87356306D01*
X165876489Y-87355305D01*
X165852089Y-87342222D01*
X165827783Y-87328859D01*
X165826277Y-87328381D01*
X165824889Y-87327637D01*
X165798419Y-87319544D01*
X165771974Y-87311156D01*
X165770405Y-87310980D01*
X165768897Y-87310519D01*
X165741359Y-87307722D01*
X165713789Y-87304629D01*
X165710702Y-87304608D01*
X165710647Y-87304602D01*
X165710595Y-87304607D01*
X165709600Y-87304600D01*
X164055864Y-87304600D01*
X163864131Y-87112867D01*
X163842722Y-87095281D01*
X163821489Y-87077465D01*
X163820107Y-87076705D01*
X163818888Y-87075704D01*
X163794488Y-87062621D01*
X163770182Y-87049258D01*
X163768676Y-87048780D01*
X163767288Y-87048036D01*
X163740818Y-87039943D01*
X163714373Y-87031555D01*
X163712804Y-87031379D01*
X163711296Y-87030918D01*
X163683758Y-87028121D01*
X163656188Y-87025028D01*
X163653101Y-87025007D01*
X163653046Y-87025001D01*
X163652994Y-87025006D01*
X163651999Y-87024999D01*
X162239999Y-87024999D01*
X162237949Y-87025200D01*
X161109464Y-87025200D01*
X160723056Y-86638792D01*
X160724019Y-86569875D01*
X160706878Y-86483306D01*
X160673249Y-86401716D01*
X160624412Y-86328211D01*
X160562228Y-86265592D01*
X160489066Y-86216243D01*
X160407712Y-86182045D01*
X160321265Y-86164300D01*
X160249983Y-86163802D01*
X160268599Y-86160520D01*
X160350876Y-86128607D01*
X160425388Y-86081320D01*
X160489296Y-86020462D01*
X160540166Y-85948349D01*
X160576060Y-85867729D01*
X160595611Y-85781673D01*
X160597019Y-85680875D01*
X160579878Y-85594306D01*
X160546249Y-85512716D01*
X160497412Y-85439211D01*
X160435228Y-85376592D01*
X160362066Y-85327243D01*
X160280712Y-85293045D01*
X160194265Y-85275300D01*
X160106018Y-85274684D01*
X160019332Y-85291220D01*
X159937508Y-85324279D01*
X159863664Y-85372601D01*
X159800612Y-85434346D01*
X159750754Y-85507162D01*
X159715989Y-85588275D01*
X159697641Y-85674596D01*
X159696409Y-85762837D01*
X159712340Y-85849637D01*
X159744826Y-85931689D01*
X159792632Y-86005869D01*
X159853935Y-86069350D01*
X159926401Y-86119715D01*
X160007270Y-86155046D01*
X160093460Y-86173996D01*
X160170501Y-86175610D01*
X160146332Y-86180220D01*
X160064508Y-86213279D01*
X159990664Y-86261601D01*
X159927612Y-86323346D01*
X159877754Y-86396162D01*
X159842989Y-86477275D01*
X159824641Y-86563596D01*
X159823409Y-86651837D01*
X159839340Y-86738637D01*
X159871826Y-86820689D01*
X159919632Y-86894869D01*
X159980935Y-86958350D01*
X160053401Y-87008715D01*
X160134270Y-87044046D01*
X160220460Y-87062996D01*
X160300406Y-87064670D01*
X160773068Y-87537332D01*
X160794504Y-87554940D01*
X160815710Y-87572734D01*
X160817089Y-87573492D01*
X160818311Y-87574496D01*
X160842750Y-87587600D01*
X160867017Y-87600941D01*
X160868523Y-87601419D01*
X160869911Y-87602163D01*
X160896381Y-87610256D01*
X160922826Y-87618644D01*
X160924395Y-87618820D01*
X160925903Y-87619281D01*
X160953441Y-87622078D01*
X160981011Y-87625171D01*
X160984098Y-87625192D01*
X160984153Y-87625198D01*
X160984205Y-87625193D01*
X160985200Y-87625200D01*
X162173912Y-87625200D01*
X162173912Y-87925000D01*
X162176591Y-87958595D01*
X162097263Y-87942311D01*
X162009016Y-87941695D01*
X161922330Y-87958231D01*
X161840506Y-87991290D01*
X161766662Y-88039612D01*
X161703610Y-88101357D01*
X161653752Y-88174173D01*
X161618987Y-88255286D01*
X161600639Y-88341607D01*
X161599407Y-88429848D01*
X161615338Y-88516648D01*
X161647824Y-88598700D01*
X161695630Y-88672880D01*
X161756933Y-88736361D01*
X161829399Y-88786726D01*
X161910268Y-88822057D01*
X161996458Y-88841007D01*
X162084689Y-88842855D01*
X162171597Y-88827531D01*
X162173912Y-88826633D01*
X162173912Y-89085973D01*
X162160263Y-89052858D01*
X162111426Y-88979353D01*
X162049242Y-88916734D01*
X161976080Y-88867385D01*
X161894726Y-88833187D01*
X161808279Y-88815442D01*
X161720032Y-88814826D01*
X161633346Y-88831362D01*
X161551522Y-88864421D01*
X161477678Y-88912743D01*
X161414626Y-88974488D01*
X161364768Y-89047304D01*
X161330003Y-89128417D01*
X161311655Y-89214738D01*
X161310423Y-89302979D01*
X161326354Y-89389779D01*
X161358840Y-89471831D01*
X161364083Y-89479966D01*
X161289544Y-89494185D01*
X161207720Y-89527244D01*
X161133876Y-89575566D01*
X161070824Y-89637311D01*
X161020966Y-89710127D01*
X160986201Y-89791240D01*
X160967853Y-89877561D01*
X160966621Y-89965802D01*
X160982552Y-90052602D01*
X161015038Y-90134654D01*
X161062844Y-90208834D01*
X161124147Y-90272315D01*
X161196613Y-90322680D01*
X161277482Y-90358011D01*
X161363672Y-90376961D01*
X161451903Y-90378809D01*
X161538811Y-90363485D01*
X161621088Y-90331572D01*
X161695600Y-90284285D01*
X161759508Y-90223427D01*
X161810378Y-90151314D01*
X161846272Y-90070694D01*
X161865823Y-89984638D01*
X161867231Y-89883840D01*
X161850090Y-89797271D01*
X161816461Y-89715681D01*
X161814466Y-89712678D01*
X161882613Y-89700662D01*
X161964890Y-89668749D01*
X162039402Y-89621462D01*
X162103310Y-89560604D01*
X162154180Y-89488491D01*
X162180347Y-89429719D01*
X162173912Y-89475000D01*
X162173912Y-89875000D01*
X162176769Y-89910830D01*
X162195589Y-89971602D01*
X162213485Y-89998760D01*
X162209007Y-90004014D01*
X162182863Y-90062013D01*
X162173912Y-90125000D01*
X162173912Y-90525000D01*
X162176769Y-90560830D01*
X162195589Y-90621602D01*
X162213485Y-90648760D01*
X162209007Y-90654014D01*
X162182863Y-90712013D01*
X162173912Y-90775000D01*
X162173912Y-90812938D01*
X161918487Y-90557513D01*
X161893533Y-90537016D01*
X161868738Y-90516210D01*
X161867122Y-90515322D01*
X161865703Y-90514156D01*
X161837228Y-90498887D01*
X161808880Y-90483303D01*
X161807127Y-90482747D01*
X161805503Y-90481876D01*
X161774572Y-90472420D01*
X161743769Y-90462648D01*
X161741939Y-90462443D01*
X161740180Y-90461905D01*
X161708026Y-90458639D01*
X161675887Y-90455034D01*
X161672291Y-90455009D01*
X161672222Y-90455002D01*
X161672158Y-90455008D01*
X161671000Y-90455000D01*
X160719992Y-90455000D01*
X160405787Y-90140796D01*
X160388851Y-90055262D01*
X160355222Y-89973672D01*
X160306385Y-89900167D01*
X160305973Y-89899752D01*
X160305973Y-88327973D01*
X160302814Y-88295761D01*
X160300000Y-88263589D01*
X160299486Y-88261821D01*
X160299307Y-88259991D01*
X160289967Y-88229054D01*
X160280943Y-88197994D01*
X160280096Y-88196360D01*
X160279564Y-88194598D01*
X160264404Y-88166087D01*
X160249508Y-88137349D01*
X160248357Y-88135907D01*
X160247495Y-88134286D01*
X160227092Y-88109269D01*
X160206892Y-88083965D01*
X160204366Y-88081403D01*
X160204323Y-88081351D01*
X160204274Y-88081311D01*
X160203460Y-88080485D01*
X159200486Y-87077512D01*
X159147702Y-87034155D01*
X159087502Y-87001875D01*
X159022179Y-86981904D01*
X158954221Y-86975001D01*
X158886216Y-86981429D01*
X158820754Y-87000945D01*
X158775132Y-87024999D01*
X158166001Y-87024999D01*
X158138353Y-87027710D01*
X158110815Y-87030119D01*
X158109305Y-87030558D01*
X158107731Y-87030712D01*
X158081181Y-87038728D01*
X158054590Y-87046453D01*
X158053188Y-87047180D01*
X158051680Y-87047635D01*
X158027228Y-87060636D01*
X158002610Y-87073398D01*
X158001377Y-87074382D01*
X157999984Y-87075123D01*
X157998909Y-87076000D01*
X157895248Y-87076000D01*
X157894888Y-87075704D01*
X157870488Y-87062621D01*
X157846182Y-87049258D01*
X157844676Y-87048780D01*
X157843288Y-87048036D01*
X157816818Y-87039943D01*
X157790373Y-87031555D01*
X157788804Y-87031379D01*
X157787296Y-87030918D01*
X157759758Y-87028121D01*
X157732188Y-87025028D01*
X157729101Y-87025007D01*
X157729046Y-87025001D01*
X157728994Y-87025006D01*
X157727999Y-87024999D01*
X156439999Y-87024999D01*
X156412437Y-87027701D01*
X156384814Y-87030118D01*
X156383299Y-87030558D01*
X156381729Y-87030712D01*
X156355241Y-87038709D01*
X156328589Y-87046452D01*
X156327184Y-87047180D01*
X156325678Y-87047635D01*
X156301283Y-87060606D01*
X156276608Y-87073397D01*
X156275371Y-87074384D01*
X156273982Y-87075123D01*
X156252561Y-87092594D01*
X156230850Y-87109925D01*
X156228651Y-87112094D01*
X156228609Y-87112128D01*
X156228577Y-87112167D01*
X156227867Y-87112867D01*
X156187867Y-87152867D01*
X156170281Y-87174276D01*
X156152465Y-87195509D01*
X156151705Y-87196891D01*
X156150704Y-87198110D01*
X156137621Y-87222510D01*
X156124258Y-87246816D01*
X156123780Y-87248322D01*
X156123036Y-87249710D01*
X156114943Y-87276180D01*
X156106555Y-87302625D01*
X156106379Y-87304194D01*
X156105918Y-87305702D01*
X156103121Y-87333240D01*
X156100028Y-87360810D01*
X156100007Y-87363897D01*
X156100001Y-87363952D01*
X156100006Y-87364004D01*
X156099999Y-87364999D01*
X156099999Y-87686467D01*
X155719196Y-88067270D01*
X155652627Y-88066805D01*
X155565941Y-88083341D01*
X155484117Y-88116400D01*
X155455828Y-88134912D01*
X154819000Y-88134912D01*
X154783170Y-88137769D01*
X154722398Y-88156589D01*
X154669275Y-88191595D01*
X154628007Y-88240014D01*
X154601863Y-88298013D01*
X154592912Y-88361000D01*
X154592912Y-88937824D01*
X154549736Y-88981000D01*
X153670024Y-88981000D01*
X153642416Y-88983707D01*
X153614838Y-88986120D01*
X153613328Y-88986559D01*
X153611754Y-88986713D01*
X153585204Y-88994729D01*
X153558613Y-89002454D01*
X153557211Y-89003181D01*
X153555703Y-89003636D01*
X153531251Y-89016637D01*
X153506633Y-89029399D01*
X153505400Y-89030383D01*
X153504007Y-89031124D01*
X153482552Y-89048622D01*
X153460874Y-89065927D01*
X153458676Y-89068095D01*
X153458634Y-89068129D01*
X153458602Y-89068168D01*
X153457892Y-89068868D01*
X153441611Y-89085149D01*
X153375042Y-89084684D01*
X153288356Y-89101220D01*
X153206532Y-89134279D01*
X153132688Y-89182601D01*
X153069636Y-89244346D01*
X153019778Y-89317162D01*
X152985013Y-89398275D01*
X152966665Y-89484596D01*
X152965433Y-89572837D01*
X152981364Y-89659637D01*
X153013850Y-89741689D01*
X153061656Y-89815869D01*
X153116000Y-89872144D01*
X153116000Y-89914717D01*
X153079775Y-89921627D01*
X152970677Y-89965705D01*
X152872219Y-90030135D01*
X152788150Y-90112461D01*
X152721672Y-90209549D01*
X152675318Y-90317700D01*
X152650854Y-90432795D01*
X152649211Y-90550450D01*
X152670452Y-90666183D01*
X152713768Y-90775586D01*
X152777509Y-90874492D01*
X152859247Y-90959134D01*
X152955868Y-91026287D01*
X153063693Y-91073395D01*
X153178614Y-91098662D01*
X153296254Y-91101126D01*
X153412133Y-91080694D01*
X153521835Y-91038143D01*
X153621184Y-90975094D01*
X153706395Y-90893949D01*
X153774221Y-90797799D01*
X153822080Y-90690306D01*
X153848149Y-90575564D01*
X153850026Y-90441167D01*
X153844883Y-90415192D01*
X153883868Y-90442287D01*
X153991693Y-90489395D01*
X154106614Y-90514662D01*
X154224254Y-90517126D01*
X154340133Y-90496694D01*
X154342171Y-90495904D01*
X154349509Y-90535885D01*
X154381995Y-90617937D01*
X154429801Y-90692117D01*
X154491104Y-90755598D01*
X154563570Y-90805963D01*
X154644439Y-90841294D01*
X154730629Y-90860244D01*
X154818860Y-90862092D01*
X154905768Y-90846768D01*
X154988045Y-90814855D01*
X155062557Y-90767568D01*
X155117313Y-90715425D01*
X155133045Y-90726359D01*
X155213914Y-90761690D01*
X155300104Y-90780640D01*
X155388335Y-90782488D01*
X155475243Y-90767164D01*
X155479629Y-90765463D01*
X155404989Y-90840103D01*
X155329857Y-90839578D01*
X155214275Y-90861627D01*
X155105177Y-90905705D01*
X155006719Y-90970135D01*
X154922650Y-91052461D01*
X154856172Y-91149549D01*
X154809818Y-91257700D01*
X154785354Y-91372795D01*
X154783711Y-91490450D01*
X154804952Y-91606183D01*
X154848268Y-91715586D01*
X154912009Y-91814492D01*
X154993747Y-91899134D01*
X155090368Y-91966287D01*
X155198193Y-92013395D01*
X155230697Y-92020541D01*
X154862248Y-92388990D01*
X153914648Y-92388990D01*
X153929993Y-92370986D01*
X153956137Y-92312987D01*
X153965088Y-92250000D01*
X153965088Y-91750000D01*
X153962231Y-91714170D01*
X153943411Y-91653398D01*
X153908405Y-91600275D01*
X153859986Y-91559007D01*
X153801987Y-91532863D01*
X153739000Y-91523912D01*
X152839000Y-91523912D01*
X152803170Y-91526769D01*
X152742398Y-91545589D01*
X152689275Y-91580595D01*
X152648007Y-91629014D01*
X152621863Y-91687013D01*
X152620017Y-91700000D01*
X152605509Y-91700000D01*
X152577861Y-91702711D01*
X152550323Y-91705120D01*
X152548813Y-91705559D01*
X152547239Y-91705713D01*
X152520689Y-91713729D01*
X152504050Y-91718563D01*
X152487839Y-91715235D01*
X152399592Y-91714619D01*
X152312906Y-91731155D01*
X152231082Y-91764214D01*
X152157238Y-91812536D01*
X152094186Y-91874281D01*
X152044328Y-91947097D01*
X152009563Y-92028210D01*
X151991215Y-92114531D01*
X151989983Y-92202772D01*
X152005914Y-92289572D01*
X152038400Y-92371624D01*
X152086206Y-92445804D01*
X152147509Y-92509285D01*
X152219975Y-92559650D01*
X152300844Y-92594981D01*
X152317227Y-92598583D01*
X151837869Y-93077941D01*
X151820283Y-93099350D01*
X151802467Y-93120583D01*
X151801707Y-93121965D01*
X151800706Y-93123184D01*
X151787623Y-93147584D01*
X151774260Y-93171890D01*
X151773782Y-93173396D01*
X151773038Y-93174784D01*
X151764949Y-93201243D01*
X151756557Y-93227699D01*
X151756381Y-93229268D01*
X151755920Y-93230776D01*
X151753123Y-93258314D01*
X151750030Y-93285884D01*
X151750009Y-93288971D01*
X151750003Y-93289026D01*
X151750008Y-93289078D01*
X151750001Y-93290073D01*
X151750001Y-93524196D01*
X151746312Y-93522645D01*
X151659865Y-93504900D01*
X151571618Y-93504284D01*
X151484932Y-93520820D01*
X151403108Y-93553879D01*
X151329264Y-93602201D01*
X151266212Y-93663946D01*
X151216354Y-93736762D01*
X151181589Y-93817875D01*
X151163241Y-93904196D01*
X151162009Y-93992437D01*
X151167363Y-94021610D01*
X151020210Y-94005105D01*
X151005201Y-94005000D01*
X150994799Y-94005000D01*
X150785997Y-94025473D01*
X150585148Y-94086113D01*
X150399903Y-94184610D01*
X150275000Y-94286478D01*
X150275000Y-93234086D01*
X150379126Y-93361756D01*
X150510706Y-93470609D01*
X150660924Y-93551831D01*
X150824057Y-93602329D01*
X150993891Y-93620180D01*
X151163959Y-93604702D01*
X151327781Y-93556487D01*
X151479118Y-93477370D01*
X151612205Y-93370365D01*
X151721974Y-93239547D01*
X151804243Y-93089900D01*
X151855879Y-92927124D01*
X151874915Y-92757418D01*
X151875000Y-92745201D01*
X151875000Y-92334799D01*
X151858336Y-92164844D01*
X151808978Y-92001362D01*
X151728806Y-91850581D01*
X151620874Y-91718244D01*
X151489294Y-91609391D01*
X151339076Y-91528169D01*
X151175943Y-91477671D01*
X151006109Y-91459820D01*
X150836041Y-91475298D01*
X150672219Y-91523513D01*
X150520882Y-91602630D01*
X150387795Y-91709635D01*
X150278026Y-91840453D01*
X150275000Y-91845957D01*
X150275000Y-88252632D01*
X150387459Y-88346997D01*
X150571311Y-88448070D01*
X150771294Y-88511509D01*
X150979790Y-88534895D01*
X150994799Y-88535000D01*
X151005201Y-88535000D01*
X151214003Y-88514527D01*
X151414852Y-88453887D01*
X151442600Y-88439133D01*
X151482768Y-88540586D01*
X151546509Y-88639492D01*
X151628247Y-88724134D01*
X151724868Y-88791287D01*
X151832693Y-88838395D01*
X151947614Y-88863662D01*
X152065254Y-88866126D01*
X152181133Y-88845694D01*
X152290835Y-88803143D01*
X152390184Y-88740094D01*
X152475395Y-88658949D01*
X152543221Y-88562799D01*
X152591080Y-88455306D01*
X152617149Y-88340564D01*
X152618678Y-88231088D01*
X152927000Y-88231088D01*
X152962830Y-88228231D01*
X153023602Y-88209411D01*
X153076725Y-88174405D01*
X153117993Y-88125986D01*
X153144137Y-88067987D01*
X153153088Y-88005000D01*
X153153088Y-87255000D01*
X153150231Y-87219170D01*
X153131411Y-87158398D01*
X153096405Y-87105275D01*
X153047986Y-87064007D01*
X152989987Y-87037863D01*
X152927000Y-87028912D01*
X152127000Y-87028912D01*
X152091170Y-87031769D01*
X152030398Y-87050589D01*
X152004895Y-87067394D01*
X152001924Y-87057298D01*
X151904723Y-86871370D01*
X151827239Y-86775000D01*
X151958579Y-86775000D01*
X151985527Y-86773676D01*
X152005036Y-86771755D01*
X152057923Y-86761236D01*
X152076682Y-86755545D01*
X152126479Y-86734917D01*
X152143768Y-86725676D01*
X152188596Y-86695723D01*
X152203749Y-86683287D01*
X152223743Y-86665165D01*
X152613908Y-86275000D01*
X154938344Y-86275000D01*
X154937134Y-86280693D01*
X154935902Y-86368934D01*
X154951833Y-86455734D01*
X154984319Y-86537786D01*
X155032125Y-86611966D01*
X155093428Y-86675447D01*
X155165894Y-86725812D01*
X155246763Y-86761143D01*
X155332953Y-86780093D01*
X155421184Y-86781941D01*
X155508092Y-86766617D01*
X155590369Y-86734704D01*
X155664881Y-86687417D01*
X155728789Y-86626559D01*
X155779659Y-86554446D01*
X155813655Y-86478088D01*
X155950000Y-86478088D01*
X155985830Y-86475231D01*
X156046602Y-86456411D01*
X156049709Y-86454363D01*
X156116401Y-86500715D01*
X156197270Y-86536046D01*
X156283460Y-86554996D01*
X156371691Y-86556844D01*
X156458599Y-86541520D01*
X156540876Y-86509607D01*
X156615388Y-86462320D01*
X156679296Y-86401462D01*
X156730166Y-86329349D01*
X156766060Y-86248729D01*
X156785611Y-86162673D01*
X156787019Y-86061875D01*
X156769878Y-85975306D01*
X156736249Y-85893716D01*
X156687412Y-85820211D01*
X156625228Y-85757592D01*
X156552066Y-85708243D01*
X156470712Y-85674045D01*
X156384265Y-85656300D01*
X156296018Y-85655684D01*
X156275000Y-85659693D01*
X156275000Y-85636000D01*
X156827250Y-85636000D01*
X156846014Y-85651993D01*
X156904013Y-85678137D01*
X156967000Y-85687088D01*
X157667000Y-85687088D01*
X157702830Y-85684231D01*
X157763602Y-85665411D01*
X157816725Y-85630405D01*
X157857993Y-85581986D01*
X157884137Y-85523987D01*
X157893088Y-85461000D01*
X157893088Y-85211000D01*
X157890231Y-85175170D01*
X157871411Y-85114398D01*
X157853515Y-85087240D01*
X157857993Y-85081986D01*
X157884137Y-85023987D01*
X157893088Y-84961000D01*
X157893088Y-84711000D01*
X157890231Y-84675170D01*
X157871411Y-84614398D01*
X157853515Y-84587240D01*
X157857993Y-84581986D01*
X157884137Y-84523987D01*
X157893088Y-84461000D01*
X157893088Y-84211000D01*
X157890231Y-84175170D01*
X157871411Y-84114398D01*
X157836405Y-84061275D01*
X157787986Y-84020007D01*
X157778893Y-84015908D01*
X157878835Y-83977143D01*
X157978184Y-83914094D01*
X158063395Y-83832949D01*
X158093214Y-83790678D01*
X158590912Y-84288376D01*
X158590912Y-84288376D01*
G37*
X158590912Y-84288376D02*
X158590912Y-84461000D01*
X158593769Y-84496830D01*
X158612589Y-84557602D01*
X158630485Y-84584760D01*
X158626007Y-84590014D01*
X158599863Y-84648013D01*
X158590912Y-84711000D01*
X158590912Y-84961000D01*
X158593769Y-84996830D01*
X158612589Y-85057602D01*
X158647595Y-85110725D01*
X158696014Y-85151993D01*
X158754013Y-85178137D01*
X158817000Y-85187088D01*
X159517000Y-85187088D01*
X159552830Y-85184231D01*
X159613602Y-85165411D01*
X159666725Y-85130405D01*
X159707993Y-85081986D01*
X159734137Y-85023987D01*
X159743088Y-84961000D01*
X159743088Y-84711000D01*
X159740231Y-84675170D01*
X159721411Y-84614398D01*
X159703515Y-84587240D01*
X159707993Y-84581986D01*
X159734137Y-84523987D01*
X159743088Y-84461000D01*
X159743088Y-84211000D01*
X159740270Y-84175656D01*
X162284756Y-86720142D01*
X162306165Y-86737728D01*
X162327398Y-86755544D01*
X162328780Y-86756304D01*
X162329999Y-86757305D01*
X162354399Y-86770388D01*
X162378705Y-86783751D01*
X162380211Y-86784229D01*
X162381599Y-86784973D01*
X162408069Y-86793066D01*
X162434514Y-86801454D01*
X162436083Y-86801630D01*
X162437591Y-86802091D01*
X162465129Y-86804888D01*
X162492699Y-86807981D01*
X162495786Y-86808002D01*
X162495841Y-86808008D01*
X162495893Y-86808003D01*
X162496888Y-86808010D01*
X165624104Y-86808010D01*
X166653260Y-87837166D01*
X166608582Y-87845689D01*
X166545170Y-87871309D01*
X166515249Y-87798716D01*
X166466412Y-87725211D01*
X166404228Y-87662592D01*
X166331066Y-87613243D01*
X166249712Y-87579045D01*
X166163265Y-87561300D01*
X166090053Y-87560789D01*
X165921732Y-87392468D01*
X165900323Y-87374882D01*
X165879090Y-87357066D01*
X165877708Y-87356306D01*
X165876489Y-87355305D01*
X165852089Y-87342222D01*
X165827783Y-87328859D01*
X165826277Y-87328381D01*
X165824889Y-87327637D01*
X165798419Y-87319544D01*
X165771974Y-87311156D01*
X165770405Y-87310980D01*
X165768897Y-87310519D01*
X165741359Y-87307722D01*
X165713789Y-87304629D01*
X165710702Y-87304608D01*
X165710647Y-87304602D01*
X165710595Y-87304607D01*
X165709600Y-87304600D01*
X164055864Y-87304600D01*
X163864131Y-87112867D01*
X163842722Y-87095281D01*
X163821489Y-87077465D01*
X163820107Y-87076705D01*
X163818888Y-87075704D01*
X163794488Y-87062621D01*
X163770182Y-87049258D01*
X163768676Y-87048780D01*
X163767288Y-87048036D01*
X163740818Y-87039943D01*
X163714373Y-87031555D01*
X163712804Y-87031379D01*
X163711296Y-87030918D01*
X163683758Y-87028121D01*
X163656188Y-87025028D01*
X163653101Y-87025007D01*
X163653046Y-87025001D01*
X163652994Y-87025006D01*
X163651999Y-87024999D01*
X162239999Y-87024999D01*
X162237949Y-87025200D01*
X161109464Y-87025200D01*
X160723056Y-86638792D01*
X160724019Y-86569875D01*
X160706878Y-86483306D01*
X160673249Y-86401716D01*
X160624412Y-86328211D01*
X160562228Y-86265592D01*
X160489066Y-86216243D01*
X160407712Y-86182045D01*
X160321265Y-86164300D01*
X160249983Y-86163802D01*
X160268599Y-86160520D01*
X160350876Y-86128607D01*
X160425388Y-86081320D01*
X160489296Y-86020462D01*
X160540166Y-85948349D01*
X160576060Y-85867729D01*
X160595611Y-85781673D01*
X160597019Y-85680875D01*
X160579878Y-85594306D01*
X160546249Y-85512716D01*
X160497412Y-85439211D01*
X160435228Y-85376592D01*
X160362066Y-85327243D01*
X160280712Y-85293045D01*
X160194265Y-85275300D01*
X160106018Y-85274684D01*
X160019332Y-85291220D01*
X159937508Y-85324279D01*
X159863664Y-85372601D01*
X159800612Y-85434346D01*
X159750754Y-85507162D01*
X159715989Y-85588275D01*
X159697641Y-85674596D01*
X159696409Y-85762837D01*
X159712340Y-85849637D01*
X159744826Y-85931689D01*
X159792632Y-86005869D01*
X159853935Y-86069350D01*
X159926401Y-86119715D01*
X160007270Y-86155046D01*
X160093460Y-86173996D01*
X160170501Y-86175610D01*
X160146332Y-86180220D01*
X160064508Y-86213279D01*
X159990664Y-86261601D01*
X159927612Y-86323346D01*
X159877754Y-86396162D01*
X159842989Y-86477275D01*
X159824641Y-86563596D01*
X159823409Y-86651837D01*
X159839340Y-86738637D01*
X159871826Y-86820689D01*
X159919632Y-86894869D01*
X159980935Y-86958350D01*
X160053401Y-87008715D01*
X160134270Y-87044046D01*
X160220460Y-87062996D01*
X160300406Y-87064670D01*
X160773068Y-87537332D01*
X160794504Y-87554940D01*
X160815710Y-87572734D01*
X160817089Y-87573492D01*
X160818311Y-87574496D01*
X160842750Y-87587600D01*
X160867017Y-87600941D01*
X160868523Y-87601419D01*
X160869911Y-87602163D01*
X160896381Y-87610256D01*
X160922826Y-87618644D01*
X160924395Y-87618820D01*
X160925903Y-87619281D01*
X160953441Y-87622078D01*
X160981011Y-87625171D01*
X160984098Y-87625192D01*
X160984153Y-87625198D01*
X160984205Y-87625193D01*
X160985200Y-87625200D01*
X162173912Y-87625200D01*
X162173912Y-87925000D01*
X162176591Y-87958595D01*
X162097263Y-87942311D01*
X162009016Y-87941695D01*
X161922330Y-87958231D01*
X161840506Y-87991290D01*
X161766662Y-88039612D01*
X161703610Y-88101357D01*
X161653752Y-88174173D01*
X161618987Y-88255286D01*
X161600639Y-88341607D01*
X161599407Y-88429848D01*
X161615338Y-88516648D01*
X161647824Y-88598700D01*
X161695630Y-88672880D01*
X161756933Y-88736361D01*
X161829399Y-88786726D01*
X161910268Y-88822057D01*
X161996458Y-88841007D01*
X162084689Y-88842855D01*
X162171597Y-88827531D01*
X162173912Y-88826633D01*
X162173912Y-89085973D01*
X162160263Y-89052858D01*
X162111426Y-88979353D01*
X162049242Y-88916734D01*
X161976080Y-88867385D01*
X161894726Y-88833187D01*
X161808279Y-88815442D01*
X161720032Y-88814826D01*
X161633346Y-88831362D01*
X161551522Y-88864421D01*
X161477678Y-88912743D01*
X161414626Y-88974488D01*
X161364768Y-89047304D01*
X161330003Y-89128417D01*
X161311655Y-89214738D01*
X161310423Y-89302979D01*
X161326354Y-89389779D01*
X161358840Y-89471831D01*
X161364083Y-89479966D01*
X161289544Y-89494185D01*
X161207720Y-89527244D01*
X161133876Y-89575566D01*
X161070824Y-89637311D01*
X161020966Y-89710127D01*
X160986201Y-89791240D01*
X160967853Y-89877561D01*
X160966621Y-89965802D01*
X160982552Y-90052602D01*
X161015038Y-90134654D01*
X161062844Y-90208834D01*
X161124147Y-90272315D01*
X161196613Y-90322680D01*
X161277482Y-90358011D01*
X161363672Y-90376961D01*
X161451903Y-90378809D01*
X161538811Y-90363485D01*
X161621088Y-90331572D01*
X161695600Y-90284285D01*
X161759508Y-90223427D01*
X161810378Y-90151314D01*
X161846272Y-90070694D01*
X161865823Y-89984638D01*
X161867231Y-89883840D01*
X161850090Y-89797271D01*
X161816461Y-89715681D01*
X161814466Y-89712678D01*
X161882613Y-89700662D01*
X161964890Y-89668749D01*
X162039402Y-89621462D01*
X162103310Y-89560604D01*
X162154180Y-89488491D01*
X162180347Y-89429719D01*
X162173912Y-89475000D01*
X162173912Y-89875000D01*
X162176769Y-89910830D01*
X162195589Y-89971602D01*
X162213485Y-89998760D01*
X162209007Y-90004014D01*
X162182863Y-90062013D01*
X162173912Y-90125000D01*
X162173912Y-90525000D01*
X162176769Y-90560830D01*
X162195589Y-90621602D01*
X162213485Y-90648760D01*
X162209007Y-90654014D01*
X162182863Y-90712013D01*
X162173912Y-90775000D01*
X162173912Y-90812938D01*
X161918487Y-90557513D01*
X161893533Y-90537016D01*
X161868738Y-90516210D01*
X161867122Y-90515322D01*
X161865703Y-90514156D01*
X161837228Y-90498887D01*
X161808880Y-90483303D01*
X161807127Y-90482747D01*
X161805503Y-90481876D01*
X161774572Y-90472420D01*
X161743769Y-90462648D01*
X161741939Y-90462443D01*
X161740180Y-90461905D01*
X161708026Y-90458639D01*
X161675887Y-90455034D01*
X161672291Y-90455009D01*
X161672222Y-90455002D01*
X161672158Y-90455008D01*
X161671000Y-90455000D01*
X160719992Y-90455000D01*
X160405787Y-90140796D01*
X160388851Y-90055262D01*
X160355222Y-89973672D01*
X160306385Y-89900167D01*
X160305973Y-89899752D01*
X160305973Y-88327973D01*
X160302814Y-88295761D01*
X160300000Y-88263589D01*
X160299486Y-88261821D01*
X160299307Y-88259991D01*
X160289967Y-88229054D01*
X160280943Y-88197994D01*
X160280096Y-88196360D01*
X160279564Y-88194598D01*
X160264404Y-88166087D01*
X160249508Y-88137349D01*
X160248357Y-88135907D01*
X160247495Y-88134286D01*
X160227092Y-88109269D01*
X160206892Y-88083965D01*
X160204366Y-88081403D01*
X160204323Y-88081351D01*
X160204274Y-88081311D01*
X160203460Y-88080485D01*
X159200486Y-87077512D01*
X159147702Y-87034155D01*
X159087502Y-87001875D01*
X159022179Y-86981904D01*
X158954221Y-86975001D01*
X158886216Y-86981429D01*
X158820754Y-87000945D01*
X158775132Y-87024999D01*
X158166001Y-87024999D01*
X158138353Y-87027710D01*
X158110815Y-87030119D01*
X158109305Y-87030558D01*
X158107731Y-87030712D01*
X158081181Y-87038728D01*
X158054590Y-87046453D01*
X158053188Y-87047180D01*
X158051680Y-87047635D01*
X158027228Y-87060636D01*
X158002610Y-87073398D01*
X158001377Y-87074382D01*
X157999984Y-87075123D01*
X157998909Y-87076000D01*
X157895248Y-87076000D01*
X157894888Y-87075704D01*
X157870488Y-87062621D01*
X157846182Y-87049258D01*
X157844676Y-87048780D01*
X157843288Y-87048036D01*
X157816818Y-87039943D01*
X157790373Y-87031555D01*
X157788804Y-87031379D01*
X157787296Y-87030918D01*
X157759758Y-87028121D01*
X157732188Y-87025028D01*
X157729101Y-87025007D01*
X157729046Y-87025001D01*
X157728994Y-87025006D01*
X157727999Y-87024999D01*
X156439999Y-87024999D01*
X156412437Y-87027701D01*
X156384814Y-87030118D01*
X156383299Y-87030558D01*
X156381729Y-87030712D01*
X156355241Y-87038709D01*
X156328589Y-87046452D01*
X156327184Y-87047180D01*
X156325678Y-87047635D01*
X156301283Y-87060606D01*
X156276608Y-87073397D01*
X156275371Y-87074384D01*
X156273982Y-87075123D01*
X156252561Y-87092594D01*
X156230850Y-87109925D01*
X156228651Y-87112094D01*
X156228609Y-87112128D01*
X156228577Y-87112167D01*
X156227867Y-87112867D01*
X156187867Y-87152867D01*
X156170281Y-87174276D01*
X156152465Y-87195509D01*
X156151705Y-87196891D01*
X156150704Y-87198110D01*
X156137621Y-87222510D01*
X156124258Y-87246816D01*
X156123780Y-87248322D01*
X156123036Y-87249710D01*
X156114943Y-87276180D01*
X156106555Y-87302625D01*
X156106379Y-87304194D01*
X156105918Y-87305702D01*
X156103121Y-87333240D01*
X156100028Y-87360810D01*
X156100007Y-87363897D01*
X156100001Y-87363952D01*
X156100006Y-87364004D01*
X156099999Y-87364999D01*
X156099999Y-87686467D01*
X155719196Y-88067270D01*
X155652627Y-88066805D01*
X155565941Y-88083341D01*
X155484117Y-88116400D01*
X155455828Y-88134912D01*
X154819000Y-88134912D01*
X154783170Y-88137769D01*
X154722398Y-88156589D01*
X154669275Y-88191595D01*
X154628007Y-88240014D01*
X154601863Y-88298013D01*
X154592912Y-88361000D01*
X154592912Y-88937824D01*
X154549736Y-88981000D01*
X153670024Y-88981000D01*
X153642416Y-88983707D01*
X153614838Y-88986120D01*
X153613328Y-88986559D01*
X153611754Y-88986713D01*
X153585204Y-88994729D01*
X153558613Y-89002454D01*
X153557211Y-89003181D01*
X153555703Y-89003636D01*
X153531251Y-89016637D01*
X153506633Y-89029399D01*
X153505400Y-89030383D01*
X153504007Y-89031124D01*
X153482552Y-89048622D01*
X153460874Y-89065927D01*
X153458676Y-89068095D01*
X153458634Y-89068129D01*
X153458602Y-89068168D01*
X153457892Y-89068868D01*
X153441611Y-89085149D01*
X153375042Y-89084684D01*
X153288356Y-89101220D01*
X153206532Y-89134279D01*
X153132688Y-89182601D01*
X153069636Y-89244346D01*
X153019778Y-89317162D01*
X152985013Y-89398275D01*
X152966665Y-89484596D01*
X152965433Y-89572837D01*
X152981364Y-89659637D01*
X153013850Y-89741689D01*
X153061656Y-89815869D01*
X153116000Y-89872144D01*
X153116000Y-89914717D01*
X153079775Y-89921627D01*
X152970677Y-89965705D01*
X152872219Y-90030135D01*
X152788150Y-90112461D01*
X152721672Y-90209549D01*
X152675318Y-90317700D01*
X152650854Y-90432795D01*
X152649211Y-90550450D01*
X152670452Y-90666183D01*
X152713768Y-90775586D01*
X152777509Y-90874492D01*
X152859247Y-90959134D01*
X152955868Y-91026287D01*
X153063693Y-91073395D01*
X153178614Y-91098662D01*
X153296254Y-91101126D01*
X153412133Y-91080694D01*
X153521835Y-91038143D01*
X153621184Y-90975094D01*
X153706395Y-90893949D01*
X153774221Y-90797799D01*
X153822080Y-90690306D01*
X153848149Y-90575564D01*
X153850026Y-90441167D01*
X153844883Y-90415192D01*
X153883868Y-90442287D01*
X153991693Y-90489395D01*
X154106614Y-90514662D01*
X154224254Y-90517126D01*
X154340133Y-90496694D01*
X154342171Y-90495904D01*
X154349509Y-90535885D01*
X154381995Y-90617937D01*
X154429801Y-90692117D01*
X154491104Y-90755598D01*
X154563570Y-90805963D01*
X154644439Y-90841294D01*
X154730629Y-90860244D01*
X154818860Y-90862092D01*
X154905768Y-90846768D01*
X154988045Y-90814855D01*
X155062557Y-90767568D01*
X155117313Y-90715425D01*
X155133045Y-90726359D01*
X155213914Y-90761690D01*
X155300104Y-90780640D01*
X155388335Y-90782488D01*
X155475243Y-90767164D01*
X155479629Y-90765463D01*
X155404989Y-90840103D01*
X155329857Y-90839578D01*
X155214275Y-90861627D01*
X155105177Y-90905705D01*
X155006719Y-90970135D01*
X154922650Y-91052461D01*
X154856172Y-91149549D01*
X154809818Y-91257700D01*
X154785354Y-91372795D01*
X154783711Y-91490450D01*
X154804952Y-91606183D01*
X154848268Y-91715586D01*
X154912009Y-91814492D01*
X154993747Y-91899134D01*
X155090368Y-91966287D01*
X155198193Y-92013395D01*
X155230697Y-92020541D01*
X154862248Y-92388990D01*
X153914648Y-92388990D01*
X153929993Y-92370986D01*
X153956137Y-92312987D01*
X153965088Y-92250000D01*
X153965088Y-91750000D01*
X153962231Y-91714170D01*
X153943411Y-91653398D01*
X153908405Y-91600275D01*
X153859986Y-91559007D01*
X153801987Y-91532863D01*
X153739000Y-91523912D01*
X152839000Y-91523912D01*
X152803170Y-91526769D01*
X152742398Y-91545589D01*
X152689275Y-91580595D01*
X152648007Y-91629014D01*
X152621863Y-91687013D01*
X152620017Y-91700000D01*
X152605509Y-91700000D01*
X152577861Y-91702711D01*
X152550323Y-91705120D01*
X152548813Y-91705559D01*
X152547239Y-91705713D01*
X152520689Y-91713729D01*
X152504050Y-91718563D01*
X152487839Y-91715235D01*
X152399592Y-91714619D01*
X152312906Y-91731155D01*
X152231082Y-91764214D01*
X152157238Y-91812536D01*
X152094186Y-91874281D01*
X152044328Y-91947097D01*
X152009563Y-92028210D01*
X151991215Y-92114531D01*
X151989983Y-92202772D01*
X152005914Y-92289572D01*
X152038400Y-92371624D01*
X152086206Y-92445804D01*
X152147509Y-92509285D01*
X152219975Y-92559650D01*
X152300844Y-92594981D01*
X152317227Y-92598583D01*
X151837869Y-93077941D01*
X151820283Y-93099350D01*
X151802467Y-93120583D01*
X151801707Y-93121965D01*
X151800706Y-93123184D01*
X151787623Y-93147584D01*
X151774260Y-93171890D01*
X151773782Y-93173396D01*
X151773038Y-93174784D01*
X151764949Y-93201243D01*
X151756557Y-93227699D01*
X151756381Y-93229268D01*
X151755920Y-93230776D01*
X151753123Y-93258314D01*
X151750030Y-93285884D01*
X151750009Y-93288971D01*
X151750003Y-93289026D01*
X151750008Y-93289078D01*
X151750001Y-93290073D01*
X151750001Y-93524196D01*
X151746312Y-93522645D01*
X151659865Y-93504900D01*
X151571618Y-93504284D01*
X151484932Y-93520820D01*
X151403108Y-93553879D01*
X151329264Y-93602201D01*
X151266212Y-93663946D01*
X151216354Y-93736762D01*
X151181589Y-93817875D01*
X151163241Y-93904196D01*
X151162009Y-93992437D01*
X151167363Y-94021610D01*
X151020210Y-94005105D01*
X151005201Y-94005000D01*
X150994799Y-94005000D01*
X150785997Y-94025473D01*
X150585148Y-94086113D01*
X150399903Y-94184610D01*
X150275000Y-94286478D01*
X150275000Y-93234086D01*
X150379126Y-93361756D01*
X150510706Y-93470609D01*
X150660924Y-93551831D01*
X150824057Y-93602329D01*
X150993891Y-93620180D01*
X151163959Y-93604702D01*
X151327781Y-93556487D01*
X151479118Y-93477370D01*
X151612205Y-93370365D01*
X151721974Y-93239547D01*
X151804243Y-93089900D01*
X151855879Y-92927124D01*
X151874915Y-92757418D01*
X151875000Y-92745201D01*
X151875000Y-92334799D01*
X151858336Y-92164844D01*
X151808978Y-92001362D01*
X151728806Y-91850581D01*
X151620874Y-91718244D01*
X151489294Y-91609391D01*
X151339076Y-91528169D01*
X151175943Y-91477671D01*
X151006109Y-91459820D01*
X150836041Y-91475298D01*
X150672219Y-91523513D01*
X150520882Y-91602630D01*
X150387795Y-91709635D01*
X150278026Y-91840453D01*
X150275000Y-91845957D01*
X150275000Y-88252632D01*
X150387459Y-88346997D01*
X150571311Y-88448070D01*
X150771294Y-88511509D01*
X150979790Y-88534895D01*
X150994799Y-88535000D01*
X151005201Y-88535000D01*
X151214003Y-88514527D01*
X151414852Y-88453887D01*
X151442600Y-88439133D01*
X151482768Y-88540586D01*
X151546509Y-88639492D01*
X151628247Y-88724134D01*
X151724868Y-88791287D01*
X151832693Y-88838395D01*
X151947614Y-88863662D01*
X152065254Y-88866126D01*
X152181133Y-88845694D01*
X152290835Y-88803143D01*
X152390184Y-88740094D01*
X152475395Y-88658949D01*
X152543221Y-88562799D01*
X152591080Y-88455306D01*
X152617149Y-88340564D01*
X152618678Y-88231088D01*
X152927000Y-88231088D01*
X152962830Y-88228231D01*
X153023602Y-88209411D01*
X153076725Y-88174405D01*
X153117993Y-88125986D01*
X153144137Y-88067987D01*
X153153088Y-88005000D01*
X153153088Y-87255000D01*
X153150231Y-87219170D01*
X153131411Y-87158398D01*
X153096405Y-87105275D01*
X153047986Y-87064007D01*
X152989987Y-87037863D01*
X152927000Y-87028912D01*
X152127000Y-87028912D01*
X152091170Y-87031769D01*
X152030398Y-87050589D01*
X152004895Y-87067394D01*
X152001924Y-87057298D01*
X151904723Y-86871370D01*
X151827239Y-86775000D01*
X151958579Y-86775000D01*
X151985527Y-86773676D01*
X152005036Y-86771755D01*
X152057923Y-86761236D01*
X152076682Y-86755545D01*
X152126479Y-86734917D01*
X152143768Y-86725676D01*
X152188596Y-86695723D01*
X152203749Y-86683287D01*
X152223743Y-86665165D01*
X152613908Y-86275000D01*
X154938344Y-86275000D01*
X154937134Y-86280693D01*
X154935902Y-86368934D01*
X154951833Y-86455734D01*
X154984319Y-86537786D01*
X155032125Y-86611966D01*
X155093428Y-86675447D01*
X155165894Y-86725812D01*
X155246763Y-86761143D01*
X155332953Y-86780093D01*
X155421184Y-86781941D01*
X155508092Y-86766617D01*
X155590369Y-86734704D01*
X155664881Y-86687417D01*
X155728789Y-86626559D01*
X155779659Y-86554446D01*
X155813655Y-86478088D01*
X155950000Y-86478088D01*
X155985830Y-86475231D01*
X156046602Y-86456411D01*
X156049709Y-86454363D01*
X156116401Y-86500715D01*
X156197270Y-86536046D01*
X156283460Y-86554996D01*
X156371691Y-86556844D01*
X156458599Y-86541520D01*
X156540876Y-86509607D01*
X156615388Y-86462320D01*
X156679296Y-86401462D01*
X156730166Y-86329349D01*
X156766060Y-86248729D01*
X156785611Y-86162673D01*
X156787019Y-86061875D01*
X156769878Y-85975306D01*
X156736249Y-85893716D01*
X156687412Y-85820211D01*
X156625228Y-85757592D01*
X156552066Y-85708243D01*
X156470712Y-85674045D01*
X156384265Y-85656300D01*
X156296018Y-85655684D01*
X156275000Y-85659693D01*
X156275000Y-85636000D01*
X156827250Y-85636000D01*
X156846014Y-85651993D01*
X156904013Y-85678137D01*
X156967000Y-85687088D01*
X157667000Y-85687088D01*
X157702830Y-85684231D01*
X157763602Y-85665411D01*
X157816725Y-85630405D01*
X157857993Y-85581986D01*
X157884137Y-85523987D01*
X157893088Y-85461000D01*
X157893088Y-85211000D01*
X157890231Y-85175170D01*
X157871411Y-85114398D01*
X157853515Y-85087240D01*
X157857993Y-85081986D01*
X157884137Y-85023987D01*
X157893088Y-84961000D01*
X157893088Y-84711000D01*
X157890231Y-84675170D01*
X157871411Y-84614398D01*
X157853515Y-84587240D01*
X157857993Y-84581986D01*
X157884137Y-84523987D01*
X157893088Y-84461000D01*
X157893088Y-84211000D01*
X157890231Y-84175170D01*
X157871411Y-84114398D01*
X157836405Y-84061275D01*
X157787986Y-84020007D01*
X157778893Y-84015908D01*
X157878835Y-83977143D01*
X157978184Y-83914094D01*
X158063395Y-83832949D01*
X158093214Y-83790678D01*
X158590912Y-84288376D01*
G36*
X157612111Y-87625295D02*
X157636511Y-87638378D01*
X157660817Y-87651741D01*
X157662323Y-87652219D01*
X157663711Y-87652963D01*
X157690181Y-87661056D01*
X157716626Y-87669444D01*
X157718195Y-87669620D01*
X157719703Y-87670081D01*
X157747241Y-87672878D01*
X157774811Y-87675971D01*
X157777898Y-87675992D01*
X157777953Y-87675998D01*
X157778005Y-87675993D01*
X157779000Y-87676000D01*
X158115000Y-87676000D01*
X158142612Y-87673293D01*
X158170185Y-87670880D01*
X158171695Y-87670441D01*
X158173270Y-87670287D01*
X158199845Y-87662263D01*
X158226410Y-87654546D01*
X158227810Y-87653820D01*
X158229321Y-87653364D01*
X158253791Y-87640353D01*
X158278391Y-87627601D01*
X158279624Y-87626617D01*
X158281017Y-87625876D01*
X158282092Y-87624999D01*
X158758025Y-87624999D01*
X159605973Y-88472948D01*
X159605973Y-89900577D01*
X159559727Y-89968118D01*
X159524962Y-90049231D01*
X159506614Y-90135552D01*
X159505382Y-90223793D01*
X159521313Y-90310593D01*
X159553799Y-90392645D01*
X159601605Y-90466825D01*
X159662908Y-90530306D01*
X159735374Y-90580671D01*
X159816243Y-90616002D01*
X159902433Y-90634952D01*
X159910156Y-90635114D01*
X160237242Y-90962200D01*
X160020000Y-90962200D01*
X159992352Y-90964911D01*
X159964814Y-90967320D01*
X159963304Y-90967759D01*
X159961730Y-90967913D01*
X159935180Y-90975929D01*
X159908589Y-90983654D01*
X159907187Y-90984381D01*
X159905679Y-90984836D01*
X159881248Y-90997827D01*
X159856608Y-91010599D01*
X159855373Y-91011585D01*
X159853983Y-91012324D01*
X159832550Y-91029804D01*
X159810850Y-91047127D01*
X159808652Y-91049295D01*
X159808610Y-91049329D01*
X159808578Y-91049368D01*
X159807868Y-91050068D01*
X159387736Y-91470200D01*
X158513688Y-91470200D01*
X158513835Y-91470143D01*
X158613184Y-91407094D01*
X158698395Y-91325949D01*
X158766221Y-91229799D01*
X158814080Y-91122306D01*
X158840149Y-91007564D01*
X158842026Y-90873167D01*
X158833737Y-90831307D01*
X158896780Y-90832627D01*
X158983688Y-90817303D01*
X159065965Y-90785390D01*
X159140477Y-90738103D01*
X159204385Y-90677245D01*
X159255255Y-90605132D01*
X159291149Y-90524512D01*
X159310700Y-90438456D01*
X159312108Y-90337658D01*
X159294967Y-90251089D01*
X159261338Y-90169499D01*
X159212501Y-90095994D01*
X159150317Y-90033375D01*
X159077155Y-89984026D01*
X158995801Y-89949828D01*
X158909354Y-89932083D01*
X158840986Y-89931606D01*
X158842026Y-89857167D01*
X158819171Y-89741742D01*
X158788599Y-89667568D01*
X158842582Y-89646629D01*
X158917094Y-89599342D01*
X158981002Y-89538484D01*
X159031872Y-89466371D01*
X159067766Y-89385751D01*
X159087317Y-89299695D01*
X159088725Y-89198897D01*
X159071584Y-89112328D01*
X159037955Y-89030738D01*
X158989118Y-88957233D01*
X158926934Y-88894614D01*
X158853772Y-88845265D01*
X158772418Y-88811067D01*
X158714780Y-88799236D01*
X158715762Y-88728913D01*
X158698621Y-88642344D01*
X158664992Y-88560754D01*
X158616155Y-88487249D01*
X158553971Y-88424630D01*
X158480809Y-88375281D01*
X158399455Y-88341083D01*
X158313008Y-88323338D01*
X158224761Y-88322722D01*
X158138075Y-88339258D01*
X158056251Y-88372317D01*
X157982407Y-88420639D01*
X157919355Y-88482384D01*
X157869497Y-88555200D01*
X157834732Y-88636313D01*
X157816384Y-88722634D01*
X157815790Y-88765144D01*
X157804411Y-88728398D01*
X157769405Y-88675275D01*
X157720986Y-88634007D01*
X157662987Y-88607863D01*
X157600000Y-88598912D01*
X156709086Y-88598912D01*
X156699705Y-88551534D01*
X156666076Y-88469944D01*
X156617239Y-88396439D01*
X156555055Y-88333820D01*
X156481893Y-88284471D01*
X156400539Y-88250273D01*
X156387415Y-88247579D01*
X156612131Y-88022863D01*
X156629717Y-88001454D01*
X156647533Y-87980221D01*
X156648293Y-87978839D01*
X156649294Y-87977620D01*
X156662377Y-87953220D01*
X156675740Y-87928914D01*
X156676218Y-87927408D01*
X156676962Y-87926020D01*
X156685055Y-87899550D01*
X156693443Y-87873105D01*
X156693619Y-87871536D01*
X156694080Y-87870028D01*
X156696877Y-87842490D01*
X156699970Y-87814920D01*
X156699991Y-87811833D01*
X156699997Y-87811778D01*
X156699992Y-87811726D01*
X156699999Y-87810731D01*
X156699999Y-87624999D01*
X157611751Y-87624999D01*
X157612111Y-87625295D01*
X157612111Y-87625295D01*
G37*
X157612111Y-87625295D02*
X157636511Y-87638378D01*
X157660817Y-87651741D01*
X157662323Y-87652219D01*
X157663711Y-87652963D01*
X157690181Y-87661056D01*
X157716626Y-87669444D01*
X157718195Y-87669620D01*
X157719703Y-87670081D01*
X157747241Y-87672878D01*
X157774811Y-87675971D01*
X157777898Y-87675992D01*
X157777953Y-87675998D01*
X157778005Y-87675993D01*
X157779000Y-87676000D01*
X158115000Y-87676000D01*
X158142612Y-87673293D01*
X158170185Y-87670880D01*
X158171695Y-87670441D01*
X158173270Y-87670287D01*
X158199845Y-87662263D01*
X158226410Y-87654546D01*
X158227810Y-87653820D01*
X158229321Y-87653364D01*
X158253791Y-87640353D01*
X158278391Y-87627601D01*
X158279624Y-87626617D01*
X158281017Y-87625876D01*
X158282092Y-87624999D01*
X158758025Y-87624999D01*
X159605973Y-88472948D01*
X159605973Y-89900577D01*
X159559727Y-89968118D01*
X159524962Y-90049231D01*
X159506614Y-90135552D01*
X159505382Y-90223793D01*
X159521313Y-90310593D01*
X159553799Y-90392645D01*
X159601605Y-90466825D01*
X159662908Y-90530306D01*
X159735374Y-90580671D01*
X159816243Y-90616002D01*
X159902433Y-90634952D01*
X159910156Y-90635114D01*
X160237242Y-90962200D01*
X160020000Y-90962200D01*
X159992352Y-90964911D01*
X159964814Y-90967320D01*
X159963304Y-90967759D01*
X159961730Y-90967913D01*
X159935180Y-90975929D01*
X159908589Y-90983654D01*
X159907187Y-90984381D01*
X159905679Y-90984836D01*
X159881248Y-90997827D01*
X159856608Y-91010599D01*
X159855373Y-91011585D01*
X159853983Y-91012324D01*
X159832550Y-91029804D01*
X159810850Y-91047127D01*
X159808652Y-91049295D01*
X159808610Y-91049329D01*
X159808578Y-91049368D01*
X159807868Y-91050068D01*
X159387736Y-91470200D01*
X158513688Y-91470200D01*
X158513835Y-91470143D01*
X158613184Y-91407094D01*
X158698395Y-91325949D01*
X158766221Y-91229799D01*
X158814080Y-91122306D01*
X158840149Y-91007564D01*
X158842026Y-90873167D01*
X158833737Y-90831307D01*
X158896780Y-90832627D01*
X158983688Y-90817303D01*
X159065965Y-90785390D01*
X159140477Y-90738103D01*
X159204385Y-90677245D01*
X159255255Y-90605132D01*
X159291149Y-90524512D01*
X159310700Y-90438456D01*
X159312108Y-90337658D01*
X159294967Y-90251089D01*
X159261338Y-90169499D01*
X159212501Y-90095994D01*
X159150317Y-90033375D01*
X159077155Y-89984026D01*
X158995801Y-89949828D01*
X158909354Y-89932083D01*
X158840986Y-89931606D01*
X158842026Y-89857167D01*
X158819171Y-89741742D01*
X158788599Y-89667568D01*
X158842582Y-89646629D01*
X158917094Y-89599342D01*
X158981002Y-89538484D01*
X159031872Y-89466371D01*
X159067766Y-89385751D01*
X159087317Y-89299695D01*
X159088725Y-89198897D01*
X159071584Y-89112328D01*
X159037955Y-89030738D01*
X158989118Y-88957233D01*
X158926934Y-88894614D01*
X158853772Y-88845265D01*
X158772418Y-88811067D01*
X158714780Y-88799236D01*
X158715762Y-88728913D01*
X158698621Y-88642344D01*
X158664992Y-88560754D01*
X158616155Y-88487249D01*
X158553971Y-88424630D01*
X158480809Y-88375281D01*
X158399455Y-88341083D01*
X158313008Y-88323338D01*
X158224761Y-88322722D01*
X158138075Y-88339258D01*
X158056251Y-88372317D01*
X157982407Y-88420639D01*
X157919355Y-88482384D01*
X157869497Y-88555200D01*
X157834732Y-88636313D01*
X157816384Y-88722634D01*
X157815790Y-88765144D01*
X157804411Y-88728398D01*
X157769405Y-88675275D01*
X157720986Y-88634007D01*
X157662987Y-88607863D01*
X157600000Y-88598912D01*
X156709086Y-88598912D01*
X156699705Y-88551534D01*
X156666076Y-88469944D01*
X156617239Y-88396439D01*
X156555055Y-88333820D01*
X156481893Y-88284471D01*
X156400539Y-88250273D01*
X156387415Y-88247579D01*
X156612131Y-88022863D01*
X156629717Y-88001454D01*
X156647533Y-87980221D01*
X156648293Y-87978839D01*
X156649294Y-87977620D01*
X156662377Y-87953220D01*
X156675740Y-87928914D01*
X156676218Y-87927408D01*
X156676962Y-87926020D01*
X156685055Y-87899550D01*
X156693443Y-87873105D01*
X156693619Y-87871536D01*
X156694080Y-87870028D01*
X156696877Y-87842490D01*
X156699970Y-87814920D01*
X156699991Y-87811833D01*
X156699997Y-87811778D01*
X156699992Y-87811726D01*
X156699999Y-87810731D01*
X156699999Y-87624999D01*
X157611751Y-87624999D01*
X157612111Y-87625295D01*
G36*
X164284460Y-88479006D02*
X164355776Y-88480500D01*
X164352631Y-88495297D01*
X164351399Y-88583538D01*
X164367330Y-88670338D01*
X164399816Y-88752390D01*
X164447622Y-88826570D01*
X164508925Y-88890051D01*
X164581391Y-88940416D01*
X164662260Y-88975747D01*
X164748450Y-88994697D01*
X164836681Y-88996545D01*
X164923589Y-88981221D01*
X165005866Y-88949308D01*
X165080378Y-88902021D01*
X165144286Y-88841163D01*
X165195156Y-88769050D01*
X165231050Y-88688430D01*
X165243871Y-88631998D01*
X165248618Y-88657863D01*
X165281104Y-88739915D01*
X165328910Y-88814095D01*
X165390213Y-88877576D01*
X165462679Y-88927941D01*
X165478171Y-88934709D01*
X165478171Y-89528359D01*
X165465992Y-89538081D01*
X165462513Y-89541513D01*
X164444114Y-90559912D01*
X163963000Y-90559912D01*
X163927170Y-90562769D01*
X163866398Y-90581589D01*
X163813275Y-90616595D01*
X163772007Y-90665014D01*
X163745863Y-90723013D01*
X163736912Y-90786000D01*
X163736912Y-91275000D01*
X163600453Y-91275000D01*
X163617137Y-91237987D01*
X163626088Y-91175000D01*
X163626088Y-90775000D01*
X163623231Y-90739170D01*
X163604411Y-90678398D01*
X163586515Y-90651240D01*
X163590993Y-90645986D01*
X163617137Y-90587987D01*
X163626088Y-90525000D01*
X163626088Y-90125000D01*
X163623231Y-90089170D01*
X163604411Y-90028398D01*
X163586515Y-90001240D01*
X163590993Y-89995986D01*
X163617137Y-89937987D01*
X163626088Y-89875000D01*
X163626088Y-89475000D01*
X163623231Y-89439170D01*
X163604411Y-89378398D01*
X163586515Y-89351240D01*
X163590993Y-89345986D01*
X163617137Y-89287987D01*
X163626088Y-89225000D01*
X163626088Y-88825000D01*
X163623231Y-88789170D01*
X163606659Y-88735656D01*
X163616801Y-88742705D01*
X163697670Y-88778036D01*
X163783860Y-88796986D01*
X163872091Y-88798834D01*
X163958999Y-88783510D01*
X164041276Y-88751597D01*
X164115788Y-88704310D01*
X164179696Y-88643452D01*
X164230566Y-88571339D01*
X164266460Y-88490719D01*
X164269851Y-88475794D01*
X164284460Y-88479006D01*
X164284460Y-88479006D01*
G37*
X164284460Y-88479006D02*
X164355776Y-88480500D01*
X164352631Y-88495297D01*
X164351399Y-88583538D01*
X164367330Y-88670338D01*
X164399816Y-88752390D01*
X164447622Y-88826570D01*
X164508925Y-88890051D01*
X164581391Y-88940416D01*
X164662260Y-88975747D01*
X164748450Y-88994697D01*
X164836681Y-88996545D01*
X164923589Y-88981221D01*
X165005866Y-88949308D01*
X165080378Y-88902021D01*
X165144286Y-88841163D01*
X165195156Y-88769050D01*
X165231050Y-88688430D01*
X165243871Y-88631998D01*
X165248618Y-88657863D01*
X165281104Y-88739915D01*
X165328910Y-88814095D01*
X165390213Y-88877576D01*
X165462679Y-88927941D01*
X165478171Y-88934709D01*
X165478171Y-89528359D01*
X165465992Y-89538081D01*
X165462513Y-89541513D01*
X164444114Y-90559912D01*
X163963000Y-90559912D01*
X163927170Y-90562769D01*
X163866398Y-90581589D01*
X163813275Y-90616595D01*
X163772007Y-90665014D01*
X163745863Y-90723013D01*
X163736912Y-90786000D01*
X163736912Y-91275000D01*
X163600453Y-91275000D01*
X163617137Y-91237987D01*
X163626088Y-91175000D01*
X163626088Y-90775000D01*
X163623231Y-90739170D01*
X163604411Y-90678398D01*
X163586515Y-90651240D01*
X163590993Y-90645986D01*
X163617137Y-90587987D01*
X163626088Y-90525000D01*
X163626088Y-90125000D01*
X163623231Y-90089170D01*
X163604411Y-90028398D01*
X163586515Y-90001240D01*
X163590993Y-89995986D01*
X163617137Y-89937987D01*
X163626088Y-89875000D01*
X163626088Y-89475000D01*
X163623231Y-89439170D01*
X163604411Y-89378398D01*
X163586515Y-89351240D01*
X163590993Y-89345986D01*
X163617137Y-89287987D01*
X163626088Y-89225000D01*
X163626088Y-88825000D01*
X163623231Y-88789170D01*
X163606659Y-88735656D01*
X163616801Y-88742705D01*
X163697670Y-88778036D01*
X163783860Y-88796986D01*
X163872091Y-88798834D01*
X163958999Y-88783510D01*
X164041276Y-88751597D01*
X164115788Y-88704310D01*
X164179696Y-88643452D01*
X164230566Y-88571339D01*
X164266460Y-88490719D01*
X164269851Y-88475794D01*
X164284460Y-88479006D01*
G36*
X161868905Y-80555161D02*
X161854836Y-80566707D01*
X161816707Y-80604836D01*
X161804271Y-80619990D01*
X161774324Y-80664811D01*
X161765083Y-80682100D01*
X161744455Y-80731897D01*
X161738764Y-80750656D01*
X161728245Y-80803543D01*
X161726324Y-80823052D01*
X161725000Y-80850000D01*
X161725000Y-84308200D01*
X161638174Y-84308200D01*
X160097660Y-82767686D01*
X160072706Y-82747189D01*
X160047911Y-82726383D01*
X160046295Y-82725495D01*
X160044876Y-82724329D01*
X160016401Y-82709060D01*
X159988053Y-82693476D01*
X159986300Y-82692920D01*
X159984676Y-82692049D01*
X159953745Y-82682593D01*
X159922942Y-82672821D01*
X159921112Y-82672616D01*
X159919353Y-82672078D01*
X159887199Y-82668812D01*
X159855060Y-82665207D01*
X159851464Y-82665182D01*
X159851395Y-82665175D01*
X159851331Y-82665181D01*
X159850173Y-82665173D01*
X159377414Y-82665173D01*
X159340552Y-82628053D01*
X159259261Y-82573221D01*
X159168867Y-82535223D01*
X159072815Y-82515506D01*
X158974762Y-82514822D01*
X158878444Y-82533195D01*
X158787529Y-82569927D01*
X158705480Y-82623619D01*
X158703554Y-82625506D01*
X158358478Y-82280430D01*
X158665165Y-81973743D01*
X158679822Y-81957888D01*
X158690013Y-81945956D01*
X158715375Y-81911048D01*
X158723574Y-81897669D01*
X158743170Y-81859212D01*
X158749175Y-81844714D01*
X158762508Y-81803675D01*
X158766171Y-81788417D01*
X158772921Y-81745796D01*
X158774152Y-81730153D01*
X158775000Y-81708579D01*
X158775000Y-80419487D01*
X158939183Y-80384901D01*
X160826968Y-80361972D01*
X161868905Y-80555161D01*
X161868905Y-80555161D01*
G37*
X161868905Y-80555161D02*
X161854836Y-80566707D01*
X161816707Y-80604836D01*
X161804271Y-80619990D01*
X161774324Y-80664811D01*
X161765083Y-80682100D01*
X161744455Y-80731897D01*
X161738764Y-80750656D01*
X161728245Y-80803543D01*
X161726324Y-80823052D01*
X161725000Y-80850000D01*
X161725000Y-84308200D01*
X161638174Y-84308200D01*
X160097660Y-82767686D01*
X160072706Y-82747189D01*
X160047911Y-82726383D01*
X160046295Y-82725495D01*
X160044876Y-82724329D01*
X160016401Y-82709060D01*
X159988053Y-82693476D01*
X159986300Y-82692920D01*
X159984676Y-82692049D01*
X159953745Y-82682593D01*
X159922942Y-82672821D01*
X159921112Y-82672616D01*
X159919353Y-82672078D01*
X159887199Y-82668812D01*
X159855060Y-82665207D01*
X159851464Y-82665182D01*
X159851395Y-82665175D01*
X159851331Y-82665181D01*
X159850173Y-82665173D01*
X159377414Y-82665173D01*
X159340552Y-82628053D01*
X159259261Y-82573221D01*
X159168867Y-82535223D01*
X159072815Y-82515506D01*
X158974762Y-82514822D01*
X158878444Y-82533195D01*
X158787529Y-82569927D01*
X158705480Y-82623619D01*
X158703554Y-82625506D01*
X158358478Y-82280430D01*
X158665165Y-81973743D01*
X158679822Y-81957888D01*
X158690013Y-81945956D01*
X158715375Y-81911048D01*
X158723574Y-81897669D01*
X158743170Y-81859212D01*
X158749175Y-81844714D01*
X158762508Y-81803675D01*
X158766171Y-81788417D01*
X158772921Y-81745796D01*
X158774152Y-81730153D01*
X158775000Y-81708579D01*
X158775000Y-80419487D01*
X158939183Y-80384901D01*
X160826968Y-80361972D01*
X161868905Y-80555161D01*
G36*
X168452723Y-85296072D02*
X169205406Y-87027466D01*
X169255063Y-87255292D01*
X169246886Y-87255235D01*
X169150568Y-87273608D01*
X169059653Y-87310340D01*
X168977604Y-87364032D01*
X168907547Y-87432637D01*
X168871861Y-87484755D01*
X168154051Y-86766945D01*
X168130880Y-86747913D01*
X168107855Y-86728593D01*
X168106354Y-86727768D01*
X168105037Y-86726686D01*
X168078626Y-86712524D01*
X168052272Y-86698036D01*
X168050642Y-86697519D01*
X168049137Y-86696712D01*
X168020439Y-86687938D01*
X167991812Y-86678857D01*
X167990114Y-86678667D01*
X167988480Y-86678167D01*
X167973948Y-86676691D01*
X166321155Y-85023898D01*
X166319941Y-84715682D01*
X166335833Y-84679988D01*
X166357557Y-84584370D01*
X166359121Y-84472372D01*
X166340076Y-84376185D01*
X166318397Y-84323587D01*
X166317529Y-84103380D01*
X166318164Y-84095794D01*
X166319268Y-84091620D01*
X166321082Y-84087701D01*
X166323551Y-84084157D01*
X166326601Y-84081094D01*
X166330127Y-84078617D01*
X166334042Y-84076787D01*
X166338217Y-84075665D01*
X166345798Y-84075000D01*
X167607342Y-84075000D01*
X168452723Y-85296072D01*
X168452723Y-85296072D01*
G37*
X168452723Y-85296072D02*
X169205406Y-87027466D01*
X169255063Y-87255292D01*
X169246886Y-87255235D01*
X169150568Y-87273608D01*
X169059653Y-87310340D01*
X168977604Y-87364032D01*
X168907547Y-87432637D01*
X168871861Y-87484755D01*
X168154051Y-86766945D01*
X168130880Y-86747913D01*
X168107855Y-86728593D01*
X168106354Y-86727768D01*
X168105037Y-86726686D01*
X168078626Y-86712524D01*
X168052272Y-86698036D01*
X168050642Y-86697519D01*
X168049137Y-86696712D01*
X168020439Y-86687938D01*
X167991812Y-86678857D01*
X167990114Y-86678667D01*
X167988480Y-86678167D01*
X167973948Y-86676691D01*
X166321155Y-85023898D01*
X166319941Y-84715682D01*
X166335833Y-84679988D01*
X166357557Y-84584370D01*
X166359121Y-84472372D01*
X166340076Y-84376185D01*
X166318397Y-84323587D01*
X166317529Y-84103380D01*
X166318164Y-84095794D01*
X166319268Y-84091620D01*
X166321082Y-84087701D01*
X166323551Y-84084157D01*
X166326601Y-84081094D01*
X166330127Y-84078617D01*
X166334042Y-84076787D01*
X166338217Y-84075665D01*
X166345798Y-84075000D01*
X167607342Y-84075000D01*
X168452723Y-85296072D01*
G36*
X165078994Y-85309968D02*
X163652879Y-85309968D01*
X163664849Y-85257281D01*
X163666413Y-85145283D01*
X163647368Y-85049096D01*
X163610002Y-84958440D01*
X163555739Y-84876767D01*
X163486646Y-84807191D01*
X163405355Y-84752359D01*
X163314961Y-84714361D01*
X163275000Y-84706158D01*
X163275000Y-83863908D01*
X163453967Y-83684941D01*
X165078994Y-85309968D01*
X165078994Y-85309968D01*
G37*
X165078994Y-85309968D02*
X163652879Y-85309968D01*
X163664849Y-85257281D01*
X163666413Y-85145283D01*
X163647368Y-85049096D01*
X163610002Y-84958440D01*
X163555739Y-84876767D01*
X163486646Y-84807191D01*
X163405355Y-84752359D01*
X163314961Y-84714361D01*
X163275000Y-84706158D01*
X163275000Y-83863908D01*
X163453967Y-83684941D01*
X165078994Y-85309968D01*
G36*
X166022402Y-82429918D02*
X166175000Y-82577817D01*
X166175000Y-83764883D01*
X166134323Y-83788438D01*
X166120024Y-83798483D01*
X166083263Y-83829440D01*
X166070931Y-83841821D01*
X166040126Y-83878697D01*
X166030137Y-83893036D01*
X166006219Y-83934716D01*
X165998879Y-83950574D01*
X165982579Y-83995788D01*
X165978112Y-84012682D01*
X165969934Y-84060036D01*
X165968476Y-84077450D01*
X165967519Y-84101477D01*
X165970008Y-84733427D01*
X165934769Y-84722248D01*
X165881667Y-84716292D01*
X164277141Y-83111767D01*
X165376748Y-82012160D01*
X166022402Y-82429918D01*
X166022402Y-82429918D01*
G37*
X166022402Y-82429918D02*
X166175000Y-82577817D01*
X166175000Y-83764883D01*
X166134323Y-83788438D01*
X166120024Y-83798483D01*
X166083263Y-83829440D01*
X166070931Y-83841821D01*
X166040126Y-83878697D01*
X166030137Y-83893036D01*
X166006219Y-83934716D01*
X165998879Y-83950574D01*
X165982579Y-83995788D01*
X165978112Y-84012682D01*
X165969934Y-84060036D01*
X165968476Y-84077450D01*
X165967519Y-84101477D01*
X165970008Y-84733427D01*
X165934769Y-84722248D01*
X165881667Y-84716292D01*
X164277141Y-83111767D01*
X165376748Y-82012160D01*
X166022402Y-82429918D01*
G36*
X162083000Y-81002373D02*
X162083000Y-82089002D01*
X162086159Y-82121218D01*
X162088973Y-82153385D01*
X162089486Y-82155152D01*
X162089666Y-82156984D01*
X162099014Y-82187947D01*
X162108030Y-82218980D01*
X162108876Y-82220613D01*
X162109409Y-82222377D01*
X162124578Y-82250906D01*
X162139465Y-82279626D01*
X162140616Y-82281068D01*
X162141478Y-82282689D01*
X162161881Y-82307706D01*
X162182081Y-82333010D01*
X162184604Y-82335567D01*
X162184650Y-82335624D01*
X162184703Y-82335668D01*
X162185513Y-82336489D01*
X163046511Y-83197488D01*
X163071512Y-83218024D01*
X163096261Y-83238791D01*
X163097874Y-83239678D01*
X163099295Y-83240845D01*
X163127757Y-83256106D01*
X163156119Y-83271698D01*
X163157876Y-83272255D01*
X163159496Y-83273124D01*
X163190340Y-83282554D01*
X163221230Y-83292353D01*
X163223065Y-83292559D01*
X163224819Y-83293095D01*
X163256923Y-83296357D01*
X163289112Y-83299967D01*
X163292708Y-83299992D01*
X163292777Y-83299999D01*
X163292841Y-83299993D01*
X163293999Y-83300001D01*
X163343933Y-83300001D01*
X162976256Y-83667678D01*
X162972259Y-83672002D01*
X162962068Y-83683934D01*
X162955151Y-83693454D01*
X162946952Y-83706833D01*
X162941608Y-83717322D01*
X162935603Y-83731820D01*
X162931966Y-83743012D01*
X162928303Y-83758270D01*
X162926462Y-83769894D01*
X162925231Y-83785537D01*
X162925000Y-83791421D01*
X162925000Y-84229889D01*
X162891886Y-84278251D01*
X162847464Y-84381896D01*
X162824019Y-84492195D01*
X162822444Y-84604948D01*
X162842800Y-84715858D01*
X162860249Y-84759928D01*
X162853535Y-84746976D01*
X162852384Y-84745534D01*
X162851522Y-84743913D01*
X162831119Y-84718896D01*
X162810919Y-84693592D01*
X162808393Y-84691030D01*
X162808350Y-84690978D01*
X162808301Y-84690938D01*
X162807487Y-84690112D01*
X162528087Y-84410713D01*
X162503133Y-84390216D01*
X162478338Y-84369410D01*
X162476722Y-84368522D01*
X162475303Y-84367356D01*
X162446828Y-84352087D01*
X162418480Y-84336503D01*
X162416727Y-84335947D01*
X162415103Y-84335076D01*
X162384172Y-84325620D01*
X162353369Y-84315848D01*
X162351539Y-84315643D01*
X162349780Y-84315105D01*
X162317626Y-84311839D01*
X162285487Y-84308234D01*
X162281891Y-84308209D01*
X162281822Y-84308202D01*
X162281758Y-84308208D01*
X162280600Y-84308200D01*
X162075000Y-84308200D01*
X162075000Y-80994089D01*
X162083000Y-81002373D01*
X162083000Y-81002373D01*
G37*
X162083000Y-81002373D02*
X162083000Y-82089002D01*
X162086159Y-82121218D01*
X162088973Y-82153385D01*
X162089486Y-82155152D01*
X162089666Y-82156984D01*
X162099014Y-82187947D01*
X162108030Y-82218980D01*
X162108876Y-82220613D01*
X162109409Y-82222377D01*
X162124578Y-82250906D01*
X162139465Y-82279626D01*
X162140616Y-82281068D01*
X162141478Y-82282689D01*
X162161881Y-82307706D01*
X162182081Y-82333010D01*
X162184604Y-82335567D01*
X162184650Y-82335624D01*
X162184703Y-82335668D01*
X162185513Y-82336489D01*
X163046511Y-83197488D01*
X163071512Y-83218024D01*
X163096261Y-83238791D01*
X163097874Y-83239678D01*
X163099295Y-83240845D01*
X163127757Y-83256106D01*
X163156119Y-83271698D01*
X163157876Y-83272255D01*
X163159496Y-83273124D01*
X163190340Y-83282554D01*
X163221230Y-83292353D01*
X163223065Y-83292559D01*
X163224819Y-83293095D01*
X163256923Y-83296357D01*
X163289112Y-83299967D01*
X163292708Y-83299992D01*
X163292777Y-83299999D01*
X163292841Y-83299993D01*
X163293999Y-83300001D01*
X163343933Y-83300001D01*
X162976256Y-83667678D01*
X162972259Y-83672002D01*
X162962068Y-83683934D01*
X162955151Y-83693454D01*
X162946952Y-83706833D01*
X162941608Y-83717322D01*
X162935603Y-83731820D01*
X162931966Y-83743012D01*
X162928303Y-83758270D01*
X162926462Y-83769894D01*
X162925231Y-83785537D01*
X162925000Y-83791421D01*
X162925000Y-84229889D01*
X162891886Y-84278251D01*
X162847464Y-84381896D01*
X162824019Y-84492195D01*
X162822444Y-84604948D01*
X162842800Y-84715858D01*
X162860249Y-84759928D01*
X162853535Y-84746976D01*
X162852384Y-84745534D01*
X162851522Y-84743913D01*
X162831119Y-84718896D01*
X162810919Y-84693592D01*
X162808393Y-84691030D01*
X162808350Y-84690978D01*
X162808301Y-84690938D01*
X162807487Y-84690112D01*
X162528087Y-84410713D01*
X162503133Y-84390216D01*
X162478338Y-84369410D01*
X162476722Y-84368522D01*
X162475303Y-84367356D01*
X162446828Y-84352087D01*
X162418480Y-84336503D01*
X162416727Y-84335947D01*
X162415103Y-84335076D01*
X162384172Y-84325620D01*
X162353369Y-84315848D01*
X162351539Y-84315643D01*
X162349780Y-84315105D01*
X162317626Y-84311839D01*
X162285487Y-84308234D01*
X162281891Y-84308209D01*
X162281822Y-84308202D01*
X162281758Y-84308208D01*
X162280600Y-84308200D01*
X162075000Y-84308200D01*
X162075000Y-80994089D01*
X162083000Y-81002373D01*
G36*
X164437338Y-81404332D02*
X165076223Y-81817711D01*
X164029654Y-82864280D01*
X163867888Y-82702514D01*
X163842934Y-82682017D01*
X163818139Y-82661211D01*
X163816523Y-82660323D01*
X163815104Y-82659157D01*
X163786629Y-82643888D01*
X163758281Y-82628304D01*
X163756528Y-82627748D01*
X163754904Y-82626877D01*
X163723973Y-82617421D01*
X163693170Y-82607649D01*
X163691340Y-82607444D01*
X163689581Y-82606906D01*
X163657427Y-82603640D01*
X163625288Y-82600035D01*
X163621692Y-82600010D01*
X163621623Y-82600003D01*
X163621559Y-82600009D01*
X163620401Y-82600001D01*
X163438974Y-82600001D01*
X162783000Y-81944028D01*
X162783000Y-81002173D01*
X162813329Y-80973291D01*
X162869851Y-80893166D01*
X162900200Y-80825000D01*
X162981847Y-80825000D01*
X164437338Y-81404332D01*
X164437338Y-81404332D01*
G37*
X164437338Y-81404332D02*
X165076223Y-81817711D01*
X164029654Y-82864280D01*
X163867888Y-82702514D01*
X163842934Y-82682017D01*
X163818139Y-82661211D01*
X163816523Y-82660323D01*
X163815104Y-82659157D01*
X163786629Y-82643888D01*
X163758281Y-82628304D01*
X163756528Y-82627748D01*
X163754904Y-82626877D01*
X163723973Y-82617421D01*
X163693170Y-82607649D01*
X163691340Y-82607444D01*
X163689581Y-82606906D01*
X163657427Y-82603640D01*
X163625288Y-82600035D01*
X163621692Y-82600010D01*
X163621623Y-82600003D01*
X163621559Y-82600009D01*
X163620401Y-82600001D01*
X163438974Y-82600001D01*
X162783000Y-81944028D01*
X162783000Y-81002173D01*
X162813329Y-80973291D01*
X162869851Y-80893166D01*
X162900200Y-80825000D01*
X162981847Y-80825000D01*
X164437338Y-81404332D01*
G36*
X158425000Y-81705630D02*
X158424463Y-81712454D01*
X158423555Y-81716237D01*
X158422070Y-81719821D01*
X158420038Y-81723136D01*
X158415595Y-81728339D01*
X157976256Y-82167678D01*
X157972259Y-82172002D01*
X157962068Y-82183934D01*
X157955151Y-82193454D01*
X157954443Y-82194608D01*
X157855014Y-82095179D01*
X157831816Y-82076124D01*
X157808818Y-82056827D01*
X157807321Y-82056004D01*
X157806000Y-82054919D01*
X157779550Y-82040737D01*
X157753235Y-82026270D01*
X157751605Y-82025753D01*
X157750100Y-82024946D01*
X157721402Y-82016172D01*
X157692775Y-82007091D01*
X157691077Y-82006901D01*
X157689443Y-82006401D01*
X157659569Y-82003366D01*
X157629742Y-82000021D01*
X157626401Y-81999997D01*
X157626338Y-81999991D01*
X157626279Y-81999997D01*
X157625204Y-81999989D01*
X156231811Y-81999989D01*
X156201987Y-82002913D01*
X156172027Y-82005535D01*
X156170384Y-82006012D01*
X156168685Y-82006179D01*
X156139981Y-82014845D01*
X156111117Y-82023231D01*
X156109598Y-82024018D01*
X156107963Y-82024512D01*
X156081494Y-82038586D01*
X156054803Y-82052421D01*
X156053465Y-82053489D01*
X156051959Y-82054290D01*
X156028723Y-82073241D01*
X156005233Y-82091993D01*
X156002853Y-82094340D01*
X156002805Y-82094379D01*
X156002768Y-82094423D01*
X156002002Y-82095179D01*
X155892523Y-82204657D01*
X155852505Y-82225400D01*
X154825000Y-82225400D01*
X154825000Y-81876263D01*
X155355196Y-81514644D01*
X157091805Y-80774065D01*
X158425000Y-80493218D01*
X158425000Y-81705630D01*
X158425000Y-81705630D01*
G37*
X158425000Y-81705630D02*
X158424463Y-81712454D01*
X158423555Y-81716237D01*
X158422070Y-81719821D01*
X158420038Y-81723136D01*
X158415595Y-81728339D01*
X157976256Y-82167678D01*
X157972259Y-82172002D01*
X157962068Y-82183934D01*
X157955151Y-82193454D01*
X157954443Y-82194608D01*
X157855014Y-82095179D01*
X157831816Y-82076124D01*
X157808818Y-82056827D01*
X157807321Y-82056004D01*
X157806000Y-82054919D01*
X157779550Y-82040737D01*
X157753235Y-82026270D01*
X157751605Y-82025753D01*
X157750100Y-82024946D01*
X157721402Y-82016172D01*
X157692775Y-82007091D01*
X157691077Y-82006901D01*
X157689443Y-82006401D01*
X157659569Y-82003366D01*
X157629742Y-82000021D01*
X157626401Y-81999997D01*
X157626338Y-81999991D01*
X157626279Y-81999997D01*
X157625204Y-81999989D01*
X156231811Y-81999989D01*
X156201987Y-82002913D01*
X156172027Y-82005535D01*
X156170384Y-82006012D01*
X156168685Y-82006179D01*
X156139981Y-82014845D01*
X156111117Y-82023231D01*
X156109598Y-82024018D01*
X156107963Y-82024512D01*
X156081494Y-82038586D01*
X156054803Y-82052421D01*
X156053465Y-82053489D01*
X156051959Y-82054290D01*
X156028723Y-82073241D01*
X156005233Y-82091993D01*
X156002853Y-82094340D01*
X156002805Y-82094379D01*
X156002768Y-82094423D01*
X156002002Y-82095179D01*
X155892523Y-82204657D01*
X155852505Y-82225400D01*
X154825000Y-82225400D01*
X154825000Y-81876263D01*
X155355196Y-81514644D01*
X157091805Y-80774065D01*
X158425000Y-80493218D01*
X158425000Y-81705630D01*
M02*
